<svg width="1332" height="211" viewBox="0 0 1332 211" fill="none" xmlns="http://www.w3.org/2000/svg">
<rect width="209.872" height="209.872" transform="translate(0 0.308838)" fill="#32439A"/>
<g clip-path="url(#clip0_74_549)">
<path d="M48.1645 75.1218V80.276H41.1541V93.9877H47.3381V99.1418H41.1541V116.355H36V75.1218H48.1645Z" fill="#98C8D6"/>
<path d="M58.6285 84.4028V111.615H61.62V116.355H50.0659V111.615H53.4719V89.1425H50.2769V84.4028H58.6285ZM58.7817 75.1218V80.5849H53.1127V75.1218H58.7817Z" fill="#98C8D6"/>
<path d="M73.729 74.6069C75.2361 74.6069 76.3781 75.1311 77.155 76.1793C77.932 77.2275 78.3188 78.6618 78.3155 80.4819V92.1315H73.1739V81.8333C73.1939 81.2982 73.0149 80.7747 72.6715 80.3639C72.4983 80.1678 72.2835 80.0128 72.0428 79.9102C71.802 79.8077 71.5415 79.7602 71.28 79.7711C70.9777 79.756 70.6758 79.8074 70.3955 79.9215C70.1152 80.0356 69.8632 80.2098 69.6574 80.4317C69.2258 80.9304 69.0035 81.5765 69.037 82.2352V116.355H63.8804V75.1218H68.7281L68.3161 78.9874H68.934C69.7261 76.0671 71.3244 74.6069 73.729 74.6069Z" fill="#98C8D6"/>
<path d="M88.7773 74.6069C90.8737 74.6069 92.601 75.26 93.959 76.5661C95.3171 77.8722 95.9952 79.6246 95.9936 81.8232V91.4106C95.9936 93.5054 95.4912 95.18 94.4865 96.4342C94.007 97.0434 93.3909 97.5311 92.6879 97.858C91.9849 98.1848 91.2149 98.3415 90.4401 98.3155C89.723 98.3548 89.006 98.2356 88.3402 97.9663C87.8714 97.7433 87.4305 97.466 87.0266 97.14H86.4087L86.7176 99.3051V109.666C86.708 109.943 86.7541 110.219 86.8533 110.477C86.9526 110.736 87.1028 110.971 87.2951 111.171C87.4875 111.37 87.7179 111.528 87.9728 111.636C88.2276 111.744 88.5017 111.8 88.7785 111.8C89.0554 111.8 89.3294 111.744 89.5843 111.636C89.8391 111.528 90.0696 111.37 90.2619 111.171C90.4542 110.971 90.6045 110.736 90.7037 110.477C90.8029 110.219 90.8491 109.943 90.8394 109.666V102.44H95.9936V109.656C95.9936 111.855 95.3154 113.607 93.959 114.913C92.6027 116.219 90.8754 116.872 88.7773 116.872C86.6825 116.872 84.956 116.219 83.598 114.913C82.24 113.607 81.5618 111.855 81.5635 109.656V81.8232C81.5635 79.6263 82.2417 77.8739 83.598 76.5661C84.9544 75.2583 86.6808 74.6053 88.7773 74.6069ZM88.7773 79.7611C88.5053 79.7563 88.2351 79.8064 87.9829 79.9084C87.7307 80.0103 87.5016 80.1621 87.3093 80.3546C87.1171 80.5471 86.9656 80.7763 86.8639 81.0287C86.7623 81.281 86.7125 81.5512 86.7176 81.8232V92.4405C87.1295 92.9227 87.8153 93.1613 88.7773 93.1613C89.0495 93.1664 89.3199 93.1166 89.5724 93.0148C89.8249 92.913 90.0543 92.7613 90.2468 92.5687C90.4393 92.3762 90.591 92.1468 90.6929 91.8943C90.7947 91.6418 90.8445 91.3714 90.8394 91.0992V81.8232C90.8445 81.551 90.7947 81.2806 90.6929 81.0281C90.591 80.7756 90.4393 80.5462 90.2468 80.3537C90.0543 80.1612 89.8249 80.0094 89.5724 79.9076C89.3199 79.8058 89.0495 79.756 88.7773 79.7611Z" fill="#98C8D6"/>
<path d="M115.58 74.6069C117.675 74.6069 119.401 75.26 120.759 76.5661C122.117 77.8722 122.796 79.6246 122.796 81.8232V89.0395H117.632V81.8232C117.632 81.2763 117.415 80.7518 117.028 80.3651C116.641 79.9783 116.117 79.7611 115.57 79.7611C115.023 79.7611 114.499 79.9783 114.112 80.3651C113.725 80.7518 113.508 81.2763 113.508 81.8232V82.8531C113.508 83.6794 113.525 84.4505 113.561 85.1739C113.6 85.8856 113.702 86.5924 113.865 87.2863C114.027 87.9952 114.26 88.686 114.56 89.3485C114.915 90.112 115.347 90.8375 115.849 91.5136L119.365 96.3061C120.08 97.2774 120.718 98.3028 121.274 99.3729C121.726 100.25 122.073 101.177 122.307 102.136C122.534 103.1 122.672 104.083 122.718 105.072C122.769 106.105 122.795 107.291 122.796 108.629V109.661C122.796 111.86 122.117 113.612 120.759 114.918C119.401 116.224 117.675 116.877 115.58 116.877C113.484 116.877 111.757 116.224 110.401 114.918C109.044 113.612 108.365 111.86 108.364 109.661V102.44H113.518V109.656C113.518 110.203 113.735 110.728 114.122 111.114C114.509 111.501 115.033 111.718 115.58 111.718C116.127 111.718 116.651 111.501 117.038 111.114C117.425 110.728 117.642 110.203 117.642 109.656V108.624C117.642 107.49 117.625 106.52 117.589 105.713C117.559 104.94 117.456 104.172 117.281 103.419C117.093 102.659 116.817 101.924 116.457 101.229C115.978 100.335 115.426 99.4811 114.806 98.6772L111.25 93.7817C110.652 92.9478 110.134 92.0588 109.705 91.1268C109.338 90.3052 109.048 89.4507 108.841 88.5749C108.63 87.6868 108.501 86.7813 108.454 85.8697C108.401 84.9253 108.375 83.9206 108.376 82.8556V81.8257C108.376 79.6288 109.055 77.8764 110.413 76.5686C111.771 75.2608 113.494 74.6069 115.58 74.6069Z" fill="#98C8D6"/>
<path d="M133.414 75.1218C135.509 75.1218 137.235 75.7749 138.593 77.081C139.951 78.3871 140.63 80.1395 140.628 82.3381V98.8329C140.628 101.032 139.95 102.784 138.593 104.09C137.237 105.396 135.511 106.048 133.414 106.047H131.352V116.345H126.198V75.1218H133.414ZM131.352 100.893H133.414C133.686 100.897 133.956 100.847 134.208 100.745C134.46 100.644 134.689 100.492 134.881 100.3C135.073 100.108 135.225 99.8787 135.327 99.6267C135.428 99.3746 135.478 99.1047 135.474 98.8329V82.3381C135.479 82.0661 135.429 81.7959 135.327 81.5436C135.226 81.2912 135.074 81.062 134.882 80.8695C134.69 80.677 134.461 80.5252 134.208 80.4233C133.956 80.3213 133.686 80.2712 133.414 80.276H131.352V100.893Z" fill="#98C8D6"/>
<path d="M151.29 74.6069C153.385 74.6069 155.111 75.26 156.469 76.5661C157.827 77.8722 158.506 79.6246 158.506 81.8232V109.656C158.506 111.855 157.827 113.607 156.469 114.913C155.111 116.219 153.385 116.872 151.29 116.872C149.194 116.872 147.467 116.219 146.111 114.913C144.754 113.607 144.075 111.855 144.074 109.656V81.8232C144.074 79.6263 144.753 77.8739 146.111 76.5661C147.469 75.2583 149.195 74.6053 151.29 74.6069ZM151.29 79.7611C151.018 79.756 150.747 79.8058 150.495 79.9076C150.242 80.0094 150.013 80.1612 149.82 80.3537C149.628 80.5462 149.476 80.7756 149.374 81.0281C149.273 81.2806 149.223 81.551 149.228 81.8232V109.656C149.228 110.203 149.445 110.728 149.832 111.114C150.219 111.501 150.743 111.718 151.29 111.718C151.837 111.718 152.361 111.501 152.748 111.114C153.135 110.728 153.352 110.203 153.352 109.656V81.8232C153.357 81.551 153.307 81.2806 153.206 81.0281C153.104 80.7756 152.952 80.5462 152.76 80.3537C152.567 80.1612 152.338 80.0094 152.085 79.9076C151.833 79.8058 151.562 79.756 151.29 79.7611Z" fill="#98C8D6"/>
<path d="M168.407 75.1218V84.4028H173.665V89.1425H168.407V109.809C168.392 110.179 168.521 110.539 168.769 110.814C168.921 110.954 169.1 111.061 169.295 111.127C169.49 111.194 169.697 111.219 169.902 111.201H174.079V116.355H167.893C166.518 116.355 165.401 115.936 164.542 115.099C164.116 114.68 163.781 114.178 163.56 113.623C163.338 113.068 163.233 112.474 163.253 111.876V89.1425H160.676V84.4028H163.253V75.1218H168.407Z" fill="#98C8D6"/>
</g>
<path d="M57.7067 134.354V127.699H59.696C60.3651 127.699 60.9348 127.799 61.405 127.997C61.8752 128.196 62.252 128.462 62.5353 128.793C62.8246 129.125 63.0356 129.495 63.1683 129.905C63.3009 130.315 63.3672 130.728 63.3672 131.144C63.3672 131.639 63.2768 132.085 63.0959 132.482C62.9211 132.874 62.68 133.212 62.3725 133.495C62.0651 133.773 61.7094 133.987 61.3055 134.137C60.9016 134.282 60.4736 134.354 60.0215 134.354H57.7067ZM59.0178 133.088H59.7955C60.127 133.088 60.4284 133.046 60.6997 132.962C60.971 132.871 61.2031 132.742 61.396 132.573C61.5949 132.404 61.7456 132.193 61.8481 131.94C61.9566 131.681 62.0108 131.385 62.0108 131.054C62.0108 130.62 61.9385 130.267 61.7938 129.996C61.6552 129.719 61.4804 129.505 61.2694 129.354C61.0644 129.203 60.8534 129.101 60.6364 129.046C60.4194 128.986 60.2355 128.956 60.0848 128.956H59.0178V133.088ZM65.9486 127.699H70.4879V128.965H67.2598V130.385H70.1172V131.651H67.2598V133.088H70.6145V134.354H65.9486V127.699ZM76.7906 129.309C76.5374 129.17 76.2782 129.055 76.0129 128.965C75.7537 128.875 75.5096 128.829 75.2805 128.829C74.9972 128.829 74.7741 128.887 74.6114 129.001C74.4486 129.116 74.3672 129.288 74.3672 129.517C74.3672 129.673 74.4275 129.815 74.5481 129.942C74.6746 130.062 74.8344 130.171 75.0273 130.267C75.2262 130.364 75.4312 130.451 75.6422 130.529C75.8351 130.602 76.025 130.689 76.2118 130.792C76.4048 130.888 76.5766 131.012 76.7273 131.162C76.878 131.307 76.9985 131.491 77.089 131.714C77.1794 131.931 77.2246 132.199 77.2246 132.519C77.2246 132.856 77.1372 133.17 76.9624 133.459C76.7875 133.748 76.5313 133.984 76.1938 134.164C75.8562 134.339 75.4402 134.427 74.9459 134.427C74.6927 134.427 74.4335 134.402 74.1683 134.354C73.9091 134.3 73.6529 134.222 73.3997 134.119C73.1465 134.011 72.9023 133.875 72.6672 133.712L73.246 132.69C73.4027 132.805 73.5715 132.907 73.7523 132.998C73.9392 133.082 74.1261 133.149 74.313 133.197C74.4998 133.245 74.6716 133.269 74.8284 133.269C74.9851 133.269 75.1418 133.248 75.2986 133.206C75.4613 133.158 75.594 133.079 75.6964 132.971C75.8049 132.862 75.8592 132.712 75.8592 132.519C75.8592 132.386 75.814 132.265 75.7236 132.157C75.6392 132.048 75.5216 131.949 75.3709 131.859C75.2262 131.768 75.0665 131.69 74.8917 131.623C74.6867 131.545 74.4757 131.455 74.2587 131.352C74.0417 131.25 73.8367 131.126 73.6438 130.981C73.4569 130.831 73.3032 130.647 73.1827 130.43C73.0681 130.207 73.0109 129.936 73.0109 129.616C73.0109 129.23 73.0953 128.896 73.264 128.612C73.4389 128.329 73.683 128.106 73.9965 127.943C74.3099 127.774 74.6716 127.681 75.0816 127.663C75.6181 127.663 76.0521 127.726 76.3837 127.853C76.7212 127.979 77.0226 128.13 77.2879 128.305L76.7906 129.309ZM83.3282 129.309C83.0751 129.17 82.8158 129.055 82.5506 128.965C82.2914 128.875 82.0472 128.829 81.8182 128.829C81.5348 128.829 81.3118 128.887 81.149 129.001C80.9863 129.116 80.9049 129.288 80.9049 129.517C80.9049 129.673 80.9652 129.815 81.0857 129.942C81.2123 130.062 81.3721 130.171 81.565 130.267C81.7639 130.364 81.9689 130.451 82.1799 130.529C82.3728 130.602 82.5627 130.689 82.7495 130.792C82.9424 130.888 83.1142 131.012 83.2649 131.162C83.4157 131.307 83.5362 131.491 83.6266 131.714C83.7171 131.931 83.7623 132.199 83.7623 132.519C83.7623 132.856 83.6749 133.17 83.5 133.459C83.3252 133.748 83.069 133.984 82.7315 134.164C82.3939 134.339 81.9779 134.427 81.4836 134.427C81.2304 134.427 80.9712 134.402 80.706 134.354C80.4467 134.3 80.1906 134.222 79.9374 134.119C79.6842 134.011 79.44 133.875 79.2049 133.712L79.7836 132.69C79.9404 132.805 80.1092 132.907 80.29 132.998C80.4769 133.082 80.6638 133.149 80.8506 133.197C81.0375 133.245 81.2093 133.269 81.3661 133.269C81.5228 133.269 81.6795 133.248 81.8363 133.206C81.999 133.158 82.1316 133.079 82.2341 132.971C82.3426 132.862 82.3969 132.712 82.3969 132.519C82.3969 132.386 82.3517 132.265 82.2612 132.157C82.1769 132.048 82.0593 131.949 81.9086 131.859C81.7639 131.768 81.6042 131.69 81.4294 131.623C81.2244 131.545 81.0134 131.455 80.7964 131.352C80.5794 131.25 80.3744 131.126 80.1815 130.981C79.9946 130.831 79.8409 130.647 79.7203 130.43C79.6058 130.207 79.5485 129.936 79.5485 129.616C79.5485 129.23 79.6329 128.896 79.8017 128.612C79.9765 128.329 80.2207 128.106 80.5342 127.943C80.8476 127.774 81.2093 127.681 81.6192 127.663C82.1558 127.663 82.5898 127.726 82.9213 127.853C83.2589 127.979 83.5603 128.13 83.8256 128.305L83.3282 129.309ZM86.3123 127.699H90.8516V128.965H87.6234V130.385H90.4808V131.651H87.6234V133.088H90.9781V134.354H86.3123V127.699ZM95.617 127.699C96.033 127.699 96.4037 127.753 96.7292 127.862C97.0547 127.964 97.326 128.115 97.543 128.314C97.7661 128.507 97.9349 128.742 98.0494 129.019C98.1639 129.291 98.2212 129.598 98.2212 129.942C98.2212 130.213 98.179 130.484 98.0946 130.755C98.0162 131.027 97.8836 131.274 97.6968 131.497C97.5159 131.72 97.2748 131.901 96.9734 132.039C96.672 132.172 96.2982 132.238 95.8521 132.238H94.9117V134.354H93.6006V127.699H95.617ZM95.8431 130.972C96.042 130.972 96.2078 130.939 96.3404 130.873C96.473 130.807 96.5755 130.722 96.6478 130.62C96.7262 130.517 96.7805 130.412 96.8106 130.303C96.8468 130.189 96.8649 130.083 96.8649 129.987C96.8649 129.914 96.8528 129.824 96.8287 129.716C96.8106 129.601 96.7684 129.486 96.7021 129.372C96.6358 129.257 96.5333 129.161 96.3947 129.083C96.262 129.004 96.0812 128.965 95.8521 128.965H94.9117V130.972H95.8431ZM97.0728 131.786L98.7185 134.354H97.1904L95.5085 131.822L97.0728 131.786ZM100.481 127.699H104.966V128.965H103.347V134.354H102.036V128.965H100.481V127.699ZM111.704 127.699H115.863V128.965H113.015V130.475H115.483V131.741H113.015V134.354H111.704V127.699ZM119.567 131.895C119.567 132.106 119.63 132.308 119.757 132.501C119.883 132.693 120.049 132.85 120.254 132.971C120.465 133.091 120.694 133.152 120.941 133.152C121.213 133.152 121.454 133.091 121.665 132.971C121.876 132.85 122.042 132.693 122.162 132.501C122.289 132.308 122.352 132.106 122.352 131.895V127.699H123.645V131.922C123.645 132.41 123.524 132.844 123.283 133.224C123.042 133.598 122.717 133.893 122.307 134.11C121.897 134.321 121.442 134.427 120.941 134.427C120.447 134.427 119.995 134.321 119.585 134.11C119.181 133.893 118.859 133.598 118.617 133.224C118.376 132.844 118.256 132.41 118.256 131.922V127.699H119.567V131.895ZM130.046 129.309C129.793 129.17 129.533 129.055 129.268 128.965C129.009 128.875 128.765 128.829 128.536 128.829C128.252 128.829 128.029 128.887 127.867 129.001C127.704 129.116 127.622 129.288 127.622 129.517C127.622 129.673 127.683 129.815 127.803 129.942C127.93 130.062 128.09 130.171 128.282 130.267C128.481 130.364 128.686 130.451 128.897 130.529C129.09 130.602 129.28 130.689 129.467 130.792C129.66 130.888 129.832 131.012 129.982 131.162C130.133 131.307 130.254 131.491 130.344 131.714C130.435 131.931 130.48 132.199 130.48 132.519C130.48 132.856 130.392 133.17 130.218 133.459C130.043 133.748 129.787 133.984 129.449 134.164C129.111 134.339 128.695 134.427 128.201 134.427C127.948 134.427 127.689 134.402 127.423 134.354C127.164 134.3 126.908 134.222 126.655 134.119C126.402 134.011 126.158 133.875 125.922 133.712L126.501 132.69C126.658 132.805 126.827 132.907 127.008 132.998C127.194 133.082 127.381 133.149 127.568 133.197C127.755 133.245 127.927 133.269 128.084 133.269C128.24 133.269 128.397 133.248 128.554 133.206C128.717 133.158 128.849 133.079 128.952 132.971C129.06 132.862 129.114 132.712 129.114 132.519C129.114 132.386 129.069 132.265 128.979 132.157C128.894 132.048 128.777 131.949 128.626 131.859C128.481 131.768 128.322 131.69 128.147 131.623C127.942 131.545 127.731 131.455 127.514 131.352C127.297 131.25 127.092 131.126 126.899 130.981C126.712 130.831 126.558 130.647 126.438 130.43C126.323 130.207 126.266 129.936 126.266 129.616C126.266 129.23 126.35 128.896 126.519 128.612C126.694 128.329 126.938 128.106 127.252 127.943C127.565 127.774 127.927 127.681 128.337 127.663C128.873 127.663 129.307 127.726 129.639 127.853C129.976 127.979 130.278 128.13 130.543 128.305L130.046 129.309ZM133.03 127.699H134.341V134.354H133.03V127.699ZM136.918 131.036C136.918 130.578 137.005 130.144 137.18 129.734C137.355 129.324 137.596 128.962 137.903 128.649C138.217 128.329 138.578 128.079 138.988 127.898C139.398 127.717 139.838 127.627 140.309 127.627C140.773 127.627 141.21 127.717 141.62 127.898C142.03 128.079 142.391 128.329 142.705 128.649C143.024 128.962 143.271 129.324 143.446 129.734C143.627 130.144 143.718 130.578 143.718 131.036C143.718 131.506 143.627 131.946 143.446 132.356C143.271 132.766 143.024 133.128 142.705 133.441C142.391 133.748 142.03 133.99 141.62 134.164C141.21 134.339 140.773 134.427 140.309 134.427C139.838 134.427 139.398 134.339 138.988 134.164C138.578 133.99 138.217 133.748 137.903 133.441C137.596 133.128 137.355 132.766 137.18 132.356C137.005 131.946 136.918 131.506 136.918 131.036ZM138.274 131.036C138.274 131.331 138.325 131.608 138.428 131.868C138.536 132.121 138.684 132.347 138.871 132.546C139.064 132.739 139.284 132.889 139.531 132.998C139.784 133.106 140.058 133.161 140.354 133.161C140.637 133.161 140.899 133.106 141.14 132.998C141.388 132.889 141.602 132.739 141.782 132.546C141.963 132.347 142.105 132.121 142.207 131.868C142.31 131.608 142.361 131.331 142.361 131.036C142.361 130.734 142.307 130.454 142.198 130.195C142.096 129.936 141.951 129.709 141.764 129.517C141.584 129.318 141.37 129.164 141.122 129.055C140.875 128.947 140.607 128.893 140.318 128.893C140.028 128.893 139.76 128.947 139.513 129.055C139.266 129.164 139.049 129.318 138.862 129.517C138.675 129.709 138.53 129.936 138.428 130.195C138.325 130.454 138.274 130.734 138.274 131.036ZM152.25 134.626L147.204 130.068L147.593 130.285L147.62 134.354H146.291V127.437H146.345L151.282 131.976L150.993 131.85L150.966 127.699H152.286V134.626H152.25Z" fill="#98C8D6"/>
<rect width="209.872" height="209.872" transform="translate(224.425 0.309082)" fill="#009891"/>
<g clip-path="url(#clip1_74_549)">
<path d="M272.59 75.1218V80.276H265.58V93.9877H271.764V99.1418H265.58V116.355H260.426V75.1218H272.59Z" fill="#FCFDFF"/>
<path d="M283.054 84.4028V111.615H286.045V116.355H274.491V111.615H277.897V89.1425H274.702V84.4028H283.054ZM283.207 75.1218V80.5849H277.538V75.1218H283.207Z" fill="#FCFDFF"/>
<path d="M298.154 74.6069C299.661 74.6069 300.803 75.1311 301.58 76.1793C302.357 77.2275 302.744 78.6618 302.741 80.4819V92.1315H297.599V81.8333C297.619 81.2982 297.44 80.7747 297.097 80.3639C296.924 80.1678 296.709 80.0128 296.468 79.9102C296.227 79.8077 295.967 79.7602 295.705 79.7711C295.403 79.756 295.101 79.8074 294.821 79.9215C294.54 80.0356 294.289 80.2098 294.083 80.4317C293.651 80.9304 293.429 81.5765 293.462 82.2352V116.355H288.306V75.1218H293.153L292.741 78.9874H293.359C294.151 76.0671 295.75 74.6069 298.154 74.6069Z" fill="#FCFDFF"/>
<path d="M313.203 74.6069C315.299 74.6069 317.026 75.26 318.384 76.5661C319.742 77.8722 320.421 79.6246 320.419 81.8232V91.4106C320.419 93.5054 319.917 95.18 318.912 96.4342C318.432 97.0434 317.816 97.5311 317.113 97.858C316.41 98.1848 315.64 98.3415 314.865 98.3155C314.148 98.3548 313.431 98.2356 312.766 97.9663C312.297 97.7433 311.856 97.466 311.452 97.14H310.834L311.143 99.3051V109.666C311.133 109.943 311.179 110.219 311.279 110.477C311.378 110.736 311.528 110.971 311.72 111.171C311.913 111.37 312.143 111.528 312.398 111.636C312.653 111.744 312.927 111.8 313.204 111.8C313.481 111.8 313.755 111.744 314.01 111.636C314.264 111.528 314.495 111.37 314.687 111.171C314.88 110.971 315.03 110.736 315.129 110.477C315.228 110.219 315.274 109.943 315.265 109.666V102.44H320.419V109.656C320.419 111.855 319.741 113.607 318.384 114.913C317.028 116.219 315.301 116.872 313.203 116.872C311.108 116.872 309.381 116.219 308.023 114.913C306.665 113.607 305.987 111.855 305.989 109.656V81.8232C305.989 79.6263 306.667 77.8739 308.023 76.5661C309.38 75.2583 311.106 74.6053 313.203 74.6069ZM313.203 79.7611C312.931 79.7563 312.66 79.8064 312.408 79.9084C312.156 80.0103 311.927 80.1621 311.735 80.3546C311.542 80.5471 311.391 80.7763 311.289 81.0287C311.188 81.281 311.138 81.5512 311.143 81.8232V92.4405C311.555 92.9227 312.241 93.1613 313.203 93.1613C313.475 93.1664 313.745 93.1166 313.998 93.0148C314.25 92.913 314.48 92.7613 314.672 92.5687C314.865 92.3762 315.016 92.1468 315.118 91.8943C315.22 91.6418 315.27 91.3714 315.265 91.0992V81.8232C315.27 81.551 315.22 81.2806 315.118 81.0281C315.016 80.7756 314.865 80.5462 314.672 80.3537C314.48 80.1612 314.25 80.0094 313.998 79.9076C313.745 79.8058 313.475 79.756 313.203 79.7611Z" fill="#FCFDFF"/>
<path d="M340.006 74.6069C342.101 74.6069 343.827 75.26 345.185 76.5661C346.543 77.8722 347.222 79.6246 347.222 81.8232V89.0395H342.058V81.8232C342.058 81.2763 341.841 80.7518 341.454 80.3651C341.067 79.9783 340.543 79.7611 339.996 79.7611C339.449 79.7611 338.924 79.9783 338.538 80.3651C338.151 80.7518 337.934 81.2763 337.934 81.8232V82.8531C337.934 83.6794 337.951 84.4505 337.986 85.1739C338.026 85.8856 338.128 86.5924 338.29 87.2863C338.453 87.9952 338.686 88.686 338.986 89.3485C339.341 90.112 339.773 90.8375 340.275 91.5136L343.791 96.3061C344.506 97.2774 345.144 98.3028 345.7 99.3729C346.152 100.25 346.498 101.177 346.732 102.136C346.96 103.1 347.098 104.083 347.144 105.072C347.195 106.105 347.22 107.291 347.222 108.629V109.661C347.222 111.86 346.543 113.612 345.185 114.918C343.827 116.224 342.101 116.877 340.006 116.877C337.909 116.877 336.183 116.224 334.827 114.918C333.47 113.612 332.791 111.86 332.79 109.661V102.44H337.944V109.656C337.944 110.203 338.161 110.728 338.548 111.114C338.934 111.501 339.459 111.718 340.006 111.718C340.553 111.718 341.077 111.501 341.464 111.114C341.851 110.728 342.068 110.203 342.068 109.656V108.624C342.068 107.49 342.05 106.52 342.015 105.713C341.985 104.94 341.881 104.172 341.706 103.419C341.519 102.659 341.242 101.924 340.882 101.229C340.403 100.335 339.851 99.4811 339.232 98.6772L335.676 93.7817C335.077 92.9478 334.56 92.0588 334.131 91.1268C333.763 90.3052 333.474 89.4507 333.267 88.5749C333.056 87.6868 332.926 86.7813 332.88 85.8697C332.826 84.9253 332.8 83.9206 332.802 82.8556V81.8257C332.802 79.6288 333.481 77.8764 334.839 76.5686C336.197 75.2608 337.919 74.6069 340.006 74.6069Z" fill="#FCFDFF"/>
<path d="M357.839 75.1218C359.934 75.1218 361.661 75.7749 363.019 77.081C364.377 78.3871 365.055 80.1395 365.053 82.3381V98.8329C365.053 101.032 364.375 102.784 363.019 104.09C361.662 105.396 359.936 106.048 357.839 106.047H355.777V116.345H350.623V75.1218H357.839ZM355.777 100.893H357.839C358.111 100.897 358.381 100.847 358.633 100.745C358.885 100.644 359.114 100.492 359.306 100.3C359.499 100.108 359.65 99.8787 359.752 99.6267C359.854 99.3746 359.904 99.1047 359.899 98.8329V82.3381C359.904 82.0661 359.854 81.7959 359.753 81.5436C359.651 81.2912 359.5 81.062 359.307 80.8695C359.115 80.677 358.886 80.5252 358.634 80.4233C358.382 80.3213 358.111 80.2712 357.839 80.276H355.777V100.893Z" fill="#FCFDFF"/>
<path d="M375.716 74.6069C377.811 74.6069 379.537 75.26 380.895 76.5661C382.253 77.8722 382.932 79.6246 382.932 81.8232V109.656C382.932 111.855 382.253 113.607 380.895 114.913C379.537 116.219 377.811 116.872 375.716 116.872C373.619 116.872 371.893 116.219 370.537 114.913C369.18 113.607 368.501 111.855 368.5 109.656V81.8232C368.5 79.6263 369.179 77.8739 370.537 76.5661C371.895 75.2583 373.621 74.6053 375.716 74.6069ZM375.716 79.7611C375.444 79.756 375.173 79.8058 374.921 79.9076C374.668 80.0094 374.439 80.1612 374.246 80.3537C374.054 80.5462 373.902 80.7756 373.8 81.0281C373.698 81.2806 373.649 81.551 373.654 81.8232V109.656C373.654 110.203 373.871 110.728 374.258 111.114C374.644 111.501 375.169 111.718 375.716 111.718C376.263 111.718 376.787 111.501 377.174 111.114C377.561 110.728 377.778 110.203 377.778 109.656V81.8232C377.783 81.551 377.733 81.2806 377.631 81.0281C377.53 80.7756 377.378 80.5462 377.185 80.3537C376.993 80.1612 376.763 80.0094 376.511 79.9076C376.258 79.8058 375.988 79.756 375.716 79.7611Z" fill="#FCFDFF"/>
<path d="M392.833 75.1218V84.4028H398.09V89.1425H392.833V109.809C392.817 110.179 392.947 110.539 393.194 110.814C393.346 110.954 393.525 111.061 393.72 111.127C393.915 111.194 394.122 111.219 394.327 111.201H398.504V116.355H392.318C390.943 116.355 389.826 115.936 388.967 115.099C388.541 114.68 388.207 114.178 387.985 113.623C387.763 113.068 387.659 112.474 387.679 111.876V89.1425H385.102V84.4028H387.679V75.1218H392.833Z" fill="#FCFDFF"/>
</g>
<path d="M282.132 134.354V127.699H284.121C284.79 127.699 285.36 127.799 285.83 127.997C286.3 128.196 286.677 128.462 286.961 128.793C287.25 129.125 287.461 129.495 287.594 129.905C287.726 130.315 287.792 130.728 287.792 131.144C287.792 131.639 287.702 132.085 287.521 132.482C287.346 132.874 287.105 133.212 286.798 133.495C286.49 133.773 286.135 133.987 285.731 134.137C285.327 134.282 284.899 134.354 284.447 134.354H282.132ZM283.443 133.088H284.221C284.552 133.088 284.854 133.046 285.125 132.962C285.396 132.871 285.628 132.742 285.821 132.573C286.02 132.404 286.171 132.193 286.273 131.94C286.382 131.681 286.436 131.385 286.436 131.054C286.436 130.62 286.364 130.267 286.219 129.996C286.08 129.719 285.906 129.505 285.695 129.354C285.49 129.203 285.279 129.101 285.062 129.046C284.845 128.986 284.661 128.956 284.51 128.956H283.443V133.088ZM290.374 127.699H294.913V128.965H291.685V130.385H294.542V131.651H291.685V133.088H295.04V134.354H290.374V127.699ZM301.216 129.309C300.963 129.17 300.703 129.055 300.438 128.965C300.179 128.875 299.935 128.829 299.706 128.829C299.422 128.829 299.199 128.887 299.037 129.001C298.874 129.116 298.793 129.288 298.793 129.517C298.793 129.673 298.853 129.815 298.973 129.942C299.1 130.062 299.26 130.171 299.453 130.267C299.652 130.364 299.856 130.451 300.067 130.529C300.26 130.602 300.45 130.689 300.637 130.792C300.83 130.888 301.002 131.012 301.153 131.162C301.303 131.307 301.424 131.491 301.514 131.714C301.605 131.931 301.65 132.199 301.65 132.519C301.65 132.856 301.562 133.17 301.388 133.459C301.213 133.748 300.957 133.984 300.619 134.164C300.281 134.339 299.866 134.427 299.371 134.427C299.118 134.427 298.859 134.402 298.594 134.354C298.334 134.3 298.078 134.222 297.825 134.119C297.572 134.011 297.328 133.875 297.093 133.712L297.671 132.69C297.828 132.805 297.997 132.907 298.178 132.998C298.364 133.082 298.551 133.149 298.738 133.197C298.925 133.245 299.097 133.269 299.254 133.269C299.41 133.269 299.567 133.248 299.724 133.206C299.887 133.158 300.019 133.079 300.122 132.971C300.23 132.862 300.284 132.712 300.284 132.519C300.284 132.386 300.239 132.265 300.149 132.157C300.064 132.048 299.947 131.949 299.796 131.859C299.652 131.768 299.492 131.69 299.317 131.623C299.112 131.545 298.901 131.455 298.684 131.352C298.467 131.25 298.262 131.126 298.069 130.981C297.882 130.831 297.729 130.647 297.608 130.43C297.493 130.207 297.436 129.936 297.436 129.616C297.436 129.23 297.521 128.896 297.689 128.612C297.864 128.329 298.108 128.106 298.422 127.943C298.735 127.774 299.097 127.681 299.507 127.663C300.043 127.663 300.477 127.726 300.809 127.853C301.147 127.979 301.448 128.13 301.713 128.305L301.216 129.309ZM307.754 129.309C307.5 129.17 307.241 129.055 306.976 128.965C306.717 128.875 306.473 128.829 306.243 128.829C305.96 128.829 305.737 128.887 305.574 129.001C305.412 129.116 305.33 129.288 305.33 129.517C305.33 129.673 305.39 129.815 305.511 129.942C305.638 130.062 305.797 130.171 305.99 130.267C306.189 130.364 306.394 130.451 306.605 130.529C306.798 130.602 306.988 130.689 307.175 130.792C307.368 130.888 307.54 131.012 307.69 131.162C307.841 131.307 307.962 131.491 308.052 131.714C308.142 131.931 308.188 132.199 308.188 132.519C308.188 132.856 308.1 133.17 307.925 133.459C307.751 133.748 307.494 133.984 307.157 134.164C306.819 134.339 306.403 134.427 305.909 134.427C305.656 134.427 305.396 134.402 305.131 134.354C304.872 134.3 304.616 134.222 304.363 134.119C304.109 134.011 303.865 133.875 303.63 133.712L304.209 132.69C304.366 132.805 304.534 132.907 304.715 132.998C304.902 133.082 305.089 133.149 305.276 133.197C305.463 133.245 305.635 133.269 305.791 133.269C305.948 133.269 306.105 133.248 306.262 133.206C306.424 133.158 306.557 133.079 306.659 132.971C306.768 132.862 306.822 132.712 306.822 132.519C306.822 132.386 306.777 132.265 306.687 132.157C306.602 132.048 306.485 131.949 306.334 131.859C306.189 131.768 306.029 131.69 305.855 131.623C305.65 131.545 305.439 131.455 305.222 131.352C305.005 131.25 304.8 131.126 304.607 130.981C304.42 130.831 304.266 130.647 304.146 130.43C304.031 130.207 303.974 129.936 303.974 129.616C303.974 129.23 304.058 128.896 304.227 128.612C304.402 128.329 304.646 128.106 304.959 127.943C305.273 127.774 305.635 127.681 306.045 127.663C306.581 127.663 307.015 127.726 307.347 127.853C307.684 127.979 307.986 128.13 308.251 128.305L307.754 129.309ZM310.738 127.699H315.277V128.965H312.049V130.385H314.906V131.651H312.049V133.088H315.403V134.354H310.738V127.699ZM320.042 127.699C320.458 127.699 320.829 127.753 321.155 127.862C321.48 127.964 321.751 128.115 321.968 128.314C322.191 128.507 322.36 128.742 322.475 129.019C322.589 129.291 322.646 129.598 322.646 129.942C322.646 130.213 322.604 130.484 322.52 130.755C322.442 131.027 322.309 131.274 322.122 131.497C321.941 131.72 321.7 131.901 321.399 132.039C321.097 132.172 320.723 132.238 320.277 132.238H319.337V134.354H318.026V127.699H320.042ZM320.268 130.972C320.467 130.972 320.633 130.939 320.766 130.873C320.898 130.807 321.001 130.722 321.073 130.62C321.151 130.517 321.206 130.412 321.236 130.303C321.272 130.189 321.29 130.083 321.29 129.987C321.29 129.914 321.278 129.824 321.254 129.716C321.236 129.601 321.194 129.486 321.127 129.372C321.061 129.257 320.959 129.161 320.82 129.083C320.687 129.004 320.506 128.965 320.277 128.965H319.337V130.972H320.268ZM321.498 131.786L323.144 134.354H321.616L319.934 131.822L321.498 131.786ZM324.906 127.699H329.391V128.965H327.773V134.354H326.461V128.965H324.906V127.699ZM336.129 127.699H340.288V128.965H337.44V130.475H339.909V131.741H337.44V134.354H336.129V127.699ZM343.992 131.895C343.992 132.106 344.056 132.308 344.182 132.501C344.309 132.693 344.474 132.85 344.679 132.971C344.89 133.091 345.12 133.152 345.367 133.152C345.638 133.152 345.879 133.091 346.09 132.971C346.301 132.85 346.467 132.693 346.587 132.501C346.714 132.308 346.777 132.106 346.777 131.895V127.699H348.07V131.922C348.07 132.41 347.95 132.844 347.709 133.224C347.468 133.598 347.142 133.893 346.732 134.11C346.322 134.321 345.867 134.427 345.367 134.427C344.872 134.427 344.42 134.321 344.01 134.11C343.606 133.893 343.284 133.598 343.043 133.224C342.802 132.844 342.681 132.41 342.681 131.922V127.699H343.992V131.895ZM354.471 129.309C354.218 129.17 353.959 129.055 353.693 128.965C353.434 128.875 353.19 128.829 352.961 128.829C352.678 128.829 352.455 128.887 352.292 129.001C352.129 129.116 352.048 129.288 352.048 129.517C352.048 129.673 352.108 129.815 352.229 129.942C352.355 130.062 352.515 130.171 352.708 130.267C352.907 130.364 353.112 130.451 353.323 130.529C353.516 130.602 353.705 130.689 353.892 130.792C354.085 130.888 354.257 131.012 354.408 131.162C354.558 131.307 354.679 131.491 354.769 131.714C354.86 131.931 354.905 132.199 354.905 132.519C354.905 132.856 354.818 133.17 354.643 133.459C354.468 133.748 354.212 133.984 353.874 134.164C353.537 134.339 353.121 134.427 352.626 134.427C352.373 134.427 352.114 134.402 351.849 134.354C351.59 134.3 351.333 134.222 351.08 134.119C350.827 134.011 350.583 133.875 350.348 133.712L350.926 132.69C351.083 132.805 351.252 132.907 351.433 132.998C351.62 133.082 351.807 133.149 351.993 133.197C352.18 133.245 352.352 133.269 352.509 133.269C352.666 133.269 352.822 133.248 352.979 133.206C353.142 133.158 353.274 133.079 353.377 132.971C353.485 132.862 353.54 132.712 353.54 132.519C353.54 132.386 353.494 132.265 353.404 132.157C353.32 132.048 353.202 131.949 353.051 131.859C352.907 131.768 352.747 131.69 352.572 131.623C352.367 131.545 352.156 131.455 351.939 131.352C351.722 131.25 351.517 131.126 351.324 130.981C351.137 130.831 350.984 130.647 350.863 130.43C350.749 130.207 350.691 129.936 350.691 129.616C350.691 129.23 350.776 128.896 350.945 128.612C351.119 128.329 351.363 128.106 351.677 127.943C351.99 127.774 352.352 127.681 352.762 127.663C353.299 127.663 353.733 127.726 354.064 127.853C354.402 127.979 354.703 128.13 354.968 128.305L354.471 129.309ZM357.455 127.699H358.766V134.354H357.455V127.699ZM361.343 131.036C361.343 130.578 361.43 130.144 361.605 129.734C361.78 129.324 362.021 128.962 362.329 128.649C362.642 128.329 363.004 128.079 363.414 127.898C363.824 127.717 364.264 127.627 364.734 127.627C365.198 127.627 365.635 127.717 366.045 127.898C366.455 128.079 366.817 128.329 367.13 128.649C367.45 128.962 367.697 129.324 367.872 129.734C368.052 130.144 368.143 130.578 368.143 131.036C368.143 131.506 368.052 131.946 367.872 132.356C367.697 132.766 367.45 133.128 367.13 133.441C366.817 133.748 366.455 133.99 366.045 134.164C365.635 134.339 365.198 134.427 364.734 134.427C364.264 134.427 363.824 134.339 363.414 134.164C363.004 133.99 362.642 133.748 362.329 133.441C362.021 133.128 361.78 132.766 361.605 132.356C361.43 131.946 361.343 131.506 361.343 131.036ZM362.699 131.036C362.699 131.331 362.751 131.608 362.853 131.868C362.962 132.121 363.109 132.347 363.296 132.546C363.489 132.739 363.709 132.889 363.956 132.998C364.209 133.106 364.484 133.161 364.779 133.161C365.062 133.161 365.325 133.106 365.566 132.998C365.813 132.889 366.027 132.739 366.208 132.546C366.389 132.347 366.53 132.121 366.633 131.868C366.735 131.608 366.786 131.331 366.786 131.036C366.786 130.734 366.732 130.454 366.624 130.195C366.521 129.936 366.377 129.709 366.19 129.517C366.009 129.318 365.795 129.164 365.548 129.055C365.3 128.947 365.032 128.893 364.743 128.893C364.454 128.893 364.185 128.947 363.938 129.055C363.691 129.164 363.474 129.318 363.287 129.517C363.1 129.709 362.956 129.936 362.853 130.195C362.751 130.454 362.699 130.734 362.699 131.036ZM376.675 134.626L371.629 130.068L372.018 130.285L372.045 134.354H370.716V127.437H370.77L375.707 131.976L375.418 131.85L375.391 127.699H376.711V134.626H376.675Z" fill="#FCFDFF"/>
<rect width="209.872" height="209.872" transform="translate(448.851 0.309082)" fill="#7ECAB2"/>
<g clip-path="url(#clip2_74_549)">
<path d="M497.016 75.1218V80.276H490.005V93.9877H496.189V99.1418H490.005V116.355H484.851V75.1218H497.016Z" fill="#006B70"/>
<path d="M507.48 84.4028V111.615H510.472V116.355H498.917V111.615H502.323V89.1425H499.128V84.4028H507.48ZM507.633 75.1218V80.5849H501.964V75.1218H507.633Z" fill="#006B70"/>
<path d="M522.58 74.6069C524.087 74.6069 525.229 75.1311 526.006 76.1793C526.783 77.2275 527.17 78.6618 527.167 80.4819V92.1315H522.025V81.8333C522.045 81.2982 521.866 80.7747 521.523 80.3639C521.349 80.1678 521.135 80.0128 520.894 79.9102C520.653 79.8077 520.393 79.7602 520.131 79.7711C519.829 79.756 519.527 79.8074 519.247 79.9215C518.966 80.0356 518.714 80.2098 518.509 80.4317C518.077 80.9304 517.855 81.5765 517.888 82.2352V116.355H512.731V75.1218H517.579L517.167 78.9874H517.785C518.577 76.0671 520.175 74.6069 522.58 74.6069Z" fill="#006B70"/>
<path d="M537.628 74.6069C539.725 74.6069 541.452 75.26 542.81 76.5661C544.168 77.8722 544.846 79.6246 544.845 81.8232V91.4106C544.845 93.5054 544.342 95.18 543.338 96.4342C542.858 97.0434 542.242 97.5311 541.539 97.858C540.836 98.1848 540.066 98.3415 539.291 98.3155C538.574 98.3548 537.857 98.2356 537.191 97.9663C536.723 97.7433 536.282 97.466 535.878 97.14H535.26L535.569 99.3051V109.666C535.559 109.943 535.605 110.219 535.704 110.477C535.804 110.736 535.954 110.971 536.146 111.171C536.339 111.37 536.569 111.528 536.824 111.636C537.079 111.744 537.353 111.8 537.63 111.8C537.906 111.8 538.18 111.744 538.435 111.636C538.69 111.528 538.921 111.37 539.113 111.171C539.305 110.971 539.456 110.736 539.555 110.477C539.654 110.219 539.7 109.943 539.69 109.666V102.44H544.845V109.656C544.845 111.855 544.166 113.607 542.81 114.913C541.454 116.219 539.726 116.872 537.628 116.872C535.534 116.872 533.807 116.219 532.449 114.913C531.091 113.607 530.413 111.855 530.415 109.656V81.8232C530.415 79.6263 531.093 77.8739 532.449 76.5661C533.805 75.2583 535.532 74.6053 537.628 74.6069ZM537.628 79.7611C537.356 79.7563 537.086 79.8064 536.834 79.9084C536.582 80.0103 536.353 80.1621 536.16 80.3546C535.968 80.5471 535.817 80.7763 535.715 81.0287C535.613 81.281 535.564 81.5512 535.569 81.8232V92.4405C535.981 92.9227 536.666 93.1613 537.628 93.1613C537.901 93.1664 538.171 93.1166 538.424 93.0148C538.676 92.913 538.905 92.7613 539.098 92.5687C539.29 92.3762 539.442 92.1468 539.544 91.8943C539.646 91.6418 539.696 91.3714 539.69 91.0992V81.8232C539.696 81.551 539.646 81.2806 539.544 81.0281C539.442 80.7756 539.29 80.5462 539.098 80.3537C538.905 80.1612 538.676 80.0094 538.424 79.9076C538.171 79.8058 537.901 79.756 537.628 79.7611Z" fill="#006B70"/>
<path d="M564.431 74.6069C566.526 74.6069 568.252 75.26 569.61 76.5661C570.968 77.8722 571.647 79.6246 571.647 81.8232V89.0395H566.483V81.8232C566.483 81.2763 566.266 80.7518 565.879 80.3651C565.493 79.9783 564.968 79.7611 564.421 79.7611C563.874 79.7611 563.35 79.9783 562.963 80.3651C562.576 80.7518 562.359 81.2763 562.359 81.8232V82.8531C562.359 83.6794 562.377 84.4505 562.412 85.1739C562.451 85.8856 562.553 86.5924 562.716 87.2863C562.878 87.9952 563.111 88.686 563.411 89.3485C563.766 90.112 564.198 90.8375 564.7 91.5136L568.216 96.3061C568.931 97.2774 569.569 98.3028 570.125 99.3729C570.577 100.25 570.924 101.177 571.158 102.136C571.386 103.1 571.523 104.083 571.57 105.072C571.62 106.105 571.646 107.291 571.647 108.629V109.661C571.647 111.86 570.968 113.612 569.61 114.918C568.252 116.224 566.526 116.877 564.431 116.877C562.335 116.877 560.608 116.224 559.252 114.918C557.896 113.612 557.217 111.86 557.215 109.661V102.44H562.369V109.656C562.369 110.203 562.586 110.728 562.973 111.114C563.36 111.501 563.884 111.718 564.431 111.718C564.978 111.718 565.503 111.501 565.889 111.114C566.276 110.728 566.493 110.203 566.493 109.656V108.624C566.493 107.49 566.476 106.52 566.441 105.713C566.41 104.94 566.307 104.172 566.132 103.419C565.944 102.659 565.668 101.924 565.308 101.229C564.829 100.335 564.277 99.4811 563.658 98.6772L560.101 93.7817C559.503 92.9478 558.986 92.0588 558.556 91.1268C558.189 90.3052 557.899 89.4507 557.692 88.5749C557.481 87.6868 557.352 86.7813 557.305 85.8697C557.252 84.9253 557.226 83.9206 557.227 82.8556V81.8257C557.227 79.6288 557.906 77.8764 559.264 76.5686C560.622 75.2608 562.345 74.6069 564.431 74.6069Z" fill="#006B70"/>
<path d="M582.265 75.1218C584.36 75.1218 586.086 75.7749 587.444 77.081C588.802 78.3871 589.481 80.1395 589.479 82.3381V98.8329C589.479 101.032 588.801 102.784 587.444 104.09C586.088 105.396 584.362 106.048 582.265 106.047H580.203V116.345H575.049V75.1218H582.265ZM580.203 100.893H582.265C582.537 100.897 582.807 100.847 583.059 100.745C583.311 100.644 583.54 100.492 583.732 100.3C583.924 100.108 584.076 99.8787 584.178 99.6267C584.28 99.3746 584.33 99.1047 584.325 98.8329V82.3381C584.33 82.0661 584.28 81.7959 584.178 81.5436C584.077 81.2912 583.925 81.062 583.733 80.8695C583.541 80.677 583.312 80.5252 583.06 80.4233C582.807 80.3213 582.537 80.2712 582.265 80.276H580.203V100.893Z" fill="#006B70"/>
<path d="M600.14 74.6069C602.235 74.6069 603.961 75.26 605.319 76.5661C606.677 77.8722 607.356 79.6246 607.356 81.8232V109.656C607.356 111.855 606.677 113.607 605.319 114.913C603.961 116.219 602.235 116.872 600.14 116.872C598.044 116.872 596.317 116.219 594.961 114.913C593.605 113.607 592.926 111.855 592.924 109.656V81.8232C592.924 79.6263 593.603 77.8739 594.961 76.5661C596.319 75.2583 598.045 74.6053 600.14 74.6069ZM600.14 79.7611C599.868 79.756 599.597 79.8058 599.345 79.9076C599.092 80.0094 598.863 80.1612 598.671 80.3537C598.478 80.5462 598.326 80.7756 598.225 81.0281C598.123 81.2806 598.073 81.551 598.078 81.8232V109.656C598.078 110.203 598.295 110.728 598.682 111.114C599.069 111.501 599.593 111.718 600.14 111.718C600.687 111.718 601.212 111.501 601.598 111.114C601.985 110.728 602.202 110.203 602.202 109.656V81.8232C602.207 81.551 602.158 81.2806 602.056 81.0281C601.954 80.7756 601.802 80.5462 601.61 80.3537C601.417 80.1612 601.188 80.0094 600.935 79.9076C600.683 79.8058 600.412 79.756 600.14 79.7611Z" fill="#006B70"/>
<path d="M617.259 75.1218V84.4028H622.516V89.1425H617.259V109.809C617.243 110.179 617.373 110.539 617.62 110.814C617.772 110.954 617.951 111.061 618.146 111.127C618.341 111.194 618.548 111.219 618.753 111.201H622.93V116.355H616.744C615.369 116.355 614.252 115.936 613.393 115.099C612.967 114.68 612.632 114.178 612.411 113.623C612.189 113.068 612.085 112.474 612.104 111.876V89.1425H609.527V84.4028H612.104V75.1218H617.259Z" fill="#006B70"/>
</g>
<path d="M506.558 134.354V127.699H508.547C509.216 127.699 509.786 127.799 510.256 127.997C510.726 128.196 511.103 128.462 511.386 128.793C511.676 129.125 511.887 129.495 512.019 129.905C512.152 130.315 512.218 130.728 512.218 131.144C512.218 131.639 512.128 132.085 511.947 132.482C511.772 132.874 511.531 133.212 511.224 133.495C510.916 133.773 510.561 133.987 510.157 134.137C509.753 134.282 509.325 134.354 508.873 134.354H506.558ZM507.869 133.088H508.647C508.978 133.088 509.28 133.046 509.551 132.962C509.822 132.871 510.054 132.742 510.247 132.573C510.446 132.404 510.597 132.193 510.699 131.94C510.808 131.681 510.862 131.385 510.862 131.054C510.862 130.62 510.79 130.267 510.645 129.996C510.506 129.719 510.331 129.505 510.12 129.354C509.915 129.203 509.704 129.101 509.487 129.046C509.27 128.986 509.087 128.956 508.936 128.956H507.869V133.088ZM514.8 127.699H519.339V128.965H516.111V130.385H518.968V131.651H516.111V133.088H519.466V134.354H514.8V127.699ZM525.642 129.309C525.388 129.17 525.129 129.055 524.864 128.965C524.605 128.875 524.361 128.829 524.132 128.829C523.848 128.829 523.625 128.887 523.462 129.001C523.3 129.116 523.218 129.288 523.218 129.517C523.218 129.673 523.279 129.815 523.399 129.942C523.526 130.062 523.685 130.171 523.878 130.267C524.077 130.364 524.282 130.451 524.493 130.529C524.686 130.602 524.876 130.689 525.063 130.792C525.256 130.888 525.428 131.012 525.578 131.162C525.729 131.307 525.85 131.491 525.94 131.714C526.03 131.931 526.076 132.199 526.076 132.519C526.076 132.856 525.988 133.17 525.813 133.459C525.639 133.748 525.382 133.984 525.045 134.164C524.707 134.339 524.291 134.427 523.797 134.427C523.544 134.427 523.285 134.402 523.019 134.354C522.76 134.3 522.504 134.222 522.251 134.119C521.998 134.011 521.753 133.875 521.518 133.712L522.097 132.69C522.254 132.805 522.423 132.907 522.603 132.998C522.79 133.082 522.977 133.149 523.164 133.197C523.351 133.245 523.523 133.269 523.679 133.269C523.836 133.269 523.993 133.248 524.15 133.206C524.312 133.158 524.445 133.079 524.548 132.971C524.656 132.862 524.71 132.712 524.71 132.519C524.71 132.386 524.665 132.265 524.575 132.157C524.49 132.048 524.373 131.949 524.222 131.859C524.077 131.768 523.918 131.69 523.743 131.623C523.538 131.545 523.327 131.455 523.11 131.352C522.893 131.25 522.688 131.126 522.495 130.981C522.308 130.831 522.154 130.647 522.034 130.43C521.919 130.207 521.862 129.936 521.862 129.616C521.862 129.23 521.946 128.896 522.115 128.612C522.29 128.329 522.534 128.106 522.848 127.943C523.161 127.774 523.523 127.681 523.933 127.663C524.469 127.663 524.903 127.726 525.235 127.853C525.572 127.979 525.874 128.13 526.139 128.305L525.642 129.309ZM532.179 129.309C531.926 129.17 531.667 129.055 531.402 128.965C531.142 128.875 530.898 128.829 530.669 128.829C530.386 128.829 530.163 128.887 530 129.001C529.837 129.116 529.756 129.288 529.756 129.517C529.756 129.673 529.816 129.815 529.937 129.942C530.063 130.062 530.223 130.171 530.416 130.267C530.615 130.364 530.82 130.451 531.031 130.529C531.224 130.602 531.414 130.689 531.601 130.792C531.794 130.888 531.965 131.012 532.116 131.162C532.267 131.307 532.387 131.491 532.478 131.714C532.568 131.931 532.613 132.199 532.613 132.519C532.613 132.856 532.526 133.17 532.351 133.459C532.176 133.748 531.92 133.984 531.583 134.164C531.245 134.339 530.829 134.427 530.335 134.427C530.081 134.427 529.822 134.402 529.557 134.354C529.298 134.3 529.042 134.222 528.788 134.119C528.535 134.011 528.291 133.875 528.056 133.712L528.635 132.69C528.791 132.805 528.96 132.907 529.141 132.998C529.328 133.082 529.515 133.149 529.702 133.197C529.889 133.245 530.06 133.269 530.217 133.269C530.374 133.269 530.531 133.248 530.687 133.206C530.85 133.158 530.983 133.079 531.085 132.971C531.194 132.862 531.248 132.712 531.248 132.519C531.248 132.386 531.203 132.265 531.112 132.157C531.028 132.048 530.91 131.949 530.76 131.859C530.615 131.768 530.455 131.69 530.28 131.623C530.075 131.545 529.864 131.455 529.647 131.352C529.43 131.25 529.225 131.126 529.033 130.981C528.846 130.831 528.692 130.647 528.571 130.43C528.457 130.207 528.4 129.936 528.4 129.616C528.4 129.23 528.484 128.896 528.653 128.612C528.828 128.329 529.072 128.106 529.385 127.943C529.699 127.774 530.06 127.681 530.47 127.663C531.007 127.663 531.441 127.726 531.772 127.853C532.11 127.979 532.411 128.13 532.677 128.305L532.179 129.309ZM535.163 127.699H539.703V128.965H536.475V130.385H539.332V131.651H536.475V133.088H539.829V134.354H535.163V127.699ZM544.468 127.699C544.884 127.699 545.255 127.753 545.58 127.862C545.906 127.964 546.177 128.115 546.394 128.314C546.617 128.507 546.786 128.742 546.9 129.019C547.015 129.291 547.072 129.598 547.072 129.942C547.072 130.213 547.03 130.484 546.946 130.755C546.867 131.027 546.735 131.274 546.548 131.497C546.367 131.72 546.126 131.901 545.824 132.039C545.523 132.172 545.149 132.238 544.703 132.238H543.763V134.354H542.452V127.699H544.468ZM544.694 130.972C544.893 130.972 545.059 130.939 545.191 130.873C545.324 130.807 545.427 130.722 545.499 130.62C545.577 130.517 545.632 130.412 545.662 130.303C545.698 130.189 545.716 130.083 545.716 129.987C545.716 129.914 545.704 129.824 545.68 129.716C545.662 129.601 545.619 129.486 545.553 129.372C545.487 129.257 545.384 129.161 545.246 129.083C545.113 129.004 544.932 128.965 544.703 128.965H543.763V130.972H544.694ZM545.924 131.786L547.57 134.354H546.041L544.36 131.822L545.924 131.786ZM549.332 127.699H553.817V128.965H552.198V134.354H550.887V128.965H549.332V127.699ZM560.555 127.699H564.714V128.965H561.866V130.475H564.334V131.741H561.866V134.354H560.555V127.699ZM568.418 131.895C568.418 132.106 568.481 132.308 568.608 132.501C568.734 132.693 568.9 132.85 569.105 132.971C569.316 133.091 569.545 133.152 569.792 133.152C570.064 133.152 570.305 133.091 570.516 132.971C570.727 132.85 570.893 132.693 571.013 132.501C571.14 132.308 571.203 132.106 571.203 131.895V127.699H572.496V131.922C572.496 132.41 572.376 132.844 572.134 133.224C571.893 133.598 571.568 133.893 571.158 134.11C570.748 134.321 570.293 134.427 569.792 134.427C569.298 134.427 568.846 134.321 568.436 134.11C568.032 133.893 567.71 133.598 567.469 133.224C567.227 132.844 567.107 132.41 567.107 131.922V127.699H568.418V131.895ZM578.897 129.309C578.644 129.17 578.384 129.055 578.119 128.965C577.86 128.875 577.616 128.829 577.387 128.829C577.103 128.829 576.88 128.887 576.718 129.001C576.555 129.116 576.473 129.288 576.473 129.517C576.473 129.673 576.534 129.815 576.654 129.942C576.781 130.062 576.941 130.171 577.134 130.267C577.333 130.364 577.537 130.451 577.748 130.529C577.941 130.602 578.131 130.689 578.318 130.792C578.511 130.888 578.683 131.012 578.834 131.162C578.984 131.307 579.105 131.491 579.195 131.714C579.286 131.931 579.331 132.199 579.331 132.519C579.331 132.856 579.243 133.17 579.069 133.459C578.894 133.748 578.638 133.984 578.3 134.164C577.962 134.339 577.547 134.427 577.052 134.427C576.799 134.427 576.54 134.402 576.275 134.354C576.015 134.3 575.759 134.222 575.506 134.119C575.253 134.011 575.009 133.875 574.774 133.712L575.352 132.69C575.509 132.805 575.678 132.907 575.859 132.998C576.045 133.082 576.232 133.149 576.419 133.197C576.606 133.245 576.778 133.269 576.935 133.269C577.091 133.269 577.248 133.248 577.405 133.206C577.568 133.158 577.7 133.079 577.803 132.971C577.911 132.862 577.965 132.712 577.965 132.519C577.965 132.386 577.92 132.265 577.83 132.157C577.745 132.048 577.628 131.949 577.477 131.859C577.333 131.768 577.173 131.69 576.998 131.623C576.793 131.545 576.582 131.455 576.365 131.352C576.148 131.25 575.943 131.126 575.75 130.981C575.563 130.831 575.409 130.647 575.289 130.43C575.174 130.207 575.117 129.936 575.117 129.616C575.117 129.23 575.202 128.896 575.37 128.612C575.545 128.329 575.789 128.106 576.103 127.943C576.416 127.774 576.778 127.681 577.188 127.663C577.724 127.663 578.158 127.726 578.49 127.853C578.828 127.979 579.129 128.13 579.394 128.305L578.897 129.309ZM581.881 127.699H583.192V134.354H581.881V127.699ZM585.769 131.036C585.769 130.578 585.856 130.144 586.031 129.734C586.206 129.324 586.447 128.962 586.754 128.649C587.068 128.329 587.43 128.079 587.839 127.898C588.249 127.717 588.689 127.627 589.16 127.627C589.624 127.627 590.061 127.717 590.471 127.898C590.881 128.079 591.242 128.329 591.556 128.649C591.875 128.962 592.122 129.324 592.297 129.734C592.478 130.144 592.569 130.578 592.569 131.036C592.569 131.506 592.478 131.946 592.297 132.356C592.122 132.766 591.875 133.128 591.556 133.441C591.242 133.748 590.881 133.99 590.471 134.164C590.061 134.339 589.624 134.427 589.16 134.427C588.689 134.427 588.249 134.339 587.839 134.164C587.43 133.99 587.068 133.748 586.754 133.441C586.447 133.128 586.206 132.766 586.031 132.356C585.856 131.946 585.769 131.506 585.769 131.036ZM587.125 131.036C587.125 131.331 587.176 131.608 587.279 131.868C587.387 132.121 587.535 132.347 587.722 132.546C587.915 132.739 588.135 132.889 588.382 132.998C588.635 133.106 588.909 133.161 589.205 133.161C589.488 133.161 589.75 133.106 589.992 132.998C590.239 132.889 590.453 132.739 590.634 132.546C590.814 132.347 590.956 132.121 591.059 131.868C591.161 131.608 591.212 131.331 591.212 131.036C591.212 130.734 591.158 130.454 591.049 130.195C590.947 129.936 590.802 129.709 590.615 129.517C590.435 129.318 590.221 129.164 589.973 129.055C589.726 128.947 589.458 128.893 589.169 128.893C588.879 128.893 588.611 128.947 588.364 129.055C588.117 129.164 587.9 129.318 587.713 129.517C587.526 129.709 587.381 129.936 587.279 130.195C587.176 130.454 587.125 130.734 587.125 131.036ZM601.101 134.626L596.055 130.068L596.444 130.285L596.471 134.354H595.142V127.437H595.196L600.133 131.976L599.844 131.85L599.817 127.699H601.137V134.626H601.101Z" fill="#006B70"/>
<rect width="209.872" height="209.872" transform="translate(673.276 0.309082)" fill="#B7CC33"/>
<g clip-path="url(#clip3_74_549)">
<path d="M721.438 75.1223V80.2765H714.428V93.9882H720.612V99.1423H714.428V116.355H709.273V75.1223H721.438Z" fill="#006B70"/>
<path d="M731.902 84.4033V111.616H734.894V116.355H723.34V111.616H726.746V89.143H723.551V84.4033H731.902ZM732.056 75.1223V80.5854H726.387V75.1223H732.056Z" fill="#006B70"/>
<path d="M747.003 74.6074C748.51 74.6074 749.652 75.1315 750.429 76.1798C751.206 77.228 751.593 78.6622 751.589 80.4824V92.132H746.448V81.8338C746.468 81.2987 746.289 80.7752 745.945 80.3644C745.772 80.1683 745.557 80.0133 745.317 79.9107C745.076 79.8082 744.815 79.7606 744.554 79.7716C744.252 79.7565 743.95 79.8079 743.669 79.922C743.389 80.0361 743.137 80.2103 742.931 80.4322C742.5 80.9308 742.277 81.577 742.311 82.2356V116.355H737.154V75.1223H742.002L741.59 78.9879H742.208C743 76.0676 744.598 74.6074 747.003 74.6074Z" fill="#006B70"/>
<path d="M762.051 74.6074C764.147 74.6074 765.874 75.2605 767.232 76.5666C768.59 77.8727 769.269 79.6251 769.267 81.8237V91.4111C769.267 93.5059 768.765 95.1804 767.76 96.4346C767.28 97.0439 766.664 97.5316 765.961 97.8584C765.258 98.1853 764.488 98.342 763.713 98.316C762.996 98.3553 762.279 98.2361 761.614 97.9668C761.145 97.7438 760.704 97.4665 760.3 97.1405H759.682L759.991 99.3056V109.667C759.981 109.943 760.028 110.219 760.127 110.478C760.226 110.736 760.376 110.972 760.569 111.171C760.761 111.37 760.991 111.529 761.246 111.637C761.501 111.745 761.775 111.801 762.052 111.801C762.329 111.801 762.603 111.745 762.858 111.637C763.113 111.529 763.343 111.37 763.535 111.171C763.728 110.972 763.878 110.736 763.977 110.478C764.076 110.219 764.123 109.943 764.113 109.667V102.44H769.267V109.657C769.267 111.855 768.589 113.608 767.232 114.914C765.876 116.22 764.149 116.873 762.051 116.873C759.956 116.873 758.229 116.22 756.871 114.914C755.513 113.608 754.835 111.855 754.837 109.657V81.8237C754.837 79.6268 755.515 77.8744 756.871 76.5666C758.228 75.2588 759.954 74.6058 762.051 74.6074ZM762.051 79.7616C761.779 79.7568 761.509 79.8069 761.256 79.9089C761.004 80.0108 760.775 80.1626 760.583 80.3551C760.391 80.5476 760.239 80.7768 760.137 81.0292C760.036 81.2815 759.986 81.5517 759.991 81.8237V92.4409C760.403 92.9232 761.089 93.1618 762.051 93.1618C762.323 93.1669 762.593 93.1171 762.846 93.0153C763.098 92.9134 763.328 92.7617 763.52 92.5692C763.713 92.3767 763.864 92.1473 763.966 91.8948C764.068 91.6423 764.118 91.3719 764.113 91.0997V81.8237C764.118 81.5515 764.068 81.2811 763.966 81.0286C763.864 80.7761 763.713 80.5467 763.52 80.3542C763.328 80.1616 763.098 80.0099 762.846 79.9081C762.593 79.8063 762.323 79.7564 762.051 79.7616Z" fill="#006B70"/>
<path d="M788.853 74.6074C790.948 74.6074 792.674 75.2605 794.032 76.5666C795.39 77.8727 796.069 79.6251 796.069 81.8237V89.04H790.905V81.8237C790.905 81.2768 790.688 80.7523 790.301 80.3656C789.914 79.9788 789.39 79.7616 788.843 79.7616C788.296 79.7616 787.772 79.9788 787.385 80.3656C786.998 80.7523 786.781 81.2768 786.781 81.8237V82.8535C786.781 83.6799 786.798 84.451 786.834 85.1744C786.873 85.886 786.975 86.5929 787.137 87.2868C787.3 87.9957 787.533 88.6865 787.833 89.349C788.188 90.1125 788.62 90.8379 789.122 91.5141L792.638 96.3065C793.353 97.2779 793.991 98.3033 794.547 99.3734C794.999 100.25 795.346 101.178 795.58 102.136C795.807 103.1 795.945 104.083 795.991 105.073C796.042 106.106 796.068 107.291 796.069 108.629V109.662C796.069 111.86 795.39 113.613 794.032 114.919C792.674 116.225 790.948 116.878 788.853 116.878C786.757 116.878 785.03 116.225 783.674 114.919C782.317 113.613 781.638 111.86 781.637 109.662V102.44H786.791V109.657C786.791 110.203 787.008 110.728 787.395 111.115C787.782 111.501 788.306 111.719 788.853 111.719C789.4 111.719 789.924 111.501 790.311 111.115C790.698 110.728 790.915 110.203 790.915 109.657V108.624C790.915 107.491 790.898 106.52 790.862 105.713C790.832 104.941 790.729 104.173 790.553 103.42C790.366 102.66 790.09 101.925 789.73 101.23C789.251 100.335 788.699 99.4816 788.079 98.6777L784.523 93.7822C783.925 92.9483 783.407 92.0593 782.978 91.1273C782.611 90.3056 782.321 89.4512 782.114 88.5753C781.903 87.6873 781.773 86.7818 781.727 85.8702C781.674 84.9257 781.648 83.921 781.649 82.8561V81.8262C781.649 79.6293 782.328 77.8769 783.686 76.5691C785.044 75.2613 786.767 74.6074 788.853 74.6074Z" fill="#006B70"/>
<path d="M806.688 75.1223C808.783 75.1223 810.509 75.7754 811.867 77.0815C813.225 78.3876 813.903 80.14 813.902 82.3386V98.8334C813.902 101.032 813.224 102.784 811.867 104.09C810.511 105.397 808.784 106.049 806.688 106.047H804.626V116.345H799.472V75.1223H806.688ZM804.626 100.893H806.688C806.96 100.898 807.23 100.848 807.482 100.746C807.734 100.644 807.963 100.493 808.155 100.3C808.347 100.108 808.499 99.8792 808.601 99.6272C808.702 99.3751 808.752 99.1051 808.748 98.8334V82.3386C808.753 82.0666 808.703 81.7964 808.601 81.544C808.5 81.2917 808.348 81.0625 808.156 80.87C807.964 80.6775 807.735 80.5257 807.482 80.4238C807.23 80.3218 806.96 80.2717 806.688 80.2765H804.626V100.893Z" fill="#006B70"/>
<path d="M824.563 74.6074C826.658 74.6074 828.384 75.2605 829.742 76.5666C831.1 77.8727 831.779 79.6251 831.779 81.8237V109.657C831.779 111.855 831.1 113.608 829.742 114.914C828.384 116.22 826.658 116.873 824.563 116.873C822.466 116.873 820.74 116.22 819.384 114.914C818.027 113.608 817.348 111.855 817.347 109.657V81.8237C817.347 79.6268 818.026 77.8744 819.384 76.5666C820.742 75.2588 822.468 74.6058 824.563 74.6074ZM824.563 79.7616C824.291 79.7564 824.02 79.8063 823.768 79.9081C823.515 80.0099 823.286 80.1616 823.093 80.3542C822.901 80.5467 822.749 80.7761 822.647 81.0286C822.546 81.2811 822.496 81.5515 822.501 81.8237V109.657C822.501 110.203 822.718 110.728 823.105 111.115C823.492 111.501 824.016 111.719 824.563 111.719C825.11 111.719 825.634 111.501 826.021 111.115C826.408 110.728 826.625 110.203 826.625 109.657V81.8237C826.63 81.5515 826.58 81.2811 826.479 81.0286C826.377 80.7761 826.225 80.5467 826.033 80.3542C825.84 80.1616 825.611 80.0099 825.358 79.9081C825.106 79.8063 824.835 79.7564 824.563 79.7616Z" fill="#006B70"/>
<path d="M841.681 75.1223V84.4033H846.939V89.143H841.681V109.81C841.665 110.179 841.795 110.54 842.043 110.814C842.194 110.954 842.373 111.061 842.569 111.128C842.764 111.194 842.971 111.219 843.176 111.201H847.353V116.355H841.166C839.792 116.355 838.675 115.937 837.816 115.1C837.39 114.681 837.055 114.178 836.833 113.623C836.612 113.069 836.507 112.474 836.527 111.877V89.143H833.95V84.4033H836.527V75.1223H841.681Z" fill="#006B70"/>
</g>
<path d="M730.982 134.354V127.699H732.971C733.641 127.699 734.21 127.799 734.68 127.997C735.151 128.196 735.527 128.462 735.811 128.793C736.1 129.125 736.311 129.495 736.444 129.905C736.576 130.315 736.643 130.728 736.643 131.144C736.643 131.639 736.552 132.085 736.371 132.482C736.196 132.874 735.955 133.212 735.648 133.495C735.34 133.773 734.985 133.987 734.581 134.137C734.177 134.282 733.749 134.354 733.297 134.354H730.982ZM732.293 133.088H733.071C733.402 133.088 733.704 133.046 733.975 132.962C734.246 132.871 734.478 132.742 734.671 132.573C734.87 132.404 735.021 132.193 735.123 131.94C735.232 131.681 735.286 131.385 735.286 131.054C735.286 130.62 735.214 130.267 735.069 129.996C734.931 129.719 734.756 129.505 734.545 129.354C734.34 129.203 734.129 129.101 733.912 129.046C733.695 128.986 733.511 128.956 733.36 128.956H732.293V133.088ZM739.224 127.699H743.763V128.965H740.535V130.385H743.393V131.651H740.535V133.088H743.89V134.354H739.224V127.699ZM750.066 129.309C749.813 129.17 749.554 129.055 749.288 128.965C749.029 128.875 748.785 128.829 748.556 128.829C748.273 128.829 748.05 128.887 747.887 129.001C747.724 129.116 747.643 129.288 747.643 129.517C747.643 129.673 747.703 129.815 747.823 129.942C747.95 130.062 748.11 130.171 748.303 130.267C748.502 130.364 748.707 130.451 748.918 130.529C749.11 130.602 749.3 130.689 749.487 130.792C749.68 130.888 749.852 131.012 750.003 131.162C750.153 131.307 750.274 131.491 750.364 131.714C750.455 131.931 750.5 132.199 750.5 132.519C750.5 132.856 750.413 133.17 750.238 133.459C750.063 133.748 749.807 133.984 749.469 134.164C749.132 134.339 748.716 134.427 748.221 134.427C747.968 134.427 747.709 134.402 747.444 134.354C747.184 134.3 746.928 134.222 746.675 134.119C746.422 134.011 746.178 133.875 745.943 133.712L746.521 132.69C746.678 132.805 746.847 132.907 747.028 132.998C747.215 133.082 747.401 133.149 747.588 133.197C747.775 133.245 747.947 133.269 748.104 133.269C748.26 133.269 748.417 133.248 748.574 133.206C748.737 133.158 748.869 133.079 748.972 132.971C749.08 132.862 749.135 132.712 749.135 132.519C749.135 132.386 749.089 132.265 748.999 132.157C748.915 132.048 748.797 131.949 748.646 131.859C748.502 131.768 748.342 131.69 748.167 131.623C747.962 131.545 747.751 131.455 747.534 131.352C747.317 131.25 747.112 131.126 746.919 130.981C746.732 130.831 746.579 130.647 746.458 130.43C746.344 130.207 746.286 129.936 746.286 129.616C746.286 129.23 746.371 128.896 746.539 128.612C746.714 128.329 746.958 128.106 747.272 127.943C747.585 127.774 747.947 127.681 748.357 127.663C748.893 127.663 749.327 127.726 749.659 127.853C749.997 127.979 750.298 128.13 750.563 128.305L750.066 129.309ZM756.604 129.309C756.35 129.17 756.091 129.055 755.826 128.965C755.567 128.875 755.323 128.829 755.094 128.829C754.81 128.829 754.587 128.887 754.424 129.001C754.262 129.116 754.18 129.288 754.18 129.517C754.18 129.673 754.241 129.815 754.361 129.942C754.488 130.062 754.647 130.171 754.84 130.267C755.039 130.364 755.244 130.451 755.455 130.529C755.648 130.602 755.838 130.689 756.025 130.792C756.218 130.888 756.39 131.012 756.54 131.162C756.691 131.307 756.812 131.491 756.902 131.714C756.992 131.931 757.038 132.199 757.038 132.519C757.038 132.856 756.95 133.17 756.775 133.459C756.601 133.748 756.344 133.984 756.007 134.164C755.669 134.339 755.253 134.427 754.759 134.427C754.506 134.427 754.247 134.402 753.981 134.354C753.722 134.3 753.466 134.222 753.213 134.119C752.96 134.011 752.715 133.875 752.48 133.712L753.059 132.69C753.216 132.805 753.385 132.907 753.565 132.998C753.752 133.082 753.939 133.149 754.126 133.197C754.313 133.245 754.485 133.269 754.641 133.269C754.798 133.269 754.955 133.248 755.112 133.206C755.274 133.158 755.407 133.079 755.51 132.971C755.618 132.862 755.672 132.712 755.672 132.519C755.672 132.386 755.627 132.265 755.537 132.157C755.452 132.048 755.335 131.949 755.184 131.859C755.039 131.768 754.88 131.69 754.705 131.623C754.5 131.545 754.289 131.455 754.072 131.352C753.855 131.25 753.65 131.126 753.457 130.981C753.27 130.831 753.116 130.647 752.996 130.43C752.881 130.207 752.824 129.936 752.824 129.616C752.824 129.23 752.908 128.896 753.077 128.612C753.252 128.329 753.496 128.106 753.81 127.943C754.123 127.774 754.485 127.681 754.895 127.663C755.431 127.663 755.865 127.726 756.197 127.853C756.534 127.979 756.836 128.13 757.101 128.305L756.604 129.309ZM759.588 127.699H764.127V128.965H760.899V130.385H763.756V131.651H760.899V133.088H764.254V134.354H759.588V127.699ZM768.892 127.699C769.308 127.699 769.679 127.753 770.005 127.862C770.33 127.964 770.601 128.115 770.818 128.314C771.041 128.507 771.21 128.742 771.325 129.019C771.439 129.291 771.497 129.598 771.497 129.942C771.497 130.213 771.454 130.484 771.37 130.755C771.292 131.027 771.159 131.274 770.972 131.497C770.791 131.72 770.55 131.901 770.249 132.039C769.947 132.172 769.574 132.238 769.128 132.238H768.187V134.354H766.876V127.699H768.892ZM769.118 130.972C769.317 130.972 769.483 130.939 769.616 130.873C769.748 130.807 769.851 130.722 769.923 130.62C770.002 130.517 770.056 130.412 770.086 130.303C770.122 130.189 770.14 130.083 770.14 129.987C770.14 129.914 770.128 129.824 770.104 129.716C770.086 129.601 770.044 129.486 769.977 129.372C769.911 129.257 769.809 129.161 769.67 129.083C769.537 129.004 769.357 128.965 769.128 128.965H768.187V130.972H769.118ZM770.348 131.786L771.994 134.354H770.466L768.784 131.822L770.348 131.786ZM773.756 127.699H778.241V128.965H776.623V134.354H775.312V128.965H773.756V127.699ZM784.979 127.699H789.139V128.965H786.29V130.475H788.759V131.741H786.29V134.354H784.979V127.699ZM792.842 131.895C792.842 132.106 792.906 132.308 793.032 132.501C793.159 132.693 793.325 132.85 793.53 132.971C793.741 133.091 793.97 133.152 794.217 133.152C794.488 133.152 794.729 133.091 794.94 132.971C795.151 132.85 795.317 132.693 795.437 132.501C795.564 132.308 795.627 132.106 795.627 131.895V127.699H796.92V131.922C796.92 132.41 796.8 132.844 796.559 133.224C796.318 133.598 795.992 133.893 795.582 134.11C795.172 134.321 794.717 134.427 794.217 134.427C793.722 134.427 793.27 134.321 792.86 134.11C792.457 133.893 792.134 133.598 791.893 133.224C791.652 132.844 791.531 132.41 791.531 131.922V127.699H792.842V131.895ZM803.321 129.309C803.068 129.17 802.809 129.055 802.544 128.965C802.284 128.875 802.04 128.829 801.811 128.829C801.528 128.829 801.305 128.887 801.142 129.001C800.979 129.116 800.898 129.288 800.898 129.517C800.898 129.673 800.958 129.815 801.079 129.942C801.205 130.062 801.365 130.171 801.558 130.267C801.757 130.364 801.962 130.451 802.173 130.529C802.366 130.602 802.556 130.689 802.742 130.792C802.935 130.888 803.107 131.012 803.258 131.162C803.409 131.307 803.529 131.491 803.62 131.714C803.71 131.931 803.755 132.199 803.755 132.519C803.755 132.856 803.668 133.17 803.493 133.459C803.318 133.748 803.062 133.984 802.724 134.164C802.387 134.339 801.971 134.427 801.477 134.427C801.223 134.427 800.964 134.402 800.699 134.354C800.44 134.3 800.183 134.222 799.93 134.119C799.677 134.011 799.433 133.875 799.198 133.712L799.777 132.69C799.933 132.805 800.102 132.907 800.283 132.998C800.47 133.082 800.657 133.149 800.844 133.197C801.03 133.245 801.202 133.269 801.359 133.269C801.516 133.269 801.672 133.248 801.829 133.206C801.992 133.158 802.125 133.079 802.227 132.971C802.336 132.862 802.39 132.712 802.39 132.519C802.39 132.386 802.345 132.265 802.254 132.157C802.17 132.048 802.052 131.949 801.901 131.859C801.757 131.768 801.597 131.69 801.422 131.623C801.217 131.545 801.006 131.455 800.789 131.352C800.572 131.25 800.367 131.126 800.174 130.981C799.988 130.831 799.834 130.647 799.713 130.43C799.599 130.207 799.541 129.936 799.541 129.616C799.541 129.23 799.626 128.896 799.795 128.612C799.969 128.329 800.214 128.106 800.527 127.943C800.841 127.774 801.202 127.681 801.612 127.663C802.149 127.663 802.583 127.726 802.914 127.853C803.252 127.979 803.553 128.13 803.818 128.305L803.321 129.309ZM806.305 127.699H807.616V134.354H806.305V127.699ZM810.193 131.036C810.193 130.578 810.28 130.144 810.455 129.734C810.63 129.324 810.871 128.962 811.179 128.649C811.492 128.329 811.854 128.079 812.264 127.898C812.674 127.717 813.114 127.627 813.584 127.627C814.048 127.627 814.485 127.717 814.895 127.898C815.305 128.079 815.667 128.329 815.98 128.649C816.3 128.962 816.547 129.324 816.722 129.734C816.902 130.144 816.993 130.578 816.993 131.036C816.993 131.506 816.902 131.946 816.722 132.356C816.547 132.766 816.3 133.128 815.98 133.441C815.667 133.748 815.305 133.99 814.895 134.164C814.485 134.339 814.048 134.427 813.584 134.427C813.114 134.427 812.674 134.339 812.264 134.164C811.854 133.99 811.492 133.748 811.179 133.441C810.871 133.128 810.63 132.766 810.455 132.356C810.28 131.946 810.193 131.506 810.193 131.036ZM811.549 131.036C811.549 131.331 811.601 131.608 811.703 131.868C811.812 132.121 811.959 132.347 812.146 132.546C812.339 132.739 812.559 132.889 812.806 132.998C813.059 133.106 813.334 133.161 813.629 133.161C813.912 133.161 814.175 133.106 814.416 132.998C814.663 132.889 814.877 132.739 815.058 132.546C815.239 132.347 815.38 132.121 815.483 131.868C815.585 131.608 815.637 131.331 815.637 131.036C815.637 130.734 815.582 130.454 815.474 130.195C815.371 129.936 815.227 129.709 815.04 129.517C814.859 129.318 814.645 129.164 814.398 129.055C814.151 128.947 813.882 128.893 813.593 128.893C813.304 128.893 813.035 128.947 812.788 129.055C812.541 129.164 812.324 129.318 812.137 129.517C811.95 129.709 811.806 129.936 811.703 130.195C811.601 130.454 811.549 130.734 811.549 131.036ZM825.525 134.626L820.479 130.068L820.868 130.285L820.895 134.354H819.566V127.437H819.62L824.557 131.976L824.268 131.85L824.241 127.699H825.561V134.626H825.525Z" fill="#006B70"/>
<rect width="209.872" height="209.872" transform="translate(897.702 0.309082)" fill="#FE7416"/>
<g clip-path="url(#clip4_74_549)">
<path d="M945.867 75.1223V80.2765H938.856V93.9882H945.04V99.1423H938.856V116.355H933.702V75.1223H945.867Z" fill="#D9E4D8"/>
<path d="M956.331 84.4033V111.616H959.323V116.355H947.769V111.616H951.175V89.143H947.98V84.4033H956.331ZM956.484 75.1223V80.5854H950.815V75.1223H956.484Z" fill="#D9E4D8"/>
<path d="M971.432 74.6074C972.939 74.6074 974.081 75.1315 974.858 76.1798C975.635 77.228 976.021 78.6622 976.018 80.4824V92.132H970.877V81.8338C970.897 81.2987 970.718 80.7752 970.374 80.3644C970.201 80.1683 969.986 80.0133 969.745 79.9107C969.505 79.8082 969.244 79.7606 968.983 79.7716C968.68 79.7565 968.378 79.8079 968.098 79.922C967.818 80.0361 967.566 80.2103 967.36 80.4322C966.928 80.9308 966.706 81.577 966.74 82.2356V116.355H961.583V75.1223H966.431L966.019 78.9879H966.637C967.429 76.0676 969.027 74.6074 971.432 74.6074Z" fill="#D9E4D8"/>
<path d="M986.479 74.6074C988.576 74.6074 990.303 75.2605 991.661 76.5666C993.019 77.8727 993.697 79.6251 993.696 81.8237V91.4111C993.696 93.5059 993.193 95.1804 992.189 96.4346C991.709 97.0439 991.093 97.5316 990.39 97.8584C989.687 98.1853 988.917 98.342 988.142 98.316C987.425 98.3553 986.708 98.2361 986.042 97.9668C985.574 97.7438 985.133 97.4665 984.729 97.1405H984.111L984.42 99.3056V109.667C984.41 109.943 984.456 110.219 984.555 110.478C984.655 110.736 984.805 110.972 984.997 111.171C985.19 111.37 985.42 111.529 985.675 111.637C985.93 111.745 986.204 111.801 986.481 111.801C986.758 111.801 987.032 111.745 987.286 111.637C987.541 111.529 987.772 111.37 987.964 111.171C988.156 110.972 988.307 110.736 988.406 110.478C988.505 110.219 988.551 109.943 988.542 109.667V102.44H993.696V109.657C993.696 111.855 993.018 113.608 991.661 114.914C990.305 116.22 988.578 116.873 986.479 116.873C984.385 116.873 982.658 116.22 981.3 114.914C979.942 113.608 979.264 111.855 979.266 109.657V81.8237C979.266 79.6268 979.944 77.8744 981.3 76.5666C982.657 75.2588 984.383 74.6058 986.479 74.6074ZM986.479 79.7616C986.207 79.7568 985.937 79.8069 985.685 79.9089C985.433 80.0108 985.204 80.1626 985.011 80.3551C984.819 80.5476 984.668 80.7768 984.566 81.0292C984.464 81.2815 984.415 81.5517 984.42 81.8237V92.4409C984.832 92.9232 985.517 93.1618 986.479 93.1618C986.752 93.1669 987.022 93.1171 987.275 93.0153C987.527 92.9134 987.756 92.7617 987.949 92.5692C988.141 92.3767 988.293 92.1473 988.395 91.8948C988.497 91.6423 988.547 91.3719 988.542 91.0997V81.8237C988.547 81.5515 988.497 81.2811 988.395 81.0286C988.293 80.7761 988.141 80.5467 987.949 80.3542C987.756 80.1616 987.527 80.0099 987.275 79.9081C987.022 79.8063 986.752 79.7564 986.479 79.7616Z" fill="#D9E4D8"/>
<path d="M1013.28 74.6074C1015.38 74.6074 1017.1 75.2605 1018.46 76.5666C1019.82 77.8727 1020.5 79.6251 1020.5 81.8237V89.04H1015.33V81.8237C1015.33 81.2768 1015.12 80.7523 1014.73 80.3656C1014.34 79.9788 1013.82 79.7616 1013.27 79.7616C1012.73 79.7616 1012.2 79.9788 1011.81 80.3656C1011.43 80.7523 1011.21 81.2768 1011.21 81.8237V82.8535C1011.21 83.6799 1011.23 84.451 1011.26 85.1744C1011.3 85.886 1011.4 86.5929 1011.57 87.2868C1011.73 87.9957 1011.96 88.6865 1012.26 89.349C1012.62 90.1125 1013.05 90.8379 1013.55 91.5141L1017.07 96.3065C1017.78 97.2779 1018.42 98.3033 1018.98 99.3734C1019.43 100.25 1019.78 101.178 1020.01 102.136C1020.24 103.1 1020.37 104.083 1020.42 105.073C1020.47 106.106 1020.5 107.291 1020.5 108.629V109.662C1020.5 111.86 1019.82 113.613 1018.46 114.919C1017.1 116.225 1015.38 116.878 1013.28 116.878C1011.19 116.878 1009.46 116.225 1008.1 114.919C1006.75 113.613 1006.07 111.86 1006.07 109.662V102.44H1011.22V109.657C1011.22 110.203 1011.44 110.728 1011.82 111.115C1012.21 111.501 1012.74 111.719 1013.28 111.719C1013.83 111.719 1014.35 111.501 1014.74 111.115C1015.13 110.728 1015.34 110.203 1015.34 109.657V108.624C1015.34 107.491 1015.33 106.52 1015.29 105.713C1015.26 104.941 1015.16 104.173 1014.98 103.42C1014.8 102.66 1014.52 101.925 1014.16 101.23C1013.68 100.335 1013.13 99.4816 1012.51 98.6777L1008.95 93.7822C1008.35 92.9483 1007.84 92.0593 1007.41 91.1273C1007.04 90.3056 1006.75 89.4512 1006.54 88.5753C1006.33 87.6873 1006.2 86.7818 1006.16 85.8702C1006.1 84.9257 1006.08 83.921 1006.08 82.8561V81.8262C1006.08 79.6293 1006.76 77.8769 1008.12 76.5691C1009.47 75.2613 1011.2 74.6074 1013.28 74.6074Z" fill="#D9E4D8"/>
<path d="M1031.12 75.1223C1033.21 75.1223 1034.94 75.7754 1036.3 77.0815C1037.65 78.3876 1038.33 80.14 1038.33 82.3386V98.8334C1038.33 101.032 1037.65 102.784 1036.3 104.09C1034.94 105.397 1033.21 106.049 1031.12 106.047H1029.05V116.345H1023.9V75.1223H1031.12ZM1029.05 100.893H1031.12C1031.39 100.898 1031.66 100.848 1031.91 100.746C1032.16 100.644 1032.39 100.493 1032.58 100.3C1032.78 100.108 1032.93 99.8792 1033.03 99.6272C1033.13 99.3751 1033.18 99.1051 1033.18 98.8334V82.3386C1033.18 82.0666 1033.13 81.7964 1033.03 81.544C1032.93 81.2917 1032.78 81.0625 1032.58 80.87C1032.39 80.6775 1032.16 80.5257 1031.91 80.4238C1031.66 80.3218 1031.39 80.2717 1031.12 80.2765H1029.05V100.893Z" fill="#D9E4D8"/>
<path d="M1048.99 74.6074C1051.09 74.6074 1052.81 75.2605 1054.17 76.5666C1055.53 77.8727 1056.21 79.6251 1056.21 81.8237V109.657C1056.21 111.855 1055.53 113.608 1054.17 114.914C1052.81 116.22 1051.09 116.873 1048.99 116.873C1046.9 116.873 1045.17 116.22 1043.81 114.914C1042.46 113.608 1041.78 111.855 1041.78 109.657V81.8237C1041.78 79.6268 1042.45 77.8744 1043.81 76.5666C1045.17 75.2588 1046.9 74.6058 1048.99 74.6074ZM1048.99 79.7616C1048.72 79.7564 1048.45 79.8063 1048.2 79.9081C1047.94 80.0099 1047.71 80.1616 1047.52 80.3542C1047.33 80.5467 1047.18 80.7761 1047.08 81.0286C1046.97 81.2811 1046.92 81.5515 1046.93 81.8237V109.657C1046.93 110.203 1047.15 110.728 1047.53 111.115C1047.92 111.501 1048.44 111.719 1048.99 111.719C1049.54 111.719 1050.06 111.501 1050.45 111.115C1050.84 110.728 1051.05 110.203 1051.05 109.657V81.8237C1051.06 81.5515 1051.01 81.2811 1050.91 81.0286C1050.81 80.7761 1050.65 80.5467 1050.46 80.3542C1050.27 80.1616 1050.04 80.0099 1049.79 79.9081C1049.53 79.8063 1049.26 79.7564 1048.99 79.7616Z" fill="#D9E4D8"/>
<path d="M1066.11 75.1223V84.4033H1071.37V89.143H1066.11V109.81C1066.09 110.179 1066.22 110.54 1066.47 110.814C1066.62 110.954 1066.8 111.061 1067 111.128C1067.19 111.194 1067.4 111.219 1067.6 111.201H1071.78V116.355H1065.6C1064.22 116.355 1063.1 115.937 1062.24 115.1C1061.82 114.681 1061.48 114.178 1061.26 113.623C1061.04 113.069 1060.94 112.474 1060.96 111.877V89.143H1058.38V84.4033H1060.96V75.1223H1066.11Z" fill="#D9E4D8"/>
</g>
<path d="M955.409 134.354V127.699H957.398C958.067 127.699 958.637 127.799 959.107 127.997C959.577 128.196 959.954 128.462 960.237 128.793C960.527 129.125 960.738 129.495 960.87 129.905C961.003 130.315 961.069 130.728 961.069 131.144C961.069 131.639 960.979 132.085 960.798 132.482C960.623 132.874 960.382 133.212 960.075 133.495C959.767 133.773 959.412 133.987 959.008 134.137C958.604 134.282 958.176 134.354 957.724 134.354H955.409ZM956.72 133.088H957.498C957.829 133.088 958.131 133.046 958.402 132.962C958.673 132.871 958.905 132.742 959.098 132.573C959.297 132.404 959.448 132.193 959.55 131.94C959.659 131.681 959.713 131.385 959.713 131.054C959.713 130.62 959.641 130.267 959.496 129.996C959.357 129.719 959.183 129.505 958.972 129.354C958.767 129.203 958.556 129.101 958.339 129.046C958.122 128.986 957.938 128.956 957.787 128.956H956.72V133.088ZM963.651 127.699H968.19V128.965H964.962V130.385H967.819V131.651H964.962V133.088H968.317V134.354H963.651V127.699ZM974.493 129.309C974.24 129.17 973.98 129.055 973.715 128.965C973.456 128.875 973.212 128.829 972.983 128.829C972.699 128.829 972.476 128.887 972.313 129.001C972.151 129.116 972.069 129.288 972.069 129.517C972.069 129.673 972.13 129.815 972.25 129.942C972.377 130.062 972.537 130.171 972.729 130.267C972.928 130.364 973.133 130.451 973.344 130.529C973.537 130.602 973.727 130.689 973.914 130.792C974.107 130.888 974.279 131.012 974.429 131.162C974.58 131.307 974.701 131.491 974.791 131.714C974.882 131.931 974.927 132.199 974.927 132.519C974.927 132.856 974.839 133.17 974.665 133.459C974.49 133.748 974.233 133.984 973.896 134.164C973.558 134.339 973.142 134.427 972.648 134.427C972.395 134.427 972.136 134.402 971.87 134.354C971.611 134.3 971.355 134.222 971.102 134.119C970.849 134.011 970.604 133.875 970.369 133.712L970.948 132.69C971.105 132.805 971.274 132.907 971.454 132.998C971.641 133.082 971.828 133.149 972.015 133.197C972.202 133.245 972.374 133.269 972.531 133.269C972.687 133.269 972.844 133.248 973.001 133.206C973.163 133.158 973.296 133.079 973.399 132.971C973.507 132.862 973.561 132.712 973.561 132.519C973.561 132.386 973.516 132.265 973.426 132.157C973.341 132.048 973.224 131.949 973.073 131.859C972.928 131.768 972.769 131.69 972.594 131.623C972.389 131.545 972.178 131.455 971.961 131.352C971.744 131.25 971.539 131.126 971.346 130.981C971.159 130.831 971.005 130.647 970.885 130.43C970.77 130.207 970.713 129.936 970.713 129.616C970.713 129.23 970.797 128.896 970.966 128.612C971.141 128.329 971.385 128.106 971.699 127.943C972.012 127.774 972.374 127.681 972.784 127.663C973.32 127.663 973.754 127.726 974.086 127.853C974.423 127.979 974.725 128.13 974.99 128.305L974.493 129.309ZM981.03 129.309C980.777 129.17 980.518 129.055 980.253 128.965C979.994 128.875 979.749 128.829 979.52 128.829C979.237 128.829 979.014 128.887 978.851 129.001C978.688 129.116 978.607 129.288 978.607 129.517C978.607 129.673 978.667 129.815 978.788 129.942C978.914 130.062 979.074 130.171 979.267 130.267C979.466 130.364 979.671 130.451 979.882 130.529C980.075 130.602 980.265 130.689 980.452 130.792C980.645 130.888 980.816 131.012 980.967 131.162C981.118 131.307 981.238 131.491 981.329 131.714C981.419 131.931 981.464 132.199 981.464 132.519C981.464 132.856 981.377 133.17 981.202 133.459C981.027 133.748 980.771 133.984 980.434 134.164C980.096 134.339 979.68 134.427 979.186 134.427C978.933 134.427 978.673 134.402 978.408 134.354C978.149 134.3 977.893 134.222 977.64 134.119C977.386 134.011 977.142 133.875 976.907 133.712L977.486 132.69C977.643 132.805 977.811 132.907 977.992 132.998C978.179 133.082 978.366 133.149 978.553 133.197C978.74 133.245 978.911 133.269 979.068 133.269C979.225 133.269 979.382 133.248 979.538 133.206C979.701 133.158 979.834 133.079 979.936 132.971C980.045 132.862 980.099 132.712 980.099 132.519C980.099 132.386 980.054 132.265 979.963 132.157C979.879 132.048 979.761 131.949 979.611 131.859C979.466 131.768 979.306 131.69 979.132 131.623C978.927 131.545 978.716 131.455 978.499 131.352C978.282 131.25 978.077 131.126 977.884 130.981C977.697 130.831 977.543 130.647 977.422 130.43C977.308 130.207 977.251 129.936 977.251 129.616C977.251 129.23 977.335 128.896 977.504 128.612C977.679 128.329 977.923 128.106 978.236 127.943C978.55 127.774 978.911 127.681 979.321 127.663C979.858 127.663 980.292 127.726 980.623 127.853C980.961 127.979 981.262 128.13 981.528 128.305L981.03 129.309ZM984.014 127.699H988.554V128.965H985.326V130.385H988.183V131.651H985.326V133.088H988.68V134.354H984.014V127.699ZM993.319 127.699C993.735 127.699 994.106 127.753 994.431 127.862C994.757 127.964 995.028 128.115 995.245 128.314C995.468 128.507 995.637 128.742 995.752 129.019C995.866 129.291 995.923 129.598 995.923 129.942C995.923 130.213 995.881 130.484 995.797 130.755C995.718 131.027 995.586 131.274 995.399 131.497C995.218 131.72 994.977 131.901 994.676 132.039C994.374 132.172 994 132.238 993.554 132.238H992.614V134.354H991.303V127.699H993.319ZM993.545 130.972C993.744 130.972 993.91 130.939 994.043 130.873C994.175 130.807 994.278 130.722 994.35 130.62C994.428 130.517 994.483 130.412 994.513 130.303C994.549 130.189 994.567 130.083 994.567 129.987C994.567 129.914 994.555 129.824 994.531 129.716C994.513 129.601 994.471 129.486 994.404 129.372C994.338 129.257 994.235 129.161 994.097 129.083C993.964 129.004 993.783 128.965 993.554 128.965H992.614V130.972H993.545ZM994.775 131.786L996.421 134.354H994.893L993.211 131.822L994.775 131.786ZM998.183 127.699H1002.67V128.965H1001.05V134.354H999.738V128.965H998.183V127.699ZM1009.41 127.699H1013.57V128.965H1010.72V130.475H1013.19V131.741H1010.72V134.354H1009.41V127.699ZM1017.27 131.895C1017.27 132.106 1017.33 132.308 1017.46 132.501C1017.59 132.693 1017.75 132.85 1017.96 132.971C1018.17 133.091 1018.4 133.152 1018.64 133.152C1018.91 133.152 1019.16 133.091 1019.37 132.971C1019.58 132.85 1019.74 132.693 1019.86 132.501C1019.99 132.308 1020.05 132.106 1020.05 131.895V127.699H1021.35V131.922C1021.35 132.41 1021.23 132.844 1020.99 133.224C1020.74 133.598 1020.42 133.893 1020.01 134.11C1019.6 134.321 1019.14 134.427 1018.64 134.427C1018.15 134.427 1017.7 134.321 1017.29 134.11C1016.88 133.893 1016.56 133.598 1016.32 133.224C1016.08 132.844 1015.96 132.41 1015.96 131.922V127.699H1017.27V131.895ZM1027.75 129.309C1027.49 129.17 1027.24 129.055 1026.97 128.965C1026.71 128.875 1026.47 128.829 1026.24 128.829C1025.95 128.829 1025.73 128.887 1025.57 129.001C1025.41 129.116 1025.32 129.288 1025.32 129.517C1025.32 129.673 1025.38 129.815 1025.51 129.942C1025.63 130.062 1025.79 130.171 1025.98 130.267C1026.18 130.364 1026.39 130.451 1026.6 130.529C1026.79 130.602 1026.98 130.689 1027.17 130.792C1027.36 130.888 1027.53 131.012 1027.68 131.162C1027.84 131.307 1027.96 131.491 1028.05 131.714C1028.14 131.931 1028.18 132.199 1028.18 132.519C1028.18 132.856 1028.09 133.17 1027.92 133.459C1027.74 133.748 1027.49 133.984 1027.15 134.164C1026.81 134.339 1026.4 134.427 1025.9 134.427C1025.65 134.427 1025.39 134.402 1025.13 134.354C1024.87 134.3 1024.61 134.222 1024.36 134.119C1024.1 134.011 1023.86 133.875 1023.62 133.712L1024.2 132.69C1024.36 132.805 1024.53 132.907 1024.71 132.998C1024.9 133.082 1025.08 133.149 1025.27 133.197C1025.46 133.245 1025.63 133.269 1025.79 133.269C1025.94 133.269 1026.1 133.248 1026.26 133.206C1026.42 133.158 1026.55 133.079 1026.65 132.971C1026.76 132.862 1026.82 132.712 1026.82 132.519C1026.82 132.386 1026.77 132.265 1026.68 132.157C1026.6 132.048 1026.48 131.949 1026.33 131.859C1026.18 131.768 1026.02 131.69 1025.85 131.623C1025.64 131.545 1025.43 131.455 1025.22 131.352C1025 131.25 1024.79 131.126 1024.6 130.981C1024.41 130.831 1024.26 130.647 1024.14 130.43C1024.03 130.207 1023.97 129.936 1023.97 129.616C1023.97 129.23 1024.05 128.896 1024.22 128.612C1024.4 128.329 1024.64 128.106 1024.95 127.943C1025.27 127.774 1025.63 127.681 1026.04 127.663C1026.58 127.663 1027.01 127.726 1027.34 127.853C1027.68 127.979 1027.98 128.13 1028.25 128.305L1027.75 129.309ZM1030.73 127.699H1032.04V134.354H1030.73V127.699ZM1034.62 131.036C1034.62 130.578 1034.71 130.144 1034.88 129.734C1035.06 129.324 1035.3 128.962 1035.61 128.649C1035.92 128.329 1036.28 128.079 1036.69 127.898C1037.1 127.717 1037.54 127.627 1038.01 127.627C1038.47 127.627 1038.91 127.717 1039.32 127.898C1039.73 128.079 1040.09 128.329 1040.41 128.649C1040.73 128.962 1040.97 129.324 1041.15 129.734C1041.33 130.144 1041.42 130.578 1041.42 131.036C1041.42 131.506 1041.33 131.946 1041.15 132.356C1040.97 132.766 1040.73 133.128 1040.41 133.441C1040.09 133.748 1039.73 133.99 1039.32 134.164C1038.91 134.339 1038.47 134.427 1038.01 134.427C1037.54 134.427 1037.1 134.339 1036.69 134.164C1036.28 133.99 1035.92 133.748 1035.61 133.441C1035.3 133.128 1035.06 132.766 1034.88 132.356C1034.71 131.946 1034.62 131.506 1034.62 131.036ZM1035.98 131.036C1035.98 131.331 1036.03 131.608 1036.13 131.868C1036.24 132.121 1036.39 132.347 1036.57 132.546C1036.77 132.739 1036.99 132.889 1037.23 132.998C1037.49 133.106 1037.76 133.161 1038.06 133.161C1038.34 133.161 1038.6 133.106 1038.84 132.998C1039.09 132.889 1039.3 132.739 1039.48 132.546C1039.67 132.347 1039.81 132.121 1039.91 131.868C1040.01 131.608 1040.06 131.331 1040.06 131.036C1040.06 130.734 1040.01 130.454 1039.9 130.195C1039.8 129.936 1039.65 129.709 1039.47 129.517C1039.29 129.318 1039.07 129.164 1038.82 129.055C1038.58 128.947 1038.31 128.893 1038.02 128.893C1037.73 128.893 1037.46 128.947 1037.21 129.055C1036.97 129.164 1036.75 129.318 1036.56 129.517C1036.38 129.709 1036.23 129.936 1036.13 130.195C1036.03 130.454 1035.98 130.734 1035.98 131.036ZM1049.95 134.626L1044.91 130.068L1045.29 130.285L1045.32 134.354H1043.99V127.437H1044.05L1048.98 131.976L1048.69 131.85L1048.67 127.699H1049.99V134.626H1049.95Z" fill="#D9E4D8"/>
<rect width="209.872" height="209.872" transform="translate(1122.13 0.309082)" fill="#973060"/>
<g clip-path="url(#clip5_74_549)">
<path d="M1170.29 75.1221V80.2762H1163.28V93.9879H1169.46V99.1421H1163.28V116.355H1158.13V75.1221H1170.29Z" fill="#F4B7B7"/>
<path d="M1180.75 84.403V111.615H1183.75V116.355H1172.19V111.615H1175.6V89.1427H1172.4V84.403H1180.75ZM1180.91 75.1221V80.5852H1175.24V75.1221H1180.91Z" fill="#F4B7B7"/>
<path d="M1195.86 74.6074C1197.36 74.6074 1198.5 75.1315 1199.28 76.1798C1200.06 77.228 1200.45 78.6622 1200.44 80.4824V92.132H1195.3V81.8338C1195.32 81.2987 1195.14 80.7752 1194.8 80.3644C1194.62 80.1683 1194.41 80.0133 1194.17 79.9107C1193.93 79.8082 1193.67 79.7606 1193.41 79.7716C1193.1 79.7565 1192.8 79.8079 1192.52 79.922C1192.24 80.0361 1191.99 80.2103 1191.78 80.4322C1191.35 80.9308 1191.13 81.577 1191.16 82.2356V116.355H1186.01V75.1223H1190.85L1190.44 78.9879H1191.06C1191.85 76.0676 1193.45 74.6074 1195.86 74.6074Z" fill="#F4B7B7"/>
<path d="M1210.9 74.6074C1213 74.6074 1214.73 75.2605 1216.09 76.5666C1217.44 77.8727 1218.12 79.6251 1218.12 81.8237V91.4111C1218.12 93.5059 1217.62 95.1804 1216.61 96.4346C1216.13 97.0439 1215.52 97.5316 1214.81 97.8584C1214.11 98.1853 1213.34 98.342 1212.57 98.316C1211.85 98.3553 1211.13 98.2361 1210.47 97.9668C1210 97.7438 1209.56 97.4665 1209.15 97.1405H1208.53L1208.84 99.3056V109.667C1208.83 109.943 1208.88 110.219 1208.98 110.478C1209.08 110.736 1209.23 110.972 1209.42 111.171C1209.61 111.37 1209.84 111.529 1210.1 111.637C1210.35 111.745 1210.63 111.801 1210.9 111.801C1211.18 111.801 1211.46 111.745 1211.71 111.637C1211.97 111.529 1212.2 111.37 1212.39 111.171C1212.58 110.972 1212.73 110.736 1212.83 110.478C1212.93 110.219 1212.98 109.943 1212.97 109.667V102.44H1218.12V109.657C1218.12 111.855 1217.44 113.608 1216.09 114.914C1214.73 116.22 1213 116.873 1210.9 116.873C1208.81 116.873 1207.08 116.22 1205.72 114.914C1204.37 113.608 1203.69 111.855 1203.69 109.657V81.8237C1203.69 79.6268 1204.37 77.8744 1205.72 76.5666C1207.08 75.2588 1208.81 74.6058 1210.9 74.6074ZM1210.9 79.7616C1210.63 79.7568 1210.36 79.8069 1210.11 79.9089C1209.86 80.0108 1209.63 80.1626 1209.44 80.3551C1209.24 80.5476 1209.09 80.7768 1208.99 81.0292C1208.89 81.2815 1208.84 81.5517 1208.84 81.8237V92.4409C1209.26 92.9232 1209.94 93.1618 1210.9 93.1618C1211.18 93.1669 1211.45 93.1171 1211.7 93.0153C1211.95 92.9134 1212.18 92.7617 1212.37 92.5692C1212.57 92.3767 1212.72 92.1473 1212.82 91.8948C1212.92 91.6423 1212.97 91.3719 1212.97 91.0997V81.8237C1212.97 81.5515 1212.92 81.2811 1212.82 81.0286C1212.72 80.7761 1212.57 80.5467 1212.37 80.3542C1212.18 80.1616 1211.95 80.0099 1211.7 79.9081C1211.45 79.8063 1211.18 79.7564 1210.9 79.7616Z" fill="#F4B7B7"/>
<path d="M1237.71 74.6074C1239.8 74.6074 1241.53 75.2605 1242.89 76.5666C1244.24 77.8727 1244.92 79.6251 1244.92 81.8237V89.04H1239.76V81.8237C1239.76 81.2768 1239.54 80.7523 1239.15 80.3656C1238.77 79.9788 1238.24 79.7616 1237.7 79.7616C1237.15 79.7616 1236.63 79.9788 1236.24 80.3656C1235.85 80.7523 1235.63 81.2768 1235.63 81.8237V82.8535C1235.63 83.6799 1235.65 84.451 1235.69 85.1744C1235.73 85.886 1235.83 86.5929 1235.99 87.2868C1236.15 87.9957 1236.39 88.6865 1236.69 89.349C1237.04 90.1125 1237.47 90.8379 1237.98 91.5141L1241.49 96.3065C1242.21 97.2779 1242.84 98.3033 1243.4 99.3734C1243.85 100.25 1244.2 101.178 1244.43 102.136C1244.66 103.1 1244.8 104.083 1244.84 105.073C1244.9 106.106 1244.92 107.291 1244.92 108.629V109.662C1244.92 111.86 1244.24 113.613 1242.89 114.919C1241.53 116.225 1239.8 116.878 1237.71 116.878C1235.61 116.878 1233.88 116.225 1232.53 114.919C1231.17 113.613 1230.49 111.86 1230.49 109.662V102.44H1235.64V109.657C1235.64 110.203 1235.86 110.728 1236.25 111.115C1236.64 111.501 1237.16 111.719 1237.71 111.719C1238.25 111.719 1238.78 111.501 1239.16 111.115C1239.55 110.728 1239.77 110.203 1239.77 109.657V108.624C1239.77 107.491 1239.75 106.52 1239.72 105.713C1239.69 104.941 1239.58 104.173 1239.41 103.42C1239.22 102.66 1238.94 101.925 1238.58 101.23C1238.1 100.335 1237.55 99.4816 1236.93 98.6777L1233.38 93.7822C1232.78 92.9483 1232.26 92.0593 1231.83 91.1273C1231.46 90.3056 1231.17 89.4512 1230.97 88.5753C1230.76 87.6873 1230.63 86.7818 1230.58 85.8702C1230.53 84.9257 1230.5 83.921 1230.5 82.8561V81.8262C1230.5 79.6293 1231.18 77.8769 1232.54 76.5691C1233.9 75.2613 1235.62 74.6074 1237.71 74.6074Z" fill="#F4B7B7"/>
<path d="M1255.54 75.1221C1257.64 75.1221 1259.36 75.7751 1260.72 77.0812C1262.08 78.3874 1262.76 80.1397 1262.75 82.3384V98.8331C1262.75 101.032 1262.08 102.784 1260.72 104.09C1259.36 105.396 1257.64 106.049 1255.54 106.047H1253.48V116.345H1248.32V75.1221H1255.54ZM1253.48 100.893H1255.54C1255.81 100.898 1256.08 100.848 1256.33 100.746C1256.59 100.644 1256.82 100.492 1257.01 100.3C1257.2 100.108 1257.35 99.8789 1257.45 99.6269C1257.55 99.3749 1257.6 99.1049 1257.6 98.8331V82.3384C1257.61 82.0664 1257.56 81.7961 1257.45 81.5438C1257.35 81.2915 1257.2 81.0622 1257.01 80.8697C1256.82 80.6772 1256.59 80.5255 1256.33 80.4235C1256.08 80.3215 1255.81 80.2714 1255.54 80.2762H1253.48V100.893Z" fill="#F4B7B7"/>
<path d="M1273.42 74.6074C1275.51 74.6074 1277.24 75.2605 1278.6 76.5666C1279.95 77.8727 1280.63 79.6251 1280.63 81.8237V109.657C1280.63 111.855 1279.95 113.608 1278.6 114.914C1277.24 116.22 1275.51 116.873 1273.42 116.873C1271.32 116.873 1269.59 116.22 1268.24 114.914C1266.88 113.608 1266.2 111.855 1266.2 109.657V81.8237C1266.2 79.6268 1266.88 77.8744 1268.24 76.5666C1269.6 75.2588 1271.32 74.6058 1273.42 74.6074ZM1273.42 79.7616C1273.14 79.7564 1272.87 79.8063 1272.62 79.9081C1272.37 80.0099 1272.14 80.1616 1271.95 80.3542C1271.75 80.5467 1271.6 80.7761 1271.5 81.0286C1271.4 81.2811 1271.35 81.5515 1271.35 81.8237V109.657C1271.35 110.203 1271.57 110.728 1271.96 111.115C1272.35 111.501 1272.87 111.719 1273.42 111.719C1273.96 111.719 1274.49 111.501 1274.87 111.115C1275.26 110.728 1275.48 110.203 1275.48 109.657V81.8237C1275.48 81.5515 1275.43 81.2811 1275.33 81.0286C1275.23 80.7761 1275.08 80.5467 1274.89 80.3542C1274.69 80.1616 1274.46 80.0099 1274.21 79.9081C1273.96 79.8063 1273.69 79.7564 1273.42 79.7616Z" fill="#F4B7B7"/>
<path d="M1290.53 75.1221V84.403H1295.79V89.1427H1290.53V109.81C1290.52 110.179 1290.65 110.54 1290.9 110.814C1291.05 110.954 1291.23 111.061 1291.42 111.128C1291.62 111.194 1291.82 111.219 1292.03 111.201H1296.21V116.355H1290.02C1288.64 116.355 1287.53 115.937 1286.67 115.099C1286.24 114.681 1285.91 114.178 1285.69 113.623C1285.46 113.068 1285.36 112.474 1285.38 111.877V89.1427H1282.8V84.403H1285.38V75.1221H1290.53Z" fill="#F4B7B7"/>
</g>
<path d="M1179.83 134.354V127.699H1181.82C1182.49 127.699 1183.06 127.799 1183.53 127.997C1184 128.196 1184.38 128.462 1184.66 128.793C1184.95 129.125 1185.16 129.495 1185.3 129.905C1185.43 130.315 1185.49 130.728 1185.49 131.144C1185.49 131.639 1185.4 132.085 1185.22 132.482C1185.05 132.874 1184.81 133.212 1184.5 133.495C1184.19 133.773 1183.84 133.987 1183.43 134.137C1183.03 134.282 1182.6 134.354 1182.15 134.354H1179.83ZM1181.14 133.088H1181.92C1182.25 133.088 1182.56 133.046 1182.83 132.962C1183.1 132.871 1183.33 132.742 1183.52 132.573C1183.72 132.404 1183.87 132.193 1183.98 131.94C1184.08 131.681 1184.14 131.385 1184.14 131.054C1184.14 130.62 1184.07 130.267 1183.92 129.996C1183.78 129.719 1183.61 129.505 1183.4 129.354C1183.19 129.203 1182.98 129.101 1182.76 129.046C1182.55 128.986 1182.36 128.956 1182.21 128.956H1181.14V133.088ZM1188.08 127.699H1192.61V128.965H1189.39V130.385H1192.24V131.651H1189.39V133.088H1192.74V134.354H1188.08V127.699ZM1198.92 129.309C1198.66 129.17 1198.41 129.055 1198.14 128.965C1197.88 128.875 1197.64 128.829 1197.41 128.829C1197.12 128.829 1196.9 128.887 1196.74 129.001C1196.58 129.116 1196.49 129.288 1196.49 129.517C1196.49 129.673 1196.55 129.815 1196.68 129.942C1196.8 130.062 1196.96 130.171 1197.15 130.267C1197.35 130.364 1197.56 130.451 1197.77 130.529C1197.96 130.602 1198.15 130.689 1198.34 130.792C1198.53 130.888 1198.7 131.012 1198.85 131.162C1199 131.307 1199.13 131.491 1199.22 131.714C1199.31 131.931 1199.35 132.199 1199.35 132.519C1199.35 132.856 1199.26 133.17 1199.09 133.459C1198.91 133.748 1198.66 133.984 1198.32 134.164C1197.98 134.339 1197.57 134.427 1197.07 134.427C1196.82 134.427 1196.56 134.402 1196.3 134.354C1196.04 134.3 1195.78 134.222 1195.53 134.119C1195.27 134.011 1195.03 133.875 1194.79 133.712L1195.37 132.69C1195.53 132.805 1195.7 132.907 1195.88 132.998C1196.07 133.082 1196.25 133.149 1196.44 133.197C1196.63 133.245 1196.8 133.269 1196.96 133.269C1197.11 133.269 1197.27 133.248 1197.43 133.206C1197.59 133.158 1197.72 133.079 1197.82 132.971C1197.93 132.862 1197.99 132.712 1197.99 132.519C1197.99 132.386 1197.94 132.265 1197.85 132.157C1197.77 132.048 1197.65 131.949 1197.5 131.859C1197.35 131.768 1197.19 131.69 1197.02 131.623C1196.81 131.545 1196.6 131.455 1196.39 131.352C1196.17 131.25 1195.96 131.126 1195.77 130.981C1195.58 130.831 1195.43 130.647 1195.31 130.43C1195.2 130.207 1195.14 129.936 1195.14 129.616C1195.14 129.23 1195.22 128.896 1195.39 128.612C1195.57 128.329 1195.81 128.106 1196.12 127.943C1196.44 127.774 1196.8 127.681 1197.21 127.663C1197.75 127.663 1198.18 127.726 1198.51 127.853C1198.85 127.979 1199.15 128.13 1199.41 128.305L1198.92 129.309ZM1205.46 129.309C1205.2 129.17 1204.94 129.055 1204.68 128.965C1204.42 128.875 1204.17 128.829 1203.95 128.829C1203.66 128.829 1203.44 128.887 1203.28 129.001C1203.11 129.116 1203.03 129.288 1203.03 129.517C1203.03 129.673 1203.09 129.815 1203.21 129.942C1203.34 130.062 1203.5 130.171 1203.69 130.267C1203.89 130.364 1204.1 130.451 1204.31 130.529C1204.5 130.602 1204.69 130.689 1204.88 130.792C1205.07 130.888 1205.24 131.012 1205.39 131.162C1205.54 131.307 1205.66 131.491 1205.75 131.714C1205.84 131.931 1205.89 132.199 1205.89 132.519C1205.89 132.856 1205.8 133.17 1205.63 133.459C1205.45 133.748 1205.2 133.984 1204.86 134.164C1204.52 134.339 1204.1 134.427 1203.61 134.427C1203.36 134.427 1203.1 134.402 1202.83 134.354C1202.57 134.3 1202.32 134.222 1202.06 134.119C1201.81 134.011 1201.57 133.875 1201.33 133.712L1201.91 132.69C1202.07 132.805 1202.24 132.907 1202.42 132.998C1202.6 133.082 1202.79 133.149 1202.98 133.197C1203.16 133.245 1203.34 133.269 1203.49 133.269C1203.65 133.269 1203.81 133.248 1203.96 133.206C1204.13 133.158 1204.26 133.079 1204.36 132.971C1204.47 132.862 1204.52 132.712 1204.52 132.519C1204.52 132.386 1204.48 132.265 1204.39 132.157C1204.3 132.048 1204.19 131.949 1204.04 131.859C1203.89 131.768 1203.73 131.69 1203.56 131.623C1203.35 131.545 1203.14 131.455 1202.92 131.352C1202.71 131.25 1202.5 131.126 1202.31 130.981C1202.12 130.831 1201.97 130.647 1201.85 130.43C1201.73 130.207 1201.68 129.936 1201.68 129.616C1201.68 129.23 1201.76 128.896 1201.93 128.612C1202.1 128.329 1202.35 128.106 1202.66 127.943C1202.97 127.774 1203.34 127.681 1203.75 127.663C1204.28 127.663 1204.72 127.726 1205.05 127.853C1205.39 127.979 1205.69 128.13 1205.95 128.305L1205.46 129.309ZM1208.44 127.699H1212.98V128.965H1209.75V130.385H1212.61V131.651H1209.75V133.088H1213.11V134.354H1208.44V127.699ZM1217.74 127.699C1218.16 127.699 1218.53 127.753 1218.86 127.862C1219.18 127.964 1219.45 128.115 1219.67 128.314C1219.89 128.507 1220.06 128.742 1220.18 129.019C1220.29 129.291 1220.35 129.598 1220.35 129.942C1220.35 130.213 1220.31 130.484 1220.22 130.755C1220.14 131.027 1220.01 131.274 1219.82 131.497C1219.64 131.72 1219.4 131.901 1219.1 132.039C1218.8 132.172 1218.43 132.238 1217.98 132.238H1217.04V134.354H1215.73V127.699H1217.74ZM1217.97 130.972C1218.17 130.972 1218.33 130.939 1218.47 130.873C1218.6 130.807 1218.7 130.722 1218.77 130.62C1218.85 130.517 1218.91 130.412 1218.94 130.303C1218.97 130.189 1218.99 130.083 1218.99 129.987C1218.99 129.914 1218.98 129.824 1218.96 129.716C1218.94 129.601 1218.9 129.486 1218.83 129.372C1218.76 129.257 1218.66 129.161 1218.52 129.083C1218.39 129.004 1218.21 128.965 1217.98 128.965H1217.04V130.972H1217.97ZM1219.2 131.786L1220.85 134.354H1219.32L1217.64 131.822L1219.2 131.786ZM1222.61 127.699H1227.09V128.965H1225.47V134.354H1224.16V128.965H1222.61V127.699ZM1233.83 127.699H1237.99V128.965H1235.14V130.475H1237.61V131.741H1235.14V134.354H1233.83V127.699ZM1241.69 131.895C1241.69 132.106 1241.76 132.308 1241.88 132.501C1242.01 132.693 1242.18 132.85 1242.38 132.971C1242.59 133.091 1242.82 133.152 1243.07 133.152C1243.34 133.152 1243.58 133.091 1243.79 132.971C1244 132.85 1244.17 132.693 1244.29 132.501C1244.42 132.308 1244.48 132.106 1244.48 131.895V127.699H1245.77V131.922C1245.77 132.41 1245.65 132.844 1245.41 133.224C1245.17 133.598 1244.84 133.893 1244.43 134.11C1244.02 134.321 1243.57 134.427 1243.07 134.427C1242.57 134.427 1242.12 134.321 1241.71 134.11C1241.31 133.893 1240.99 133.598 1240.74 133.224C1240.5 132.844 1240.38 132.41 1240.38 131.922V127.699H1241.69V131.895ZM1252.17 129.309C1251.92 129.17 1251.66 129.055 1251.4 128.965C1251.14 128.875 1250.89 128.829 1250.66 128.829C1250.38 128.829 1250.16 128.887 1249.99 129.001C1249.83 129.116 1249.75 129.288 1249.75 129.517C1249.75 129.673 1249.81 129.815 1249.93 129.942C1250.06 130.062 1250.22 130.171 1250.41 130.267C1250.61 130.364 1250.81 130.451 1251.02 130.529C1251.22 130.602 1251.41 130.689 1251.59 130.792C1251.79 130.888 1251.96 131.012 1252.11 131.162C1252.26 131.307 1252.38 131.491 1252.47 131.714C1252.56 131.931 1252.61 132.199 1252.61 132.519C1252.61 132.856 1252.52 133.17 1252.34 133.459C1252.17 133.748 1251.91 133.984 1251.58 134.164C1251.24 134.339 1250.82 134.427 1250.33 134.427C1250.07 134.427 1249.82 134.402 1249.55 134.354C1249.29 134.3 1249.04 134.222 1248.78 134.119C1248.53 134.011 1248.28 133.875 1248.05 133.712L1248.63 132.69C1248.78 132.805 1248.95 132.907 1249.13 132.998C1249.32 133.082 1249.51 133.149 1249.7 133.197C1249.88 133.245 1250.05 133.269 1250.21 133.269C1250.37 133.269 1250.52 133.248 1250.68 133.206C1250.84 133.158 1250.98 133.079 1251.08 132.971C1251.19 132.862 1251.24 132.712 1251.24 132.519C1251.24 132.386 1251.2 132.265 1251.11 132.157C1251.02 132.048 1250.9 131.949 1250.75 131.859C1250.61 131.768 1250.45 131.69 1250.27 131.623C1250.07 131.545 1249.86 131.455 1249.64 131.352C1249.42 131.25 1249.22 131.126 1249.03 130.981C1248.84 130.831 1248.69 130.647 1248.56 130.43C1248.45 130.207 1248.39 129.936 1248.39 129.616C1248.39 129.23 1248.48 128.896 1248.65 128.612C1248.82 128.329 1249.07 128.106 1249.38 127.943C1249.69 127.774 1250.05 127.681 1250.46 127.663C1251 127.663 1251.43 127.726 1251.77 127.853C1252.1 127.979 1252.4 128.13 1252.67 128.305L1252.17 129.309ZM1255.16 127.699H1256.47V134.354H1255.16V127.699ZM1259.04 131.036C1259.04 130.578 1259.13 130.144 1259.31 129.734C1259.48 129.324 1259.72 128.962 1260.03 128.649C1260.34 128.329 1260.71 128.079 1261.12 127.898C1261.53 127.717 1261.97 127.627 1262.44 127.627C1262.9 127.627 1263.34 127.717 1263.75 127.898C1264.16 128.079 1264.52 128.329 1264.83 128.649C1265.15 128.962 1265.4 129.324 1265.57 129.734C1265.75 130.144 1265.84 130.578 1265.84 131.036C1265.84 131.506 1265.75 131.946 1265.57 132.356C1265.4 132.766 1265.15 133.128 1264.83 133.441C1264.52 133.748 1264.16 133.99 1263.75 134.164C1263.34 134.339 1262.9 134.427 1262.44 134.427C1261.97 134.427 1261.53 134.339 1261.12 134.164C1260.71 133.99 1260.34 133.748 1260.03 133.441C1259.72 133.128 1259.48 132.766 1259.31 132.356C1259.13 131.946 1259.04 131.506 1259.04 131.036ZM1260.4 131.036C1260.4 131.331 1260.45 131.608 1260.55 131.868C1260.66 132.121 1260.81 132.347 1261 132.546C1261.19 132.739 1261.41 132.889 1261.66 132.998C1261.91 133.106 1262.19 133.161 1262.48 133.161C1262.76 133.161 1263.03 133.106 1263.27 132.998C1263.51 132.889 1263.73 132.739 1263.91 132.546C1264.09 132.347 1264.23 132.121 1264.33 131.868C1264.44 131.608 1264.49 131.331 1264.49 131.036C1264.49 130.734 1264.43 130.454 1264.33 130.195C1264.22 129.936 1264.08 129.709 1263.89 129.517C1263.71 129.318 1263.5 129.164 1263.25 129.055C1263 128.947 1262.73 128.893 1262.44 128.893C1262.16 128.893 1261.89 128.947 1261.64 129.055C1261.39 129.164 1261.18 129.318 1260.99 129.517C1260.8 129.709 1260.66 129.936 1260.55 130.195C1260.45 130.454 1260.4 130.734 1260.4 131.036ZM1274.38 134.626L1269.33 130.068L1269.72 130.285L1269.75 134.354H1268.42V127.437H1268.47L1273.41 131.976L1273.12 131.85L1273.09 127.699H1274.41V134.626H1274.38Z" fill="#F4B7B7"/>
<defs>
<clipPath id="clip0_74_549">
<rect width="138.079" height="42.2654" fill="white" transform="translate(36 74.6067)"/>
</clipPath>
<clipPath id="clip1_74_549">
<rect width="138.079" height="42.2654" fill="white" transform="translate(260.426 74.6067)"/>
</clipPath>
<clipPath id="clip2_74_549">
<rect width="138.079" height="42.2654" fill="white" transform="translate(484.851 74.6067)"/>
</clipPath>
<clipPath id="clip3_74_549">
<rect width="138.079" height="42.2654" fill="white" transform="translate(709.275 74.6069)"/>
</clipPath>
<clipPath id="clip4_74_549">
<rect width="138.079" height="42.2654" fill="white" transform="translate(933.702 74.6069)"/>
</clipPath>
<clipPath id="clip5_74_549">
<rect width="138.079" height="42.2654" fill="white" transform="translate(1158.13 74.6069)"/>
</clipPath>
</defs>
</svg>
