<svg width="1332" height="667" viewBox="0 0 1332 667" fill="none" xmlns="http://www.w3.org/2000/svg">
<rect width="646" height="667" fill="#DAE5E5"/>
<g opacity="0.9841">
<path d="M262.21 336.864C323.612 336.864 373.388 286.526 373.388 224.432C373.388 162.337 323.612 112 262.21 112C200.807 112 151.031 162.337 151.031 224.432C151.031 286.526 200.807 336.864 262.21 336.864Z" fill="#F6944E"/>
<path d="M219.869 131.546C215.766 133.313 211.834 135.535 208.073 137.985C204.825 140.151 201.235 142.487 199.526 146.134C199.127 147.046 198.671 148.072 198.557 149.041C197.93 152.175 198.443 155.537 199.982 158.329C200.209 158.728 200.494 159.184 200.779 159.526C200.722 159.583 202.204 161.178 202.204 161.178L223.801 183.004L253.491 213.035C254.972 214.517 257.366 213.092 256.853 211.097L245.969 170.068L238.048 140.265C237.193 137.131 235.255 134.395 232.634 132.572C230.013 130.805 226.879 130.007 223.744 130.349C222.377 130.577 221.123 131.033 219.869 131.546Z" fill="#F0502C"/>
<path d="M354.013 181.636C352.246 177.476 350.081 173.487 347.687 169.726C345.579 166.421 343.242 162.774 339.595 161.064C338.74 160.665 337.715 160.209 336.746 160.095C333.612 159.469 330.307 159.982 327.514 161.577C327.115 161.805 326.717 162.09 326.318 162.375C326.261 162.318 324.665 163.799 324.665 163.799L303.068 185.625L273.378 215.656C271.897 217.138 273.321 219.588 275.316 219.075L315.889 208.077L345.351 200.099C348.428 199.244 351.163 197.307 352.93 194.629C354.696 192.007 355.437 188.759 355.095 185.625C354.981 184.143 354.582 182.89 354.013 181.636Z" fill="#F0502C"/>
<path d="M304.549 317.261C308.652 315.494 312.584 313.272 316.345 310.822C319.593 308.656 323.184 306.32 324.893 302.673C325.292 301.761 325.748 300.735 325.862 299.766C326.489 296.632 325.976 293.27 324.437 290.478C324.209 290.079 323.924 289.623 323.639 289.281C323.696 289.224 322.215 287.629 322.215 287.629L300.617 265.803L270.928 235.772C269.446 234.29 267.053 235.715 267.566 237.709L278.45 278.739L286.371 308.542C287.226 311.676 289.163 314.412 291.785 316.235C294.406 318.002 297.54 318.799 300.674 318.458C302.042 318.23 303.296 317.774 304.549 317.261Z" fill="#F0502C"/>
<path d="M170.349 267.228C172.116 271.388 174.281 275.377 176.674 279.138C178.783 282.443 181.119 286.09 184.766 287.8C185.621 288.198 186.647 288.654 187.616 288.768C190.75 289.395 194.055 288.882 196.847 287.287C197.246 287.059 197.645 286.774 198.044 286.489C198.101 286.546 199.696 285.064 199.696 285.064L221.294 263.239L250.983 233.208C252.465 231.726 251.04 229.276 249.046 229.788L208.472 240.787L179.011 248.765C175.934 249.619 173.198 251.557 171.432 254.235C169.665 256.856 168.924 260.105 169.266 263.239C169.38 264.663 169.836 265.974 170.349 267.228Z" fill="#F0502C"/>
<path d="M179.638 165.452C176.96 169.042 174.623 172.974 172.629 176.963C170.862 180.496 168.925 184.314 169.267 188.36C169.381 189.329 169.495 190.412 169.893 191.323C170.919 194.401 173.028 197.022 175.763 198.675C176.162 198.903 176.618 199.13 177.017 199.358C177.017 199.415 179.068 200.099 179.068 200.099L208.529 208.077L249.103 219.075C251.097 219.588 252.522 217.138 251.04 215.656L221.351 185.625L199.754 163.8C197.474 161.52 194.454 160.096 191.263 159.868C188.129 159.64 184.995 160.551 182.487 162.432C181.291 163.287 180.436 164.312 179.638 165.452Z" fill="#F0502C"/>
<path d="M320.562 140.949C317.029 138.27 313.154 135.877 309.165 133.825C305.689 132.059 301.928 130.064 297.882 130.406C296.914 130.52 295.831 130.634 294.919 131.033C291.899 132.059 289.277 134.167 287.682 136.96C287.454 137.358 287.226 137.814 286.998 138.27C286.941 138.27 286.257 140.322 286.257 140.322L278.336 170.125L267.452 211.154C266.939 213.149 269.333 214.573 270.814 213.092L300.504 183.061L322.101 161.235C324.38 158.956 325.748 155.879 325.976 152.631C326.204 149.496 325.292 146.305 323.412 143.741C322.671 142.658 321.645 141.746 320.562 140.949Z" fill="#F0502C"/>
<path d="M344.781 283.412C347.459 279.822 349.796 275.89 351.79 271.901C353.557 268.368 355.494 264.55 355.152 260.504C355.038 259.535 354.924 258.452 354.525 257.54C353.5 254.463 351.391 251.842 348.656 250.189C348.257 249.961 347.801 249.733 347.402 249.505C347.402 249.448 345.351 248.765 345.351 248.765L315.889 240.787L275.316 229.788C273.321 229.276 271.897 231.726 273.378 233.208L303.068 263.239L324.665 285.064C326.945 287.344 329.965 288.768 333.156 288.996C336.29 289.224 339.424 288.312 341.932 286.432C343.071 285.52 343.983 284.494 344.781 283.412Z" fill="#F0502C"/>
<path d="M203.856 307.915C207.389 310.594 211.264 312.987 215.253 315.038C218.729 316.805 222.49 318.799 226.536 318.458C227.505 318.344 228.588 318.23 229.5 317.831C232.52 316.805 235.141 314.697 236.737 311.904C236.965 311.505 237.193 311.049 237.42 310.594C237.477 310.594 238.161 308.542 238.161 308.542L246.082 278.739L256.966 237.709C257.479 235.715 255.086 234.29 253.604 235.772L223.915 265.803L202.318 287.629C200.038 289.908 198.671 292.985 198.443 296.233C198.215 299.367 199.126 302.559 201.007 305.123C201.748 306.206 202.773 307.06 203.856 307.915Z" fill="#F0502C"/>
<path d="M271.441 122.656C266.996 122.086 262.494 122.029 258.049 122.257C254.174 122.485 249.9 122.656 246.595 124.993C245.797 125.563 244.943 126.246 244.316 127.044C242.207 129.438 241.011 132.629 240.954 135.82C240.954 136.276 240.954 136.789 241.011 137.245C240.954 137.301 241.41 139.41 241.41 139.41L249.33 169.213L260.215 210.243C260.728 212.237 263.577 212.237 264.09 210.243L274.974 169.213L282.895 139.41C283.75 136.276 283.408 132.914 281.983 130.007C280.615 127.158 278.222 124.879 275.373 123.625C274.119 123.055 272.808 122.827 271.441 122.656Z" fill="#F0502C"/>
<path d="M362.903 233.777C363.415 229.333 363.529 224.774 363.301 220.272C363.073 216.34 362.903 212.009 360.566 208.704C359.996 207.906 359.312 206.994 358.572 206.425C356.178 204.316 353.044 203.062 349.853 203.062C349.397 203.062 348.884 203.062 348.428 203.119C348.371 203.062 346.32 203.518 346.32 203.518L316.858 211.496L276.285 222.494C274.29 223.007 274.29 225.856 276.285 226.426L316.858 237.425L346.32 245.402C349.397 246.257 352.759 245.915 355.608 244.491C358.401 243.123 360.68 240.73 361.934 237.823C362.447 236.456 362.732 235.145 362.903 233.777Z" fill="#F0502C"/>
<path d="M252.921 326.208C257.366 326.777 261.867 326.834 266.312 326.606C270.187 326.379 274.461 326.208 277.766 323.871C278.564 323.301 279.419 322.618 280.046 321.82C282.154 319.426 283.351 316.235 283.408 313.044C283.408 312.588 283.408 312.075 283.351 311.619C283.408 311.562 282.952 309.454 282.952 309.454L275.031 279.651L264.147 238.621C263.634 236.627 260.785 236.627 260.272 238.621L249.388 279.651L241.467 309.454C240.612 312.588 240.954 315.95 242.378 318.857C243.746 321.706 246.139 323.985 248.989 325.239C250.299 325.752 251.61 326.037 252.921 326.208Z" fill="#F0502C"/>
<path d="M161.516 215.086C161.003 219.531 160.889 224.09 161.117 228.592C161.345 232.524 161.516 236.855 163.853 240.16C164.422 240.958 165.106 241.869 165.847 242.439C168.24 244.548 171.375 245.801 174.566 245.801C175.022 245.801 175.535 245.801 175.99 245.744C176.047 245.801 178.099 245.345 178.099 245.345L207.56 237.368L248.134 226.369C250.128 225.856 250.128 223.007 248.134 222.437L207.56 211.439L178.099 203.461C175.022 202.607 171.66 202.948 168.81 204.373C166.018 205.741 163.739 208.134 162.485 211.04C161.972 212.351 161.687 213.719 161.516 215.086Z" fill="#F0502C"/>
</g>
<g clip-path="url(#clip0_75_2351)">
<path d="M549.086 348.18C546.646 357.972 528.312 361.367 523.652 369.797C518.822 378.561 525.638 395.832 518.874 402.841C512.111 409.85 494.426 403.749 486.032 408.812C477.637 413.875 474.881 432.315 465.393 435.057C455.904 437.799 443.872 423.636 433.96 423.813C424.326 423.982 412.723 438.59 402.944 436.143C393.165 433.695 389.773 415.35 381.335 410.678C372.573 405.837 355.292 412.606 348.296 405.835C341.3 399.063 347.435 381.376 342.38 372.95C337.324 364.525 318.897 361.76 316.147 352.259C313.398 342.758 327.599 330.747 327.415 320.821C327.277 311.195 312.658 299.59 315.098 289.798C317.538 280.006 335.883 276.613 340.531 268.18C345.362 259.416 338.546 242.145 345.307 235.147C352.068 228.148 369.758 234.229 378.163 229.168C386.568 224.108 389.314 205.664 398.778 202.884C408.243 200.103 420.296 214.315 430.211 214.127C439.855 214.005 451.458 199.397 461.25 201.837C471.042 204.277 474.411 222.627 482.839 227.297C491.598 232.148 508.882 225.369 515.873 232.205C522.863 239.042 516.739 256.643 521.794 265.024C526.849 273.406 545.287 276.217 548.013 285.723C550.739 295.23 536.571 307.239 536.746 317.161C536.905 326.792 551.52 338.409 549.086 348.18Z" fill="#32439A"/>
<path d="M406.496 344.857C407.148 345.301 407.661 345.92 407.978 346.642C408.295 347.364 408.402 348.161 408.287 348.941C408.173 349.721 407.841 350.453 407.33 351.053C406.819 351.654 406.149 352.098 405.397 352.336C403.152 353.021 400.983 353.936 398.924 355.065C398.537 355.288 398.223 355.621 398.024 356.021C397.825 356.422 397.749 356.873 397.805 357.316C397.862 357.76 398.048 358.177 398.341 358.516C398.634 358.854 399.02 359.098 399.452 359.217L442.04 369.829C442.483 369.937 442.949 369.909 443.376 369.748C443.804 369.587 444.172 369.301 444.434 368.927C444.696 368.553 444.839 368.108 444.844 367.652C444.85 367.195 444.717 366.748 444.464 366.368C443.186 364.418 441.712 362.603 440.065 360.952C439.516 360.389 439.136 359.683 438.968 358.914C438.8 358.146 438.85 357.346 439.113 356.605C439.376 355.863 439.842 355.21 440.457 354.72C441.072 354.23 441.812 353.921 442.593 353.83C450.665 352.915 458.422 350.175 465.278 345.818C472.134 341.46 477.909 335.6 482.164 328.68C482.66 327.876 482.96 326.966 483.039 326.024C483.118 325.083 482.973 324.136 482.617 323.26C482.262 322.385 481.704 321.606 480.99 320.987C480.277 320.367 479.427 319.925 478.51 319.696L390.779 297.835C389.862 297.608 388.904 297.6 387.983 297.812C387.062 298.024 386.204 298.45 385.478 299.055C384.752 299.661 384.179 300.429 383.806 301.297C383.432 302.165 383.268 303.109 383.327 304.052C383.837 312.166 386.189 320.058 390.203 327.128C394.218 334.198 399.79 340.261 406.496 344.857Z" fill="#F2F2F4"/>
<path d="M428.412 307.223L469.884 317.557C472.211 308.22 470.733 298.341 465.776 290.094C460.819 281.847 452.788 275.906 443.451 273.58C434.114 271.253 424.235 272.731 415.988 277.688C407.741 282.645 401.8 290.675 399.474 300.012L410.507 302.762C412.188 303.183 413.673 304.173 414.709 305.563C415.745 306.954 416.269 308.659 416.192 310.392L416.177 310.454C416.037 312.547 415.716 314.624 415.217 316.661C414.737 318.701 414.07 320.693 413.225 322.611C412.415 324.513 411.352 326.297 410.065 327.915C409.59 328.441 409.253 329.076 409.083 329.764C408.823 330.809 408.988 331.915 409.543 332.838C410.099 333.762 410.998 334.427 412.043 334.688C413.089 334.948 414.195 334.783 415.118 334.228C416.041 333.673 416.707 332.773 416.967 331.728C417.14 331.041 417.14 330.322 416.968 329.635C416.585 327.603 416.484 325.528 416.666 323.468C416.814 321.377 417.16 319.305 417.699 317.279C418.209 315.245 418.9 313.26 419.764 311.348L419.779 311.285C420.527 309.715 421.795 308.452 423.369 307.711C424.943 306.97 426.725 306.798 428.412 307.223Z" fill="#F05B3F"/>
</g>
<path d="M327.576 543.469C391.386 512.047 417.586 434.733 386.095 370.785C354.605 306.837 277.348 280.47 213.538 311.892C149.728 343.315 123.528 420.628 155.019 484.576C186.509 548.524 263.766 574.892 327.576 543.469Z" fill="#7ECAB1"/>
<path d="M385.144 404.981C387.042 414.552 372.374 425.134 371.812 434.482C371.168 444.131 384.269 456.453 381.22 465.441C378.199 474.566 360.209 476.287 354.839 484.315C349.578 492.179 354.716 509.491 347.599 515.876C340.454 522.125 324.065 514.718 315.393 518.995C306.967 523.082 302.92 540.653 293.213 542.578C283.642 544.476 273.06 529.807 263.685 529.109C254.036 528.465 241.578 541.593 232.726 538.517C223.737 535.469 221.853 517.369 213.989 512.108C206.124 506.847 188.813 511.986 182.4 504.732C176.152 497.587 183.559 481.198 179.281 472.525C175.194 464.1 157.624 460.053 155.699 450.346C153.801 440.775 168.469 430.193 169.031 420.845C169.675 411.196 156.574 398.874 159.623 389.886C162.644 380.76 180.634 379.04 186.004 371.012C191.265 363.148 186.127 345.836 193.244 339.451C200.389 333.202 216.778 340.609 225.451 336.331C233.876 332.245 237.923 314.674 247.63 312.749C257.201 310.851 267.783 325.52 277.158 326.218C286.807 326.862 299.266 313.734 308.117 316.81C317.106 319.858 318.99 337.958 326.855 343.219C334.719 348.48 352.03 343.341 358.443 350.595C364.691 357.74 357.284 374.129 361.562 382.802C365.649 391.227 383.246 395.411 385.144 404.981Z" fill="#059A92"/>
<path d="M225.573 430.803L205.867 428.886L206.45 423.228C206.644 421.342 207.166 419.676 207.879 418.255C208.62 416.972 209.551 415.934 210.536 415.171C211.521 414.407 212.697 413.889 213.928 413.645C215.158 413.401 216.416 413.294 217.564 413.35C219.013 413.489 220.379 413.929 221.498 414.559C222.618 415.19 223.492 416.011 224.255 416.997C225.019 417.982 225.537 419.158 225.918 420.362C226.298 421.565 226.269 422.85 226.239 424.134L225.573 430.803ZM222.763 427.382L223.068 424.621C223.151 423.61 223.098 422.626 222.908 421.669C222.719 420.712 222.283 419.946 221.874 419.316C221.301 418.577 220.782 418.112 219.963 417.564C219.171 417.153 218.269 416.905 217.094 416.712C215.919 416.519 214.825 416.736 213.895 417.062C212.965 417.389 212.199 417.825 211.624 418.507C211.022 419.053 210.583 419.708 210.172 420.5C209.761 421.292 209.623 422.03 209.622 422.741L209.288 426.075L222.763 427.382Z" fill="#D9E4D8"/>
<path d="M212.749 399.101L219.628 387.932L222.222 389.549L216.933 397.987L221.466 400.782L226.098 393.327L228.692 394.944L224.061 402.399L228.594 405.195L234.102 396.429L236.697 398.046L229.598 409.543L212.749 399.101Z" fill="#D9E4D8"/>
<path d="M240.287 375.308C239.466 375.471 238.646 375.634 237.826 375.796C237.032 376.096 236.376 376.368 235.746 376.777C235.007 377.35 234.405 377.896 234.267 378.634C234.129 379.371 234.101 379.945 234.647 380.548C235.029 381.04 235.357 381.26 235.958 381.425C236.559 381.589 237.106 381.481 237.816 381.482C238.5 381.347 239.184 381.211 239.867 381.075C240.551 380.94 241.098 380.831 241.781 380.696C242.465 380.56 243.039 380.588 243.777 380.726C244.351 380.755 244.979 381.056 245.607 381.358C246.263 381.796 246.781 382.262 247.354 383.001C247.954 383.877 248.281 384.807 248.334 385.791C248.387 386.775 248.166 387.813 247.646 388.769C247.125 389.725 246.303 390.599 245.181 391.389C244.552 391.798 243.786 392.235 242.992 392.534C242.199 392.833 241.543 393.106 240.722 393.268C239.902 393.431 239.191 393.43 238.481 393.429L238.212 390.64C238.786 390.668 239.333 390.56 239.907 390.588C240.481 390.617 241.137 390.344 241.657 390.099C242.177 389.854 242.696 389.609 243.216 389.363C243.709 388.982 244.065 388.627 244.394 388.135C244.722 387.644 244.915 387.179 245.08 386.578C245.244 385.977 244.999 385.457 244.59 384.828C244.208 384.335 243.881 384.116 243.416 383.924C242.952 383.732 242.378 383.704 241.831 383.812C241.284 383.921 240.573 383.919 240.054 384.165C239.37 384.3 238.823 384.409 238.003 384.571C237.319 384.707 236.608 384.706 235.898 384.705C235.187 384.704 234.586 384.539 233.958 384.237C233.329 383.935 232.784 383.333 232.238 382.731C231.638 381.855 231.311 380.925 231.258 379.941C231.205 378.957 231.453 378.055 231.837 377.126C232.358 376.17 233.07 375.461 233.918 374.724C235.04 373.933 236.08 373.443 237.146 373.089C238.076 372.763 239.061 372.709 240.018 372.52L240.287 375.308Z" fill="#D9E4D8"/>
<path d="M262.112 367.853C261.347 367.579 260.473 367.468 259.762 367.467C258.887 367.356 258.177 367.355 257.52 367.627C256.563 367.817 255.934 368.226 255.468 368.745C255.003 369.263 254.865 370.001 255 370.685C255.109 371.232 255.464 371.588 255.819 371.944C256.31 372.272 256.911 372.437 257.512 372.602C258.113 372.767 258.851 372.905 259.589 373.043C260.163 373.071 260.901 373.209 261.502 373.374C262.103 373.539 262.731 373.841 263.333 374.006C263.961 374.308 264.343 374.8 264.861 375.266C265.27 375.895 265.543 376.552 265.869 377.482C266.086 378.575 266.112 379.423 265.755 380.488C265.371 381.417 264.823 382.236 263.974 382.973C263.126 383.71 262.086 384.2 260.719 384.471C259.899 384.634 259.078 384.797 258.367 384.795C257.52 384.821 256.782 384.684 256.044 384.546C255.307 384.408 254.542 384.133 253.913 383.832L254.792 381.099C255.257 381.291 255.858 381.456 256.459 381.621C257.06 381.786 257.634 381.815 258.208 381.843C258.782 381.871 259.356 381.899 259.876 381.654C260.423 381.546 260.943 381.301 261.462 381.055C261.982 380.81 262.311 380.319 262.64 379.827C262.969 379.336 262.997 378.762 262.861 378.078C262.753 377.531 262.535 377.148 262.043 376.819C261.688 376.463 261.087 376.298 260.623 376.106C260.022 375.941 259.421 375.776 258.847 375.748C258.246 375.583 257.535 375.582 256.797 375.444C256.059 375.306 255.458 375.141 254.83 374.84C254.202 374.538 253.683 374.072 253.164 373.607C252.782 373.114 252.346 372.348 252.184 371.528C251.967 370.434 251.914 369.45 252.298 368.521C252.545 367.619 253.093 366.8 253.969 366.2C254.681 365.491 255.72 365 256.814 364.783C258.181 364.512 259.439 364.405 260.45 364.488C261.461 364.572 262.5 364.792 263.265 365.067L262.112 367.853Z" fill="#D9E4D8"/>
<path d="M276.006 363.393L288.987 365.792L288.435 368.743L278.706 366.978L277.741 372.143L286.432 373.688L285.88 376.639L277.19 375.094L276.252 380.396L286.418 382.216L285.867 385.168L272.585 382.686L276.006 363.393Z" fill="#D9E4D8"/>
<path d="M306.795 374.622C307.641 375.307 308.487 375.992 308.924 376.758C309.496 377.497 309.933 378.263 310.095 379.083C310.258 379.903 310.284 380.751 310.146 381.489C310.035 382.363 309.624 383.155 308.939 384.002C308.501 384.657 307.899 385.203 307.296 385.749C306.694 386.294 305.901 386.594 305.108 386.893C304.314 387.193 303.44 387.082 302.565 386.971C301.664 386.724 300.598 386.366 299.588 385.572L297.267 383.901L293.267 389.526L290.646 387.772L302.071 371.58L306.795 374.622ZM303.168 386.425L302.77 395.883L299.793 393.773L300.191 384.316L303.168 386.425ZM301.478 382.924C301.997 383.389 302.598 383.554 303.035 383.61C303.473 383.665 304.047 383.693 304.457 383.612C304.867 383.53 305.25 383.312 305.633 383.094C306.016 382.876 306.235 382.549 306.455 382.221C306.674 381.893 306.756 381.593 306.975 381.265C307.195 380.937 307.25 380.5 307.169 380.09C307.087 379.68 307.006 379.27 306.761 378.75C306.543 378.367 306.161 377.874 305.505 377.436L303.048 375.792L299.185 381.389L301.478 382.924Z" fill="#D9E4D8"/>
<path d="M321.89 388.396L328.815 399.67L326.298 401.306L323.598 397.01L309.288 405.816L307.624 403.162L321.935 394.355L319.4 390.169L321.89 388.396Z" fill="#D9E4D8"/>
<path d="M334.803 432.728L332.897 444.616L329.946 444.065L331.354 435.401L325.916 434.491L324.728 442.115L321.777 441.564L322.964 433.939L314.902 432.696L315.427 429.608L334.803 432.728Z" fill="#D9E4D8"/>
<path d="M315.745 452.707C315.09 452.269 314.325 451.994 313.614 451.993C312.903 451.992 312.083 452.154 311.427 452.427C310.77 452.699 310.168 453.245 309.593 453.927C309.154 454.583 308.88 455.348 308.769 456.222C308.768 456.933 308.794 457.78 309.203 458.41C309.475 459.066 310.021 459.668 310.676 460.107L321.162 467.122L319.408 469.743L308.895 462.592C307.749 461.824 306.821 460.729 306.303 459.553C305.786 458.377 305.542 457.146 305.708 455.834C305.874 454.523 306.341 453.293 307.108 452.146C307.875 451 308.834 450.099 309.983 449.445C311.132 448.791 312.362 448.547 313.647 448.576C314.932 448.605 316.161 449.072 317.445 449.812L327.957 456.964L326.204 459.585L315.745 452.707Z" fill="#D9E4D8"/>
<path d="M297.493 481.763C298.34 481.737 299.16 481.574 299.981 481.411C300.801 481.249 301.458 480.976 302.087 480.567C302.99 480.104 303.428 479.449 303.73 478.821C304.032 478.192 303.896 477.509 303.487 476.879C303.242 476.36 302.777 476.167 302.313 475.975C301.712 475.81 301.138 475.782 300.454 475.918C299.771 476.053 299.06 476.052 298.376 476.188C297.693 476.323 297.146 476.432 296.435 476.431C295.724 476.43 295.15 476.401 294.576 476.373C293.975 476.208 293.374 476.043 292.719 475.605C292.063 475.166 291.654 474.537 291.082 473.798C290.482 472.922 290.292 471.965 290.239 470.981C290.186 469.997 290.57 469.068 291.091 468.112C291.612 467.156 292.57 466.256 293.719 465.601C294.485 465.165 295.141 464.893 295.935 464.594C296.728 464.294 297.412 464.159 298.232 463.996C299.052 463.833 299.763 463.834 300.501 463.972L300.633 466.788C300.059 466.76 299.485 466.731 298.938 466.84C298.391 466.948 297.708 467.084 297.161 467.192C296.614 467.301 296.094 467.546 295.601 467.928C295.082 468.173 294.726 468.528 294.26 469.047C293.931 469.538 293.602 470.03 293.574 470.604C293.546 471.178 293.654 471.724 294.063 472.354C294.309 472.874 294.8 473.202 295.237 473.258C295.702 473.45 296.276 473.478 296.85 473.506C297.424 473.535 298.107 473.399 298.654 473.291C299.338 473.155 299.885 473.047 300.732 473.021C301.416 472.885 302.127 472.886 302.864 473.024C303.602 473.162 304.203 473.327 304.832 473.629C305.46 473.93 306.006 474.532 306.442 475.299C307.042 476.174 307.232 477.131 307.285 478.116C307.338 479.1 307.09 480.001 306.542 480.821C305.994 481.64 305.309 482.486 304.297 483.113C303.148 483.767 301.972 484.285 301.015 484.475C300.058 484.664 299.1 484.854 298.089 484.771L297.493 481.763Z" fill="#D9E4D8"/>
<path d="M287.147 489.783L284.03 490.543L279.359 471.291L282.476 470.531L287.147 489.783Z" fill="#D9E4D8"/>
<path d="M272.425 482.898C272.259 484.21 271.792 485.439 271.025 486.586C270.258 487.733 269.463 488.743 268.341 489.534C267.219 490.325 266.043 490.842 264.84 491.223C263.636 491.604 262.215 491.602 260.766 491.463C259.454 491.296 258.225 490.83 257.078 490.062C255.931 489.295 255.058 488.474 254.13 487.379C253.339 486.257 252.822 485.081 252.441 483.877C252.033 482.537 252.063 481.252 252.229 479.941C252.395 478.629 252.834 477.263 253.629 476.253C254.396 475.106 255.217 474.232 256.339 473.441C257.462 472.65 258.638 472.133 259.841 471.752C261.045 471.371 262.466 471.374 263.778 471.54C265.09 471.706 266.456 472.145 267.603 472.913C268.722 473.543 269.623 474.501 270.387 475.487C271.151 476.472 271.668 477.648 272.076 478.988C272.593 480.165 272.564 481.449 272.425 482.898ZM269.2 482.401C269.284 481.389 269.258 480.542 269.068 479.585C268.878 478.628 268.442 477.862 267.869 477.123C267.296 476.384 266.751 475.782 265.931 475.234C265.112 474.686 264.347 474.411 263.336 474.327C262.461 474.217 261.477 474.27 260.657 474.432C259.837 474.595 259.07 475.031 258.332 475.604C257.593 476.177 257.017 476.859 256.606 477.651C256.195 478.443 255.811 479.372 255.7 480.247C255.616 481.258 255.642 482.106 255.832 483.063C256.022 484.02 256.458 484.786 256.894 485.552C257.467 486.291 258.013 486.893 258.832 487.441C259.651 487.989 260.416 488.264 261.427 488.347C262.302 488.458 263.286 488.405 264.243 488.215C265.2 488.025 265.966 487.589 266.569 487.043C267.308 486.471 267.883 485.788 268.294 484.996C268.705 484.204 268.98 483.439 269.2 482.401Z" fill="#D9E4D8"/>
<path d="M236.275 456.106L238.729 477.076L238.265 476.174L246.811 465.526L249.35 467.581L236.449 483.497L236.286 483.387L233.996 462.526L234.405 463.156L225.749 473.967L223.374 472.022L236.275 456.106Z" fill="#D9E4D8"/>
<rect width="647" height="667" transform="translate(685)" fill="#B7CC33"/>
<path d="M987.115 269.408H896.953C896.02 269.413 895.1 269.636 894.269 270.06C893.437 270.484 892.716 271.096 892.163 271.848C891.61 272.6 891.24 273.471 891.084 274.392C890.928 275.312 890.989 276.256 891.263 277.149C893.705 284.89 897.88 291.972 903.471 297.857C909.061 303.741 915.92 308.274 923.526 311.109C924.266 311.379 924.914 311.852 925.397 312.474C925.879 313.096 926.176 313.842 926.253 314.626C926.33 315.409 926.184 316.199 925.832 316.903C925.48 317.607 924.936 318.198 924.263 318.606C918.759 321.923 914.288 326.707 911.35 332.422C908.412 338.137 907.123 344.558 907.629 350.964C908.135 357.37 910.414 363.509 914.212 368.692C918.01 373.876 923.177 377.899 929.133 380.312C929.768 380.568 930.331 380.976 930.772 381.5C931.214 382.024 931.521 382.648 931.666 383.318C931.811 383.988 931.791 384.683 931.606 385.342C931.421 386.002 931.078 386.607 930.606 387.104C929.114 388.65 927.952 390.483 927.19 392.492C926.428 394.501 926.082 396.644 926.174 398.79C926.265 400.937 926.793 403.042 927.723 404.979C928.654 406.916 929.968 408.643 931.587 410.056C932.395 410.827 933.284 411.509 934.239 412.087C934.535 412.265 934.774 412.522 934.93 412.83C935.086 413.137 935.152 413.482 935.121 413.825C935.089 414.169 934.962 414.496 934.752 414.77C934.543 415.044 934.261 415.254 933.938 415.374C930.614 416.615 927.616 418.597 925.173 421.171C922.73 423.745 920.906 426.842 919.841 430.227C919.72 430.619 919.692 431.033 919.76 431.437C919.828 431.842 919.991 432.224 920.234 432.554C920.477 432.884 920.794 433.152 921.16 433.337C921.526 433.521 921.931 433.617 922.34 433.617H961.747C962.158 433.617 962.563 433.521 962.93 433.336C963.297 433.151 963.615 432.883 963.858 432.552C964.102 432.222 964.265 431.838 964.333 431.434C964.402 431.029 964.374 430.613 964.253 430.221C963.184 426.838 961.36 423.744 958.917 421.171C956.475 418.599 953.479 416.617 950.156 415.374C949.833 415.257 949.55 415.05 949.339 414.779C949.128 414.507 948.998 414.182 948.964 413.84C948.93 413.498 948.993 413.153 949.146 412.845C949.299 412.538 949.536 412.279 949.829 412.1C950.695 411.577 951.506 410.97 952.251 410.287C953.919 408.893 955.282 407.171 956.256 405.228C957.231 403.285 957.795 401.163 957.915 398.993C958.036 396.823 957.709 394.651 956.955 392.612C956.201 390.574 955.036 388.712 953.533 387.142C953.047 386.655 952.688 386.055 952.489 385.395C952.29 384.736 952.256 384.038 952.391 383.363C952.526 382.687 952.825 382.056 953.263 381.524C953.7 380.991 954.261 380.575 954.898 380.312C960.858 377.909 966.031 373.893 969.837 368.716C973.643 363.538 975.933 357.402 976.448 350.997C976.964 344.591 975.685 338.169 972.756 332.449C969.827 326.729 965.363 321.938 959.864 318.613C959.192 318.205 958.648 317.617 958.294 316.915C957.941 316.214 957.792 315.427 957.864 314.644C957.936 313.862 958.227 313.116 958.703 312.491C959.179 311.866 959.821 311.387 960.556 311.109C968.165 308.277 975.028 303.746 980.622 297.861C986.216 291.976 990.394 284.892 992.837 277.149C993.113 276.254 993.175 275.306 993.018 274.383C992.861 273.459 992.489 272.586 991.932 271.833C991.375 271.08 990.649 270.468 989.813 270.047C988.976 269.625 988.052 269.407 987.115 269.408Z" fill="#D9E4D8"/>
<path d="M935.636 269.184H978.221C978.221 259.587 974.409 250.384 967.623 243.598C960.838 236.812 951.634 233 942.038 233C932.441 233 923.237 236.812 916.452 243.598C909.666 250.384 905.854 259.587 905.854 269.184H917.234C918.97 269.18 920.653 269.781 921.994 270.884C923.336 271.987 924.251 273.522 924.583 275.226V275.29C924.954 277.348 925.145 279.434 925.153 281.525C925.183 283.614 925.018 285.701 924.66 287.76C924.339 289.799 923.74 291.785 922.879 293.661C922.548 294.285 922.376 294.98 922.379 295.686C922.379 296.76 922.805 297.79 923.565 298.549C924.324 299.309 925.354 299.736 926.428 299.736C927.503 299.736 928.533 299.309 929.292 298.549C930.051 297.79 930.478 296.76 930.478 295.686C930.481 294.98 930.309 294.285 929.978 293.661C929.12 291.784 928.521 289.798 928.197 287.76C927.842 285.701 927.677 283.614 927.704 281.525C927.712 279.434 927.903 277.348 928.274 275.29V275.226C928.606 273.52 929.524 271.983 930.867 270.88C932.211 269.777 933.898 269.177 935.636 269.184Z" fill="#009891"/>
<path d="M1034.5 268.716V278.135H1021.68V303.189H1032.99V312.608H1021.69V344.07H1012.27V268.716H1034.5Z" fill="#006B70"/>
<path d="M1053.62 285.671V335.407H1059.09V344.07H1038V335.407H1044.21V294.34H1038.38V285.671H1053.62ZM1053.9 268.716V278.699H1043.54V268.716H1053.9Z" fill="#006B70"/>
<path d="M1081.22 267.774C1083.98 267.774 1086.07 268.733 1087.48 270.651C1088.9 272.569 1089.61 275.19 1089.61 278.513V299.8H1080.18V280.993C1080.21 280.014 1079.88 279.058 1079.24 278.308C1078.93 277.947 1078.53 277.662 1078.09 277.474C1077.64 277.287 1077.16 277.202 1076.68 277.225C1076.13 277.207 1075.59 277.307 1075.09 277.518C1074.58 277.729 1074.13 278.047 1073.76 278.449C1072.97 279.361 1072.56 280.544 1072.63 281.749V344.102H1063.23V268.716H1072.08L1071.33 275.765H1072.46C1073.9 270.442 1076.82 267.778 1081.22 267.774Z" fill="#006B70"/>
<path d="M1108.73 267.774C1110.46 267.718 1112.2 268.008 1113.82 268.627C1115.45 269.246 1116.93 270.183 1118.19 271.382C1120.67 273.765 1121.91 276.969 1121.91 280.993V298.512C1121.91 302.356 1120.99 305.419 1119.13 307.7C1118.25 308.808 1117.13 309.694 1115.84 310.286C1114.56 310.878 1113.15 311.16 1111.74 311.109C1110.42 311.181 1109.11 310.963 1107.89 310.468C1107.04 310.065 1106.23 309.559 1105.5 308.963H1104.36L1104.93 312.923V331.851C1104.93 332.85 1105.32 333.808 1106.03 334.515C1106.74 335.221 1107.7 335.618 1108.69 335.618C1109.69 335.618 1110.65 335.221 1111.36 334.515C1112.07 333.808 1112.46 332.85 1112.46 331.851V318.638H1121.94V331.825C1121.94 335.841 1120.7 339.044 1118.22 341.437C1115.73 343.829 1112.58 345.021 1108.75 345.012C1104.91 345.012 1101.75 343.82 1099.28 341.437C1096.81 339.053 1095.57 335.849 1095.56 331.825V280.993C1095.56 276.978 1096.8 273.774 1099.28 271.382C1101.76 268.99 1104.91 267.787 1108.73 267.774ZM1108.73 277.193C1108.23 277.185 1107.73 277.276 1107.27 277.463C1106.81 277.649 1106.39 277.926 1106.04 278.277C1105.69 278.629 1105.41 279.048 1105.22 279.509C1105.04 279.97 1104.94 280.464 1104.95 280.961V300.364C1105.71 301.248 1106.96 301.684 1108.73 301.684C1109.22 301.692 1109.72 301.601 1110.18 301.414C1110.64 301.228 1111.06 300.951 1111.41 300.599C1111.76 300.247 1112.04 299.828 1112.22 299.367C1112.41 298.906 1112.5 298.413 1112.49 297.916V280.993C1112.5 280.496 1112.41 280.003 1112.22 279.542C1112.04 279.081 1111.76 278.662 1111.41 278.31C1111.06 277.958 1110.64 277.681 1110.18 277.495C1109.72 277.308 1109.22 277.217 1108.73 277.226V277.193Z" fill="#006B70"/>
<path d="M1019.99 356.2C1021.73 356.144 1023.46 356.434 1025.09 357.053C1026.72 357.672 1028.2 358.608 1029.46 359.807C1031.94 362.191 1033.18 365.395 1033.18 369.419V382.606H1023.77V369.419C1023.77 368.417 1023.37 367.456 1022.66 366.748C1021.95 366.039 1020.99 365.641 1019.99 365.641C1018.99 365.641 1018.03 366.039 1017.32 366.748C1016.61 367.456 1016.21 368.417 1016.21 369.419V371.303C1016.21 372.806 1016.24 374.22 1016.31 375.544C1016.37 376.838 1016.54 378.125 1016.83 379.389C1017.12 380.685 1017.55 381.948 1018.11 383.157C1018.76 384.553 1019.55 385.88 1020.47 387.117L1026.87 395.876C1028.2 397.65 1029.38 399.524 1030.41 401.483C1031.23 403.082 1031.87 404.772 1032.3 406.519C1032.71 408.282 1032.96 410.079 1033.05 411.889C1033.14 413.772 1033.19 415.938 1033.19 418.386V420.27C1033.19 424.285 1031.95 427.489 1029.47 429.881C1026.99 432.273 1023.84 433.465 1020 433.457C1016.15 433.457 1013 432.265 1010.54 429.881C1008.07 427.498 1006.83 424.294 1006.81 420.27V407.064H1016.21V420.251C1016.19 420.759 1016.27 421.266 1016.45 421.742C1016.63 422.218 1016.91 422.652 1017.26 423.019C1017.61 423.386 1018.04 423.678 1018.5 423.878C1018.97 424.077 1019.47 424.18 1019.98 424.18C1020.49 424.18 1021 424.077 1021.46 423.878C1021.93 423.678 1022.35 423.386 1022.71 423.019C1023.06 422.652 1023.33 422.218 1023.51 421.742C1023.69 421.266 1023.77 420.759 1023.75 420.251V418.367C1023.75 416.297 1023.72 414.522 1023.66 413.048C1023.6 411.635 1023.41 410.23 1023.09 408.851C1022.75 407.464 1022.24 406.122 1021.58 404.853C1020.71 403.217 1019.7 401.657 1018.57 400.188L1012.07 391.217C1010.98 389.696 1010.03 388.071 1009.25 386.367C1008.57 384.865 1008.03 383.303 1007.65 381.702C1007.26 380.078 1007.02 378.422 1006.93 376.755C1006.84 375.032 1006.79 373.193 1006.79 371.245V369.419C1006.79 365.399 1008.03 362.195 1010.52 359.807C1011.78 358.607 1013.26 357.669 1014.89 357.05C1016.52 356.431 1018.25 356.142 1019.99 356.2Z" fill="#006B70"/>
<path d="M1052.58 357.142C1056.43 357.142 1059.58 358.336 1062.05 360.724C1064.52 363.111 1065.76 366.315 1065.77 370.335V400.451C1065.77 404.475 1064.53 407.679 1062.05 410.062C1059.58 412.446 1056.42 413.636 1052.58 413.632H1048.81V432.47H1039.4V357.142H1052.58ZM1048.81 404.238H1052.58C1053.08 404.248 1053.57 404.157 1054.04 403.971C1054.5 403.785 1054.92 403.508 1055.27 403.156C1055.62 402.804 1055.9 402.385 1056.08 401.923C1056.27 401.462 1056.36 400.968 1056.35 400.47V370.354C1056.36 369.857 1056.27 369.363 1056.08 368.901C1055.9 368.44 1055.62 368.021 1055.27 367.669C1054.92 367.317 1054.5 367.04 1054.04 366.854C1053.57 366.668 1053.08 366.577 1052.58 366.587H1048.81V404.238Z" fill="#006B70"/>
<path d="M1085.27 356.2C1089.11 356.2 1092.27 357.394 1094.73 359.782C1097.2 362.17 1098.44 365.373 1098.45 369.393V420.257C1098.45 424.272 1097.21 427.476 1094.73 429.868C1092.25 432.261 1089.09 433.452 1085.27 433.444C1081.42 433.444 1078.27 432.252 1075.8 429.868C1073.34 427.485 1072.1 424.281 1072.08 420.257V369.419C1072.08 365.399 1073.32 362.195 1075.8 359.807C1078.28 357.419 1081.44 356.217 1085.27 356.2ZM1085.27 365.619C1084.77 365.609 1084.28 365.7 1083.81 365.886C1083.35 366.072 1082.93 366.349 1082.58 366.701C1082.23 367.053 1081.95 367.472 1081.77 367.934C1081.58 368.395 1081.49 368.889 1081.5 369.387V420.251C1081.5 421.25 1081.9 422.208 1082.6 422.915C1083.31 423.621 1084.27 424.018 1085.27 424.018C1086.27 424.018 1087.22 423.621 1087.93 422.915C1088.64 422.208 1089.03 421.25 1089.03 420.251V369.419C1089.04 368.921 1088.95 368.427 1088.77 367.966C1088.58 367.504 1088.3 367.085 1087.95 366.733C1087.6 366.381 1087.18 366.104 1086.72 365.918C1086.26 365.732 1085.76 365.641 1085.27 365.651V365.619Z" fill="#006B70"/>
<path d="M1116.54 357.142V374.096H1126.15V382.766H1116.54V420.533C1116.51 421.205 1116.73 421.864 1117.18 422.372C1117.46 422.627 1117.78 422.822 1118.14 422.943C1118.5 423.065 1118.88 423.11 1119.25 423.076H1126.88V432.496H1115.6C1114.47 432.542 1113.35 432.361 1112.3 431.965C1111.25 431.568 1110.29 430.965 1109.48 430.189C1108.7 429.424 1108.08 428.506 1107.68 427.492C1107.27 426.478 1107.08 425.392 1107.12 424.3V382.766H1102.41V374.096H1107.12V357.142H1116.54Z" fill="#006B70"/>
<defs>
<clipPath id="clip0_75_2351">
<rect width="241.161" height="241.451" fill="white" transform="translate(344.279 172.69) rotate(13.9919)"/>
</clipPath>
</defs>
</svg>
