<svg width="1332" height="738" viewBox="0 0 1332 738" fill="none" xmlns="http://www.w3.org/2000/svg">
<rect width="1332" height="738" fill="#0063F7"/>
<path d="M74.844 426.716V407.425C74.844 407.226 74.9291 407.141 75.1277 407.141H77.3973C77.5959 407.141 77.681 407.226 77.681 407.425V416.305C80.5464 415.822 86.4189 414.914 87.3267 407.425C87.3551 407.226 87.4402 407.141 87.6388 407.141H89.9084C90.107 407.141 90.1921 407.226 90.1637 407.425C89.7098 413.099 86.2203 415.766 82.8443 417.127L90.419 426.773C90.5325 426.943 90.5041 427 90.3055 427H87.27C87.0714 427 86.9295 426.943 86.8161 426.773L79.9506 418.035C79.0995 418.234 78.3051 418.376 77.681 418.461V426.716C77.681 426.915 77.5959 427 77.3973 427H75.1277C74.9291 427 74.844 426.915 74.844 426.716ZM103.287 426.716V424.674H103.003C101.982 426.234 99.9677 427.284 97.6413 427.284C94.2937 427.284 91.5135 425.071 91.5135 422.319C91.5135 419.567 94.2937 417.326 97.6413 417.326C99.9677 417.326 101.982 418.376 103.003 419.936H103.287V417.922C103.287 415.567 100.507 415.085 99.0031 415.085C97.0172 415.085 94.9178 415.624 93.1022 416.475C92.932 416.56 92.8185 416.532 92.7617 416.333L92.2795 414.461C92.2227 414.262 92.2795 414.12 92.4497 414.035C94.3221 413.156 97.0172 412.531 99.0031 412.531C101.415 412.531 106.124 413.241 106.124 417.326V426.716C106.124 426.915 106.039 427 105.84 427H103.571C103.372 427 103.287 426.915 103.287 426.716ZM94.3505 422.319C94.3505 423.539 96.2796 424.447 98.9464 424.447C101.528 424.447 103.287 423.539 103.287 422.319C103.287 421.071 101.528 420.163 98.9464 420.163C96.2796 420.163 94.3505 421.071 94.3505 422.319ZM109.578 432.787C109.38 432.731 109.295 432.617 109.295 432.419V430.461C109.295 430.263 109.38 430.206 109.578 430.291C111.961 431.114 114.657 431.085 115.621 431.057C118.799 431 120.018 430.461 120.018 428.958V424.56H119.706C118.855 425.894 117.494 426.716 115.479 426.716C111.422 426.716 108.103 423.511 108.103 419.624C108.103 415.737 111.422 412.531 115.479 412.531C117.465 412.531 118.827 413.354 119.678 414.659H120.018V413.099C120.018 412.9 120.104 412.815 120.302 412.815H122.572C122.77 412.815 122.855 412.9 122.855 413.099V429.667C122.855 432.22 119.678 433.468 115.309 433.468C114.657 433.468 111.961 433.44 109.578 432.787ZM120.018 419.624C120.018 416.787 117.947 415.368 115.479 415.368C113.011 415.368 110.94 416.787 110.94 419.624C110.94 422.461 113.011 423.879 115.479 423.879C117.947 423.879 120.018 422.461 120.018 419.624ZM124.973 426.716V413.099C124.973 412.9 125.058 412.815 125.257 412.815H127.526C127.725 412.815 127.81 412.9 127.81 413.099V426.716C127.81 426.915 127.725 427 127.526 427H125.257C125.058 427 124.973 426.915 124.973 426.716ZM124.122 409.666C124.122 408.787 125.143 408.049 126.392 408.049C127.64 408.049 128.661 408.787 128.661 409.666C128.661 410.574 127.64 411.312 126.392 411.312C125.143 411.312 124.122 410.574 124.122 409.666ZM141.753 426.716V417.922C141.753 415.567 139.795 415.085 137.895 415.085C135.54 415.085 134.292 415.794 132.93 416.9V426.716C132.93 426.915 132.845 427 132.646 427H130.377C130.178 427 130.093 426.915 130.093 426.716V413.099C130.093 412.9 130.178 412.815 130.377 412.815H132.646C132.845 412.815 132.93 412.9 132.93 413.099V414.688C134.263 413.524 135.994 412.531 138.434 412.531C140.505 412.531 144.59 413.241 144.59 417.326V426.716C144.59 426.915 144.505 427 144.306 427H142.037C141.838 427 141.753 426.915 141.753 426.716ZM146.767 425.922C146.597 425.837 146.54 425.695 146.597 425.496L147.079 423.624C147.136 423.425 147.249 423.397 147.42 423.482C148.554 424.078 151.391 424.787 153.746 424.787C155.675 424.787 157.292 424.277 157.292 422.801C157.292 419.085 146.852 422.773 146.852 416.929C146.852 413.212 151.108 412.531 153.406 412.531C155.051 412.531 157.548 412.872 159.392 413.751C159.562 413.836 159.619 413.978 159.562 414.177L159.08 416.049C159.023 416.248 158.909 416.276 158.739 416.219C157.633 415.766 154.739 415.028 152.526 415.028C150.966 415.028 149.718 415.397 149.718 416.503C149.718 419.681 160.158 416.418 160.158 422.518C160.158 426.603 155.505 427.284 152.952 427.284C151.221 427.284 148.583 426.972 146.767 425.922Z" fill="white"/>
<path d="M82.0074 502H76.3334C75.837 502 75.7661 501.787 75.9079 501.291L93.639 453.062C93.7808 452.566 94.1355 452.353 94.6319 452.353H104.136C104.632 452.353 104.987 452.566 105.129 453.062L122.86 501.291C123.002 501.787 122.931 502 122.434 502H116.76C116.264 502 115.909 501.787 115.767 501.291L107.895 479.872H90.8729L83.0003 501.291C82.8585 501.787 82.5039 502 82.0074 502ZM98.7455 458.452L92.9297 474.198H105.838L100.022 458.452C99.8803 458.169 99.6676 458.027 99.3839 458.027C99.1002 458.027 98.8874 458.169 98.7455 458.452ZM155.921 501.291V496.184H155.211C152.658 500.085 147.622 502.709 141.807 502.709C133.438 502.709 126.487 497.177 126.487 490.297C126.487 483.418 133.438 477.815 141.807 477.815C147.622 477.815 152.658 480.439 155.211 484.34H155.921V479.304C155.921 473.417 148.97 472.212 145.211 472.212C140.246 472.212 134.998 473.559 130.459 475.687C130.033 475.9 129.749 475.829 129.608 475.332L128.402 470.651C128.26 470.155 128.402 469.8 128.827 469.588C133.508 467.389 140.246 465.829 145.211 465.829C151.24 465.829 163.013 467.602 163.013 477.815V501.291C163.013 501.787 162.8 502 162.304 502H156.63C156.133 502 155.921 501.787 155.921 501.291ZM133.579 490.297C133.579 493.347 138.402 495.617 145.069 495.617C151.523 495.617 155.921 493.347 155.921 490.297C155.921 487.177 151.523 484.907 145.069 484.907C138.402 484.907 133.579 487.177 133.579 490.297Z" fill="white"/>
<path d="M76.603 575.597H74.3334C74.1348 575.597 74.1064 575.512 74.1632 575.313L81.2556 556.022C81.3123 555.823 81.4542 555.738 81.6528 555.738H85.4543C85.6529 555.738 85.7948 555.823 85.8515 556.022L92.9439 575.313C93.0007 575.512 92.9723 575.597 92.7737 575.597H90.5041C90.3055 575.597 90.1637 575.512 90.107 575.313L86.9579 566.745H80.1492L77.0001 575.313C76.9434 575.512 76.8015 575.597 76.603 575.597ZM83.2982 558.178L80.9719 564.476H86.1352L83.8089 558.178C83.7521 558.064 83.667 558.007 83.5535 558.007C83.4401 558.007 83.355 558.064 83.2982 558.178ZM94.8203 555.738H102.253C109.09 555.738 109.09 559.312 109.09 560.986C109.09 562.064 109.09 563.88 107.36 565.072C109.658 566.348 109.658 568.618 109.658 569.838C109.658 571.597 109.658 575.597 102.991 575.597H94.8203C94.6217 575.597 94.5366 575.512 94.5366 575.313V556.022C94.5366 555.823 94.6217 555.738 94.8203 555.738ZM97.3736 572.76H102.707C106.594 572.76 106.821 571.114 106.821 569.554C106.821 567.994 106.594 566.49 102.707 566.49H97.3736V572.76ZM97.3736 563.937H102.14C106.026 563.937 106.253 562.66 106.253 561.27C106.253 559.88 106.026 558.575 102.14 558.575H97.3736V563.937ZM128.246 568.703L130.345 569.157C130.544 569.185 130.6 569.299 130.515 569.497C129.068 573.242 125.551 575.88 121.409 575.88C116.047 575.88 111.649 571.284 111.649 565.667C111.649 560.022 116.075 555.454 121.437 555.454C125.749 555.454 129.352 558.32 130.685 562.348C130.742 562.547 130.685 562.66 130.487 562.688L128.444 563.142C128.246 563.171 128.132 563.114 128.047 562.915C126.941 560.192 124.217 558.291 121.409 558.291C117.635 558.291 114.486 560.788 114.486 565.667C114.486 570.547 117.635 573.043 121.409 573.043C124.047 573.043 126.6 571.313 127.848 568.901C127.934 568.731 128.047 568.674 128.246 568.703ZM132.841 575.313V556.022C132.841 555.823 132.926 555.738 133.125 555.738H139.678C148.246 555.738 149.182 560.192 149.182 565.667C149.182 571.114 148.246 575.597 139.678 575.597H133.125C132.926 575.597 132.841 575.512 132.841 575.313ZM135.678 572.76H139.678C146.572 572.76 146.345 570.377 146.345 565.667C146.345 560.958 146.572 558.575 139.678 558.575H135.678V572.76ZM162.407 565.44H154.152V572.76H164.961C165.159 572.76 165.244 572.845 165.244 573.043V575.313C165.244 575.512 165.159 575.597 164.961 575.597H151.599C151.4 575.597 151.315 575.512 151.315 575.313V556.022C151.315 555.823 151.4 555.738 151.599 555.738H164.961C165.159 555.738 165.244 555.823 165.244 556.022V558.291C165.244 558.49 165.159 558.575 164.961 558.575H154.152V562.887H162.407C162.606 562.887 162.691 562.972 162.691 563.171V565.157C162.691 565.355 162.606 565.44 162.407 565.44ZM167.378 575.313V556.022C167.378 555.823 167.463 555.738 167.662 555.738H181.024C181.223 555.738 181.308 555.823 181.308 556.022V558.291C181.308 558.49 181.223 558.575 181.024 558.575H170.215V562.887H178.471C178.669 562.887 178.754 562.972 178.754 563.171V565.157C178.754 565.355 178.669 565.44 178.471 565.44H170.215V575.313C170.215 575.512 170.13 575.597 169.931 575.597H167.662C167.463 575.597 167.378 575.512 167.378 575.313ZM192.25 567.937V565.951C192.25 565.752 192.335 565.667 192.534 565.667H200.137C200.335 565.667 200.421 565.752 200.421 565.951V575.313C200.421 575.512 200.335 575.597 200.137 575.597H197.867C197.669 575.597 197.584 575.512 197.584 575.313V573.951C196.193 575.058 194.236 575.88 192.137 575.88C187.229 575.88 182.718 571.284 182.718 565.667C182.718 560.022 187.229 555.454 192.676 555.454C195.513 555.454 198.066 556.646 199.881 558.603C200.023 558.745 199.995 558.887 199.853 559.029L198.406 560.362C198.264 560.504 198.123 560.476 197.981 560.334C196.676 559 194.747 558.291 192.676 558.291C188.817 558.291 185.555 560.788 185.555 565.667C185.555 570.547 188.817 573.043 193.186 573.043C194.576 573.043 196.307 572.788 197.584 571.653V568.504C197.584 568.306 197.498 568.221 197.3 568.221H192.534C192.335 568.221 192.25 568.135 192.25 567.937ZM202.552 575.313V556.022C202.552 555.823 202.637 555.738 202.836 555.738H205.106C205.304 555.738 205.389 555.823 205.389 556.022V563.795H216.085V556.022C216.085 555.823 216.17 555.738 216.368 555.738H218.638C218.836 555.738 218.922 555.823 218.922 556.022V575.313C218.922 575.512 218.836 575.597 218.638 575.597H216.368C216.17 575.597 216.085 575.512 216.085 575.313V566.348H205.389V575.313C205.389 575.512 205.304 575.597 205.106 575.597H202.836C202.637 575.597 202.552 575.512 202.552 575.313ZM221.192 575.313V556.022C221.192 555.823 221.277 555.738 221.476 555.738H223.745C223.944 555.738 224.029 555.823 224.029 556.022V575.313C224.029 575.512 223.944 575.597 223.745 575.597H221.476C221.277 575.597 221.192 575.512 221.192 575.313ZM235.56 571.171V556.022C235.56 555.823 235.646 555.738 235.844 555.738H238.114C238.312 555.738 238.397 555.823 238.397 556.022V571.767C238.397 575.852 233.489 575.88 232.894 575.88C230.681 575.88 228.269 575.512 225.886 575.001C225.688 574.973 225.603 574.859 225.631 574.66L225.943 572.533C225.971 572.334 226.057 572.277 226.255 572.306C227.305 572.504 230.34 573.072 233.007 573.072C234.057 573.072 235.56 572.987 235.56 571.171ZM240.519 575.313V556.022C240.519 555.823 240.604 555.738 240.803 555.738H243.072C243.271 555.738 243.356 555.823 243.356 556.022V564.901C246.221 564.419 252.094 563.511 253.002 556.022C253.03 555.823 253.115 555.738 253.314 555.738H255.583C255.782 555.738 255.867 555.823 255.839 556.022C255.385 561.696 251.895 564.362 248.519 565.724L256.094 575.37C256.207 575.54 256.179 575.597 255.98 575.597H252.945C252.746 575.597 252.604 575.54 252.491 575.37L245.625 566.632C244.774 566.83 243.98 566.972 243.356 567.057V575.313C243.356 575.512 243.271 575.597 243.072 575.597H240.803C240.604 575.597 240.519 575.512 240.519 575.313ZM257.884 575.313V556.022C257.884 555.823 257.969 555.738 258.168 555.738H260.438C260.636 555.738 260.721 555.823 260.721 556.022V572.76H270.679C270.878 572.76 270.963 572.845 270.963 573.043V575.313C270.963 575.512 270.878 575.597 270.679 575.597H258.168C257.969 575.597 257.884 575.512 257.884 575.313ZM272.535 575.313V556.022C272.535 555.823 272.62 555.738 272.818 555.738H275.088C275.286 555.738 275.4 555.823 275.485 555.993L283.485 572.731L291.486 555.993C291.571 555.823 291.684 555.738 291.883 555.738H294.152C294.351 555.738 294.436 555.823 294.436 556.022V575.313C294.436 575.512 294.351 575.597 294.152 575.597H291.883C291.684 575.597 291.599 575.512 291.599 575.313V561.469L285.017 575.341C284.932 575.512 284.819 575.597 284.62 575.597H282.351C282.152 575.597 282.038 575.512 281.953 575.341L275.372 561.469V575.313C275.372 575.512 275.286 575.597 275.088 575.597H272.818C272.62 575.597 272.535 575.512 272.535 575.313ZM296.715 575.313V556.022C296.715 555.823 296.801 555.738 296.999 555.738H299.212C299.411 555.738 299.552 555.823 299.666 555.993L310.333 571.455V556.022C310.333 555.823 310.418 555.738 310.617 555.738H312.886C313.085 555.738 313.17 555.823 313.17 556.022V575.313C313.17 575.512 313.085 575.597 312.886 575.597H310.617C310.418 575.597 310.276 575.512 310.163 575.341L299.552 559.88V575.313C299.552 575.512 299.467 575.597 299.269 575.597H296.999C296.801 575.597 296.715 575.512 296.715 575.313ZM314.729 565.667C314.729 560.022 319.155 555.454 324.517 555.454C329.964 555.454 334.304 560.022 334.304 565.667C334.304 571.284 329.964 575.88 324.517 575.88C319.155 575.88 314.729 571.284 314.729 565.667ZM317.566 565.667C317.566 570.547 320.743 573.043 324.517 573.043C328.29 573.043 331.467 570.547 331.467 565.667C331.467 560.788 328.29 558.291 324.517 558.291C320.743 558.291 317.566 560.788 317.566 565.667ZM335.851 575.313V556.022C335.851 555.823 335.936 555.738 336.135 555.738H343.852C350.689 555.738 350.689 559.908 350.689 561.837C350.689 563.766 350.689 567.937 344.022 567.937H338.972C338.773 567.937 338.688 568.022 338.688 568.221V575.313C338.688 575.512 338.603 575.597 338.405 575.597H336.135C335.936 575.597 335.851 575.512 335.851 575.313ZM338.688 565.1H342.887C347.908 565.1 347.852 563.511 347.852 561.837C347.852 560.164 347.908 558.575 342.887 558.575H338.688V565.1ZM352.382 565.667C352.382 560.022 356.808 555.454 362.17 555.454C367.617 555.454 371.957 560.022 371.957 565.667C371.957 568.873 370.539 571.738 368.326 573.611C368.865 574.632 369.262 575.909 369.347 577.469H366.482C366.482 576.476 366.368 575.653 366.198 574.973C364.978 575.568 363.617 575.88 362.17 575.88C356.808 575.88 352.382 571.284 352.382 565.667ZM355.219 565.667C355.219 570.547 358.397 573.043 362.17 573.043C363.078 573.043 363.957 572.902 364.751 572.618C363.702 571.795 362.397 571.653 361.375 571.313L362.567 570.745C362.907 570.575 363.305 570.49 363.758 570.49C364.638 570.49 365.688 570.831 366.624 571.568C368.127 570.348 369.12 568.391 369.12 565.667C369.12 560.788 365.943 558.291 362.17 558.291C358.397 558.291 355.219 560.788 355.219 565.667ZM374.073 575.313V556.022C374.073 555.823 374.158 555.738 374.357 555.738H382.073C388.91 555.738 388.91 559.908 388.91 561.837C388.91 563.71 388.91 567.682 382.811 567.937L388.825 575.37C388.939 575.512 388.91 575.597 388.712 575.597H385.648C385.449 575.597 385.307 575.512 385.194 575.37L379.179 567.937H377.193C376.995 567.937 376.91 568.022 376.91 568.221V575.313C376.91 575.512 376.825 575.597 376.626 575.597H374.357C374.158 575.597 374.073 575.512 374.073 575.313ZM376.91 565.1H381.109C386.13 565.1 386.073 563.511 386.073 561.837C386.073 560.164 386.13 558.575 381.109 558.575H376.91V565.1ZM407.824 575.597H404.817C404.618 575.597 404.477 575.512 404.363 575.37L399.2 568.05C399.086 567.908 398.973 567.908 398.859 568.05L393.696 575.37C393.583 575.512 393.441 575.597 393.242 575.597H390.235C390.036 575.597 390.008 575.512 390.121 575.37L397.242 565.667L390.121 555.965C390.008 555.823 390.036 555.738 390.235 555.738H393.242C393.441 555.738 393.583 555.823 393.696 555.965L398.859 563.284C398.973 563.426 399.086 563.426 399.2 563.284L404.363 555.965C404.477 555.823 404.618 555.738 404.817 555.738H407.824C408.023 555.738 408.051 555.823 407.938 555.965L400.817 565.667L407.938 575.37C408.051 575.512 408.023 575.597 407.824 575.597ZM415.338 575.313V558.007H409.154C408.955 558.007 408.87 557.922 408.87 557.724V556.022C408.87 555.823 408.955 555.738 409.154 555.738H424.473C424.672 555.738 424.757 555.823 424.757 556.022V557.724C424.757 557.922 424.672 558.007 424.473 558.007H418.175V575.313C418.175 575.512 418.09 575.597 417.892 575.597H415.622C415.424 575.597 415.338 575.512 415.338 575.313ZM426.166 569.213V556.022C426.166 555.823 426.251 555.738 426.449 555.738H428.719C428.918 555.738 429.003 555.823 429.003 556.022V569.128C429.003 572.618 431.981 573.327 433.996 573.327C436.01 573.327 438.989 572.618 438.989 569.128V556.022C438.989 555.823 439.074 555.738 439.273 555.738H441.542C441.741 555.738 441.826 555.823 441.826 556.022V569.213C441.826 574.887 436.861 575.88 433.996 575.88C431.13 575.88 426.166 574.887 426.166 569.213ZM443.468 555.738H445.737C445.936 555.738 446.049 555.823 446.134 556.022L452.518 573.327H452.858L459.241 556.022C459.326 555.823 459.44 555.738 459.638 555.738H461.908C462.107 555.738 462.163 555.823 462.078 556.022L454.986 575.313C454.901 575.512 454.787 575.597 454.589 575.597H450.787C450.588 575.597 450.475 575.512 450.39 575.313L443.297 556.022C443.212 555.823 443.269 555.738 443.468 555.738ZM463.216 555.738H465.485C465.684 555.738 465.797 555.823 465.826 556.022L470.28 573.327H470.62L475.074 556.022C475.103 555.823 475.216 555.738 475.415 555.738H477.684C477.883 555.738 477.996 555.823 478.025 556.022L482.479 573.327H482.819L487.273 556.022C487.302 555.823 487.415 555.738 487.614 555.738H489.883C490.082 555.738 490.139 555.823 490.082 556.022L484.919 575.313C484.862 575.512 484.748 575.597 484.55 575.597H480.748C480.55 575.597 480.436 575.512 480.379 575.313L476.549 560.731L472.72 575.313C472.663 575.512 472.549 575.597 472.351 575.597H468.549C468.351 575.597 468.237 575.512 468.18 575.313L463.017 556.022C462.96 555.823 463.017 555.738 463.216 555.738ZM508.753 575.597H505.746C505.547 575.597 505.405 575.512 505.292 575.37L500.128 568.05C500.015 567.908 499.902 567.908 499.788 568.05L494.625 575.37C494.511 575.512 494.369 575.597 494.171 575.597H491.164C490.965 575.597 490.937 575.512 491.05 575.37L498.171 565.667L491.05 555.965C490.937 555.823 490.965 555.738 491.164 555.738H494.171C494.369 555.738 494.511 555.823 494.625 555.965L499.788 563.284C499.902 563.426 500.015 563.426 500.128 563.284L505.292 555.965C505.405 555.823 505.547 555.738 505.746 555.738H508.753C508.951 555.738 508.98 555.823 508.866 555.965L501.746 565.667L508.866 575.37C508.98 575.512 508.951 575.597 508.753 575.597ZM517.374 575.313V566.178L509.884 555.965C509.77 555.823 509.799 555.738 509.997 555.738H513.005C513.203 555.738 513.345 555.823 513.458 555.965L518.622 563.284C518.735 563.426 518.849 563.426 518.962 563.284L524.126 555.965C524.239 555.823 524.381 555.738 524.579 555.738H527.587C527.785 555.738 527.814 555.823 527.7 555.965L520.21 566.178V575.313C520.21 575.512 520.125 575.597 519.927 575.597H517.657C517.459 575.597 517.374 575.512 517.374 575.313ZM529.399 572.533L540.434 558.859V558.575H529.484C529.285 558.575 529.2 558.49 529.2 558.291V556.022C529.2 555.823 529.285 555.738 529.484 555.738H543.952C544.151 555.738 544.236 555.823 544.236 556.022V558.291C544.236 558.49 544.179 558.66 544.037 558.802L533.002 572.277V572.76H543.952C544.151 572.76 544.236 572.845 544.236 573.043V575.313C544.236 575.512 544.151 575.597 543.952 575.597H529.484C529.285 575.597 529.2 575.512 529.2 575.313V573.043C529.2 572.845 529.257 572.675 529.399 572.533Z" fill="white"/>
<path d="M86.4756 610.313V608.27H86.1919C85.1706 609.831 83.1564 610.88 80.8301 610.88C77.4824 610.88 74.7022 608.668 74.7022 605.916C74.7022 603.164 77.4824 600.923 80.8301 600.923C83.1564 600.923 85.1706 601.972 86.1919 603.533H86.4756V601.518C86.4756 599.164 83.6954 598.681 82.1918 598.681C80.2059 598.681 78.1066 599.22 76.2909 600.072C76.1207 600.157 76.0072 600.128 75.9505 599.93L75.4682 598.057C75.4114 597.859 75.4682 597.717 75.6384 597.632C77.5108 596.752 80.2059 596.128 82.1918 596.128C84.6032 596.128 89.3126 596.837 89.3126 600.923V610.313C89.3126 610.512 89.2275 610.597 89.0289 610.597H86.7593C86.5607 610.597 86.4756 610.512 86.4756 610.313ZM77.5392 605.916C77.5392 607.136 79.4683 608.043 82.1351 608.043C84.7167 608.043 86.4756 607.136 86.4756 605.916C86.4756 604.667 84.7167 603.76 82.1351 603.76C79.4683 603.76 77.5392 604.667 77.5392 605.916ZM91.4337 589.887C91.4337 589.688 91.5188 589.603 91.7174 589.603H93.987C94.1856 589.603 94.2707 589.688 94.2707 589.887V598.284H94.5827C95.4622 596.951 96.8523 596.128 98.9233 596.128C103.065 596.128 106.47 599.447 106.47 603.504C106.47 607.561 103.065 610.88 98.9233 610.88C96.8807 610.88 95.4906 610.058 94.6111 608.753H94.2707V610.313C94.2707 610.512 94.1856 610.597 93.987 610.597H91.7174C91.5188 610.597 91.4337 610.512 91.4337 610.313V589.887ZM103.633 603.504C103.633 600.497 101.505 598.965 98.9517 598.965C96.3984 598.965 94.2707 600.497 94.2707 603.504C94.2707 606.511 96.3984 608.043 98.9517 608.043C101.505 608.043 103.633 606.511 103.633 603.504ZM121.173 605.745L123.613 605.972C123.811 606.001 123.868 606.086 123.783 606.284C122.648 608.98 119.783 610.88 116.492 610.88C112.123 610.88 108.463 607.561 108.463 603.504C108.463 599.447 112.038 596.128 116.407 596.128C119.925 596.128 122.875 598.199 123.925 601.064C123.982 601.263 123.925 601.348 123.726 601.377L121.343 601.603C121.173 601.632 121.031 601.547 120.918 601.377C120.095 599.93 118.364 598.965 116.492 598.965C113.712 598.965 111.3 600.497 111.3 603.504C111.3 606.511 113.712 608.043 116.492 608.043C118.251 608.043 119.868 607.192 120.719 605.972C120.833 605.802 121.003 605.717 121.173 605.745ZM140.975 589.887V610.313C140.975 610.512 140.89 610.597 140.692 610.597H138.422C138.224 610.597 138.138 610.512 138.138 610.313V608.753H137.798C136.919 610.058 135.528 610.88 133.486 610.88C129.344 610.88 125.94 607.561 125.94 603.504C125.94 599.447 129.344 596.128 133.486 596.128C135.557 596.128 136.947 596.951 137.826 598.284H138.138V589.887C138.138 589.688 138.224 589.603 138.422 589.603H140.692C140.89 589.603 140.975 589.688 140.975 589.887ZM138.138 603.504C138.138 600.497 136.011 598.965 133.457 598.965C130.904 598.965 128.776 600.497 128.776 603.504C128.776 606.511 130.904 608.043 133.457 608.043C136.011 608.043 138.138 606.511 138.138 603.504ZM146.232 601.859H155.594C154.913 599.93 153.04 598.965 150.913 598.965C148.757 598.965 146.884 599.93 146.232 601.859ZM156.048 606.909L157.75 608.27C157.892 608.384 157.92 608.526 157.778 608.639C156.331 610.029 153.92 610.88 151.225 610.88C146.742 610.88 143.111 607.561 143.111 603.504C143.111 599.447 146.629 596.128 150.913 596.128C155.225 596.128 158.714 599.447 158.714 603.504V603.845C158.714 604.043 158.629 604.128 158.431 604.128H145.976C146.288 606.71 148.558 608.043 151.225 608.043C153.04 608.043 154.686 607.731 155.594 606.937C155.764 606.795 155.906 606.795 156.048 606.909ZM165.294 598.681V610.313C165.294 610.512 165.209 610.597 165.01 610.597H162.741C162.542 610.597 162.457 610.512 162.457 610.313V598.681H160.414C160.216 598.681 160.131 598.596 160.131 598.398V596.696C160.131 596.497 160.216 596.412 160.414 596.412H162.457V593.717C162.457 589.631 167.138 589.603 167.932 589.603C169.067 589.603 171.166 589.66 172.698 590.085C172.897 590.142 172.954 590.256 172.925 590.454L172.67 592.27C172.642 592.468 172.528 592.525 172.33 592.468C170.798 591.958 169.266 591.901 168.471 591.901C167.904 591.901 165.294 591.929 165.294 593.773V596.412H170.769C170.968 596.412 171.053 596.497 171.053 596.696V598.398C171.053 598.596 170.968 598.681 170.769 598.681H165.294ZM173 616.384C172.802 616.327 172.717 616.214 172.717 616.015V614.058C172.717 613.859 172.802 613.802 173 613.888C175.383 614.71 178.078 614.682 179.043 614.654C182.22 614.597 183.44 614.058 183.44 612.554V608.157H183.128C182.277 609.49 180.915 610.313 178.901 610.313C174.844 610.313 171.525 607.107 171.525 603.221C171.525 599.334 174.844 596.128 178.901 596.128C180.887 596.128 182.249 596.951 183.1 598.256H183.44V596.696C183.44 596.497 183.525 596.412 183.724 596.412H185.994C186.192 596.412 186.277 596.497 186.277 596.696V613.263C186.277 615.817 183.1 617.065 178.731 617.065C178.078 617.065 175.383 617.037 173 616.384ZM183.44 603.221C183.44 600.384 181.369 598.965 178.901 598.965C176.433 598.965 174.362 600.384 174.362 603.221C174.362 606.058 176.433 607.476 178.901 607.476C181.369 607.476 183.44 606.058 183.44 603.221ZM200.055 610.313V601.518C200.055 599.164 198.098 598.681 196.197 598.681C193.842 598.681 192.594 599.391 191.232 600.497V610.313C191.232 610.512 191.147 610.597 190.948 610.597H188.679C188.48 610.597 188.395 610.512 188.395 610.313V589.887C188.395 589.688 188.48 589.603 188.679 589.603H190.948C191.147 589.603 191.232 589.688 191.232 589.887V598.284C192.565 597.121 194.296 596.128 196.736 596.128C198.807 596.128 202.892 596.837 202.892 600.923V610.313C202.892 610.512 202.807 610.597 202.608 610.597H200.339C200.14 610.597 200.055 610.512 200.055 610.313ZM205.012 610.313V596.696C205.012 596.497 205.098 596.412 205.296 596.412H207.566C207.764 596.412 207.849 596.497 207.849 596.696V610.313C207.849 610.512 207.764 610.597 207.566 610.597H205.296C205.098 610.597 205.012 610.512 205.012 610.313ZM204.161 593.263C204.161 592.383 205.183 591.646 206.431 591.646C207.679 591.646 208.7 592.383 208.7 593.263C208.7 594.171 207.679 594.908 206.431 594.908C205.183 594.908 204.161 594.171 204.161 593.263ZM210.308 612.639V596.696C210.308 596.497 210.393 596.412 210.592 596.412H212.861C213.06 596.412 213.145 596.497 213.145 596.696V613.235C213.145 615.987 211.727 617.349 209.117 617.349C208.01 617.349 206.932 617.235 206.308 617.122C206.109 617.093 206.024 616.98 206.053 616.781L206.365 614.654C206.393 614.455 206.478 614.398 206.677 614.427C207.244 614.512 207.84 614.54 208.265 614.54C209.003 614.54 210.308 614.455 210.308 612.639ZM209.4 593.263C209.4 594.171 210.422 594.908 211.67 594.908C212.918 594.908 213.939 594.171 213.939 593.263C213.939 592.383 212.918 591.646 211.67 591.646C210.422 591.646 209.4 592.383 209.4 593.263ZM216.056 589.887C216.056 589.688 216.141 589.603 216.339 589.603H218.609C218.807 589.603 218.893 589.688 218.893 589.887V602.341C222.098 601.972 226.212 601.206 227.489 596.696C227.545 596.497 227.659 596.412 227.857 596.412H230.127C230.326 596.412 230.382 596.497 230.354 596.696C229.616 600.412 226.893 602.313 223.999 603.277L230.723 610.37C230.865 610.512 230.836 610.597 230.638 610.597C230.411 610.597 227.801 610.597 227.687 610.597C227.489 610.597 227.347 610.512 227.205 610.37L221.162 603.987C220.339 604.128 219.573 604.242 218.893 604.299V610.313C218.893 610.512 218.807 610.597 218.609 610.597H216.339C216.141 610.597 216.056 610.512 216.056 610.313V589.887ZM232.507 610.313V589.887C232.507 589.688 232.592 589.603 232.79 589.603H235.06C235.259 589.603 235.344 589.688 235.344 589.887V610.313C235.344 610.512 235.259 610.597 235.06 610.597H232.79C232.592 610.597 232.507 610.512 232.507 610.313ZM247.868 610.313V601.518C247.868 599.164 246.194 598.681 244.605 598.681C242.648 598.681 241.57 599.391 240.464 600.469V610.313C240.464 610.512 240.378 610.597 240.18 610.597H237.91C237.712 610.597 237.627 610.512 237.627 610.313V596.696C237.627 596.497 237.712 596.412 237.91 596.412H240.18C240.378 596.412 240.464 596.497 240.464 596.696V598.171C241.627 597.064 243.102 596.128 245.201 596.128C246.62 596.128 249.145 596.554 250.223 598.653C251.443 597.348 253.06 596.128 255.443 596.128C257.287 596.128 260.946 596.837 260.946 600.923V610.313C260.946 610.512 260.861 610.597 260.663 610.597H258.393C258.195 610.597 258.109 610.512 258.109 610.313V601.518C258.109 599.164 256.436 598.681 254.847 598.681C252.889 598.681 251.811 599.419 250.705 600.497V610.313C250.705 610.512 250.62 610.597 250.421 610.597H248.152C247.953 610.597 247.868 610.512 247.868 610.313ZM274.742 610.313V601.518C274.742 599.164 272.784 598.681 270.883 598.681C268.529 598.681 267.28 599.391 265.919 600.497V610.313C265.919 610.512 265.834 610.597 265.635 610.597H263.365C263.167 610.597 263.082 610.512 263.082 610.313V596.696C263.082 596.497 263.167 596.412 263.365 596.412H265.635C265.834 596.412 265.919 596.497 265.919 596.696V598.284C267.252 597.121 268.983 596.128 271.422 596.128C273.493 596.128 277.579 596.837 277.579 600.923V610.313C277.579 610.512 277.494 610.597 277.295 610.597H275.025C274.827 610.597 274.742 610.512 274.742 610.313ZM279.557 603.504C279.557 599.447 283.132 596.128 287.501 596.128C291.898 596.128 295.444 599.447 295.444 603.504C295.444 607.561 291.898 610.88 287.501 610.88C283.132 610.88 279.557 607.561 279.557 603.504ZM282.394 603.504C282.394 606.511 284.721 608.043 287.501 608.043C290.281 608.043 292.607 606.511 292.607 603.504C292.607 600.497 290.281 598.965 287.501 598.965C284.721 598.965 282.394 600.497 282.394 603.504ZM297.563 616.81V596.724C297.563 596.497 297.648 596.412 297.847 596.412H300.116C300.315 596.412 300.4 596.497 300.4 596.696V598.256H300.741C301.62 596.951 303.01 596.128 305.053 596.128C309.195 596.128 312.599 599.447 312.599 603.504C312.599 607.561 309.195 610.88 305.053 610.88C302.982 610.88 301.592 610.058 300.712 608.724H300.4V616.838C300.4 617.037 300.315 617.122 300.116 617.122H297.847C297.648 617.122 297.563 617.037 297.563 616.81ZM300.4 603.504C300.4 606.511 302.528 608.043 305.081 608.043C307.634 608.043 309.762 606.511 309.762 603.504C309.762 600.497 307.634 598.965 305.081 598.965C302.528 598.965 300.4 600.497 300.4 603.504ZM329.629 596.724V616.81C329.629 617.008 329.544 617.122 329.345 617.122H327.075C326.877 617.122 326.792 617.008 326.792 616.81V608.724H326.48C325.6 610.058 324.21 610.88 322.139 610.88C317.997 610.88 314.593 607.561 314.593 603.504C314.593 599.447 317.997 596.128 322.139 596.128C324.182 596.128 325.572 596.951 326.451 598.256H326.792V596.724C326.792 596.525 326.877 596.412 327.075 596.412H329.345C329.544 596.412 329.629 596.525 329.629 596.724ZM326.792 603.504C326.792 600.497 324.664 598.965 322.111 598.965C319.557 598.965 317.43 600.497 317.43 603.504C317.43 606.511 319.557 608.043 322.111 608.043C324.664 608.043 326.792 606.511 326.792 603.504ZM344.077 601.291L341.835 601.916C341.637 601.972 341.552 601.916 341.552 601.717C341.552 600.412 341.495 598.681 338.8 598.681C337.069 598.681 336.19 599.419 334.743 600.525V610.313C334.743 610.512 334.658 610.597 334.459 610.597H332.19C331.991 610.597 331.906 610.512 331.906 610.313V596.696C331.906 596.497 331.991 596.412 332.19 596.412H334.459C334.658 596.412 334.743 596.497 334.743 596.696V598.341C336.133 597.149 337.949 596.128 340.332 596.128C342.658 596.128 344.332 597.121 344.36 600.923C344.36 601.121 344.275 601.235 344.077 601.291ZM348.444 610.597H345.38C345.182 610.597 345.153 610.512 345.295 610.37L350.912 603.533L345.295 596.639C345.153 596.497 345.182 596.412 345.38 596.412H348.359C348.558 596.412 348.699 596.497 348.813 596.639L352.529 601.49C352.643 601.632 352.756 601.632 352.87 601.49L356.586 596.639C356.7 596.497 356.842 596.412 357.04 596.412H360.019C360.218 596.412 360.246 596.497 360.104 596.639L354.487 603.533L360.104 610.37C360.246 610.512 360.218 610.597 360.019 610.597H356.955C356.756 610.597 356.615 610.512 356.501 610.37L352.87 605.575C352.756 605.433 352.643 605.433 352.529 605.575L348.898 610.37C348.785 610.512 348.643 610.597 348.444 610.597ZM366.215 592.128V596.412H372.541C372.74 596.412 372.825 596.497 372.825 596.696V598.398C372.825 598.596 372.74 598.681 372.541 598.681H366.215V606.71C366.215 608.554 368.598 608.582 369.25 608.582C369.846 608.582 371.208 608.582 372.712 607.873C372.882 607.788 372.967 607.816 372.995 608.015L373.307 610.029C373.336 610.228 373.251 610.341 373.052 610.398C371.719 610.767 370.016 610.88 368.853 610.88C366.13 610.88 363.378 610.058 363.378 606.767V598.681H361.335C361.137 598.681 361.052 598.596 361.052 598.398V596.696C361.052 596.497 361.137 596.412 361.335 596.412H364.825C363.832 595.816 363.378 594.993 363.378 593.575V592.128C363.378 591.929 363.463 591.844 363.662 591.844H365.931C366.13 591.844 366.215 591.929 366.215 592.128ZM378.164 596.696V605.49C378.164 607.845 380.122 608.327 382.023 608.327C384.377 608.327 385.626 607.618 386.987 606.511V596.696C386.987 596.497 387.072 596.412 387.271 596.412H389.541C389.739 596.412 389.824 596.497 389.824 596.696V610.313C389.824 610.512 389.739 610.597 389.541 610.597H387.271C387.072 610.597 386.987 610.512 386.987 610.313V608.724C385.654 609.887 383.923 610.88 381.484 610.88C379.413 610.88 375.327 610.171 375.327 606.086V596.696C375.327 596.497 375.412 596.412 375.611 596.412H377.881C378.079 596.412 378.164 596.497 378.164 596.696ZM397.817 610.341L391.406 596.667C391.321 596.497 391.377 596.412 391.576 596.412H394.129C394.328 596.412 394.441 596.497 394.526 596.667L399.491 607.533L404.456 596.667C404.541 596.497 404.654 596.412 404.853 596.412H407.406C407.605 596.412 407.661 596.497 407.576 596.667L401.165 610.341C401.08 610.512 400.966 610.597 400.768 610.597H398.214C398.016 610.597 397.902 610.512 397.817 610.341ZM413.487 610.313L408.494 596.696C408.437 596.497 408.466 596.412 408.664 596.412H411.217C411.416 596.412 411.53 596.497 411.586 596.696L415.161 607.533L418.735 596.696C418.792 596.497 418.906 596.412 419.104 596.412H421.658C421.856 596.412 421.97 596.497 422.026 596.696L425.601 607.533L429.176 596.696C429.232 596.497 429.346 596.412 429.544 596.412H432.098C432.296 596.412 432.353 596.497 432.268 596.696L427.275 610.313C427.19 610.512 427.076 610.597 426.878 610.597H424.324C424.126 610.597 424.012 610.512 423.955 610.313L420.381 600.355L416.806 610.313C416.75 610.512 416.636 610.597 416.437 610.597H413.884C413.686 610.597 413.572 610.512 413.487 610.313ZM436.407 610.597H433.343C433.144 610.597 433.116 610.512 433.258 610.37L438.875 603.533L433.258 596.639C433.116 596.497 433.144 596.412 433.343 596.412H436.322C436.52 596.412 436.662 596.497 436.776 596.639L440.492 601.49C440.606 601.632 440.719 601.632 440.833 601.49L444.549 596.639C444.663 596.497 444.804 596.412 445.003 596.412H447.982C448.18 596.412 448.209 596.497 448.067 596.639L442.45 603.533L448.067 610.37C448.209 610.512 448.18 610.597 447.982 610.597H444.918C444.719 610.597 444.577 610.512 444.464 610.37L440.833 605.575C440.719 605.433 440.606 605.433 440.492 605.575L436.861 610.37C436.747 610.512 436.606 610.597 436.407 610.597ZM457.298 607.533L462.263 596.667C462.348 596.497 462.462 596.412 462.66 596.412H465.214C465.412 596.412 465.469 596.497 465.384 596.667L457.724 612.98C456.788 614.966 455.171 617.093 452.759 617.093C451.88 617.093 450.234 616.81 449.468 616.639C449.27 616.611 449.213 616.498 449.241 616.299L449.78 614.171C449.809 613.973 449.922 613.916 450.121 613.944C450.858 614.058 452.107 614.285 452.617 614.285C453.27 614.285 453.837 613.916 454.717 612.384L455.738 610.597L449.213 596.667C449.128 596.497 449.185 596.412 449.383 596.412H451.936C452.135 596.412 452.249 596.497 452.334 596.667L457.298 607.533ZM467.091 607.561L476.396 599.532V599.249H467.148C466.949 599.249 466.864 599.164 466.864 598.965V596.696C466.864 596.497 466.949 596.412 467.148 596.412H479.914C480.113 596.412 480.198 596.497 480.198 596.696V598.965C480.198 599.164 480.113 599.306 479.971 599.447L470.666 607.476V607.76H479.914C480.113 607.76 480.198 607.845 480.198 608.043V610.313C480.198 610.512 480.113 610.597 479.914 610.597H467.148C466.949 610.597 466.864 610.512 466.864 610.313V608.043C466.864 607.845 466.949 607.703 467.091 607.561Z" fill="white"/>
<path d="M74.7022 635.667C74.7022 628.603 78.3051 625.454 82.6457 625.454C87.0714 625.454 90.5892 628.603 90.5892 635.667C90.5892 642.703 87.0714 645.88 82.6457 645.88C78.3051 645.88 74.7022 642.703 74.7022 635.667ZM77.5392 635.667C77.5392 641.965 79.8655 643.043 82.6457 643.043C85.4259 643.043 87.7523 641.965 87.7523 635.667C87.7523 629.369 85.4259 628.291 82.6457 628.291C79.8655 628.291 77.5392 629.369 77.5392 635.667ZM96.3962 645.313V628.291H96.1976C95.9423 629.312 95.6302 630.305 94.6656 630.901C93.7862 631.44 93.2471 631.412 92.2826 631.412C92.084 631.412 91.9989 631.327 91.9989 631.128V629.142C91.9989 628.944 92.084 628.859 92.2826 628.859C93.2471 628.859 93.7862 628.887 94.6656 628.348C95.5451 627.809 95.8855 626.929 96.1125 626.022C96.1692 625.823 96.2827 625.738 96.4813 625.738H98.9495C99.148 625.738 99.2332 625.823 99.2332 626.022V645.313C99.2332 645.512 99.148 645.597 98.9495 645.597H96.6799C96.4813 645.597 96.3962 645.512 96.3962 645.313ZM101.371 645.313V642.76C101.399 639.866 112.946 634.532 112.946 630.476C112.946 628.49 110.137 628.007 108.605 628.007C106.563 628.007 104.406 628.546 102.534 629.426C102.364 629.511 102.25 629.454 102.194 629.256L101.711 627.383C101.655 627.185 101.711 627.043 101.882 626.986C103.782 626.107 106.534 625.454 108.577 625.454C111.045 625.454 115.839 626.163 115.839 630.05C115.839 636.064 104.492 641.256 104.492 642.76H115.556C115.754 642.76 115.839 642.845 115.839 643.043V645.313C115.839 645.512 115.754 645.597 115.556 645.597H101.655C101.456 645.597 101.371 645.512 101.371 645.313ZM118.872 626.986C120.631 626.107 123.212 625.454 125.085 625.454C127.383 625.454 131.978 626.078 131.978 629.88C131.978 632.036 130.503 633.54 128.262 634.419C130.333 635.128 132.262 636.774 132.262 640.036C132.262 645.228 127.326 645.88 124.801 645.88C122.702 645.88 119.893 645.228 118.021 644.348C117.85 644.263 117.794 644.121 117.85 643.951L118.333 642.079C118.389 641.909 118.503 641.824 118.673 641.909C120.489 642.76 122.758 643.327 124.858 643.327C126.475 643.327 129.368 642.902 129.368 640.178C129.368 637.738 127.014 636.462 124.773 636.462H122.616C122.418 636.462 122.333 636.377 122.333 636.178V634.192C122.333 633.993 122.418 633.908 122.616 633.908H125.312C125.482 633.908 125.68 633.908 125.851 633.908C128.12 632.915 129.085 632.093 129.085 630.703C129.085 628.433 126.531 628.007 125.028 628.007C123.155 628.007 121.113 628.575 119.524 629.426C119.354 629.511 119.24 629.426 119.184 629.256L118.701 627.383C118.645 627.213 118.701 627.071 118.872 626.986ZM145.366 645.313V639.213H133.962C133.763 639.213 133.678 639.128 133.678 638.93V636.66L145.366 625.738H147.92C148.118 625.738 148.203 625.823 148.203 626.022V636.66H150.473C150.671 636.66 150.757 636.745 150.757 636.944V638.93C150.757 639.128 150.671 639.213 150.473 639.213H148.203V645.313C148.203 645.512 148.118 645.597 147.92 645.597H145.65C145.451 645.597 145.366 645.512 145.366 645.313ZM137.281 636.66H145.366V629.029L137.281 636.66ZM153.073 635.213L153.498 626.022C153.498 625.823 153.583 625.738 153.782 625.738H165.981C166.18 625.738 166.265 625.823 166.265 626.022V628.007C166.265 628.206 166.18 628.291 165.981 628.291H156.222L155.938 633.965H156.335C157.243 632.433 158.917 632.036 160.591 632.036C163.343 632.036 166.889 633.426 166.889 639.213C166.889 645.143 161.896 645.88 159.314 645.88C157.158 645.88 154.293 645.228 152.363 644.348C152.193 644.263 152.137 644.121 152.193 643.951L152.676 642.079C152.732 641.909 152.846 641.824 153.016 641.909C154.945 642.76 157.243 643.327 159.399 643.327C161.016 643.327 163.995 642.816 163.995 639.384C163.995 635.752 161.47 634.504 159.172 634.504C157.839 634.504 156.619 634.901 155.91 635.497H153.356C153.158 635.497 153.073 635.412 153.073 635.213ZM168.865 639.072V631.44C168.865 627.468 172.27 625.454 176.355 625.454C179.078 625.454 181.405 625.88 183.192 627.1C183.334 627.213 183.391 627.355 183.334 627.525L182.653 629.341C182.596 629.511 182.511 629.568 182.341 629.454C180.355 628.234 178.426 628.007 176.355 628.007C173.83 628.007 171.702 628.717 171.702 631.412V634.873H172.014C172.752 633.114 173.887 632.291 176.525 632.291C180.781 632.291 184.185 634.391 184.185 639.072C184.185 643.781 180.781 645.88 176.525 645.88C172.326 645.88 168.865 643.781 168.865 639.072ZM171.702 638.93C171.702 642.476 173.887 643.043 176.525 643.043C179.164 643.043 181.348 642.476 181.348 638.93C181.348 635.412 179.164 634.845 176.525 634.845C173.887 634.845 171.702 635.412 171.702 638.93ZM189.495 645.313C189.892 642.533 190.658 639.497 191.878 636.887C193.268 633.823 195.537 631.128 197.353 628.291H185.892C185.693 628.291 185.608 628.206 185.608 628.007V626.022C185.608 625.823 185.693 625.738 185.892 625.738H199.906C200.105 625.738 200.19 625.823 200.19 626.022V628.291C198.374 631.128 196.105 633.823 194.715 636.887C193.495 639.497 192.729 642.533 192.332 645.313C192.303 645.512 192.218 645.597 192.02 645.597H189.75C189.551 645.597 189.466 645.512 189.495 645.313ZM201.809 630.504C201.809 626.986 205.185 625.426 209.185 625.426C213.27 625.426 216.561 626.986 216.561 630.504C216.561 632.49 215.54 633.852 213.923 634.646C215.88 635.611 217.128 637.284 217.128 639.781C217.128 644.008 213.61 645.88 209.185 645.88C204.844 645.88 201.241 644.008 201.241 639.781C201.241 637.284 202.518 635.611 204.475 634.646C202.858 633.852 201.809 632.49 201.809 630.504ZM204.078 639.639C204.078 642.561 206.405 643.043 209.185 643.043C211.965 643.043 214.291 642.561 214.291 639.639C214.291 636.745 211.965 636.263 209.185 636.263C206.405 636.263 204.078 636.745 204.078 639.639ZM204.646 630.93C204.646 633.256 206.745 633.625 209.185 633.625C211.625 633.625 213.724 633.256 213.724 630.93C213.724 628.632 211.625 628.263 209.185 628.263C206.745 628.263 204.646 628.632 204.646 630.93ZM234.425 632.263V639.894C234.425 643.866 231.021 645.88 226.935 645.88C224.212 645.88 221.886 645.455 220.098 644.235C219.956 644.121 219.9 643.98 219.956 643.809L220.637 641.994C220.694 641.824 220.779 641.767 220.949 641.88C222.935 643.1 224.864 643.327 226.935 643.327C229.46 643.327 231.588 642.618 231.588 639.923V636.462H231.276C230.538 638.221 229.404 639.043 226.765 639.043C222.51 639.043 219.105 636.944 219.105 632.263C219.105 627.554 222.51 625.454 226.765 625.454C230.964 625.454 234.425 627.554 234.425 632.263ZM231.588 632.405C231.588 628.859 229.404 628.291 226.765 628.291C224.127 628.291 221.942 628.859 221.942 632.405C221.942 635.923 224.127 636.49 226.765 636.49C229.404 636.49 231.588 635.923 231.588 632.405Z" fill="white"/>
<path d="M671.568 406.367V427H669.07V406.367H671.568ZM677.215 417.691V427H674.837V411.526H677.134V413.943H677.335C677.698 413.158 678.249 412.526 678.988 412.049C679.727 411.566 680.68 411.324 681.849 411.324C682.897 411.324 683.813 411.539 684.599 411.969C685.385 412.392 685.996 413.037 686.433 413.903C686.869 414.763 687.088 415.851 687.088 417.167V427H684.71V417.328C684.71 416.113 684.394 415.166 683.763 414.487C683.132 413.802 682.265 413.46 681.164 413.46C680.405 413.46 679.727 413.624 679.129 413.954C678.538 414.283 678.071 414.763 677.728 415.394C677.386 416.026 677.215 416.791 677.215 417.691ZM696.743 411.526V413.54H688.724V411.526H696.743ZM691.061 407.818H693.439V422.567C693.439 423.239 693.536 423.743 693.731 424.078C693.933 424.407 694.188 424.629 694.497 424.743C694.813 424.851 695.145 424.905 695.494 424.905C695.756 424.905 695.971 424.891 696.139 424.864C696.307 424.831 696.441 424.804 696.542 424.784L697.026 426.919C696.864 426.98 696.639 427.04 696.351 427.101C696.062 427.168 695.696 427.201 695.252 427.201C694.581 427.201 693.923 427.057 693.278 426.768C692.64 426.479 692.109 426.04 691.686 425.449C691.27 424.857 691.061 424.112 691.061 423.212V407.818ZM705.223 427.322C703.732 427.322 702.446 426.993 701.365 426.335C700.29 425.67 699.461 424.743 698.876 423.555C698.299 422.359 698.01 420.969 698.01 419.384C698.01 417.799 698.299 416.402 698.876 415.193C699.461 413.977 700.273 413.03 701.314 412.352C702.362 411.667 703.584 411.324 704.981 411.324C705.787 411.324 706.583 411.458 707.369 411.727C708.155 411.996 708.87 412.432 709.515 413.037C710.16 413.635 710.673 414.427 711.056 415.414C711.439 416.402 711.631 417.617 711.631 419.061V420.069H699.702V418.014H709.213C709.213 417.14 709.038 416.361 708.689 415.676C708.346 414.991 707.856 414.451 707.218 414.054C706.587 413.658 705.841 413.46 704.981 413.46C704.034 413.46 703.215 413.695 702.523 414.165C701.838 414.629 701.311 415.233 700.942 415.979C700.572 416.724 700.387 417.523 700.387 418.376V419.746C700.387 420.915 700.589 421.906 700.992 422.718C701.402 423.524 701.969 424.139 702.694 424.562C703.42 424.978 704.263 425.187 705.223 425.187C705.848 425.187 706.412 425.099 706.916 424.925C707.426 424.743 707.866 424.475 708.235 424.119C708.605 423.756 708.89 423.306 709.092 422.769L711.389 423.413C711.147 424.193 710.741 424.878 710.17 425.469C709.599 426.053 708.894 426.51 708.054 426.839C707.215 427.161 706.271 427.322 705.223 427.322ZM713.829 427V411.526H716.126V413.863H716.287C716.569 413.097 717.08 412.476 717.818 411.999C718.557 411.522 719.39 411.284 720.317 411.284C720.491 411.284 720.71 411.287 720.972 411.294C721.234 411.301 721.432 411.311 721.566 411.324V413.742C721.485 413.722 721.301 413.692 721.012 413.651C720.73 413.604 720.431 413.581 720.115 413.581C719.363 413.581 718.691 413.739 718.1 414.054C717.516 414.363 717.053 414.793 716.71 415.344C716.374 415.888 716.206 416.509 716.206 417.208V427H713.829Z" fill="white"/>
<path d="M674.933 503H668.385L687.325 451.419H693.773L712.713 503H706.164L690.75 459.579H690.347L674.933 503ZM677.351 482.851H703.746V488.392H677.351V482.851ZM727.779 503.907C725.327 503.907 723.103 503.445 721.105 502.521C719.106 501.581 717.52 500.23 716.344 498.466C715.169 496.687 714.581 494.537 714.581 492.019C714.581 489.802 715.018 488.006 715.891 486.629C716.764 485.235 717.931 484.144 719.392 483.355C720.853 482.566 722.465 481.978 724.228 481.592C726.008 481.189 727.796 480.87 729.592 480.635C731.943 480.332 733.849 480.106 735.31 479.955C736.787 479.787 737.862 479.51 738.533 479.123C739.222 478.737 739.566 478.066 739.566 477.109V476.907C739.566 474.422 738.886 472.491 737.526 471.114C736.183 469.737 734.143 469.049 731.406 469.049C728.568 469.049 726.343 469.67 724.731 470.913C723.119 472.155 721.986 473.482 721.331 474.892L715.69 472.877C716.697 470.527 718.04 468.696 719.719 467.387C721.415 466.06 723.262 465.137 725.26 464.616C727.275 464.079 729.257 463.81 731.204 463.81C732.447 463.81 733.874 463.961 735.486 464.264C737.115 464.549 738.685 465.145 740.196 466.052C741.724 466.959 742.991 468.327 743.999 470.157C745.006 471.987 745.51 474.439 745.51 477.512V503H739.566V497.761H739.264C738.861 498.601 738.189 499.499 737.249 500.456C736.309 501.413 735.058 502.228 733.496 502.899C731.935 503.571 730.029 503.907 727.779 503.907ZM728.686 498.567C731.036 498.567 733.018 498.105 734.63 497.182C736.258 496.258 737.484 495.066 738.307 493.606C739.146 492.145 739.566 490.608 739.566 488.996V483.556C739.314 483.858 738.76 484.136 737.904 484.387C737.064 484.622 736.09 484.832 734.982 485.017C733.891 485.185 732.825 485.336 731.784 485.47C730.759 485.588 729.928 485.689 729.29 485.773C727.745 485.974 726.301 486.302 724.958 486.755C723.632 487.191 722.557 487.855 721.734 488.745C720.928 489.618 720.525 490.81 720.525 492.321C720.525 494.386 721.289 495.948 722.817 497.006C724.362 498.047 726.318 498.567 728.686 498.567Z" fill="white"/>
<path d="M669.916 573.597H667.297L674.873 552.964H677.452L685.028 573.597H682.408L676.243 556.228H676.082L669.916 573.597ZM670.883 565.537H681.441V567.753H670.883V565.537ZM686.823 573.597V552.964H694.036C695.474 552.964 696.659 553.213 697.593 553.71C698.526 554.2 699.221 554.861 699.678 555.694C700.135 556.52 700.363 557.437 700.363 558.445C700.363 559.331 700.205 560.063 699.89 560.641C699.581 561.218 699.171 561.675 698.661 562.011C698.157 562.347 697.61 562.595 697.019 562.757V562.958C697.65 562.998 698.285 563.22 698.923 563.623C699.561 564.026 700.095 564.604 700.524 565.356C700.954 566.108 701.169 567.028 701.169 568.116C701.169 569.15 700.934 570.081 700.464 570.907C699.994 571.733 699.252 572.388 698.238 572.871C697.223 573.355 695.904 573.597 694.278 573.597H686.823ZM689.322 571.38H694.278C695.91 571.38 697.069 571.065 697.754 570.433C698.446 569.795 698.792 569.023 698.792 568.116C698.792 567.418 698.614 566.773 698.258 566.182C697.902 565.584 697.395 565.107 696.736 564.751C696.078 564.389 695.299 564.207 694.399 564.207H689.322V571.38ZM689.322 562.031H693.956C694.708 562.031 695.386 561.883 695.991 561.588C696.602 561.292 697.086 560.876 697.442 560.339C697.804 559.801 697.986 559.17 697.986 558.445C697.986 557.538 697.67 556.769 697.039 556.138C696.407 555.5 695.407 555.181 694.036 555.181H689.322V562.031ZM720.459 559.412H717.96C717.813 558.693 717.554 558.062 717.185 557.518C716.822 556.974 716.379 556.517 715.855 556.148C715.338 555.772 714.763 555.489 714.132 555.301C713.501 555.113 712.843 555.019 712.157 555.019C710.908 555.019 709.777 555.335 708.762 555.966C707.755 556.598 706.952 557.528 706.355 558.757C705.764 559.986 705.468 561.494 705.468 563.28C705.468 565.067 705.764 566.575 706.355 567.804C706.952 569.033 707.755 569.963 708.762 570.594C709.777 571.226 710.908 571.541 712.157 571.541C712.843 571.541 713.501 571.447 714.132 571.259C714.763 571.071 715.338 570.793 715.855 570.423C716.379 570.047 716.822 569.587 717.185 569.043C717.554 568.492 717.813 567.861 717.96 567.149H720.459C720.271 568.203 719.928 569.147 719.431 569.98C718.934 570.813 718.316 571.521 717.578 572.106C716.839 572.683 716.009 573.123 715.089 573.425C714.176 573.728 713.198 573.879 712.157 573.879C710.398 573.879 708.833 573.449 707.463 572.589C706.093 571.73 705.015 570.507 704.229 568.922C703.443 567.337 703.05 565.456 703.05 563.28C703.05 561.104 703.443 559.224 704.229 557.639C705.015 556.054 706.093 554.831 707.463 553.972C708.833 553.112 710.398 552.682 712.157 552.682C713.198 552.682 714.176 552.833 715.089 553.135C716.009 553.438 716.839 553.881 717.578 554.465C718.316 555.043 718.934 555.748 719.431 556.581C719.928 557.407 720.271 558.351 720.459 559.412ZM729.445 573.597H723.078V552.964H729.727C731.728 552.964 733.441 553.377 734.865 554.203C736.289 555.023 737.38 556.201 738.139 557.739C738.898 559.271 739.277 561.104 739.277 563.24C739.277 565.389 738.895 567.24 738.129 568.791C737.363 570.336 736.248 571.525 734.784 572.358C733.32 573.184 731.54 573.597 729.445 573.597ZM725.576 571.38H729.284C730.99 571.38 732.403 571.051 733.525 570.393C734.647 569.735 735.483 568.798 736.033 567.582C736.584 566.367 736.86 564.919 736.86 563.24C736.86 561.574 736.588 560.141 736.044 558.938C735.5 557.729 734.687 556.803 733.606 556.158C732.524 555.506 731.178 555.181 729.566 555.181H725.576V571.38ZM742.05 573.597V552.964H754.502V555.181H744.548V562.152H753.857V564.368H744.548V571.38H754.663V573.597H742.05ZM757.587 573.597V552.964H769.958V555.181H760.085V562.152H769.031V564.368H760.085V573.597H757.587ZM786.923 559.412C786.702 558.733 786.409 558.126 786.047 557.588C785.691 557.044 785.264 556.581 784.767 556.198C784.277 555.815 783.72 555.523 783.095 555.322C782.47 555.12 781.785 555.019 781.04 555.019C779.817 555.019 778.706 555.335 777.705 555.966C776.704 556.598 775.908 557.528 775.317 558.757C774.726 559.986 774.431 561.494 774.431 563.28C774.431 565.067 774.73 566.575 775.327 567.804C775.925 569.033 776.735 569.963 777.755 570.594C778.776 571.226 779.925 571.541 781.201 571.541C782.383 571.541 783.424 571.29 784.324 570.786C785.231 570.275 785.936 569.557 786.44 568.63C786.95 567.696 787.205 566.598 787.205 565.336L787.971 565.497H781.765V563.28H789.623V565.497C789.623 567.196 789.26 568.674 788.535 569.93C787.816 571.186 786.822 572.159 785.553 572.851C784.29 573.536 782.84 573.879 781.201 573.879C779.374 573.879 777.769 573.449 776.385 572.589C775.008 571.73 773.934 570.507 773.161 568.922C772.396 567.337 772.013 565.456 772.013 563.28C772.013 561.648 772.231 560.181 772.668 558.878C773.111 557.568 773.736 556.453 774.542 555.533C775.348 554.613 776.301 553.908 777.403 553.417C778.504 552.927 779.717 552.682 781.04 552.682C782.128 552.682 783.142 552.847 784.082 553.176C785.029 553.498 785.872 553.958 786.611 554.556C787.356 555.147 787.978 555.856 788.475 556.682C788.972 557.501 789.314 558.411 789.502 559.412H786.923ZM792.484 573.597V552.964H794.982V562.152H805.984V552.964H808.482V573.597H805.984V564.368H794.982V573.597H792.484ZM814.564 552.964V573.597H812.066V552.964H814.564ZM826.054 552.964H828.552V567.713C828.552 569.03 828.31 570.148 827.827 571.068C827.343 571.988 826.661 572.687 825.782 573.163C824.902 573.64 823.864 573.879 822.668 573.879C821.54 573.879 820.536 573.674 819.656 573.264C818.776 572.848 818.085 572.257 817.581 571.491C817.077 570.725 816.825 569.815 816.825 568.761H819.283C819.283 569.345 819.428 569.856 819.717 570.292C820.012 570.722 820.415 571.058 820.926 571.3C821.436 571.541 822.017 571.662 822.668 571.662C823.387 571.662 823.998 571.511 824.502 571.209C825.006 570.907 825.389 570.464 825.651 569.879C825.919 569.288 826.054 568.566 826.054 567.713V552.964ZM832.141 573.597V552.964H834.639V563.2H834.881L844.149 552.964H847.413L838.749 562.273L847.413 573.597H844.391L837.218 564.006L834.639 566.907V573.597H832.141ZM849.229 573.597V552.964H851.727V571.38H861.318V573.597H849.229ZM863.768 552.964H866.75L873.762 570.091H874.004L881.016 552.964H883.998V573.597H881.661V557.921H881.459L875.011 573.597H872.755L866.307 557.921H866.106V573.597H863.768V552.964ZM903.95 552.964V573.597H901.532L890.289 557.397H890.087V573.597H887.589V552.964H890.007L901.29 569.204H901.492V552.964H903.95ZM924.94 563.28C924.94 565.456 924.547 567.337 923.761 568.922C922.975 570.507 921.897 571.73 920.527 572.589C919.157 573.449 917.592 573.879 915.832 573.879C914.073 573.879 912.508 573.449 911.138 572.589C909.767 571.73 908.689 570.507 907.904 568.922C907.118 567.337 906.725 565.456 906.725 563.28C906.725 561.104 907.118 559.224 907.904 557.639C908.689 556.054 909.767 554.831 911.138 553.972C912.508 553.112 914.073 552.682 915.832 552.682C917.592 552.682 919.157 553.112 920.527 553.972C921.897 554.831 922.975 556.054 923.761 557.639C924.547 559.224 924.94 561.104 924.94 563.28ZM922.522 563.28C922.522 561.494 922.223 559.986 921.625 558.757C921.034 557.528 920.231 556.598 919.217 555.966C918.21 555.335 917.082 555.019 915.832 555.019C914.583 555.019 913.451 555.335 912.437 555.966C911.43 556.598 910.627 557.528 910.029 558.757C909.438 559.986 909.143 561.494 909.143 563.28C909.143 565.067 909.438 566.575 910.029 567.804C910.627 569.033 911.43 569.963 912.437 570.594C913.451 571.226 914.583 571.541 915.832 571.541C917.082 571.541 918.21 571.226 919.217 570.594C920.231 569.963 921.034 569.033 921.625 567.804C922.223 566.575 922.522 565.067 922.522 563.28ZM927.722 573.597V552.964H934.694C936.312 552.964 937.635 553.256 938.663 553.841C939.697 554.418 940.463 555.201 940.96 556.188C941.457 557.175 941.706 558.277 941.706 559.492C941.706 560.708 941.457 561.813 940.96 562.807C940.47 563.801 939.711 564.593 938.683 565.184C937.656 565.769 936.339 566.061 934.734 566.061H929.737V563.845H934.653C935.762 563.845 936.652 563.653 937.323 563.27C937.995 562.888 938.482 562.37 938.784 561.719C939.093 561.061 939.247 560.319 939.247 559.492C939.247 558.666 939.093 557.927 938.784 557.276C938.482 556.625 937.991 556.114 937.313 555.745C936.635 555.369 935.735 555.181 934.613 555.181H930.221V573.597H927.722ZM951.807 567.149H954.548L956.844 570.171L957.449 570.977L960.874 575.531H958.134L955.877 572.509L955.313 571.743L951.807 567.149ZM961.721 563.28C961.721 565.456 961.328 567.337 960.542 568.922C959.756 570.507 958.678 571.73 957.308 572.589C955.938 573.449 954.373 573.879 952.613 573.879C950.854 573.879 949.289 573.449 947.918 572.589C946.548 571.73 945.47 570.507 944.685 568.922C943.899 567.337 943.506 565.456 943.506 563.28C943.506 561.104 943.899 559.224 944.685 557.639C945.47 556.054 946.548 554.831 947.918 553.972C949.289 553.112 950.854 552.682 952.613 552.682C954.373 552.682 955.938 553.112 957.308 553.972C958.678 554.831 959.756 556.054 960.542 557.639C961.328 559.224 961.721 561.104 961.721 563.28ZM959.303 563.28C959.303 561.494 959.004 559.986 958.406 558.757C957.815 557.528 957.012 556.598 955.998 555.966C954.991 555.335 953.862 555.019 952.613 555.019C951.364 555.019 950.232 555.335 949.218 555.966C948.211 556.598 947.408 557.528 946.81 558.757C946.219 559.986 945.924 561.494 945.924 563.28C945.924 565.067 946.219 566.575 946.81 567.804C947.408 569.033 948.211 569.963 949.218 570.594C950.232 571.226 951.364 571.541 952.613 571.541C953.862 571.541 954.991 571.226 955.998 570.594C957.012 569.963 957.815 569.033 958.406 567.804C959.004 566.575 959.303 565.067 959.303 563.28ZM964.503 573.597V552.964H971.475C973.087 552.964 974.41 553.24 975.444 553.79C976.478 554.334 977.244 555.083 977.741 556.037C978.238 556.991 978.486 558.075 978.486 559.291C978.486 560.507 978.238 561.585 977.741 562.525C977.244 563.465 976.482 564.204 975.454 564.741C974.426 565.272 973.113 565.537 971.515 565.537H965.873V563.28H971.434C972.536 563.28 973.422 563.119 974.094 562.797C974.772 562.474 975.263 562.018 975.565 561.427C975.874 560.829 976.028 560.117 976.028 559.291C976.028 558.465 975.874 557.743 975.565 557.125C975.256 556.507 974.762 556.03 974.084 555.694C973.406 555.352 972.509 555.181 971.394 555.181H967.002V573.597H964.503ZM974.215 564.328L979.292 573.597H976.391L971.394 564.328H974.215ZM982.44 552.964L987.76 561.548H987.921L993.24 552.964H996.182L989.694 563.28L996.182 573.597H993.24L987.921 565.174H987.76L982.44 573.597H979.498L986.148 563.28L979.498 552.964H982.44ZM996.887 555.181V552.964H1012.36V555.181H1005.87V573.597H1003.37V555.181H996.887ZM1028.34 552.964H1030.84V566.625C1030.84 568.036 1030.5 569.295 1029.84 570.403C1029.18 571.505 1028.25 572.374 1027.05 573.012C1025.85 573.644 1024.44 573.959 1022.82 573.959C1021.2 573.959 1019.79 573.644 1018.59 573.012C1017.38 572.374 1016.45 571.505 1015.79 570.403C1015.13 569.295 1014.8 568.036 1014.8 566.625V552.964H1017.3V566.424C1017.3 567.431 1017.52 568.328 1017.96 569.114C1018.41 569.893 1019.04 570.507 1019.86 570.957C1020.68 571.4 1021.67 571.622 1022.82 571.622C1023.97 571.622 1024.95 571.4 1025.78 570.957C1026.61 570.507 1027.24 569.893 1027.67 569.114C1028.12 568.328 1028.34 567.431 1028.34 566.424V552.964ZM1035.25 552.964L1041.38 570.333H1041.62L1047.75 552.964H1050.37L1042.79 573.597H1040.21L1032.63 552.964H1035.25ZM1055.91 573.597L1050.27 552.964H1052.81L1057.12 569.768H1057.32L1061.71 552.964H1064.53L1068.93 569.768H1069.13L1073.44 552.964H1075.98L1070.34 573.597H1067.76L1063.2 557.155H1063.04L1058.49 573.597H1055.91ZM1078.88 552.964L1084.2 561.548H1084.36L1089.68 552.964H1092.62L1086.13 563.28L1092.62 573.597H1089.68L1084.36 565.174H1084.2L1078.88 573.597H1075.94L1082.59 563.28L1075.94 552.964H1078.88ZM1092.68 552.964H1095.54L1101.27 562.595H1101.51L1107.23 552.964H1110.09L1102.64 565.094V573.597H1100.14V565.094L1092.68 552.964ZM1111.22 573.597V571.783L1122.34 555.181H1111.1V552.964H1125.32V554.778L1114.2 571.38H1125.44V573.597H1111.22Z" fill="white"/>
<path d="M673.301 607.959C672.321 607.959 671.431 607.775 670.631 607.405C669.832 607.029 669.197 606.488 668.727 605.783C668.257 605.071 668.022 604.212 668.022 603.204C668.022 602.318 668.197 601.599 668.546 601.048C668.895 600.491 669.362 600.054 669.946 599.739C670.531 599.423 671.175 599.188 671.881 599.033C672.593 598.872 673.308 598.745 674.027 598.651C674.967 598.53 675.729 598.439 676.313 598.379C676.904 598.311 677.334 598.201 677.603 598.046C677.878 597.892 678.016 597.623 678.016 597.24V597.16C678.016 596.165 677.744 595.393 677.2 594.842C676.663 594.292 675.847 594.016 674.752 594.016C673.617 594.016 672.727 594.265 672.082 594.762C671.437 595.259 670.984 595.789 670.722 596.354L668.465 595.548C668.868 594.607 669.406 593.875 670.077 593.351C670.756 592.821 671.494 592.451 672.294 592.243C673.1 592.028 673.892 591.921 674.671 591.921C675.168 591.921 675.739 591.981 676.384 592.102C677.035 592.216 677.663 592.455 678.268 592.817C678.879 593.18 679.386 593.727 679.789 594.46C680.192 595.192 680.394 596.172 680.394 597.401V607.597H678.016V605.501H677.895C677.734 605.837 677.465 606.196 677.089 606.579C676.713 606.962 676.213 607.288 675.588 607.556C674.963 607.825 674.201 607.959 673.301 607.959ZM673.664 605.824C674.604 605.824 675.397 605.639 676.041 605.269C676.693 604.9 677.183 604.423 677.512 603.839C677.848 603.255 678.016 602.64 678.016 601.995V599.819C677.915 599.94 677.694 600.051 677.351 600.152C677.015 600.246 676.626 600.33 676.182 600.403C675.746 600.471 675.319 600.531 674.903 600.585C674.493 600.632 674.161 600.672 673.906 600.706C673.288 600.786 672.71 600.917 672.173 601.099C671.642 601.273 671.212 601.539 670.883 601.895C670.561 602.244 670.4 602.721 670.4 603.325C670.4 604.151 670.705 604.776 671.316 605.199C671.934 605.615 672.717 605.824 673.664 605.824ZM683.637 607.597V586.964H686.015V594.58H686.216C686.391 594.312 686.633 593.969 686.942 593.553C687.257 593.13 687.707 592.754 688.291 592.425C688.883 592.089 689.682 591.921 690.689 591.921C691.992 591.921 693.141 592.247 694.135 592.898C695.129 593.549 695.904 594.473 696.462 595.668C697.019 596.864 697.298 598.274 697.298 599.9C697.298 601.539 697.019 602.959 696.462 604.161C695.904 605.357 695.132 606.284 694.145 606.942C693.157 607.593 692.019 607.919 690.73 607.919C689.736 607.919 688.94 607.755 688.342 607.425C687.744 607.09 687.284 606.71 686.962 606.287C686.639 605.857 686.391 605.501 686.216 605.219H685.934V607.597H683.637ZM685.974 599.859C685.974 601.028 686.146 602.059 686.488 602.952C686.831 603.839 687.331 604.534 687.989 605.038C688.647 605.535 689.453 605.783 690.407 605.783C691.401 605.783 692.231 605.521 692.896 604.997C693.567 604.467 694.071 603.755 694.407 602.862C694.749 601.962 694.921 600.961 694.921 599.859C694.921 598.771 694.753 597.791 694.417 596.918C694.088 596.038 693.587 595.343 692.916 594.832C692.251 594.315 691.415 594.057 690.407 594.057C689.44 594.057 688.627 594.302 687.969 594.792C687.311 595.276 686.814 595.954 686.478 596.827C686.142 597.693 685.974 598.704 685.974 599.859ZM705.803 607.919C704.352 607.919 703.103 607.577 702.055 606.891C701.008 606.206 700.202 605.263 699.637 604.061C699.073 602.858 698.791 601.485 698.791 599.94C698.791 598.368 699.08 596.982 699.658 595.779C700.242 594.57 701.055 593.627 702.096 592.948C703.143 592.263 704.366 591.921 705.763 591.921C706.851 591.921 707.831 592.122 708.704 592.525C709.578 592.928 710.293 593.492 710.85 594.218C711.408 594.943 711.754 595.789 711.888 596.757H709.51C709.329 596.051 708.926 595.427 708.301 594.883C707.684 594.332 706.851 594.057 705.803 594.057C704.876 594.057 704.063 594.298 703.365 594.782C702.673 595.259 702.132 595.934 701.743 596.807C701.36 597.673 701.169 598.691 701.169 599.859C701.169 601.055 701.357 602.096 701.733 602.983C702.116 603.869 702.653 604.558 703.345 605.048C704.043 605.538 704.863 605.783 705.803 605.783C706.421 605.783 706.982 605.676 707.485 605.461C707.989 605.246 708.416 604.937 708.765 604.534C709.114 604.131 709.363 603.647 709.51 603.083H711.888C711.754 603.997 711.421 604.819 710.891 605.552C710.367 606.277 709.672 606.855 708.805 607.284C707.945 607.707 706.945 607.919 705.803 607.919ZM719.788 607.919C718.499 607.919 717.36 607.593 716.373 606.942C715.386 606.284 714.613 605.357 714.056 604.161C713.499 602.959 713.22 601.539 713.22 599.9C713.22 598.274 713.499 596.864 714.056 595.668C714.613 594.473 715.389 593.549 716.383 592.898C717.377 592.247 718.526 591.921 719.829 591.921C720.836 591.921 721.632 592.089 722.216 592.425C722.807 592.754 723.257 593.13 723.566 593.553C723.882 593.969 724.127 594.312 724.302 594.58H724.503V586.964H726.881V607.597H724.584V605.219H724.302C724.127 605.501 723.879 605.857 723.556 606.287C723.234 606.71 722.774 607.09 722.176 607.425C721.578 607.755 720.782 607.919 719.788 607.919ZM720.111 605.783C721.064 605.783 721.87 605.535 722.529 605.038C723.187 604.534 723.687 603.839 724.03 602.952C724.372 602.059 724.544 601.028 724.544 599.859C724.544 598.704 724.376 597.693 724.04 596.827C723.704 595.954 723.207 595.276 722.549 594.792C721.891 594.302 721.078 594.057 720.111 594.057C719.103 594.057 718.264 594.315 717.592 594.832C716.927 595.343 716.427 596.038 716.091 596.918C715.762 597.791 715.597 598.771 715.597 599.859C715.597 600.961 715.765 601.962 716.101 602.862C716.444 603.755 716.947 604.467 717.612 604.997C718.284 605.521 719.117 605.783 720.111 605.783ZM736.635 607.919C735.144 607.919 733.858 607.59 732.776 606.932C731.702 606.267 730.872 605.34 730.288 604.151C729.71 602.956 729.422 601.565 729.422 599.98C729.422 598.395 729.71 596.998 730.288 595.789C730.872 594.574 731.685 593.627 732.726 592.948C733.774 592.263 734.996 591.921 736.393 591.921C737.199 591.921 737.995 592.055 738.781 592.324C739.567 592.592 740.282 593.029 740.927 593.633C741.571 594.231 742.085 595.024 742.468 596.011C742.851 596.998 743.042 598.214 743.042 599.658V600.665H731.114V598.61H740.624C740.624 597.737 740.45 596.958 740.101 596.273C739.758 595.588 739.268 595.047 738.63 594.651C737.998 594.255 737.253 594.057 736.393 594.057C735.446 594.057 734.627 594.292 733.935 594.762C733.25 595.225 732.723 595.83 732.353 596.575C731.984 597.321 731.799 598.12 731.799 598.973V600.343C731.799 601.512 732.001 602.502 732.404 603.315C732.813 604.121 733.381 604.736 734.106 605.159C734.832 605.575 735.674 605.783 736.635 605.783C737.26 605.783 737.824 605.696 738.327 605.521C738.838 605.34 739.278 605.071 739.647 604.715C740.017 604.353 740.302 603.903 740.504 603.365L742.801 604.01C742.559 604.789 742.152 605.474 741.581 606.065C741.011 606.65 740.305 607.106 739.466 607.435C738.626 607.758 737.683 607.919 736.635 607.919ZM752.131 592.122V594.137H743.79V592.122H752.131ZM746.288 607.597V589.986C746.288 589.1 746.496 588.361 746.913 587.77C747.329 587.179 747.87 586.736 748.535 586.44C749.2 586.145 749.902 585.997 750.64 585.997C751.225 585.997 751.702 586.044 752.071 586.138C752.44 586.232 752.716 586.319 752.897 586.4L752.212 588.455C752.091 588.415 751.923 588.364 751.708 588.304C751.5 588.244 751.225 588.213 750.882 588.213C750.096 588.213 749.529 588.412 749.18 588.808C748.837 589.204 748.666 589.785 748.666 590.551V607.597H746.288ZM759.654 613.722C758.506 613.722 757.518 613.574 756.692 613.279C755.866 612.99 755.178 612.607 754.627 612.13C754.083 611.66 753.65 611.156 753.327 610.619L755.221 609.289C755.436 609.571 755.708 609.894 756.037 610.256C756.366 610.626 756.816 610.945 757.387 611.213C757.965 611.489 758.721 611.626 759.654 611.626C760.903 611.626 761.934 611.324 762.747 610.72C763.56 610.115 763.966 609.168 763.966 607.879V604.736H763.764C763.59 605.018 763.341 605.367 763.019 605.783C762.703 606.193 762.247 606.559 761.649 606.881C761.058 607.197 760.259 607.355 759.251 607.355C758.002 607.355 756.88 607.059 755.886 606.468C754.899 605.877 754.116 605.018 753.539 603.889C752.968 602.761 752.683 601.391 752.683 599.779C752.683 598.194 752.961 596.814 753.519 595.638C754.076 594.456 754.852 593.543 755.846 592.898C756.84 592.247 757.988 591.921 759.291 591.921C760.299 591.921 761.098 592.089 761.689 592.425C762.287 592.754 762.744 593.13 763.059 593.553C763.382 593.969 763.63 594.312 763.805 594.58H764.047V592.122H766.344V608.04C766.344 609.37 766.041 610.451 765.437 611.284C764.839 612.123 764.033 612.738 763.019 613.128C762.012 613.524 760.89 613.722 759.654 613.722ZM759.574 605.219C760.527 605.219 761.333 605.001 761.991 604.564C762.65 604.128 763.15 603.5 763.492 602.68C763.835 601.861 764.006 600.88 764.006 599.739C764.006 598.624 763.838 597.64 763.503 596.787C763.167 595.934 762.67 595.266 762.012 594.782C761.353 594.298 760.541 594.057 759.574 594.057C758.566 594.057 757.727 594.312 757.055 594.822C756.39 595.333 755.89 596.018 755.554 596.877C755.225 597.737 755.06 598.691 755.06 599.739C755.06 600.813 755.228 601.764 755.564 602.59C755.906 603.409 756.41 604.054 757.075 604.524C757.747 604.987 758.579 605.219 759.574 605.219ZM771.655 598.288V607.597H769.277V586.964H771.655V594.54H771.856C772.219 593.741 772.763 593.106 773.488 592.636C774.22 592.159 775.194 591.921 776.41 591.921C777.464 591.921 778.388 592.132 779.18 592.555C779.973 592.972 780.588 593.613 781.024 594.48C781.467 595.339 781.689 596.434 781.689 597.764V607.597H779.311V597.925C779.311 596.696 778.992 595.746 778.354 595.074C777.723 594.396 776.847 594.057 775.725 594.057C774.946 594.057 774.247 594.221 773.629 594.55C773.018 594.879 772.535 595.36 772.179 595.991C771.829 596.622 771.655 597.388 771.655 598.288ZM784.62 607.597V592.122H786.998V607.597H784.62ZM785.829 589.543C785.366 589.543 784.966 589.385 784.63 589.07C784.301 588.754 784.137 588.375 784.137 587.931C784.137 587.488 784.301 587.109 784.63 586.793C784.966 586.477 785.366 586.319 785.829 586.319C786.293 586.319 786.689 586.477 787.018 586.793C787.354 587.109 787.522 587.488 787.522 587.931C787.522 588.375 787.354 588.754 787.018 589.07C786.689 589.385 786.293 589.543 785.829 589.543ZM789.934 592.122H792.312V608.725C792.312 609.679 792.147 610.505 791.818 611.203C791.496 611.902 791.005 612.443 790.347 612.825C789.696 613.208 788.873 613.4 787.879 613.4C787.798 613.4 787.718 613.4 787.637 613.4C787.556 613.4 787.476 613.4 787.395 613.4V611.183C787.476 611.183 787.55 611.183 787.617 611.183C787.684 611.183 787.758 611.183 787.838 611.183C788.564 611.183 789.094 610.968 789.43 610.538C789.766 610.115 789.934 609.511 789.934 608.725V592.122ZM791.103 589.543C790.639 589.543 790.24 589.385 789.904 589.07C789.575 588.754 789.41 588.375 789.41 587.931C789.41 587.488 789.575 587.109 789.904 586.793C790.24 586.477 790.639 586.319 791.103 586.319C791.566 586.319 791.962 586.477 792.291 586.793C792.627 587.109 792.795 587.488 792.795 587.931C792.795 588.375 792.627 588.754 792.291 589.07C791.962 589.385 791.566 589.543 791.103 589.543ZM797.464 601.955L797.424 599.013H797.907L804.677 592.122H807.619L800.406 599.416H800.204L797.464 601.955ZM795.248 607.597V586.964H797.625V607.597H795.248ZM805.08 607.597L799.036 599.94L800.728 598.288L808.103 607.597H805.08ZM811.638 586.964V607.597H809.261V586.964H811.638ZM814.575 607.597V592.122H816.872V594.54H817.073C817.396 593.714 817.916 593.073 818.635 592.616C819.353 592.152 820.216 591.921 821.224 591.921C822.245 591.921 823.094 592.152 823.773 592.616C824.458 593.073 824.992 593.714 825.374 594.54H825.536C825.932 593.741 826.526 593.106 827.319 592.636C828.111 592.159 829.062 591.921 830.17 591.921C831.554 591.921 832.685 592.354 833.565 593.22C834.445 594.08 834.885 595.42 834.885 597.24V607.597H832.507V597.24C832.507 596.098 832.195 595.282 831.57 594.792C830.946 594.302 830.21 594.057 829.364 594.057C828.276 594.057 827.433 594.386 826.835 595.044C826.238 595.695 825.939 596.521 825.939 597.522V607.597H823.521V596.998C823.521 596.118 823.235 595.41 822.664 594.873C822.094 594.329 821.358 594.057 820.458 594.057C819.84 594.057 819.263 594.221 818.725 594.55C818.195 594.879 817.765 595.336 817.436 595.92C817.113 596.498 816.952 597.166 816.952 597.925V607.597H814.575ZM840.191 598.288V607.597H837.813V592.122H840.11V594.54H840.312C840.675 593.754 841.225 593.123 841.964 592.646C842.703 592.163 843.657 591.921 844.825 591.921C845.873 591.921 846.79 592.136 847.576 592.566C848.361 592.989 848.973 593.633 849.409 594.5C849.846 595.36 850.064 596.448 850.064 597.764V607.597H847.686V597.925C847.686 596.71 847.371 595.763 846.739 595.084C846.108 594.399 845.242 594.057 844.14 594.057C843.381 594.057 842.703 594.221 842.105 594.55C841.514 594.879 841.047 595.36 840.705 595.991C840.362 596.622 840.191 597.388 840.191 598.288ZM859.277 607.919C857.88 607.919 856.654 607.587 855.599 606.922C854.552 606.257 853.732 605.327 853.141 604.131C852.557 602.936 852.265 601.539 852.265 599.94C852.265 598.328 852.557 596.921 853.141 595.719C853.732 594.517 854.552 593.583 855.599 592.918C856.654 592.253 857.88 591.921 859.277 591.921C860.674 591.921 861.896 592.253 862.944 592.918C863.998 593.583 864.818 594.517 865.402 595.719C865.993 596.921 866.288 598.328 866.288 599.94C866.288 601.539 865.993 602.936 865.402 604.131C864.818 605.327 863.998 606.257 862.944 606.922C861.896 607.587 860.674 607.919 859.277 607.919ZM859.277 605.783C860.338 605.783 861.211 605.511 861.896 604.967C862.581 604.423 863.088 603.708 863.417 602.821C863.746 601.935 863.911 600.974 863.911 599.94C863.911 598.906 863.746 597.942 863.417 597.049C863.088 596.155 862.581 595.433 861.896 594.883C861.211 594.332 860.338 594.057 859.277 594.057C858.215 594.057 857.342 594.332 856.657 594.883C855.972 595.433 855.465 596.155 855.136 597.049C854.807 597.942 854.642 598.906 854.642 599.94C854.642 600.974 854.807 601.935 855.136 602.821C855.465 603.708 855.972 604.423 856.657 604.967C857.342 605.511 858.215 605.783 859.277 605.783ZM868.499 613.4V592.122H870.796V594.58H871.078C871.253 594.312 871.495 593.969 871.804 593.553C872.119 593.13 872.569 592.754 873.154 592.425C873.745 592.089 874.544 591.921 875.551 591.921C876.854 591.921 878.003 592.247 878.997 592.898C879.991 593.549 880.767 594.473 881.324 595.668C881.882 596.864 882.16 598.274 882.16 599.9C882.16 601.539 881.882 602.959 881.324 604.161C880.767 605.357 879.994 606.284 879.007 606.942C878.02 607.593 876.881 607.919 875.592 607.919C874.598 607.919 873.802 607.755 873.204 607.425C872.606 607.09 872.146 606.71 871.824 606.287C871.502 605.857 871.253 605.501 871.078 605.219H870.877V613.4H868.499ZM870.837 599.859C870.837 601.028 871.008 602.059 871.35 602.952C871.693 603.839 872.193 604.534 872.852 605.038C873.51 605.535 874.316 605.783 875.269 605.783C876.263 605.783 877.093 605.521 877.758 604.997C878.429 604.467 878.933 603.755 879.269 602.862C879.611 601.962 879.783 600.961 879.783 599.859C879.783 598.771 879.615 597.791 879.279 596.918C878.95 596.038 878.45 595.343 877.778 594.832C877.113 594.315 876.277 594.057 875.269 594.057C874.302 594.057 873.49 594.302 872.831 594.792C872.173 595.276 871.676 595.954 871.34 596.827C871.005 597.693 870.837 598.704 870.837 599.859ZM894.927 613.4V605.219H894.725C894.551 605.501 894.302 605.857 893.98 606.287C893.657 606.71 893.197 607.09 892.6 607.425C892.002 607.755 891.206 607.919 890.212 607.919C888.922 607.919 887.784 607.593 886.797 606.942C885.809 606.284 885.037 605.357 884.479 604.161C883.922 602.959 883.643 601.539 883.643 599.9C883.643 598.274 883.922 596.864 884.479 595.668C885.037 594.473 885.813 593.549 886.807 592.898C887.801 592.247 888.949 591.921 890.252 591.921C891.26 591.921 892.056 592.089 892.64 592.425C893.231 592.754 893.681 593.13 893.99 593.553C894.305 593.969 894.551 594.312 894.725 594.58H895.007V592.122H897.304V613.4H894.927ZM890.534 605.783C891.488 605.783 892.294 605.535 892.952 605.038C893.61 604.534 894.111 603.839 894.453 602.952C894.796 602.059 894.967 601.028 894.967 599.859C894.967 598.704 894.799 597.693 894.463 596.827C894.127 595.954 893.63 595.276 892.972 594.792C892.314 594.302 891.501 594.057 890.534 594.057C889.527 594.057 888.687 594.315 888.016 594.832C887.351 595.343 886.85 596.038 886.515 596.918C886.185 597.791 886.021 598.771 886.021 599.859C886.021 600.961 886.189 601.962 886.525 602.862C886.867 603.755 887.371 604.467 888.036 604.997C888.707 605.521 889.54 605.783 890.534 605.783ZM900.238 607.597V592.122H902.535V594.46H902.696C902.978 593.694 903.489 593.073 904.227 592.596C904.966 592.119 905.799 591.88 906.726 591.88C906.901 591.88 907.119 591.884 907.381 591.891C907.643 591.897 907.841 591.907 907.975 591.921V594.339C907.895 594.319 907.71 594.288 907.421 594.248C907.139 594.201 906.84 594.177 906.524 594.177C905.772 594.177 905.101 594.335 904.51 594.651C903.925 594.96 903.462 595.39 903.119 595.941C902.783 596.485 902.616 597.106 902.616 597.804V607.597H900.238ZM911.619 592.122L915.327 598.449L919.034 592.122H921.774L916.777 599.859L921.774 607.597H919.034L915.327 601.592L911.619 607.597H908.879L913.795 599.859L908.879 592.122H911.619ZM930.478 592.122V594.137H922.459V592.122H930.478ZM924.796 588.415H927.174V603.164C927.174 603.836 927.271 604.339 927.466 604.675C927.667 605.004 927.923 605.226 928.231 605.34C928.547 605.447 928.88 605.501 929.229 605.501C929.491 605.501 929.706 605.488 929.874 605.461C930.042 605.427 930.176 605.4 930.277 605.38L930.76 607.516C930.599 607.577 930.374 607.637 930.085 607.697C929.796 607.765 929.43 607.798 928.987 607.798C928.315 607.798 927.657 607.654 927.012 607.365C926.374 607.076 925.844 606.636 925.421 606.045C925.004 605.454 924.796 604.709 924.796 603.809V588.415ZM942.388 601.27V592.122H944.766V607.597H942.388V604.977H942.227C941.864 605.763 941.3 606.431 940.534 606.982C939.769 607.526 938.802 607.798 937.633 607.798C936.666 607.798 935.806 607.587 935.054 607.163C934.302 606.734 933.711 606.089 933.281 605.229C932.851 604.363 932.636 603.271 932.636 601.955V592.122H935.014V601.794C935.014 602.922 935.329 603.822 935.961 604.494C936.599 605.165 937.411 605.501 938.399 605.501C938.99 605.501 939.591 605.35 940.202 605.048C940.82 604.746 941.337 604.282 941.753 603.658C942.177 603.033 942.388 602.237 942.388 601.27ZM960.355 592.122L954.633 607.597H952.215L946.493 592.122H949.072L953.344 604.453H953.505L957.776 592.122H960.355ZM965.581 607.597L960.866 592.122H963.365L966.709 603.97H966.871L970.175 592.122H972.714L975.978 603.93H976.139L979.484 592.122H981.982L977.267 607.597H974.93L971.545 595.709H971.303L967.918 607.597H965.581ZM985.48 592.122L989.188 598.449L992.895 592.122H995.635L990.638 599.859L995.635 607.597H992.895L989.188 601.592L985.48 607.597H982.74L987.656 599.859L982.74 592.122H985.48ZM999.141 613.4C998.738 613.4 998.378 613.366 998.063 613.299C997.747 613.238 997.529 613.178 997.408 613.117L998.012 611.022C998.59 611.17 999.1 611.223 999.544 611.183C999.987 611.143 1000.38 610.945 1000.72 610.589C1001.07 610.24 1001.39 609.672 1001.68 608.886L1002.12 607.677L996.4 592.122H998.98L1003.25 604.453H1003.41L1007.68 592.122H1010.26L1003.69 609.853C1003.4 610.653 1003.03 611.314 1002.6 611.838C1002.16 612.369 1001.65 612.762 1001.07 613.017C1000.5 613.272 999.859 613.4 999.141 613.4ZM1011.54 607.597V605.783L1020.32 594.5V594.339H1011.82V592.122H1023.39V594.016L1014.84 605.219V605.38H1023.67V607.597H1011.54Z" fill="white"/>
<path d="M675.437 641.879C673.919 641.879 672.626 641.466 671.558 640.64C670.49 639.807 669.674 638.601 669.11 637.023C668.546 635.438 668.264 633.524 668.264 631.28C668.264 629.051 668.546 627.147 669.11 625.568C669.681 623.983 670.5 622.774 671.568 621.941C672.643 621.102 673.933 620.682 675.437 620.682C676.941 620.682 678.228 621.102 679.295 621.941C680.37 622.774 681.189 623.983 681.754 625.568C682.325 627.147 682.61 629.051 682.61 631.28C682.61 633.524 682.328 635.438 681.764 637.023C681.2 638.601 680.384 639.807 679.316 640.64C678.248 641.466 676.955 641.879 675.437 641.879ZM675.437 639.662C676.941 639.662 678.11 638.937 678.943 637.486C679.776 636.036 680.192 633.967 680.192 631.28C680.192 629.494 680.001 627.973 679.618 626.717C679.242 625.461 678.698 624.504 677.986 623.845C677.281 623.187 676.431 622.858 675.437 622.858C673.946 622.858 672.781 623.594 671.941 625.064C671.102 626.529 670.682 628.601 670.682 631.28C670.682 633.067 670.87 634.585 671.246 635.834C671.622 637.083 672.163 638.034 672.868 638.685C673.58 639.337 674.436 639.662 675.437 639.662ZM692.273 620.964V641.597H689.775V623.584H689.654L684.617 626.928V624.389L689.775 620.964H692.273ZM696.789 641.597V639.783L703.599 632.328C704.398 631.455 705.057 630.696 705.574 630.051C706.091 629.4 706.474 628.789 706.722 628.218C706.977 627.64 707.105 627.036 707.105 626.404C707.105 625.679 706.93 625.051 706.581 624.52C706.239 623.99 705.769 623.58 705.171 623.291C704.573 623.003 703.901 622.858 703.156 622.858C702.363 622.858 701.672 623.023 701.081 623.352C700.496 623.674 700.043 624.128 699.72 624.712C699.405 625.296 699.247 625.981 699.247 626.767H696.869C696.869 625.558 697.148 624.497 697.706 623.584C698.263 622.67 699.022 621.958 699.982 621.448C700.95 620.937 702.034 620.682 703.236 620.682C704.445 620.682 705.517 620.937 706.45 621.448C707.384 621.958 708.116 622.647 708.646 623.513C709.177 624.379 709.442 625.343 709.442 626.404C709.442 627.163 709.305 627.905 709.029 628.631C708.761 629.349 708.291 630.152 707.619 631.039C706.954 631.918 706.03 632.993 704.848 634.262L700.214 639.219V639.38H709.805V641.597H696.789ZM719.519 641.879C718.189 641.879 717.004 641.65 715.963 641.194C714.928 640.737 714.106 640.102 713.494 639.29C712.89 638.47 712.561 637.52 712.507 636.439H715.046C715.1 637.103 715.328 637.678 715.731 638.161C716.134 638.638 716.661 639.008 717.313 639.269C717.964 639.531 718.686 639.662 719.479 639.662C720.365 639.662 721.151 639.508 721.836 639.199C722.521 638.89 723.058 638.46 723.448 637.909C723.837 637.359 724.032 636.721 724.032 635.995C724.032 635.236 723.844 634.568 723.468 633.99C723.092 633.406 722.541 632.949 721.816 632.62C721.09 632.291 720.204 632.127 719.156 632.127H717.504V629.91H719.156C719.976 629.91 720.694 629.763 721.312 629.467C721.937 629.171 722.424 628.755 722.773 628.218C723.129 627.68 723.307 627.049 723.307 626.324C723.307 625.625 723.152 625.017 722.843 624.5C722.534 623.983 722.098 623.58 721.534 623.291C720.976 623.003 720.318 622.858 719.559 622.858C718.847 622.858 718.176 622.989 717.544 623.251C716.92 623.506 716.409 623.879 716.013 624.369C715.617 624.853 715.402 625.437 715.368 626.122H712.95C712.991 625.041 713.316 624.094 713.928 623.281C714.539 622.462 715.338 621.824 716.325 621.367C717.319 620.91 718.411 620.682 719.599 620.682C720.876 620.682 721.97 620.941 722.884 621.458C723.797 621.968 724.499 622.643 724.989 623.483C725.48 624.322 725.725 625.229 725.725 626.203C725.725 627.365 725.419 628.355 724.808 629.175C724.204 629.994 723.381 630.562 722.34 630.877V631.039C723.643 631.254 724.66 631.808 725.392 632.701C726.124 633.587 726.49 634.686 726.49 635.995C726.49 637.117 726.185 638.124 725.574 639.018C724.969 639.904 724.143 640.603 723.095 641.113C722.048 641.624 720.855 641.879 719.519 641.879ZM728.709 637.365V635.31L737.776 620.964H739.267V624.148H738.259L731.409 634.988V635.149H743.619V637.365H728.709ZM738.421 641.597V636.741V635.784V620.964H740.798V641.597H738.421ZM752.424 641.879C751.242 641.879 750.177 641.644 749.23 641.174C748.283 640.703 747.524 640.059 746.953 639.239C746.382 638.42 746.07 637.486 746.016 636.439H748.434C748.528 637.372 748.951 638.144 749.704 638.756C750.462 639.36 751.369 639.662 752.424 639.662C753.27 639.662 754.022 639.464 754.68 639.068C755.345 638.672 755.866 638.128 756.242 637.436C756.625 636.737 756.816 635.948 756.816 635.068C756.816 634.168 756.618 633.366 756.222 632.661C755.832 631.949 755.295 631.388 754.61 630.978C753.925 630.568 753.142 630.36 752.262 630.354C751.631 630.347 750.983 630.444 750.318 630.646C749.653 630.84 749.106 631.092 748.676 631.401L746.339 631.119L747.588 620.964H758.307V623.181H749.683L748.958 629.266H749.079C749.502 628.93 750.033 628.651 750.671 628.429C751.309 628.208 751.974 628.097 752.665 628.097C753.928 628.097 755.053 628.399 756.04 629.004C757.034 629.601 757.813 630.421 758.378 631.462C758.949 632.503 759.234 633.692 759.234 635.028C759.234 636.345 758.938 637.52 758.347 638.554C757.763 639.582 756.957 640.394 755.93 640.992C754.902 641.583 753.733 641.879 752.424 641.879ZM768.668 641.879C767.822 641.865 766.976 641.704 766.129 641.395C765.283 641.086 764.511 640.566 763.812 639.834C763.114 639.095 762.553 638.097 762.13 636.842C761.707 635.579 761.495 633.994 761.495 632.086C761.495 630.26 761.666 628.641 762.009 627.23C762.352 625.813 762.849 624.621 763.5 623.654C764.152 622.68 764.937 621.941 765.857 621.438C766.784 620.934 767.829 620.682 768.991 620.682C770.146 620.682 771.173 620.914 772.073 621.377C772.98 621.834 773.719 622.472 774.29 623.291C774.861 624.111 775.23 625.054 775.398 626.122H772.94C772.711 625.195 772.268 624.426 771.61 623.815C770.952 623.204 770.079 622.898 768.991 622.898C767.392 622.898 766.133 623.594 765.213 624.984C764.299 626.374 763.839 628.325 763.832 630.837H763.994C764.37 630.266 764.816 629.779 765.334 629.376C765.857 628.967 766.435 628.651 767.066 628.429C767.698 628.208 768.366 628.097 769.071 628.097C770.253 628.097 771.335 628.392 772.315 628.983C773.296 629.568 774.082 630.377 774.673 631.411C775.264 632.439 775.559 633.618 775.559 634.948C775.559 636.224 775.274 637.392 774.703 638.453C774.132 639.508 773.329 640.347 772.295 640.972C771.267 641.59 770.059 641.892 768.668 641.879ZM768.668 639.662C769.515 639.662 770.273 639.451 770.945 639.028C771.623 638.605 772.157 638.037 772.547 637.325C772.943 636.613 773.141 635.821 773.141 634.948C773.141 634.095 772.95 633.319 772.567 632.62C772.191 631.915 771.67 631.354 771.006 630.938C770.347 630.521 769.595 630.313 768.749 630.313C768.111 630.313 767.516 630.441 766.966 630.696C766.415 630.945 765.931 631.287 765.515 631.724C765.105 632.16 764.783 632.661 764.548 633.225C764.313 633.782 764.195 634.37 764.195 634.988C764.195 635.807 764.387 636.573 764.769 637.285C765.159 637.997 765.69 638.571 766.361 639.008C767.04 639.444 767.809 639.662 768.668 639.662ZM778.747 641.597L787.975 623.342V623.181H777.337V620.964H790.555V623.301L781.367 641.597H778.747ZM799.085 641.879C797.701 641.879 796.479 641.634 795.418 641.143C794.363 640.646 793.54 639.965 792.949 639.098C792.358 638.225 792.066 637.231 792.073 636.116C792.066 635.243 792.237 634.437 792.587 633.698C792.936 632.953 793.413 632.332 794.017 631.835C794.628 631.331 795.31 631.012 796.062 630.877V630.757C795.075 630.501 794.289 629.947 793.705 629.094C793.121 628.235 792.832 627.257 792.838 626.163C792.832 625.115 793.097 624.178 793.634 623.352C794.172 622.526 794.91 621.874 795.851 621.397C796.798 620.92 797.876 620.682 799.085 620.682C800.28 620.682 801.348 620.92 802.288 621.397C803.229 621.874 803.967 622.526 804.505 623.352C805.049 624.178 805.324 625.115 805.331 626.163C805.324 627.257 805.025 628.235 804.434 629.094C803.85 629.947 803.074 630.501 802.107 630.757V630.877C802.852 631.012 803.524 631.331 804.122 631.835C804.72 632.332 805.196 632.953 805.552 633.698C805.908 634.437 806.09 635.243 806.096 636.116C806.09 637.231 805.788 638.225 805.19 639.098C804.599 639.965 803.776 640.646 802.722 641.143C801.674 641.634 800.461 641.879 799.085 641.879ZM799.085 639.662C800.018 639.662 800.824 639.511 801.503 639.209C802.181 638.907 802.705 638.48 803.074 637.93C803.444 637.379 803.632 636.734 803.638 635.995C803.632 635.216 803.43 634.528 803.034 633.93C802.638 633.332 802.097 632.862 801.412 632.52C800.733 632.177 799.958 632.006 799.085 632.006C798.205 632.006 797.419 632.177 796.727 632.52C796.042 632.862 795.501 633.332 795.105 633.93C794.716 634.528 794.524 635.216 794.531 635.995C794.524 636.734 794.702 637.379 795.065 637.93C795.434 638.48 795.962 638.907 796.647 639.209C797.332 639.511 798.144 639.662 799.085 639.662ZM799.085 629.87C799.823 629.87 800.478 629.722 801.049 629.427C801.627 629.131 802.08 628.718 802.409 628.188C802.738 627.657 802.906 627.036 802.913 626.324C802.906 625.625 802.742 625.017 802.419 624.5C802.097 623.976 801.65 623.573 801.079 623.291C800.508 623.003 799.844 622.858 799.085 622.858C798.312 622.858 797.637 623.003 797.06 623.291C796.482 623.573 796.035 623.976 795.72 624.5C795.404 625.017 795.25 625.625 795.256 626.324C795.25 627.036 795.407 627.657 795.73 628.188C796.059 628.718 796.512 629.131 797.09 629.427C797.667 629.722 798.332 629.87 799.085 629.87ZM815.108 620.682C815.954 620.689 816.8 620.85 817.646 621.166C818.493 621.481 819.265 622.005 819.963 622.737C820.662 623.463 821.223 624.453 821.646 625.709C822.069 626.965 822.281 628.54 822.281 630.434C822.281 632.268 822.106 633.896 821.757 635.32C821.414 636.737 820.917 637.933 820.266 638.907C819.621 639.881 818.835 640.619 817.908 641.123C816.988 641.627 815.947 641.879 814.785 641.879C813.63 641.879 812.599 641.65 811.692 641.194C810.792 640.73 810.054 640.089 809.476 639.269C808.905 638.443 808.539 637.486 808.378 636.398H810.836C811.058 637.345 811.498 638.128 812.156 638.746C812.821 639.357 813.697 639.662 814.785 639.662C816.377 639.662 817.633 638.967 818.553 637.577C819.48 636.187 819.943 634.222 819.943 631.683H819.782C819.406 632.248 818.959 632.734 818.442 633.144C817.925 633.554 817.351 633.87 816.72 634.091C816.088 634.313 815.417 634.424 814.705 634.424C813.523 634.424 812.438 634.131 811.451 633.547C810.47 632.956 809.684 632.147 809.093 631.119C808.509 630.085 808.217 628.903 808.217 627.573C808.217 626.31 808.499 625.155 809.063 624.107C809.634 623.053 810.433 622.213 811.461 621.589C812.495 620.964 813.711 620.662 815.108 620.682ZM815.108 622.898C814.261 622.898 813.499 623.11 812.821 623.533C812.149 623.95 811.615 624.514 811.219 625.226C810.829 625.931 810.635 626.713 810.635 627.573C810.635 628.433 810.823 629.215 811.199 629.92C811.582 630.619 812.102 631.176 812.76 631.593C813.425 632.002 814.181 632.207 815.027 632.207C815.665 632.207 816.259 632.083 816.81 631.835C817.361 631.579 817.841 631.233 818.251 630.797C818.667 630.354 818.993 629.853 819.228 629.296C819.463 628.732 819.581 628.144 819.581 627.533C819.581 626.727 819.386 625.971 818.996 625.266C818.614 624.561 818.083 623.99 817.405 623.553C816.733 623.117 815.967 622.898 815.108 622.898Z" fill="white"/>
<path d="M92.0077 145.291V102.027H76.5462C76.0497 102.027 75.837 101.814 75.837 101.318V97.0622C75.837 96.5657 76.0497 96.3529 76.5462 96.3529H114.845C115.342 96.3529 115.555 96.5657 115.555 97.0622V101.318C115.555 101.814 115.342 102.027 114.845 102.027H99.1002V145.291C99.1002 145.787 98.8874 146 98.3909 146H92.717C92.2205 146 92.0077 145.787 92.0077 145.291ZM137.675 138.34L150.086 111.176C150.299 110.751 150.583 110.538 151.079 110.538H157.463C157.959 110.538 158.101 110.751 157.888 111.176L138.739 151.958C136.398 156.922 132.355 162.242 126.327 162.242C124.128 162.242 120.015 161.532 118.1 161.107C117.603 161.036 117.461 160.752 117.532 160.256L118.88 154.936C118.951 154.44 119.234 154.298 119.731 154.369C121.575 154.653 124.696 155.22 125.972 155.22C127.603 155.22 129.022 154.298 131.221 150.468L133.774 146L117.461 111.176C117.248 110.751 117.39 110.538 117.887 110.538H124.27C124.766 110.538 125.05 110.751 125.263 111.176L137.675 138.34ZM161.944 161.532V111.318C161.944 110.751 162.156 110.538 162.653 110.538H168.327C168.823 110.538 169.036 110.751 169.036 111.247V115.148H169.887C172.086 111.885 175.561 109.829 180.668 109.829C191.023 109.829 199.534 118.127 199.534 128.269C199.534 138.411 191.023 146.709 180.668 146.709C175.49 146.709 172.015 144.652 169.816 141.319H169.036V161.603C169.036 162.1 168.823 162.313 168.327 162.313H162.653C162.156 162.313 161.944 162.1 161.944 161.532ZM169.036 128.269C169.036 135.787 174.355 139.617 180.739 139.617C187.122 139.617 192.441 135.787 192.441 128.269C192.441 120.751 187.122 116.921 180.739 116.921C174.355 116.921 169.036 120.751 169.036 128.269ZM204.518 128.269C204.518 118.127 213.454 109.829 224.376 109.829C235.37 109.829 244.235 118.127 244.235 128.269C244.235 138.411 235.37 146.709 224.376 146.709C213.454 146.709 204.518 138.411 204.518 128.269ZM211.61 128.269C211.61 135.787 217.426 139.617 224.376 139.617C231.327 139.617 237.143 135.787 237.143 128.269C237.143 120.751 231.327 116.921 224.376 116.921C217.426 116.921 211.61 120.751 211.61 128.269ZM252.866 160.469C252.369 160.327 252.157 160.043 252.157 159.547V154.653C252.157 154.156 252.369 154.014 252.866 154.227C258.824 156.284 265.561 156.213 267.973 156.142C275.916 156 278.966 154.653 278.966 150.894V139.901H278.186C276.058 143.234 272.654 145.291 267.618 145.291C257.476 145.291 249.178 137.276 249.178 127.56C249.178 117.843 257.476 109.829 267.618 109.829C272.583 109.829 275.987 111.885 278.115 115.148H278.966V111.247C278.966 110.751 279.179 110.538 279.675 110.538H285.349C285.846 110.538 286.058 110.751 286.058 111.247V152.667C286.058 159.05 278.115 162.171 267.193 162.171C265.561 162.171 258.824 162.1 252.866 160.469ZM278.966 127.56C278.966 120.467 273.789 116.921 267.618 116.921C261.448 116.921 256.27 120.467 256.27 127.56C256.27 134.652 261.448 138.198 267.618 138.198C273.789 138.198 278.966 134.652 278.966 127.56ZM321.779 122.737L316.176 124.297C315.68 124.439 315.467 124.297 315.467 123.801C315.467 120.538 315.325 116.212 308.587 116.212C304.261 116.212 302.062 118.056 298.445 120.822V145.291C298.445 145.787 298.233 146 297.736 146H292.062C291.566 146 291.353 145.787 291.353 145.291V111.247C291.353 110.751 291.566 110.538 292.062 110.538H297.736C298.233 110.538 298.445 110.751 298.445 111.247V115.361C301.921 112.382 306.46 109.829 312.417 109.829C318.233 109.829 322.418 112.311 322.489 121.815C322.489 122.311 322.276 122.595 321.779 122.737ZM355.465 145.291V140.184H354.755C352.202 144.085 347.166 146.709 341.351 146.709C332.982 146.709 326.031 141.177 326.031 134.297C326.031 127.418 332.982 121.815 341.351 121.815C347.166 121.815 352.202 124.439 354.755 128.34H355.465V123.304C355.465 117.417 348.514 116.212 344.755 116.212C339.79 116.212 334.542 117.559 330.003 119.687C329.577 119.9 329.294 119.829 329.152 119.332L327.946 114.651C327.804 114.155 327.946 113.8 328.372 113.588C333.053 111.389 339.79 109.829 344.755 109.829C350.784 109.829 362.557 111.602 362.557 121.815V145.291C362.557 145.787 362.344 146 361.848 146H356.174C355.677 146 355.465 145.787 355.465 145.291ZM333.123 134.297C333.123 137.347 337.946 139.617 344.613 139.617C351.067 139.617 355.465 137.347 355.465 134.297C355.465 131.177 351.067 128.907 344.613 128.907C337.946 128.907 333.123 131.177 333.123 134.297ZM367.86 161.532V111.318C367.86 110.751 368.073 110.538 368.569 110.538H374.243C374.739 110.538 374.952 110.751 374.952 111.247V115.148H375.803C378.002 111.885 381.477 109.829 386.584 109.829C396.939 109.829 405.45 118.127 405.45 128.269C405.45 138.411 396.939 146.709 386.584 146.709C381.406 146.709 377.931 144.652 375.732 141.319H374.952V161.603C374.952 162.1 374.739 162.313 374.243 162.313H368.569C368.073 162.313 367.86 162.1 367.86 161.532ZM374.952 128.269C374.952 135.787 380.272 139.617 386.655 139.617C393.038 139.617 398.357 135.787 398.357 128.269C398.357 120.751 393.038 116.921 386.655 116.921C380.272 116.921 374.952 120.751 374.952 128.269ZM439.938 145.291V123.304C439.938 117.417 435.045 116.212 430.293 116.212C424.406 116.212 421.285 117.985 417.881 120.751V145.291C417.881 145.787 417.668 146 417.172 146H411.498C411.001 146 410.788 145.787 410.788 145.291V94.2252C410.788 93.7287 411.001 93.516 411.498 93.516H417.172C417.668 93.516 417.881 93.7287 417.881 94.2252V115.219C421.214 112.311 425.541 109.829 431.64 109.829C436.818 109.829 447.031 111.602 447.031 121.815V145.291C447.031 145.787 446.818 146 446.322 146H440.648C440.151 146 439.938 145.787 439.938 145.291ZM471.269 138.34L483.68 111.176C483.893 110.751 484.177 110.538 484.673 110.538H491.057C491.553 110.538 491.695 110.751 491.482 111.176L472.332 151.958C469.992 156.922 465.949 162.242 459.921 162.242C457.722 162.242 453.608 161.532 451.693 161.107C451.197 161.036 451.055 160.752 451.126 160.256L452.474 154.936C452.545 154.44 452.828 154.298 453.325 154.369C455.169 154.653 458.289 155.22 459.566 155.22C461.197 155.22 462.616 154.298 464.814 150.468L467.368 146L451.055 111.176C450.842 110.751 450.984 110.538 451.481 110.538H457.864C458.36 110.538 458.644 110.751 458.857 111.176L471.269 138.34Z" fill="white"/>
</svg>
