<svg width="26" height="27" viewBox="0 0 26 27" fill="none" xmlns="http://www.w3.org/2000/svg">
<g clip-path="url(#clip0_11_1345)">
<path d="M23.5223 2.48038L23.6063 2.60557L23.6483 2.66802L23.669 2.69881L23.6872 2.72759L23.8311 2.95494L23.975 3.18228L24.0112 3.23984C24.0233 3.25883 24.0357 3.27812 24.0455 3.29481L24.1088 3.39927L24.2351 3.60791L24.2668 3.66L24.2955 3.7095L24.3531 3.80735L24.4662 4.00275L24.5238 4.1006C24.5335 4.11729 24.5419 4.13254 24.5499 4.14751L24.575 4.19298L24.7744 4.55702C24.8098 4.61976 24.8357 4.67213 24.8651 4.72969L24.9514 4.89833L25.0377 5.06668L25.0803 5.15043L25.1183 5.22957L25.1943 5.38785C25.2196 5.44051 25.2412 5.48944 25.2645 5.54066C25.4305 5.89898 25.5777 6.26573 25.7054 6.63942L25.7468 6.76316C25.7543 6.78417 25.7595 6.80316 25.7652 6.82273L25.7825 6.88029L25.8168 6.9954L25.834 7.05296L25.8484 7.10879C25.8876 7.25728 25.9195 7.39916 25.9425 7.53154C25.987 7.76621 26.005 8.00512 25.9963 8.2438C25.9909 8.43102 25.9535 8.61594 25.8858 8.79059C25.8557 8.86626 25.8176 8.93851 25.7722 9.00614C25.7275 9.07118 25.6801 9.13334 25.6306 9.19349C25.5317 9.31345 25.4222 9.42422 25.3034 9.52444C25.0542 9.73205 24.77 9.89363 24.4642 10.0016C24.113 10.1231 23.7481 10.2005 23.3778 10.2318C22.9524 10.269 22.5252 10.2814 22.0983 10.2689C21.6534 10.2626 21.195 10.243 20.7489 10.2355C20.3028 10.2281 19.8651 10.2295 19.4539 10.2568C19.0657 10.2806 18.6799 10.3348 18.3002 10.4192C17.941 10.4989 17.6219 10.6186 17.2967 10.7323C16.9715 10.8459 16.6549 10.968 16.3441 11.0957C15.7331 11.344 15.1367 11.6268 14.5578 11.943C14.2752 12.0992 14.0001 12.263 13.7368 12.4382C13.605 12.526 13.4761 12.6164 13.3509 12.7108L13.3471 12.7134C13.3388 12.7196 13.3285 12.7226 13.3182 12.7219C13.3078 12.7211 13.2981 12.7167 13.2907 12.7093C13.2834 12.702 13.2789 12.6922 13.2782 12.6819C13.2774 12.6715 13.2805 12.6612 13.2867 12.6529L13.2896 12.6492C13.3836 12.5239 13.4743 12.3953 13.5618 12.2633C13.7374 11.9999 13.9008 11.7248 14.0571 11.4425C14.3726 10.8633 14.6549 10.2666 14.9026 9.65538C15.0304 9.34428 15.1504 9.02571 15.2661 8.70253C15.3818 8.37935 15.4992 8.05818 15.5789 7.69932C15.6632 7.31959 15.7177 6.93384 15.7418 6.5456C15.7706 6.13407 15.7726 5.69894 15.7628 5.25058C15.753 4.80221 15.7357 4.34608 15.7297 3.90116C15.7171 3.47441 15.7294 3.04729 15.7665 2.62197C15.798 2.25171 15.8753 1.88679 15.9968 1.53559C16.1044 1.2296 16.2659 0.945307 16.4736 0.696131C16.574 0.577529 16.6847 0.468122 16.8046 0.36921C16.8647 0.319711 16.9269 0.271939 16.9919 0.227333C17.0594 0.182399 17.1314 0.144775 17.2069 0.115098C17.3816 0.0474855 17.5665 0.0100211 17.7537 0.00430153C17.9925 -0.00460952 18.2316 0.0132483 18.4665 0.0575413C18.5992 0.0802761 18.7408 0.11222 18.8895 0.151358L18.9451 0.166035L19.0026 0.183014L19.1178 0.217548L19.1753 0.234528C19.1946 0.240283 19.2136 0.245751 19.2349 0.252946L19.3583 0.294386C19.7335 0.42173 20.1017 0.568702 20.4614 0.734694C20.5124 0.758292 20.5613 0.779875 20.6139 0.804913L20.7722 0.881175L20.8516 0.919162L20.9351 0.961754L21.1037 1.04809L21.2721 1.13442C21.3297 1.1632 21.3823 1.18968 21.4448 1.22507L21.8082 1.42451L21.854 1.44926C21.869 1.4576 21.8842 1.46595 21.9009 1.47573L21.9985 1.53329L22.1939 1.64639L22.2917 1.70395L22.3412 1.73272L22.3933 1.76438L22.6022 1.891L22.7061 1.9523C22.7231 1.96237 22.7421 1.97475 22.7614 1.98684L22.8189 2.0231L23.0463 2.16699L23.2733 2.31088L23.3021 2.32901L23.3329 2.34944L23.3956 2.39146L23.5208 2.47549L23.5223 2.48038Z" fill="black"/>
<path d="M2.48294 2.48164L2.60812 2.39761L2.67057 2.35559L2.70136 2.33487L2.73014 2.31674L2.95749 2.17285L3.18484 2.02896L3.24239 1.9927C3.26139 1.98032 3.28067 1.96795 3.29736 1.95816L3.40183 1.89485L3.61047 1.76852L3.66285 1.73686L3.71234 1.70808L3.8099 1.65053L4.00531 1.53714L4.10315 1.47958C4.11984 1.46951 4.1351 1.46116 4.15006 1.45311L4.19553 1.42807L4.55986 1.22864C4.6226 1.19324 4.67498 1.16734 4.73253 1.13798L4.90117 1.05165L5.06953 0.965315L5.15126 0.923011L5.2304 0.884736L5.38896 0.808761C5.44134 0.783724 5.49055 0.762141 5.54149 0.738542C5.89981 0.57254 6.26656 0.425378 6.64024 0.29766L6.76399 0.256219C6.785 0.248737 6.80399 0.243557 6.82356 0.237801L6.88112 0.220534L6.99767 0.186288L7.05523 0.169021L7.11106 0.154632C7.25984 0.115493 7.40143 0.0835494 7.5341 0.0608146C7.76941 0.0161154 8.00901 -0.00203259 8.24837 0.00671149C8.43559 0.0122332 8.62049 0.0496038 8.79516 0.11722C8.87098 0.147202 8.94343 0.185112 9.01128 0.230319C9.07632 0.274925 9.13848 0.322409 9.19863 0.371908C9.31868 0.470765 9.42955 0.580281 9.52987 0.699116C9.7374 0.948301 9.89887 1.23247 10.0067 1.53829C10.1281 1.88949 10.2055 2.25441 10.2369 2.62467C10.274 3.05028 10.2863 3.47769 10.2738 3.90473C10.2675 4.34964 10.2479 4.80808 10.2407 5.25414C10.2335 5.7002 10.2344 6.13792 10.2617 6.54916C10.2855 6.93741 10.3399 7.32317 10.4243 7.70288C10.504 8.06203 10.6234 8.38118 10.7371 8.70638C10.8508 9.03157 10.9728 9.34813 11.1006 9.65894C11.3482 10.2702 11.6304 10.8669 11.9458 11.4461C12.1021 11.7287 12.2658 12.0038 12.4414 12.2671C12.5277 12.3989 12.6192 12.5278 12.7136 12.653L12.7165 12.6568C12.7229 12.6651 12.7261 12.6755 12.7254 12.686C12.7248 12.6965 12.7203 12.7064 12.7128 12.7138C12.7053 12.7212 12.6954 12.7257 12.6849 12.7263C12.6744 12.7269 12.6641 12.7237 12.6558 12.7172L12.652 12.7143C12.5268 12.6202 12.3979 12.5299 12.2661 12.4421C12.0031 12.2665 11.728 12.1031 11.4453 11.9468C10.8662 11.6313 10.2695 11.3491 9.65822 11.1016C9.34713 10.9735 9.02855 10.8535 8.70537 10.7378C8.38219 10.6221 8.06103 10.5047 7.70216 10.425C7.32243 10.3408 6.93667 10.2864 6.54844 10.2624C6.13691 10.2336 5.70178 10.2316 5.25342 10.2414C4.80505 10.2512 4.34921 10.2685 3.90401 10.2748C3.47725 10.2872 3.05014 10.2748 2.62481 10.2377C2.25455 10.2062 1.88964 10.1288 1.53843 10.0074C1.23251 9.89949 0.948247 9.73792 0.698973 9.5303C0.580372 9.42993 0.470964 9.31917 0.372052 9.19935C0.322553 9.1392 0.275069 9.07704 0.230463 9.012C0.184437 8.94467 0.145749 8.8726 0.115062 8.79703C0.0474177 8.62236 0.0099521 8.43747 0.00426588 8.25024C-0.00431768 8.01155 0.0138296 7.77264 0.058369 7.53798C0.0813916 7.40531 0.113335 7.26372 0.152186 7.11494L0.166863 7.0594L0.183842 7.00184L0.218376 6.885L0.235643 6.82745C0.241399 6.80788 0.246579 6.78888 0.254061 6.76787L0.295502 6.64413C0.422982 6.2703 0.57005 5.90345 0.736097 5.54509C0.759695 5.49415 0.781279 5.44523 0.806316 5.39256L0.882578 5.23428L0.920853 5.15341L0.963445 5.06967L1.04978 4.90103L1.13611 4.73268C1.16489 4.67512 1.19166 4.62246 1.22677 4.56001L1.42649 4.19596L1.45152 4.15049C1.45958 4.13524 1.46793 4.12028 1.47771 4.10358L1.53527 4.00574L1.64837 3.81033L1.70592 3.71249L1.7347 3.66299L1.76636 3.6109L1.89298 3.40197L1.95601 3.29779C1.96608 3.28081 1.97845 3.26182 1.99054 3.24283L2.0268 3.18527L2.17069 2.95792L2.31458 2.73086L2.33271 2.70208L2.35315 2.67129L2.39516 2.60855L2.4792 2.48337L2.48294 2.48164Z" fill="black"/>
<path d="M2.47764 23.5375L2.39361 23.4123L2.35159 23.3496L2.33087 23.3188L2.31274 23.29L2.16885 23.0629L2.02496 22.8356L1.9887 22.778C1.97661 22.759 1.96424 22.74 1.95416 22.7231L1.88913 22.6197L1.7625 22.4108L1.73084 22.3587L1.70207 22.3092L1.64451 22.2114L1.53227 22.0154L1.47472 21.9176C1.46493 21.9009 1.45659 21.8859 1.44824 21.8706L1.42349 21.8252L1.22377 21.4611C1.18837 21.3984 1.16247 21.346 1.13312 21.2885L1.04679 21.1201L0.960451 20.9515L0.917859 20.8677L0.879872 20.7886L0.805624 20.6306C0.780587 20.5779 0.759003 20.529 0.735405 20.4781C0.569398 20.1197 0.422236 19.7528 0.294522 19.379L0.253081 19.2553C0.245887 19.2343 0.240419 19.2153 0.234663 19.1957L0.217684 19.1382L0.18315 19.0213L0.166171 18.9638L0.150631 18.9074C0.111492 18.7583 0.0795483 18.6167 0.0573891 18.484C0.0126567 18.2494 -0.00568357 18.0105 0.00271038 17.7718C0.00839661 17.5845 0.0458622 17.3996 0.113507 17.225C0.143419 17.1488 0.181433 17.076 0.226893 17.008C0.271499 16.9429 0.319271 16.8808 0.36877 16.8206C0.467695 16.7009 0.577102 16.5903 0.695691 16.49C0.944926 16.2823 1.2292 16.1207 1.53515 16.0128C1.88635 15.8914 2.25127 15.8141 2.62153 15.7826C3.04685 15.7455 3.47397 15.7331 3.90073 15.7455C4.34564 15.7518 4.80407 15.7714 5.25014 15.7789C5.6962 15.7864 6.13392 15.7852 6.54516 15.7579C6.93342 15.7347 7.31927 15.6812 7.69917 15.5979C8.05774 15.5167 8.37718 15.3964 8.70238 15.2836C9.02757 15.1708 9.34413 15.0479 9.65523 14.9198C10.2665 14.6723 10.8632 14.3901 11.4424 14.0746C11.7247 13.9184 11.9998 13.7549 12.2631 13.5793C12.3949 13.4916 12.5238 13.4012 12.649 13.3071L12.6528 13.3042C12.6611 13.298 12.6714 13.295 12.6817 13.2957C12.6921 13.2964 12.7018 13.3009 12.7092 13.3082C12.7165 13.3156 12.721 13.3253 12.7217 13.3357C12.7225 13.3461 12.7194 13.3563 12.7132 13.3647L12.7106 13.3684C12.6162 13.4936 12.5259 13.6225 12.4381 13.7543C12.2628 14.0176 12.0991 14.2928 11.9428 14.5754C11.6273 15.1545 11.3451 15.7512 11.0976 16.3625C10.9698 16.6733 10.8495 16.9919 10.7341 17.3151C10.6187 17.6382 10.5007 17.9594 10.421 18.3185C10.3367 18.6983 10.2824 19.084 10.2587 19.4723C10.2299 19.8835 10.2279 20.3189 10.2374 20.7673C10.2469 21.2157 10.2645 21.6718 10.2708 22.1167C10.2833 22.5437 10.2709 22.9712 10.2337 23.3968C10.2023 23.767 10.125 24.132 10.0034 24.4831C9.89549 24.789 9.73392 25.0731 9.5263 25.3223C9.42615 25.4412 9.31538 25.5507 9.19535 25.6495C9.1352 25.699 9.07304 25.7465 9.008 25.7911C8.94044 25.837 8.86818 25.8756 8.79245 25.9062C8.61781 25.9739 8.43289 26.0113 8.24567 26.0167C8.00697 26.0253 7.76807 26.0071 7.5334 25.9626C7.40102 25.9399 7.25915 25.908 7.11065 25.8688L7.05482 25.8544L6.99727 25.8372L6.88215 25.8029L6.8246 25.7856C6.80503 25.7799 6.78603 25.7747 6.76503 25.7672L6.64128 25.7258C6.2676 25.5981 5.90085 25.4509 5.54253 25.2849C5.4913 25.2616 5.44238 25.2397 5.38971 25.2147L5.23143 25.1387L5.15229 25.1004L5.06481 25.0561L4.89645 24.9698L4.72781 24.8834C4.67026 24.8547 4.61759 24.8282 4.55514 24.7928L4.1911 24.5934L4.14563 24.5683C4.13066 24.5603 4.11541 24.5519 4.09872 24.5418L4.00087 24.4843L3.80547 24.3709L3.70762 24.3133L3.65812 24.2846L3.60604 24.2529L3.39739 24.1266L3.29293 24.0633C3.27624 24.0535 3.25696 24.0411 3.23796 24.0287L3.18041 23.9925L2.95306 23.8486L2.72571 23.7047L2.69693 23.6866L2.66614 23.6658L2.60369 23.6238L2.48023 23.5407L2.47764 23.5375Z" fill="black"/>
<path d="M23.5174 23.536L23.3922 23.62L23.3295 23.662L23.2987 23.6828L23.2699 23.7009L23.0428 23.8448L22.8155 23.9887L22.7579 24.0249C22.7389 24.037 22.7197 24.0494 22.703 24.0592L22.5988 24.1225L22.3896 24.2514L22.3375 24.2828L22.288 24.3116L22.1901 24.3691L21.9947 24.4822L21.8969 24.5398C21.8802 24.5496 21.8652 24.5579 21.85 24.566L21.8045 24.591L21.4405 24.7907C21.3777 24.8258 21.3254 24.8517 21.2678 24.8811L21.0994 24.9674L20.9308 25.0538L20.8479 25.0946L20.7688 25.1326L20.6105 25.2086C20.5578 25.2339 20.5089 25.2555 20.458 25.2791C20.0995 25.4449 19.7327 25.592 19.3589 25.7197L19.2352 25.7611C19.2142 25.7686 19.1952 25.7738 19.1756 25.7795L19.1181 25.7968L19.0012 25.8314L18.9437 25.8483L18.8881 25.8627C18.7393 25.9019 18.5975 25.9338 18.4651 25.9568C18.2304 26.0012 17.9915 26.0194 17.7528 26.0109C17.5656 26.0052 17.3807 25.9678 17.206 25.9001C17.1303 25.8695 17.058 25.8309 16.9905 25.785C16.9254 25.7404 16.8633 25.6929 16.8031 25.6434C16.6832 25.5446 16.5724 25.4351 16.4722 25.3162C16.2645 25.0671 16.1029 24.7829 15.995 24.477C15.8736 24.1258 15.7963 23.7609 15.7648 23.3907C15.7277 22.9653 15.7153 22.5382 15.7277 22.1115C15.734 21.6663 15.7536 21.2081 15.7611 20.7618C15.7686 20.3154 15.7674 19.8783 15.7401 19.4668C15.7161 19.0785 15.6617 18.6928 15.5775 18.313C15.4978 17.9539 15.3783 17.6347 15.2647 17.3095C15.151 16.9843 15.029 16.6678 14.9009 16.357C14.6533 15.7457 14.3711 15.149 14.0557 14.5698C13.8994 14.2872 13.736 14.0121 13.5604 13.7488C13.4726 13.6173 13.3823 13.4881 13.2882 13.3632L13.2853 13.3594C13.2788 13.3511 13.2756 13.3408 13.2762 13.3303C13.2768 13.3198 13.2813 13.3098 13.2887 13.3024C13.2961 13.2949 13.306 13.2904 13.3165 13.2898C13.327 13.2891 13.3374 13.2923 13.3457 13.2987L13.3495 13.3016C13.4746 13.396 13.6036 13.4863 13.7354 13.5738C13.9987 13.7494 14.2738 13.9128 14.5564 14.0691C15.1356 14.3847 15.7322 14.667 16.3435 14.9146C16.6544 15.0424 16.9729 15.1624 17.2961 15.2781C17.6193 15.3938 17.9405 15.5112 18.2996 15.5909C18.6793 15.6753 19.0651 15.7297 19.4533 15.7535C19.8646 15.7808 20.3 15.7843 20.7483 15.7745C21.1967 15.7647 21.6529 15.7475 22.0978 15.7414C22.5246 15.7288 22.9518 15.7411 23.3772 15.7782C23.7475 15.8097 24.1124 15.8871 24.4636 16.0085C24.7695 16.1162 25.0537 16.2777 25.3028 16.4853C25.4216 16.5856 25.5311 16.6964 25.63 16.8163C25.6795 16.8764 25.727 16.9386 25.7716 17.0039C25.8169 17.0715 25.855 17.1436 25.8853 17.2192C25.9529 17.3938 25.9903 17.5787 25.9958 17.766C26.0043 18.0046 25.9862 18.2434 25.9417 18.4779C25.9189 18.6106 25.887 18.7522 25.8479 18.901L25.8332 18.9565L25.8162 19.0141L25.782 19.1292L25.7647 19.1867C25.7589 19.2063 25.7538 19.225 25.7463 19.2463L25.7048 19.3701C25.5771 19.7437 25.4299 20.1105 25.2639 20.4688C25.2403 20.5197 25.2188 20.5687 25.1937 20.6213L25.1178 20.7796L25.0783 20.8642L25.036 20.9477L24.9497 21.1163L24.8634 21.2847C24.8346 21.3422 24.8081 21.3949 24.7727 21.4573L24.5733 21.8214L24.5482 21.8671C24.5402 21.8821 24.5318 21.8959 24.5218 21.9141L24.4642 22.0116L24.3508 22.2073L24.2933 22.3049L24.2645 22.3544L24.2328 22.4067L24.1065 22.6154L24.0432 22.7198C24.0331 22.7365 24.021 22.7555 24.0086 22.7748L23.9724 22.8324L23.8285 23.0597L23.6846 23.2871L23.6665 23.3158L23.6457 23.3466L23.6037 23.4094L23.5197 23.5346L23.5174 23.536Z" fill="black"/>
<path d="M13.0112 14.3751C13.017 14.5602 13.0314 14.7455 13.0481 14.9308C13.0648 15.1162 13.0861 15.3015 13.1097 15.4868C13.1488 15.8569 13.2668 16.2282 13.4616 16.5991C13.6565 16.9701 13.9221 17.3413 14.1647 17.7125C14.2839 17.8925 14.3936 18.0784 14.4936 18.2697C14.5858 18.4479 14.6611 18.6345 14.7184 18.8268C14.7715 19.0083 14.8044 19.195 14.8165 19.3837C14.8301 19.5703 14.8159 19.7578 14.7745 19.9403C14.7282 20.1348 14.6551 20.322 14.5575 20.4965C14.5071 20.5892 14.4507 20.6816 14.39 20.7743C14.3589 20.8206 14.3278 20.8669 14.295 20.913C14.2622 20.959 14.2309 21.0056 14.1969 21.052C13.927 21.4221 13.6547 21.7919 13.4705 22.1619C13.3785 22.347 13.2979 22.532 13.2222 22.7171L13.1672 22.8558C13.1494 22.9021 13.1333 22.9485 13.116 22.9945C13.0872 23.0765 13.0584 23.1591 13.0351 23.2414C13.0326 23.25 13.0272 23.2575 13.0199 23.2627C13.0126 23.2679 13.0038 23.2706 12.9948 23.2702C12.9859 23.27 12.9772 23.2668 12.9703 23.2612C12.9633 23.2556 12.9584 23.2478 12.9563 23.2391C12.9078 23.0603 12.8491 22.8845 12.7804 22.7125C12.7062 22.5268 12.6294 22.3412 12.539 22.1556C12.3591 21.7844 12.0898 21.4128 11.823 21.0416C11.7893 20.9953 11.7582 20.9486 11.726 20.9023C11.6938 20.856 11.6624 20.8096 11.6319 20.763C11.5718 20.6704 11.5168 20.5777 11.4661 20.485C11.3698 20.3107 11.2978 20.1241 11.2523 19.9302C11.2121 19.748 11.199 19.5608 11.2135 19.3748C11.2266 19.1866 11.2604 19.0004 11.3142 18.8196C11.3719 18.628 11.4475 18.4422 11.5401 18.2648C11.6408 18.0742 11.7512 17.8889 11.8708 17.7097C12.1148 17.3396 12.3827 16.9695 12.5753 16.5991C12.6692 16.4209 12.7475 16.2349 12.8092 16.0431C12.8661 15.8621 12.9047 15.6758 12.9243 15.4871C12.9468 15.3018 12.9675 15.1165 12.9819 14.9311C12.9963 14.7458 13.011 14.5619 13.0112 14.3751Z" fill="black" stroke="black" stroke-width="0.0863348" stroke-miterlimit="10" stroke-linecap="round"/>
<path d="M14.5183 12.9934C14.7036 12.9873 14.8889 12.9732 15.0743 12.9562C15.2596 12.9393 15.4447 12.9183 15.6303 12.8947C16.0009 12.8555 16.3716 12.7369 16.7426 12.5427C17.1135 12.3484 17.4845 12.0822 17.856 11.8399C18.0359 11.7208 18.2218 11.6111 18.4131 11.5113C18.5914 11.4192 18.7778 11.344 18.97 11.2865C19.1516 11.2337 19.3384 11.2008 19.5271 11.1884C19.7137 11.1748 19.9013 11.189 20.0837 11.2304C20.2781 11.2768 20.4652 11.3498 20.6397 11.4474C20.7324 11.4978 20.825 11.5542 20.9177 11.6152C20.9637 11.646 21.0101 11.677 21.0564 11.7101C21.1027 11.7432 21.1491 11.7743 21.1951 11.8083C21.5655 12.0779 21.9353 12.3502 22.3054 12.5343C22.4901 12.6264 22.6755 12.707 22.8602 12.7827L22.9992 12.8377C23.0453 12.8558 23.0916 12.8719 23.1379 12.8889C23.22 12.9177 23.3026 12.9465 23.3846 12.9698C23.3931 12.9724 23.4005 12.9778 23.4057 12.9851C23.4109 12.9924 23.4136 13.0011 23.4134 13.0101C23.4131 13.019 23.4099 13.0277 23.4043 13.0347C23.3987 13.0417 23.391 13.0467 23.3823 13.0489C23.2035 13.0971 23.0276 13.1558 22.8556 13.2245C22.6697 13.299 22.4844 13.3758 22.2988 13.4659C21.9272 13.6461 21.5557 13.9151 21.1845 14.1819C21.1381 14.2156 21.0918 14.2467 21.0455 14.2792C20.9991 14.3117 20.9525 14.3425 20.9062 14.373C20.8135 14.4334 20.7206 14.4881 20.6279 14.5388C20.4533 14.6352 20.2662 14.707 20.0719 14.7523C19.8897 14.7925 19.7025 14.8056 19.5165 14.7911C19.3284 14.778 19.1423 14.7443 18.9616 14.6904C18.7699 14.6324 18.584 14.5565 18.4065 14.4636C18.2161 14.3629 18.0309 14.2526 17.8517 14.133C17.4816 13.8889 17.1115 13.621 16.7408 13.4285C16.5627 13.3346 16.3768 13.2563 16.1851 13.1945C16.0041 13.1376 15.8178 13.0991 15.6291 13.0794C15.4438 13.0572 15.2585 13.0365 15.0731 13.0219C14.8878 13.0072 14.7022 12.9951 14.5168 12.9951" fill="black"/>
<path d="M14.5183 12.9934C14.7036 12.9873 14.8889 12.9732 15.0743 12.9562C15.2596 12.9393 15.4447 12.9183 15.6303 12.8947C16.0009 12.8555 16.3716 12.7369 16.7426 12.5427C17.1135 12.3484 17.4845 12.0822 17.856 11.8399C18.0359 11.7208 18.2218 11.6111 18.4131 11.5113C18.5914 11.4192 18.7778 11.344 18.97 11.2865C19.1516 11.2337 19.3384 11.2008 19.5271 11.1884C19.7137 11.1748 19.9013 11.189 20.0837 11.2304C20.2781 11.2768 20.4652 11.3498 20.6397 11.4474C20.7324 11.4978 20.825 11.5542 20.9177 11.6152C20.9637 11.646 21.0101 11.677 21.0564 11.7101C21.1027 11.7432 21.1491 11.7743 21.1951 11.8083C21.5655 12.0779 21.9353 12.3502 22.3054 12.5343C22.4901 12.6264 22.6755 12.707 22.8602 12.7827L22.9992 12.8377C23.0453 12.8558 23.0916 12.8719 23.1379 12.8889C23.22 12.9177 23.3026 12.9465 23.3846 12.9698C23.3931 12.9724 23.4005 12.9778 23.4057 12.9851C23.4109 12.9924 23.4136 13.0011 23.4134 13.0101C23.4131 13.019 23.4099 13.0277 23.4043 13.0347C23.3987 13.0417 23.391 13.0467 23.3823 13.0489C23.2035 13.0971 23.0276 13.1558 22.8556 13.2245C22.6697 13.299 22.4844 13.3758 22.2988 13.4659C21.9272 13.6461 21.5557 13.9151 21.1845 14.1819C21.1381 14.2156 21.0918 14.2467 21.0455 14.2792C20.9991 14.3117 20.9525 14.3425 20.9062 14.373C20.8135 14.4334 20.7206 14.4881 20.6279 14.5388C20.4533 14.6352 20.2662 14.707 20.0719 14.7523C19.8897 14.7925 19.7025 14.8056 19.5165 14.7911C19.3284 14.778 19.1423 14.7443 18.9616 14.6904C18.7699 14.6324 18.584 14.5565 18.4065 14.4636C18.2161 14.3629 18.0309 14.2526 17.8517 14.133C17.4816 13.8889 17.1115 13.621 16.7408 13.4285C16.5627 13.3346 16.3768 13.2563 16.1851 13.1945C16.0041 13.1376 15.8178 13.0991 15.6291 13.0794C15.4438 13.0572 15.2585 13.0365 15.0731 13.0219C14.8878 13.0072 14.7022 12.9951 14.5168 12.9951" stroke="black" stroke-width="0.0863348" stroke-miterlimit="10" stroke-linecap="round"/>
<path d="M11.5399 13.0061C11.3546 13.0119 11.1692 13.026 10.9839 13.043C10.7986 13.06 10.6135 13.081 10.4279 13.1046C10.0572 13.1437 9.68658 13.2623 9.31563 13.4565C8.94467 13.6508 8.57574 13.9164 8.20162 14.159C8.02187 14.2784 7.83599 14.3883 7.64476 14.4882C7.46642 14.5803 7.2799 14.6555 7.08761 14.713C6.90667 14.7658 6.72054 14.7988 6.53248 14.8114C6.3459 14.8249 6.15834 14.8108 5.97591 14.7694C5.78147 14.723 5.59436 14.65 5.41991 14.5524C5.32725 14.502 5.23458 14.4456 5.14192 14.3846C5.09587 14.3538 5.04954 14.3227 5.00321 14.2896C4.95687 14.2566 4.91083 14.2255 4.86449 14.1915C4.49441 13.9219 4.12461 13.6496 3.75452 13.4654C3.56947 13.3733 3.38414 13.2928 3.19938 13.2171L3.06039 13.1621C3.01434 13.1443 2.96801 13.1279 2.92167 13.1109C2.83966 13.0821 2.75706 13.0533 2.67504 13.03C2.66647 13.0274 2.659 13.0221 2.6538 13.0148C2.64859 13.0075 2.64594 12.9987 2.64627 12.9897C2.64626 12.9808 2.64918 12.9721 2.65458 12.965C2.65999 12.9579 2.66758 12.9527 2.6762 12.9503C2.855 12.9021 3.03085 12.8435 3.20284 12.7748C3.38875 12.7002 3.57408 12.6237 3.7597 12.5333C4.13122 12.3532 4.50275 12.0841 4.87399 11.8173C4.92032 11.7836 4.96666 11.7526 5.01299 11.72C5.05932 11.6875 5.10594 11.6567 5.15228 11.6262C5.24494 11.5661 5.3379 11.5111 5.43056 11.4605C5.60494 11.3643 5.79174 11.2926 5.9857 11.2475C6.16791 11.2073 6.35507 11.1942 6.54112 11.2086C6.72929 11.2218 6.91545 11.2556 7.09625 11.3094C7.28788 11.3675 7.47364 11.4434 7.65109 11.5361C7.84155 11.6368 8.02674 11.7472 8.20594 11.8668C8.57603 12.1108 8.94611 12.3788 9.31678 12.5713C9.49477 12.6656 9.68061 12.7443 9.8722 12.8064C10.0532 12.8633 10.2395 12.9019 10.4282 12.9215C10.6135 12.9437 10.7989 12.9644 10.9842 12.9791C11.1695 12.9938 11.3551 13.0058 11.5399 13.0061Z" fill="black" stroke="black" stroke-width="0.0863348" stroke-miterlimit="10" stroke-linecap="round"/>
<path d="M13.0078 11.4647C13.0018 11.2794 12.9877 11.094 12.9707 10.9087C12.9537 10.7234 12.933 10.5383 12.9091 10.3527C12.8703 9.98205 12.7514 9.61139 12.5572 9.24044C12.3629 8.86948 12.0967 8.49853 11.8544 8.127C11.7352 7.94712 11.6254 7.76126 11.5252 7.57015C11.4331 7.3918 11.3579 7.20528 11.3004 7.013C11.2476 6.83142 11.2147 6.64458 11.2026 6.45585C11.1886 6.26944 11.2023 6.08198 11.2432 5.89957C11.2896 5.70511 11.3627 5.51801 11.4604 5.34357C11.5105 5.25091 11.5669 5.15824 11.6279 5.06557C11.6587 5.01953 11.6898 4.9732 11.7229 4.92686C11.756 4.88053 11.7871 4.83449 11.821 4.78815C12.0907 4.41806 12.3632 4.04798 12.5471 3.67818C12.6392 3.49313 12.7198 3.3078 12.7957 3.12304L12.8504 2.98404C12.8686 2.938 12.8847 2.89167 12.9019 2.84533C12.9307 2.76331 12.9595 2.68072 12.9825 2.5987C12.9849 2.58992 12.9902 2.58218 12.9975 2.57671C13.0048 2.57124 13.0137 2.56835 13.0228 2.56849C13.0318 2.56872 13.0404 2.57188 13.0475 2.57749C13.0545 2.5831 13.0595 2.59086 13.0617 2.59957C13.1099 2.77838 13.1685 2.95422 13.2372 3.12621C13.3117 3.31212 13.3886 3.49745 13.4789 3.68307C13.6588 4.05459 13.9282 4.42612 14.1947 4.79736C14.2283 4.84369 14.2594 4.89003 14.2919 4.93636C14.3244 4.98269 14.3552 5.02931 14.3857 5.07565C14.4462 5.16831 14.5009 5.26127 14.5515 5.35393C14.6479 5.52855 14.7198 5.71565 14.765 5.90993C14.8056 6.0921 14.8186 6.27931 14.8039 6.46535C14.7909 6.65351 14.7572 6.83968 14.7035 7.02048C14.645 7.21205 14.5687 7.39771 14.4755 7.57504C14.3749 7.76556 14.2646 7.95075 14.1449 8.12988C13.9008 8.49997 13.6332 8.87006 13.4404 9.24072C13.3465 9.41885 13.2682 9.60478 13.2064 9.79643C13.1495 9.97744 13.111 10.1637 13.0913 10.3524C13.0688 10.5378 13.0481 10.7231 13.0337 10.9084C13.0194 11.0938 13.0078 11.2794 13.0078 11.4647Z" fill="black" stroke="black" stroke-width="0.0863348" stroke-miterlimit="10" stroke-linecap="round"/>
</g>
<defs>
<clipPath id="clip0_11_1345">
<rect width="26" height="26.0176" fill="white"/>
</clipPath>
</defs>
</svg>
