<svg width="1332" height="825" viewBox="0 0 1332 825" fill="none" xmlns="http://www.w3.org/2000/svg">
<rect width="1332" height="825" fill="#F2F2FC"/>
<rect x="54" y="44" width="471.939" height="732.178" fill="#D8AAE5"/>
<rect x="525.939" y="44" width="376.031" height="366.089" fill="#BCCBEA"/>
<rect x="901.969" y="44" width="376.031" height="366.089" fill="#ADE8A3"/>
<rect x="525.939" y="410.088" width="250.882" height="366.089" fill="#282828"/>
<rect x="776.821" y="410.088" width="250.297" height="366.089" fill="#F7F8F6"/>
<rect x="1027.12" y="410.088" width="250.882" height="366.089" fill="white"/>
<path d="M77.6 85.7C77.6 87.42 77.81 88.96 78.23 90.32C78.6567 91.68 79.27 92.8333 80.07 93.78C80.87 94.72 81.8433 95.4433 82.99 95.95C84.1433 96.45 85.4433 96.7 86.89 96.7C88.0633 96.7 89.1267 96.5333 90.08 96.2C91.04 95.8667 91.8833 95.3733 92.61 94.72C93.3433 94.06 93.9533 93.2467 94.44 92.28C94.9333 91.3067 95.3033 90.18 95.55 88.9H99.75C99.45 90.7267 98.93 92.3633 98.19 93.81C97.4567 95.2567 96.5367 96.4833 95.43 97.49C94.3233 98.4967 93.05 99.2667 91.61 99.8C90.17 100.333 88.5933 100.6 86.88 100.6C85.5467 100.6 84.2867 100.437 83.1 100.11C81.9133 99.7833 80.82 99.3167 79.82 98.71C78.8267 98.0967 77.9333 97.3533 77.14 96.48C76.3467 95.6 75.67 94.61 75.11 93.51C74.5567 92.4033 74.1333 91.1933 73.84 89.88C73.5467 88.5667 73.4 87.1733 73.4 85.7C73.4 84.22 73.5467 82.8267 73.84 81.52C74.1333 80.2067 74.5567 79 75.11 77.9C75.67 76.7933 76.3467 75.8033 77.14 74.93C77.9333 74.05 78.8267 73.3067 79.82 72.7C80.82 72.0867 81.9133 71.6167 83.1 71.29C84.2867 70.9633 85.5467 70.8 86.88 70.8C88.5933 70.8 90.17 71.0667 91.61 71.6C93.05 72.1333 94.3233 72.9033 95.43 73.91C96.5367 74.9167 97.4567 76.1433 98.19 77.59C98.93 79.0367 99.45 80.6733 99.75 82.5H95.55C95.3033 81.22 94.9333 80.0967 94.44 79.13C93.9533 78.1567 93.3433 77.3433 92.61 76.69C91.8833 76.03 91.04 75.5333 90.08 75.2C89.1267 74.8667 88.0633 74.7 86.89 74.7C85.4433 74.7 84.1433 74.9533 82.99 75.46C81.8433 75.96 80.87 76.6833 80.07 77.63C79.27 78.57 78.6567 79.72 78.23 81.08C77.81 82.44 77.6 83.98 77.6 85.7ZM102.319 88.97C102.319 87.81 102.435 86.7167 102.669 85.69C102.902 84.6633 103.239 83.72 103.679 82.86C104.119 82 104.655 81.23 105.289 80.55C105.922 79.8633 106.635 79.2833 107.429 78.81C108.229 78.3367 109.105 77.9767 110.059 77.73C111.012 77.4767 112.025 77.35 113.099 77.35C114.179 77.35 115.192 77.4767 116.139 77.73C117.092 77.9767 117.965 78.3367 118.759 78.81C119.559 79.2833 120.275 79.8633 120.909 80.55C121.542 81.23 122.079 82 122.519 82.86C122.959 83.72 123.295 84.6633 123.529 85.69C123.762 86.7167 123.879 87.81 123.879 88.97C123.879 90.13 123.762 91.2233 123.529 92.25C123.295 93.2767 122.959 94.2233 122.519 95.09C122.079 95.95 121.542 96.72 120.909 97.4C120.275 98.08 119.559 98.66 118.759 99.14C117.965 99.6133 117.092 99.9733 116.139 100.22C115.192 100.473 114.179 100.6 113.099 100.6C112.025 100.6 111.012 100.473 110.059 100.22C109.105 99.9733 108.229 99.6133 107.429 99.14C106.635 98.66 105.922 98.08 105.289 97.4C104.655 96.72 104.119 95.95 103.679 95.09C103.239 94.2233 102.902 93.2767 102.669 92.25C102.435 91.2233 102.319 90.13 102.319 88.97ZM106.369 88.97C106.369 90.2033 106.522 91.3133 106.829 92.3C107.142 93.28 107.589 94.1167 108.169 94.81C108.755 95.4967 109.465 96.0233 110.299 96.39C111.132 96.7567 112.069 96.94 113.109 96.94C114.149 96.94 115.082 96.7567 115.909 96.39C116.742 96.0233 117.449 95.4967 118.029 94.81C118.609 94.1167 119.052 93.28 119.359 92.3C119.672 91.3133 119.829 90.2033 119.829 88.97C119.829 87.7367 119.672 86.63 119.359 85.65C119.052 84.6633 118.609 83.8267 118.029 83.14C117.449 82.4533 116.742 81.9267 115.909 81.56C115.082 81.1933 114.149 81.01 113.109 81.01C112.069 81.01 111.132 81.1933 110.299 81.56C109.465 81.9267 108.755 82.4533 108.169 83.14C107.589 83.8267 107.142 84.6633 106.829 85.65C106.522 86.63 106.369 87.7367 106.369 88.97ZM130.619 100H126.569V70.4H130.619V100ZM133.334 88.97C133.334 87.81 133.451 86.7167 133.684 85.69C133.918 84.6633 134.254 83.72 134.694 82.86C135.134 82 135.671 81.23 136.304 80.55C136.938 79.8633 137.651 79.2833 138.444 78.81C139.244 78.3367 140.121 77.9767 141.074 77.73C142.028 77.4767 143.041 77.35 144.114 77.35C145.194 77.35 146.208 77.4767 147.154 77.73C148.108 77.9767 148.981 78.3367 149.774 78.81C150.574 79.2833 151.291 79.8633 151.924 80.55C152.558 81.23 153.094 82 153.534 82.86C153.974 83.72 154.311 84.6633 154.544 85.69C154.778 86.7167 154.894 87.81 154.894 88.97C154.894 90.13 154.778 91.2233 154.544 92.25C154.311 93.2767 153.974 94.2233 153.534 95.09C153.094 95.95 152.558 96.72 151.924 97.4C151.291 98.08 150.574 98.66 149.774 99.14C148.981 99.6133 148.108 99.9733 147.154 100.22C146.208 100.473 145.194 100.6 144.114 100.6C143.041 100.6 142.028 100.473 141.074 100.22C140.121 99.9733 139.244 99.6133 138.444 99.14C137.651 98.66 136.938 98.08 136.304 97.4C135.671 96.72 135.134 95.95 134.694 95.09C134.254 94.2233 133.918 93.2767 133.684 92.25C133.451 91.2233 133.334 90.13 133.334 88.97ZM137.384 88.97C137.384 90.2033 137.538 91.3133 137.844 92.3C138.158 93.28 138.604 94.1167 139.184 94.81C139.771 95.4967 140.481 96.0233 141.314 96.39C142.148 96.7567 143.084 96.94 144.124 96.94C145.164 96.94 146.098 96.7567 146.924 96.39C147.758 96.0233 148.464 95.4967 149.044 94.81C149.624 94.1167 150.068 93.28 150.374 92.3C150.688 91.3133 150.844 90.2033 150.844 88.97C150.844 87.7367 150.688 86.63 150.374 85.65C150.068 84.6633 149.624 83.8267 149.044 83.14C148.464 82.4533 147.758 81.9267 146.924 81.56C146.098 81.1933 145.164 81.01 144.124 81.01C143.084 81.01 142.148 81.1933 141.314 81.56C140.481 81.9267 139.771 82.4533 139.184 83.14C138.604 83.8267 138.158 84.6633 137.844 85.65C137.538 86.63 137.384 87.7367 137.384 88.97ZM173.694 77.95H177.744V100H173.694V93.63C173.428 94.7167 173.044 95.69 172.544 96.55C172.044 97.41 171.444 98.14 170.744 98.74C170.044 99.34 169.254 99.8 168.374 100.12C167.494 100.44 166.541 100.6 165.514 100.6C164.254 100.6 163.128 100.363 162.134 99.89C161.141 99.41 160.298 98.7267 159.604 97.84C158.918 96.9467 158.391 95.8633 158.024 94.59C157.664 93.3167 157.484 91.88 157.484 90.28V77.95H161.534V90.28C161.534 92.4867 162.004 94.15 162.944 95.27C163.884 96.3833 165.301 96.94 167.194 96.94C168.214 96.94 169.124 96.7833 169.924 96.47C170.731 96.15 171.411 95.69 171.964 95.09C172.524 94.4833 172.951 93.7433 173.244 92.87C173.544 91.99 173.694 90.9933 173.694 89.88V77.95ZM184.994 100H180.944V77.95H184.994V84.99C185.254 83.89 185.624 82.9067 186.104 82.04C186.59 81.1667 187.19 80.4267 187.904 79.82C188.617 79.2133 189.44 78.75 190.374 78.43C191.314 78.11 192.367 77.95 193.534 77.95H194.544V81.81H193.544C191.93 81.81 190.577 81.96 189.484 82.26C188.39 82.5533 187.51 83 186.844 83.6C186.184 84.2 185.71 84.9567 185.424 85.87C185.137 86.7767 184.994 87.8433 184.994 89.07V100ZM205.841 77.35C207.341 77.35 208.675 77.52 209.841 77.86C211.015 78.2 212.001 78.6867 212.801 79.32C213.608 79.9467 214.221 80.71 214.641 81.61C215.061 82.5033 215.271 83.5067 215.271 84.62H211.311C211.311 84.0533 211.191 83.54 210.951 83.08C210.718 82.6133 210.368 82.2167 209.901 81.89C209.441 81.5567 208.871 81.3 208.191 81.12C207.511 80.94 206.728 80.85 205.841 80.85C205.041 80.85 204.311 80.9233 203.651 81.07C202.998 81.2167 202.435 81.4267 201.961 81.7C201.488 81.9667 201.121 82.29 200.861 82.67C200.601 83.0433 200.471 83.46 200.471 83.92C200.471 84.2667 200.545 84.5733 200.691 84.84C200.838 85.1 201.038 85.3267 201.291 85.52C201.545 85.7133 201.841 85.88 202.181 86.02C202.521 86.1533 202.885 86.27 203.271 86.37C203.665 86.47 204.071 86.5567 204.491 86.63C204.911 86.6967 205.325 86.7633 205.731 86.83L207.211 87.06C207.825 87.1533 208.468 87.2633 209.141 87.39C209.821 87.51 210.488 87.6733 211.141 87.88C211.801 88.08 212.428 88.3367 213.021 88.65C213.621 88.9567 214.148 89.3433 214.601 89.81C215.055 90.2767 215.415 90.8367 215.681 91.49C215.948 92.1367 216.081 92.9067 216.081 93.8C216.081 94.8867 215.868 95.8533 215.441 96.7C215.015 97.54 214.385 98.25 213.551 98.83C212.718 99.41 211.688 99.85 210.461 100.15C209.235 100.45 207.818 100.6 206.211 100.6C204.538 100.6 203.071 100.437 201.811 100.11C200.551 99.7833 199.501 99.3033 198.661 98.67C197.821 98.0367 197.188 97.26 196.761 96.34C196.341 95.4133 196.131 94.35 196.131 93.15H200.081C200.081 94.4167 200.581 95.3933 201.581 96.08C202.581 96.76 204.121 97.1 206.201 97.1C207.141 97.1 207.978 97.03 208.711 96.89C209.445 96.75 210.065 96.5433 210.571 96.27C211.078 95.9967 211.465 95.66 211.731 95.26C211.998 94.86 212.131 94.4033 212.131 93.89C212.131 93.49 212.055 93.14 211.901 92.84C211.748 92.5333 211.535 92.27 211.261 92.05C210.988 91.8233 210.665 91.63 210.291 91.47C209.925 91.3033 209.525 91.16 209.091 91.04C208.658 90.92 208.205 90.8167 207.731 90.73C207.265 90.6367 206.791 90.55 206.311 90.47L204.841 90.22C204.281 90.1267 203.688 90.02 203.061 89.9C202.435 89.7733 201.811 89.6167 201.191 89.43C200.578 89.2367 199.988 88.9967 199.421 88.71C198.861 88.4167 198.365 88.0567 197.931 87.63C197.505 87.2033 197.161 86.6933 196.901 86.1C196.648 85.5067 196.521 84.81 196.521 84.01C196.521 82.9967 196.735 82.08 197.161 81.26C197.595 80.44 198.211 79.74 199.011 79.16C199.818 78.58 200.795 78.1333 201.941 77.82C203.095 77.5067 204.395 77.35 205.841 77.35Z" fill="black"/>
<path d="M73.02 724.84H78.666C79.55 724.84 80.38 724.932 81.156 725.116C81.936 725.3 82.652 725.568 83.304 725.92C83.96 726.268 84.546 726.694 85.062 727.198C85.578 727.698 86.014 728.266 86.37 728.902C86.73 729.538 87.004 730.236 87.192 730.996C87.384 731.752 87.48 732.56 87.48 733.42C87.48 734.28 87.384 735.09 87.192 735.85C87.004 736.606 86.73 737.302 86.37 737.938C86.014 738.57 85.578 739.138 85.062 739.642C84.546 740.146 83.96 740.572 83.304 740.92C82.652 741.268 81.936 741.536 81.156 741.724C80.38 741.908 79.55 742 78.666 742H73.02V724.84ZM78.672 739.66C79.652 739.66 80.53 739.518 81.306 739.234C82.086 738.946 82.746 738.534 83.286 737.998C83.826 737.462 84.24 736.808 84.528 736.036C84.816 735.264 84.96 734.392 84.96 733.42C84.96 732.448 84.816 731.576 84.528 730.804C84.24 730.032 83.826 729.378 83.286 728.842C82.746 728.306 82.086 727.896 81.306 727.612C80.53 727.324 79.652 727.18 78.672 727.18H75.48V739.66H78.672ZM96.5445 742.36C95.4045 742.36 94.3765 742.246 93.4605 742.018C92.5485 741.79 91.7725 741.464 91.1325 741.04C90.4965 740.616 90.0065 740.1 89.6625 739.492C89.3225 738.884 89.1525 738.2 89.1525 737.44C89.1525 736.86 89.2525 736.328 89.4525 735.844C89.6525 735.356 89.9425 734.926 90.3225 734.554C90.7025 734.182 91.1665 733.87 91.7145 733.618C92.2665 733.366 92.8925 733.186 93.5925 733.078C92.9885 732.982 92.4465 732.824 91.9665 732.604C91.4865 732.38 91.0805 732.104 90.7485 731.776C90.4165 731.448 90.1625 731.072 89.9865 730.648C89.8105 730.22 89.7225 729.754 89.7225 729.25C89.7225 728.546 89.8905 727.902 90.2265 727.318C90.5665 726.73 91.0425 726.226 91.6545 725.806C92.2665 725.386 92.9985 725.06 93.8505 724.828C94.7025 724.596 95.6425 724.48 96.6705 724.48C97.3545 724.48 97.9985 724.532 98.6025 724.636C99.2105 724.74 99.7705 724.89 100.283 725.086C100.795 725.282 101.253 725.522 101.657 725.806C102.065 726.086 102.411 726.402 102.695 726.754C102.979 727.106 103.197 727.492 103.349 727.912C103.501 728.328 103.577 728.772 103.577 729.244C103.577 729.752 103.489 730.22 103.312 730.648C103.137 731.076 102.881 731.454 102.545 731.782C102.209 732.11 101.797 732.384 101.309 732.604C100.825 732.824 100.275 732.982 99.6585 733.078C100.371 733.178 101.001 733.346 101.549 733.582C102.101 733.814 102.565 734.11 102.941 734.47C103.317 734.826 103.603 735.242 103.799 735.718C103.995 736.194 104.093 736.72 104.093 737.296C104.093 738.076 103.917 738.778 103.565 739.402C103.217 740.026 102.715 740.558 102.059 740.998C101.407 741.434 100.615 741.77 99.6825 742.006C98.7545 742.242 97.7085 742.36 96.5445 742.36ZM96.6285 732.208C98.0725 732.208 99.1685 731.974 99.9165 731.506C100.669 731.038 101.045 730.356 101.045 729.46C101.045 727.7 99.5805 726.82 96.6525 726.82C93.7085 726.82 92.2365 727.704 92.2365 729.472C92.2365 730.372 92.6065 731.054 93.3465 731.518C94.0905 731.978 95.1845 732.208 96.6285 732.208ZM96.6285 740.02C98.2685 740.02 99.5025 739.768 100.331 739.264C101.163 738.76 101.579 738.012 101.579 737.02C101.579 736.056 101.175 735.344 100.367 734.884C99.5585 734.42 98.3125 734.188 96.6285 734.188C95.7845 734.188 95.0505 734.246 94.4265 734.362C93.8065 734.474 93.2925 734.648 92.8845 734.884C92.4765 735.116 92.1725 735.41 91.9725 735.766C91.7725 736.122 91.6725 736.54 91.6725 737.02C91.6725 738.012 92.0885 738.76 92.9205 739.264C93.7525 739.768 94.9885 740.02 96.6285 740.02ZM105.14 742L111.536 724.84H115.316L121.628 742H118.952L117.386 737.698H109.346L107.756 742H105.14ZM116.552 735.418L113.396 726.742L110.186 735.418H116.552ZM122.038 742L128.434 724.84H132.214L138.526 742H135.85L134.284 737.698H126.244L124.654 742H122.038ZM133.45 735.418L130.294 726.742L127.084 735.418H133.45ZM151.339 724.84V727.18H142.267V732.268H150.619V734.608H142.267V739.66H151.579V742H139.747V724.84H151.339ZM167.302 736.258C167.302 736.858 167.222 737.426 167.062 737.962C166.906 738.494 166.678 738.986 166.378 739.438C166.082 739.89 165.72 740.296 165.292 740.656C164.868 741.016 164.388 741.322 163.852 741.574C163.32 741.826 162.738 742.018 162.106 742.15C161.478 742.286 160.81 742.354 160.102 742.354C159.434 742.354 158.796 742.294 158.188 742.174C157.584 742.058 157.022 741.89 156.502 741.67C155.986 741.45 155.518 741.184 155.098 740.872C154.682 740.56 154.326 740.212 154.03 739.828C153.734 739.44 153.506 739.02 153.346 738.568C153.186 738.116 153.106 737.642 153.106 737.146V737.014H155.626V737.116C155.626 737.376 155.68 737.628 155.788 737.872C155.896 738.116 156.048 738.344 156.244 738.556C156.44 738.764 156.674 738.956 156.946 739.132C157.218 739.304 157.52 739.452 157.852 739.576C158.188 739.7 158.546 739.796 158.926 739.864C159.31 739.932 159.708 739.966 160.12 739.966C160.8 739.966 161.424 739.874 161.992 739.69C162.564 739.506 163.056 739.25 163.468 738.922C163.88 738.594 164.202 738.202 164.434 737.746C164.666 737.29 164.782 736.792 164.782 736.252C164.782 735.74 164.676 735.272 164.464 734.848C164.252 734.424 163.944 734.06 163.54 733.756C163.14 733.452 162.648 733.218 162.064 733.054C161.484 732.886 160.826 732.802 160.09 732.802C159.538 732.802 159.026 732.852 158.554 732.952C158.082 733.052 157.662 733.188 157.294 733.36C156.93 733.532 156.628 733.734 156.388 733.966C156.152 734.198 155.992 734.444 155.908 734.704H153.388V724.84H166.168V727.18H155.908V733.336C156.096 732.968 156.354 732.634 156.682 732.334C157.014 732.03 157.404 731.768 157.852 731.548C158.304 731.328 158.81 731.158 159.37 731.038C159.93 730.918 160.53 730.858 161.17 730.858C162.114 730.858 162.964 730.988 163.72 731.248C164.476 731.508 165.118 731.876 165.646 732.352C166.178 732.824 166.586 733.392 166.87 734.056C167.158 734.72 167.302 735.454 167.302 736.258Z" fill="black"/>
<path d="M545.02 742V739.762C545.02 739.09 545.106 738.498 545.278 737.986C545.45 737.47 545.684 737.018 545.98 736.63C546.276 736.242 546.62 735.908 547.012 735.628C547.404 735.348 547.818 735.106 548.254 734.902C548.69 734.694 549.138 734.514 549.598 734.362C550.058 734.21 550.502 734.07 550.93 733.942L551.734 733.702C552.138 733.578 552.522 733.458 552.886 733.342C553.254 733.226 553.596 733.1 553.912 732.964C554.228 732.828 554.514 732.678 554.77 732.514C555.03 732.346 555.25 732.154 555.43 731.938C555.614 731.722 555.754 731.474 555.85 731.194C555.95 730.914 556 730.592 556 730.228C556 729.76 555.902 729.32 555.706 728.908C555.51 728.496 555.232 728.136 554.872 727.828C554.512 727.516 554.078 727.272 553.57 727.096C553.062 726.916 552.494 726.826 551.866 726.826C551.222 726.826 550.638 726.924 550.114 727.12C549.59 727.312 549.142 727.584 548.77 727.936C548.402 728.288 548.118 728.712 547.918 729.208C547.718 729.7 547.618 730.244 547.618 730.84V731.158H545.098V730.786C545.098 729.822 545.256 728.952 545.572 728.176C545.892 727.396 546.35 726.734 546.946 726.19C547.546 725.642 548.272 725.22 549.124 724.924C549.976 724.628 550.936 724.48 552.004 724.48C553.04 724.48 553.962 724.618 554.77 724.894C555.578 725.166 556.26 725.554 556.816 726.058C557.372 726.558 557.794 727.16 558.082 727.864C558.374 728.564 558.52 729.342 558.52 730.198C558.52 730.858 558.436 731.438 558.268 731.938C558.104 732.438 557.88 732.876 557.596 733.252C557.316 733.624 556.988 733.944 556.612 734.212C556.24 734.476 555.844 734.704 555.424 734.896C555.008 735.084 554.582 735.246 554.146 735.382C553.71 735.518 553.29 735.644 552.886 735.76L551.824 736.066C551.5 736.158 551.168 736.256 550.828 736.36C550.492 736.46 550.166 736.578 549.85 736.714C549.534 736.846 549.236 737 548.956 737.176C548.676 737.348 548.43 737.552 548.218 737.788C548.01 738.024 547.842 738.296 547.714 738.604C547.59 738.912 547.522 739.264 547.51 739.66H558.466V742H545.02ZM567.771 742.36C566.631 742.36 565.603 742.246 564.687 742.018C563.775 741.79 562.999 741.464 562.359 741.04C561.723 740.616 561.233 740.1 560.889 739.492C560.549 738.884 560.379 738.2 560.379 737.44C560.379 736.86 560.479 736.328 560.679 735.844C560.879 735.356 561.169 734.926 561.549 734.554C561.929 734.182 562.393 733.87 562.941 733.618C563.493 733.366 564.119 733.186 564.819 733.078C564.215 732.982 563.673 732.824 563.193 732.604C562.713 732.38 562.307 732.104 561.975 731.776C561.643 731.448 561.389 731.072 561.213 730.648C561.037 730.22 560.949 729.754 560.949 729.25C560.949 728.546 561.117 727.902 561.453 727.318C561.793 726.73 562.269 726.226 562.881 725.806C563.493 725.386 564.225 725.06 565.077 724.828C565.929 724.596 566.869 724.48 567.897 724.48C568.581 724.48 569.225 724.532 569.829 724.636C570.437 724.74 570.997 724.89 571.509 725.086C572.021 725.282 572.479 725.522 572.883 725.806C573.291 726.086 573.637 726.402 573.921 726.754C574.205 727.106 574.423 727.492 574.575 727.912C574.727 728.328 574.803 728.772 574.803 729.244C574.803 729.752 574.715 730.22 574.539 730.648C574.363 731.076 574.107 731.454 573.771 731.782C573.435 732.11 573.023 732.384 572.535 732.604C572.051 732.824 571.501 732.982 570.885 733.078C571.597 733.178 572.227 733.346 572.775 733.582C573.327 733.814 573.791 734.11 574.167 734.47C574.543 734.826 574.829 735.242 575.025 735.718C575.221 736.194 575.319 736.72 575.319 737.296C575.319 738.076 575.143 738.778 574.791 739.402C574.443 740.026 573.941 740.558 573.285 740.998C572.633 741.434 571.841 741.77 570.909 742.006C569.981 742.242 568.935 742.36 567.771 742.36ZM567.855 732.208C569.299 732.208 570.395 731.974 571.143 731.506C571.895 731.038 572.271 730.356 572.271 729.46C572.271 727.7 570.807 726.82 567.879 726.82C564.935 726.82 563.463 727.704 563.463 729.472C563.463 730.372 563.833 731.054 564.573 731.518C565.317 731.978 566.411 732.208 567.855 732.208ZM567.855 740.02C569.495 740.02 570.729 739.768 571.557 739.264C572.389 738.76 572.805 738.012 572.805 737.02C572.805 736.056 572.401 735.344 571.593 734.884C570.785 734.42 569.539 734.188 567.855 734.188C567.011 734.188 566.277 734.246 565.653 734.362C565.033 734.474 564.519 734.648 564.111 734.884C563.703 735.116 563.399 735.41 563.199 735.766C562.999 736.122 562.899 736.54 562.899 737.02C562.899 738.012 563.315 738.76 564.147 739.264C564.979 739.768 566.215 740.02 567.855 740.02ZM577.176 742V739.762C577.176 739.09 577.262 738.498 577.434 737.986C577.606 737.47 577.84 737.018 578.136 736.63C578.432 736.242 578.776 735.908 579.168 735.628C579.56 735.348 579.974 735.106 580.41 734.902C580.846 734.694 581.294 734.514 581.754 734.362C582.214 734.21 582.658 734.07 583.086 733.942L583.89 733.702C584.294 733.578 584.678 733.458 585.042 733.342C585.41 733.226 585.752 733.1 586.068 732.964C586.384 732.828 586.67 732.678 586.926 732.514C587.186 732.346 587.406 732.154 587.586 731.938C587.77 731.722 587.91 731.474 588.006 731.194C588.106 730.914 588.156 730.592 588.156 730.228C588.156 729.76 588.058 729.32 587.862 728.908C587.666 728.496 587.388 728.136 587.028 727.828C586.668 727.516 586.234 727.272 585.726 727.096C585.218 726.916 584.65 726.826 584.022 726.826C583.378 726.826 582.794 726.924 582.27 727.12C581.746 727.312 581.298 727.584 580.926 727.936C580.558 728.288 580.274 728.712 580.074 729.208C579.874 729.7 579.774 730.244 579.774 730.84V731.158H577.254V730.786C577.254 729.822 577.412 728.952 577.728 728.176C578.048 727.396 578.506 726.734 579.102 726.19C579.702 725.642 580.428 725.22 581.28 724.924C582.132 724.628 583.092 724.48 584.16 724.48C585.196 724.48 586.118 724.618 586.926 724.894C587.734 725.166 588.416 725.554 588.972 726.058C589.528 726.558 589.95 727.16 590.238 727.864C590.53 728.564 590.676 729.342 590.676 730.198C590.676 730.858 590.592 731.438 590.424 731.938C590.26 732.438 590.036 732.876 589.752 733.252C589.472 733.624 589.144 733.944 588.768 734.212C588.396 734.476 588 734.704 587.58 734.896C587.164 735.084 586.738 735.246 586.302 735.382C585.866 735.518 585.446 735.644 585.042 735.76L583.98 736.066C583.656 736.158 583.324 736.256 582.984 736.36C582.648 736.46 582.322 736.578 582.006 736.714C581.69 736.846 581.392 737 581.112 737.176C580.832 737.348 580.586 737.552 580.374 737.788C580.166 738.024 579.998 738.296 579.87 738.604C579.746 738.912 579.678 739.264 579.666 739.66H590.622V742H577.176ZM599.927 742.36C598.787 742.36 597.759 742.246 596.843 742.018C595.931 741.79 595.155 741.464 594.515 741.04C593.879 740.616 593.389 740.1 593.045 739.492C592.705 738.884 592.535 738.2 592.535 737.44C592.535 736.86 592.635 736.328 592.835 735.844C593.035 735.356 593.325 734.926 593.705 734.554C594.085 734.182 594.549 733.87 595.097 733.618C595.649 733.366 596.275 733.186 596.975 733.078C596.371 732.982 595.829 732.824 595.349 732.604C594.869 732.38 594.463 732.104 594.131 731.776C593.799 731.448 593.545 731.072 593.369 730.648C593.193 730.22 593.105 729.754 593.105 729.25C593.105 728.546 593.273 727.902 593.609 727.318C593.949 726.73 594.425 726.226 595.037 725.806C595.649 725.386 596.381 725.06 597.233 724.828C598.085 724.596 599.025 724.48 600.053 724.48C600.737 724.48 601.381 724.532 601.985 724.636C602.593 724.74 603.153 724.89 603.665 725.086C604.177 725.282 604.635 725.522 605.039 725.806C605.447 726.086 605.793 726.402 606.077 726.754C606.361 727.106 606.579 727.492 606.731 727.912C606.883 728.328 606.959 728.772 606.959 729.244C606.959 729.752 606.871 730.22 606.695 730.648C606.519 731.076 606.263 731.454 605.927 731.782C605.591 732.11 605.179 732.384 604.691 732.604C604.207 732.824 603.657 732.982 603.041 733.078C603.753 733.178 604.383 733.346 604.931 733.582C605.483 733.814 605.947 734.11 606.323 734.47C606.699 734.826 606.985 735.242 607.181 735.718C607.377 736.194 607.475 736.72 607.475 737.296C607.475 738.076 607.299 738.778 606.947 739.402C606.599 740.026 606.097 740.558 605.441 740.998C604.789 741.434 603.997 741.77 603.065 742.006C602.137 742.242 601.091 742.36 599.927 742.36ZM600.011 732.208C601.455 732.208 602.551 731.974 603.299 731.506C604.051 731.038 604.427 730.356 604.427 729.46C604.427 727.7 602.963 726.82 600.035 726.82C597.091 726.82 595.619 727.704 595.619 729.472C595.619 730.372 595.989 731.054 596.729 731.518C597.473 731.978 598.567 732.208 600.011 732.208ZM600.011 740.02C601.651 740.02 602.885 739.768 603.713 739.264C604.545 738.76 604.961 738.012 604.961 737.02C604.961 736.056 604.557 735.344 603.749 734.884C602.941 734.42 601.695 734.188 600.011 734.188C599.167 734.188 598.433 734.246 597.809 734.362C597.189 734.474 596.675 734.648 596.267 734.884C595.859 735.116 595.555 735.41 595.355 735.766C595.155 736.122 595.055 736.54 595.055 737.02C595.055 738.012 595.471 738.76 596.303 739.264C597.135 739.768 598.371 740.02 600.011 740.02ZM609.333 742V739.762C609.333 739.09 609.419 738.498 609.591 737.986C609.763 737.47 609.997 737.018 610.293 736.63C610.589 736.242 610.933 735.908 611.325 735.628C611.717 735.348 612.131 735.106 612.567 734.902C613.003 734.694 613.451 734.514 613.911 734.362C614.371 734.21 614.815 734.07 615.243 733.942L616.047 733.702C616.451 733.578 616.835 733.458 617.199 733.342C617.567 733.226 617.909 733.1 618.225 732.964C618.541 732.828 618.827 732.678 619.083 732.514C619.343 732.346 619.563 732.154 619.743 731.938C619.927 731.722 620.067 731.474 620.163 731.194C620.263 730.914 620.312 730.592 620.312 730.228C620.312 729.76 620.215 729.32 620.019 728.908C619.823 728.496 619.545 728.136 619.185 727.828C618.825 727.516 618.391 727.272 617.883 727.096C617.375 726.916 616.807 726.826 616.179 726.826C615.535 726.826 614.951 726.924 614.427 727.12C613.903 727.312 613.455 727.584 613.083 727.936C612.715 728.288 612.431 728.712 612.231 729.208C612.031 729.7 611.931 730.244 611.931 730.84V731.158H609.411V730.786C609.411 729.822 609.569 728.952 609.885 728.176C610.205 727.396 610.663 726.734 611.259 726.19C611.859 725.642 612.585 725.22 613.437 724.924C614.289 724.628 615.249 724.48 616.317 724.48C617.353 724.48 618.275 724.618 619.083 724.894C619.891 725.166 620.573 725.554 621.129 726.058C621.685 726.558 622.107 727.16 622.395 727.864C622.687 728.564 622.833 729.342 622.833 730.198C622.833 730.858 622.749 731.438 622.581 731.938C622.417 732.438 622.193 732.876 621.909 733.252C621.629 733.624 621.301 733.944 620.924 734.212C620.553 734.476 620.157 734.704 619.737 734.896C619.321 735.084 618.895 735.246 618.459 735.382C618.023 735.518 617.603 735.644 617.199 735.76L616.137 736.066C615.813 736.158 615.481 736.256 615.141 736.36C614.805 736.46 614.479 736.578 614.163 736.714C613.847 736.846 613.549 737 613.269 737.176C612.989 737.348 612.743 737.552 612.531 737.788C612.323 738.024 612.155 738.296 612.027 738.604C611.903 738.912 611.835 739.264 611.823 739.66H622.779V742H609.333ZM632.084 742.36C630.944 742.36 629.916 742.246 629 742.018C628.088 741.79 627.312 741.464 626.672 741.04C626.036 740.616 625.546 740.1 625.202 739.492C624.862 738.884 624.692 738.2 624.692 737.44C624.692 736.86 624.792 736.328 624.992 735.844C625.192 735.356 625.482 734.926 625.862 734.554C626.242 734.182 626.706 733.87 627.254 733.618C627.806 733.366 628.432 733.186 629.132 733.078C628.528 732.982 627.986 732.824 627.506 732.604C627.026 732.38 626.62 732.104 626.288 731.776C625.956 731.448 625.702 731.072 625.526 730.648C625.35 730.22 625.262 729.754 625.262 729.25C625.262 728.546 625.43 727.902 625.766 727.318C626.106 726.73 626.582 726.226 627.194 725.806C627.806 725.386 628.538 725.06 629.39 724.828C630.242 724.596 631.182 724.48 632.21 724.48C632.894 724.48 633.538 724.532 634.142 724.636C634.75 724.74 635.31 724.89 635.822 725.086C636.334 725.282 636.792 725.522 637.196 725.806C637.604 726.086 637.95 726.402 638.234 726.754C638.518 727.106 638.736 727.492 638.888 727.912C639.04 728.328 639.116 728.772 639.116 729.244C639.116 729.752 639.028 730.22 638.852 730.648C638.676 731.076 638.42 731.454 638.084 731.782C637.748 732.11 637.336 732.384 636.848 732.604C636.364 732.824 635.814 732.982 635.198 733.078C635.91 733.178 636.54 733.346 637.088 733.582C637.64 733.814 638.104 734.11 638.48 734.47C638.856 734.826 639.142 735.242 639.338 735.718C639.534 736.194 639.632 736.72 639.632 737.296C639.632 738.076 639.456 738.778 639.104 739.402C638.756 740.026 638.254 740.558 637.598 740.998C636.946 741.434 636.154 741.77 635.222 742.006C634.294 742.242 633.248 742.36 632.084 742.36ZM632.168 732.208C633.612 732.208 634.708 731.974 635.456 731.506C636.208 731.038 636.584 730.356 636.584 729.46C636.584 727.7 635.12 726.82 632.192 726.82C629.248 726.82 627.776 727.704 627.776 729.472C627.776 730.372 628.146 731.054 628.886 731.518C629.63 731.978 630.724 732.208 632.168 732.208ZM632.168 740.02C633.808 740.02 635.042 739.768 635.87 739.264C636.702 738.76 637.118 738.012 637.118 737.02C637.118 736.056 636.714 735.344 635.906 734.884C635.098 734.42 633.852 734.188 632.168 734.188C631.324 734.188 630.59 734.246 629.966 734.362C629.346 734.474 628.832 734.648 628.424 734.884C628.016 735.116 627.712 735.41 627.512 735.766C627.312 736.122 627.212 736.54 627.212 737.02C627.212 738.012 627.628 738.76 628.46 739.264C629.292 739.768 630.528 740.02 632.168 740.02Z" fill="#F7F8F6"/>
<path d="M552.849 359.296C553.377 359.296 553.879 359.348 554.355 359.452C554.835 359.552 555.279 359.696 555.687 359.884C556.095 360.068 556.463 360.294 556.791 360.562C557.123 360.826 557.403 361.124 557.631 361.456C557.863 361.784 558.041 362.142 558.165 362.53C558.293 362.914 558.357 363.32 558.357 363.748C558.357 364.256 558.271 364.732 558.099 365.176C557.927 365.616 557.685 366.006 557.373 366.346C557.065 366.682 556.699 366.96 556.275 367.18C555.851 367.4 555.387 367.54 554.883 367.6C555.499 367.656 556.063 367.802 556.575 368.038C557.091 368.27 557.535 368.572 557.907 368.944C558.279 369.316 558.567 369.748 558.771 370.24C558.979 370.732 559.083 371.266 559.083 371.842C559.083 372.294 559.019 372.722 558.891 373.126C558.763 373.53 558.577 373.904 558.333 374.248C558.093 374.588 557.801 374.894 557.457 375.166C557.113 375.438 556.725 375.67 556.293 375.862C555.865 376.054 555.397 376.202 554.889 376.306C554.381 376.406 553.843 376.456 553.275 376.456H544.503V359.296H552.849ZM552.729 366.706C553.197 366.706 553.623 366.642 554.007 366.514C554.391 366.386 554.719 366.208 554.991 365.98C555.267 365.748 555.479 365.47 555.627 365.146C555.779 364.822 555.855 364.464 555.855 364.072C555.855 363.692 555.783 363.352 555.639 363.052C555.495 362.752 555.287 362.498 555.015 362.29C554.747 362.078 554.419 361.916 554.031 361.804C553.643 361.692 553.203 361.636 552.711 361.636H547.023V366.706H552.729ZM552.915 374.116C555.359 374.116 556.581 373.248 556.581 371.512C556.581 370.64 556.279 369.992 555.675 369.568C555.071 369.14 554.153 368.926 552.921 368.926H547.023V374.116H552.915ZM562.593 367.876C562.593 368.908 562.719 369.832 562.971 370.648C563.227 371.464 563.595 372.156 564.075 372.724C564.555 373.288 565.139 373.722 565.827 374.026C566.519 374.326 567.299 374.476 568.167 374.476C568.871 374.476 569.509 374.376 570.081 374.176C570.657 373.976 571.163 373.68 571.599 373.288C572.039 372.892 572.405 372.404 572.697 371.824C572.993 371.24 573.215 370.564 573.363 369.796H575.883C575.703 370.892 575.391 371.874 574.947 372.742C574.507 373.61 573.955 374.346 573.291 374.95C572.627 375.554 571.863 376.016 570.999 376.336C570.135 376.656 569.189 376.816 568.161 376.816C567.361 376.816 566.605 376.718 565.893 376.522C565.181 376.326 564.525 376.046 563.925 375.682C563.329 375.314 562.793 374.868 562.317 374.344C561.841 373.816 561.435 373.222 561.099 372.562C560.767 371.898 560.513 371.172 560.337 370.384C560.161 369.596 560.073 368.76 560.073 367.876C560.073 366.988 560.161 366.152 560.337 365.368C560.513 364.58 560.767 363.856 561.099 363.196C561.435 362.532 561.841 361.938 562.317 361.414C562.793 360.886 563.329 360.44 563.925 360.076C564.525 359.708 565.181 359.426 565.893 359.23C566.605 359.034 567.361 358.936 568.161 358.936C569.189 358.936 570.135 359.096 570.999 359.416C571.863 359.736 572.627 360.198 573.291 360.802C573.955 361.406 574.507 362.142 574.947 363.01C575.391 363.878 575.703 364.86 575.883 365.956H573.363C573.215 365.188 572.993 364.514 572.697 363.934C572.405 363.35 572.039 362.862 571.599 362.47C571.163 362.074 570.657 361.776 570.081 361.576C569.509 361.376 568.871 361.276 568.167 361.276C567.299 361.276 566.519 361.428 565.827 361.732C565.139 362.032 564.555 362.466 564.075 363.034C563.595 363.598 563.227 364.288 562.971 365.104C562.719 365.92 562.593 366.844 562.593 367.876ZM580.194 367.876C580.194 368.908 580.32 369.832 580.572 370.648C580.828 371.464 581.196 372.156 581.676 372.724C582.156 373.288 582.74 373.722 583.428 374.026C584.12 374.326 584.9 374.476 585.768 374.476C586.472 374.476 587.11 374.376 587.682 374.176C588.258 373.976 588.764 373.68 589.2 373.288C589.64 372.892 590.006 372.404 590.298 371.824C590.594 371.24 590.816 370.564 590.964 369.796H593.484C593.304 370.892 592.992 371.874 592.548 372.742C592.108 373.61 591.556 374.346 590.892 374.95C590.228 375.554 589.464 376.016 588.6 376.336C587.736 376.656 586.79 376.816 585.762 376.816C584.962 376.816 584.206 376.718 583.494 376.522C582.782 376.326 582.126 376.046 581.526 375.682C580.93 375.314 580.394 374.868 579.918 374.344C579.442 373.816 579.036 373.222 578.7 372.562C578.368 371.898 578.114 371.172 577.938 370.384C577.762 369.596 577.674 368.76 577.674 367.876C577.674 366.988 577.762 366.152 577.938 365.368C578.114 364.58 578.368 363.856 578.7 363.196C579.036 362.532 579.442 361.938 579.918 361.414C580.394 360.886 580.93 360.44 581.526 360.076C582.126 359.708 582.782 359.426 583.494 359.23C584.206 359.034 584.962 358.936 585.762 358.936C586.79 358.936 587.736 359.096 588.6 359.416C589.464 359.736 590.228 360.198 590.892 360.802C591.556 361.406 592.108 362.142 592.548 363.01C592.992 363.878 593.304 364.86 593.484 365.956H590.964C590.816 365.188 590.594 364.514 590.298 363.934C590.006 363.35 589.64 362.862 589.2 362.47C588.764 362.074 588.258 361.776 587.682 361.576C587.11 361.376 586.472 361.276 585.768 361.276C584.9 361.276 584.12 361.428 583.428 361.732C582.74 362.032 582.156 362.466 581.676 363.034C581.196 363.598 580.828 364.288 580.572 365.104C580.32 365.92 580.194 366.844 580.194 367.876ZM603.802 359.296C604.33 359.296 604.832 359.348 605.308 359.452C605.788 359.552 606.232 359.696 606.64 359.884C607.048 360.068 607.416 360.294 607.744 360.562C608.076 360.826 608.356 361.124 608.584 361.456C608.816 361.784 608.994 362.142 609.118 362.53C609.246 362.914 609.31 363.32 609.31 363.748C609.31 364.256 609.224 364.732 609.052 365.176C608.88 365.616 608.638 366.006 608.326 366.346C608.018 366.682 607.652 366.96 607.228 367.18C606.804 367.4 606.34 367.54 605.836 367.6C606.452 367.656 607.016 367.802 607.528 368.038C608.044 368.27 608.488 368.572 608.86 368.944C609.232 369.316 609.52 369.748 609.724 370.24C609.932 370.732 610.036 371.266 610.036 371.842C610.036 372.294 609.972 372.722 609.844 373.126C609.716 373.53 609.53 373.904 609.286 374.248C609.046 374.588 608.754 374.894 608.41 375.166C608.066 375.438 607.678 375.67 607.246 375.862C606.818 376.054 606.35 376.202 605.842 376.306C605.334 376.406 604.796 376.456 604.228 376.456H595.456V359.296H603.802ZM603.682 366.706C604.15 366.706 604.576 366.642 604.96 366.514C605.344 366.386 605.672 366.208 605.944 365.98C606.22 365.748 606.432 365.47 606.58 365.146C606.732 364.822 606.808 364.464 606.808 364.072C606.808 363.692 606.736 363.352 606.592 363.052C606.448 362.752 606.24 362.498 605.968 362.29C605.7 362.078 605.372 361.916 604.984 361.804C604.596 361.692 604.156 361.636 603.664 361.636H597.976V366.706H603.682ZM603.868 374.116C606.312 374.116 607.534 373.248 607.534 371.512C607.534 370.64 607.232 369.992 606.628 369.568C606.024 369.14 605.106 368.926 603.874 368.926H597.976V374.116H603.868ZM623.15 359.296V361.636H614.078V366.724H622.43V369.064H614.078V374.116H623.39V376.456H611.558V359.296H623.15ZM624.107 376.456L630.503 359.296H634.283L640.595 376.456H637.919L636.353 372.154H628.313L626.723 376.456H624.107ZM635.519 369.874L632.363 361.198L629.153 369.874H635.519Z" fill="#282828"/>
<path d="M920.21 376.456L926.606 359.296H930.386L936.698 376.456H934.022L932.456 372.154H924.416L922.826 376.456H920.21ZM931.622 369.874L928.466 361.198L925.256 369.874H931.622ZM937.918 359.296H943.564C944.448 359.296 945.278 359.388 946.054 359.572C946.834 359.756 947.55 360.024 948.202 360.376C948.858 360.724 949.444 361.15 949.96 361.654C950.476 362.154 950.912 362.722 951.268 363.358C951.628 363.994 951.902 364.692 952.09 365.452C952.282 366.208 952.378 367.016 952.378 367.876C952.378 368.736 952.282 369.546 952.09 370.306C951.902 371.062 951.628 371.758 951.268 372.394C950.912 373.026 950.476 373.594 949.96 374.098C949.444 374.602 948.858 375.028 948.202 375.376C947.55 375.724 946.834 375.992 946.054 376.18C945.278 376.364 944.448 376.456 943.564 376.456H937.918V359.296ZM943.57 374.116C944.55 374.116 945.428 373.974 946.204 373.69C946.984 373.402 947.644 372.99 948.184 372.454C948.724 371.918 949.138 371.264 949.426 370.492C949.714 369.72 949.858 368.848 949.858 367.876C949.858 366.904 949.714 366.032 949.426 365.26C949.138 364.488 948.724 363.834 948.184 363.298C947.644 362.762 946.984 362.352 946.204 362.068C945.428 361.78 944.55 361.636 943.57 361.636H940.378V374.116H943.57ZM965.823 359.296V361.636H956.751V366.724H965.103V369.064H956.751V374.116H966.063V376.456H954.231V359.296H965.823ZM974.802 376.816C973.662 376.816 972.634 376.702 971.718 376.474C970.806 376.246 970.03 375.92 969.39 375.496C968.754 375.072 968.264 374.556 967.92 373.948C967.58 373.34 967.41 372.656 967.41 371.896C967.41 371.316 967.51 370.784 967.71 370.3C967.91 369.812 968.2 369.382 968.58 369.01C968.96 368.638 969.424 368.326 969.972 368.074C970.524 367.822 971.15 367.642 971.85 367.534C971.246 367.438 970.704 367.28 970.224 367.06C969.744 366.836 969.338 366.56 969.006 366.232C968.674 365.904 968.42 365.528 968.244 365.104C968.068 364.676 967.98 364.21 967.98 363.706C967.98 363.002 968.148 362.358 968.484 361.774C968.824 361.186 969.3 360.682 969.912 360.262C970.524 359.842 971.256 359.516 972.108 359.284C972.96 359.052 973.9 358.936 974.928 358.936C975.612 358.936 976.256 358.988 976.86 359.092C977.468 359.196 978.028 359.346 978.54 359.542C979.052 359.738 979.51 359.978 979.914 360.262C980.322 360.542 980.668 360.858 980.952 361.21C981.236 361.562 981.454 361.948 981.606 362.368C981.758 362.784 981.834 363.228 981.834 363.7C981.834 364.208 981.746 364.676 981.57 365.104C981.394 365.532 981.138 365.91 980.802 366.238C980.466 366.566 980.054 366.84 979.566 367.06C979.082 367.28 978.532 367.438 977.916 367.534C978.628 367.634 979.258 367.802 979.806 368.038C980.358 368.27 980.822 368.566 981.198 368.926C981.574 369.282 981.86 369.698 982.056 370.174C982.252 370.65 982.35 371.176 982.35 371.752C982.35 372.532 982.174 373.234 981.822 373.858C981.474 374.482 980.972 375.014 980.316 375.454C979.664 375.89 978.872 376.226 977.94 376.462C977.012 376.698 975.966 376.816 974.802 376.816ZM974.886 366.664C976.33 366.664 977.426 366.43 978.174 365.962C978.926 365.494 979.302 364.812 979.302 363.916C979.302 362.156 977.838 361.276 974.91 361.276C971.966 361.276 970.494 362.16 970.494 363.928C970.494 364.828 970.864 365.51 971.604 365.974C972.348 366.434 973.442 366.664 974.886 366.664ZM974.886 374.476C976.526 374.476 977.76 374.224 978.588 373.72C979.42 373.216 979.836 372.468 979.836 371.476C979.836 370.512 979.432 369.8 978.624 369.34C977.816 368.876 976.57 368.644 974.886 368.644C974.042 368.644 973.308 368.702 972.684 368.818C972.064 368.93 971.55 369.104 971.142 369.34C970.734 369.572 970.43 369.866 970.23 370.222C970.03 370.578 969.93 370.996 969.93 371.476C969.93 372.468 970.346 373.216 971.178 373.72C972.01 374.224 973.246 374.476 974.886 374.476ZM983.398 376.456L989.794 359.296H993.574L999.886 376.456H997.21L995.644 372.154H987.604L986.014 376.456H983.398ZM994.81 369.874L991.654 361.198L988.444 369.874H994.81ZM1000.93 364.612C1000.93 363.72 1001.08 362.922 1001.39 362.218C1001.7 361.514 1002.15 360.92 1002.74 360.436C1003.33 359.948 1004.04 359.576 1004.89 359.32C1005.74 359.064 1006.7 358.936 1007.78 358.936C1008.8 358.936 1009.73 359.05 1010.56 359.278C1011.4 359.502 1012.11 359.822 1012.7 360.238C1013.3 360.65 1013.75 361.148 1014.08 361.732C1014.4 362.312 1014.56 362.96 1014.56 363.676C1014.56 364.208 1014.47 364.7 1014.29 365.152C1014.12 365.604 1013.87 366.002 1013.54 366.346C1013.22 366.686 1012.84 366.964 1012.39 367.18C1011.94 367.392 1011.44 367.526 1010.9 367.582C1011.61 367.622 1012.24 367.744 1012.79 367.948C1013.34 368.152 1013.81 368.43 1014.2 368.782C1014.59 369.13 1014.88 369.546 1015.09 370.03C1015.29 370.51 1015.39 371.05 1015.39 371.65C1015.39 372.43 1015.22 373.138 1014.88 373.774C1014.54 374.406 1014.06 374.948 1013.44 375.4C1012.81 375.852 1012.06 376.202 1011.19 376.45C1010.31 376.694 1009.34 376.816 1008.26 376.816C1007.13 376.816 1006.11 376.678 1005.2 376.402C1004.3 376.122 1003.53 375.724 1002.89 375.208C1002.26 374.692 1001.78 374.064 1001.44 373.324C1001.1 372.584 1000.93 371.752 1000.93 370.828V370.798H1003.45V370.978C1003.45 371.506 1003.56 371.986 1003.78 372.418C1004 372.846 1004.31 373.214 1004.71 373.522C1005.11 373.826 1005.6 374.062 1006.16 374.23C1006.73 374.394 1007.36 374.476 1008.06 374.476C1008.76 374.476 1009.4 374.394 1009.99 374.23C1010.57 374.066 1011.08 373.84 1011.51 373.552C1011.94 373.26 1012.27 372.914 1012.51 372.514C1012.75 372.11 1012.87 371.672 1012.87 371.2C1012.87 370.404 1012.51 369.814 1011.79 369.43C1011.06 369.046 1009.95 368.854 1008.46 368.854H1006.29V366.634H1008.46C1009.01 366.634 1009.51 366.576 1009.95 366.46C1010.39 366.34 1010.77 366.172 1011.08 365.956C1011.4 365.74 1011.64 365.48 1011.8 365.176C1011.98 364.868 1012.06 364.524 1012.06 364.144C1012.06 363.716 1011.95 363.326 1011.74 362.974C1011.53 362.622 1011.22 362.32 1010.83 362.068C1010.44 361.816 1009.98 361.622 1009.43 361.486C1008.88 361.346 1008.28 361.276 1007.62 361.276C1006.94 361.276 1006.35 361.35 1005.83 361.498C1005.31 361.642 1004.88 361.856 1004.52 362.14C1004.17 362.42 1003.9 362.768 1003.72 363.184C1003.54 363.596 1003.45 364.07 1003.45 364.606V364.642H1000.93V364.612Z" fill="#282828"/>
<path d="M807.612 727.18H798.54V732.508H806.892V734.848H798.54V742H796.02V724.84H807.612V727.18ZM812.595 742C812.659 741.016 812.759 740.08 812.895 739.192C813.035 738.3 813.219 737.442 813.447 736.618C813.679 735.79 813.963 734.986 814.299 734.206C814.639 733.426 815.041 732.652 815.505 731.884C815.973 731.112 816.509 730.34 817.113 729.568C817.721 728.792 818.409 727.996 819.177 727.18H808.785V724.84H821.733V727.3C821.001 728.052 820.345 728.78 819.765 729.484C819.189 730.184 818.677 730.888 818.229 731.596C817.785 732.3 817.399 733.024 817.071 733.768C816.747 734.512 816.471 735.302 816.243 736.138C816.019 736.974 815.835 737.874 815.691 738.838C815.547 739.802 815.435 740.856 815.355 742H812.595ZM835.362 727.18H826.29V732.508H834.642V734.848H826.29V742H823.77V724.84H835.362V727.18ZM844.107 742.36C842.967 742.36 841.939 742.246 841.023 742.018C840.111 741.79 839.335 741.464 838.695 741.04C838.059 740.616 837.569 740.1 837.225 739.492C836.885 738.884 836.715 738.2 836.715 737.44C836.715 736.86 836.815 736.328 837.015 735.844C837.215 735.356 837.505 734.926 837.885 734.554C838.265 734.182 838.729 733.87 839.277 733.618C839.829 733.366 840.455 733.186 841.155 733.078C840.551 732.982 840.009 732.824 839.529 732.604C839.049 732.38 838.643 732.104 838.311 731.776C837.979 731.448 837.725 731.072 837.549 730.648C837.373 730.22 837.285 729.754 837.285 729.25C837.285 728.546 837.453 727.902 837.789 727.318C838.129 726.73 838.605 726.226 839.217 725.806C839.829 725.386 840.561 725.06 841.413 724.828C842.265 724.596 843.205 724.48 844.233 724.48C844.917 724.48 845.561 724.532 846.165 724.636C846.773 724.74 847.333 724.89 847.845 725.086C848.357 725.282 848.815 725.522 849.219 725.806C849.627 726.086 849.973 726.402 850.257 726.754C850.541 727.106 850.759 727.492 850.911 727.912C851.063 728.328 851.139 728.772 851.139 729.244C851.139 729.752 851.051 730.22 850.875 730.648C850.699 731.076 850.443 731.454 850.107 731.782C849.771 732.11 849.359 732.384 848.871 732.604C848.387 732.824 847.837 732.982 847.221 733.078C847.933 733.178 848.563 733.346 849.111 733.582C849.663 733.814 850.127 734.11 850.503 734.47C850.879 734.826 851.165 735.242 851.361 735.718C851.557 736.194 851.655 736.72 851.655 737.296C851.655 738.076 851.479 738.778 851.127 739.402C850.779 740.026 850.277 740.558 849.621 740.998C848.969 741.434 848.177 741.77 847.245 742.006C846.317 742.242 845.271 742.36 844.107 742.36ZM844.191 732.208C845.635 732.208 846.731 731.974 847.479 731.506C848.231 731.038 848.607 730.356 848.607 729.46C848.607 727.7 847.143 726.82 844.215 726.82C841.271 726.82 839.799 727.704 839.799 729.472C839.799 730.372 840.169 731.054 840.909 731.518C841.653 731.978 842.747 732.208 844.191 732.208ZM844.191 740.02C845.831 740.02 847.065 739.768 847.893 739.264C848.725 738.76 849.141 738.012 849.141 737.02C849.141 736.056 848.737 735.344 847.929 734.884C847.121 734.42 845.875 734.188 844.191 734.188C843.347 734.188 842.613 734.246 841.989 734.362C841.369 734.474 840.855 734.648 840.447 734.884C840.039 735.116 839.735 735.41 839.535 735.766C839.335 736.122 839.235 736.54 839.235 737.02C839.235 738.012 839.651 738.76 840.483 739.264C841.315 739.768 842.551 740.02 844.191 740.02ZM865.104 727.18H856.032V732.508H864.384V734.848H856.032V742H853.512V724.84H865.104V727.18ZM874.269 724.48C874.917 724.48 875.529 724.54 876.105 724.66C876.681 724.78 877.211 724.954 877.695 725.182C878.183 725.406 878.619 725.68 879.003 726.004C879.391 726.324 879.719 726.688 879.987 727.096C880.255 727.5 880.461 727.944 880.605 728.428C880.749 728.908 880.821 729.418 880.821 729.958V730.102H878.301V729.982C878.301 729.51 878.203 729.08 878.007 728.692C877.815 728.304 877.543 727.972 877.191 727.696C876.839 727.416 876.417 727.2 875.925 727.048C875.433 726.896 874.889 726.82 874.293 726.82C873.441 726.82 872.683 726.98 872.019 727.3C871.359 727.616 870.803 728.08 870.351 728.692C869.899 729.304 869.555 730.058 869.319 730.954C869.083 731.85 868.965 732.874 868.965 734.026V735.874C869.049 735.226 869.249 734.646 869.565 734.134C869.885 733.622 870.307 733.188 870.831 732.832C871.355 732.472 871.975 732.198 872.691 732.01C873.407 731.818 874.205 731.722 875.085 731.722C876.045 731.722 876.905 731.836 877.665 732.064C878.425 732.292 879.069 732.62 879.597 733.048C880.129 733.476 880.535 733.998 880.815 734.614C881.095 735.23 881.235 735.928 881.235 736.708C881.235 737.56 881.067 738.334 880.731 739.03C880.399 739.726 879.925 740.32 879.309 740.812C878.697 741.304 877.957 741.684 877.089 741.952C876.221 742.22 875.255 742.354 874.191 742.354C872.943 742.354 871.839 742.166 870.879 741.79C869.919 741.414 869.111 740.864 868.455 740.14C867.799 739.416 867.301 738.528 866.961 737.476C866.625 736.42 866.457 735.214 866.457 733.858V733.714C866.457 732.274 866.635 730.984 866.991 729.844C867.351 728.7 867.867 727.732 868.539 726.94C869.211 726.144 870.029 725.536 870.993 725.116C871.961 724.692 873.053 724.48 874.269 724.48ZM874.455 740.014C875.139 740.014 875.745 739.944 876.273 739.804C876.805 739.66 877.251 739.45 877.611 739.174C877.975 738.894 878.249 738.552 878.433 738.148C878.621 737.74 878.715 737.272 878.715 736.744C878.715 736.22 878.623 735.756 878.439 735.352C878.255 734.948 877.985 734.608 877.629 734.332C877.277 734.056 876.843 733.846 876.327 733.702C875.811 733.558 875.219 733.486 874.551 733.486C873.823 733.486 873.151 733.57 872.535 733.738C871.919 733.902 871.387 734.132 870.939 734.428C870.491 734.724 870.141 735.076 869.889 735.484C869.637 735.888 869.511 736.332 869.511 736.816C869.511 737.288 869.631 737.72 869.871 738.112C870.111 738.504 870.449 738.842 870.885 739.126C871.321 739.406 871.841 739.624 872.445 739.78C873.053 739.936 873.723 740.014 874.455 740.014Z" fill="#282828"/>
<path d="M1056.61 727.18H1047.54V732.508H1055.89V734.848H1047.54V742H1045.02V724.84H1056.61V727.18ZM1069.74 727.18H1060.67V732.508H1069.02V734.848H1060.67V742H1058.15V724.84H1069.74V727.18ZM1082.86 727.18H1073.79V732.508H1082.14V734.848H1073.79V742H1071.27V724.84H1082.86V727.18ZM1095.99 727.18H1086.92V732.508H1095.27V734.848H1086.92V742H1084.4V724.84H1095.99V727.18ZM1109.11 727.18H1100.04V732.508H1108.39V734.848H1100.04V742H1097.52V724.84H1109.11V727.18ZM1122.24 727.18H1113.17V732.508H1121.52V734.848H1113.17V742H1110.65V724.84H1122.24V727.18Z" fill="#282828"/>
</svg>
