<svg width="1332" height="657" viewBox="0 0 1332 657" fill="none" xmlns="http://www.w3.org/2000/svg">
<g clip-path="url(#clip0_74_321)">
<rect width="1374" height="657" fill="#32439A"/>
<path d="M475.727 298.34V315.596H452.256V361.494H472.96V378.75H452.256V436.388H435V298.34H475.727Z" fill="#98C8D6"/>
<path d="M510.752 329.395V420.511H520.759V436.388H482.076V420.511H493.496V345.272H482.816V329.395H510.752ZM511.273 298.34V316.63H492.293V298.34H511.273Z" fill="#98C8D6"/>
<path d="M561.308 296.607C566.354 296.607 570.18 298.362 572.787 301.871C575.394 305.381 576.689 310.186 576.672 316.285V355.279H559.416V320.801C559.48 319.01 558.881 317.259 557.734 315.881C557.155 315.21 556.431 314.678 555.617 314.326C554.803 313.973 553.92 313.81 553.034 313.846C552.032 313.815 551.035 314 550.111 314.387C549.187 314.774 548.357 315.356 547.677 316.092C546.235 317.763 545.494 319.926 545.608 322.13V436.388H528.352V298.34H544.574L543.195 311.324H545.263C547.921 301.518 553.269 296.613 561.308 296.607Z" fill="#98C8D6"/>
<path d="M611.697 296.607C618.711 296.607 624.494 298.794 629.046 303.166C633.598 307.539 635.869 313.406 635.857 320.767V352.866C635.857 359.885 634.161 365.491 630.77 369.685C629.163 371.723 627.1 373.355 624.747 374.449C622.393 375.543 619.816 376.069 617.222 375.983C614.832 376.096 612.447 375.682 610.234 374.772C608.662 374.034 607.185 373.108 605.836 372.014H603.759L604.793 379.263V413.918C604.793 415.749 605.521 417.505 606.815 418.8C608.11 420.095 609.866 420.822 611.697 420.822C613.528 420.822 615.284 420.095 616.579 418.8C617.874 417.505 618.601 415.749 618.601 413.918V389.791H635.866V413.918C635.866 421.285 633.595 427.151 629.054 431.519C624.513 435.886 618.73 438.072 611.706 438.078C604.692 438.078 598.912 435.892 594.366 431.519C589.819 427.146 587.543 421.279 587.537 413.918V320.767C587.537 313.412 589.81 307.545 594.357 303.166C598.904 298.788 604.684 296.602 611.697 296.607ZM611.697 313.863C610.786 313.846 609.88 314.013 609.035 314.354C608.19 314.695 607.422 315.203 606.777 315.847C606.133 316.492 605.625 317.26 605.284 318.105C604.943 318.95 604.776 319.856 604.793 320.767V356.314C606.181 357.928 608.476 358.736 611.697 358.736C612.609 358.753 613.514 358.586 614.359 358.245C615.205 357.904 615.973 357.396 616.617 356.752C617.262 356.107 617.77 355.339 618.111 354.494C618.452 353.648 618.618 352.743 618.601 351.832V320.767C618.618 319.856 618.452 318.95 618.111 318.105C617.77 317.26 617.262 316.492 616.617 315.847C615.973 315.203 615.205 314.695 614.359 314.354C613.514 314.013 612.609 313.846 611.697 313.863Z" fill="#98C8D6"/>
<path d="M701.459 296.607C708.472 296.607 714.252 298.794 718.799 303.167C723.346 307.539 725.616 313.406 725.61 320.767V344.961H708.329V320.767C708.362 319.841 708.207 318.918 707.875 318.052C707.543 317.187 707.04 316.397 706.396 315.73C705.752 315.064 704.98 314.533 704.127 314.171C703.274 313.809 702.356 313.622 701.429 313.622C700.502 313.622 699.585 313.809 698.732 314.171C697.878 314.533 697.107 315.064 696.463 315.73C695.819 316.397 695.316 317.187 694.984 318.052C694.652 318.918 694.497 319.841 694.529 320.767V324.224C694.529 326.982 694.586 329.569 694.698 331.985C694.812 334.366 695.13 336.732 695.648 339.058C696.191 341.431 696.971 343.744 697.977 345.962C699.163 348.52 700.608 350.949 702.291 353.211L714.064 369.256C716.478 372.509 718.64 375.941 720.531 379.524C722.04 382.461 723.198 385.566 723.979 388.774C724.745 392.004 725.209 395.297 725.367 398.613C725.535 402.061 725.619 406.03 725.619 410.521V413.918C725.619 421.285 723.348 427.152 718.807 431.519C714.266 435.886 708.483 438.084 701.459 438.112C694.434 438.112 688.651 435.925 684.11 431.552C679.569 427.18 677.29 421.301 677.273 413.918V389.791H694.529V413.918C694.497 414.844 694.652 415.768 694.984 416.633C695.316 417.498 695.819 418.288 696.463 418.955C697.107 419.622 697.878 420.152 698.732 420.514C699.585 420.876 700.502 421.063 701.429 421.063C702.356 421.063 703.274 420.876 704.127 420.514C704.98 420.152 705.752 419.622 706.396 418.955C707.04 418.288 707.543 417.498 707.875 416.633C708.207 415.768 708.362 414.844 708.329 413.918V410.47C708.329 406.669 708.27 403.423 708.161 400.715C708.058 398.129 707.712 395.558 707.127 393.037C706.5 390.492 705.571 388.03 704.36 385.705C702.761 382.709 700.915 379.851 698.844 377.161L686.936 360.771C684.93 357.979 683.196 355.003 681.756 351.882C680.515 349.131 679.532 346.271 678.821 343.338C678.117 340.365 677.686 337.333 677.534 334.281C677.36 331.119 677.273 327.756 677.273 324.19V320.734C677.273 313.378 679.544 307.511 684.085 303.133C688.626 298.754 694.417 296.579 701.459 296.607Z" fill="#98C8D6"/>
<path d="M761.165 298.34C768.184 298.34 773.967 300.523 778.514 304.891C783.061 309.258 785.331 315.125 785.326 322.491V377.758C785.326 385.124 783.055 390.991 778.514 395.359C773.973 399.726 768.19 401.898 761.165 401.876H754.261V436.354H736.972V298.34H761.165ZM754.261 384.62H761.165C762.077 384.637 762.982 384.47 763.828 384.129C764.673 383.788 765.441 383.28 766.086 382.636C766.73 381.991 767.238 381.223 767.579 380.378C767.92 379.533 768.087 378.627 768.07 377.716V322.491C768.086 321.581 767.918 320.676 767.576 319.832C767.235 318.987 766.727 318.22 766.082 317.577C765.438 316.933 764.67 316.426 763.826 316.086C762.981 315.745 762.076 315.579 761.165 315.596H754.261V384.62Z" fill="#98C8D6"/>
<path d="M821.016 296.607C828.029 296.607 833.809 298.794 838.356 303.166C842.902 307.539 845.173 313.406 845.167 320.767V413.918C845.167 421.285 842.897 427.151 838.356 431.519C833.815 435.886 828.035 438.072 821.016 438.078C813.997 438.078 808.214 435.892 803.667 431.519C799.12 427.146 796.85 421.279 796.855 413.918V320.767C796.855 313.412 799.126 307.545 803.667 303.166C808.208 298.788 813.991 296.602 821.016 296.607ZM821.016 313.863C820.104 313.846 819.199 314.013 818.353 314.354C817.508 314.695 816.74 315.203 816.096 315.847C815.451 316.492 814.943 317.26 814.602 318.105C814.261 318.95 814.094 319.856 814.112 320.767V413.918C814.079 414.844 814.234 415.768 814.566 416.633C814.898 417.498 815.401 418.288 816.045 418.955C816.689 419.622 817.46 420.152 818.314 420.514C819.167 420.876 820.084 421.063 821.011 421.063C821.938 421.063 822.856 420.876 823.709 420.514C824.562 420.152 825.334 419.622 825.978 418.955C826.622 418.288 827.125 417.498 827.457 416.633C827.789 415.768 827.944 414.844 827.911 413.918V320.767C827.928 319.857 827.762 318.952 827.421 318.107C827.081 317.262 826.574 316.495 825.93 315.85C825.287 315.206 824.52 314.698 823.675 314.356C822.831 314.015 821.926 313.847 821.016 313.863Z" fill="#98C8D6"/>
<path d="M878.3 298.34V329.395H895.901V345.272H878.3V414.473C878.249 415.709 878.683 416.917 879.511 417.837C880.019 418.304 880.618 418.661 881.271 418.884C881.924 419.106 882.616 419.191 883.304 419.132H897.28V436.388H876.576C871.973 436.388 868.234 434.986 865.358 432.183C863.932 430.783 862.812 429.101 862.069 427.246C861.327 425.39 860.978 423.4 861.044 421.402V345.298H852.416V329.395H861.044V298.34H878.3Z" fill="#98C8D6"/>
<path d="M634.185 480.226C633.86 480.473 633.51 480.687 633.142 480.865C632.546 481.162 631.92 481.396 631.275 481.563C630.481 481.779 629.659 481.875 628.837 481.849C627.584 481.839 626.344 481.588 625.187 481.109C624.155 480.677 623.227 480.032 622.462 479.217C621.73 478.42 621.158 477.489 620.78 476.475C620.389 475.415 620.192 474.292 620.2 473.162C620.183 471.931 620.386 470.706 620.797 469.546C621.158 468.494 621.731 467.526 622.479 466.703C623.223 465.905 624.129 465.274 625.136 464.853C626.224 464.406 627.391 464.183 628.568 464.197C629.612 464.178 630.653 464.334 631.645 464.66C632.405 464.918 633.135 465.257 633.823 465.669L632.503 468.89C632.014 468.534 631.494 468.224 630.947 467.965C630.246 467.632 629.478 467.465 628.702 467.477C628.049 467.479 627.404 467.62 626.81 467.889C626.207 468.169 625.665 468.563 625.212 469.05C624.748 469.562 624.38 470.155 624.127 470.799C623.854 471.492 623.717 472.232 623.724 472.977C623.717 473.748 623.839 474.516 624.085 475.247C624.31 475.905 624.668 476.509 625.136 477.022C625.59 477.518 626.147 477.908 626.768 478.165C627.45 478.437 628.178 478.572 628.912 478.561C629.725 478.581 630.534 478.429 631.284 478.115C631.834 477.886 632.343 477.568 632.789 477.173L634.185 480.226Z" fill="#D9E4D8"/>
<path d="M637.993 481.664L645.78 463.701H645.957L653.744 481.664H649.8L644.83 469.05L647.294 467.368L641.332 481.664H637.993ZM643.316 475.416H648.48L649.682 478.283H642.24L643.316 475.416Z" fill="#D9E4D8"/>
<path d="M658.621 464.374H669.419V467.662H662.027V471.581H668.435V474.869H662.027V481.655H658.621V464.374Z" fill="#D9E4D8"/>
<path d="M675.055 464.374H685.861V467.662H678.461V471.581H684.868V474.869H678.461V481.655H675.097L675.055 464.374Z" fill="#D9E4D8"/>
<path d="M691.495 464.374H703.268V467.662H694.858V471.345H702.301V474.633H694.884V478.367H703.596V481.655H691.486L691.495 464.374Z" fill="#D9E4D8"/>
<path d="M653.82 255.679C654.191 255.814 654.516 256.052 654.757 256.365C654.998 256.677 655.147 257.051 655.184 257.444C655.222 257.837 655.148 258.233 654.971 258.586C654.793 258.938 654.52 259.234 654.182 259.438C653.18 260.049 652.239 260.756 651.373 261.548C651.204 261.702 651.085 261.903 651.032 262.126C650.978 262.348 650.994 262.582 651.076 262.795C651.157 263.009 651.302 263.193 651.49 263.323C651.678 263.453 651.901 263.523 652.13 263.525H674.104C674.333 263.525 674.557 263.456 674.747 263.327C674.936 263.197 675.082 263.013 675.165 262.799C675.248 262.585 675.264 262.351 675.211 262.128C675.158 261.905 675.039 261.703 674.869 261.548C674.008 260.756 673.07 260.052 672.069 259.446C671.732 259.239 671.46 258.941 671.284 258.587C671.108 258.233 671.036 257.836 671.074 257.443C671.113 257.049 671.261 256.674 671.502 256.361C671.744 256.047 672.068 255.808 672.439 255.67C676.25 254.248 679.687 251.978 682.49 249.03C685.294 246.083 687.389 242.536 688.618 238.658C688.763 238.207 688.799 237.728 688.723 237.261C688.647 236.794 688.462 236.351 688.182 235.969C687.903 235.586 687.537 235.276 687.114 235.062C686.691 234.849 686.224 234.738 685.751 234.739H640.483C640.01 234.739 639.544 234.851 639.123 235.065C638.701 235.279 638.336 235.59 638.057 235.972C637.779 236.354 637.594 236.796 637.519 237.263C637.443 237.73 637.479 238.208 637.624 238.658C638.855 242.538 640.953 246.087 643.759 249.036C646.565 251.985 650.006 254.257 653.82 255.679Z" fill="#D9E4D8"/>
<path d="M659.909 234.739H681.277C681.277 229.922 679.363 225.302 675.957 221.895C672.55 218.489 667.93 216.575 663.113 216.575C658.295 216.575 653.675 218.489 650.268 221.895C646.862 225.302 644.948 229.922 644.948 234.739H650.658C651.528 234.738 652.371 235.038 653.044 235.589C653.717 236.139 654.179 236.906 654.35 237.758C654.535 238.794 654.633 239.843 654.644 240.895C654.65 241.953 654.557 243.008 654.367 244.049C654.206 245.071 653.906 246.067 653.475 247.009C653.309 247.322 653.223 247.672 653.223 248.026C653.205 248.304 653.244 248.582 653.338 248.844C653.432 249.106 653.579 249.346 653.769 249.549C653.96 249.752 654.19 249.914 654.445 250.024C654.7 250.135 654.976 250.192 655.254 250.192C655.532 250.192 655.808 250.135 656.063 250.024C656.318 249.914 656.548 249.752 656.738 249.549C656.929 249.346 657.075 249.106 657.169 248.844C657.263 248.582 657.303 248.304 657.285 248.026C657.285 247.672 657.199 247.322 657.033 247.009C656.602 246.067 656.302 245.071 656.141 244.049C655.964 243.016 655.882 241.968 655.897 240.92C655.901 239.868 655.997 238.819 656.183 237.784C656.35 236.921 656.814 236.144 657.495 235.588C658.176 235.031 659.03 234.731 659.909 234.739Z" fill="#8EC151"/>
<path d="M652.829 227.305C652.829 224.783 651.601 223.26 650.163 221.94C646.842 225.347 644.996 229.923 645.025 234.68H647.918C650.003 232.62 652.829 231.182 652.829 227.305Z" fill="#8EC151"/>
<path d="M673.465 227.305C673.465 231.182 676.299 232.612 678.384 234.68H681.353C681.377 229.906 679.515 225.315 676.173 221.906C674.718 223.227 673.465 224.707 673.465 227.305Z" fill="#8EC151"/>
<path d="M598.025 260.699L581.492 259.858L581.744 254.913C581.782 253.463 582.105 252.034 582.695 250.709C583.181 249.649 583.91 248.719 584.822 247.993C585.663 247.33 586.63 246.847 587.665 246.571C588.672 246.298 589.717 246.185 590.759 246.235C591.901 246.273 593.02 246.56 594.039 247.076C594.973 247.547 595.801 248.205 596.469 249.01C597.131 249.816 597.625 250.745 597.924 251.743C598.244 252.782 598.375 253.87 598.311 254.955L598.025 260.699ZM595.04 257.285L595.141 255.351C595.19 254.59 595.119 253.827 594.93 253.089C594.771 252.442 594.485 251.833 594.089 251.297C593.683 250.78 593.158 250.368 592.559 250.095C591.876 249.786 591.139 249.615 590.389 249.59C589.482 249.511 588.569 249.646 587.724 249.986C587.075 250.254 586.499 250.672 586.042 251.205C585.673 251.667 585.388 252.191 585.201 252.752C585.051 253.19 584.958 253.645 584.923 254.106L584.789 256.763L595.04 257.285Z" fill="#D9E4D8"/>
<path d="M584.115 237.027L587.664 226.305L590.658 227.297L588.135 234.916L591.499 236.026L593.736 229.298L596.721 230.291L594.492 237.018L597.856 238.137L600.48 230.215L603.474 231.207L599.824 242.224L584.115 237.027Z" fill="#D9E4D8"/>
<path d="M599.706 212.875C599.094 213.221 598.512 213.618 597.966 214.061C597.472 214.442 597.048 214.905 596.713 215.431C596.373 215.91 596.19 216.484 596.191 217.071C596.207 217.319 596.286 217.558 596.42 217.767C596.553 217.976 596.738 218.147 596.956 218.265C597.124 218.369 597.312 218.437 597.507 218.465C597.703 218.492 597.902 218.479 598.092 218.425C598.563 218.31 599.013 218.117 599.42 217.853C599.875 217.567 600.329 217.248 600.774 216.911C601.187 216.603 601.62 216.322 602.069 216.07C602.524 215.804 603.014 215.603 603.524 215.473C604.065 215.363 604.623 215.363 605.164 215.473C605.839 215.609 606.482 215.875 607.056 216.255C607.753 216.669 608.323 217.265 608.704 217.979C609.089 218.761 609.25 219.635 609.167 220.502C609.057 221.57 608.687 222.595 608.09 223.487C607.748 224.034 607.354 224.547 606.913 225.018C606.455 225.508 605.947 225.951 605.399 226.338C604.833 226.743 604.224 227.084 603.583 227.356L602.229 224.808C602.689 224.628 603.129 224.4 603.541 224.127C603.957 223.866 604.346 223.565 604.702 223.227C605.026 222.933 605.308 222.596 605.542 222.226C605.756 221.891 605.918 221.525 606.022 221.141C606.14 220.771 606.155 220.375 606.064 219.998C606.007 219.8 605.911 219.616 605.783 219.456C605.654 219.296 605.496 219.163 605.315 219.064C605.036 218.894 604.706 218.826 604.382 218.871C604.001 218.926 603.632 219.042 603.289 219.216C602.89 219.419 602.51 219.659 602.153 219.93C601.716 220.258 601.254 220.586 600.749 220.906C600.248 221.23 599.712 221.498 599.151 221.705C598.587 221.911 597.985 221.994 597.385 221.949C596.691 221.883 596.023 221.646 595.443 221.259C594.687 220.815 594.069 220.168 593.66 219.392C593.288 218.642 593.128 217.805 593.198 216.97C593.277 216.036 593.564 215.131 594.038 214.321C594.588 213.36 595.306 212.506 596.158 211.798C596.819 211.284 597.536 210.844 598.294 210.487L599.706 212.875Z" fill="#D9E4D8"/>
<path d="M611.192 199.941C610.518 200.138 609.862 200.394 609.233 200.706C608.668 200.974 608.151 201.332 607.702 201.766C607.278 202.166 606.985 202.685 606.861 203.254C606.825 203.499 606.85 203.749 606.935 203.981C607.02 204.214 607.163 204.421 607.349 204.583C607.49 204.721 607.657 204.829 607.84 204.9C608.024 204.971 608.22 205.003 608.417 204.995C608.903 204.985 609.383 204.894 609.838 204.726C610.359 204.546 610.87 204.338 611.369 204.104C611.844 203.886 612.333 203.698 612.832 203.54C613.333 203.382 613.854 203.297 614.379 203.288C614.931 203.287 615.477 203.395 615.986 203.608C616.615 203.891 617.185 204.291 617.667 204.785C618.255 205.364 618.672 206.095 618.87 206.896C619.072 207.75 619.034 208.643 618.761 209.477C618.42 210.49 617.844 211.406 617.079 212.152C616.621 212.608 616.123 213.021 615.59 213.388C615.032 213.762 614.437 214.08 613.816 214.338C613.175 214.607 612.507 214.808 611.823 214.935L610.974 212.093C611.46 212.013 611.939 211.889 612.403 211.723C612.866 211.557 613.311 211.346 613.732 211.092C614.108 210.875 614.455 210.613 614.766 210.31C615.045 210.025 615.283 209.702 615.473 209.351C615.664 209.016 615.766 208.636 615.767 208.25C615.755 208.044 615.702 207.843 615.611 207.658C615.52 207.473 615.393 207.308 615.237 207.173C615.011 206.949 614.714 206.809 614.396 206.778C614.012 206.739 613.624 206.774 613.253 206.879C612.819 206.983 612.396 207.129 611.991 207.316C611.495 207.543 610.965 207.762 610.402 207.964C609.842 208.168 609.261 208.309 608.669 208.384C608.026 208.473 607.371 208.405 606.759 208.187C606.147 207.969 605.597 207.607 605.154 207.131C604.516 206.531 604.056 205.765 603.826 204.92C603.627 204.106 603.656 203.254 603.91 202.456C604.194 201.56 604.677 200.741 605.323 200.059C606.071 199.245 606.959 198.573 607.946 198.074C608.706 197.723 609.501 197.455 610.318 197.275L611.192 199.941Z" fill="#D9E4D8"/>
<path d="M615.742 191.069L625.346 185.183L627.028 187.857L620.199 192.062L622.058 195.064L628.104 191.322L629.786 193.996L623.739 197.738L625.623 200.782L632.721 196.384L634.403 199.067L624.53 205.172L615.742 191.069Z" fill="#D9E4D8"/>
<path d="M638.523 179.902C639.413 179.609 640.344 179.458 641.281 179.456C642.063 179.458 642.836 179.621 643.552 179.935C644.204 180.237 644.779 180.683 645.234 181.239C645.728 181.853 646.096 182.559 646.318 183.316C646.52 183.973 646.625 184.655 646.63 185.343C646.63 186.046 646.493 186.743 646.226 187.395C645.926 188.095 645.469 188.717 644.889 189.211C644.148 189.817 643.289 190.261 642.366 190.514L640.129 191.204L641.685 196.25L638.565 197.208L633.688 181.399L638.523 179.902ZM641.458 187.47C641.869 187.359 642.248 187.154 642.568 186.873C642.817 186.641 643.008 186.353 643.123 186.032C643.221 185.748 643.272 185.45 643.274 185.149C643.274 184.885 643.238 184.621 643.165 184.367C643.093 184.149 643 183.937 642.887 183.736C642.74 183.471 642.55 183.232 642.324 183.03C642.061 182.793 641.738 182.633 641.39 182.568C640.926 182.482 640.447 182.523 640.003 182.685L637.774 183.375L639.246 188.143L641.458 187.47ZM644.981 188.505L650.775 193.399L647.142 194.517L641.256 189.741L644.981 188.505Z" fill="#D9E4D8"/>
<path d="M652.432 176.622L663.566 175.933L663.759 179.069L659.748 179.322L660.589 192.701L657.334 192.903L656.493 179.523L652.633 179.767L652.432 176.622Z" fill="#D9E4D8"/>
<path d="M683.01 178.455L692.882 181.542L691.94 184.544L685.213 182.433L684.061 186.024L689.947 187.857L689.005 190.859L683.119 189.034L681.185 195.24L678.073 194.265L683.01 178.455Z" fill="#D9E4D8"/>
<path d="M697.751 195.468C697.469 195.927 697.331 196.46 697.356 196.998C697.362 197.586 697.512 198.164 697.793 198.68C698.072 199.208 698.488 199.652 698.996 199.967C699.525 200.307 700.133 200.505 700.761 200.539C701.341 200.571 701.919 200.458 702.443 200.211C702.934 199.986 703.349 199.624 703.638 199.168L709.162 190.321L711.887 192.003L706.328 200.909C705.738 201.884 704.88 202.669 703.856 203.171C702.851 203.65 701.736 203.85 700.627 203.751C699.451 203.653 698.316 203.269 697.322 202.633C696.323 202.022 695.488 201.176 694.892 200.169C694.344 199.211 694.054 198.127 694.051 197.024C694.046 195.883 694.377 194.766 695.001 193.811L700.568 184.897L703.326 186.63L697.751 195.468Z" fill="#D9E4D8"/>
<path d="M722.189 207.308C722.009 206.628 721.773 205.964 721.482 205.323C721.229 204.754 720.886 204.228 720.465 203.768C720.084 203.319 719.572 203.002 719.002 202.86C718.758 202.812 718.506 202.828 718.271 202.906C718.035 202.984 717.823 203.122 717.656 203.305C717.514 203.44 717.402 203.603 717.326 203.785C717.251 203.966 717.214 204.16 717.219 204.356C717.218 204.842 717.295 205.325 717.446 205.786C717.612 206.312 717.806 206.828 718.026 207.333C718.229 207.816 718.403 208.31 718.548 208.813C718.693 209.319 718.764 209.843 718.758 210.369C718.741 210.921 718.615 211.464 718.388 211.967C718.086 212.584 717.669 213.137 717.16 213.598C716.566 214.172 715.823 214.568 715.016 214.742C714.155 214.921 713.261 214.857 712.434 214.557C711.427 214.19 710.528 213.578 709.819 212.774C708.904 211.819 708.192 210.69 707.725 209.452C707.47 208.805 707.289 208.131 707.187 207.443L710.02 206.736C710.148 207.714 710.459 208.658 710.937 209.52C711.143 209.901 711.398 210.255 711.694 210.571C711.97 210.862 712.287 211.111 712.636 211.311C712.964 211.516 713.342 211.626 713.729 211.631C713.933 211.626 714.135 211.581 714.321 211.497C714.507 211.413 714.675 211.293 714.814 211.143C715.052 210.923 715.205 210.624 715.243 210.302C715.286 209.92 715.263 209.533 715.175 209.158C715.08 208.72 714.942 208.291 714.763 207.88C714.553 207.375 714.36 206.837 714.166 206.274C713.98 205.709 713.855 205.125 713.796 204.533C713.738 203.934 713.807 203.329 713.998 202.759C714.236 202.111 714.632 201.533 715.15 201.077C715.767 200.455 716.544 200.019 717.396 199.815C718.215 199.639 719.067 199.692 719.859 199.967C720.747 200.279 721.554 200.784 722.222 201.447C723.007 202.221 723.65 203.126 724.123 204.121C724.451 204.892 724.697 205.695 724.855 206.518L722.189 207.308Z" fill="#D9E4D8"/>
<path d="M730.387 211.622L732.17 214.355L718.32 223.42L716.537 220.687L730.387 211.622Z" fill="#D9E4D8"/>
<path d="M728.848 224.371C729.892 223.979 731.006 223.808 732.119 223.866C733.212 223.921 734.284 224.18 735.281 224.631C736.285 225.083 737.192 225.722 737.955 226.515C738.73 227.331 739.329 228.296 739.716 229.352C740.104 230.407 740.272 231.531 740.209 232.654C740.081 234.889 739.111 236.993 737.493 238.541C736.677 239.309 735.714 239.904 734.662 240.29C733.609 240.675 732.49 240.844 731.371 240.786C730.277 240.73 729.206 240.458 728.217 239.987C727.226 239.517 726.331 238.867 725.577 238.07C724.044 236.398 723.234 234.189 723.323 231.922C723.425 229.724 724.385 227.652 725.997 226.154C726.813 225.368 727.784 224.761 728.848 224.371ZM730.017 227.541C729.352 227.778 728.741 228.144 728.217 228.617C727.716 229.073 727.308 229.622 727.015 230.232C726.721 230.837 726.552 231.495 726.519 232.166C726.482 232.865 726.591 233.564 726.838 234.218C727.072 234.846 727.433 235.418 727.898 235.9C728.353 236.373 728.904 236.746 729.512 236.993C730.129 237.25 730.787 237.389 731.455 237.405C732.161 237.419 732.863 237.299 733.524 237.052C734.85 236.585 735.942 235.62 736.568 234.361C736.868 233.77 737.043 233.123 737.081 232.461C737.113 231.775 737.008 231.09 736.771 230.446C736.534 229.802 736.17 229.211 735.702 228.71C735.241 228.228 734.689 227.842 734.079 227.575C733.455 227.31 732.788 227.164 732.111 227.146C731.405 227.146 730.706 227.28 730.051 227.541H730.017Z" fill="#D9E4D8"/>
<path d="M727.528 262.28L738.351 249.279L737.847 250.263L727.755 250.742L727.621 247.437L744.81 246.748V246.882L734.046 259.606L734.332 258.874L744.641 258.386L744.776 261.666L727.562 262.364L727.528 262.28Z" fill="#D9E4D8"/>
</g>
<defs>
<clipPath id="clip0_74_321">
<rect width="1332" height="657" fill="white"/>
</clipPath>
</defs>
</svg>
