<svg width="1332" height="667" viewBox="0 0 1332 667" fill="none" xmlns="http://www.w3.org/2000/svg">
<rect width="1332" height="667" fill="#DAE5E5"/>
<path d="M113.315 265.368V277.12H97.3302V308.38H111.431V320.133H97.3302V359.388H85.5776V265.368H113.315Z" fill="#32439A"/>
<path d="M137.17 286.519V348.575H143.985V359.388H117.64V348.575H125.417V297.332H118.144V286.519H137.17ZM137.525 265.368V277.825H124.598V265.368H137.525Z" fill="#32439A"/>
<path d="M171.602 264.188C175.038 264.188 177.644 265.383 179.42 267.773C181.195 270.164 182.077 273.436 182.066 277.59V304.148H170.313V280.666C170.357 279.446 169.949 278.253 169.168 277.315C168.773 276.858 168.28 276.496 167.725 276.256C167.171 276.016 166.57 275.904 165.966 275.929C165.284 275.908 164.605 276.033 163.976 276.297C163.346 276.561 162.781 276.957 162.318 277.458C161.336 278.596 160.831 280.069 160.909 281.57V359.388H149.156V265.368H160.204L159.265 274.211H160.674C162.484 267.533 166.126 264.192 171.602 264.188Z" fill="#32439A"/>
<path d="M205.921 264.188C210.697 264.188 214.636 265.677 217.736 268.655C220.836 271.634 222.383 275.629 222.375 280.643V302.504C222.375 307.284 221.22 311.103 218.91 313.959C217.816 315.347 216.411 316.458 214.808 317.203C213.205 317.949 211.45 318.307 209.683 318.249C208.056 318.325 206.431 318.044 204.924 317.424C203.853 316.921 202.848 316.29 201.929 315.545H200.514L201.218 320.482V344.085C201.218 345.332 201.714 346.528 202.596 347.41C203.477 348.291 204.673 348.787 205.921 348.787C207.168 348.787 208.364 348.291 209.245 347.41C210.127 346.528 210.623 345.332 210.623 344.085V327.653H222.381V344.085C222.381 349.102 220.835 353.098 217.742 356.072C214.649 359.046 210.71 360.535 205.926 360.539C201.15 360.539 197.213 359.05 194.116 356.072C191.02 353.094 189.47 349.098 189.466 344.085V280.643C189.466 275.633 191.014 271.637 194.111 268.655C197.207 265.673 201.144 264.184 205.921 264.188ZM205.921 275.941C205.3 275.929 204.683 276.043 204.107 276.275C203.532 276.507 203.009 276.853 202.57 277.292C202.131 277.731 201.785 278.254 201.553 278.83C201.32 279.405 201.207 280.022 201.218 280.643V304.852C202.163 305.952 203.727 306.502 205.921 306.502C206.541 306.513 207.158 306.4 207.734 306.168C208.309 305.935 208.832 305.589 209.271 305.15C209.71 304.711 210.056 304.188 210.289 303.613C210.521 303.037 210.634 302.42 210.623 301.8V280.643C210.634 280.022 210.521 279.405 210.289 278.83C210.056 278.254 209.71 277.731 209.271 277.292C208.832 276.853 208.309 276.507 207.734 276.275C207.158 276.043 206.541 275.929 205.921 275.941Z" fill="#32439A"/>
<path d="M267.054 264.188C271.831 264.188 275.768 265.677 278.864 268.655C281.961 271.633 283.507 275.629 283.503 280.642V297.12H271.734V280.642C271.756 280.011 271.65 279.383 271.424 278.793C271.198 278.204 270.855 277.666 270.417 277.212C269.978 276.758 269.453 276.397 268.872 276.15C268.291 275.903 267.666 275.776 267.034 275.776C266.403 275.776 265.778 275.903 265.197 276.15C264.616 276.397 264.09 276.758 263.652 277.212C263.213 277.666 262.871 278.204 262.645 278.793C262.418 279.383 262.313 280.011 262.335 280.642V282.996C262.335 284.875 262.373 286.637 262.45 288.283C262.527 289.904 262.744 291.515 263.097 293.099C263.467 294.716 263.998 296.291 264.683 297.802C265.491 299.544 266.475 301.198 267.621 302.739L275.64 313.666C277.284 315.882 278.756 318.22 280.044 320.659C281.072 322.66 281.86 324.774 282.392 326.959C282.914 329.159 283.23 331.402 283.337 333.661C283.452 336.009 283.509 338.712 283.509 341.77V344.084C283.509 349.101 281.963 353.097 278.87 356.072C275.777 359.046 271.839 360.543 267.054 360.562C262.27 360.562 258.332 359.073 255.239 356.095C252.146 353.116 250.594 349.113 250.583 344.084V327.653H262.335V344.084C262.313 344.715 262.418 345.344 262.645 345.933C262.871 346.523 263.213 347.061 263.652 347.515C264.09 347.969 264.616 348.33 265.197 348.577C265.778 348.823 266.403 348.951 267.034 348.951C267.666 348.951 268.291 348.823 268.872 348.577C269.453 348.33 269.978 347.969 270.417 347.515C270.855 347.061 271.198 346.523 271.424 345.933C271.65 345.344 271.756 344.715 271.734 344.084V341.736C271.734 339.147 271.694 336.937 271.619 335.092C271.549 333.331 271.313 331.58 270.915 329.863C270.488 328.129 269.855 326.453 269.03 324.869C267.941 322.829 266.684 320.882 265.273 319.05L257.163 307.887C255.797 305.986 254.616 303.959 253.635 301.834C252.79 299.96 252.121 298.012 251.636 296.015C251.157 293.989 250.863 291.925 250.76 289.846C250.642 287.693 250.583 285.402 250.583 282.973V280.619C250.583 275.61 252.129 271.614 255.222 268.632C258.314 265.65 262.259 264.169 267.054 264.188Z" fill="#32439A"/>
<path d="M307.719 265.368C312.499 265.368 316.438 266.855 319.534 269.829C322.631 272.804 324.177 276.799 324.174 281.817V319.457C324.174 324.474 322.627 328.47 319.534 331.444C316.442 334.419 312.503 335.898 307.719 335.883H303.017V359.365H291.241V265.368H307.719ZM303.017 324.13H307.719C308.34 324.142 308.956 324.028 309.532 323.796C310.108 323.564 310.631 323.218 311.07 322.779C311.509 322.34 311.855 321.817 312.087 321.241C312.319 320.666 312.433 320.049 312.421 319.428V281.817C312.432 281.196 312.318 280.58 312.085 280.005C311.853 279.43 311.507 278.908 311.068 278.469C310.629 278.031 310.106 277.686 309.531 277.454C308.955 277.222 308.339 277.109 307.719 277.12H303.017V324.13Z" fill="#32439A"/>
<path d="M348.48 264.188C353.257 264.188 357.193 265.677 360.29 268.655C363.386 271.634 364.933 275.629 364.929 280.643V344.085C364.929 349.102 363.383 353.098 360.29 356.072C357.197 359.046 353.261 360.535 348.48 360.539C343.7 360.539 339.761 359.05 336.665 356.072C333.568 353.094 332.022 349.098 332.025 344.085V280.643C332.025 275.633 333.572 271.637 336.665 268.655C339.757 265.673 343.696 264.184 348.48 264.188ZM348.48 275.941C347.859 275.929 347.243 276.043 346.667 276.275C346.091 276.507 345.568 276.853 345.129 277.292C344.69 277.731 344.344 278.254 344.112 278.83C343.88 279.405 343.766 280.022 343.778 280.643V344.085C343.756 344.716 343.861 345.344 344.087 345.934C344.314 346.523 344.656 347.061 345.095 347.515C345.533 347.969 346.059 348.33 346.64 348.577C347.221 348.824 347.846 348.951 348.477 348.951C349.109 348.951 349.733 348.824 350.314 348.577C350.896 348.33 351.421 347.969 351.86 347.515C352.298 347.061 352.641 346.523 352.867 345.934C353.093 345.344 353.199 344.716 353.177 344.085V280.643C353.188 280.022 353.075 279.406 352.843 278.831C352.611 278.256 352.266 277.733 351.827 277.294C351.389 276.855 350.867 276.509 350.291 276.276C349.716 276.044 349.1 275.93 348.48 275.941Z" fill="#32439A"/>
<path d="M387.495 265.368V286.519H399.483V297.332H387.495V344.462C387.46 345.305 387.756 346.127 388.32 346.753C388.666 347.072 389.074 347.314 389.519 347.466C389.964 347.618 390.435 347.676 390.903 347.635H400.422V359.388H386.321C383.187 359.388 380.64 358.433 378.681 356.524C377.71 355.57 376.947 354.425 376.441 353.161C375.936 351.898 375.698 350.542 375.743 349.182V297.349H369.867V286.519H375.743V265.368H387.495Z" fill="#32439A"/>
<path d="M221.236 389.244C221.015 389.413 220.777 389.559 220.526 389.68C220.12 389.882 219.694 390.041 219.255 390.155C218.714 390.302 218.154 390.368 217.594 390.35C216.74 390.343 215.896 390.172 215.108 389.846C214.405 389.552 213.773 389.113 213.252 388.557C212.753 388.015 212.364 387.381 212.107 386.69C211.84 385.968 211.706 385.203 211.712 384.433C211.7 383.595 211.838 382.761 212.118 381.971C212.364 381.254 212.754 380.595 213.264 380.035C213.771 379.491 214.388 379.061 215.074 378.775C215.814 378.47 216.609 378.318 217.41 378.328C218.122 378.315 218.83 378.421 219.507 378.643C220.024 378.819 220.521 379.049 220.99 379.33L220.091 381.524C219.758 381.281 219.403 381.07 219.031 380.894C218.554 380.667 218.03 380.553 217.502 380.562C217.057 380.563 216.618 380.659 216.213 380.842C215.803 381.033 215.433 381.301 215.125 381.633C214.809 381.982 214.559 382.386 214.386 382.824C214.2 383.296 214.107 383.8 214.111 384.307C214.107 384.833 214.19 385.356 214.358 385.854C214.511 386.302 214.754 386.713 215.074 387.062C215.382 387.4 215.762 387.666 216.185 387.841C216.649 388.026 217.145 388.118 217.645 388.11C218.199 388.124 218.749 388.021 219.26 387.807C219.635 387.651 219.981 387.434 220.285 387.165L221.236 389.244Z" fill="#32439A"/>
<path d="M223.83 390.224L229.133 377.99H229.253L234.557 390.224H231.871L228.486 381.633L230.164 380.487L226.103 390.224H223.83ZM227.455 385.968H230.972L231.791 387.921H226.722L227.455 385.968Z" fill="#32439A"/>
<path d="M237.879 378.448H245.233V380.688H240.198V383.357H244.563V385.596H240.198V390.218H237.879V378.448Z" fill="#32439A"/>
<path d="M249.071 378.448H256.431V380.688H251.391V383.357H255.755V385.596H251.391V390.218H249.1L249.071 378.448Z" fill="#32439A"/>
<path d="M260.268 378.448H268.286V380.688H262.559V383.196H267.628V385.436H262.576V387.979H268.51V390.218H260.262L260.268 378.448Z" fill="#32439A"/>
<path d="M234.609 236.312C234.861 236.405 235.083 236.567 235.247 236.78C235.411 236.992 235.512 237.247 235.538 237.515C235.564 237.783 235.513 238.052 235.393 238.292C235.272 238.532 235.085 238.734 234.855 238.873C234.173 239.289 233.532 239.77 232.942 240.31C232.827 240.415 232.746 240.552 232.71 240.703C232.673 240.855 232.684 241.014 232.74 241.159C232.795 241.305 232.894 241.43 233.022 241.519C233.15 241.607 233.302 241.655 233.458 241.656H248.423C248.58 241.656 248.732 241.609 248.861 241.521C248.99 241.433 249.09 241.308 249.146 241.162C249.203 241.016 249.214 240.857 249.178 240.705C249.142 240.553 249.06 240.415 248.945 240.31C248.358 239.77 247.719 239.291 247.037 238.878C246.808 238.737 246.623 238.534 246.503 238.293C246.383 238.052 246.334 237.782 246.36 237.514C246.386 237.246 246.487 236.99 246.652 236.777C246.816 236.564 247.037 236.401 247.289 236.307C249.885 235.338 252.226 233.792 254.135 231.784C256.045 229.777 257.472 227.361 258.309 224.72C258.407 224.413 258.432 224.087 258.38 223.769C258.328 223.45 258.202 223.149 258.012 222.888C257.821 222.628 257.572 222.417 257.284 222.271C256.996 222.126 256.678 222.05 256.356 222.051H225.525C225.203 222.051 224.886 222.127 224.599 222.273C224.312 222.419 224.063 222.631 223.873 222.891C223.684 223.151 223.558 223.452 223.507 223.77C223.455 224.088 223.48 224.414 223.578 224.72C224.416 227.363 225.845 229.78 227.756 231.789C229.668 233.797 232.011 235.344 234.609 236.312Z" fill="white"/>
<path d="M238.756 222.052H253.309C253.309 218.77 252.006 215.624 249.686 213.304C247.366 210.984 244.219 209.68 240.938 209.68C237.657 209.68 234.51 210.984 232.19 213.304C229.87 215.624 228.567 218.77 228.567 222.052H232.456C233.048 222.051 233.622 222.255 234.081 222.63C234.539 223.005 234.853 223.527 234.97 224.108C235.096 224.813 235.163 225.528 235.171 226.244C235.174 226.964 235.111 227.683 234.982 228.392C234.872 229.088 234.668 229.767 234.374 230.408C234.261 230.621 234.202 230.859 234.203 231.101C234.19 231.29 234.217 231.479 234.281 231.658C234.345 231.836 234.445 232 234.575 232.138C234.704 232.276 234.861 232.386 235.035 232.462C235.209 232.537 235.396 232.576 235.586 232.576C235.775 232.576 235.963 232.537 236.137 232.462C236.311 232.386 236.467 232.276 236.597 232.138C236.726 232 236.826 231.836 236.89 231.658C236.954 231.479 236.981 231.29 236.969 231.101C236.969 230.859 236.91 230.621 236.797 230.408C236.504 229.767 236.299 229.088 236.19 228.392C236.069 227.688 236.014 226.975 236.024 226.261C236.026 225.545 236.092 224.83 236.219 224.125C236.332 223.537 236.649 223.008 237.112 222.629C237.576 222.25 238.157 222.046 238.756 222.052Z" fill="#32439A"/>
<path d="M233.933 216.988C233.933 215.27 233.097 214.233 232.117 213.334C229.856 215.654 228.599 218.771 228.618 222.011H230.588C232.008 220.608 233.933 219.629 233.933 216.988Z" fill="#32439A"/>
<path d="M247.989 216.988C247.989 219.629 249.919 220.602 251.339 222.011H253.361C253.377 218.76 252.11 215.633 249.833 213.311C248.842 214.21 247.989 215.218 247.989 216.988Z" fill="#32439A"/>
<path d="M196.609 239.732L185.349 239.159L185.521 235.791C185.546 234.804 185.766 233.83 186.168 232.928C186.499 232.206 186.996 231.572 187.617 231.078C188.19 230.627 188.849 230.297 189.553 230.11C190.239 229.924 190.95 229.846 191.661 229.881C192.438 229.907 193.2 230.102 193.894 230.453C194.531 230.774 195.094 231.223 195.55 231.771C196 232.319 196.337 232.952 196.54 233.632C196.759 234.34 196.848 235.081 196.804 235.82L196.609 239.732ZM194.576 237.406L194.645 236.089C194.678 235.571 194.63 235.051 194.501 234.548C194.393 234.108 194.198 233.693 193.929 233.329C193.652 232.976 193.294 232.695 192.886 232.51C192.421 232.299 191.919 232.182 191.409 232.166C190.791 232.112 190.169 232.204 189.593 232.435C189.151 232.618 188.759 232.903 188.448 233.266C188.196 233.581 188.003 233.937 187.875 234.319C187.773 234.617 187.709 234.927 187.686 235.241L187.594 237.051L194.576 237.406Z" fill="#32439A"/>
<path d="M187.135 223.609L189.552 216.307L191.591 216.983L189.873 222.172L192.164 222.928L193.687 218.346L195.721 219.022L194.203 223.604L196.494 224.365L198.281 218.97L200.32 219.646L197.834 227.149L187.135 223.609Z" fill="#32439A"/>
<path d="M197.754 207.16C197.337 207.396 196.94 207.666 196.568 207.968C196.232 208.227 195.943 208.543 195.715 208.901C195.483 209.228 195.359 209.618 195.36 210.018C195.371 210.187 195.424 210.35 195.515 210.492C195.606 210.634 195.732 210.751 195.881 210.831C195.995 210.902 196.123 210.949 196.256 210.967C196.389 210.986 196.525 210.977 196.654 210.94C196.975 210.862 197.281 210.73 197.559 210.551C197.868 210.356 198.178 210.138 198.481 209.909C198.762 209.699 199.057 209.508 199.363 209.337C199.673 209.155 200.006 209.018 200.354 208.93C200.723 208.855 201.102 208.855 201.471 208.93C201.931 209.023 202.368 209.204 202.76 209.463C203.234 209.744 203.622 210.15 203.882 210.637C204.144 211.169 204.253 211.764 204.197 212.355C204.122 213.082 203.87 213.78 203.464 214.388C203.231 214.761 202.962 215.11 202.662 215.431C202.35 215.764 202.004 216.066 201.631 216.33C201.245 216.605 200.831 216.838 200.394 217.023L199.472 215.287C199.785 215.165 200.085 215.009 200.366 214.823C200.649 214.646 200.914 214.441 201.156 214.211C201.377 214.01 201.569 213.781 201.729 213.529C201.874 213.301 201.984 213.052 202.055 212.79C202.136 212.538 202.145 212.269 202.084 212.011C202.045 211.877 201.98 211.752 201.892 211.642C201.805 211.533 201.697 211.443 201.574 211.376C201.384 211.26 201.159 211.213 200.938 211.244C200.679 211.281 200.428 211.361 200.194 211.479C199.922 211.618 199.663 211.78 199.42 211.966C199.123 212.189 198.808 212.412 198.464 212.63C198.122 212.851 197.757 213.033 197.376 213.174C196.991 213.315 196.581 213.371 196.173 213.34C195.7 213.296 195.245 213.134 194.85 212.87C194.335 212.568 193.915 212.127 193.636 211.599C193.382 211.088 193.274 210.518 193.321 209.949C193.375 209.313 193.571 208.697 193.894 208.145C194.268 207.491 194.757 206.909 195.337 206.427C195.788 206.077 196.275 205.777 196.792 205.534L197.754 207.16Z" fill="#32439A"/>
<path d="M205.577 198.351C205.118 198.486 204.671 198.66 204.243 198.873C203.858 199.055 203.506 199.299 203.2 199.594C202.911 199.867 202.712 200.22 202.628 200.608C202.602 200.775 202.62 200.945 202.678 201.103C202.736 201.261 202.833 201.402 202.96 201.513C203.055 201.607 203.169 201.68 203.294 201.729C203.419 201.777 203.553 201.799 203.687 201.794C204.018 201.786 204.345 201.725 204.655 201.61C205.01 201.487 205.358 201.346 205.697 201.186C206.021 201.038 206.354 200.91 206.694 200.803C207.035 200.695 207.39 200.637 207.748 200.631C208.123 200.63 208.495 200.704 208.842 200.849C209.27 201.042 209.659 201.314 209.987 201.65C210.388 202.045 210.671 202.542 210.806 203.088C210.944 203.67 210.918 204.278 210.732 204.846C210.5 205.536 210.107 206.16 209.586 206.668C209.274 206.978 208.935 207.26 208.573 207.51C208.192 207.764 207.787 207.981 207.364 208.157C206.927 208.34 206.472 208.477 206.007 208.563L205.428 206.627C205.76 206.573 206.086 206.489 206.402 206.375C206.717 206.263 207.02 206.119 207.307 205.946C207.563 205.798 207.8 205.62 208.011 205.413C208.201 205.219 208.363 204.999 208.492 204.76C208.623 204.532 208.692 204.273 208.693 204.01C208.685 203.87 208.648 203.733 208.586 203.607C208.524 203.481 208.438 203.369 208.332 203.277C208.178 203.124 207.975 203.029 207.759 203.008C207.498 202.982 207.233 203.005 206.98 203.077C206.685 203.147 206.397 203.247 206.121 203.374C205.783 203.529 205.423 203.678 205.039 203.815C204.657 203.954 204.262 204.05 203.859 204.102C203.421 204.162 202.974 204.116 202.558 203.968C202.141 203.819 201.766 203.572 201.465 203.248C201.03 202.84 200.717 202.318 200.56 201.742C200.425 201.188 200.444 200.607 200.617 200.064C200.811 199.454 201.14 198.896 201.579 198.432C202.089 197.877 202.694 197.419 203.366 197.08C203.884 196.841 204.425 196.658 204.981 196.536L205.577 198.351Z" fill="#32439A"/>
<path d="M208.676 192.309L215.216 188.3L216.362 190.122L211.711 192.985L212.977 195.03L217.095 192.481L218.24 194.303L214.122 196.851L215.405 198.925L220.239 195.929L221.385 197.756L214.661 201.914L208.676 192.309Z" fill="#32439A"/>
<path d="M224.191 184.703C224.797 184.503 225.431 184.401 226.069 184.399C226.602 184.401 227.128 184.512 227.616 184.726C228.06 184.931 228.451 185.235 228.761 185.614C229.098 186.032 229.349 186.513 229.5 187.028C229.638 187.476 229.709 187.941 229.712 188.409C229.712 188.888 229.619 189.363 229.437 189.806C229.233 190.283 228.921 190.707 228.526 191.043C228.022 191.456 227.437 191.758 226.808 191.931L225.285 192.401L226.344 195.837L224.219 196.49L220.897 185.722L224.191 184.703ZM226.19 189.858C226.469 189.782 226.728 189.643 226.946 189.451C227.116 189.293 227.245 189.097 227.324 188.878C227.39 188.685 227.425 188.482 227.427 188.277C227.427 188.097 227.402 187.917 227.352 187.744C227.303 187.595 227.24 187.451 227.163 187.315C227.063 187.134 226.933 186.971 226.779 186.834C226.601 186.672 226.381 186.563 226.144 186.519C225.827 186.461 225.501 186.488 225.199 186.599L223.681 187.068L224.683 190.316L226.19 189.858ZM228.589 190.562L232.535 193.895L230.061 194.657L226.052 191.404L228.589 190.562Z" fill="#32439A"/>
<path d="M233.664 182.47L241.247 182L241.379 184.136L238.647 184.308L239.22 193.42L237.003 193.558L236.43 184.446L233.802 184.612L233.664 182.47Z" fill="#32439A"/>
<path d="M254.488 183.718L261.212 185.82L260.571 187.865L255.989 186.427L255.204 188.873L259.213 190.121L258.572 192.166L254.563 190.923L253.246 195.15L251.126 194.486L254.488 183.718Z" fill="#32439A"/>
<path d="M264.529 195.305C264.337 195.617 264.243 195.981 264.26 196.347C264.264 196.748 264.366 197.141 264.558 197.493C264.748 197.852 265.031 198.155 265.377 198.369C265.737 198.601 266.151 198.735 266.579 198.758C266.974 198.78 267.367 198.703 267.725 198.535C268.059 198.382 268.341 198.135 268.538 197.825L272.301 191.8L274.157 192.945L270.371 199.01C269.969 199.675 269.384 200.209 268.687 200.551C268.002 200.877 267.243 201.014 266.488 200.946C265.686 200.88 264.914 200.618 264.237 200.184C263.556 199.769 262.988 199.193 262.582 198.506C262.208 197.854 262.011 197.116 262.009 196.364C262.006 195.587 262.231 194.827 262.656 194.176L266.448 188.105L268.326 189.285L264.529 195.305Z" fill="#32439A"/>
<path d="M281.173 203.369C281.05 202.906 280.889 202.454 280.692 202.017C280.519 201.629 280.285 201.271 279.999 200.958C279.739 200.652 279.391 200.436 279.002 200.339C278.836 200.307 278.665 200.318 278.504 200.371C278.344 200.424 278.2 200.518 278.086 200.643C277.989 200.735 277.912 200.846 277.861 200.969C277.81 201.093 277.785 201.225 277.788 201.359C277.787 201.689 277.84 202.018 277.942 202.332C278.056 202.69 278.187 203.042 278.338 203.386C278.476 203.715 278.594 204.052 278.693 204.394C278.792 204.739 278.84 205.096 278.836 205.454C278.824 205.83 278.739 206.199 278.584 206.542C278.378 206.962 278.094 207.339 277.748 207.653C277.343 208.044 276.837 208.313 276.287 208.432C275.701 208.554 275.092 208.511 274.529 208.306C273.843 208.056 273.231 207.639 272.748 207.092C272.125 206.442 271.64 205.672 271.322 204.83C271.148 204.389 271.025 203.929 270.955 203.461L272.885 202.98C272.972 203.645 273.184 204.288 273.509 204.875C273.65 205.135 273.823 205.376 274.025 205.591C274.213 205.79 274.429 205.959 274.666 206.095C274.89 206.235 275.148 206.31 275.411 206.313C275.55 206.31 275.687 206.279 275.814 206.222C275.941 206.165 276.055 206.083 276.15 205.981C276.312 205.831 276.416 205.628 276.442 205.408C276.471 205.148 276.456 204.884 276.396 204.629C276.331 204.33 276.237 204.039 276.115 203.759C275.972 203.415 275.841 203.048 275.709 202.665C275.582 202.28 275.497 201.882 275.457 201.479C275.417 201.071 275.464 200.659 275.594 200.271C275.757 199.829 276.026 199.436 276.379 199.125C276.799 198.702 277.328 198.404 277.908 198.266C278.466 198.146 279.047 198.182 279.586 198.369C280.191 198.582 280.74 198.926 281.196 199.377C281.73 199.904 282.168 200.52 282.49 201.198C282.714 201.723 282.881 202.27 282.988 202.831L281.173 203.369Z" fill="#32439A"/>
<path d="M286.757 206.307L287.971 208.168L278.538 214.342L277.324 212.481L286.757 206.307Z" fill="#32439A"/>
<path d="M285.708 214.99C286.419 214.723 287.178 214.606 287.936 214.646C288.68 214.683 289.411 214.86 290.09 215.167C290.773 215.475 291.391 215.91 291.911 216.45C292.438 217.006 292.847 217.663 293.11 218.382C293.374 219.101 293.489 219.866 293.446 220.631C293.359 222.153 292.698 223.586 291.596 224.64C291.04 225.163 290.384 225.569 289.668 225.831C288.951 226.094 288.189 226.209 287.427 226.169C286.682 226.131 285.952 225.946 285.279 225.625C284.604 225.305 283.994 224.862 283.48 224.32C282.436 223.181 281.885 221.676 281.945 220.133C282.015 218.635 282.669 217.225 283.767 216.204C284.323 215.669 284.984 215.255 285.708 214.99ZM286.504 217.149C286.052 217.31 285.635 217.56 285.279 217.882C284.938 218.192 284.659 218.566 284.46 218.982C284.259 219.393 284.145 219.842 284.122 220.299C284.097 220.775 284.171 221.251 284.339 221.696C284.499 222.124 284.745 222.514 285.061 222.842C285.372 223.164 285.746 223.418 286.161 223.586C286.581 223.761 287.029 223.856 287.484 223.867C287.964 223.877 288.443 223.795 288.893 223.627C289.796 223.308 290.539 222.651 290.966 221.794C291.17 221.391 291.289 220.95 291.315 220.499C291.337 220.032 291.266 219.566 291.104 219.127C290.943 218.688 290.695 218.286 290.376 217.945C290.062 217.617 289.687 217.354 289.271 217.172C288.846 216.991 288.392 216.892 287.931 216.88C287.45 216.88 286.974 216.971 286.527 217.149H286.504Z" fill="#32439A"/>
<path d="M284.81 240.809L292.181 231.954L291.837 232.624L284.964 232.951L284.873 230.7L296.579 230.23V230.322L289.248 238.987L289.443 238.489L296.465 238.157L296.556 240.391L284.832 240.866L284.81 240.809Z" fill="#32439A"/>
<line x1="62" y1="450.103" x2="424" y2="450.103" stroke="#32439A" stroke-width="0.5"/>
<path d="M197.693 468.705C198.578 468.705 199.336 468.854 199.965 469.153C200.594 469.451 201.074 469.878 201.405 470.433C201.746 470.987 201.917 471.659 201.917 472.449C201.917 472.907 201.842 473.366 201.693 473.825C201.554 474.283 201.33 474.699 201.021 475.073C200.722 475.446 200.317 475.75 199.805 475.985C199.304 476.209 198.685 476.321 197.949 476.321H196.269V480.353H194.397V468.705H197.693ZM197.949 474.513C198.354 474.513 198.696 474.443 198.973 474.305C199.25 474.166 199.464 473.99 199.613 473.777C199.773 473.563 199.885 473.345 199.949 473.121C200.024 472.886 200.061 472.678 200.061 472.497C200.061 472.305 200.029 472.097 199.965 471.873C199.901 471.638 199.794 471.419 199.645 471.217C199.496 471.003 199.288 470.833 199.021 470.705C198.754 470.566 198.413 470.497 197.997 470.497H196.269V474.513H197.949ZM205.426 473.585L205.586 475.505L205.522 475.233C205.714 474.827 205.975 474.481 206.306 474.193C206.647 473.894 206.994 473.67 207.346 473.521C207.698 473.361 207.986 473.281 208.21 473.281L208.13 475.073C207.618 475.03 207.17 475.126 206.786 475.361C206.413 475.585 206.119 475.883 205.906 476.257C205.703 476.63 205.602 477.025 205.602 477.441V480.353H203.81V473.585H205.426ZM210.045 473.585H211.837V480.353H210.045V473.585ZM209.965 471.169C209.965 470.891 210.071 470.662 210.285 470.481C210.509 470.299 210.749 470.209 211.005 470.209C211.261 470.209 211.49 470.299 211.693 470.481C211.906 470.662 212.013 470.891 212.013 471.169C212.013 471.446 211.906 471.675 211.693 471.857C211.49 472.027 211.261 472.113 211.005 472.113C210.749 472.113 210.509 472.022 210.285 471.841C210.071 471.659 209.965 471.435 209.965 471.169ZM215.911 473.585L216.071 474.961L216.007 474.849C216.263 474.358 216.609 473.974 217.047 473.697C217.495 473.419 218.012 473.281 218.599 473.281C218.972 473.281 219.303 473.339 219.591 473.457C219.879 473.574 220.119 473.739 220.311 473.953C220.513 474.166 220.647 474.433 220.711 474.753L220.615 474.785C220.892 474.326 221.249 473.963 221.687 473.697C222.124 473.419 222.588 473.281 223.079 473.281C223.74 473.281 224.268 473.473 224.663 473.857C225.057 474.23 225.26 474.715 225.271 475.313V480.353H223.495V476.017C223.484 475.686 223.415 475.414 223.287 475.201C223.159 474.977 222.919 474.854 222.567 474.833C222.183 474.833 221.852 474.955 221.575 475.201C221.297 475.435 221.079 475.745 220.919 476.129C220.769 476.502 220.695 476.902 220.695 477.329V480.353H218.887V476.017C218.876 475.686 218.801 475.414 218.663 475.201C218.524 474.977 218.279 474.854 217.927 474.833C217.553 474.833 217.228 474.955 216.951 475.201C216.673 475.435 216.46 475.745 216.311 476.129C216.161 476.502 216.087 476.897 216.087 477.313V480.353H214.295V473.585H215.911ZM230.58 480.529C229.94 480.529 229.359 480.395 228.836 480.129C228.324 479.862 227.919 479.467 227.62 478.945C227.321 478.411 227.172 477.755 227.172 476.977C227.172 476.209 227.327 475.553 227.636 475.009C227.956 474.454 228.372 474.027 228.884 473.729C229.407 473.43 229.972 473.281 230.58 473.281C231.231 473.281 231.753 473.409 232.148 473.665C232.553 473.921 232.868 474.225 233.092 474.577L232.996 474.833L233.172 473.585H234.82V480.353H233.028V478.705L233.204 479.137C233.161 479.201 233.076 479.307 232.948 479.457C232.82 479.595 232.644 479.75 232.42 479.921C232.196 480.091 231.929 480.235 231.62 480.353C231.321 480.47 230.975 480.529 230.58 480.529ZM231.076 479.057C231.396 479.057 231.684 478.998 231.94 478.881C232.207 478.763 232.431 478.598 232.612 478.385C232.804 478.171 232.943 477.915 233.028 477.617V476.145C232.943 475.867 232.804 475.627 232.612 475.425C232.42 475.211 232.185 475.046 231.908 474.929C231.641 474.811 231.343 474.753 231.012 474.753C230.649 474.753 230.313 474.843 230.004 475.025C229.695 475.206 229.444 475.457 229.252 475.777C229.071 476.097 228.98 476.465 228.98 476.881C228.98 477.286 229.076 477.654 229.268 477.985C229.46 478.315 229.716 478.577 230.036 478.769C230.356 478.961 230.703 479.057 231.076 479.057ZM238.911 473.585L239.071 475.505L239.007 475.233C239.199 474.827 239.46 474.481 239.791 474.193C240.132 473.894 240.479 473.67 240.831 473.521C241.183 473.361 241.471 473.281 241.695 473.281L241.615 475.073C241.103 475.03 240.655 475.126 240.271 475.361C239.897 475.585 239.604 475.883 239.391 476.257C239.188 476.63 239.087 477.025 239.087 477.441V480.353H237.295V473.585H238.911ZM244.089 483.601L248.585 473.585H250.217L245.849 483.601H244.089ZM245.833 480.401L242.537 473.585H244.553L247.209 479.489L245.833 480.401ZM257.178 468.705H259.05V478.561H264.794V480.353H257.178V468.705ZM266.328 476.897C266.328 476.214 266.488 475.601 266.808 475.057C267.128 474.502 267.576 474.07 268.152 473.761C268.739 473.441 269.4 473.281 270.136 473.281C270.894 473.281 271.55 473.441 272.104 473.761C272.67 474.07 273.107 474.502 273.416 475.057C273.726 475.601 273.88 476.214 273.88 476.897C273.88 477.579 273.726 478.198 273.416 478.753C273.107 479.297 272.67 479.729 272.104 480.049C271.55 480.369 270.888 480.529 270.12 480.529C269.395 480.529 268.744 480.385 268.168 480.097C267.592 479.798 267.139 479.377 266.808 478.833C266.488 478.289 266.328 477.643 266.328 476.897ZM268.136 476.913C268.136 477.307 268.222 477.67 268.392 478.001C268.563 478.321 268.798 478.577 269.096 478.769C269.395 478.961 269.726 479.057 270.088 479.057C270.483 479.057 270.824 478.961 271.112 478.769C271.411 478.577 271.64 478.321 271.8 478.001C271.971 477.67 272.056 477.307 272.056 476.913C272.056 476.507 271.971 476.145 271.8 475.825C271.64 475.494 271.411 475.233 271.112 475.041C270.824 474.849 270.483 474.753 270.088 474.753C269.715 474.753 269.379 474.854 269.08 475.057C268.792 475.249 268.563 475.505 268.392 475.825C268.222 476.145 268.136 476.507 268.136 476.913ZM279.139 483.729C278.585 483.729 278.11 483.665 277.715 483.537C277.321 483.409 276.969 483.238 276.659 483.025C276.361 482.822 276.078 482.609 275.811 482.385L276.867 481.153C277.177 481.441 277.502 481.681 277.843 481.873C278.195 482.065 278.617 482.161 279.107 482.161C279.545 482.161 279.923 482.086 280.243 481.937C280.574 481.787 280.83 481.579 281.011 481.313C281.193 481.046 281.289 480.726 281.299 480.353V478.673L281.411 479.009C281.23 479.425 280.899 479.782 280.419 480.081C279.939 480.379 279.342 480.529 278.627 480.529C278.009 480.529 277.438 480.374 276.915 480.065C276.393 479.745 275.977 479.313 275.667 478.769C275.358 478.225 275.203 477.611 275.203 476.929C275.203 476.225 275.363 475.601 275.683 475.057C276.014 474.502 276.446 474.07 276.979 473.761C277.523 473.441 278.099 473.281 278.707 473.281C279.305 473.281 279.833 473.387 280.291 473.601C280.761 473.814 281.113 474.081 281.347 474.401L281.251 474.657L281.443 473.585H283.091V480.385C283.091 481.014 282.921 481.579 282.579 482.081C282.249 482.593 281.785 482.993 281.187 483.281C280.601 483.579 279.918 483.729 279.139 483.729ZM277.011 476.881C277.011 477.286 277.102 477.654 277.283 477.985C277.475 478.315 277.731 478.577 278.051 478.769C278.382 478.961 278.75 479.057 279.155 479.057C279.507 479.057 279.822 478.998 280.099 478.881C280.387 478.763 280.633 478.598 280.835 478.385C281.049 478.171 281.203 477.921 281.299 477.633V476.161C281.203 475.873 281.049 475.627 280.835 475.425C280.633 475.211 280.387 475.046 280.099 474.929C279.822 474.811 279.507 474.753 279.155 474.753C278.75 474.753 278.382 474.843 278.051 475.025C277.731 475.206 277.475 475.457 277.283 475.777C277.102 476.097 277.011 476.465 277.011 476.881ZM285 476.897C285 476.214 285.16 475.601 285.48 475.057C285.8 474.502 286.248 474.07 286.824 473.761C287.411 473.441 288.072 473.281 288.808 473.281C289.565 473.281 290.221 473.441 290.776 473.761C291.341 474.07 291.779 474.502 292.088 475.057C292.397 475.601 292.552 476.214 292.552 476.897C292.552 477.579 292.397 478.198 292.088 478.753C291.779 479.297 291.341 479.729 290.776 480.049C290.221 480.369 289.56 480.529 288.792 480.529C288.067 480.529 287.416 480.385 286.84 480.097C286.264 479.798 285.811 479.377 285.48 478.833C285.16 478.289 285 477.643 285 476.897ZM286.808 476.913C286.808 477.307 286.893 477.67 287.064 478.001C287.235 478.321 287.469 478.577 287.768 478.769C288.067 478.961 288.397 479.057 288.76 479.057C289.155 479.057 289.496 478.961 289.784 478.769C290.083 478.577 290.312 478.321 290.472 478.001C290.643 477.67 290.728 477.307 290.728 476.913C290.728 476.507 290.643 476.145 290.472 475.825C290.312 475.494 290.083 475.233 289.784 475.041C289.496 474.849 289.155 474.753 288.76 474.753C288.387 474.753 288.051 474.854 287.752 475.057C287.464 475.249 287.235 475.505 287.064 475.825C286.893 476.145 286.808 476.507 286.808 476.913Z" fill="#32439A"/>
<path d="M648.982 251.972H580.433C579.724 251.976 579.025 252.146 578.392 252.468C577.76 252.79 577.212 253.256 576.791 253.827C576.371 254.399 576.09 255.062 575.971 255.761C575.853 256.461 575.899 257.179 576.107 257.857C577.964 263.743 581.138 269.127 585.389 273.601C589.639 278.076 594.854 281.521 600.636 283.677C601.199 283.882 601.692 284.242 602.059 284.715C602.426 285.188 602.651 285.755 602.71 286.351C602.768 286.947 602.657 287.547 602.39 288.082C602.122 288.618 601.708 289.066 601.196 289.377C597.012 291.899 593.612 295.536 591.379 299.881C589.145 304.226 588.166 309.108 588.55 313.978C588.934 318.849 590.667 323.516 593.555 327.457C596.443 331.398 600.371 334.457 604.899 336.291C605.382 336.486 605.81 336.796 606.146 337.195C606.481 337.593 606.715 338.067 606.825 338.577C606.936 339.086 606.92 339.614 606.78 340.116C606.639 340.617 606.378 341.077 606.019 341.455C604.885 342.63 604.001 344.024 603.422 345.551C602.842 347.079 602.58 348.708 602.649 350.34C602.719 351.972 603.12 353.573 603.827 355.045C604.535 356.518 605.534 357.831 606.765 358.905C607.379 359.492 608.055 360.01 608.782 360.45C609.006 360.584 609.188 360.78 609.307 361.014C609.425 361.248 609.475 361.51 609.452 361.771C609.428 362.032 609.331 362.281 609.172 362.489C609.013 362.698 608.798 362.857 608.553 362.949C606.025 363.892 603.746 365.399 601.888 367.356C600.031 369.313 598.645 371.668 597.835 374.241C597.743 374.539 597.721 374.854 597.773 375.161C597.825 375.468 597.948 375.759 598.133 376.01C598.318 376.261 598.56 376.465 598.838 376.605C599.116 376.746 599.423 376.819 599.735 376.818H629.696C630.008 376.818 630.316 376.745 630.595 376.605C630.873 376.464 631.115 376.26 631.301 376.009C631.486 375.757 631.61 375.466 631.662 375.158C631.714 374.85 631.693 374.535 631.6 374.236C630.788 371.665 629.401 369.312 627.544 367.356C625.687 365.4 623.409 363.893 620.883 362.949C620.637 362.859 620.422 362.702 620.262 362.496C620.101 362.29 620.002 362.042 619.977 361.782C619.951 361.522 619.999 361.26 620.115 361.026C620.231 360.792 620.411 360.595 620.634 360.459C621.292 360.062 621.909 359.6 622.476 359.081C623.744 358.021 624.78 356.711 625.521 355.234C626.261 353.757 626.691 352.144 626.782 350.494C626.874 348.844 626.625 347.193 626.052 345.643C625.479 344.093 624.593 342.678 623.45 341.484C623.081 341.113 622.808 340.657 622.657 340.156C622.505 339.655 622.48 339.124 622.582 338.61C622.685 338.097 622.912 337.617 623.245 337.212C623.577 336.808 624.004 336.491 624.488 336.291C629.019 334.463 632.951 331.41 635.845 327.473C638.738 323.536 640.478 318.872 640.87 314.002C641.261 309.132 640.289 304.249 638.061 299.9C635.834 295.552 632.439 291.91 628.258 289.382C627.748 289.072 627.335 288.624 627.066 288.09C626.798 287.557 626.685 286.958 626.74 286.363C626.795 285.769 627.017 285.201 627.379 284.726C627.742 284.251 628.23 283.888 628.79 283.677C634.575 281.524 639.793 278.079 644.046 273.604C648.299 269.13 651.475 263.744 653.333 257.857C653.543 257.177 653.59 256.457 653.47 255.755C653.351 255.053 653.068 254.388 652.645 253.816C652.221 253.243 651.669 252.778 651.033 252.458C650.397 252.138 649.695 251.971 648.982 251.972Z" fill="white"/>
<path d="M609.844 251.802H642.221C642.221 244.506 639.322 237.509 634.163 232.35C629.004 227.19 622.007 224.292 614.71 224.292C607.414 224.292 600.417 227.19 595.258 232.35C590.099 237.509 587.2 244.506 587.2 251.802H595.852C597.172 251.799 598.452 252.256 599.472 253.095C600.492 253.933 601.188 255.1 601.44 256.396V256.445C601.722 258.009 601.867 259.595 601.874 261.185C601.897 262.773 601.771 264.36 601.498 265.925C601.252 267.475 600.797 268.985 600.144 270.412C599.893 270.886 599.762 271.415 599.764 271.951C599.764 272.768 600.089 273.551 600.666 274.128C601.243 274.706 602.027 275.03 602.843 275.03C603.66 275.03 604.443 274.706 605.02 274.128C605.598 273.551 605.922 272.768 605.922 271.951C605.924 271.415 605.793 270.886 605.542 270.412C604.889 268.985 604.434 267.475 604.188 265.925C603.915 264.36 603.79 262.773 603.813 261.185C603.819 259.595 603.964 258.009 604.246 256.445V256.396C604.499 255.099 605.196 253.93 606.218 253.092C607.24 252.253 608.522 251.797 609.844 251.802Z" fill="#32439A"/>
<path d="M685.009 251.833V258.994H675.27V278.044H683.864V285.205H675.27V309.124H668.109V251.833H685.009ZM698.133 264.724V302.535H702.286V309.124H686.245V302.535H690.971V271.312H686.531V264.724H698.133ZM698.347 251.833V259.424H690.47V251.833H698.347ZM719.132 251.117C721.233 251.117 722.808 251.857 723.859 253.337C724.957 254.769 725.506 256.751 725.506 259.281V275.466H718.344V261.143C718.344 260.331 718.106 259.663 717.628 259.138C717.151 258.565 716.506 258.278 715.695 258.278C714.787 258.278 714.047 258.589 713.475 259.209C712.902 259.83 712.615 260.665 712.615 261.716V309.124H705.454V251.833H712.186L711.613 257.204H712.472C713.57 253.146 715.79 251.117 719.132 251.117ZM740.018 251.117C742.931 251.117 745.318 252.024 747.18 253.838C749.09 255.653 750.044 258.087 750.044 261.143V274.463C750.044 277.375 749.328 279.715 747.896 281.481C746.511 283.2 744.649 284.059 742.31 284.059C741.069 284.059 740.09 283.892 739.374 283.558C738.706 283.224 738.109 282.842 737.584 282.412H736.724L737.154 285.42V299.814C737.154 300.626 737.417 301.318 737.942 301.891C738.515 302.416 739.207 302.679 740.018 302.679C740.83 302.679 741.499 302.416 742.024 301.891C742.597 301.318 742.883 300.626 742.883 299.814V289.788H750.044V299.814C750.044 302.87 749.09 305.304 747.18 307.119C745.318 308.933 742.931 309.84 740.018 309.84C737.106 309.84 734.695 308.933 732.786 307.119C730.924 305.304 729.993 302.87 729.993 299.814V261.143C729.993 258.087 730.924 255.653 732.786 253.838C734.695 252.024 737.106 251.117 740.018 251.117ZM740.018 258.278C739.207 258.278 738.515 258.565 737.942 259.138C737.417 259.663 737.154 260.331 737.154 261.143V275.895C737.727 276.564 738.682 276.898 740.018 276.898C740.83 276.898 741.499 276.635 742.024 276.11C742.597 275.537 742.883 274.845 742.883 274.033V261.143C742.883 260.331 742.597 259.663 742.024 259.138C741.499 258.565 740.83 258.278 740.018 258.278Z" fill="#32439A"/>
<path d="M673.98 318.346C676.892 318.346 679.279 319.253 681.141 321.067C683.051 322.882 684.005 325.316 684.005 328.372V338.398H676.844V328.372C676.844 327.56 676.558 326.892 675.985 326.367C675.46 325.794 674.791 325.507 673.98 325.507C673.168 325.507 672.476 325.794 671.903 326.367C671.378 326.892 671.115 327.56 671.115 328.372V329.804C671.115 330.95 671.139 332.024 671.187 333.027C671.234 334.029 671.354 335.008 671.545 335.963C671.783 336.918 672.118 337.873 672.547 338.827C672.977 339.782 673.574 340.785 674.338 341.835L679.207 348.495C680.353 350.071 681.236 351.503 681.857 352.792C682.525 354.033 683.003 355.298 683.289 356.588C683.624 357.877 683.814 359.237 683.862 360.669C683.958 362.102 684.005 363.749 684.005 365.611V367.043C684.005 370.099 683.051 372.533 681.141 374.348C679.279 376.162 676.892 377.069 673.98 377.069C671.067 377.069 668.656 376.162 666.747 374.348C664.885 372.533 663.954 370.099 663.954 367.043V357.017H671.115V367.043C671.115 367.855 671.378 368.547 671.903 369.12C672.476 369.645 673.168 369.908 673.98 369.908C674.791 369.908 675.46 369.645 675.985 369.12C676.558 368.547 676.844 367.855 676.844 367.043V365.611C676.844 364.035 676.82 362.699 676.773 361.6C676.725 360.455 676.582 359.38 676.343 358.378C676.104 357.375 675.722 356.373 675.197 355.37C674.672 354.32 673.908 353.126 672.905 351.789L667.964 344.986C667.057 343.697 666.341 342.48 665.816 341.334C665.291 340.14 664.885 338.947 664.598 337.753C664.312 336.56 664.121 335.318 664.025 334.029C663.978 332.693 663.954 331.284 663.954 329.804V328.372C663.954 325.316 664.885 322.882 666.747 321.067C668.656 319.253 671.067 318.346 673.98 318.346ZM698.76 319.062C701.672 319.062 704.059 319.969 705.921 321.783C707.831 323.598 708.786 326.033 708.786 329.088V352.004C708.786 355.06 707.831 357.495 705.921 359.309C704.059 361.123 701.672 362.03 698.76 362.03H695.896V376.353H688.734V319.062H698.76ZM695.896 354.869H698.76C699.572 354.869 700.24 354.606 700.765 354.081C701.338 353.508 701.625 352.816 701.625 352.004V329.088C701.625 328.276 701.338 327.608 700.765 327.083C700.24 326.51 699.572 326.223 698.76 326.223H695.896V354.869ZM723.579 318.346C726.491 318.346 728.878 319.253 730.74 321.067C732.65 322.882 733.604 325.316 733.604 328.372V367.043C733.604 370.099 732.65 372.533 730.74 374.348C728.878 376.162 726.491 377.069 723.579 377.069C720.666 377.069 718.255 376.162 716.346 374.348C714.484 372.533 713.553 370.099 713.553 367.043V328.372C713.553 325.316 714.484 322.882 716.346 321.067C718.255 319.253 720.666 318.346 723.579 318.346ZM723.579 325.507C722.767 325.507 722.075 325.794 721.502 326.367C720.977 326.892 720.714 327.56 720.714 328.372V367.043C720.714 367.855 720.977 368.547 721.502 369.12C722.075 369.645 722.767 369.908 723.579 369.908C724.39 369.908 725.059 369.645 725.584 369.12C726.157 368.547 726.443 367.855 726.443 367.043V328.372C726.443 327.56 726.157 326.892 725.584 326.367C725.059 325.794 724.39 325.507 723.579 325.507ZM747.319 319.062V331.953H754.624V338.541H747.319V367.258C747.319 367.831 747.487 368.308 747.821 368.69C748.155 369.024 748.68 369.191 749.396 369.191H755.197V376.353H746.603C744.694 376.353 743.142 375.78 741.948 374.634C740.755 373.441 740.158 371.937 740.158 370.122V338.541H736.577V331.953H740.158V319.062H747.319Z" fill="#32439A"/>
<line x1="485" y1="450.103" x2="847" y2="450.103" stroke="#32439A" stroke-width="0.5"/>
<path d="M610.337 480.353L615.489 468.225H615.601L620.753 480.353H618.609L614.977 471.153L616.321 470.241L612.177 480.353H610.337ZM613.569 476.033H617.553L618.193 477.617H613.009L613.569 476.033ZM622.373 467.873H624.165V480.353H622.373V467.873ZM627.263 470.609H629.071V473.585H630.831V474.993H629.071V480.353H627.263V474.993H626.111V473.585H627.263V470.609ZM635.823 480.529C635.023 480.529 634.341 480.374 633.775 480.065C633.21 479.755 632.778 479.329 632.479 478.785C632.181 478.23 632.031 477.606 632.031 476.913C632.031 476.23 632.202 475.617 632.543 475.073C632.885 474.529 633.343 474.097 633.919 473.777C634.506 473.446 635.151 473.281 635.855 473.281C636.783 473.281 637.546 473.553 638.143 474.097C638.751 474.63 639.157 475.387 639.359 476.369L633.903 478.209L633.487 477.201L637.743 475.681L637.375 475.889C637.258 475.569 637.066 475.291 636.799 475.057C636.543 474.822 636.181 474.705 635.711 474.705C635.338 474.705 635.007 474.795 634.719 474.977C634.431 475.147 634.202 475.393 634.031 475.713C633.871 476.022 633.791 476.39 633.791 476.817C633.791 477.254 633.882 477.638 634.063 477.969C634.245 478.299 634.49 478.555 634.799 478.737C635.109 478.907 635.461 478.993 635.855 478.993C636.133 478.993 636.399 478.945 636.655 478.849C636.911 478.753 637.151 478.625 637.375 478.465L638.191 479.793C637.839 480.017 637.45 480.198 637.023 480.337C636.607 480.465 636.207 480.529 635.823 480.529ZM642.739 473.585L642.899 475.505L642.835 475.233C643.027 474.827 643.288 474.481 643.619 474.193C643.96 473.894 644.307 473.67 644.659 473.521C645.011 473.361 645.299 473.281 645.523 473.281L645.443 475.073C644.931 475.03 644.483 475.126 644.099 475.361C643.725 475.585 643.432 475.883 643.219 476.257C643.016 476.63 642.915 477.025 642.915 477.441V480.353H641.123V473.585H642.739ZM648.973 473.585L649.133 475.041L649.069 474.849C649.304 474.379 649.65 474.006 650.109 473.729C650.578 473.441 651.133 473.297 651.773 473.297C652.413 473.297 652.941 473.483 653.357 473.857C653.773 474.23 653.986 474.721 653.997 475.329V480.353H652.205V475.969C652.194 475.627 652.098 475.355 651.917 475.153C651.736 474.939 651.448 474.827 651.053 474.817C650.69 474.817 650.365 474.929 650.077 475.153C649.789 475.366 649.56 475.665 649.389 476.049C649.229 476.422 649.149 476.854 649.149 477.345V480.353H647.357V473.585H648.973ZM659.314 480.529C658.674 480.529 658.093 480.395 657.57 480.129C657.058 479.862 656.653 479.467 656.354 478.945C656.056 478.411 655.906 477.755 655.906 476.977C655.906 476.209 656.061 475.553 656.37 475.009C656.69 474.454 657.106 474.027 657.618 473.729C658.141 473.43 658.706 473.281 659.314 473.281C659.965 473.281 660.488 473.409 660.882 473.665C661.288 473.921 661.602 474.225 661.826 474.577L661.73 474.833L661.906 473.585H663.554V480.353H661.762V478.705L661.938 479.137C661.896 479.201 661.81 479.307 661.682 479.457C661.554 479.595 661.378 479.75 661.154 479.921C660.93 480.091 660.664 480.235 660.354 480.353C660.056 480.47 659.709 480.529 659.314 480.529ZM659.81 479.057C660.13 479.057 660.418 478.998 660.674 478.881C660.941 478.763 661.165 478.598 661.346 478.385C661.538 478.171 661.677 477.915 661.762 477.617V476.145C661.677 475.867 661.538 475.627 661.346 475.425C661.154 475.211 660.92 475.046 660.642 474.929C660.376 474.811 660.077 474.753 659.746 474.753C659.384 474.753 659.048 474.843 658.738 475.025C658.429 475.206 658.178 475.457 657.986 475.777C657.805 476.097 657.714 476.465 657.714 476.881C657.714 477.286 657.81 477.654 658.002 477.985C658.194 478.315 658.45 478.577 658.77 478.769C659.09 478.961 659.437 479.057 659.81 479.057ZM666.669 470.609H668.477V473.585H670.237V474.993H668.477V480.353H666.669V474.993H665.517V473.585H666.669V470.609ZM675.23 480.529C674.43 480.529 673.747 480.374 673.182 480.065C672.616 479.755 672.184 479.329 671.886 478.785C671.587 478.23 671.438 477.606 671.438 476.913C671.438 476.23 671.608 475.617 671.95 475.073C672.291 474.529 672.75 474.097 673.326 473.777C673.912 473.446 674.558 473.281 675.262 473.281C676.19 473.281 676.952 473.553 677.55 474.097C678.158 474.63 678.563 475.387 678.766 476.369L673.31 478.209L672.894 477.201L677.15 475.681L676.782 475.889C676.664 475.569 676.472 475.291 676.206 475.057C675.95 474.822 675.587 474.705 675.118 474.705C674.744 474.705 674.414 474.795 674.126 474.977C673.838 475.147 673.608 475.393 673.438 475.713C673.278 476.022 673.198 476.39 673.198 476.817C673.198 477.254 673.288 477.638 673.47 477.969C673.651 478.299 673.896 478.555 674.206 478.737C674.515 478.907 674.867 478.993 675.262 478.993C675.539 478.993 675.806 478.945 676.062 478.849C676.318 478.753 676.558 478.625 676.782 478.465L677.598 479.793C677.246 480.017 676.856 480.198 676.43 480.337C676.014 480.465 675.614 480.529 675.23 480.529ZM686.022 468.705H687.894V478.561H693.638V480.353H686.022V468.705ZM695.172 476.897C695.172 476.214 695.332 475.601 695.652 475.057C695.972 474.502 696.42 474.07 696.996 473.761C697.583 473.441 698.244 473.281 698.98 473.281C699.737 473.281 700.393 473.441 700.948 473.761C701.513 474.07 701.951 474.502 702.26 475.057C702.569 475.601 702.724 476.214 702.724 476.897C702.724 477.579 702.569 478.198 702.26 478.753C701.951 479.297 701.513 479.729 700.948 480.049C700.393 480.369 699.732 480.529 698.964 480.529C698.239 480.529 697.588 480.385 697.012 480.097C696.436 479.798 695.983 479.377 695.652 478.833C695.332 478.289 695.172 477.643 695.172 476.897ZM696.98 476.913C696.98 477.307 697.065 477.67 697.236 478.001C697.407 478.321 697.641 478.577 697.94 478.769C698.239 478.961 698.569 479.057 698.932 479.057C699.327 479.057 699.668 478.961 699.956 478.769C700.255 478.577 700.484 478.321 700.644 478.001C700.815 477.67 700.9 477.307 700.9 476.913C700.9 476.507 700.815 476.145 700.644 475.825C700.484 475.494 700.255 475.233 699.956 475.041C699.668 474.849 699.327 474.753 698.932 474.753C698.559 474.753 698.223 474.854 697.924 475.057C697.636 475.249 697.407 475.505 697.236 475.825C697.065 476.145 696.98 476.507 696.98 476.913ZM707.983 483.729C707.428 483.729 706.954 483.665 706.559 483.537C706.164 483.409 705.812 483.238 705.503 483.025C705.204 482.822 704.922 482.609 704.655 482.385L705.711 481.153C706.02 481.441 706.346 481.681 706.687 481.873C707.039 482.065 707.46 482.161 707.951 482.161C708.388 482.161 708.767 482.086 709.087 481.937C709.418 481.787 709.674 481.579 709.855 481.313C710.036 481.046 710.132 480.726 710.143 480.353V478.673L710.255 479.009C710.074 479.425 709.743 479.782 709.263 480.081C708.783 480.379 708.186 480.529 707.471 480.529C706.852 480.529 706.282 480.374 705.759 480.065C705.236 479.745 704.82 479.313 704.511 478.769C704.202 478.225 704.047 477.611 704.047 476.929C704.047 476.225 704.207 475.601 704.527 475.057C704.858 474.502 705.29 474.07 705.823 473.761C706.367 473.441 706.943 473.281 707.551 473.281C708.148 473.281 708.676 473.387 709.135 473.601C709.604 473.814 709.956 474.081 710.191 474.401L710.095 474.657L710.287 473.585H711.935V480.385C711.935 481.014 711.764 481.579 711.423 482.081C711.092 482.593 710.628 482.993 710.031 483.281C709.444 483.579 708.762 483.729 707.983 483.729ZM705.855 476.881C705.855 477.286 705.946 477.654 706.127 477.985C706.319 478.315 706.575 478.577 706.895 478.769C707.226 478.961 707.594 479.057 707.999 479.057C708.351 479.057 708.666 478.998 708.943 478.881C709.231 478.763 709.476 478.598 709.679 478.385C709.892 478.171 710.047 477.921 710.143 477.633V476.161C710.047 475.873 709.892 475.627 709.679 475.425C709.476 475.211 709.231 475.046 708.943 474.929C708.666 474.811 708.351 474.753 707.999 474.753C707.594 474.753 707.226 474.843 706.895 475.025C706.575 475.206 706.319 475.457 706.127 475.777C705.946 476.097 705.855 476.465 705.855 476.881ZM713.844 476.897C713.844 476.214 714.004 475.601 714.324 475.057C714.644 474.502 715.092 474.07 715.668 473.761C716.255 473.441 716.916 473.281 717.652 473.281C718.409 473.281 719.065 473.441 719.62 473.761C720.185 474.07 720.623 474.502 720.932 475.057C721.241 475.601 721.396 476.214 721.396 476.897C721.396 477.579 721.241 478.198 720.932 478.753C720.623 479.297 720.185 479.729 719.62 480.049C719.065 480.369 718.404 480.529 717.636 480.529C716.911 480.529 716.26 480.385 715.684 480.097C715.108 479.798 714.655 479.377 714.324 478.833C714.004 478.289 713.844 477.643 713.844 476.897ZM715.652 476.913C715.652 477.307 715.737 477.67 715.908 478.001C716.079 478.321 716.313 478.577 716.612 478.769C716.911 478.961 717.241 479.057 717.604 479.057C717.999 479.057 718.34 478.961 718.628 478.769C718.927 478.577 719.156 478.321 719.316 478.001C719.487 477.67 719.572 477.307 719.572 476.913C719.572 476.507 719.487 476.145 719.316 475.825C719.156 475.494 718.927 475.233 718.628 475.041C718.34 474.849 717.999 474.753 717.604 474.753C717.231 474.753 716.895 474.854 716.596 475.057C716.308 475.249 716.079 475.505 715.908 475.825C715.737 476.145 715.652 476.507 715.652 476.913Z" fill="#32439A"/>
<path d="M1123.26 265.507H1054.71C1054 265.511 1053.3 265.68 1052.67 266.002C1052.04 266.324 1051.49 266.79 1051.07 267.362C1050.65 267.934 1050.37 268.596 1050.25 269.296C1050.13 269.995 1050.18 270.713 1050.39 271.392C1052.24 277.277 1055.42 282.662 1059.67 287.136C1063.92 291.61 1069.13 295.056 1074.92 297.212C1075.48 297.417 1075.97 297.776 1076.34 298.249C1076.7 298.722 1076.93 299.289 1076.99 299.885C1077.05 300.481 1076.94 301.081 1076.67 301.617C1076.4 302.152 1075.99 302.601 1075.48 302.911C1071.29 305.433 1067.89 309.07 1065.66 313.416C1063.42 317.761 1062.44 322.642 1062.83 327.513C1063.21 332.383 1064.95 337.05 1067.83 340.991C1070.72 344.932 1074.65 347.991 1079.18 349.825C1079.66 350.021 1080.09 350.331 1080.43 350.729C1080.76 351.127 1080.99 351.602 1081.1 352.111C1081.21 352.62 1081.2 353.148 1081.06 353.65C1080.92 354.152 1080.66 354.612 1080.3 354.989C1079.16 356.165 1078.28 357.558 1077.7 359.086C1077.12 360.613 1076.86 362.242 1076.93 363.874C1077 365.506 1077.4 367.107 1078.11 368.58C1078.81 370.052 1079.81 371.365 1081.04 372.44C1081.66 373.026 1082.33 373.544 1083.06 373.984C1083.29 374.119 1083.47 374.314 1083.59 374.548C1083.7 374.782 1083.75 375.044 1083.73 375.305C1083.71 375.566 1083.61 375.815 1083.45 376.024C1083.29 376.232 1083.08 376.391 1082.83 376.483C1080.3 377.426 1078.02 378.933 1076.17 380.89C1074.31 382.847 1072.92 385.202 1072.11 387.776C1072.02 388.073 1072 388.388 1072.05 388.696C1072.1 389.003 1072.23 389.294 1072.41 389.545C1072.6 389.795 1072.84 389.999 1073.12 390.14C1073.4 390.28 1073.7 390.353 1074.01 390.353H1103.97C1104.29 390.353 1104.6 390.28 1104.87 390.139C1105.15 389.998 1105.39 389.794 1105.58 389.543C1105.77 389.292 1105.89 389 1105.94 388.693C1105.99 388.385 1105.97 388.069 1105.88 387.771C1105.07 385.199 1103.68 382.846 1101.82 380.89C1099.97 378.935 1097.69 377.427 1095.16 376.483C1094.92 376.394 1094.7 376.237 1094.54 376.03C1094.38 375.824 1094.28 375.576 1094.26 375.316C1094.23 375.056 1094.28 374.794 1094.39 374.56C1094.51 374.326 1094.69 374.13 1094.91 373.994C1095.57 373.596 1096.19 373.134 1096.76 372.615C1098.02 371.555 1099.06 370.246 1099.8 368.769C1100.54 367.292 1100.97 365.678 1101.06 364.028C1101.15 362.378 1100.9 360.727 1100.33 359.177C1099.76 357.628 1098.87 356.212 1097.73 355.019C1097.36 354.648 1097.09 354.192 1096.94 353.69C1096.78 353.189 1096.76 352.658 1096.86 352.145C1096.96 351.631 1097.19 351.151 1097.52 350.747C1097.86 350.342 1098.28 350.026 1098.77 349.825C1103.3 347.998 1107.23 344.945 1110.12 341.008C1113.02 337.071 1114.76 332.406 1115.15 327.536C1115.54 322.666 1114.57 317.783 1112.34 313.435C1110.11 309.086 1106.72 305.444 1102.54 302.916C1102.03 302.606 1101.61 302.159 1101.35 301.625C1101.08 301.091 1100.96 300.493 1101.02 299.898C1101.07 299.303 1101.3 298.736 1101.66 298.261C1102.02 297.786 1102.51 297.422 1103.07 297.212C1108.85 295.058 1114.07 291.613 1118.33 287.139C1122.58 282.664 1125.75 277.279 1127.61 271.392C1127.82 270.711 1127.87 269.991 1127.75 269.289C1127.63 268.587 1127.35 267.923 1126.92 267.35C1126.5 266.778 1125.95 266.312 1125.31 265.992C1124.68 265.672 1123.97 265.506 1123.26 265.507Z" fill="white"/>
<path d="M1084.12 265.337H1116.5C1116.5 258.04 1113.6 251.043 1108.44 245.884C1103.28 240.725 1096.29 237.826 1088.99 237.826C1081.69 237.826 1074.7 240.725 1069.54 245.884C1064.38 251.043 1061.48 258.04 1061.48 265.337H1070.13C1071.45 265.334 1072.73 265.791 1073.75 266.629C1074.77 267.468 1075.47 268.635 1075.72 269.931V269.979C1076 271.544 1076.15 273.13 1076.15 274.719C1076.18 276.308 1076.05 277.895 1075.78 279.46C1075.53 281.01 1075.08 282.519 1074.42 283.946C1074.17 284.42 1074.04 284.949 1074.04 285.486C1074.04 286.302 1074.37 287.085 1074.95 287.663C1075.52 288.24 1076.31 288.565 1077.12 288.565C1077.94 288.565 1078.72 288.24 1079.3 287.663C1079.88 287.085 1080.2 286.302 1080.2 285.486C1080.2 284.949 1080.07 284.42 1079.82 283.946C1079.17 282.519 1078.71 281.01 1078.47 279.46C1078.19 277.895 1078.07 276.308 1078.09 274.719C1078.1 273.13 1078.24 271.544 1078.53 269.979V269.931C1078.78 268.633 1079.48 267.465 1080.5 266.626C1081.52 265.787 1082.8 265.332 1084.12 265.337Z" fill="#32439A"/>
<line x1="908" y1="450.103" x2="1270" y2="450.103" stroke="#32439A" stroke-width="0.5"/>
<path d="M1053.03 468.705H1054.9V478.561H1060.65V480.353H1053.03V468.705ZM1062.18 476.897C1062.18 476.214 1062.34 475.601 1062.66 475.057C1062.98 474.502 1063.43 474.07 1064 473.761C1064.59 473.441 1065.25 473.281 1065.99 473.281C1066.75 473.281 1067.4 473.441 1067.96 473.761C1068.52 474.07 1068.96 474.502 1069.27 475.057C1069.58 475.601 1069.73 476.214 1069.73 476.897C1069.73 477.579 1069.58 478.198 1069.27 478.753C1068.96 479.297 1068.52 479.729 1067.96 480.049C1067.4 480.369 1066.74 480.529 1065.97 480.529C1065.25 480.529 1064.6 480.385 1064.02 480.097C1063.44 479.798 1062.99 479.377 1062.66 478.833C1062.34 478.289 1062.18 477.643 1062.18 476.897ZM1063.99 476.913C1063.99 477.307 1064.07 477.67 1064.24 478.001C1064.41 478.321 1064.65 478.577 1064.95 478.769C1065.25 478.961 1065.58 479.057 1065.94 479.057C1066.33 479.057 1066.68 478.961 1066.96 478.769C1067.26 478.577 1067.49 478.321 1067.65 478.001C1067.82 477.67 1067.91 477.307 1067.91 476.913C1067.91 476.507 1067.82 476.145 1067.65 475.825C1067.49 475.494 1067.26 475.233 1066.96 475.041C1066.68 474.849 1066.33 474.753 1065.94 474.753C1065.57 474.753 1065.23 474.854 1064.93 475.057C1064.64 475.249 1064.41 475.505 1064.24 475.825C1064.07 476.145 1063.99 476.507 1063.99 476.913ZM1074.99 483.729C1074.44 483.729 1073.96 483.665 1073.57 483.537C1073.17 483.409 1072.82 483.238 1072.51 483.025C1072.21 482.822 1071.93 482.609 1071.66 482.385L1072.72 481.153C1073.03 481.441 1073.35 481.681 1073.69 481.873C1074.05 482.065 1074.47 482.161 1074.96 482.161C1075.4 482.161 1075.77 482.086 1076.09 481.937C1076.43 481.787 1076.68 481.579 1076.86 481.313C1077.04 481.046 1077.14 480.726 1077.15 480.353V478.673L1077.26 479.009C1077.08 479.425 1076.75 479.782 1076.27 480.081C1075.79 480.379 1075.19 480.529 1074.48 480.529C1073.86 480.529 1073.29 480.374 1072.77 480.065C1072.24 479.745 1071.83 479.313 1071.52 478.769C1071.21 478.225 1071.05 477.611 1071.05 476.929C1071.05 476.225 1071.21 475.601 1071.53 475.057C1071.87 474.502 1072.3 474.07 1072.83 473.761C1073.37 473.441 1073.95 473.281 1074.56 473.281C1075.16 473.281 1075.68 473.387 1076.14 473.601C1076.61 473.814 1076.96 474.081 1077.2 474.401L1077.1 474.657L1077.29 473.585H1078.94V480.385C1078.94 481.014 1078.77 481.579 1078.43 482.081C1078.1 482.593 1077.64 482.993 1077.04 483.281C1076.45 483.579 1075.77 483.729 1074.99 483.729ZM1072.86 476.881C1072.86 477.286 1072.95 477.654 1073.13 477.985C1073.33 478.315 1073.58 478.577 1073.9 478.769C1074.23 478.961 1074.6 479.057 1075.01 479.057C1075.36 479.057 1075.67 478.998 1075.95 478.881C1076.24 478.763 1076.48 478.598 1076.69 478.385C1076.9 478.171 1077.05 477.921 1077.15 477.633V476.161C1077.05 475.873 1076.9 475.627 1076.69 475.425C1076.48 475.211 1076.24 475.046 1075.95 474.929C1075.67 474.811 1075.36 474.753 1075.01 474.753C1074.6 474.753 1074.23 474.843 1073.9 475.025C1073.58 475.206 1073.33 475.457 1073.13 475.777C1072.95 476.097 1072.86 476.465 1072.86 476.881ZM1080.85 476.897C1080.85 476.214 1081.01 475.601 1081.33 475.057C1081.65 474.502 1082.1 474.07 1082.68 473.761C1083.26 473.441 1083.92 473.281 1084.66 473.281C1085.42 473.281 1086.07 473.441 1086.63 473.761C1087.19 474.07 1087.63 474.502 1087.94 475.057C1088.25 475.601 1088.4 476.214 1088.4 476.897C1088.4 477.579 1088.25 478.198 1087.94 478.753C1087.63 479.297 1087.19 479.729 1086.63 480.049C1086.07 480.369 1085.41 480.529 1084.64 480.529C1083.92 480.529 1083.27 480.385 1082.69 480.097C1082.12 479.798 1081.66 479.377 1081.33 478.833C1081.01 478.289 1080.85 477.643 1080.85 476.897ZM1082.66 476.913C1082.66 477.307 1082.75 477.67 1082.92 478.001C1083.09 478.321 1083.32 478.577 1083.62 478.769C1083.92 478.961 1084.25 479.057 1084.61 479.057C1085.01 479.057 1085.35 478.961 1085.64 478.769C1085.93 478.577 1086.16 478.321 1086.32 478.001C1086.49 477.67 1086.58 477.307 1086.58 476.913C1086.58 476.507 1086.49 476.145 1086.32 475.825C1086.16 475.494 1085.93 475.233 1085.64 475.041C1085.35 474.849 1085.01 474.753 1084.61 474.753C1084.24 474.753 1083.9 474.854 1083.6 475.057C1083.32 475.249 1083.09 475.505 1082.92 475.825C1082.75 476.145 1082.66 476.507 1082.66 476.913ZM1091.9 473.585L1092.06 474.961L1092 474.849C1092.25 474.358 1092.6 473.974 1093.04 473.697C1093.49 473.419 1094 473.281 1094.59 473.281C1094.96 473.281 1095.29 473.339 1095.58 473.457C1095.87 473.574 1096.11 473.739 1096.3 473.953C1096.51 474.166 1096.64 474.433 1096.7 474.753L1096.61 474.785C1096.88 474.326 1097.24 473.963 1097.68 473.697C1098.12 473.419 1098.58 473.281 1099.07 473.281C1099.73 473.281 1100.26 473.473 1100.65 473.857C1101.05 474.23 1101.25 474.715 1101.26 475.313V480.353H1099.49V476.017C1099.48 475.686 1099.41 475.414 1099.28 475.201C1099.15 474.977 1098.91 474.854 1098.56 474.833C1098.17 474.833 1097.84 474.955 1097.57 475.201C1097.29 475.435 1097.07 475.745 1096.91 476.129C1096.76 476.502 1096.69 476.902 1096.69 477.329V480.353H1094.88V476.017C1094.87 475.686 1094.79 475.414 1094.65 475.201C1094.52 474.977 1094.27 474.854 1093.92 474.833C1093.55 474.833 1093.22 474.955 1092.94 475.201C1092.67 475.435 1092.45 475.745 1092.3 476.129C1092.15 476.502 1092.08 476.897 1092.08 477.313V480.353H1090.29V473.585H1091.9ZM1106.57 480.529C1105.93 480.529 1105.35 480.395 1104.83 480.129C1104.32 479.862 1103.91 479.467 1103.61 478.945C1103.31 478.411 1103.16 477.755 1103.16 476.977C1103.16 476.209 1103.32 475.553 1103.63 475.009C1103.95 474.454 1104.36 474.027 1104.88 473.729C1105.4 473.43 1105.96 473.281 1106.57 473.281C1107.22 473.281 1107.75 473.409 1108.14 473.665C1108.55 473.921 1108.86 474.225 1109.08 474.577L1108.99 474.833L1109.16 473.585H1110.81V480.353H1109.02V478.705L1109.2 479.137C1109.15 479.201 1109.07 479.307 1108.94 479.457C1108.81 479.595 1108.64 479.75 1108.41 479.921C1108.19 480.091 1107.92 480.235 1107.61 480.353C1107.31 480.47 1106.97 480.529 1106.57 480.529ZM1107.07 479.057C1107.39 479.057 1107.68 478.998 1107.93 478.881C1108.2 478.763 1108.42 478.598 1108.6 478.385C1108.8 478.171 1108.93 477.915 1109.02 477.617V476.145C1108.93 475.867 1108.8 475.627 1108.6 475.425C1108.41 475.211 1108.18 475.046 1107.9 474.929C1107.63 474.811 1107.33 474.753 1107 474.753C1106.64 474.753 1106.31 474.843 1106 475.025C1105.69 475.206 1105.44 475.457 1105.24 475.777C1105.06 476.097 1104.97 476.465 1104.97 476.881C1104.97 477.286 1105.07 477.654 1105.26 477.985C1105.45 478.315 1105.71 478.577 1106.03 478.769C1106.35 478.961 1106.69 479.057 1107.07 479.057ZM1114.9 473.585L1115.06 475.505L1115 475.233C1115.19 474.827 1115.45 474.481 1115.78 474.193C1116.12 473.894 1116.47 473.67 1116.82 473.521C1117.17 473.361 1117.46 473.281 1117.69 473.281L1117.61 475.073C1117.09 475.03 1116.65 475.126 1116.26 475.361C1115.89 475.585 1115.6 475.883 1115.38 476.257C1115.18 476.63 1115.08 477.025 1115.08 477.441V480.353H1113.29V473.585H1114.9ZM1119.52 480.353V467.873H1121.31V480.353H1119.52ZM1122.99 475.809L1126.08 480.353H1124L1121.81 476.833L1122.99 475.809ZM1120.77 478.321L1120.59 476.593L1124.71 473.425L1125.79 474.385L1120.77 478.321Z" fill="#32439A"/>
</svg>
