<svg width="1332" height="833" viewBox="0 0 1332 833" fill="none" xmlns="http://www.w3.org/2000/svg">
<rect width="476.454" height="832.759" fill="#A04E25"/>
<path d="M28.1831 802.042L34.8079 784.268H38.7231L45.2609 802.042H42.4891L40.8671 797.586H32.5395L30.8927 802.042H28.1831ZM40.0033 795.224L36.7344 786.238L33.4096 795.224H40.0033ZM46.3385 793.155C46.3385 792.235 46.4255 791.369 46.5995 790.557C46.7735 789.741 47.0221 788.991 47.3453 788.308C47.6726 787.62 48.0703 787.005 48.5385 786.462C49.0067 785.915 49.5349 785.453 50.1232 785.076C50.7157 784.695 51.362 784.403 52.0622 784.2C52.7624 783.997 53.506 783.895 54.2932 783.895C55.0846 783.895 55.8282 783.997 56.5243 784.2C57.2245 784.403 57.8687 784.695 58.457 785.076C59.0495 785.453 59.5798 785.915 60.048 786.462C60.5161 787.005 60.9118 787.62 61.235 788.308C61.5623 788.991 61.8129 789.741 61.9869 790.557C62.1609 791.369 62.2479 792.235 62.2479 793.155C62.2479 794.071 62.1609 794.936 61.9869 795.753C61.8129 796.569 61.5623 797.321 61.235 798.009C60.9118 798.692 60.5161 799.307 60.048 799.854C59.5798 800.397 59.0495 800.859 58.457 801.24C57.8687 801.617 57.2245 801.907 56.5243 802.11C55.8241 802.313 55.0804 802.415 54.2932 802.415C53.506 802.415 52.7624 802.313 52.0622 802.11C51.362 801.907 50.7157 801.617 50.1232 801.24C49.5349 800.859 49.0067 800.397 48.5385 799.854C48.0703 799.307 47.6726 798.692 47.3453 798.009C47.0221 797.321 46.7735 796.569 46.5995 795.753C46.4255 794.936 46.3385 794.071 46.3385 793.155ZM48.9487 793.155C48.9487 794.224 49.0709 795.181 49.3153 796.026C49.5598 796.871 49.9119 797.588 50.3718 798.176C50.8317 798.761 51.391 799.21 52.0497 799.525C52.7126 799.836 53.4605 799.991 54.2932 799.991C55.126 799.991 55.8717 799.836 56.5305 799.525C57.1934 799.21 57.7548 798.761 58.2147 798.176C58.6745 797.588 59.0267 796.871 59.2711 796.026C59.5156 795.181 59.6378 794.224 59.6378 793.155C59.6378 792.086 59.5156 791.129 59.2711 790.284C59.0267 789.439 58.6745 788.724 58.2147 788.14C57.7548 787.551 57.1934 787.102 56.5305 786.791C55.8717 786.476 55.126 786.319 54.2932 786.319C53.4605 786.319 52.7126 786.476 52.0497 786.791C51.391 787.102 50.8317 787.551 50.3718 788.14C49.9119 788.724 49.5598 789.439 49.3153 790.284C49.0709 791.129 48.9487 792.086 48.9487 793.155ZM74.6684 802.042V797.835H63.9793V794.205L74.3763 784.268H77.2786V795.411H79.8887V797.835H77.2786V802.042H74.6684ZM74.6684 795.411V787.195L66.0674 795.411H74.6684ZM93.9986 784.268V786.692H84.6021V791.962H93.2529V794.385H84.6021V799.618H94.2472V802.042H81.992V784.268H93.9986ZM95.8292 802.042V799.724C95.8292 799.028 95.9183 798.415 96.0964 797.884C96.2746 797.35 96.517 796.882 96.8236 796.48C97.1301 796.078 97.4865 795.732 97.8925 795.442C98.2985 795.152 98.7273 794.901 99.1789 794.69C99.6305 794.475 100.095 794.288 100.571 794.131C101.047 793.973 101.507 793.828 101.951 793.696L102.783 793.447C103.202 793.319 103.6 793.194 103.977 793.074C104.358 792.954 104.712 792.824 105.039 792.683C105.367 792.542 105.663 792.386 105.928 792.217C106.197 792.043 106.425 791.844 106.612 791.62C106.802 791.396 106.947 791.139 107.047 790.849C107.15 790.559 107.202 790.226 107.202 789.849C107.202 789.364 107.1 788.908 106.897 788.482C106.694 788.055 106.407 787.682 106.034 787.363C105.661 787.04 105.211 786.787 104.685 786.605C104.159 786.418 103.571 786.325 102.92 786.325C102.253 786.325 101.648 786.427 101.105 786.63C100.563 786.828 100.099 787.11 99.7134 787.475C99.3322 787.839 99.038 788.279 98.8309 788.792C98.6237 789.302 98.5202 789.865 98.5202 790.483V790.812H95.91V790.427C95.91 789.428 96.0737 788.527 96.401 787.723C96.7324 786.915 97.2068 786.23 97.8241 785.666C98.4456 785.099 99.1975 784.662 100.08 784.355C100.962 784.048 101.957 783.895 103.063 783.895C104.136 783.895 105.091 784.038 105.928 784.324C106.765 784.606 107.471 785.008 108.047 785.53C108.623 786.048 109.06 786.671 109.358 787.4C109.661 788.125 109.812 788.931 109.812 789.818C109.812 790.501 109.725 791.102 109.551 791.62C109.381 792.138 109.149 792.592 108.855 792.981C108.565 793.366 108.225 793.698 107.836 793.975C107.451 794.249 107.04 794.485 106.605 794.684C106.174 794.878 105.733 795.046 105.282 795.187C104.83 795.328 104.395 795.459 103.977 795.579L102.877 795.896C102.541 795.991 102.197 796.092 101.845 796.2C101.497 796.304 101.159 796.426 100.832 796.567C100.505 796.704 100.196 796.863 99.906 797.045C99.616 797.223 99.3612 797.435 99.1416 797.679C98.9262 797.924 98.7522 798.205 98.6196 798.524C98.4911 798.843 98.4207 799.208 98.4083 799.618H109.756V802.042H95.8292ZM126.628 796.094C126.628 796.716 126.545 797.304 126.379 797.859C126.218 798.41 125.982 798.92 125.671 799.388C125.364 799.856 124.989 800.277 124.546 800.65C124.107 801.023 123.61 801.34 123.054 801.601C122.503 801.862 121.901 802.061 121.246 802.197C120.596 802.338 119.904 802.409 119.17 802.409C118.478 802.409 117.818 802.346 117.188 802.222C116.562 802.102 115.98 801.928 115.442 801.7C114.907 801.472 114.422 801.197 113.987 800.874C113.556 800.55 113.188 800.19 112.881 799.792C112.575 799.39 112.338 798.955 112.173 798.487C112.007 798.019 111.924 797.528 111.924 797.014V796.878H114.534V796.983C114.534 797.252 114.59 797.513 114.702 797.766C114.814 798.019 114.971 798.255 115.174 798.475C115.377 798.69 115.62 798.889 115.901 799.071C116.183 799.249 116.496 799.403 116.84 799.531C117.188 799.66 117.559 799.759 117.952 799.829C118.35 799.9 118.762 799.935 119.189 799.935C119.893 799.935 120.54 799.84 121.128 799.649C121.72 799.459 122.23 799.194 122.657 798.854C123.083 798.514 123.417 798.108 123.657 797.636C123.898 797.163 124.018 796.648 124.018 796.088C124.018 795.558 123.908 795.073 123.688 794.634C123.469 794.195 123.15 793.818 122.731 793.503C122.317 793.188 121.807 792.946 121.203 792.776C120.602 792.602 119.92 792.515 119.158 792.515C118.586 792.515 118.056 792.567 117.567 792.67C117.078 792.774 116.643 792.915 116.262 793.093C115.885 793.271 115.572 793.48 115.324 793.72C115.079 793.961 114.913 794.216 114.826 794.485H112.216V784.268H125.453V786.692H114.826V793.068C115.021 792.687 115.288 792.341 115.628 792.03C115.972 791.715 116.376 791.444 116.84 791.216C117.308 790.988 117.832 790.812 118.412 790.688C118.992 790.563 119.614 790.501 120.277 790.501C121.254 790.501 122.135 790.636 122.918 790.905C123.701 791.175 124.366 791.556 124.913 792.049C125.464 792.538 125.886 793.126 126.18 793.814C126.479 794.501 126.628 795.262 126.628 796.094Z" fill="#FCFDFF"/>
<rect x="517.885" y="433.987" width="386.342" height="398.771" fill="#D0D3CD"/>
<path d="M547.943 784.268H553.791C554.707 784.268 555.566 784.363 556.37 784.554C557.178 784.745 557.92 785.022 558.595 785.387C559.275 785.747 559.881 786.188 560.416 786.71C560.95 787.228 561.402 787.817 561.771 788.475C562.144 789.134 562.427 789.857 562.622 790.644C562.821 791.427 562.92 792.264 562.92 793.155C562.92 794.046 562.821 794.885 562.622 795.672C562.427 796.455 562.144 797.176 561.771 797.835C561.402 798.489 560.95 799.077 560.416 799.6C559.881 800.122 559.275 800.563 558.595 800.923C557.92 801.284 557.178 801.561 556.37 801.756C555.566 801.947 554.707 802.042 553.791 802.042H547.943V784.268ZM553.797 799.618C554.812 799.618 555.722 799.471 556.526 799.177C557.333 798.879 558.017 798.452 558.576 797.897C559.136 797.342 559.565 796.664 559.863 795.865C560.161 795.065 560.31 794.162 560.31 793.155C560.31 792.148 560.161 791.245 559.863 790.445C559.565 789.646 559.136 788.968 558.576 788.413C558.017 787.858 557.333 787.433 556.526 787.139C555.722 786.841 554.812 786.692 553.797 786.692H550.491V799.618H553.797ZM564.653 793.155C564.653 792.235 564.74 791.369 564.914 790.557C565.088 789.741 565.336 788.991 565.66 788.308C565.987 787.62 566.385 787.005 566.853 786.462C567.321 785.915 567.849 785.453 568.437 785.076C569.03 784.695 569.676 784.403 570.376 784.2C571.077 783.997 571.82 783.895 572.607 783.895C573.399 783.895 574.142 783.997 574.839 784.2C575.539 784.403 576.183 784.695 576.771 785.076C577.364 785.453 577.894 785.915 578.362 786.462C578.83 787.005 579.226 787.62 579.549 788.308C579.877 788.991 580.127 789.741 580.301 790.557C580.475 791.369 580.562 792.235 580.562 793.155C580.562 794.071 580.475 794.936 580.301 795.753C580.127 796.569 579.877 797.321 579.549 798.009C579.226 798.692 578.83 799.307 578.362 799.854C577.894 800.397 577.364 800.859 576.771 801.24C576.183 801.617 575.539 801.907 574.839 802.11C574.138 802.313 573.395 802.415 572.607 802.415C571.82 802.415 571.077 802.313 570.376 802.11C569.676 801.907 569.03 801.617 568.437 801.24C567.849 800.859 567.321 800.397 566.853 799.854C566.385 799.307 565.987 798.692 565.66 798.009C565.336 797.321 565.088 796.569 564.914 795.753C564.74 794.936 564.653 794.071 564.653 793.155ZM567.263 793.155C567.263 794.224 567.385 795.181 567.63 796.026C567.874 796.871 568.226 797.588 568.686 798.176C569.146 798.761 569.705 799.21 570.364 799.525C571.027 799.836 571.775 799.991 572.607 799.991C573.44 799.991 574.186 799.836 574.845 799.525C575.508 799.21 576.069 798.761 576.529 798.176C576.989 797.588 577.341 796.871 577.585 796.026C577.83 795.181 577.952 794.224 577.952 793.155C577.952 792.086 577.83 791.129 577.585 790.284C577.341 789.439 576.989 788.724 576.529 788.14C576.069 787.551 575.508 787.102 574.845 786.791C574.186 786.476 573.44 786.319 572.607 786.319C571.775 786.319 571.027 786.476 570.364 786.791C569.705 787.102 569.146 787.551 568.686 788.14C568.226 788.724 567.874 789.439 567.63 790.284C567.385 791.129 567.263 792.086 567.263 793.155ZM582.488 784.268H588.336C589.251 784.268 590.111 784.363 590.915 784.554C591.723 784.745 592.464 785.022 593.14 785.387C593.819 785.747 594.426 786.188 594.96 786.71C595.495 787.228 595.947 787.817 596.315 788.475C596.688 789.134 596.972 789.857 597.167 790.644C597.366 791.427 597.465 792.264 597.465 793.155C597.465 794.046 597.366 794.885 597.167 795.672C596.972 796.455 596.688 797.176 596.315 797.835C595.947 798.489 595.495 799.077 594.96 799.6C594.426 800.122 593.819 800.563 593.14 800.923C592.464 801.284 591.723 801.561 590.915 801.756C590.111 801.947 589.251 802.042 588.336 802.042H582.488V784.268ZM588.342 799.618C589.357 799.618 590.266 799.471 591.07 799.177C591.878 798.879 592.562 798.452 593.121 797.897C593.68 797.342 594.109 796.664 594.407 795.865C594.706 795.065 594.855 794.162 594.855 793.155C594.855 792.148 594.706 791.245 594.407 790.445C594.109 789.646 593.68 788.968 593.121 788.413C592.562 787.858 591.878 787.433 591.07 787.139C590.266 786.841 589.357 786.692 588.342 786.692H585.036V799.618H588.342ZM599.197 789.774C599.197 788.85 599.357 788.024 599.676 787.295C599.999 786.565 600.465 785.95 601.074 785.449C601.683 784.943 602.427 784.558 603.305 784.293C604.184 784.028 605.182 783.895 606.301 783.895C607.357 783.895 608.316 784.013 609.178 784.249C610.044 784.481 610.783 784.813 611.397 785.244C612.01 785.67 612.484 786.186 612.82 786.791C613.155 787.392 613.323 788.063 613.323 788.805C613.323 789.356 613.23 789.865 613.043 790.334C612.861 790.802 612.602 791.214 612.267 791.57C611.935 791.922 611.535 792.21 611.067 792.434C610.603 792.654 610.092 792.792 609.532 792.85C610.261 792.892 610.912 793.018 611.484 793.23C612.059 793.441 612.546 793.729 612.944 794.093C613.346 794.454 613.653 794.885 613.864 795.386C614.075 795.883 614.181 796.442 614.181 797.064C614.181 797.872 614.005 798.605 613.653 799.264C613.3 799.919 612.801 800.48 612.155 800.948C611.508 801.416 610.732 801.779 609.824 802.036C608.917 802.288 607.908 802.415 606.798 802.415C605.625 802.415 604.569 802.272 603.628 801.986C602.688 801.696 601.89 801.284 601.236 800.749C600.581 800.215 600.078 799.564 599.726 798.798C599.373 798.031 599.197 797.17 599.197 796.213V796.181H601.807V796.368C601.807 796.915 601.921 797.412 602.149 797.859C602.377 798.303 602.698 798.684 603.113 799.003C603.531 799.318 604.034 799.562 604.623 799.736C605.211 799.906 605.866 799.991 606.586 799.991C607.307 799.991 607.972 799.906 608.581 799.736C609.19 799.566 609.717 799.332 610.16 799.034C610.603 798.732 610.949 798.373 611.198 797.959C611.446 797.54 611.571 797.087 611.571 796.598C611.571 795.773 611.196 795.162 610.446 794.765C609.696 794.367 608.546 794.168 606.997 794.168H604.753V791.869H606.997C607.568 791.869 608.084 791.808 608.544 791.688C609.004 791.564 609.395 791.39 609.719 791.166C610.042 790.943 610.29 790.673 610.464 790.358C610.643 790.039 610.732 789.683 610.732 789.289C610.732 788.846 610.62 788.442 610.396 788.078C610.176 787.713 609.864 787.4 609.458 787.139C609.056 786.878 608.571 786.677 608.003 786.536C607.44 786.391 606.814 786.319 606.127 786.319C605.431 786.319 604.813 786.396 604.275 786.549C603.74 786.698 603.289 786.92 602.92 787.214C602.555 787.504 602.278 787.864 602.087 788.295C601.901 788.722 601.807 789.213 601.807 789.768V789.805H599.197V789.774ZM618.534 793.155C618.534 794.224 618.664 795.181 618.925 796.026C619.19 796.871 619.571 797.588 620.069 798.176C620.566 798.761 621.171 799.21 621.883 799.525C622.6 799.836 623.408 799.991 624.307 799.991C625.036 799.991 625.697 799.887 626.289 799.68C626.886 799.473 627.41 799.167 627.862 798.761C628.317 798.35 628.696 797.845 628.999 797.244C629.306 796.639 629.535 795.939 629.689 795.144H632.299C632.112 796.279 631.789 797.296 631.329 798.195C630.874 799.094 630.302 799.856 629.614 800.482C628.926 801.108 628.135 801.586 627.24 801.918C626.345 802.249 625.365 802.415 624.301 802.415C623.472 802.415 622.689 802.313 621.952 802.11C621.214 801.907 620.535 801.617 619.913 801.24C619.296 800.859 618.741 800.397 618.248 799.854C617.755 799.307 617.334 798.692 616.986 798.009C616.642 797.321 616.379 796.569 616.197 795.753C616.015 794.936 615.923 794.071 615.923 793.155C615.923 792.235 616.015 791.369 616.197 790.557C616.379 789.741 616.642 788.991 616.986 788.308C617.334 787.62 617.755 787.005 618.248 786.462C618.741 785.915 619.296 785.453 619.913 785.076C620.535 784.695 621.214 784.403 621.952 784.2C622.689 783.997 623.472 783.895 624.301 783.895C625.365 783.895 626.345 784.061 627.24 784.392C628.135 784.724 628.926 785.202 629.614 785.828C630.302 786.454 630.874 787.216 631.329 788.115C631.789 789.014 632.112 790.031 632.299 791.166H629.689C629.535 790.371 629.306 789.673 628.999 789.072C628.696 788.467 628.317 787.962 627.862 787.556C627.41 787.145 626.886 786.837 626.289 786.63C625.697 786.422 625.036 786.319 624.307 786.319C623.408 786.319 622.6 786.476 621.883 786.791C621.171 787.102 620.566 787.551 620.069 788.14C619.571 788.724 619.19 789.439 618.925 790.284C618.664 791.129 618.534 792.086 618.534 793.155ZM634.341 784.268H640.189C641.105 784.268 641.964 784.363 642.768 784.554C643.576 784.745 644.318 785.022 644.993 785.387C645.672 785.747 646.279 786.188 646.814 786.71C647.348 787.228 647.8 787.817 648.169 788.475C648.541 789.134 648.825 789.857 649.02 790.644C649.219 791.427 649.318 792.264 649.318 793.155C649.318 794.046 649.219 794.885 649.02 795.672C648.825 796.455 648.541 797.176 648.169 797.835C647.8 798.489 647.348 799.077 646.814 799.6C646.279 800.122 645.672 800.563 644.993 800.923C644.318 801.284 643.576 801.561 642.768 801.756C641.964 801.947 641.105 802.042 640.189 802.042H634.341V784.268ZM640.195 799.618C641.21 799.618 642.12 799.471 642.923 799.177C643.731 798.879 644.415 798.452 644.974 797.897C645.534 797.342 645.962 796.664 646.261 795.865C646.559 795.065 646.708 794.162 646.708 793.155C646.708 792.148 646.559 791.245 646.261 790.445C645.962 789.646 645.534 788.968 644.974 788.413C644.415 787.858 643.731 787.433 642.923 787.139C642.12 786.841 641.21 786.692 640.195 786.692H636.889V799.618H640.195Z" fill="#262825"/>
<rect x="517.885" width="386.342" height="394.628" fill="#262825"/>
<path d="M547.943 368.054V365.736C547.943 365.04 548.032 364.427 548.21 363.897C548.389 363.362 548.631 362.894 548.938 362.492C549.244 362.09 549.6 361.744 550.006 361.454C550.412 361.164 550.841 360.914 551.293 360.702C551.744 360.487 552.209 360.301 552.685 360.143C553.161 359.986 553.621 359.841 554.065 359.708L554.897 359.46C555.316 359.331 555.714 359.207 556.091 359.087C556.472 358.966 556.826 358.836 557.153 358.695C557.481 358.554 557.777 358.399 558.042 358.229C558.311 358.055 558.539 357.856 558.726 357.632C558.916 357.409 559.061 357.152 559.161 356.862C559.264 356.572 559.316 356.238 559.316 355.861C559.316 355.376 559.214 354.921 559.011 354.494C558.808 354.067 558.52 353.694 558.148 353.375C557.775 353.052 557.325 352.8 556.799 352.617C556.273 352.431 555.685 352.338 555.034 352.338C554.367 352.338 553.762 352.439 553.219 352.642C552.677 352.841 552.213 353.123 551.827 353.487C551.446 353.852 551.152 354.291 550.945 354.805C550.738 355.314 550.634 355.878 550.634 356.495V356.825H548.024V356.439C548.024 355.441 548.188 354.54 548.515 353.736C548.846 352.928 549.321 352.242 549.938 351.679C550.56 351.111 551.312 350.674 552.194 350.368C553.076 350.061 554.071 349.908 555.177 349.908C556.25 349.908 557.205 350.051 558.042 350.336C558.879 350.618 559.585 351.02 560.161 351.542C560.737 352.06 561.174 352.683 561.472 353.413C561.775 354.138 561.926 354.944 561.926 355.83C561.926 356.514 561.839 357.115 561.665 357.632C561.495 358.15 561.263 358.604 560.969 358.993C560.679 359.379 560.339 359.71 559.95 359.988C559.565 360.261 559.154 360.497 558.719 360.696C558.288 360.891 557.847 361.059 557.396 361.2C556.944 361.34 556.509 361.471 556.091 361.591L554.991 361.908C554.655 362.003 554.311 362.105 553.959 362.213C553.611 362.316 553.273 362.438 552.946 362.579C552.619 362.716 552.31 362.875 552.02 363.058C551.73 363.236 551.475 363.447 551.256 363.692C551.04 363.936 550.866 364.218 550.734 364.537C550.605 364.856 550.535 365.22 550.522 365.631H561.87V368.054H547.943ZM571.943 349.908C572.614 349.908 573.248 349.97 573.845 350.094C574.441 350.218 574.99 350.399 575.492 350.635C575.997 350.867 576.449 351.151 576.846 351.486C577.248 351.818 577.588 352.195 577.866 352.617C578.143 353.036 578.357 353.496 578.506 353.997C578.655 354.494 578.729 355.022 578.729 355.582V355.731H576.119V355.606C576.119 355.118 576.018 354.672 575.815 354.27C575.616 353.868 575.334 353.525 574.97 353.239C574.605 352.949 574.168 352.725 573.658 352.567C573.149 352.41 572.585 352.331 571.968 352.331C571.085 352.331 570.3 352.497 569.613 352.829C568.929 353.156 568.353 353.636 567.885 354.27C567.417 354.904 567.06 355.685 566.816 356.613C566.572 357.541 566.449 358.602 566.449 359.795V361.709C566.536 361.038 566.744 360.437 567.071 359.907C567.402 359.377 567.839 358.927 568.382 358.558C568.925 358.186 569.567 357.902 570.309 357.707C571.05 357.508 571.877 357.409 572.788 357.409C573.783 357.409 574.673 357.527 575.461 357.763C576.248 357.999 576.915 358.339 577.462 358.782C578.013 359.225 578.433 359.766 578.723 360.404C579.013 361.042 579.158 361.765 579.158 362.573C579.158 363.456 578.984 364.257 578.636 364.978C578.292 365.699 577.801 366.314 577.163 366.824C576.529 367.333 575.763 367.727 574.864 368.005C573.965 368.282 572.964 368.421 571.862 368.421C570.57 368.421 569.426 368.226 568.432 367.837C567.437 367.447 566.601 366.878 565.921 366.128C565.242 365.378 564.726 364.458 564.374 363.368C564.026 362.275 563.852 361.026 563.852 359.621V359.472C563.852 357.98 564.036 356.644 564.405 355.464C564.778 354.279 565.312 353.276 566.008 352.456C566.704 351.631 567.551 351.001 568.55 350.566C569.553 350.127 570.684 349.908 571.943 349.908ZM572.136 365.997C572.844 365.997 573.472 365.925 574.019 365.78C574.57 365.631 575.032 365.413 575.405 365.127C575.782 364.837 576.065 364.483 576.256 364.065C576.451 363.642 576.548 363.157 576.548 362.61C576.548 362.068 576.453 361.587 576.262 361.169C576.072 360.75 575.792 360.398 575.423 360.112C575.059 359.826 574.609 359.609 574.075 359.46C573.54 359.31 572.927 359.236 572.235 359.236C571.481 359.236 570.785 359.323 570.147 359.497C569.509 359.667 568.958 359.905 568.494 360.211C568.03 360.518 567.667 360.883 567.406 361.305C567.145 361.724 567.015 362.184 567.015 362.685C567.015 363.174 567.139 363.621 567.388 364.027C567.636 364.433 567.986 364.783 568.438 365.078C568.89 365.368 569.428 365.593 570.054 365.755C570.684 365.916 571.378 365.997 572.136 365.997ZM581.08 368.054V365.736C581.08 365.04 581.169 364.427 581.347 363.897C581.525 363.362 581.767 362.894 582.074 362.492C582.381 362.09 582.737 361.744 583.143 361.454C583.549 361.164 583.978 360.914 584.429 360.702C584.881 360.487 585.345 360.301 585.822 360.143C586.298 359.986 586.758 359.841 587.201 359.708L588.034 359.46C588.452 359.331 588.85 359.207 589.227 359.087C589.608 358.966 589.963 358.836 590.29 358.695C590.617 358.554 590.913 358.399 591.179 358.229C591.448 358.055 591.676 357.856 591.862 357.632C592.053 357.409 592.198 357.152 592.297 356.862C592.401 356.572 592.453 356.238 592.453 355.861C592.453 355.376 592.351 354.921 592.148 354.494C591.945 354.067 591.657 353.694 591.284 353.375C590.911 353.052 590.462 352.8 589.936 352.617C589.409 352.431 588.821 352.338 588.171 352.338C587.504 352.338 586.899 352.439 586.356 352.642C585.813 352.841 585.349 353.123 584.964 353.487C584.583 353.852 584.289 354.291 584.081 354.805C583.874 355.314 583.771 355.878 583.771 356.495V356.825H581.161V356.439C581.161 355.441 581.324 354.54 581.651 353.736C581.983 352.928 582.457 352.242 583.075 351.679C583.696 351.111 584.448 350.674 585.331 350.368C586.213 350.061 587.207 349.908 588.314 349.908C589.387 349.908 590.342 350.051 591.179 350.336C592.015 350.618 592.722 351.02 593.298 351.542C593.874 352.06 594.311 352.683 594.609 353.413C594.911 354.138 595.063 354.944 595.063 355.83C595.063 356.514 594.976 357.115 594.802 357.632C594.632 358.15 594.4 358.604 594.106 358.993C593.816 359.379 593.476 359.71 593.086 359.988C592.701 360.261 592.291 360.497 591.856 360.696C591.425 360.891 590.984 361.059 590.532 361.2C590.081 361.34 589.646 361.471 589.227 361.591L588.127 361.908C587.792 362.003 587.448 362.105 587.095 362.213C586.747 362.316 586.41 362.438 586.083 362.579C585.755 362.716 585.447 362.875 585.157 363.058C584.867 363.236 584.612 363.447 584.392 363.692C584.177 363.936 584.003 364.218 583.87 364.537C583.742 364.856 583.671 365.22 583.659 365.631H595.007V368.054H581.08ZM604.645 368.427C603.464 368.427 602.399 368.309 601.45 368.073C600.506 367.837 599.702 367.499 599.039 367.06C598.38 366.621 597.873 366.086 597.516 365.457C597.164 364.827 596.988 364.118 596.988 363.331C596.988 362.73 597.092 362.179 597.299 361.678C597.506 361.173 597.806 360.727 598.2 360.342C598.594 359.957 599.074 359.634 599.642 359.372C600.214 359.111 600.862 358.925 601.587 358.813C600.961 358.714 600.4 358.55 599.903 358.322C599.406 358.09 598.985 357.804 598.641 357.465C598.297 357.125 598.034 356.735 597.852 356.296C597.67 355.853 597.579 355.37 597.579 354.848C597.579 354.119 597.753 353.452 598.101 352.847C598.453 352.238 598.946 351.716 599.58 351.281C600.214 350.846 600.972 350.508 601.854 350.268C602.737 350.028 603.71 349.908 604.775 349.908C605.484 349.908 606.151 349.961 606.776 350.069C607.406 350.177 607.986 350.332 608.516 350.535C609.047 350.738 609.521 350.987 609.939 351.281C610.362 351.571 610.72 351.898 611.015 352.263C611.309 352.628 611.535 353.027 611.692 353.462C611.849 353.893 611.928 354.353 611.928 354.842C611.928 355.368 611.837 355.853 611.655 356.296C611.472 356.74 611.207 357.131 610.859 357.471C610.511 357.811 610.084 358.094 609.579 358.322C609.078 358.55 608.508 358.714 607.87 358.813C608.607 358.917 609.26 359.091 609.828 359.335C610.399 359.576 610.88 359.882 611.269 360.255C611.659 360.624 611.955 361.055 612.158 361.548C612.361 362.041 612.463 362.585 612.463 363.182C612.463 363.99 612.28 364.717 611.916 365.363C611.555 366.01 611.035 366.561 610.356 367.016C609.681 367.468 608.86 367.816 607.895 368.061C606.934 368.305 605.85 368.427 604.645 368.427ZM604.732 357.912C606.227 357.912 607.362 357.67 608.137 357.185C608.916 356.7 609.306 355.994 609.306 355.066C609.306 353.243 607.789 352.331 604.756 352.331C601.707 352.331 600.183 353.247 600.183 355.078C600.183 356.01 600.566 356.717 601.332 357.197C602.103 357.674 603.236 357.912 604.732 357.912ZM604.732 366.003C606.43 366.003 607.708 365.742 608.566 365.22C609.428 364.698 609.859 363.924 609.859 362.896C609.859 361.898 609.44 361.16 608.603 360.684C607.766 360.203 606.476 359.963 604.732 359.963C603.857 359.963 603.097 360.023 602.451 360.143C601.809 360.259 601.276 360.439 600.854 360.684C600.431 360.924 600.116 361.229 599.909 361.597C599.702 361.966 599.598 362.399 599.598 362.896C599.598 363.924 600.029 364.698 600.891 365.22C601.753 365.742 603.033 366.003 604.732 366.003ZM614.386 368.054V365.736C614.386 365.04 614.475 364.427 614.653 363.897C614.832 363.362 615.074 362.894 615.381 362.492C615.687 362.09 616.043 361.744 616.449 361.454C616.855 361.164 617.284 360.914 617.736 360.702C618.187 360.487 618.652 360.301 619.128 360.143C619.604 359.986 620.064 359.841 620.508 359.708L621.34 359.46C621.759 359.331 622.157 359.207 622.534 359.087C622.915 358.966 623.269 358.836 623.596 358.695C623.924 358.554 624.22 358.399 624.485 358.229C624.754 358.055 624.982 357.856 625.169 357.632C625.359 357.409 625.504 357.152 625.604 356.862C625.707 356.572 625.759 356.238 625.759 355.861C625.759 355.376 625.657 354.921 625.454 354.494C625.251 354.067 624.964 353.694 624.591 353.375C624.218 353.052 623.768 352.8 623.242 352.617C622.716 352.431 622.128 352.338 621.477 352.338C620.81 352.338 620.205 352.439 619.662 352.642C619.12 352.841 618.656 353.123 618.27 353.487C617.889 353.852 617.595 354.291 617.388 354.805C617.181 355.314 617.077 355.878 617.077 356.495V356.825H614.467V356.439C614.467 355.441 614.631 354.54 614.958 353.736C615.289 352.928 615.764 352.242 616.381 351.679C617.003 351.111 617.755 350.674 618.637 350.368C619.519 350.061 620.514 349.908 621.62 349.908C622.693 349.908 623.648 350.051 624.485 350.336C625.322 350.618 626.028 351.02 626.604 351.542C627.18 352.06 627.617 352.683 627.915 353.413C628.218 354.138 628.369 354.944 628.369 355.83C628.369 356.514 628.282 357.115 628.108 357.632C627.938 358.15 627.706 358.604 627.412 358.993C627.122 359.379 626.782 359.71 626.393 359.988C626.008 360.261 625.597 360.497 625.162 360.696C624.731 360.891 624.29 361.059 623.839 361.2C623.387 361.34 622.952 361.471 622.534 361.591L621.434 361.908C621.098 362.003 620.754 362.105 620.402 362.213C620.054 362.316 619.716 362.438 619.389 362.579C619.062 362.716 618.753 362.875 618.463 363.058C618.173 363.236 617.918 363.447 617.699 363.692C617.483 363.936 617.309 364.218 617.177 364.537C617.048 364.856 616.978 365.22 616.965 365.631H628.313V368.054H614.386ZM645.185 362.107C645.185 362.728 645.102 363.317 644.936 363.872C644.775 364.423 644.539 364.933 644.228 365.401C643.921 365.869 643.546 366.289 643.103 366.662C642.664 367.035 642.167 367.352 641.611 367.613C641.06 367.874 640.458 368.073 639.803 368.21C639.153 368.351 638.461 368.421 637.727 368.421C637.035 368.421 636.375 368.359 635.745 368.235C635.119 368.114 634.537 367.94 633.999 367.713C633.464 367.485 632.979 367.209 632.544 366.886C632.113 366.563 631.745 366.202 631.438 365.805C631.132 365.403 630.895 364.968 630.73 364.5C630.564 364.031 630.481 363.54 630.481 363.027V362.89H633.091V362.996C633.091 363.265 633.147 363.526 633.259 363.779C633.371 364.031 633.528 364.268 633.731 364.487C633.934 364.703 634.177 364.901 634.458 365.084C634.74 365.262 635.053 365.415 635.397 365.544C635.745 365.672 636.116 365.771 636.509 365.842C636.907 365.912 637.319 365.948 637.746 365.948C638.45 365.948 639.097 365.852 639.685 365.662C640.277 365.471 640.787 365.206 641.214 364.866C641.64 364.526 641.974 364.12 642.214 363.648C642.455 363.176 642.575 362.66 642.575 362.101C642.575 361.57 642.465 361.086 642.245 360.646C642.026 360.207 641.707 359.83 641.288 359.515C640.874 359.201 640.364 358.958 639.76 358.788C639.159 358.614 638.477 358.527 637.715 358.527C637.143 358.527 636.613 358.579 636.124 358.683C635.635 358.786 635.2 358.927 634.819 359.105C634.442 359.283 634.129 359.493 633.881 359.733C633.636 359.973 633.47 360.228 633.383 360.497H630.773V350.281H644.01V352.704H633.383V359.08C633.578 358.699 633.845 358.353 634.185 358.043C634.529 357.728 634.933 357.456 635.397 357.228C635.865 357.001 636.389 356.825 636.969 356.7C637.549 356.576 638.171 356.514 638.834 356.514C639.811 356.514 640.692 356.648 641.475 356.918C642.258 357.187 642.923 357.568 643.47 358.061C644.021 358.55 644.443 359.138 644.737 359.826C645.036 360.514 645.185 361.274 645.185 362.107Z" fill="#FCFDFF"/>
<rect x="945.658" y="433.987" width="386.342" height="398.771" fill="#E3E4E4"/>
<path d="M987.723 784.268V786.692H978.326V791.962H986.977V794.385H978.326V799.618H987.971V802.042H975.716V784.268H987.723ZM989.367 789.774C989.367 788.85 989.526 788.024 989.845 787.295C990.169 786.565 990.635 785.95 991.244 785.449C991.853 784.943 992.596 784.558 993.475 784.293C994.353 784.028 995.352 783.895 996.47 783.895C997.527 783.895 998.486 784.013 999.348 784.249C1000.21 784.481 1000.95 784.813 1001.57 785.244C1002.18 785.67 1002.65 786.186 1002.99 786.791C1003.32 787.392 1003.49 788.063 1003.49 788.805C1003.49 789.356 1003.4 789.865 1003.21 790.334C1003.03 790.802 1002.77 791.214 1002.44 791.57C1002.1 791.922 1001.71 792.21 1001.24 792.434C1000.77 792.654 1000.26 792.792 999.702 792.85C1000.43 792.892 1001.08 793.018 1001.65 793.23C1002.23 793.441 1002.72 793.729 1003.11 794.093C1003.52 794.454 1003.82 794.885 1004.03 795.386C1004.24 795.883 1004.35 796.442 1004.35 797.064C1004.35 797.872 1004.17 798.605 1003.82 799.264C1003.47 799.919 1002.97 800.48 1002.32 800.948C1001.68 801.416 1000.9 801.779 999.994 802.036C999.087 802.288 998.078 802.415 996.967 802.415C995.795 802.415 994.738 802.272 993.798 801.986C992.857 801.696 992.06 801.284 991.405 800.749C990.751 800.215 990.247 799.564 989.895 798.798C989.543 798.031 989.367 797.17 989.367 796.213V796.181H991.977V796.368C991.977 796.915 992.091 797.412 992.319 797.859C992.547 798.303 992.868 798.684 993.282 799.003C993.701 799.318 994.204 799.562 994.792 799.736C995.381 799.906 996.035 799.991 996.756 799.991C997.477 799.991 998.142 799.906 998.751 799.736C999.36 799.566 999.886 799.332 1000.33 799.034C1000.77 798.732 1001.12 798.373 1001.37 797.959C1001.62 797.54 1001.74 797.087 1001.74 796.598C1001.74 795.773 1001.37 795.162 1000.62 794.765C999.866 794.367 998.716 794.168 997.166 794.168H994.923V791.869H997.166C997.738 791.869 998.254 791.808 998.714 791.688C999.174 791.564 999.565 791.39 999.888 791.166C1000.21 790.943 1000.46 790.673 1000.63 790.358C1000.81 790.039 1000.9 789.683 1000.9 789.289C1000.9 788.846 1000.79 788.442 1000.57 788.078C1000.35 787.713 1000.03 787.4 999.627 787.139C999.225 786.878 998.741 786.677 998.173 786.536C997.61 786.391 996.984 786.319 996.296 786.319C995.6 786.319 994.983 786.396 994.444 786.549C993.91 786.698 993.458 786.92 993.09 787.214C992.725 787.504 992.447 787.864 992.257 788.295C992.07 788.722 991.977 789.213 991.977 789.768V789.805H989.367V789.774ZM1018.29 784.268V786.692H1008.89V791.962H1017.54V794.385H1008.89V799.618H1018.53V802.042H1006.28V784.268H1018.29ZM1030.81 802.042V797.835H1020.12V794.205L1030.51 784.268H1033.42V795.411H1036.03V797.835H1033.42V802.042H1030.81ZM1030.81 795.411V787.195L1022.2 795.411H1030.81ZM1050.14 784.268V786.692H1040.74V791.962H1049.39V794.385H1040.74V799.618H1050.38V802.042H1038.13V784.268H1050.14ZM1062.66 802.042V797.835H1051.97V794.205L1062.36 784.268H1065.27V795.411H1067.88V797.835H1065.27V802.042H1062.66ZM1062.66 795.411V787.195L1054.05 795.411H1062.66Z" fill="#262825"/>
<rect x="945.658" width="386.342" height="394.628" fill="#424440"/>
<path d="M986.405 368.054V363.847H975.716V360.218L986.113 350.281H989.015V361.423H991.626V363.847H989.015V368.054H986.405ZM986.405 361.423V353.208L977.804 361.423H986.405ZM993.656 368.054V365.736C993.656 365.04 993.745 364.427 993.923 363.897C994.101 363.362 994.344 362.894 994.65 362.492C994.957 362.09 995.313 361.744 995.719 361.454C996.125 361.164 996.554 360.914 997.006 360.702C997.457 360.487 997.921 360.301 998.398 360.143C998.874 359.986 999.334 359.841 999.777 359.708L1000.61 359.46C1001.03 359.331 1001.43 359.207 1001.8 359.087C1002.18 358.966 1002.54 358.836 1002.87 358.695C1003.19 358.554 1003.49 358.399 1003.75 358.229C1004.02 358.055 1004.25 357.856 1004.44 357.632C1004.63 357.409 1004.77 357.152 1004.87 356.862C1004.98 356.572 1005.03 356.238 1005.03 355.861C1005.03 355.376 1004.93 354.921 1004.72 354.494C1004.52 354.067 1004.23 353.694 1003.86 353.375C1003.49 353.052 1003.04 352.8 1002.51 352.617C1001.99 352.431 1001.4 352.338 1000.75 352.338C1000.08 352.338 999.475 352.439 998.932 352.642C998.389 352.841 997.925 353.123 997.54 353.487C997.159 353.852 996.865 354.291 996.658 354.805C996.451 355.314 996.347 355.878 996.347 356.495V356.825H993.737V356.439C993.737 355.441 993.9 354.54 994.228 353.736C994.559 352.928 995.034 352.242 995.651 351.679C996.272 351.111 997.024 350.674 997.907 350.368C998.789 350.061 999.784 349.908 1000.89 349.908C1001.96 349.908 1002.92 350.051 1003.75 350.336C1004.59 350.618 1005.3 351.02 1005.87 351.542C1006.45 352.06 1006.89 352.683 1007.19 353.413C1007.49 354.138 1007.64 354.944 1007.64 355.83C1007.64 356.514 1007.55 357.115 1007.38 357.632C1007.21 358.15 1006.98 358.604 1006.68 358.993C1006.39 359.379 1006.05 359.71 1005.66 359.988C1005.28 360.261 1004.87 360.497 1004.43 360.696C1004 360.891 1003.56 361.059 1003.11 361.2C1002.66 361.34 1002.22 361.471 1001.8 361.591L1000.7 361.908C1000.37 362.003 1000.02 362.105 999.672 362.213C999.324 362.316 998.986 362.438 998.659 362.579C998.331 362.716 998.023 362.875 997.733 363.058C997.443 363.236 997.188 363.447 996.968 363.692C996.753 363.936 996.579 364.218 996.446 364.537C996.318 364.856 996.248 365.22 996.235 365.631H1007.58V368.054H993.656ZM1019.88 368.054V363.847H1009.19V360.218L1019.59 350.281H1022.49V361.423H1025.1V363.847H1022.49V368.054H1019.88ZM1019.88 361.423V353.208L1011.28 361.423H1019.88ZM1037.89 368.054V363.847H1027.21V360.218L1037.6 350.281H1040.5V361.423H1043.11V363.847H1040.5V368.054H1037.89ZM1037.89 361.423V353.208L1029.29 361.423H1037.89ZM1055.91 368.054V363.847H1045.22V360.218L1055.61 350.281H1058.52V361.423H1061.13V363.847H1058.52V368.054H1055.91ZM1055.91 361.423V353.208L1047.31 361.423H1055.91ZM1062.73 359.167C1062.73 358.248 1062.82 357.382 1062.99 356.57C1063.16 355.754 1063.41 355.004 1063.74 354.32C1064.06 353.632 1064.46 353.017 1064.93 352.474C1065.4 351.927 1065.92 351.465 1066.51 351.088C1067.11 350.707 1067.75 350.415 1068.45 350.212C1069.15 350.009 1069.9 349.908 1070.68 349.908C1071.47 349.908 1072.22 350.009 1072.91 350.212C1073.61 350.415 1074.26 350.707 1074.85 351.088C1075.44 351.465 1075.97 351.927 1076.44 352.474C1076.91 353.017 1077.3 353.632 1077.63 354.32C1077.95 355.004 1078.2 355.754 1078.38 356.57C1078.55 357.382 1078.64 358.248 1078.64 359.167C1078.64 360.083 1078.55 360.949 1078.38 361.765C1078.2 362.581 1077.95 363.333 1077.63 364.021C1077.3 364.705 1076.91 365.32 1076.44 365.867C1075.97 366.41 1075.44 366.871 1074.85 367.253C1074.26 367.63 1073.61 367.92 1072.91 368.123C1072.21 368.326 1071.47 368.427 1070.68 368.427C1069.9 368.427 1069.15 368.326 1068.45 368.123C1067.75 367.92 1067.11 367.63 1066.51 367.253C1065.92 366.871 1065.4 366.41 1064.93 365.867C1064.46 365.32 1064.06 364.705 1063.74 364.021C1063.41 363.333 1063.16 362.581 1062.99 361.765C1062.82 360.949 1062.73 360.083 1062.73 359.167ZM1065.34 359.167C1065.34 360.236 1065.46 361.193 1065.71 362.039C1065.95 362.884 1066.3 363.601 1066.76 364.189C1067.22 364.773 1067.78 365.223 1068.44 365.537C1069.1 365.848 1069.85 366.003 1070.68 366.003C1071.52 366.003 1072.26 365.848 1072.92 365.537C1073.58 365.223 1074.14 364.773 1074.6 364.189C1075.06 363.601 1075.42 362.884 1075.66 362.039C1075.91 361.193 1076.03 360.236 1076.03 359.167C1076.03 358.099 1075.91 357.141 1075.66 356.296C1075.42 355.451 1075.06 354.736 1074.6 354.152C1074.14 353.564 1073.58 353.114 1072.92 352.804C1072.26 352.489 1071.52 352.331 1070.68 352.331C1069.85 352.331 1069.1 352.489 1068.44 352.804C1067.78 353.114 1067.22 353.564 1066.76 354.152C1066.3 354.736 1065.95 355.451 1065.71 356.296C1065.46 357.141 1065.34 358.099 1065.34 359.167Z" fill="#FCFDFF"/>
</svg>
