<svg width="1332" height="657" viewBox="0 0 1332 657" fill="none" xmlns="http://www.w3.org/2000/svg">
<g clip-path="url(#clip0_63_355)">
<rect x="-21" width="1374" height="657" fill="#262825"/>
</g>
<path d="M829.68 32.56H834.984C835.384 32.56 835.763 32.6013 836.12 32.684C836.477 32.7667 836.807 32.8853 837.108 33.04C837.412 33.192 837.685 33.3773 837.928 33.596C838.173 33.812 838.381 34.0573 838.552 34.332C838.723 34.604 838.853 34.9 838.944 35.22C839.037 35.54 839.084 35.8787 839.084 36.236C839.084 36.5933 839.037 36.9333 838.944 37.256C838.853 37.5787 838.721 37.8773 838.548 38.152C838.377 38.4267 838.171 38.6747 837.928 38.896C837.685 39.1147 837.412 39.3027 837.108 39.46C836.804 39.6147 836.473 39.7333 836.116 39.816C835.759 39.8987 835.381 39.94 834.984 39.94H831.36V44H829.68V32.56ZM834.852 38.38C835.241 38.38 835.593 38.3307 835.908 38.232C836.223 38.1307 836.491 37.9867 836.712 37.8C836.933 37.6133 837.104 37.3893 837.224 37.128C837.344 36.864 837.404 36.568 837.404 36.24C837.404 35.9147 837.345 35.6213 837.228 35.36C837.111 35.0987 836.943 34.876 836.724 34.692C836.505 34.508 836.24 34.3667 835.928 34.268C835.619 34.1693 835.271 34.12 834.884 34.12H831.36V38.38H834.852ZM841.901 44H840.281V35.18H841.901V37.996C842.005 37.556 842.153 37.1627 842.345 36.816C842.539 36.4667 842.779 36.1707 843.065 35.928C843.35 35.6853 843.679 35.5 844.053 35.372C844.429 35.244 844.85 35.18 845.317 35.18H845.721V36.724H845.321C844.675 36.724 844.134 36.784 843.697 36.904C843.259 37.0213 842.907 37.2 842.641 37.44C842.377 37.68 842.187 37.9827 842.073 38.348C841.958 38.7107 841.901 39.1373 841.901 39.628V44ZM846.221 39.588C846.221 39.124 846.268 38.6867 846.361 38.276C846.455 37.8653 846.589 37.488 846.765 37.144C846.941 36.8 847.156 36.492 847.409 36.22C847.663 35.9453 847.948 35.7133 848.265 35.524C848.585 35.3347 848.936 35.1907 849.317 35.092C849.699 34.9907 850.104 34.94 850.533 34.94C850.965 34.94 851.371 34.9907 851.749 35.092C852.131 35.1907 852.48 35.3347 852.797 35.524C853.117 35.7133 853.404 35.9453 853.657 36.22C853.911 36.492 854.125 36.8 854.301 37.144C854.477 37.488 854.612 37.8653 854.705 38.276C854.799 38.6867 854.845 39.124 854.845 39.588C854.845 40.052 854.799 40.4893 854.705 40.9C854.612 41.3107 854.477 41.6893 854.301 42.036C854.125 42.38 853.911 42.688 853.657 42.96C853.404 43.232 853.117 43.464 852.797 43.656C852.48 43.8453 852.131 43.9893 851.749 44.088C851.371 44.1893 850.965 44.24 850.533 44.24C850.104 44.24 849.699 44.1893 849.317 44.088C848.936 43.9893 848.585 43.8453 848.265 43.656C847.948 43.464 847.663 43.232 847.409 42.96C847.156 42.688 846.941 42.38 846.765 42.036C846.589 41.6893 846.455 41.3107 846.361 40.9C846.268 40.4893 846.221 40.052 846.221 39.588ZM847.841 39.588C847.841 40.0813 847.903 40.5253 848.025 40.92C848.151 41.312 848.329 41.6467 848.561 41.924C848.796 42.1987 849.08 42.4093 849.413 42.556C849.747 42.7027 850.121 42.776 850.537 42.776C850.953 42.776 851.327 42.7027 851.657 42.556C851.991 42.4093 852.273 42.1987 852.505 41.924C852.737 41.6467 852.915 41.312 853.037 40.92C853.163 40.5253 853.225 40.0813 853.225 39.588C853.225 39.0947 853.163 38.652 853.037 38.26C852.915 37.8653 852.737 37.5307 852.505 37.256C852.273 36.9813 851.991 36.7707 851.657 36.624C851.327 36.4773 850.953 36.404 850.537 36.404C850.121 36.404 849.747 36.4773 849.413 36.624C849.08 36.7707 848.796 36.9813 848.561 37.256C848.329 37.5307 848.151 37.8653 848.025 38.26C847.903 38.652 847.841 39.0947 847.841 39.588ZM857.581 34.16H855.881V32.16H857.581V34.16ZM857.541 43.64C857.541 44.856 857.26 45.7653 856.697 46.368C856.137 46.9707 855.292 47.272 854.161 47.272H853.905V45.808H854.161C854.449 45.808 854.693 45.7707 854.893 45.696C855.091 45.624 855.255 45.528 855.385 45.408C855.516 45.288 855.617 45.1507 855.689 44.996C855.761 44.844 855.815 44.6867 855.849 44.524C855.884 44.364 855.904 44.2067 855.909 44.052C855.917 43.8973 855.921 43.76 855.921 43.64V35.18H857.541V43.64ZM867.012 41.076C866.897 41.5693 866.718 42.012 866.476 42.404C866.233 42.796 865.937 43.128 865.588 43.4C865.241 43.672 864.846 43.88 864.404 44.024C863.961 44.168 863.481 44.24 862.964 44.24C862.532 44.24 862.124 44.1893 861.74 44.088C861.358 43.9867 861.006 43.8413 860.684 43.652C860.364 43.46 860.076 43.228 859.82 42.956C859.566 42.6813 859.35 42.372 859.172 42.028C858.996 41.6813 858.861 41.3027 858.768 40.892C858.674 40.4787 858.628 40.04 858.628 39.576C858.628 39.112 858.674 38.676 858.768 38.268C858.861 37.86 858.994 37.484 859.168 37.14C859.344 36.796 859.557 36.488 859.808 36.216C860.058 35.944 860.342 35.7133 860.66 35.524C860.977 35.3347 861.325 35.1907 861.704 35.092C862.082 34.9907 862.485 34.94 862.912 34.94C863.544 34.94 864.114 35.0493 864.624 35.268C865.133 35.484 865.568 35.792 865.928 36.192C866.288 36.592 866.565 37.076 866.76 37.644C866.954 38.212 867.052 38.848 867.052 39.552C867.052 39.6533 867.049 39.7533 867.043 39.852C867.041 39.9507 867.034 40.06 867.024 40.18H860.28C860.328 40.5827 860.424 40.9453 860.568 41.268C860.714 41.588 860.904 41.86 861.136 42.084C861.37 42.308 861.645 42.48 861.96 42.6C862.274 42.7173 862.622 42.776 863.004 42.776C863.59 42.776 864.081 42.6347 864.476 42.352C864.87 42.0667 865.176 41.6413 865.392 41.076H867.012ZM865.376 38.78C865.322 38.396 865.229 38.0573 865.096 37.764C864.962 37.468 864.792 37.22 864.584 37.02C864.376 36.8173 864.132 36.664 863.852 36.56C863.574 36.456 863.264 36.404 862.92 36.404C862.568 36.404 862.245 36.4587 861.952 36.568C861.658 36.6747 861.4 36.8307 861.176 37.036C860.954 37.2387 860.77 37.488 860.624 37.784C860.477 38.0773 860.373 38.4093 860.312 38.78H865.376ZM869.544 39.588C869.544 40.0813 869.606 40.5253 869.728 40.92C869.854 41.312 870.032 41.6467 870.264 41.924C870.499 42.1987 870.783 42.4093 871.116 42.556C871.45 42.7027 871.824 42.776 872.24 42.776C872.606 42.776 872.928 42.7213 873.208 42.612C873.488 42.5027 873.73 42.3533 873.932 42.164C874.135 41.972 874.299 41.7493 874.424 41.496C874.55 41.24 874.639 40.9667 874.692 40.676H876.312C876.27 41.0093 876.194 41.3293 876.084 41.636C875.975 41.9427 875.835 42.228 875.664 42.492C875.494 42.756 875.292 42.996 875.06 43.212C874.831 43.4253 874.572 43.6093 874.284 43.764C873.996 43.916 873.682 44.0333 873.34 44.116C872.999 44.1987 872.631 44.24 872.236 44.24C871.807 44.24 871.402 44.1893 871.02 44.088C870.639 43.9893 870.288 43.8453 869.968 43.656C869.651 43.464 869.366 43.232 869.112 42.96C868.859 42.688 868.644 42.38 868.468 42.036C868.292 41.6893 868.158 41.3107 868.064 40.9C867.971 40.4893 867.924 40.052 867.924 39.588C867.924 39.124 867.971 38.6867 868.064 38.276C868.158 37.8653 868.292 37.488 868.468 37.144C868.644 36.8 868.859 36.492 869.112 36.22C869.366 35.9453 869.651 35.7133 869.968 35.524C870.288 35.3347 870.639 35.1907 871.02 35.092C871.402 34.9907 871.807 34.94 872.236 34.94C872.631 34.94 872.999 34.9813 873.34 35.064C873.684 35.1467 874 35.2653 874.288 35.42C874.576 35.572 874.835 35.756 875.064 35.972C875.296 36.1853 875.496 36.424 875.664 36.688C875.835 36.952 875.975 37.2373 876.084 37.544C876.194 37.8507 876.27 38.1707 876.312 38.504H874.692C874.639 38.2133 874.55 37.9413 874.424 37.688C874.302 37.432 874.139 37.2093 873.936 37.02C873.734 36.828 873.491 36.6773 873.208 36.568C872.928 36.4587 872.606 36.404 872.24 36.404C871.824 36.404 871.45 36.4773 871.116 36.624C870.783 36.7707 870.499 36.9813 870.264 37.256C870.032 37.5307 869.854 37.8653 869.728 38.26C869.606 38.652 869.544 39.0947 869.544 39.588ZM882.685 43.932C882.01 44.1347 881.402 44.236 880.861 44.236C880.421 44.236 880.032 44.168 879.693 44.032C879.357 43.8987 879.074 43.7 878.845 43.436C878.616 43.1693 878.441 42.84 878.321 42.448C878.204 42.0533 878.145 41.5973 878.145 41.08V36.54H876.945V35.18H878.145V33.148H879.765V35.18H882.685V36.54H879.765V41.084C879.765 41.668 879.874 42.1 880.093 42.38C880.314 42.6573 880.661 42.796 881.133 42.796C881.317 42.796 881.536 42.7747 881.789 42.732C882.045 42.6893 882.344 42.6227 882.685 42.532V43.932ZM885.908 44H883.868V41.84H885.908V44ZM885.908 37.22H883.868V35.06H885.908V37.22ZM829.56 54.28C829.56 53.688 829.619 53.1307 829.736 52.608C829.853 52.0827 830.023 51.6 830.244 51.16C830.468 50.7173 830.739 50.3213 831.056 49.972C831.373 49.62 831.732 49.3227 832.132 49.08C832.532 48.8347 832.969 48.6467 833.444 48.516C833.919 48.3853 834.424 48.32 834.96 48.32C835.496 48.32 836.001 48.3853 836.476 48.516C836.951 48.6467 837.388 48.8347 837.788 49.08C838.188 49.3227 838.547 49.62 838.864 49.972C839.181 50.3213 839.451 50.7173 839.672 51.16C839.896 51.6 840.067 52.0827 840.184 52.608C840.301 53.1307 840.36 53.688 840.36 54.28C840.36 54.8507 840.304 55.3907 840.192 55.9C840.083 56.4093 839.924 56.88 839.716 57.312C839.511 57.744 839.259 58.1347 838.96 58.484C838.661 58.8307 838.324 59.1293 837.948 59.38L840.068 61.696H838.188L836.736 59.968C836.461 60.056 836.176 60.1227 835.88 60.168C835.587 60.216 835.28 60.24 834.96 60.24C834.424 60.24 833.919 60.1747 833.444 60.044C832.969 59.9133 832.532 59.7267 832.132 59.484C831.732 59.2387 831.373 58.9413 831.056 58.592C830.739 58.24 830.468 57.844 830.244 57.404C830.023 56.9613 829.853 56.4773 829.736 55.952C829.619 55.4267 829.56 54.8693 829.56 54.28ZM831.24 54.28C831.24 54.968 831.324 55.584 831.492 56.128C831.663 56.672 831.908 57.1333 832.228 57.512C832.548 57.888 832.937 58.1773 833.396 58.38C833.857 58.58 834.379 58.68 834.96 58.68C835.541 58.68 836.061 58.58 836.52 58.38C836.981 58.1773 837.372 57.888 837.692 57.512C838.012 57.1333 838.256 56.672 838.424 56.128C838.595 55.584 838.68 54.968 838.68 54.28C838.68 53.592 838.595 52.976 838.424 52.432C838.256 51.888 838.012 51.428 837.692 51.052C837.372 50.6733 836.981 50.384 836.52 50.184C836.061 49.9813 835.541 49.88 834.96 49.88C834.379 49.88 833.857 49.9813 833.396 50.184C832.937 50.384 832.548 50.6733 832.228 51.052C831.908 51.428 831.663 51.888 831.492 52.432C831.324 52.976 831.24 53.592 831.24 54.28ZM841.426 54.252C841.426 53.7453 841.519 53.288 841.706 52.88C841.892 52.472 842.159 52.124 842.506 51.836C842.855 51.548 843.276 51.3267 843.77 51.172C844.266 51.0173 844.823 50.94 845.442 50.94C846.095 50.94 846.68 51.028 847.198 51.204C847.715 51.3773 848.154 51.628 848.514 51.956C848.874 52.284 849.15 52.6853 849.342 53.16C849.534 53.632 849.63 54.168 849.63 54.768V60H848.01V57.628C847.903 58.0333 847.74 58.3973 847.522 58.72C847.306 59.0427 847.042 59.3173 846.73 59.544C846.42 59.768 846.067 59.94 845.67 60.06C845.272 60.18 844.842 60.24 844.378 60.24C843.895 60.24 843.456 60.176 843.062 60.048C842.667 59.92 842.328 59.74 842.046 59.508C841.766 59.276 841.548 58.9973 841.394 58.672C841.242 58.344 841.166 57.98 841.166 57.58C841.166 57.1773 841.244 56.8147 841.402 56.492C841.562 56.1693 841.79 55.896 842.086 55.672C842.384 55.4453 842.746 55.272 843.17 55.152C843.596 55.032 844.075 54.972 844.606 54.972H848.01V54.768C848.01 54.4053 847.948 54.0787 847.826 53.788C847.706 53.4947 847.534 53.2467 847.31 53.044C847.086 52.8387 846.814 52.6813 846.494 52.572C846.174 52.4627 845.814 52.408 845.414 52.408C845.006 52.408 844.652 52.452 844.354 52.54C844.058 52.628 843.812 52.7533 843.618 52.916C843.426 53.076 843.282 53.2693 843.186 53.496C843.092 53.7227 843.046 53.9747 843.046 54.252H841.426ZM844.59 56.332C843.99 56.332 843.535 56.4333 843.226 56.636C842.919 56.836 842.766 57.1333 842.766 57.528C842.766 57.736 842.81 57.9213 842.898 58.084C842.988 58.2467 843.12 58.3827 843.294 58.492C843.467 58.6013 843.68 58.6853 843.934 58.744C844.19 58.8 844.483 58.828 844.814 58.828C845.283 58.828 845.712 58.7733 846.102 58.664C846.494 58.552 846.831 58.3973 847.114 58.2C847.396 58 847.616 57.7627 847.774 57.488C847.931 57.2107 848.01 56.9067 848.01 56.576V56.332H844.59ZM852.494 60H850.874V51.18H852.494V53.636C852.598 53.2147 852.742 52.8373 852.926 52.504C853.113 52.1707 853.334 51.888 853.59 51.656C853.846 51.424 854.134 51.2467 854.454 51.124C854.774 51.0013 855.121 50.94 855.494 50.94C855.889 50.94 856.248 51.0093 856.57 51.148C856.896 51.284 857.181 51.4827 857.426 51.744C857.674 52.0053 857.878 52.3253 858.038 52.704C858.201 53.08 858.317 53.5067 858.386 53.984C858.472 53.512 858.605 53.088 858.786 52.712C858.968 52.336 859.189 52.0173 859.45 51.756C859.714 51.492 860.016 51.2907 860.354 51.152C860.693 51.0107 861.061 50.94 861.458 50.94C861.922 50.94 862.337 51.0347 862.702 51.224C863.07 51.4133 863.381 51.6867 863.634 52.044C863.89 52.3987 864.085 52.832 864.218 53.344C864.354 53.8533 864.422 54.428 864.422 55.068V60H862.802V55.068C862.802 54.1827 862.634 53.5173 862.298 53.072C861.965 52.6267 861.46 52.404 860.782 52.404C860.42 52.404 860.094 52.468 859.806 52.596C859.518 52.7213 859.274 52.9053 859.074 53.148C858.874 53.388 858.721 53.684 858.614 54.036C858.51 54.3853 858.458 54.7827 858.458 55.228V60H856.838V55.068C856.838 54.1827 856.67 53.5173 856.334 53.072C856.001 52.6267 855.496 52.404 854.818 52.404C854.456 52.404 854.13 52.468 853.842 52.596C853.554 52.7213 853.31 52.9053 853.11 53.148C852.91 53.388 852.757 53.684 852.65 54.036C852.546 54.3853 852.494 54.7827 852.494 55.228V60ZM865.676 54.252C865.676 53.7453 865.769 53.288 865.956 52.88C866.142 52.472 866.409 52.124 866.756 51.836C867.105 51.548 867.526 51.3267 868.02 51.172C868.516 51.0173 869.073 50.94 869.692 50.94C870.345 50.94 870.93 51.028 871.448 51.204C871.965 51.3773 872.404 51.628 872.764 51.956C873.124 52.284 873.4 52.6853 873.592 53.16C873.784 53.632 873.88 54.168 873.88 54.768V60H872.26V57.628C872.153 58.0333 871.99 58.3973 871.772 58.72C871.556 59.0427 871.292 59.3173 870.98 59.544C870.67 59.768 870.317 59.94 869.92 60.06C869.522 60.18 869.092 60.24 868.628 60.24C868.145 60.24 867.706 60.176 867.312 60.048C866.917 59.92 866.578 59.74 866.296 59.508C866.016 59.276 865.798 58.9973 865.644 58.672C865.492 58.344 865.416 57.98 865.416 57.58C865.416 57.1773 865.494 56.8147 865.652 56.492C865.812 56.1693 866.04 55.896 866.336 55.672C866.634 55.4453 866.996 55.272 867.42 55.152C867.846 55.032 868.325 54.972 868.856 54.972H872.26V54.768C872.26 54.4053 872.198 54.0787 872.076 53.788C871.956 53.4947 871.784 53.2467 871.56 53.044C871.336 52.8387 871.064 52.6813 870.744 52.572C870.424 52.4627 870.064 52.408 869.664 52.408C869.256 52.408 868.902 52.452 868.604 52.54C868.308 52.628 868.062 52.7533 867.868 52.916C867.676 53.076 867.532 53.2693 867.436 53.496C867.342 53.7227 867.296 53.9747 867.296 54.252H865.676ZM868.84 56.332C868.24 56.332 867.785 56.4333 867.476 56.636C867.169 56.836 867.016 57.1333 867.016 57.528C867.016 57.736 867.06 57.9213 867.148 58.084C867.238 58.2467 867.37 58.3827 867.544 58.492C867.717 58.6013 867.93 58.6853 868.184 58.744C868.44 58.8 868.733 58.828 869.064 58.828C869.533 58.828 869.962 58.7733 870.352 58.664C870.744 58.552 871.081 58.3973 871.364 58.2C871.646 58 871.866 57.7627 872.024 57.488C872.181 57.2107 872.26 56.9067 872.26 56.576V56.332H868.84ZM876.744 60H875.124V51.18H876.744V53.996C876.848 53.556 876.996 53.1627 877.188 52.816C877.383 52.4667 877.623 52.1707 877.908 51.928C878.194 51.6853 878.523 51.5 878.896 51.372C879.272 51.244 879.694 51.18 880.16 51.18H880.564V52.724H880.164C879.519 52.724 878.978 52.784 878.54 52.904C878.103 53.0213 877.751 53.2 877.484 53.44C877.22 53.68 877.031 53.9827 876.916 54.348C876.802 54.7107 876.744 55.1373 876.744 55.628V60ZM886.818 54.28C886.818 54.968 886.902 55.584 887.07 56.128C887.241 56.672 887.486 57.1333 887.806 57.512C888.126 57.888 888.515 58.1773 888.974 58.38C889.435 58.58 889.955 58.68 890.534 58.68C891.003 58.68 891.429 58.6133 891.81 58.48C892.194 58.3467 892.531 58.1493 892.822 57.888C893.115 57.624 893.359 57.2987 893.554 56.912C893.751 56.5227 893.899 56.072 893.998 55.56H895.678C895.558 56.2907 895.35 56.9453 895.054 57.524C894.761 58.1027 894.393 58.5933 893.95 58.996C893.507 59.3987 892.998 59.7067 892.422 59.92C891.846 60.1333 891.215 60.24 890.53 60.24C889.997 60.24 889.493 60.1747 889.018 60.044C888.543 59.9133 888.106 59.7267 887.706 59.484C887.309 59.2387 886.951 58.9413 886.634 58.592C886.317 58.24 886.046 57.844 885.822 57.404C885.601 56.9613 885.431 56.4773 885.314 55.952C885.197 55.4267 885.138 54.8693 885.138 54.28C885.138 53.688 885.197 53.1307 885.314 52.608C885.431 52.0827 885.601 51.6 885.822 51.16C886.046 50.7173 886.317 50.3213 886.634 49.972C886.951 49.62 887.309 49.3227 887.706 49.08C888.106 48.8347 888.543 48.6467 889.018 48.516C889.493 48.3853 889.997 48.32 890.53 48.32C891.215 48.32 891.846 48.4267 892.422 48.64C892.998 48.8533 893.507 49.1613 893.95 49.564C894.393 49.9667 894.761 50.4573 895.054 51.036C895.35 51.6147 895.558 52.2693 895.678 53H893.998C893.899 52.488 893.751 52.0387 893.554 51.652C893.359 51.2627 893.115 50.9373 892.822 50.676C892.531 50.412 892.194 50.2133 891.81 50.08C891.429 49.9467 891.003 49.88 890.534 49.88C889.955 49.88 889.435 49.9813 888.974 50.184C888.515 50.384 888.126 50.6733 887.806 51.052C887.486 51.428 887.241 51.888 887.07 52.432C886.902 52.976 886.818 53.592 886.818 54.28ZM896.706 55.588C896.706 55.124 896.752 54.6867 896.846 54.276C896.939 53.8653 897.074 53.488 897.25 53.144C897.426 52.8 897.64 52.492 897.894 52.22C898.147 51.9453 898.432 51.7133 898.75 51.524C899.07 51.3347 899.42 51.1907 899.802 51.092C900.183 50.9907 900.588 50.94 901.018 50.94C901.45 50.94 901.855 50.9907 902.234 51.092C902.615 51.1907 902.964 51.3347 903.282 51.524C903.602 51.7133 903.888 51.9453 904.142 52.22C904.395 52.492 904.61 52.8 904.786 53.144C904.962 53.488 905.096 53.8653 905.19 54.276C905.283 54.6867 905.33 55.124 905.33 55.588C905.33 56.052 905.283 56.4893 905.19 56.9C905.096 57.3107 904.962 57.6893 904.786 58.036C904.61 58.38 904.395 58.688 904.142 58.96C903.888 59.232 903.602 59.464 903.282 59.656C902.964 59.8453 902.615 59.9893 902.234 60.088C901.855 60.1893 901.45 60.24 901.018 60.24C900.588 60.24 900.183 60.1893 899.802 60.088C899.42 59.9893 899.07 59.8453 898.75 59.656C898.432 59.464 898.147 59.232 897.894 58.96C897.64 58.688 897.426 58.38 897.25 58.036C897.074 57.6893 896.939 57.3107 896.846 56.9C896.752 56.4893 896.706 56.052 896.706 55.588ZM898.326 55.588C898.326 56.0813 898.387 56.5253 898.51 56.92C898.635 57.312 898.814 57.6467 899.046 57.924C899.28 58.1987 899.564 58.4093 899.898 58.556C900.231 58.7027 900.606 58.776 901.022 58.776C901.438 58.776 901.811 58.7027 902.142 58.556C902.475 58.4093 902.758 58.1987 902.99 57.924C903.222 57.6467 903.399 57.312 903.522 56.92C903.647 56.5253 903.71 56.0813 903.71 55.588C903.71 55.0947 903.647 54.652 903.522 54.26C903.399 53.8653 903.222 53.5307 902.99 53.256C902.758 52.9813 902.475 52.7707 902.142 52.624C901.811 52.4773 901.438 52.404 901.022 52.404C900.606 52.404 900.231 52.4773 899.898 52.624C899.564 52.7707 899.28 52.9813 899.046 53.256C898.814 53.5307 898.635 53.8653 898.51 54.26C898.387 54.652 898.326 55.0947 898.326 55.588Z" fill="#FCFDFF"/>
<path d="M1022.68 32.56H1026.44C1027.03 32.56 1027.59 32.6213 1028.1 32.744C1028.62 32.8667 1029.1 33.0453 1029.54 33.28C1029.97 33.512 1030.36 33.796 1030.71 34.132C1031.05 34.4653 1031.34 34.844 1031.58 35.268C1031.82 35.692 1032 36.1573 1032.13 36.664C1032.26 37.168 1032.32 37.7067 1032.32 38.28C1032.32 38.8533 1032.26 39.3933 1032.13 39.9C1032 40.404 1031.82 40.868 1031.58 41.292C1031.34 41.7133 1031.05 42.092 1030.71 42.428C1030.36 42.764 1029.97 43.048 1029.54 43.28C1029.1 43.512 1028.62 43.6907 1028.1 43.816C1027.59 43.9387 1027.03 44 1026.44 44H1022.68V32.56ZM1026.45 42.44C1027.1 42.44 1027.69 42.3453 1028.2 42.156C1028.72 41.964 1029.16 41.6893 1029.52 41.332C1029.88 40.9747 1030.16 40.5387 1030.35 40.024C1030.54 39.5093 1030.64 38.928 1030.64 38.28C1030.64 37.632 1030.54 37.0507 1030.35 36.536C1030.16 36.0213 1029.88 35.5853 1029.52 35.228C1029.16 34.8707 1028.72 34.5973 1028.2 34.408C1027.69 34.216 1027.1 34.12 1026.45 34.12H1024.32V42.44H1026.45ZM1041.65 41.076C1041.54 41.5693 1041.36 42.012 1041.12 42.404C1040.87 42.796 1040.58 43.128 1040.23 43.4C1039.88 43.672 1039.49 43.88 1039.04 44.024C1038.6 44.168 1038.12 44.24 1037.6 44.24C1037.17 44.24 1036.76 44.1893 1036.38 44.088C1036 43.9867 1035.65 43.8413 1035.32 43.652C1035 43.46 1034.72 43.228 1034.46 42.956C1034.21 42.6813 1033.99 42.372 1033.81 42.028C1033.64 41.6813 1033.5 41.3027 1033.41 40.892C1033.31 40.4787 1033.27 40.04 1033.27 39.576C1033.27 39.112 1033.31 38.676 1033.41 38.268C1033.5 37.86 1033.63 37.484 1033.81 37.14C1033.98 36.796 1034.2 36.488 1034.45 36.216C1034.7 35.944 1034.98 35.7133 1035.3 35.524C1035.62 35.3347 1035.97 35.1907 1036.34 35.092C1036.72 34.9907 1037.13 34.94 1037.55 34.94C1038.18 34.94 1038.75 35.0493 1039.26 35.268C1039.77 35.484 1040.21 35.792 1040.57 36.192C1040.93 36.592 1041.21 37.076 1041.4 37.644C1041.59 38.212 1041.69 38.848 1041.69 39.552C1041.69 39.6533 1041.69 39.7533 1041.68 39.852C1041.68 39.9507 1041.67 40.06 1041.66 40.18H1034.92C1034.97 40.5827 1035.06 40.9453 1035.21 41.268C1035.35 41.588 1035.54 41.86 1035.78 42.084C1036.01 42.308 1036.29 42.48 1036.6 42.6C1036.91 42.7173 1037.26 42.776 1037.64 42.776C1038.23 42.776 1038.72 42.6347 1039.12 42.352C1039.51 42.0667 1039.82 41.6413 1040.03 41.076H1041.65ZM1040.02 38.78C1039.96 38.396 1039.87 38.0573 1039.74 37.764C1039.6 37.468 1039.43 37.22 1039.22 37.02C1039.02 36.8173 1038.77 36.664 1038.49 36.56C1038.21 36.456 1037.9 36.404 1037.56 36.404C1037.21 36.404 1036.89 36.4587 1036.59 36.568C1036.3 36.6747 1036.04 36.8307 1035.82 37.036C1035.59 37.2387 1035.41 37.488 1035.26 37.784C1035.12 38.0773 1035.01 38.4093 1034.95 38.78H1040.02ZM1046.35 34.94C1046.95 34.94 1047.48 35.008 1047.95 35.144C1048.42 35.28 1048.81 35.4747 1049.13 35.728C1049.46 35.9787 1049.7 36.284 1049.87 36.644C1050.04 37.0013 1050.12 37.4027 1050.12 37.848H1048.54C1048.54 37.6213 1048.49 37.416 1048.39 37.232C1048.3 37.0453 1048.16 36.8867 1047.97 36.756C1047.79 36.6227 1047.56 36.52 1047.29 36.448C1047.02 36.376 1046.7 36.34 1046.35 36.34C1046.03 36.34 1045.74 36.3693 1045.47 36.428C1045.21 36.4867 1044.99 36.5707 1044.8 36.68C1044.61 36.7867 1044.46 36.916 1044.36 37.068C1044.25 37.2173 1044.2 37.384 1044.2 37.568C1044.2 37.7067 1044.23 37.8293 1044.29 37.936C1044.35 38.04 1044.43 38.1307 1044.53 38.208C1044.63 38.2853 1044.75 38.352 1044.89 38.408C1045.02 38.4613 1045.17 38.508 1045.32 38.548C1045.48 38.588 1045.64 38.6227 1045.81 38.652C1045.98 38.6787 1046.14 38.7053 1046.31 38.732L1046.9 38.824C1047.14 38.8613 1047.4 38.9053 1047.67 38.956C1047.94 39.004 1048.21 39.0693 1048.47 39.152C1048.73 39.232 1048.98 39.3347 1049.22 39.46C1049.46 39.5827 1049.67 39.7373 1049.85 39.924C1050.03 40.1107 1050.18 40.3347 1050.29 40.596C1050.39 40.8547 1050.45 41.1627 1050.45 41.52C1050.45 41.9547 1050.36 42.3413 1050.19 42.68C1050.02 43.016 1049.77 43.3 1049.43 43.532C1049.1 43.764 1048.69 43.94 1048.2 44.06C1047.71 44.18 1047.14 44.24 1046.5 44.24C1045.83 44.24 1045.24 44.1747 1044.74 44.044C1044.23 43.9133 1043.81 43.7213 1043.48 43.468C1043.14 43.2147 1042.89 42.904 1042.72 42.536C1042.55 42.1653 1042.47 41.74 1042.47 41.26H1044.05C1044.05 41.7667 1044.25 42.1573 1044.65 42.432C1045.05 42.704 1045.66 42.84 1046.49 42.84C1046.87 42.84 1047.2 42.812 1047.5 42.756C1047.79 42.7 1048.04 42.6173 1048.24 42.508C1048.44 42.3987 1048.6 42.264 1048.71 42.104C1048.81 41.944 1048.87 41.7613 1048.87 41.556C1048.87 41.396 1048.83 41.256 1048.77 41.136C1048.71 41.0133 1048.63 40.908 1048.52 40.82C1048.41 40.7293 1048.28 40.652 1048.13 40.588C1047.98 40.5213 1047.82 40.464 1047.65 40.416C1047.48 40.368 1047.29 40.3267 1047.11 40.292C1046.92 40.2547 1046.73 40.22 1046.54 40.188L1045.95 40.088C1045.73 40.0507 1045.49 40.008 1045.24 39.96C1044.99 39.9093 1044.74 39.8467 1044.49 39.772C1044.24 39.6947 1044.01 39.5987 1043.78 39.484C1043.56 39.3667 1043.36 39.2227 1043.19 39.052C1043.01 38.8813 1042.88 38.6773 1042.77 38.44C1042.67 38.2027 1042.62 37.924 1042.62 37.604C1042.62 37.1987 1042.71 36.832 1042.88 36.504C1043.05 36.176 1043.3 35.896 1043.62 35.664C1043.94 35.432 1044.33 35.2533 1044.79 35.128C1045.25 35.0027 1045.77 34.94 1046.35 34.94ZM1053.11 34.16H1051.41V32.16H1053.11V34.16ZM1053.07 44H1051.45V35.18H1053.07V44ZM1062.78 35.18V42.4C1062.78 42.8853 1062.74 43.3427 1062.64 43.772C1062.55 44.2013 1062.41 44.596 1062.24 44.956C1062.07 45.316 1061.85 45.6387 1061.6 45.924C1061.35 46.212 1061.06 46.456 1060.74 46.656C1060.42 46.856 1060.07 47.008 1059.69 47.112C1059.31 47.2187 1058.91 47.272 1058.48 47.272C1058.11 47.272 1057.76 47.2333 1057.42 47.156C1057.09 47.0813 1056.77 46.9733 1056.48 46.832C1056.19 46.6907 1055.93 46.52 1055.69 46.32C1055.46 46.1227 1055.26 45.9013 1055.09 45.656C1054.92 45.4107 1054.79 45.144 1054.7 44.856C1054.61 44.5707 1054.57 44.272 1054.57 43.96H1056.19C1056.19 44.1387 1056.21 44.3093 1056.27 44.472C1056.32 44.6347 1056.4 44.7867 1056.5 44.928C1056.6 45.072 1056.72 45.2013 1056.86 45.316C1057 45.4333 1057.16 45.532 1057.33 45.612C1057.5 45.6947 1057.68 45.7587 1057.87 45.804C1058.07 45.8493 1058.28 45.872 1058.49 45.872C1058.9 45.872 1059.26 45.7893 1059.59 45.624C1059.92 45.4587 1060.2 45.224 1060.43 44.92C1060.67 44.616 1060.85 44.2507 1060.97 43.824C1061.1 43.3973 1061.16 42.9227 1061.16 42.4V41.008C1061.05 41.44 1060.89 41.8307 1060.68 42.18C1060.47 42.5293 1060.23 42.828 1059.94 43.076C1059.66 43.3213 1059.34 43.5107 1058.99 43.644C1058.63 43.7747 1058.25 43.84 1057.85 43.84C1057.49 43.84 1057.15 43.7907 1056.83 43.692C1056.51 43.5907 1056.22 43.448 1055.94 43.264C1055.67 43.0773 1055.42 42.852 1055.2 42.588C1054.98 42.3213 1054.8 42.024 1054.64 41.696C1054.49 41.3653 1054.37 41.0067 1054.28 40.62C1054.2 40.2307 1054.16 39.82 1054.16 39.388C1054.16 38.956 1054.2 38.5467 1054.28 38.16C1054.37 37.7707 1054.49 37.412 1054.64 37.084C1054.8 36.7533 1054.98 36.456 1055.2 36.192C1055.42 35.928 1055.67 35.704 1055.94 35.52C1056.22 35.3333 1056.51 35.1907 1056.83 35.092C1057.15 34.9907 1057.49 34.94 1057.85 34.94C1058.25 34.94 1058.63 35.0067 1058.99 35.14C1059.34 35.2707 1059.66 35.46 1059.94 35.708C1060.23 35.9533 1060.47 36.2507 1060.68 36.6C1060.89 36.9493 1061.05 37.34 1061.16 37.772V35.18H1062.78ZM1061.16 39.388C1061.16 38.916 1061.1 38.4933 1060.97 38.12C1060.85 37.744 1060.67 37.4267 1060.43 37.168C1060.2 36.9067 1059.91 36.708 1059.56 36.572C1059.22 36.4333 1058.83 36.364 1058.4 36.364C1057.98 36.364 1057.6 36.4293 1057.28 36.56C1056.95 36.6907 1056.68 36.884 1056.45 37.14C1056.23 37.396 1056.07 37.712 1055.95 38.088C1055.84 38.464 1055.78 38.8973 1055.78 39.388C1055.78 39.8787 1055.84 40.312 1055.95 40.688C1056.07 41.064 1056.24 41.38 1056.46 41.636C1056.68 41.892 1056.95 42.0867 1057.28 42.22C1057.61 42.3507 1057.98 42.416 1058.4 42.416C1058.83 42.416 1059.22 42.3467 1059.56 42.208C1059.91 42.0693 1060.2 41.8707 1060.43 41.612C1060.67 41.3507 1060.85 41.0333 1060.97 40.66C1061.1 40.284 1061.16 39.86 1061.16 39.388ZM1065.68 44H1064.06V35.18H1065.68V37.728C1065.79 37.2933 1065.94 36.904 1066.14 36.56C1066.34 36.216 1066.58 35.924 1066.86 35.684C1067.14 35.444 1067.46 35.26 1067.81 35.132C1068.16 35.004 1068.55 34.94 1068.96 34.94C1069.46 34.94 1069.91 35.0347 1070.31 35.224C1070.7 35.4133 1071.04 35.6867 1071.31 36.044C1071.59 36.3987 1071.8 36.832 1071.95 37.344C1072.09 37.8533 1072.17 38.428 1072.17 39.068V44H1070.55V39.068C1070.55 38.1827 1070.36 37.5173 1069.98 37.072C1069.61 36.6267 1069.04 36.404 1068.28 36.404C1067.87 36.404 1067.51 36.468 1067.19 36.596C1066.87 36.7213 1066.59 36.9053 1066.37 37.148C1066.15 37.388 1065.98 37.684 1065.86 38.036C1065.74 38.3853 1065.68 38.7827 1065.68 39.228V44ZM1081.59 41.076C1081.47 41.5693 1081.3 42.012 1081.05 42.404C1080.81 42.796 1080.51 43.128 1080.17 43.4C1079.82 43.672 1079.42 43.88 1078.98 44.024C1078.54 44.168 1078.06 44.24 1077.54 44.24C1077.11 44.24 1076.7 44.1893 1076.32 44.088C1075.94 43.9867 1075.58 43.8413 1075.26 43.652C1074.94 43.46 1074.65 43.228 1074.4 42.956C1074.14 42.6813 1073.93 42.372 1073.75 42.028C1073.57 41.6813 1073.44 41.3027 1073.35 40.892C1073.25 40.4787 1073.21 40.04 1073.21 39.576C1073.21 39.112 1073.25 38.676 1073.35 38.268C1073.44 37.86 1073.57 37.484 1073.75 37.14C1073.92 36.796 1074.13 36.488 1074.39 36.216C1074.64 35.944 1074.92 35.7133 1075.24 35.524C1075.55 35.3347 1075.9 35.1907 1076.28 35.092C1076.66 34.9907 1077.06 34.94 1077.49 34.94C1078.12 34.94 1078.69 35.0493 1079.2 35.268C1079.71 35.484 1080.15 35.792 1080.51 36.192C1080.87 36.592 1081.14 37.076 1081.34 37.644C1081.53 38.212 1081.63 38.848 1081.63 39.552C1081.63 39.6533 1081.63 39.7533 1081.62 39.852C1081.62 39.9507 1081.61 40.06 1081.6 40.18H1074.86C1074.91 40.5827 1075 40.9453 1075.15 41.268C1075.29 41.588 1075.48 41.86 1075.71 42.084C1075.95 42.308 1076.22 42.48 1076.54 42.6C1076.85 42.7173 1077.2 42.776 1077.58 42.776C1078.17 42.776 1078.66 42.6347 1079.05 42.352C1079.45 42.0667 1079.75 41.6413 1079.97 41.076H1081.59ZM1079.95 38.78C1079.9 38.396 1079.81 38.0573 1079.67 37.764C1079.54 37.468 1079.37 37.22 1079.16 37.02C1078.95 36.8173 1078.71 36.664 1078.43 36.56C1078.15 36.456 1077.84 36.404 1077.5 36.404C1077.15 36.404 1076.82 36.4587 1076.53 36.568C1076.24 36.6747 1075.98 36.8307 1075.75 37.036C1075.53 37.2387 1075.35 37.488 1075.2 37.784C1075.05 38.0773 1074.95 38.4093 1074.89 38.78H1079.95ZM1091.13 32.16V44H1089.51V41.28C1089.39 41.7333 1089.23 42.1427 1089.03 42.508C1088.82 42.8733 1088.58 43.184 1088.3 43.44C1088.02 43.696 1087.7 43.8933 1087.35 44.032C1087.01 44.1707 1086.63 44.24 1086.23 44.24C1085.87 44.24 1085.53 44.188 1085.2 44.084C1084.88 43.98 1084.58 43.8307 1084.3 43.636C1084.02 43.4413 1083.77 43.2067 1083.55 42.932C1083.33 42.6547 1083.14 42.344 1082.99 42C1082.83 41.6533 1082.71 41.2773 1082.63 40.872C1082.54 40.4667 1082.5 40.0387 1082.5 39.588C1082.5 39.1373 1082.54 38.7093 1082.63 38.304C1082.71 37.8987 1082.83 37.524 1082.99 37.18C1083.14 36.836 1083.33 36.5267 1083.55 36.252C1083.77 35.9747 1084.02 35.7387 1084.3 35.544C1084.58 35.3493 1084.88 35.2 1085.2 35.096C1085.53 34.992 1085.87 34.94 1086.23 34.94C1086.63 34.94 1087.01 35.0093 1087.35 35.148C1087.7 35.2867 1088.02 35.484 1088.3 35.74C1088.58 35.996 1088.82 36.3067 1089.03 36.672C1089.23 37.0347 1089.39 37.4427 1089.51 37.896V32.16H1091.13ZM1089.51 39.588C1089.51 39.084 1089.44 38.6333 1089.32 38.236C1089.2 37.836 1089.02 37.4973 1088.78 37.22C1088.55 36.9427 1088.26 36.7307 1087.93 36.584C1087.59 36.4373 1087.21 36.364 1086.79 36.364C1086.35 36.364 1085.97 36.4347 1085.64 36.576C1085.31 36.7147 1085.03 36.92 1084.81 37.192C1084.58 37.464 1084.41 37.8013 1084.29 38.204C1084.18 38.604 1084.12 39.0653 1084.12 39.588C1084.12 40.1107 1084.18 40.5733 1084.29 40.976C1084.41 41.376 1084.58 41.7133 1084.81 41.988C1085.03 42.26 1085.31 42.4667 1085.64 42.608C1085.97 42.7467 1086.35 42.816 1086.79 42.816C1087.21 42.816 1087.59 42.7427 1087.93 42.596C1088.26 42.4467 1088.55 42.2333 1088.78 41.956C1089.02 41.6787 1089.2 41.3413 1089.32 40.944C1089.44 40.544 1089.51 40.092 1089.51 39.588ZM1097.62 37.896C1097.73 37.4427 1097.89 37.0347 1098.1 36.672C1098.3 36.3067 1098.55 35.996 1098.83 35.74C1099.11 35.484 1099.42 35.2867 1099.77 35.148C1100.12 35.0093 1100.49 34.94 1100.89 34.94C1101.25 34.94 1101.6 34.992 1101.92 35.096C1102.25 35.2 1102.55 35.3493 1102.82 35.544C1103.1 35.7387 1103.35 35.9747 1103.57 36.252C1103.8 36.5267 1103.98 36.836 1104.14 37.18C1104.29 37.524 1104.41 37.8987 1104.5 38.304C1104.58 38.7093 1104.62 39.1373 1104.62 39.588C1104.62 40.0387 1104.58 40.4667 1104.5 40.872C1104.41 41.2773 1104.29 41.6533 1104.14 42C1103.98 42.344 1103.8 42.6547 1103.57 42.932C1103.35 43.2067 1103.1 43.4413 1102.82 43.636C1102.55 43.8307 1102.25 43.98 1101.92 44.084C1101.6 44.188 1101.25 44.24 1100.89 44.24C1100.49 44.24 1100.12 44.1707 1099.77 44.032C1099.42 43.8933 1099.11 43.696 1098.83 43.44C1098.55 43.184 1098.3 42.8733 1098.1 42.508C1097.89 42.1427 1097.73 41.7333 1097.62 41.28V44H1096V32.16H1097.62V37.896ZM1097.62 39.588C1097.62 40.092 1097.68 40.544 1097.8 40.944C1097.93 41.3413 1098.11 41.6787 1098.34 41.956C1098.58 42.2333 1098.86 42.4467 1099.2 42.596C1099.54 42.7427 1099.92 42.816 1100.34 42.816C1100.77 42.816 1101.15 42.7467 1101.48 42.608C1101.82 42.4667 1102.1 42.26 1102.32 41.988C1102.54 41.7133 1102.71 41.376 1102.83 40.976C1102.94 40.5733 1103 40.1107 1103 39.588C1103 39.0653 1102.94 38.604 1102.83 38.204C1102.71 37.8013 1102.54 37.464 1102.32 37.192C1102.1 36.92 1101.82 36.7147 1101.48 36.576C1101.15 36.4347 1100.77 36.364 1100.34 36.364C1099.92 36.364 1099.54 36.4373 1099.2 36.584C1098.86 36.7307 1098.58 36.9427 1098.34 37.22C1098.11 37.4973 1097.93 37.836 1097.8 38.236C1097.68 38.6333 1097.62 39.084 1097.62 39.588ZM1113.61 35.18L1109.96 44.556C1109.78 45.0253 1109.56 45.4307 1109.32 45.772C1109.08 46.1133 1108.8 46.3947 1108.48 46.616C1108.16 46.84 1107.81 47.0053 1107.42 47.112C1107.03 47.2187 1106.6 47.272 1106.12 47.272C1105.99 47.272 1105.86 47.268 1105.74 47.26C1105.62 47.252 1105.5 47.2413 1105.38 47.228V45.812C1105.52 45.8307 1105.65 45.844 1105.77 45.852C1105.9 45.86 1106.01 45.864 1106.13 45.864C1106.66 45.864 1107.09 45.76 1107.43 45.552C1107.77 45.344 1108.02 45.012 1108.19 44.556L1108.3 44.26L1104.8 35.18H1106.48L1109.21 42.524L1111.97 35.18H1113.61ZM1027.14 48.32C1027.82 48.32 1028.44 48.4053 1028.99 48.576C1029.55 48.7467 1030.02 48.9907 1030.41 49.308C1030.81 49.6253 1031.11 50.012 1031.32 50.468C1031.54 50.924 1031.64 51.4373 1031.64 52.008H1030C1030 51.6747 1029.93 51.3747 1029.79 51.108C1029.65 50.8413 1029.46 50.6147 1029.2 50.428C1028.95 50.2387 1028.65 50.0933 1028.29 49.992C1027.94 49.8907 1027.55 49.84 1027.12 49.84C1026.89 49.84 1026.65 49.8573 1026.41 49.892C1026.17 49.924 1025.95 49.9747 1025.73 50.044C1025.51 50.1107 1025.31 50.196 1025.12 50.3C1024.94 50.404 1024.78 50.5267 1024.64 50.668C1024.5 50.8093 1024.4 50.9707 1024.32 51.152C1024.24 51.3307 1024.2 51.5293 1024.2 51.748C1024.2 52.036 1024.27 52.2693 1024.41 52.448C1024.55 52.6267 1024.74 52.7733 1025 52.888C1025.26 53 1025.57 53.0907 1025.93 53.16C1026.3 53.2293 1026.71 53.2987 1027.16 53.368L1027.75 53.456C1027.99 53.4933 1028.24 53.5333 1028.49 53.576C1028.75 53.616 1029 53.6653 1029.24 53.724C1029.49 53.78 1029.73 53.8493 1029.97 53.932C1030.2 54.012 1030.42 54.108 1030.63 54.22C1030.84 54.332 1031.03 54.4653 1031.21 54.62C1031.38 54.772 1031.53 54.9493 1031.66 55.152C1031.79 55.352 1031.88 55.5813 1031.95 55.84C1032.02 56.096 1032.06 56.3867 1032.06 56.712C1032.06 57.1067 1032.01 57.4693 1031.9 57.8C1031.79 58.128 1031.64 58.4227 1031.44 58.684C1031.24 58.9453 1031 59.1733 1030.72 59.368C1030.44 59.5627 1030.12 59.7253 1029.76 59.856C1029.41 59.984 1029.02 60.08 1028.6 60.144C1028.19 60.208 1027.74 60.24 1027.28 60.24C1026.51 60.24 1025.82 60.156 1025.21 59.988C1024.6 59.8173 1024.09 59.5707 1023.66 59.248C1023.24 58.9227 1022.92 58.5253 1022.7 58.056C1022.47 57.584 1022.36 57.048 1022.36 56.448H1024C1024 56.8027 1024.08 57.1213 1024.23 57.404C1024.38 57.684 1024.6 57.9227 1024.88 58.12C1025.16 58.3147 1025.5 58.464 1025.9 58.568C1026.3 58.6693 1026.75 58.72 1027.25 58.72C1027.54 58.72 1027.81 58.7027 1028.08 58.668C1028.35 58.6333 1028.6 58.58 1028.84 58.508C1029.07 58.4333 1029.28 58.3413 1029.48 58.232C1029.67 58.12 1029.84 57.9893 1029.98 57.84C1030.11 57.688 1030.22 57.516 1030.3 57.324C1030.38 57.132 1030.42 56.9173 1030.42 56.68C1030.42 56.4693 1030.38 56.2867 1030.32 56.132C1030.26 55.9773 1030.17 55.844 1030.05 55.732C1029.93 55.6173 1029.79 55.5213 1029.63 55.444C1029.46 55.3667 1029.28 55.3013 1029.07 55.248C1028.86 55.192 1028.63 55.144 1028.39 55.104C1028.15 55.0613 1027.89 55.0187 1027.62 54.976L1026.88 54.864C1026.55 54.8133 1026.22 54.76 1025.88 54.704C1025.53 54.6453 1025.2 54.5693 1024.88 54.476C1024.57 54.3827 1024.27 54.2667 1023.98 54.128C1023.7 53.9893 1023.45 53.8147 1023.24 53.604C1023.03 53.3907 1022.87 53.136 1022.74 52.84C1022.62 52.5413 1022.56 52.1893 1022.56 51.784C1022.56 51.4027 1022.61 51.052 1022.72 50.732C1022.84 50.412 1022.99 50.124 1023.19 49.868C1023.39 49.612 1023.63 49.388 1023.91 49.196C1024.19 49.0013 1024.5 48.84 1024.84 48.712C1025.18 48.5813 1025.54 48.484 1025.93 48.42C1026.32 48.3533 1026.72 48.32 1027.14 48.32ZM1033.16 54.252C1033.16 53.7453 1033.25 53.288 1033.44 52.88C1033.63 52.472 1033.89 52.124 1034.24 51.836C1034.59 51.548 1035.01 51.3267 1035.5 51.172C1036 51.0173 1036.56 50.94 1037.18 50.94C1037.83 50.94 1038.41 51.028 1038.93 51.204C1039.45 51.3773 1039.89 51.628 1040.25 51.956C1040.61 52.284 1040.88 52.6853 1041.08 53.16C1041.27 53.632 1041.36 54.168 1041.36 54.768V60H1039.74V57.628C1039.64 58.0333 1039.47 58.3973 1039.26 58.72C1039.04 59.0427 1038.78 59.3173 1038.46 59.544C1038.15 59.768 1037.8 59.94 1037.4 60.06C1037.01 60.18 1036.58 60.24 1036.11 60.24C1035.63 60.24 1035.19 60.176 1034.8 60.048C1034.4 59.92 1034.06 59.74 1033.78 59.508C1033.5 59.276 1033.28 58.9973 1033.13 58.672C1032.98 58.344 1032.9 57.98 1032.9 57.58C1032.9 57.1773 1032.98 56.8147 1033.14 56.492C1033.3 56.1693 1033.52 55.896 1033.82 55.672C1034.12 55.4453 1034.48 55.272 1034.9 55.152C1035.33 55.032 1035.81 54.972 1036.34 54.972H1039.74V54.768C1039.74 54.4053 1039.68 54.0787 1039.56 53.788C1039.44 53.4947 1039.27 53.2467 1039.04 53.044C1038.82 52.8387 1038.55 52.6813 1038.23 52.572C1037.91 52.4627 1037.55 52.408 1037.15 52.408C1036.74 52.408 1036.39 52.452 1036.09 52.54C1035.79 52.628 1035.55 52.7533 1035.35 52.916C1035.16 53.076 1035.02 53.2693 1034.92 53.496C1034.83 53.7227 1034.78 53.9747 1034.78 54.252H1033.16ZM1036.32 56.332C1035.72 56.332 1035.27 56.4333 1034.96 56.636C1034.65 56.836 1034.5 57.1333 1034.5 57.528C1034.5 57.736 1034.54 57.9213 1034.63 58.084C1034.72 58.2467 1034.85 58.3827 1035.03 58.492C1035.2 58.6013 1035.41 58.6853 1035.67 58.744C1035.92 58.8 1036.22 58.828 1036.55 58.828C1037.02 58.828 1037.45 58.7733 1037.84 58.664C1038.23 58.552 1038.57 58.3973 1038.85 58.2C1039.13 58 1039.35 57.7627 1039.51 57.488C1039.67 57.2107 1039.74 56.9067 1039.74 56.576V56.332H1036.32ZM1044.23 60H1042.61V51.18H1044.23V53.996C1044.33 53.556 1044.48 53.1627 1044.67 52.816C1044.87 52.4667 1045.11 52.1707 1045.39 51.928C1045.68 51.6853 1046.01 51.5 1046.38 51.372C1046.76 51.244 1047.18 51.18 1047.64 51.18H1048.05V52.724H1047.65C1047 52.724 1046.46 52.784 1046.02 52.904C1045.59 53.0213 1045.24 53.2 1044.97 53.44C1044.7 53.68 1044.52 53.9827 1044.4 54.348C1044.29 54.7107 1044.23 55.1373 1044.23 55.628V60ZM1048.77 54.252C1048.77 53.7453 1048.86 53.288 1049.05 52.88C1049.24 52.472 1049.5 52.124 1049.85 51.836C1050.2 51.548 1050.62 51.3267 1051.11 51.172C1051.61 51.0173 1052.17 50.94 1052.79 50.94C1053.44 50.94 1054.02 51.028 1054.54 51.204C1055.06 51.3773 1055.5 51.628 1055.86 51.956C1056.22 52.284 1056.49 52.6853 1056.69 53.16C1056.88 53.632 1056.97 54.168 1056.97 54.768V60H1055.35V57.628C1055.25 58.0333 1055.08 58.3973 1054.87 58.72C1054.65 59.0427 1054.39 59.3173 1054.07 59.544C1053.76 59.768 1053.41 59.94 1053.01 60.06C1052.62 60.18 1052.19 60.24 1051.72 60.24C1051.24 60.24 1050.8 60.176 1050.41 60.048C1050.01 59.92 1049.67 59.74 1049.39 59.508C1049.11 59.276 1048.89 58.9973 1048.74 58.672C1048.59 58.344 1048.51 57.98 1048.51 57.58C1048.51 57.1773 1048.59 56.8147 1048.75 56.492C1048.91 56.1693 1049.13 55.896 1049.43 55.672C1049.73 55.4453 1050.09 55.272 1050.51 55.152C1050.94 55.032 1051.42 54.972 1051.95 54.972H1055.35V54.768C1055.35 54.4053 1055.29 54.0787 1055.17 53.788C1055.05 53.4947 1054.88 53.2467 1054.65 53.044C1054.43 52.8387 1054.16 52.6813 1053.84 52.572C1053.52 52.4627 1053.16 52.408 1052.76 52.408C1052.35 52.408 1052 52.452 1051.7 52.54C1051.4 52.628 1051.16 52.7533 1050.96 52.916C1050.77 53.076 1050.63 53.2693 1050.53 53.496C1050.44 53.7227 1050.39 53.9747 1050.39 54.252H1048.77ZM1051.93 56.332C1051.33 56.332 1050.88 56.4333 1050.57 56.636C1050.26 56.836 1050.11 57.1333 1050.11 57.528C1050.11 57.736 1050.15 57.9213 1050.24 58.084C1050.33 58.2467 1050.46 58.3827 1050.64 58.492C1050.81 58.6013 1051.02 58.6853 1051.28 58.744C1051.53 58.8 1051.83 58.828 1052.16 58.828C1052.63 58.828 1053.06 58.7733 1053.45 58.664C1053.84 58.552 1054.17 58.3973 1054.46 58.2C1054.74 58 1054.96 57.7627 1055.12 57.488C1055.27 57.2107 1055.35 56.9067 1055.35 56.576V56.332H1051.93ZM1059.84 60H1058.22V48.16H1059.84V53.728C1059.94 53.2933 1060.1 52.904 1060.3 52.56C1060.5 52.216 1060.74 51.924 1061.02 51.684C1061.3 51.444 1061.61 51.26 1061.97 51.132C1062.32 51.004 1062.7 50.94 1063.11 50.94C1063.62 50.94 1064.06 51.0347 1064.46 51.224C1064.86 51.4133 1065.2 51.6867 1065.47 52.044C1065.75 52.3987 1065.96 52.832 1066.1 53.344C1066.25 53.8533 1066.32 54.428 1066.32 55.068V60H1064.7V55.068C1064.7 54.1827 1064.51 53.5173 1064.14 53.072C1063.76 52.6267 1063.2 52.404 1062.44 52.404C1062.03 52.404 1061.66 52.468 1061.34 52.596C1061.02 52.7213 1060.75 52.9053 1060.53 53.148C1060.3 53.388 1060.13 53.684 1060.01 54.036C1059.9 54.3853 1059.84 54.7827 1059.84 55.228V60ZM1078.92 48.56V50.12H1072.88V53.512H1078.44V55.072H1072.88V58.44H1079.08V60H1071.2V48.56H1078.92ZM1088.36 48.16V60H1086.74V57.28C1086.63 57.7333 1086.47 58.1427 1086.26 58.508C1086.06 58.8733 1085.81 59.184 1085.53 59.44C1085.25 59.696 1084.94 59.8933 1084.59 60.032C1084.24 60.1707 1083.87 60.24 1083.47 60.24C1083.11 60.24 1082.76 60.188 1082.44 60.084C1082.11 59.98 1081.81 59.8307 1081.53 59.636C1081.26 59.4413 1081.01 59.2067 1080.78 58.932C1080.56 58.6547 1080.38 58.344 1080.22 58C1080.07 57.6533 1079.95 57.2773 1079.86 56.872C1079.78 56.4667 1079.74 56.0387 1079.74 55.588C1079.74 55.1373 1079.78 54.7093 1079.86 54.304C1079.95 53.8987 1080.07 53.524 1080.22 53.18C1080.38 52.836 1080.56 52.5267 1080.78 52.252C1081.01 51.9747 1081.26 51.7387 1081.53 51.544C1081.81 51.3493 1082.11 51.2 1082.44 51.096C1082.76 50.992 1083.11 50.94 1083.47 50.94C1083.87 50.94 1084.24 51.0093 1084.59 51.148C1084.94 51.2867 1085.25 51.484 1085.53 51.74C1085.81 51.996 1086.06 52.3067 1086.26 52.672C1086.47 53.0347 1086.63 53.4427 1086.74 53.896V48.16H1088.36ZM1086.74 55.588C1086.74 55.084 1086.68 54.6333 1086.55 54.236C1086.43 53.836 1086.25 53.4973 1086.02 53.22C1085.78 52.9427 1085.5 52.7307 1085.16 52.584C1084.82 52.4373 1084.44 52.364 1084.02 52.364C1083.59 52.364 1083.21 52.4347 1082.87 52.576C1082.54 52.7147 1082.26 52.92 1082.04 53.192C1081.82 53.464 1081.65 53.8013 1081.53 54.204C1081.41 54.604 1081.36 55.0653 1081.36 55.588C1081.36 56.1107 1081.41 56.5733 1081.53 56.976C1081.65 57.376 1081.82 57.7133 1082.04 57.988C1082.26 58.26 1082.54 58.4667 1082.87 58.608C1083.21 58.7467 1083.59 58.816 1084.02 58.816C1084.44 58.816 1084.82 58.7427 1085.16 58.596C1085.5 58.4467 1085.78 58.2333 1086.02 57.956C1086.25 57.6787 1086.43 57.3413 1086.55 56.944C1086.68 56.544 1086.74 56.092 1086.74 55.588ZM1098.06 48.16V60H1096.44V57.28C1096.33 57.7333 1096.17 58.1427 1095.96 58.508C1095.76 58.8733 1095.52 59.184 1095.24 59.44C1094.96 59.696 1094.64 59.8933 1094.29 60.032C1093.95 60.1707 1093.57 60.24 1093.17 60.24C1092.81 60.24 1092.47 60.188 1092.14 60.084C1091.81 59.98 1091.51 59.8307 1091.24 59.636C1090.96 59.4413 1090.71 59.2067 1090.49 58.932C1090.27 58.6547 1090.08 58.344 1089.92 58C1089.77 57.6533 1089.65 57.2773 1089.56 56.872C1089.48 56.4667 1089.44 56.0387 1089.44 55.588C1089.44 55.1373 1089.48 54.7093 1089.56 54.304C1089.65 53.8987 1089.77 53.524 1089.92 53.18C1090.08 52.836 1090.27 52.5267 1090.49 52.252C1090.71 51.9747 1090.96 51.7387 1091.24 51.544C1091.51 51.3493 1091.81 51.2 1092.14 51.096C1092.47 50.992 1092.81 50.94 1093.17 50.94C1093.57 50.94 1093.95 51.0093 1094.29 51.148C1094.64 51.2867 1094.96 51.484 1095.24 51.74C1095.52 51.996 1095.76 52.3067 1095.96 52.672C1096.17 53.0347 1096.33 53.4427 1096.44 53.896V48.16H1098.06ZM1096.44 55.588C1096.44 55.084 1096.38 54.6333 1096.26 54.236C1096.13 53.836 1095.95 53.4973 1095.72 53.22C1095.49 52.9427 1095.2 52.7307 1094.86 52.584C1094.53 52.4373 1094.15 52.364 1093.72 52.364C1093.29 52.364 1092.91 52.4347 1092.58 52.576C1092.25 52.7147 1091.97 52.92 1091.74 53.192C1091.52 53.464 1091.35 53.8013 1091.23 54.204C1091.12 54.604 1091.06 55.0653 1091.06 55.588C1091.06 56.1107 1091.12 56.5733 1091.23 56.976C1091.35 57.376 1091.52 57.7133 1091.74 57.988C1091.97 58.26 1092.25 58.4667 1092.58 58.608C1092.91 58.7467 1093.29 58.816 1093.72 58.816C1094.15 58.816 1094.53 58.7427 1094.86 58.596C1095.2 58.4467 1095.49 58.2333 1095.72 57.956C1095.95 57.6787 1096.13 57.3413 1096.26 56.944C1096.38 56.544 1096.44 56.092 1096.44 55.588ZM1107.53 57.076C1107.41 57.5693 1107.23 58.012 1106.99 58.404C1106.75 58.796 1106.45 59.128 1106.1 59.4C1105.76 59.672 1105.36 59.88 1104.92 60.024C1104.48 60.168 1104 60.24 1103.48 60.24C1103.05 60.24 1102.64 60.1893 1102.26 60.088C1101.87 59.9867 1101.52 59.8413 1101.2 59.652C1100.88 59.46 1100.59 59.228 1100.34 58.956C1100.08 58.6813 1099.87 58.372 1099.69 58.028C1099.51 57.6813 1099.38 57.3027 1099.28 56.892C1099.19 56.4787 1099.14 56.04 1099.14 55.576C1099.14 55.112 1099.19 54.676 1099.28 54.268C1099.38 53.86 1099.51 53.484 1099.68 53.14C1099.86 52.796 1100.07 52.488 1100.32 52.216C1100.57 51.944 1100.86 51.7133 1101.18 51.524C1101.49 51.3347 1101.84 51.1907 1102.22 51.092C1102.6 50.9907 1103 50.94 1103.43 50.94C1104.06 50.94 1104.63 51.0493 1105.14 51.268C1105.65 51.484 1106.08 51.792 1106.44 52.192C1106.8 52.592 1107.08 53.076 1107.28 53.644C1107.47 54.212 1107.57 54.848 1107.57 55.552C1107.57 55.6533 1107.56 55.7533 1107.56 55.852C1107.56 55.9507 1107.55 56.06 1107.54 56.18H1100.8C1100.84 56.5827 1100.94 56.9453 1101.08 57.268C1101.23 57.588 1101.42 57.86 1101.65 58.084C1101.89 58.308 1102.16 58.48 1102.48 58.6C1102.79 58.7173 1103.14 58.776 1103.52 58.776C1104.11 58.776 1104.6 58.6347 1104.99 58.352C1105.39 58.0667 1105.69 57.6413 1105.91 57.076H1107.53ZM1105.89 54.78C1105.84 54.396 1105.74 54.0573 1105.61 53.764C1105.48 53.468 1105.31 53.22 1105.1 53.02C1104.89 52.8173 1104.65 52.664 1104.37 52.56C1104.09 52.456 1103.78 52.404 1103.44 52.404C1103.08 52.404 1102.76 52.4587 1102.47 52.568C1102.17 52.6747 1101.92 52.8307 1101.69 53.036C1101.47 53.2387 1101.29 53.488 1101.14 53.784C1100.99 54.0773 1100.89 54.4093 1100.83 54.78H1105.89ZM1110.26 53.896C1110.37 53.4427 1110.53 53.0347 1110.74 52.672C1110.95 52.3067 1111.19 51.996 1111.47 51.74C1111.75 51.484 1112.06 51.2867 1112.41 51.148C1112.76 51.0093 1113.13 50.94 1113.53 50.94C1113.89 50.94 1114.24 50.992 1114.56 51.096C1114.89 51.2 1115.19 51.3493 1115.46 51.544C1115.74 51.7387 1115.99 51.9747 1116.21 52.252C1116.44 52.5267 1116.63 52.836 1116.78 53.18C1116.93 53.524 1117.05 53.8987 1117.14 54.304C1117.22 54.7093 1117.26 55.1373 1117.26 55.588C1117.26 56.0387 1117.22 56.4667 1117.14 56.872C1117.05 57.2773 1116.93 57.6533 1116.78 58C1116.63 58.344 1116.44 58.6547 1116.21 58.932C1115.99 59.2067 1115.74 59.4413 1115.46 59.636C1115.19 59.8307 1114.89 59.98 1114.56 60.084C1114.24 60.188 1113.89 60.24 1113.53 60.24C1113.13 60.24 1112.76 60.1707 1112.41 60.032C1112.06 59.8933 1111.75 59.696 1111.47 59.44C1111.19 59.184 1110.95 58.8733 1110.74 58.508C1110.53 58.1427 1110.37 57.7333 1110.26 57.28V60H1108.64V48.16H1110.26V53.896ZM1110.26 55.588C1110.26 56.092 1110.32 56.544 1110.44 56.944C1110.57 57.3413 1110.75 57.6787 1110.98 57.956C1111.22 58.2333 1111.5 58.4467 1111.84 58.596C1112.18 58.7427 1112.56 58.816 1112.98 58.816C1113.41 58.816 1113.79 58.7467 1114.12 58.608C1114.46 58.4667 1114.74 58.26 1114.96 57.988C1115.18 57.7133 1115.35 57.376 1115.47 56.976C1115.59 56.5733 1115.64 56.1107 1115.64 55.588C1115.64 55.0653 1115.59 54.604 1115.47 54.204C1115.35 53.8013 1115.18 53.464 1114.96 53.192C1114.74 52.92 1114.46 52.7147 1114.12 52.576C1113.79 52.4347 1113.41 52.364 1112.98 52.364C1112.56 52.364 1112.18 52.4373 1111.84 52.584C1111.5 52.7307 1111.22 52.9427 1110.98 53.22C1110.75 53.4973 1110.57 53.836 1110.44 54.236C1110.32 54.6333 1110.26 55.084 1110.26 55.588Z" fill="#FCFDFF"/>
<path d="M1236.24 38.28C1236.24 38.968 1236.32 39.584 1236.49 40.128C1236.66 40.672 1236.91 41.1333 1237.23 41.512C1237.55 41.888 1237.94 42.1773 1238.4 42.38C1238.86 42.58 1239.38 42.68 1239.96 42.68C1240.43 42.68 1240.85 42.6133 1241.23 42.48C1241.62 42.3467 1241.95 42.1493 1242.24 41.888C1242.54 41.624 1242.78 41.2987 1242.98 40.912C1243.17 40.5227 1243.32 40.072 1243.42 39.56H1245.1C1244.98 40.2907 1244.77 40.9453 1244.48 41.524C1244.18 42.1027 1243.81 42.5933 1243.37 42.996C1242.93 43.3987 1242.42 43.7067 1241.84 43.92C1241.27 44.1333 1240.64 44.24 1239.95 44.24C1239.42 44.24 1238.91 44.1747 1238.44 44.044C1237.97 43.9133 1237.53 43.7267 1237.13 43.484C1236.73 43.2387 1236.37 42.9413 1236.06 42.592C1235.74 42.24 1235.47 41.844 1235.24 41.404C1235.02 40.9613 1234.85 40.4773 1234.74 39.952C1234.62 39.4267 1234.56 38.8693 1234.56 38.28C1234.56 37.688 1234.62 37.1307 1234.74 36.608C1234.85 36.0827 1235.02 35.6 1235.24 35.16C1235.47 34.7173 1235.74 34.3213 1236.06 33.972C1236.37 33.62 1236.73 33.3227 1237.13 33.08C1237.53 32.8347 1237.97 32.6467 1238.44 32.516C1238.91 32.3853 1239.42 32.32 1239.95 32.32C1240.64 32.32 1241.27 32.4267 1241.84 32.64C1242.42 32.8533 1242.93 33.1613 1243.37 33.564C1243.81 33.9667 1244.18 34.4573 1244.48 35.036C1244.77 35.6147 1244.98 36.2693 1245.1 37H1243.42C1243.32 36.488 1243.17 36.0387 1242.98 35.652C1242.78 35.2627 1242.54 34.9373 1242.24 34.676C1241.95 34.412 1241.62 34.2133 1241.23 34.08C1240.85 33.9467 1240.43 33.88 1239.96 33.88C1239.38 33.88 1238.86 33.9813 1238.4 34.184C1237.94 34.384 1237.55 34.6733 1237.23 35.052C1236.91 35.428 1236.66 35.888 1236.49 36.432C1236.32 36.976 1236.24 37.592 1236.24 38.28ZM1247.99 44H1246.37V35.18H1247.99V37.996C1248.1 37.556 1248.25 37.1627 1248.44 36.816C1248.63 36.4667 1248.87 36.1707 1249.16 35.928C1249.44 35.6853 1249.77 35.5 1250.15 35.372C1250.52 35.244 1250.94 35.18 1251.41 35.18H1251.81V36.724H1251.41C1250.77 36.724 1250.23 36.784 1249.79 36.904C1249.35 37.0213 1249 37.2 1248.73 37.44C1248.47 37.68 1248.28 37.9827 1248.17 38.348C1248.05 38.7107 1247.99 39.1373 1247.99 39.628V44ZM1260.7 41.076C1260.58 41.5693 1260.41 42.012 1260.16 42.404C1259.92 42.796 1259.62 43.128 1259.28 43.4C1258.93 43.672 1258.53 43.88 1258.09 44.024C1257.65 44.168 1257.17 44.24 1256.65 44.24C1256.22 44.24 1255.81 44.1893 1255.43 44.088C1255.05 43.9867 1254.69 43.8413 1254.37 43.652C1254.05 43.46 1253.76 43.228 1253.51 42.956C1253.25 42.6813 1253.04 42.372 1252.86 42.028C1252.68 41.6813 1252.55 41.3027 1252.46 40.892C1252.36 40.4787 1252.32 40.04 1252.32 39.576C1252.32 39.112 1252.36 38.676 1252.46 38.268C1252.55 37.86 1252.68 37.484 1252.86 37.14C1253.03 36.796 1253.24 36.488 1253.5 36.216C1253.75 35.944 1254.03 35.7133 1254.35 35.524C1254.66 35.3347 1255.01 35.1907 1255.39 35.092C1255.77 34.9907 1256.17 34.94 1256.6 34.94C1257.23 34.94 1257.8 35.0493 1258.31 35.268C1258.82 35.484 1259.26 35.792 1259.62 36.192C1259.98 36.592 1260.25 37.076 1260.45 37.644C1260.64 38.212 1260.74 38.848 1260.74 39.552C1260.74 39.6533 1260.74 39.7533 1260.73 39.852C1260.73 39.9507 1260.72 40.06 1260.71 40.18H1253.97C1254.02 40.5827 1254.11 40.9453 1254.26 41.268C1254.4 41.588 1254.59 41.86 1254.82 42.084C1255.06 42.308 1255.33 42.48 1255.65 42.6C1255.96 42.7173 1256.31 42.776 1256.69 42.776C1257.28 42.776 1257.77 42.6347 1258.16 42.352C1258.56 42.0667 1258.86 41.6413 1259.08 41.076H1260.7ZM1259.06 38.78C1259.01 38.396 1258.92 38.0573 1258.78 37.764C1258.65 37.468 1258.48 37.22 1258.27 37.02C1258.06 36.8173 1257.82 36.664 1257.54 36.56C1257.26 36.456 1256.95 36.404 1256.61 36.404C1256.26 36.404 1255.93 36.4587 1255.64 36.568C1255.35 36.6747 1255.09 36.8307 1254.86 37.036C1254.64 37.2387 1254.46 37.488 1254.31 37.784C1254.16 38.0773 1254.06 38.4093 1254 38.78H1259.06ZM1261.75 38.252C1261.75 37.7453 1261.85 37.288 1262.03 36.88C1262.22 36.472 1262.49 36.124 1262.83 35.836C1263.18 35.548 1263.6 35.3267 1264.1 35.172C1264.59 35.0173 1265.15 34.94 1265.77 34.94C1266.42 34.94 1267.01 35.028 1267.53 35.204C1268.04 35.3773 1268.48 35.628 1268.84 35.956C1269.2 36.284 1269.48 36.6853 1269.67 37.16C1269.86 37.632 1269.96 38.168 1269.96 38.768V44H1268.34V41.628C1268.23 42.0333 1268.07 42.3973 1267.85 42.72C1267.63 43.0427 1267.37 43.3173 1267.06 43.544C1266.75 43.768 1266.4 43.94 1266 44.06C1265.6 44.18 1265.17 44.24 1264.71 44.24C1264.22 44.24 1263.78 44.176 1263.39 44.048C1263 43.92 1262.66 43.74 1262.37 43.508C1262.09 43.276 1261.88 42.9973 1261.72 42.672C1261.57 42.344 1261.49 41.98 1261.49 41.58C1261.49 41.1773 1261.57 40.8147 1261.73 40.492C1261.89 40.1693 1262.12 39.896 1262.41 39.672C1262.71 39.4453 1263.07 39.272 1263.5 39.152C1263.92 39.032 1264.4 38.972 1264.93 38.972H1268.34V38.768C1268.34 38.4053 1268.28 38.0787 1268.15 37.788C1268.03 37.4947 1267.86 37.2467 1267.64 37.044C1267.41 36.8387 1267.14 36.6813 1266.82 36.572C1266.5 36.4627 1266.14 36.408 1265.74 36.408C1265.33 36.408 1264.98 36.452 1264.68 36.54C1264.39 36.628 1264.14 36.7533 1263.95 36.916C1263.75 37.076 1263.61 37.2693 1263.51 37.496C1263.42 37.7227 1263.37 37.9747 1263.37 38.252H1261.75ZM1264.92 40.332C1264.32 40.332 1263.86 40.4333 1263.55 40.636C1263.25 40.836 1263.09 41.1333 1263.09 41.528C1263.09 41.736 1263.14 41.9213 1263.23 42.084C1263.32 42.2467 1263.45 42.3827 1263.62 42.492C1263.8 42.6013 1264.01 42.6853 1264.26 42.744C1264.52 42.8 1264.81 42.828 1265.14 42.828C1265.61 42.828 1266.04 42.7733 1266.43 42.664C1266.82 42.552 1267.16 42.3973 1267.44 42.2C1267.72 42 1267.94 41.7627 1268.1 41.488C1268.26 41.2107 1268.34 40.9067 1268.34 40.576V40.332H1264.92ZM1276.5 43.932C1275.82 44.1347 1275.21 44.236 1274.67 44.236C1274.23 44.236 1273.84 44.168 1273.51 44.032C1273.17 43.8987 1272.89 43.7 1272.66 43.436C1272.43 43.1693 1272.25 42.84 1272.13 42.448C1272.02 42.0533 1271.96 41.5973 1271.96 41.08V36.54H1270.76V35.18H1271.96V33.148H1273.58V35.18H1276.5V36.54H1273.58V41.084C1273.58 41.668 1273.69 42.1 1273.91 42.38C1274.13 42.6573 1274.47 42.796 1274.95 42.796C1275.13 42.796 1275.35 42.7747 1275.6 42.732C1275.86 42.6893 1276.16 42.6227 1276.5 42.532V43.932ZM1285.46 41.076C1285.35 41.5693 1285.17 42.012 1284.93 42.404C1284.69 42.796 1284.39 43.128 1284.04 43.4C1283.69 43.672 1283.3 43.88 1282.86 44.024C1282.41 44.168 1281.93 44.24 1281.42 44.24C1280.98 44.24 1280.58 44.1893 1280.19 44.088C1279.81 43.9867 1279.46 43.8413 1279.14 43.652C1278.82 43.46 1278.53 43.228 1278.27 42.956C1278.02 42.6813 1277.8 42.372 1277.62 42.028C1277.45 41.6813 1277.31 41.3027 1277.22 40.892C1277.13 40.4787 1277.08 40.04 1277.08 39.576C1277.08 39.112 1277.13 38.676 1277.22 38.268C1277.31 37.86 1277.45 37.484 1277.62 37.14C1277.8 36.796 1278.01 36.488 1278.26 36.216C1278.51 35.944 1278.8 35.7133 1279.11 35.524C1279.43 35.3347 1279.78 35.1907 1280.16 35.092C1280.54 34.9907 1280.94 34.94 1281.36 34.94C1282 34.94 1282.57 35.0493 1283.08 35.268C1283.59 35.484 1284.02 35.792 1284.38 36.192C1284.74 36.592 1285.02 37.076 1285.21 37.644C1285.41 38.212 1285.5 38.848 1285.5 39.552C1285.5 39.6533 1285.5 39.7533 1285.5 39.852C1285.49 39.9507 1285.49 40.06 1285.48 40.18H1278.73C1278.78 40.5827 1278.88 40.9453 1279.02 41.268C1279.17 41.588 1279.36 41.86 1279.59 42.084C1279.82 42.308 1280.1 42.48 1280.41 42.6C1280.73 42.7173 1281.08 42.776 1281.46 42.776C1282.04 42.776 1282.53 42.6347 1282.93 42.352C1283.32 42.0667 1283.63 41.6413 1283.84 41.076H1285.46ZM1283.83 38.78C1283.78 38.396 1283.68 38.0573 1283.55 37.764C1283.42 37.468 1283.24 37.22 1283.04 37.02C1282.83 36.8173 1282.58 36.664 1282.3 36.56C1282.03 36.456 1281.72 36.404 1281.37 36.404C1281.02 36.404 1280.7 36.4587 1280.4 36.568C1280.11 36.6747 1279.85 36.8307 1279.63 37.036C1279.41 37.2387 1279.22 37.488 1279.08 37.784C1278.93 38.0773 1278.83 38.4093 1278.76 38.78H1283.83ZM1295 32.16V44H1293.38V41.28C1293.27 41.7333 1293.11 42.1427 1292.9 42.508C1292.7 42.8733 1292.45 43.184 1292.17 43.44C1291.89 43.696 1291.58 43.8933 1291.23 44.032C1290.88 44.1707 1290.51 44.24 1290.11 44.24C1289.75 44.24 1289.4 44.188 1289.08 44.084C1288.75 43.98 1288.45 43.8307 1288.17 43.636C1287.9 43.4413 1287.65 43.2067 1287.43 42.932C1287.2 42.6547 1287.02 42.344 1286.86 42C1286.71 41.6533 1286.59 41.2773 1286.5 40.872C1286.42 40.4667 1286.38 40.0387 1286.38 39.588C1286.38 39.1373 1286.42 38.7093 1286.5 38.304C1286.59 37.8987 1286.71 37.524 1286.86 37.18C1287.02 36.836 1287.2 36.5267 1287.43 36.252C1287.65 35.9747 1287.9 35.7387 1288.17 35.544C1288.45 35.3493 1288.75 35.2 1289.08 35.096C1289.4 34.992 1289.75 34.94 1290.11 34.94C1290.51 34.94 1290.88 35.0093 1291.23 35.148C1291.58 35.2867 1291.89 35.484 1292.17 35.74C1292.45 35.996 1292.7 36.3067 1292.9 36.672C1293.11 37.0347 1293.27 37.4427 1293.38 37.896V32.16H1295ZM1293.38 39.588C1293.38 39.084 1293.32 38.6333 1293.19 38.236C1293.07 37.836 1292.89 37.4973 1292.66 37.22C1292.42 36.9427 1292.14 36.7307 1291.8 36.584C1291.47 36.4373 1291.09 36.364 1290.66 36.364C1290.23 36.364 1289.85 36.4347 1289.51 36.576C1289.18 36.7147 1288.91 36.92 1288.68 37.192C1288.46 37.464 1288.29 37.8013 1288.17 38.204C1288.05 38.604 1288 39.0653 1288 39.588C1288 40.1107 1288.05 40.5733 1288.17 40.976C1288.29 41.376 1288.46 41.7133 1288.68 41.988C1288.91 42.26 1289.18 42.4667 1289.51 42.608C1289.85 42.7467 1290.23 42.816 1290.66 42.816C1291.09 42.816 1291.47 42.7427 1291.8 42.596C1292.14 42.4467 1292.42 42.2333 1292.66 41.956C1292.89 41.6787 1293.07 41.3413 1293.19 40.944C1293.32 40.544 1293.38 40.092 1293.38 39.588ZM1234.68 60V58.508C1234.68 58.06 1234.74 57.6653 1234.85 57.324C1234.97 56.98 1235.12 56.6787 1235.32 56.42C1235.52 56.1613 1235.75 55.9387 1236.01 55.752C1236.27 55.5653 1236.55 55.404 1236.84 55.268C1237.13 55.1293 1237.43 55.0093 1237.73 54.908C1238.04 54.8067 1238.33 54.7133 1238.62 54.628L1239.16 54.468C1239.43 54.3853 1239.68 54.3053 1239.92 54.228C1240.17 54.1507 1240.4 54.0667 1240.61 53.976C1240.82 53.8853 1241.01 53.7853 1241.18 53.676C1241.35 53.564 1241.5 53.436 1241.62 53.292C1241.74 53.148 1241.84 52.9827 1241.9 52.796C1241.97 52.6093 1242 52.3947 1242 52.152C1242 51.84 1241.93 51.5467 1241.8 51.272C1241.67 50.9973 1241.49 50.7573 1241.25 50.552C1241.01 50.344 1240.72 50.1813 1240.38 50.064C1240.04 49.944 1239.66 49.884 1239.24 49.884C1238.81 49.884 1238.43 49.9493 1238.08 50.08C1237.73 50.208 1237.43 50.3893 1237.18 50.624C1236.93 50.8587 1236.75 51.1413 1236.61 51.472C1236.48 51.8 1236.41 52.1627 1236.41 52.56V52.772H1234.73V52.524C1234.73 51.8813 1234.84 51.3013 1235.05 50.784C1235.26 50.264 1235.57 49.8227 1235.96 49.46C1236.36 49.0947 1236.85 48.8133 1237.42 48.616C1237.98 48.4187 1238.62 48.32 1239.34 48.32C1240.03 48.32 1240.64 48.412 1241.18 48.596C1241.72 48.7773 1242.17 49.036 1242.54 49.372C1242.91 49.7053 1243.2 50.1067 1243.39 50.576C1243.58 51.0427 1243.68 51.5613 1243.68 52.132C1243.68 52.572 1243.62 52.9587 1243.51 53.292C1243.4 53.6253 1243.25 53.9173 1243.06 54.168C1242.88 54.416 1242.66 54.6293 1242.41 54.808C1242.16 54.984 1241.9 55.136 1241.62 55.264C1241.34 55.3893 1241.05 55.4973 1240.76 55.588C1240.47 55.6787 1240.19 55.7627 1239.92 55.84L1239.22 56.044C1239 56.1053 1238.78 56.1707 1238.55 56.24C1238.33 56.3067 1238.11 56.3853 1237.9 56.476C1237.69 56.564 1237.49 56.6667 1237.3 56.784C1237.12 56.8987 1236.95 57.0347 1236.81 57.192C1236.67 57.3493 1236.56 57.5307 1236.48 57.736C1236.39 57.9413 1236.35 58.176 1236.34 58.44H1243.64V60H1234.68ZM1244.92 54.28C1244.92 53.688 1244.98 53.1307 1245.09 52.608C1245.2 52.0827 1245.36 51.6 1245.57 51.16C1245.78 50.7173 1246.03 50.3213 1246.34 49.972C1246.64 49.62 1246.98 49.3227 1247.36 49.08C1247.74 48.8347 1248.15 48.6467 1248.6 48.516C1249.05 48.3853 1249.53 48.32 1250.04 48.32C1250.55 48.32 1251.03 48.3853 1251.48 48.516C1251.93 48.6467 1252.34 48.8347 1252.72 49.08C1253.1 49.3227 1253.44 49.62 1253.74 49.972C1254.04 50.3213 1254.3 50.7173 1254.51 51.16C1254.72 51.6 1254.88 52.0827 1254.99 52.608C1255.1 53.1307 1255.16 53.688 1255.16 54.28C1255.16 54.8693 1255.1 55.4267 1254.99 55.952C1254.88 56.4773 1254.72 56.9613 1254.51 57.404C1254.3 57.844 1254.04 58.24 1253.74 58.592C1253.44 58.9413 1253.1 59.2387 1252.72 59.484C1252.34 59.7267 1251.93 59.9133 1251.48 60.044C1251.02 60.1747 1250.55 60.24 1250.04 60.24C1249.53 60.24 1249.05 60.1747 1248.6 60.044C1248.15 59.9133 1247.74 59.7267 1247.36 59.484C1246.98 59.2387 1246.64 58.9413 1246.34 58.592C1246.03 58.24 1245.78 57.844 1245.57 57.404C1245.36 56.9613 1245.2 56.4773 1245.09 55.952C1244.98 55.4267 1244.92 54.8693 1244.92 54.28ZM1246.6 54.28C1246.6 54.968 1246.68 55.584 1246.84 56.128C1246.99 56.672 1247.22 57.1333 1247.52 57.512C1247.81 57.888 1248.17 58.1773 1248.6 58.38C1249.02 58.58 1249.5 58.68 1250.04 58.68C1250.58 58.68 1251.06 58.58 1251.48 58.38C1251.91 58.1773 1252.27 57.888 1252.56 57.512C1252.86 57.1333 1253.09 56.672 1253.24 56.128C1253.4 55.584 1253.48 54.968 1253.48 54.28C1253.48 53.592 1253.4 52.976 1253.24 52.432C1253.09 51.888 1252.86 51.428 1252.56 51.052C1252.27 50.6733 1251.91 50.384 1251.48 50.184C1251.06 49.9813 1250.58 49.88 1250.04 49.88C1249.5 49.88 1249.02 49.9813 1248.6 50.184C1248.17 50.384 1247.81 50.6733 1247.52 51.052C1247.22 51.428 1246.99 51.888 1246.84 52.432C1246.68 52.976 1246.6 53.592 1246.6 54.28ZM1256.32 60V58.508C1256.32 58.06 1256.38 57.6653 1256.49 57.324C1256.61 56.98 1256.76 56.6787 1256.96 56.42C1257.16 56.1613 1257.39 55.9387 1257.65 55.752C1257.91 55.5653 1258.19 55.404 1258.48 55.268C1258.77 55.1293 1259.07 55.0093 1259.37 54.908C1259.68 54.8067 1259.98 54.7133 1260.26 54.628L1260.8 54.468C1261.07 54.3853 1261.32 54.3053 1261.56 54.228C1261.81 54.1507 1262.04 54.0667 1262.25 53.976C1262.46 53.8853 1262.65 53.7853 1262.82 53.676C1262.99 53.564 1263.14 53.436 1263.26 53.292C1263.38 53.148 1263.48 52.9827 1263.54 52.796C1263.61 52.6093 1263.64 52.3947 1263.64 52.152C1263.64 51.84 1263.58 51.5467 1263.44 51.272C1263.31 50.9973 1263.13 50.7573 1262.89 50.552C1262.65 50.344 1262.36 50.1813 1262.02 50.064C1261.68 49.944 1261.3 49.884 1260.88 49.884C1260.46 49.884 1260.07 49.9493 1259.72 50.08C1259.37 50.208 1259.07 50.3893 1258.82 50.624C1258.58 50.8587 1258.39 51.1413 1258.25 51.472C1258.12 51.8 1258.05 52.1627 1258.05 52.56V52.772H1256.37V52.524C1256.37 51.8813 1256.48 51.3013 1256.69 50.784C1256.9 50.264 1257.21 49.8227 1257.6 49.46C1258 49.0947 1258.49 48.8133 1259.06 48.616C1259.62 48.4187 1260.26 48.32 1260.98 48.32C1261.67 48.32 1262.28 48.412 1262.82 48.596C1263.36 48.7773 1263.81 49.036 1264.18 49.372C1264.56 49.7053 1264.84 50.1067 1265.03 50.576C1265.22 51.0427 1265.32 51.5613 1265.32 52.132C1265.32 52.572 1265.26 52.9587 1265.15 53.292C1265.04 53.6253 1264.89 53.9173 1264.7 54.168C1264.52 54.416 1264.3 54.6293 1264.05 54.808C1263.8 54.984 1263.54 55.136 1263.26 55.264C1262.98 55.3893 1262.7 55.4973 1262.4 55.588C1262.11 55.6787 1261.83 55.7627 1261.56 55.84L1260.86 56.044C1260.64 56.1053 1260.42 56.1707 1260.19 56.24C1259.97 56.3067 1259.75 56.3853 1259.54 56.476C1259.33 56.564 1259.13 56.6667 1258.94 56.784C1258.76 56.8987 1258.59 57.0347 1258.45 57.192C1258.31 57.3493 1258.2 57.5307 1258.12 57.736C1258.03 57.9413 1257.99 58.176 1257.98 58.44H1265.28V60H1256.32ZM1270.62 58.44H1272.64V60H1266.91V58.44H1268.94V51.752H1266.44V50.312H1267.47C1267.77 50.312 1268.03 50.2813 1268.24 50.22C1268.45 50.156 1268.61 50.048 1268.74 49.896C1268.87 49.744 1268.96 49.54 1269.01 49.284C1269.07 49.0253 1269.1 48.7027 1269.1 48.316H1270.62V58.44Z" fill="#FCFDFF"/>
<path d="M515.843 316.408H532.753L562.961 384.235H547.097L539.972 367.42H508.054L501.024 384.235H485.635L515.843 316.408ZM524.108 328.187L512.329 356.781H535.698L524.108 328.187ZM579.481 316.408H600L623.749 369.035L647.308 316.408H667.637V384.235H654.243L654.813 328.187H654.623L629.544 384.235H617.384L592.496 328.187H592.306L592.876 384.235H579.481V316.408ZM714.396 316.408H731.305L761.514 384.235H745.65L738.525 367.42H706.606L699.577 384.235H684.187L714.396 316.408ZM722.661 328.187L710.881 356.781H734.25L722.661 328.187ZM778.034 316.408H820.972C835.506 316.408 843.866 321.822 843.866 334.837C843.866 343.291 839.496 348.991 832.656 351.176V351.366C840.636 352.981 842.251 360.201 842.441 366.85C842.631 373.5 842.441 379.77 845.386 384.235H829.996C829.426 383.19 829.046 381.765 828.761 380.245C828.002 376.445 828.571 371.6 827.907 367.325C827.052 361.911 824.867 357.446 816.412 357.446H792.283V384.235H778.034V316.408ZM792.283 346.806H817.362C826.577 346.806 829.046 342.721 829.046 336.832C829.046 330.277 825.057 327.047 817.267 327.047H792.283V346.806ZM905.992 350.321C905.992 330.372 918.152 314.508 943.896 314.508C967.455 314.508 979.424 326.952 980.944 341.486H965.555C964.035 331.227 955.675 325.147 943.706 325.147C930.216 325.147 920.812 334.267 920.812 351.556C920.812 365.805 930.691 375.495 944.656 375.495C956.53 375.495 963.56 369.035 965.555 358.301H980.944C978.094 377.11 964.035 386.135 942.281 386.135C918.152 386.135 905.992 369.985 905.992 350.321ZM999.1 350.321C999.1 330.372 1011.16 314.508 1039 314.508C1066.83 314.508 1078.9 330.372 1078.9 350.321C1078.9 370.27 1066.83 386.135 1039 386.135C1011.16 386.135 999.1 370.27 999.1 350.321ZM1038.9 325.147C1024.27 325.147 1013.92 334.362 1013.92 350.321C1013.92 365.14 1023.04 375.495 1039 375.495C1054.86 375.495 1064.08 365.235 1064.08 350.321C1064.08 335.692 1055.15 325.147 1038.9 325.147Z" fill="white"/>
<path d="M380.366 422.854C388.448 432.104 397.796 440.088 408.214 446.515C418.731 452.941 430.707 458.589 443.268 458.589C448.818 458.589 454.076 455.57 458.068 451.87C463.521 446.807 467.903 440.672 470.824 433.857C471.505 432.201 472.284 429.475 469.558 430.059C463.813 431.228 457.971 431.617 452.226 431.13C445.897 430.351 439.665 428.501 434.018 425.58C428.37 422.854 423.015 419.543 417.854 415.843C414.154 413.117 410.649 410.098 407.436 406.787C403.346 402.698 398.575 398.803 395.848 393.545C395.751 393.448 395.264 392.766 395.459 392.669C406.949 383.613 417.27 373 425.936 361.218C434.31 350.118 441.028 337.849 445.994 324.899C451.934 309.125 452.226 299.485 452.323 296.564C452.616 263.166 430.61 226.846 402.762 209.125C397.406 205.814 391.661 202.99 385.819 200.848C377.932 197.927 369.169 195.395 361.282 199.68C352.908 204.256 346.871 214.188 341.808 221.783C337.329 228.209 333.531 235.123 330.513 242.328C304.125 265.308 282.314 294.908 267.514 326.067C262.256 336.973 257.971 348.268 254.661 359.855C251.253 371.637 249.403 383.905 249.013 396.174C248.818 409.027 250.766 422.269 255.537 434.246C259.14 443.301 266.15 452.552 276.082 454.986C287.183 457.712 298.38 454.986 308.702 450.41C313.083 448.462 317.27 446.223 321.36 443.788C338.302 433.954 355.342 423.827 371.311 412.338C371.019 412.63 379.782 422.172 380.366 422.854ZM362.548 402.99C361.963 403.866 360.503 404.645 358.263 406.106C340.055 417.79 313.473 437.459 291.856 422.367C256.316 397.635 271.701 339.991 287.864 308.93C296.53 292.377 307.923 274.655 322.236 262.484C323.405 261.51 324.573 260.342 325.644 259.271C318.146 297.83 327.202 336.875 344.923 371.442C349.695 380.692 355.05 389.65 360.892 398.121C362.742 400.75 363.229 401.919 362.548 402.99ZM344.826 233.76C346.287 230.157 348.331 226.554 352.032 224.996C356.9 222.854 362.742 224.412 367.416 226.165C372.966 228.209 378.03 231.423 382.995 234.636C390.785 239.602 397.991 245.639 404.32 252.455C412.109 260.731 418.536 270.274 423.112 280.692C434.407 306.301 431.876 333.857 416.491 357.226C413.765 361.315 410.746 365.21 407.436 368.813C404.417 372.123 401.204 375.239 397.991 378.258C395.946 380.303 393.706 382.25 391.467 384.003C390.688 384.587 389.617 384.392 389.032 383.613C385.235 378.453 371.506 360.049 365.663 349.047C357.582 334.051 351.447 318.083 347.26 301.53C345.508 294.519 343.852 287.606 342.489 280.595C341.029 273.487 340.347 266.281 340.25 258.979C340.152 251.578 341.321 244.276 343.56 237.265C343.95 236.194 344.339 234.928 344.826 233.76Z" fill="white"/>
<defs>
<clipPath id="clip0_63_355">
<rect width="1332" height="657" fill="white"/>
</clipPath>
</defs>
</svg>
