<svg width="1332" height="657" viewBox="0 0 1332 657" fill="none" xmlns="http://www.w3.org/2000/svg">
<rect x="946" width="386" height="657" fill="#262825"/>
<g clip-path="url(#clip0_63_358)">
<path d="M1138.78 453C1146.38 453 1152.55 446.657 1152.55 438.832C1152.55 431.007 1146.38 424.664 1138.78 424.664C1131.17 424.664 1125 431.007 1125 438.832C1125 446.657 1131.17 453 1138.78 453Z" fill="white"/>
<path d="M1126.48 399.495C1126.48 392.523 1135.21 390.643 1138.78 390.643C1142.34 390.643 1151.07 392.513 1151.07 399.495C1151.07 402.848 1149.77 406.064 1147.47 408.436C1145.16 410.807 1142.04 412.139 1138.78 412.139C1135.51 412.139 1132.39 410.807 1130.08 408.436C1127.78 406.064 1126.48 402.848 1126.48 399.495Z" fill="white"/>
<path d="M1129.31 367.244C1128.8 368.865 1128.98 370.73 1129.65 372.349C1130.46 374.22 1131.78 375.81 1133.46 376.929C1135.13 378.048 1137.07 378.648 1139.07 378.659C1140.65 378.639 1142.21 378.256 1143.63 377.537C1145.05 376.818 1146.29 375.783 1147.27 374.505C1149.04 372.167 1150.25 368.23 1148.32 365.631C1147.23 364.152 1145.3 363.654 1143.61 363.33C1141.61 362.945 1139.57 362.814 1137.54 362.942C1136.45 363.019 1135.38 363.159 1134.31 363.36C1133.24 363.508 1132.21 363.889 1131.29 364.478C1130.35 365.142 1129.65 366.117 1129.31 367.244Z" fill="white"/>
<path d="M1130.96 344.294C1130.99 345.502 1131.28 346.687 1131.82 347.763C1132.49 349.134 1133.54 350.275 1134.83 351.044C1134.93 351.102 1135.03 351.154 1135.13 351.204C1136.64 351.975 1138.34 352.254 1140.01 352.003C1141.61 351.756 1143.1 350.998 1144.27 349.834C1145.3 348.788 1146.03 347.47 1146.37 346.025C1146.37 346.005 1146.37 345.985 1146.37 345.967C1146.6 344.915 1146.64 343.828 1146.49 342.76C1146.45 342.456 1146.25 342.22 1145.97 342.442C1145.68 342.663 1145.41 342.997 1145.13 343.258C1144.82 343.539 1144.5 343.799 1144.16 344.035C1142.69 345.064 1140.99 345.677 1139.22 345.81C1138.95 345.827 1138.69 345.827 1138.42 345.81C1136.85 345.693 1135.32 345.207 1133.96 344.391C1133.11 343.847 1132.32 343.214 1131.6 342.504C1131.48 342.392 1131.29 342.305 1131.16 342.454C1131.09 342.55 1131.05 342.665 1131.04 342.785C1130.97 343.285 1130.94 343.79 1130.96 344.294Z" fill="white"/>
<path d="M1138.78 232.336C1146.38 232.336 1152.55 225.993 1152.55 218.168C1152.55 210.343 1146.38 204 1138.78 204C1131.17 204 1125 210.343 1125 218.168C1125 225.993 1131.17 232.336 1138.78 232.336Z" fill="white"/>
<path d="M1151.07 257.505C1151.07 264.477 1142.34 266.357 1138.78 266.357C1135.21 266.357 1126.48 264.487 1126.48 257.505C1126.48 254.152 1127.78 250.936 1130.08 248.564C1132.39 246.193 1135.51 244.861 1138.78 244.861C1142.04 244.861 1145.16 246.193 1147.47 248.564C1149.77 250.936 1151.07 254.152 1151.07 257.505Z" fill="white"/>
<path d="M1148.24 289.756C1148.75 288.135 1148.58 286.27 1147.91 284.651C1147.09 282.78 1145.77 281.19 1144.09 280.072C1142.42 278.953 1140.47 278.352 1138.48 278.341C1136.9 278.36 1135.34 278.743 1133.92 279.461C1132.5 280.18 1131.25 281.216 1130.27 282.495C1128.51 284.833 1127.3 288.77 1129.22 291.369C1130.31 292.848 1132.25 293.346 1133.93 293.67C1135.93 294.056 1137.98 294.186 1140.01 294.058C1141.1 293.981 1142.18 293.841 1143.24 293.64C1144.31 293.489 1145.34 293.105 1146.25 292.515C1147.2 291.853 1147.9 290.881 1148.24 289.756Z" fill="white"/>
<path d="M1146.59 312.706C1146.56 311.499 1146.27 310.313 1145.74 309.237C1145.06 307.865 1144.02 306.725 1142.72 305.956C1142.63 305.898 1142.53 305.846 1142.43 305.796C1140.92 305.026 1139.21 304.747 1137.55 304.997C1135.94 305.244 1134.45 306.003 1133.29 307.166C1132.26 308.211 1131.53 309.53 1131.19 310.975L1131.17 311.033C1130.94 312.085 1130.9 313.172 1131.05 314.24C1131.1 314.544 1131.28 314.78 1131.58 314.558C1131.87 314.337 1132.13 314.003 1132.41 313.742C1132.72 313.462 1133.04 313.202 1133.38 312.965C1134.85 311.934 1136.55 311.322 1138.33 311.189C1138.59 311.173 1138.85 311.173 1139.12 311.189C1140.69 311.307 1142.22 311.791 1143.58 312.606C1144.43 313.15 1145.22 313.782 1145.94 314.494C1146.06 314.606 1146.25 314.693 1146.38 314.544C1146.45 314.447 1146.49 314.332 1146.5 314.212C1146.57 313.714 1146.6 313.21 1146.59 312.706Z" fill="white"/>
</g>
<rect width="904" height="657" fill="#E3E4E4"/>
<g clip-path="url(#clip1_63_358)">
<path d="M552.114 568.481C559.183 568.481 564.913 562.751 564.913 555.682C564.913 548.614 559.183 542.884 552.114 542.884C545.046 542.884 539.315 548.614 539.315 555.682C539.315 562.751 545.046 568.481 552.114 568.481Z" fill="#424440"/>
<path d="M516.582 567.102C510.274 567.102 508.578 558.992 508.578 555.682C508.578 552.372 510.264 544.26 516.582 544.26C519.581 544.305 522.442 545.528 524.547 547.665C526.652 549.802 527.832 552.681 527.832 555.681C527.832 558.681 526.652 561.56 524.547 563.697C522.442 565.834 519.581 567.057 516.582 567.102Z" fill="#424440"/>
<path d="M487.449 564.476C488.975 564.921 490.609 564.811 492.061 564.164C493.75 563.405 495.185 562.175 496.195 560.623C497.205 559.071 497.747 557.26 497.757 555.409C497.74 553.938 497.394 552.49 496.745 551.17C496.096 549.85 495.16 548.692 494.005 547.781C491.893 546.145 488.325 545.016 486.001 546.803C484.666 547.82 484.217 549.617 483.923 551.192C483.576 553.052 483.458 554.948 483.571 556.836C483.64 557.844 483.764 558.848 483.943 559.842C484.081 560.834 484.428 561.786 484.96 562.635C485.558 563.513 486.435 564.162 487.449 564.476Z" fill="#424440"/>
<path d="M466.722 562.956C467.812 562.93 468.883 562.659 469.854 562.163C471.096 561.531 472.127 560.55 472.82 559.341C472.87 559.25 472.919 559.158 472.962 559.065C473.659 557.662 473.91 556.08 473.683 554.531C473.462 553.04 472.777 551.657 471.726 550.578C470.781 549.622 469.591 548.945 468.287 548.621H468.232C467.282 548.407 466.3 548.369 465.335 548.51C465.062 548.551 464.85 548.724 465.049 548.998C465.248 549.271 465.55 549.514 465.785 549.772C466.039 550.058 466.274 550.361 466.487 550.678C467.418 552.041 467.972 553.626 468.093 555.272C468.108 555.517 468.108 555.763 468.093 556.008C467.989 557.47 467.551 558.889 466.815 560.157C466.324 560.943 465.753 561.676 465.111 562.344C465.01 562.455 464.93 562.633 465.064 562.754C465.151 562.819 465.256 562.857 465.364 562.863C465.813 562.933 466.267 562.964 466.722 562.956Z" fill="#424440"/>
<path d="M352.799 568.481C359.867 568.481 365.597 562.751 365.597 555.682C365.597 548.614 359.867 542.884 352.799 542.884C345.73 542.884 340 548.614 340 555.682C340 562.751 345.73 568.481 352.799 568.481Z" fill="#424440"/>
<path d="M388.329 544.26C394.637 544.26 396.333 552.37 396.333 555.682C396.333 558.995 394.647 567.102 388.329 567.102C385.33 567.057 382.468 565.834 380.363 563.697C378.258 561.56 377.078 558.681 377.078 555.681C377.078 552.681 378.258 549.802 380.363 547.665C382.468 545.528 385.33 544.305 388.329 544.26Z" fill="#424440"/>
<path d="M417.458 546.886C415.932 546.442 414.299 546.553 412.847 547.198C411.157 547.956 409.721 549.185 408.71 550.738C407.699 552.29 407.156 554.101 407.146 555.953C407.163 557.424 407.508 558.872 408.157 560.192C408.806 561.512 409.743 562.67 410.898 563.58C413.01 565.22 416.565 566.346 418.902 564.559C420.236 563.542 420.686 561.745 420.98 560.17C421.326 558.31 421.444 556.414 421.331 554.525C421.264 553.517 421.14 552.514 420.959 551.52C420.823 550.527 420.476 549.575 419.942 548.726C419.346 547.85 418.47 547.201 417.458 546.886Z" fill="#424440"/>
<path d="M438.188 548.419C437.098 548.447 436.028 548.719 435.057 549.215C433.816 549.84 432.785 550.813 432.09 552.016C432.041 552.106 431.992 552.199 431.948 552.292C431.251 553.694 431 555.275 431.227 556.823C431.449 558.314 432.134 559.697 433.185 560.776C434.13 561.733 435.321 562.411 436.626 562.734H436.678C437.629 562.946 438.611 562.983 439.575 562.842C439.849 562.801 440.063 562.628 439.864 562.354C439.665 562.08 439.361 561.838 439.126 561.579C438.872 561.292 438.638 560.988 438.423 560.671C437.492 559.309 436.939 557.725 436.82 556.08C436.804 555.835 436.804 555.589 436.82 555.344C436.928 553.881 437.37 552.461 438.111 551.195C438.6 550.408 439.172 549.675 439.815 549.008C439.916 548.894 439.996 548.716 439.859 548.595C439.772 548.53 439.668 548.492 439.559 548.486C439.105 548.425 438.646 548.402 438.188 548.419Z" fill="#424440"/>
<path d="M552.114 530.65C559.183 530.65 564.913 524.92 564.913 517.852C564.913 510.783 559.183 505.053 552.114 505.053C545.046 505.053 539.315 510.783 539.315 517.852C539.315 524.92 545.046 530.65 552.114 530.65Z" fill="#424440"/>
<path d="M516.582 529.272C510.274 529.272 508.578 521.162 508.578 517.852C508.578 514.542 510.264 506.429 516.582 506.429C519.581 506.474 522.442 507.697 524.547 509.834C526.652 511.971 527.832 514.851 527.832 517.85C527.832 520.85 526.652 523.729 524.547 525.866C522.442 528.003 519.581 529.226 516.582 529.272Z" fill="#424440"/>
<path d="M487.449 526.646C488.975 527.089 490.609 526.979 492.061 526.333C493.75 525.574 495.185 524.345 496.195 522.793C497.205 521.24 497.747 519.43 497.757 517.578C497.74 516.107 497.394 514.659 496.745 513.339C496.096 512.02 495.16 510.862 494.005 509.951C491.893 508.311 488.325 507.186 486.001 508.972C484.666 509.99 484.217 511.787 483.923 513.362C483.576 515.222 483.458 517.117 483.571 519.006C483.64 520.014 483.764 521.017 483.943 522.011C484.081 523.004 484.428 523.956 484.96 524.805C485.559 525.682 486.436 526.331 487.449 526.646Z" fill="#424440"/>
<path d="M466.722 525.112C467.812 525.084 468.882 524.813 469.854 524.319C471.094 523.693 472.125 522.718 472.82 521.515C472.87 521.425 472.919 521.335 472.962 521.242C473.659 519.839 473.91 518.257 473.683 516.708C473.462 515.217 472.777 513.834 471.726 512.755C470.781 511.799 469.591 511.122 468.287 510.798H468.232C467.281 510.586 466.3 510.55 465.335 510.689C465.062 510.731 464.85 510.904 465.049 511.177C465.248 511.451 465.55 511.694 465.785 511.952C466.039 512.239 466.274 512.542 466.487 512.861C467.418 514.223 467.972 515.806 468.093 517.452C468.11 517.697 468.11 517.944 468.093 518.19C467.991 519.652 467.554 521.071 466.815 522.337C466.325 523.124 465.753 523.858 465.111 524.526C465.01 524.637 464.93 524.815 465.064 524.937C465.151 525.001 465.256 525.039 465.364 525.045C465.814 525.106 466.268 525.128 466.722 525.112Z" fill="#424440"/>
<path d="M352.799 530.65C359.867 530.65 365.597 524.92 365.597 517.852C365.597 510.783 359.867 505.053 352.799 505.053C345.73 505.053 340 510.783 340 517.852C340 524.92 345.73 530.65 352.799 530.65Z" fill="#424440"/>
<path d="M388.329 506.429C394.637 506.429 396.333 514.539 396.333 517.852C396.333 521.164 394.647 529.272 388.329 529.272C385.33 529.226 382.468 528.003 380.363 525.866C378.258 523.729 377.078 520.85 377.078 517.85C377.078 514.851 378.258 511.971 380.363 509.834C382.468 507.697 385.33 506.474 388.329 506.429Z" fill="#424440"/>
<path d="M417.458 509.055C415.932 508.612 414.299 508.723 412.847 509.367C411.157 510.126 409.721 511.355 408.71 512.907C407.699 514.46 407.156 516.27 407.146 518.123C407.163 519.593 407.508 521.042 408.158 522.361C408.807 523.681 409.743 524.839 410.898 525.75C413.01 527.389 416.565 528.515 418.902 526.728C420.236 525.711 420.686 523.914 420.98 522.339C421.326 520.479 421.444 518.584 421.331 516.695C421.264 515.687 421.14 514.684 420.959 513.69C420.823 512.697 420.476 511.744 419.942 510.896C419.346 510.02 418.47 509.371 417.458 509.055Z" fill="#424440"/>
<path d="M438.188 510.589C437.098 510.617 436.028 510.889 435.057 511.384C433.816 512.009 432.785 512.983 432.09 514.185C432.041 514.276 431.992 514.366 431.948 514.462C431.251 515.863 431 517.444 431.227 518.993C431.449 520.483 432.134 521.866 433.185 522.946C434.13 523.902 435.321 524.579 436.626 524.903L436.678 524.916C437.629 525.127 438.611 525.164 439.575 525.024C439.849 524.983 440.063 524.81 439.864 524.536C439.665 524.263 439.361 524.02 439.126 523.762C438.872 523.474 438.638 523.171 438.423 522.853C437.492 521.491 436.939 519.907 436.82 518.262C436.804 518.016 436.804 517.77 436.82 517.524C436.924 516.06 437.366 514.641 438.111 513.377C438.6 512.589 439.172 511.856 439.815 511.188C439.916 511.077 439.996 510.899 439.859 510.777C439.772 510.712 439.668 510.674 439.559 510.669C439.106 510.603 438.647 510.576 438.188 510.589Z" fill="#424440"/>
<path d="M552.114 492.817C559.183 492.817 564.913 487.087 564.913 480.019C564.913 472.95 559.183 467.22 552.114 467.22C545.046 467.22 539.315 472.95 539.315 480.019C539.315 487.087 545.046 492.817 552.114 492.817Z" fill="#424440"/>
<path d="M516.582 491.436C510.274 491.436 508.578 483.326 508.578 480.013C508.578 476.701 510.264 468.594 516.582 468.594C519.581 468.639 522.442 469.862 524.547 471.999C526.652 474.136 527.832 477.015 527.832 480.015C527.832 483.014 526.652 485.894 524.547 488.031C522.442 490.168 519.581 491.391 516.582 491.436Z" fill="#424440"/>
<path d="M487.449 488.815C488.975 489.259 490.609 489.148 492.061 488.503C493.75 487.744 495.185 486.514 496.195 484.962C497.205 483.41 497.747 481.599 497.757 479.747C497.74 478.277 497.394 476.828 496.745 475.509C496.096 474.189 495.16 473.031 494.005 472.12C491.893 470.481 488.325 469.355 486.001 471.142C484.666 472.159 484.217 473.956 483.923 475.531C483.576 477.391 483.458 479.287 483.571 481.175C483.64 482.183 483.764 483.186 483.943 484.181C484.081 485.173 484.428 486.125 484.96 486.974C485.559 487.851 486.436 488.5 487.449 488.815Z" fill="#424440"/>
<path d="M466.722 487.282C467.812 487.253 468.882 486.982 469.854 486.486C471.094 485.863 472.125 484.891 472.82 483.69C472.87 483.6 472.919 483.509 472.962 483.414C473.659 482.012 473.91 480.431 473.683 478.882C473.462 477.392 472.777 476.009 471.726 474.93C470.782 473.973 469.591 473.295 468.287 472.972H468.232C467.281 472.76 466.3 472.723 465.335 472.864C465.062 472.905 464.85 473.078 465.049 473.352C465.248 473.626 465.55 473.868 465.785 474.127C466.039 474.413 466.274 474.717 466.487 475.035C467.418 476.397 467.972 477.981 468.093 479.626C468.11 479.872 468.11 480.119 468.093 480.365C467.991 481.826 467.553 483.245 466.815 484.511C466.324 485.298 465.753 486.032 465.111 486.701C465.01 486.812 464.93 486.99 465.064 487.111C465.151 487.176 465.256 487.213 465.364 487.22C465.814 487.279 466.268 487.299 466.722 487.282Z" fill="#424440"/>
<path d="M352.799 492.817C359.867 492.817 365.597 487.087 365.597 480.019C365.597 472.95 359.867 467.22 352.799 467.22C345.73 467.22 340 472.95 340 480.019C340 487.087 345.73 492.817 352.799 492.817Z" fill="#424440"/>
<path d="M388.329 468.599C394.637 468.599 396.333 476.708 396.333 480.019C396.333 483.329 394.647 491.441 388.329 491.441C385.33 491.396 382.468 490.173 380.363 488.036C378.258 485.899 377.078 483.02 377.078 480.02C377.078 477.02 378.258 474.141 380.363 472.004C382.468 469.867 385.33 468.644 388.329 468.599Z" fill="#424440"/>
<path d="M417.458 471.225C415.933 470.78 414.299 470.89 412.847 471.537C411.157 472.295 409.721 473.524 408.71 475.077C407.699 476.629 407.156 478.44 407.146 480.292C407.163 481.763 407.508 483.211 408.158 484.531C408.807 485.851 409.743 487.008 410.898 487.919C413.01 489.556 416.565 490.685 418.902 488.898C420.236 487.881 420.686 486.084 420.98 484.509C421.326 482.649 421.444 480.753 421.331 478.864C421.264 477.856 421.14 476.853 420.959 475.859C420.823 474.866 420.476 473.914 419.942 473.065C419.346 472.188 418.471 471.539 417.458 471.225Z" fill="#424440"/>
<path d="M438.189 472.758C437.099 472.785 436.029 473.056 435.057 473.551C433.818 474.177 432.787 475.151 432.09 476.352C432.041 476.445 431.992 476.536 431.948 476.628C431.252 478.031 431.001 479.613 431.228 481.162C431.45 482.653 432.134 484.035 433.185 485.115C434.131 486.071 435.322 486.749 436.627 487.072H436.678C437.629 487.286 438.611 487.324 439.575 487.183C439.849 487.142 440.063 486.969 439.865 486.695C439.666 486.422 439.361 486.179 439.126 485.921C438.873 485.633 438.639 485.329 438.424 485.012C437.493 483.65 436.94 482.066 436.82 480.421C436.805 480.175 436.805 479.929 436.82 479.683C436.925 478.219 437.367 476.799 438.111 475.534C438.601 474.747 439.173 474.014 439.815 473.347C439.916 473.236 439.996 473.058 439.859 472.936C439.772 472.871 439.668 472.834 439.56 472.828C439.106 472.765 438.647 472.742 438.189 472.758Z" fill="#424440"/>
<path d="M552.114 454.987C559.183 454.987 564.913 449.256 564.913 442.188C564.913 435.119 559.183 429.389 552.114 429.389C545.046 429.389 539.315 435.119 539.315 442.188C539.315 449.256 545.046 454.987 552.114 454.987Z" fill="#424440"/>
<path d="M516.582 453.608C510.274 453.608 508.578 445.501 508.578 442.188C508.578 438.875 510.264 430.768 516.582 430.768C519.61 430.768 522.515 431.971 524.657 434.113C526.798 436.255 528.002 439.159 528.002 442.188C528.002 445.217 526.798 448.121 524.657 450.263C522.515 452.405 519.61 453.608 516.582 453.608Z" fill="#424440"/>
<path d="M487.45 450.985C488.975 451.428 490.609 451.317 492.061 450.672C493.75 449.913 495.185 448.684 496.195 447.131C497.205 445.579 497.747 443.769 497.757 441.917C497.74 440.446 497.395 438.998 496.745 437.678C496.096 436.358 495.16 435.201 494.005 434.29C491.893 432.65 488.325 431.525 486.001 433.311C484.666 434.326 484.217 436.126 483.923 437.688C483.571 439.548 483.448 441.444 483.556 443.334C483.625 444.342 483.749 445.346 483.928 446.34C484.066 447.332 484.412 448.284 484.945 449.133C485.546 450.016 486.429 450.669 487.45 450.985Z" fill="#424440"/>
<path d="M466.722 449.451C467.812 449.423 468.882 449.151 469.854 448.656C471.094 448.031 472.125 447.057 472.82 445.854C472.87 445.764 472.919 445.671 472.962 445.578C473.659 444.176 473.91 442.595 473.683 441.047C473.462 439.556 472.777 438.173 471.726 437.094C470.782 436.137 469.591 435.46 468.287 435.137H468.232C467.282 434.923 466.3 434.886 465.335 435.028C465.062 435.07 464.85 435.243 465.049 435.514C465.248 435.785 465.55 436.03 465.785 436.288C466.039 436.575 466.274 436.879 466.487 437.197C467.418 438.559 467.972 440.143 468.093 441.788C468.11 442.033 468.11 442.279 468.093 442.524C467.991 443.986 467.554 445.406 466.815 446.673C466.325 447.459 465.753 448.192 465.111 448.86C465.01 448.973 464.93 449.151 465.064 449.273C465.152 449.336 465.256 449.372 465.364 449.379C465.814 449.442 466.268 449.467 466.722 449.451Z" fill="#424440"/>
<path d="M352.799 454.987C359.867 454.987 365.597 449.256 365.597 442.188C365.597 435.119 359.867 429.389 352.799 429.389C345.73 429.389 340 435.119 340 442.188C340 449.256 345.73 454.987 352.799 454.987Z" fill="#424440"/>
<path d="M388.329 430.76C394.636 430.76 396.333 438.868 396.333 442.18C396.333 445.493 394.647 453.6 388.329 453.6C385.3 453.6 382.395 452.397 380.254 450.255C378.112 448.114 376.909 445.209 376.909 442.18C376.909 439.152 378.112 436.247 380.254 434.105C382.395 431.964 385.3 430.76 388.329 430.76Z" fill="#424440"/>
<path d="M417.458 433.394C415.933 432.949 414.299 433.06 412.847 433.706C411.157 434.465 409.721 435.694 408.71 437.246C407.699 438.799 407.156 440.609 407.146 442.462C407.163 443.932 407.508 445.381 408.158 446.7C408.807 448.02 409.743 449.178 410.898 450.089C413.01 451.726 416.565 452.854 418.902 451.065C420.236 450.05 420.686 448.253 420.98 446.676C421.326 444.815 421.444 442.92 421.331 441.031C421.264 440.023 421.14 439.02 420.959 438.026C420.822 437.032 420.475 436.079 419.942 435.23C419.345 434.355 418.47 433.708 417.458 433.394Z" fill="#424440"/>
<path d="M438.189 434.928C437.099 434.953 436.028 435.224 435.057 435.72C433.818 436.347 432.787 437.32 432.09 438.522C432.041 438.612 431.992 438.705 431.948 438.798C431.252 440.201 431.001 441.782 431.228 443.332C431.45 444.821 432.134 446.203 433.185 447.282C434.13 448.24 435.321 448.918 436.627 449.242H436.678C437.629 449.456 438.611 449.493 439.575 449.35C439.849 449.312 440.063 449.139 439.865 448.865C439.666 448.591 439.361 448.348 439.126 448.09C438.873 447.804 438.638 447.501 438.424 447.184C437.493 445.821 436.94 444.237 436.82 442.591C436.805 442.346 436.805 442.1 436.82 441.855C436.925 440.391 437.367 438.971 438.111 437.706C438.601 436.919 439.173 436.186 439.815 435.519C439.916 435.405 439.996 435.23 439.859 435.108C439.772 435.043 439.668 435.006 439.56 435C439.106 434.935 438.647 434.911 438.189 434.928Z" fill="#424440"/>
<path d="M552.114 417.156C559.183 417.156 564.913 411.426 564.913 404.357C564.913 397.289 559.183 391.559 552.114 391.559C545.046 391.559 539.315 397.289 539.315 404.357C539.315 411.426 545.046 417.156 552.114 417.156Z" fill="#424440"/>
<path d="M516.582 415.785C510.274 415.785 508.578 407.678 508.578 404.365C508.578 401.053 510.264 392.945 516.582 392.945C519.61 392.945 522.515 394.148 524.657 396.29C526.798 398.432 528.002 401.336 528.002 404.365C528.002 407.394 526.798 410.299 524.657 412.44C522.515 414.582 519.61 415.785 516.582 415.785Z" fill="#424440"/>
<path d="M487.45 413.154C488.976 413.598 490.61 413.487 492.061 412.839C493.751 412.082 495.188 410.853 496.199 409.301C497.21 407.749 497.752 405.939 497.762 404.086C497.745 402.615 497.4 401.167 496.751 399.846C496.102 398.526 495.165 397.368 494.01 396.457C491.898 394.82 488.33 393.694 486.006 395.481C484.671 396.495 484.222 398.295 483.928 399.87C483.582 401.731 483.464 403.627 483.577 405.517C483.645 406.525 483.769 407.528 483.949 408.522C484.087 409.515 484.434 410.467 484.966 411.316C485.564 412.19 486.439 412.838 487.45 413.154Z" fill="#424440"/>
<path d="M466.722 411.62C467.812 411.592 468.882 411.321 469.854 410.825C471.093 410.199 472.124 409.225 472.82 408.024C472.87 407.933 472.919 407.84 472.962 407.748C473.659 406.346 473.91 404.765 473.683 403.216C473.463 401.725 472.778 400.342 471.726 399.263C470.782 398.305 469.592 397.628 468.287 397.306H468.232C467.282 397.092 466.3 397.055 465.335 397.198C465.062 397.239 464.85 397.409 465.049 397.683C465.248 397.957 465.55 398.2 465.785 398.458C466.039 398.745 466.274 399.048 466.487 399.367C467.418 400.728 467.972 402.312 468.093 403.957C468.11 404.202 468.11 404.448 468.093 404.693C467.991 406.156 467.554 407.576 466.815 408.842C466.325 409.629 465.753 410.362 465.111 411.029C465.01 411.143 464.93 411.318 465.064 411.44C465.151 411.504 465.256 411.542 465.364 411.548C465.814 411.612 466.268 411.636 466.722 411.62Z" fill="#424440"/>
<path d="M352.799 417.156C359.867 417.156 365.597 411.426 365.597 404.357C365.597 397.289 359.867 391.559 352.799 391.559C345.73 391.559 340 397.289 340 404.357C340 411.426 345.73 417.156 352.799 417.156Z" fill="#424440"/>
<path d="M388.329 392.938C394.636 392.938 396.333 401.045 396.333 404.357C396.333 407.67 394.647 415.777 388.329 415.777C385.3 415.777 382.395 414.574 380.254 412.433C378.112 410.291 376.909 407.386 376.909 404.357C376.909 401.329 378.112 398.424 380.254 396.282C382.395 394.141 385.3 392.938 388.329 392.938Z" fill="#424440"/>
<path d="M417.458 395.561C415.932 395.117 414.298 395.228 412.847 395.876C411.157 396.633 409.72 397.862 408.709 399.414C407.698 400.966 407.156 402.776 407.146 404.629C407.163 406.1 407.508 407.548 408.157 408.869C408.806 410.189 409.743 411.347 410.898 412.258C413.01 413.895 416.565 415.021 418.902 413.234C420.236 412.219 420.686 410.42 420.98 408.858C421.326 406.997 421.444 405.101 421.331 403.211C421.264 402.203 421.14 401.2 420.959 400.206C420.822 399.213 420.475 398.261 419.942 397.412C419.347 396.533 418.471 395.88 417.458 395.561Z" fill="#424440"/>
<path d="M438.189 397.097C437.099 397.123 436.028 397.394 435.057 397.89C433.818 398.516 432.787 399.49 432.09 400.691C432.041 400.781 431.992 400.874 431.948 400.967C431.252 402.369 431.001 403.95 431.228 405.499C431.449 406.989 432.134 408.372 433.185 409.452C434.129 410.409 435.321 411.087 436.627 411.409H436.678C437.629 411.623 438.611 411.659 439.575 411.517C439.849 411.476 440.063 411.305 439.864 411.032C439.666 410.758 439.361 410.515 439.126 410.257C438.873 409.97 438.639 409.667 438.424 409.351C437.493 407.988 436.94 406.404 436.82 404.758C436.805 404.513 436.805 404.267 436.82 404.022C436.925 402.558 437.367 401.138 438.111 399.873C438.601 399.086 439.173 398.353 439.815 397.686C439.916 397.572 439.996 397.397 439.859 397.275C439.772 397.21 439.668 397.172 439.56 397.167C439.106 397.102 438.647 397.078 438.189 397.097Z" fill="#424440"/>
<path d="M552.114 379.325C559.183 379.325 564.913 373.595 564.913 366.527C564.913 359.458 559.183 353.728 552.114 353.728C545.046 353.728 539.315 359.458 539.315 366.527C539.315 373.595 545.046 379.325 552.114 379.325Z" fill="#424440"/>
<path d="M516.582 377.947C510.274 377.947 508.578 369.839 508.578 366.527C508.578 363.214 510.264 355.107 516.582 355.107C519.61 355.107 522.515 356.31 524.657 358.452C526.798 360.593 528.002 363.498 528.002 366.527C528.002 369.556 526.798 372.46 524.657 374.602C522.515 376.744 519.61 377.947 516.582 377.947Z" fill="#424440"/>
<path d="M487.45 375.321C488.975 375.766 490.609 375.655 492.061 375.009C493.751 374.25 495.187 373.022 496.198 371.47C497.208 369.918 497.751 368.108 497.762 366.256C497.745 364.785 497.4 363.336 496.751 362.016C496.102 360.696 495.165 359.537 494.01 358.626C491.898 356.989 488.33 355.861 486.006 357.65C484.671 358.665 484.222 360.462 483.928 362.039C483.582 363.899 483.464 365.795 483.577 367.684C483.645 368.691 483.769 369.695 483.949 370.689C484.087 371.682 484.434 372.635 484.966 373.485C485.563 374.359 486.439 375.006 487.45 375.321Z" fill="#424440"/>
<path d="M466.722 373.787C467.812 373.761 468.883 373.49 469.854 372.995C471.093 372.368 472.124 371.395 472.82 370.193C472.87 370.103 472.919 370.01 472.962 369.917C473.659 368.515 473.91 366.934 473.683 365.386C473.463 363.895 472.778 362.512 471.726 361.433C470.782 360.475 469.592 359.797 468.287 359.473H468.232C467.282 359.259 466.3 359.222 465.335 359.365C465.062 359.403 464.85 359.576 465.049 359.85C465.248 360.124 465.55 360.366 465.785 360.625C466.038 360.911 466.273 361.214 466.487 361.531C467.418 362.894 467.972 364.478 468.093 366.124C468.11 366.369 468.11 366.615 468.093 366.86C467.991 368.323 467.554 369.742 466.815 371.009C466.324 371.795 465.753 372.528 465.111 373.196C465.01 373.31 464.93 373.485 465.064 373.607C465.151 373.671 465.256 373.709 465.364 373.715C465.813 373.78 466.268 373.804 466.722 373.787Z" fill="#424440"/>
<path d="M352.799 379.325C359.867 379.325 365.597 373.595 365.597 366.527C365.597 359.458 359.867 353.728 352.799 353.728C345.73 353.728 340 359.458 340 366.527C340 373.595 345.73 379.325 352.799 379.325Z" fill="#424440"/>
<path d="M388.329 355.11C394.636 355.11 396.333 363.217 396.333 366.529C396.333 369.842 394.647 377.949 388.329 377.949C385.3 377.949 382.395 376.746 380.254 374.605C378.112 372.463 376.909 369.558 376.909 366.529C376.909 363.501 378.112 360.596 380.254 358.454C382.395 356.313 385.3 355.11 388.329 355.11Z" fill="#424440"/>
<path d="M417.458 357.73C415.932 357.286 414.298 357.398 412.847 358.045C411.157 358.803 409.72 360.031 408.709 361.583C407.698 363.135 407.156 364.946 407.146 366.798C407.162 368.269 407.508 369.717 408.157 371.037C408.806 372.357 409.742 373.515 410.898 374.425C413.01 376.065 416.565 377.19 418.902 375.404C420.236 374.389 420.686 372.589 420.98 371.027C421.326 369.166 421.444 367.27 421.331 365.381C421.264 364.373 421.14 363.369 420.959 362.375C420.823 361.382 420.476 360.43 419.942 359.582C419.347 358.702 418.471 358.05 417.458 357.73Z" fill="#424440"/>
<path d="M438.188 359.264C437.098 359.292 436.028 359.564 435.057 360.059C433.817 360.683 432.786 361.655 432.09 362.855C432.041 362.946 431.992 363.039 431.948 363.132C431.251 364.533 431 366.114 431.227 367.663C431.449 369.153 432.134 370.536 433.185 371.616C434.129 372.574 435.32 373.251 436.626 373.573H436.678C437.629 373.787 438.611 373.824 439.575 373.681C439.849 373.64 440.063 373.47 439.864 373.196C439.665 372.922 439.361 372.68 439.126 372.421C438.872 372.134 438.638 371.83 438.423 371.513C437.495 370.155 436.943 368.575 436.823 366.935C436.807 366.69 436.807 366.444 436.823 366.199C436.927 364.735 437.369 363.315 438.114 362.05C438.603 361.263 439.174 360.53 439.818 359.863C439.918 359.749 439.998 359.571 439.861 359.45C439.774 359.387 439.67 359.35 439.562 359.344C439.107 359.277 438.648 359.25 438.188 359.264Z" fill="#424440"/>
<path d="M552.114 341.495C559.183 341.495 564.913 335.765 564.913 328.696C564.913 321.628 559.183 315.898 552.114 315.898C545.046 315.898 539.315 321.628 539.315 328.696C539.315 335.765 545.046 341.495 552.114 341.495Z" fill="#424440"/>
<path d="M516.582 340.116C510.274 340.116 508.578 332.006 508.578 328.696C508.578 325.386 510.264 317.274 516.582 317.274C519.581 317.319 522.442 318.542 524.547 320.679C526.652 322.816 527.832 325.695 527.832 328.695C527.832 331.695 526.652 334.574 524.547 336.711C522.442 338.848 519.581 340.071 516.582 340.116Z" fill="#424440"/>
<path d="M487.45 337.49C488.975 337.935 490.609 337.825 492.061 337.178C493.75 336.419 495.185 335.19 496.195 333.637C497.205 332.085 497.747 330.275 497.757 328.423C497.74 326.952 497.394 325.504 496.745 324.184C496.096 322.864 495.16 321.706 494.005 320.796C491.893 319.159 488.325 318.03 486.001 319.817C484.666 320.834 484.217 322.631 483.923 324.206C483.572 326.062 483.449 327.954 483.556 329.84C483.624 330.848 483.749 331.851 483.928 332.845C484.066 333.838 484.413 334.79 484.945 335.639C485.545 336.523 486.428 337.176 487.45 337.49Z" fill="#424440"/>
<path d="M466.722 335.957C467.812 335.931 468.883 335.66 469.854 335.164C471.093 334.537 472.124 333.564 472.82 332.363C472.87 332.272 472.919 332.179 472.962 332.086C473.659 330.684 473.91 329.102 473.683 327.552C473.459 326.066 472.775 324.687 471.726 323.61C470.781 322.654 469.591 321.977 468.287 321.653H468.232C467.282 321.439 466.3 321.402 465.335 321.542C465.062 321.583 464.85 321.756 465.049 322.03C465.248 322.303 465.55 322.546 465.785 322.804C466.039 323.09 466.274 323.393 466.487 323.711C467.418 325.073 467.972 326.658 468.093 328.304C468.11 328.549 468.11 328.795 468.093 329.04C467.986 330.494 467.547 331.905 466.81 333.163C466.319 333.949 465.748 334.682 465.106 335.35C465.005 335.461 464.925 335.639 465.059 335.76C465.146 335.825 465.25 335.863 465.359 335.869C465.81 335.938 466.266 335.967 466.722 335.957Z" fill="#424440"/>
<path d="M352.799 341.495C359.867 341.495 365.597 335.765 365.597 328.696C365.597 321.628 359.867 315.898 352.799 315.898C345.73 315.898 340 321.628 340 328.696C340 335.765 345.73 341.495 352.799 341.495Z" fill="#424440"/>
<path d="M388.329 317.274C394.637 317.274 396.333 325.384 396.333 328.696C396.333 332.009 394.647 340.116 388.329 340.116C385.33 340.071 382.468 338.848 380.363 336.711C378.258 334.574 377.078 331.695 377.078 328.695C377.078 325.695 378.258 322.816 380.363 320.679C382.468 318.542 385.33 317.319 388.329 317.274Z" fill="#424440"/>
<path d="M417.458 319.9C415.932 319.457 414.299 319.567 412.847 320.212C411.157 320.971 409.721 322.199 408.71 323.752C407.699 325.304 407.156 327.115 407.146 328.967C407.163 330.438 407.508 331.886 408.157 333.206C408.806 334.526 409.743 335.684 410.898 336.594C413.01 338.234 416.565 339.36 418.902 337.573C420.236 336.556 420.686 334.759 420.98 333.184C421.326 331.323 421.444 329.427 421.331 327.537C421.264 326.529 421.14 325.526 420.959 324.532C420.823 323.539 420.476 322.586 419.942 321.738C419.345 320.863 418.47 320.215 417.458 319.9Z" fill="#424440"/>
<path d="M438.188 321.433C437.098 321.461 436.028 321.733 435.057 322.229C433.816 322.854 432.785 323.827 432.09 325.03C432.041 325.12 431.992 325.213 431.948 325.306C431.251 326.708 431 328.289 431.227 329.838C431.449 331.328 432.134 332.711 433.185 333.79C434.13 334.747 435.321 335.423 436.626 335.745H436.678C437.629 335.958 438.611 335.994 439.575 335.853C439.849 335.812 440.063 335.639 439.864 335.365C439.665 335.092 439.361 334.849 439.126 334.591C438.872 334.303 438.638 334 438.423 333.682C437.495 332.324 436.943 330.745 436.823 329.104C436.807 328.859 436.807 328.613 436.823 328.368C436.927 326.904 437.369 325.484 438.114 324.219C438.603 323.432 439.174 322.699 439.818 322.032C439.918 321.919 439.998 321.741 439.861 321.619C439.775 321.554 439.67 321.516 439.562 321.511C439.107 321.446 438.648 321.42 438.188 321.433Z" fill="#424440"/>
<path d="M552.114 303.664C559.183 303.664 564.913 297.934 564.913 290.866C564.913 283.797 559.183 278.067 552.114 278.067C545.046 278.067 539.315 283.797 539.315 290.866C539.315 297.934 545.046 303.664 552.114 303.664Z" fill="#424440"/>
<path d="M516.582 302.286C510.274 302.286 508.578 294.176 508.578 290.866C508.578 287.556 510.264 279.443 516.582 279.443C519.581 279.488 522.442 280.711 524.547 282.848C526.652 284.985 527.832 287.865 527.832 290.864C527.832 293.864 526.652 296.743 524.547 298.88C522.442 301.017 519.581 302.241 516.582 302.286Z" fill="#424440"/>
<path d="M487.45 299.66C488.976 300.102 490.61 299.989 492.061 299.34C493.749 298.581 495.183 297.353 496.193 295.802C497.203 294.251 497.746 292.443 497.757 290.592C497.74 289.121 497.394 287.673 496.745 286.353C496.096 285.034 495.16 283.876 494.005 282.965C491.893 281.325 488.325 280.2 486.001 281.986C484.666 283.004 484.217 284.801 483.923 286.376C483.572 288.232 483.449 290.124 483.556 292.01C483.624 293.017 483.749 294.021 483.928 295.015C484.066 296.008 484.413 296.96 484.945 297.809C485.546 298.692 486.429 299.345 487.45 299.66Z" fill="#424440"/>
<path d="M466.722 298.126C467.812 298.098 468.882 297.827 469.854 297.333C471.093 296.707 472.124 295.734 472.82 294.532C472.87 294.439 472.919 294.349 472.962 294.256C473.659 292.853 473.91 291.271 473.683 289.722C473.462 288.231 472.777 286.848 471.726 285.769C470.781 284.813 469.591 284.136 468.287 283.812L468.232 283.799C467.281 283.588 466.3 283.551 465.335 283.691C465.062 283.732 464.85 283.905 465.049 284.179C465.248 284.452 465.55 284.695 465.785 284.953C466.039 285.24 466.274 285.544 466.487 285.862C467.418 287.224 467.972 288.808 468.093 290.453C468.11 290.698 468.11 290.945 468.093 291.191C467.991 292.653 467.554 294.072 466.815 295.338C466.325 296.125 465.753 296.859 465.111 297.527C465.01 297.638 464.93 297.816 465.064 297.938C465.151 298.002 465.256 298.04 465.364 298.046C465.813 298.111 466.268 298.138 466.722 298.126Z" fill="#424440"/>
<path d="M352.799 303.664C359.867 303.664 365.597 297.934 365.597 290.866C365.597 283.797 359.867 278.067 352.799 278.067C345.73 278.067 340 283.797 340 290.866C340 297.934 345.73 303.664 352.799 303.664Z" fill="#424440"/>
<path d="M388.329 279.443C394.637 279.443 396.333 287.553 396.333 290.866C396.333 294.178 394.647 302.286 388.329 302.286C385.33 302.241 382.468 301.017 380.363 298.88C378.258 296.743 377.078 293.864 377.078 290.864C377.078 287.865 378.258 284.985 380.363 282.848C382.468 280.711 385.33 279.488 388.329 279.443Z" fill="#424440"/>
<path d="M417.458 282.069C415.932 281.626 414.299 281.737 412.847 282.382C411.157 283.14 409.721 284.369 408.71 285.921C407.699 287.474 407.156 289.284 407.146 291.137C407.163 292.608 407.508 294.056 408.157 295.376C408.806 296.695 409.743 297.853 410.898 298.764C413.01 300.403 416.565 301.529 418.902 299.742C420.236 298.725 420.686 296.928 420.98 295.353C421.326 293.493 421.444 291.598 421.331 289.709C421.264 288.701 421.14 287.698 420.959 286.704C420.823 285.711 420.476 284.758 419.942 283.91C419.346 283.034 418.47 282.385 417.458 282.069Z" fill="#424440"/>
<path d="M438.188 283.603C437.098 283.631 436.028 283.903 435.057 284.398C433.815 285.024 432.784 286 432.09 287.205C432.041 287.295 431.992 287.385 431.948 287.481C431.251 288.883 431 290.464 431.227 292.012C431.449 293.502 432.134 294.885 433.185 295.965C434.13 296.921 435.321 297.598 436.626 297.922H436.678C437.629 298.134 438.611 298.17 439.575 298.031C439.849 297.989 440.063 297.816 439.864 297.543C439.665 297.269 439.361 297.026 439.126 296.768C438.872 296.481 438.638 296.177 438.423 295.859C437.494 294.499 436.942 292.917 436.823 291.274C436.807 291.028 436.807 290.781 436.823 290.535C436.927 289.072 437.369 287.653 438.114 286.389C438.603 285.601 439.174 284.867 439.818 284.199C439.918 284.088 439.998 283.91 439.861 283.789C439.775 283.724 439.67 283.686 439.562 283.68C439.107 283.615 438.648 283.589 438.188 283.603Z" fill="#424440"/>
<path d="M552.114 265.831C559.183 265.831 564.913 260.101 564.913 253.033C564.913 245.964 559.183 240.234 552.114 240.234C545.046 240.234 539.315 245.964 539.315 253.033C539.315 260.101 545.046 265.831 552.114 265.831Z" fill="#424440"/>
<path d="M516.582 264.455C510.274 264.455 508.578 256.345 508.578 253.033C508.578 249.72 510.264 241.613 516.582 241.613C519.581 241.658 522.442 242.881 524.547 245.018C526.652 247.155 527.832 250.034 527.832 253.034C527.832 256.034 526.652 258.913 524.547 261.05C522.442 263.187 519.581 264.41 516.582 264.455Z" fill="#424440"/>
<path d="M487.45 261.829C488.975 262.273 490.609 262.162 492.061 261.517C493.75 260.758 495.185 259.528 496.195 257.976C497.205 256.424 497.747 254.613 497.757 252.761C497.74 251.291 497.395 249.842 496.745 248.523C496.096 247.203 495.16 246.045 494.005 245.134C491.893 243.495 488.325 242.369 486.001 244.156C484.666 245.173 484.217 246.97 483.923 248.545C483.572 250.401 483.449 252.293 483.556 254.179C483.624 255.187 483.749 256.19 483.928 257.184C484.066 258.177 484.413 259.129 484.945 259.978C485.546 260.862 486.429 261.514 487.45 261.829Z" fill="#424440"/>
<path d="M466.722 260.296C467.812 260.268 468.882 259.996 469.854 259.5C471.094 258.875 472.125 257.902 472.82 256.699C472.87 256.609 472.919 256.518 472.962 256.423C473.659 255.021 473.91 253.44 473.683 251.891C473.462 250.401 472.777 249.018 471.726 247.938C470.782 246.982 469.591 246.304 468.287 245.981L468.232 245.968C467.281 245.756 466.3 245.719 465.335 245.86C465.062 245.901 464.85 246.074 465.049 246.348C465.248 246.622 465.55 246.864 465.785 247.123C466.039 247.409 466.274 247.713 466.487 248.031C467.418 249.393 467.972 250.977 468.093 252.622C468.11 252.868 468.11 253.115 468.093 253.361C467.99 254.825 467.551 256.245 466.81 257.512C466.319 258.299 465.748 259.033 465.106 259.702C465.005 259.813 464.925 259.991 465.059 260.112C465.146 260.177 465.25 260.215 465.359 260.221C465.81 260.284 466.266 260.309 466.722 260.296Z" fill="#424440"/>
<path d="M352.799 265.831C359.867 265.831 365.597 260.101 365.597 253.033C365.597 245.964 359.867 240.234 352.799 240.234C345.73 240.234 340 245.964 340 253.033C340 260.101 345.73 265.831 352.799 265.831Z" fill="#424440"/>
<path d="M388.329 241.613C394.637 241.613 396.333 249.723 396.333 253.033C396.333 256.343 394.647 264.455 388.329 264.455C385.33 264.41 382.468 263.187 380.363 261.05C378.258 258.913 377.078 256.034 377.078 253.034C377.078 250.034 378.258 247.155 380.363 245.018C382.468 242.881 385.33 241.658 388.329 241.613Z" fill="#424440"/>
<path d="M417.458 244.239C415.933 243.794 414.299 243.904 412.847 244.551C411.157 245.31 409.721 246.538 408.71 248.091C407.699 249.643 407.156 251.454 407.146 253.306C407.163 254.777 407.508 256.225 408.158 257.545C408.807 258.865 409.743 260.022 410.898 260.933C413.01 262.57 416.565 263.699 418.902 261.912C420.236 260.895 420.686 259.098 420.98 257.523C421.326 255.663 421.444 253.767 421.331 251.879C421.264 250.871 421.14 249.867 420.959 248.873C420.823 247.88 420.476 246.928 419.942 246.08C419.346 245.203 418.47 244.554 417.458 244.239Z" fill="#424440"/>
<path d="M438.189 245.772C437.099 245.799 436.029 246.07 435.057 246.565C433.818 247.192 432.787 248.165 432.09 249.366C432.041 249.459 431.992 249.55 431.948 249.643C431.252 251.045 431.001 252.627 431.228 254.176C431.45 255.667 432.134 257.049 433.185 258.129C434.13 259.088 435.321 259.768 436.627 260.094H436.678C437.629 260.306 438.611 260.342 439.575 260.203C439.849 260.161 440.063 259.988 439.865 259.715C439.666 259.441 439.361 259.198 439.126 258.94C438.873 258.651 438.639 258.347 438.424 258.029C437.495 256.668 436.942 255.086 436.823 253.443C436.807 253.197 436.807 252.951 436.823 252.705C436.928 251.241 437.37 249.821 438.114 248.556C438.604 247.769 439.175 247.036 439.818 246.369C439.919 246.258 439.999 246.079 439.862 245.958C439.775 245.893 439.671 245.855 439.562 245.85C439.108 245.784 438.648 245.759 438.189 245.772Z" fill="#424440"/>
<path d="M552.114 228.001C559.183 228.001 564.913 222.271 564.913 215.202C564.913 208.134 559.183 202.403 552.114 202.403C545.046 202.403 539.315 208.134 539.315 215.202C539.315 222.271 545.046 228.001 552.114 228.001Z" fill="#424440"/>
<path d="M516.582 226.622C510.274 226.622 508.578 218.515 508.578 215.202C508.578 211.889 510.264 203.782 516.582 203.782C519.61 203.782 522.515 204.985 524.657 207.127C526.798 209.269 528.002 212.173 528.002 215.202C528.002 218.231 526.798 221.135 524.657 223.277C522.515 225.419 519.61 226.622 516.582 226.622Z" fill="#424440"/>
<path d="M487.45 223.999C488.975 224.443 490.609 224.333 492.061 223.689C493.75 222.929 495.186 221.7 496.196 220.147C497.206 218.594 497.748 216.783 497.757 214.931C497.74 213.46 497.395 212.012 496.745 210.692C496.096 209.372 495.16 208.215 494.005 207.304C491.893 205.664 488.325 204.539 486.001 206.325C484.666 207.343 484.217 209.14 483.923 210.702C483.571 212.562 483.448 214.458 483.556 216.348C483.625 217.356 483.749 218.36 483.928 219.354C484.069 220.344 484.419 221.294 484.953 222.14C485.551 223.024 486.431 223.679 487.45 223.999Z" fill="#424440"/>
<path d="M466.722 222.465C467.812 222.437 468.882 222.165 469.854 221.67C471.094 221.045 472.125 220.071 472.82 218.868C472.87 218.778 472.919 218.685 472.962 218.592C473.659 217.19 473.91 215.609 473.683 214.061C473.462 212.57 472.777 211.187 471.726 210.108C470.782 209.151 469.591 208.474 468.287 208.151L468.232 208.138C467.282 207.924 466.3 207.887 465.335 208.029C465.062 208.071 464.85 208.244 465.049 208.515C465.248 208.786 465.55 209.031 465.785 209.289C466.039 209.576 466.274 209.88 466.487 210.198C467.418 211.56 467.972 213.144 468.093 214.789C468.11 215.034 468.11 215.28 468.093 215.525C467.991 216.988 467.554 218.407 466.815 219.674C466.325 220.46 465.753 221.193 465.111 221.861C465.01 221.974 464.93 222.153 465.064 222.274C465.152 222.338 465.256 222.375 465.364 222.38C465.813 222.448 466.268 222.476 466.722 222.465Z" fill="#424440"/>
<path d="M352.799 228.001C359.867 228.001 365.597 222.271 365.597 215.202C365.597 208.134 359.867 202.403 352.799 202.403C345.73 202.403 340 208.134 340 215.202C340 222.271 345.73 228.001 352.799 228.001Z" fill="#424440"/>
<path d="M388.329 203.782C394.636 203.782 396.333 211.889 396.333 215.202C396.333 218.515 394.647 226.625 388.329 226.622C385.3 226.622 382.395 225.419 380.254 223.277C378.112 221.135 376.909 218.231 376.909 215.202C376.909 212.173 378.112 209.269 380.254 207.127C382.395 204.985 385.3 203.782 388.329 203.782Z" fill="#424440"/>
<path d="M417.458 206.408C415.933 205.963 414.299 206.074 412.847 206.72C411.157 207.479 409.721 208.708 408.71 210.26C407.699 211.813 407.156 213.623 407.146 215.476C407.163 216.946 407.508 218.395 408.158 219.714C408.807 221.034 409.743 222.192 410.898 223.103C413.01 224.74 416.565 225.868 418.902 224.079C420.236 223.064 420.686 221.267 420.98 219.702C421.326 217.842 421.444 215.947 421.331 214.058C421.264 213.05 421.14 212.047 420.959 211.053C420.822 210.059 420.475 209.106 419.942 208.257C419.347 207.377 418.472 206.725 417.458 206.408Z" fill="#424440"/>
<path d="M438.189 207.939C437.099 207.965 436.028 208.236 435.057 208.732C433.818 209.358 432.787 210.332 432.09 211.533C432.041 211.624 431.992 211.716 431.948 211.809C431.252 213.212 431.001 214.794 431.228 216.343C431.45 217.833 432.135 219.216 433.185 220.296C434.131 221.252 435.322 221.93 436.627 222.253H436.678C437.629 222.467 438.611 222.504 439.575 222.362C439.849 222.323 440.063 222.15 439.865 221.876C439.666 221.603 439.361 221.36 439.126 221.102C438.873 220.815 438.638 220.512 438.424 220.196C437.495 218.835 436.942 217.253 436.823 215.61C436.807 215.365 436.807 215.119 436.823 214.874C436.928 213.41 437.37 211.99 438.114 210.725C438.604 209.939 439.175 209.206 439.818 208.538C439.919 208.424 439.999 208.249 439.862 208.128C439.775 208.063 439.671 208.025 439.562 208.019C439.108 207.952 438.648 207.925 438.189 207.939Z" fill="#424440"/>
<path d="M552.114 190.17C559.183 190.17 564.913 184.44 564.913 177.372C564.913 170.303 559.183 164.573 552.114 164.573C545.046 164.573 539.315 170.303 539.315 177.372C539.315 184.44 545.046 190.17 552.114 190.17Z" fill="#424440"/>
<path d="M516.582 188.791C510.274 188.791 508.578 180.684 508.578 177.372C508.578 174.059 510.264 165.952 516.582 165.952C518.081 165.952 519.566 166.247 520.952 166.821C522.337 167.395 523.596 168.236 524.657 169.296C525.717 170.357 526.558 171.616 527.132 173.001C527.706 174.387 528.002 175.872 528.002 177.372C528.002 178.871 527.706 180.356 527.132 181.742C526.558 183.127 525.717 184.386 524.657 185.447C523.596 186.507 522.337 187.348 520.952 187.922C519.566 188.496 518.081 188.791 516.582 188.791Z" fill="#424440"/>
<path d="M487.449 186.168C488.975 186.612 490.609 186.501 492.061 185.853C493.75 185.095 495.186 183.866 496.196 182.314C497.206 180.762 497.747 178.952 497.757 177.1C497.741 175.629 497.396 174.18 496.748 172.86C496.1 171.539 495.164 170.38 494.01 169.468C491.898 167.831 488.33 166.706 486.006 168.492C484.671 169.507 484.222 171.307 483.928 172.869C483.574 174.73 483.449 176.627 483.556 178.518C483.624 179.526 483.749 180.529 483.928 181.523C484.066 182.516 484.413 183.468 484.945 184.317C485.546 185.2 486.429 185.852 487.449 186.168Z" fill="#424440"/>
<path d="M466.722 184.635C467.812 184.606 468.882 184.335 469.854 183.839C471.093 183.213 472.124 182.239 472.82 181.038C472.87 180.948 472.919 180.855 472.962 180.762C473.659 179.36 473.91 177.779 473.683 176.23C473.463 174.74 472.778 173.356 471.726 172.277C470.782 171.32 469.592 170.642 468.287 170.32L468.232 170.307C467.282 170.093 466.3 170.057 465.335 170.199C465.062 170.24 464.85 170.411 465.049 170.684C465.248 170.958 465.55 171.201 465.785 171.459C466.039 171.746 466.274 172.049 466.487 172.368C467.417 173.729 467.972 175.312 468.093 176.956C468.11 177.201 468.11 177.447 468.093 177.692C467.993 179.162 467.553 180.589 466.81 181.862C466.319 182.648 465.748 183.381 465.106 184.048C465.005 184.162 464.925 184.338 465.059 184.462C465.147 184.524 465.251 184.561 465.359 184.567C465.81 184.63 466.266 184.652 466.722 184.635Z" fill="#424440"/>
<path d="M352.799 190.17C359.867 190.17 365.597 184.44 365.597 177.372C365.597 170.303 359.867 164.573 352.799 164.573C345.73 164.573 340 170.303 340 177.372C340 184.44 345.73 190.17 352.799 190.17Z" fill="#424440"/>
<path d="M388.329 165.952C394.636 165.952 396.333 174.059 396.333 177.372C396.333 180.684 394.647 188.791 388.329 188.791C385.3 188.791 382.395 187.588 380.254 185.447C378.112 183.305 376.909 180.4 376.909 177.372C376.909 174.343 378.112 171.438 380.254 169.296C382.395 167.155 385.3 165.952 388.329 165.952Z" fill="#424440"/>
<path d="M417.458 168.577C415.933 168.133 414.299 168.243 412.847 168.89C411.157 169.647 409.72 170.876 408.709 172.428C407.698 173.98 407.156 175.79 407.146 177.643C407.163 179.114 407.508 180.562 408.157 181.883C408.806 183.203 409.743 184.361 410.898 185.272C413.01 186.909 416.565 188.038 418.902 186.248C420.236 185.234 420.686 183.434 420.98 181.872C421.326 180.011 421.444 178.115 421.331 176.225C421.264 175.218 421.14 174.215 420.959 173.222C420.823 172.229 420.476 171.275 419.942 170.426C419.347 169.547 418.472 168.895 417.458 168.577Z" fill="#424440"/>
<path d="M438.188 170.111C437.098 170.137 436.028 170.408 435.057 170.904C433.817 171.53 432.786 172.504 432.09 173.705C432.041 173.795 431.992 173.888 431.948 173.981C431.253 175.381 431.002 176.959 431.228 178.505C431.449 179.995 432.134 181.378 433.185 182.458C434.129 183.416 435.321 184.094 436.626 184.418H436.678C437.629 184.632 438.611 184.668 439.575 184.526C439.849 184.487 440.063 184.314 439.864 184.041C439.665 183.767 439.361 183.524 439.126 183.266C438.873 182.985 438.639 182.688 438.423 182.378C437.493 181.014 436.94 179.427 436.823 177.779C436.807 177.534 436.807 177.289 436.823 177.044C436.927 175.579 437.369 174.159 438.114 172.894C438.604 172.108 439.175 171.375 439.818 170.707C439.918 170.594 439.998 170.418 439.862 170.297C439.775 170.232 439.67 170.194 439.562 170.188C439.107 170.121 438.648 170.095 438.188 170.111Z" fill="#424440"/>
<path d="M552.114 152.34C559.183 152.34 564.913 146.609 564.913 139.541C564.913 132.472 559.183 126.742 552.114 126.742C545.046 126.742 539.315 132.472 539.315 139.541C539.315 146.609 545.046 152.34 552.114 152.34Z" fill="#424440"/>
<path d="M516.582 150.961C510.274 150.961 508.578 142.854 508.578 139.541C508.578 136.228 510.264 128.121 516.582 128.121C519.61 128.121 522.515 129.324 524.657 131.466C526.798 133.608 528.002 136.512 528.002 139.541C528.002 142.57 526.798 145.474 524.657 147.616C522.515 149.758 519.61 150.961 516.582 150.961Z" fill="#424440"/>
<path d="M487.45 148.335C488.975 148.78 490.609 148.669 492.061 148.023C493.751 147.263 495.187 146.032 496.197 144.479C497.207 142.925 497.749 141.113 497.757 139.26C497.74 137.789 497.395 136.34 496.745 135.02C496.096 133.699 495.16 132.541 494.005 131.63C491.893 129.993 488.325 128.865 486.001 130.654C484.666 131.669 484.217 133.466 483.923 135.03C483.57 136.893 483.447 138.792 483.556 140.685C483.624 141.693 483.748 142.696 483.928 143.69C484.068 144.685 484.417 145.639 484.953 146.489C485.552 147.37 486.432 148.02 487.45 148.335Z" fill="#424440"/>
<path d="M466.722 146.801C467.812 146.775 468.883 146.505 469.854 146.009C471.093 145.382 472.124 144.409 472.82 143.207C472.87 143.117 472.919 143.024 472.962 142.931C473.659 141.529 473.91 139.948 473.683 138.4C473.463 136.909 472.778 135.526 471.726 134.447C470.782 133.489 469.592 132.811 468.287 132.487H468.232C467.282 132.273 466.3 132.236 465.335 132.379C465.062 132.417 464.85 132.59 465.049 132.864C465.248 133.138 465.55 133.38 465.785 133.639C466.038 133.925 466.273 134.228 466.487 134.545C467.418 135.908 467.972 137.492 468.093 139.138C468.11 139.383 468.11 139.629 468.093 139.874C467.991 141.337 467.554 142.757 466.815 144.023C466.324 144.809 465.753 145.542 465.111 146.21C465.01 146.324 464.93 146.499 465.064 146.621C465.151 146.685 465.256 146.723 465.364 146.729C465.813 146.794 466.268 146.818 466.722 146.801Z" fill="#424440"/>
<path d="M352.799 152.34C359.867 152.34 365.597 146.609 365.597 139.541C365.597 132.472 359.867 126.742 352.799 126.742C345.73 126.742 340 132.472 340 139.541C340 146.609 345.73 152.34 352.799 152.34Z" fill="#424440"/>
<path d="M388.329 128.121C394.636 128.121 396.333 136.228 396.333 139.541C396.333 142.854 394.647 150.961 388.329 150.961C385.3 150.961 382.395 149.758 380.254 147.616C378.112 145.474 376.909 142.57 376.909 139.541C376.909 136.512 378.112 133.608 380.254 131.466C382.395 129.324 385.3 128.121 388.329 128.121Z" fill="#424440"/>
<path d="M417.458 130.739C415.932 130.295 414.298 130.407 412.847 131.054C411.157 131.812 409.72 133.04 408.709 134.592C407.698 136.144 407.156 137.955 407.146 139.807C407.162 141.278 407.508 142.726 408.157 144.046C408.806 145.366 409.742 146.523 410.898 147.434C413.01 149.074 416.565 150.199 418.902 148.413C420.236 147.398 420.686 145.598 420.98 144.036C421.326 142.175 421.444 140.279 421.331 138.389C421.269 137.383 421.15 136.38 420.975 135.387C420.838 134.394 420.491 133.441 419.958 132.593C419.359 131.71 418.477 131.056 417.458 130.739Z" fill="#424440"/>
<path d="M438.188 132.288C437.1 132.31 436.03 132.575 435.057 133.063C433.817 133.689 432.786 134.662 432.09 135.864C432.041 135.955 431.992 136.048 431.948 136.14C431.251 137.542 431 139.123 431.227 140.672C431.449 142.162 432.134 143.545 433.185 144.625C434.129 145.583 435.32 146.26 436.626 146.582H436.678C437.629 146.796 438.611 146.833 439.575 146.69C439.849 146.649 440.063 146.479 439.864 146.205C439.665 145.931 439.361 145.688 439.126 145.43C438.872 145.143 438.638 144.839 438.423 144.521C437.496 143.165 436.944 141.588 436.823 139.949C436.807 139.704 436.807 139.458 436.823 139.213C436.927 137.749 437.369 136.329 438.114 135.064C438.603 134.277 439.174 133.544 439.818 132.877C439.918 132.763 439.998 132.588 439.861 132.464C439.774 132.401 439.67 132.364 439.562 132.358C439.107 132.294 438.647 132.271 438.188 132.288Z" fill="#424440"/>
<path d="M552.114 114.509C559.183 114.509 564.913 108.779 564.913 101.71C564.913 94.6419 559.183 88.9117 552.114 88.9117C545.046 88.9117 539.315 94.6419 539.315 101.71C539.315 108.779 545.046 114.509 552.114 114.509Z" fill="#424440"/>
<path d="M516.582 113.13C510.274 113.13 508.578 105.021 508.578 101.71C508.578 98.4004 510.264 90.288 516.582 90.288C519.581 90.3331 522.442 91.5562 524.547 93.6932C526.652 95.8302 527.832 98.7095 527.832 101.709C527.832 104.709 526.652 107.588 524.547 109.725C522.442 111.862 519.581 113.085 516.582 113.13Z" fill="#424440"/>
<path d="M487.449 110.505C488.975 110.95 490.609 110.839 492.061 110.192C493.75 109.433 495.185 108.204 496.195 106.651C497.205 105.099 497.747 103.289 497.757 101.437C497.739 99.9678 497.394 98.5214 496.746 97.2031C496.097 95.8848 495.163 94.7281 494.01 93.8175C491.898 92.1805 488.33 91.0522 486.006 92.8415C484.671 93.8562 484.222 95.6532 483.928 97.2308C483.576 99.0832 483.451 100.972 483.556 102.854C483.624 103.862 483.748 104.865 483.928 105.86C484.066 106.852 484.412 107.804 484.945 108.653C485.545 109.538 486.428 110.191 487.449 110.505Z" fill="#424440"/>
<path d="M466.722 108.971C467.812 108.945 468.883 108.674 469.854 108.178C471.093 107.552 472.124 106.578 472.82 105.377C472.87 105.286 472.919 105.194 472.962 105.101C473.659 103.698 473.91 102.116 473.683 100.567C473.462 99.0763 472.777 97.6933 471.726 96.6137C470.781 95.6577 469.591 94.9805 468.287 94.6566H468.232C467.282 94.4426 466.3 94.4059 465.335 94.5482C465.062 94.5869 464.85 94.7599 465.049 95.0336C465.248 95.3073 465.55 95.55 465.785 95.8082C466.039 96.0941 466.274 96.3969 466.487 96.7144C467.418 98.0764 467.972 99.6601 468.093 101.305C468.108 101.55 468.108 101.796 468.093 102.041C467.989 103.503 467.551 104.923 466.815 106.19C466.324 106.976 465.753 107.709 465.111 108.377C465.01 108.488 464.93 108.666 465.064 108.788C465.151 108.852 465.256 108.89 465.364 108.896C465.813 108.961 466.268 108.986 466.722 108.971Z" fill="#424440"/>
<path d="M352.799 114.509C359.867 114.509 365.597 108.779 365.597 101.711C365.597 94.642 359.867 88.9119 352.799 88.9119C345.73 88.9119 340 94.642 340 101.711C340 108.779 345.73 114.509 352.799 114.509Z" fill="#424440"/>
<path d="M388.329 90.288C394.637 90.288 396.333 98.3978 396.333 101.71C396.333 105.023 394.647 113.13 388.329 113.13C385.33 113.085 382.468 111.862 380.363 109.725C378.258 107.588 377.078 104.709 377.078 101.709C377.078 98.7095 378.258 95.8302 380.363 93.6932C382.468 91.5562 385.33 90.3331 388.329 90.288Z" fill="#424440"/>
<path d="M417.458 92.9137C415.932 92.4705 414.299 92.5812 412.847 93.2261C411.157 93.9847 409.721 95.2135 408.71 96.766C407.699 98.3184 407.156 100.129 407.146 101.981C407.163 103.452 407.509 104.901 408.158 106.221C408.808 107.54 409.745 108.698 410.9 109.609C413.012 111.248 416.567 112.374 418.904 110.587C420.239 109.57 420.688 107.773 420.983 106.198C421.329 104.337 421.447 102.441 421.334 100.551C421.266 99.5431 421.142 98.5397 420.962 97.5457C420.825 96.5528 420.478 95.6004 419.945 94.7521C419.346 93.8769 418.47 93.2292 417.458 92.9137Z" fill="#424440"/>
<path d="M438.189 94.4474C437.098 94.4755 436.028 94.7472 435.057 95.2426C433.816 95.8677 432.785 96.8413 432.09 98.044C432.041 98.1344 431.992 98.2273 431.948 98.3203C431.251 99.7227 431 101.305 431.228 102.854C431.45 104.344 432.134 105.727 433.185 106.807C434.13 107.764 435.321 108.441 436.627 108.764L436.678 108.777C437.629 108.99 438.611 109.027 439.575 108.886C439.849 108.844 440.063 108.671 439.864 108.4C439.666 108.129 439.361 107.884 439.126 107.626C438.872 107.338 438.638 107.035 438.424 106.717C437.492 105.353 436.94 103.766 436.823 102.118C436.807 101.873 436.807 101.628 436.823 101.382C436.931 99.919 437.373 98.4997 438.114 97.2333C438.603 96.4464 439.175 95.7134 439.818 95.0464C439.919 94.9328 439.999 94.7546 439.862 94.6333C439.775 94.5682 439.671 94.5305 439.562 94.5248C439.107 94.4596 438.648 94.4337 438.189 94.4474Z" fill="#424440"/>
</g>
<defs>
<clipPath id="clip0_63_358">
<rect width="27.5511" height="249" fill="white" transform="translate(1125 204)"/>
</clipPath>
<clipPath id="clip1_63_358">
<rect width="224.91" height="479.567" fill="white" transform="translate(340 88.9119)"/>
</clipPath>
</defs>
</svg>
