<svg width="1332" height="825" viewBox="0 0 1332 825" fill="none" xmlns="http://www.w3.org/2000/svg">
<rect width="1332" height="825" fill="#F0F2F2"/>
<line x1="158" y1="249.75" x2="574" y2="249.75" stroke="#262825" stroke-width="0.5"/>
<path d="M158.68 263.56H163.984C164.384 263.56 164.763 263.601 165.12 263.684C165.477 263.767 165.807 263.885 166.108 264.04C166.412 264.192 166.685 264.377 166.928 264.596C167.173 264.812 167.381 265.057 167.552 265.332C167.723 265.604 167.853 265.9 167.944 266.22C168.037 266.54 168.084 266.879 168.084 267.236C168.084 267.593 168.037 267.933 167.944 268.256C167.853 268.579 167.721 268.877 167.548 269.152C167.377 269.427 167.171 269.675 166.928 269.896C166.685 270.115 166.412 270.303 166.108 270.46C165.804 270.615 165.473 270.733 165.116 270.816C164.759 270.899 164.381 270.94 163.984 270.94H160.36V275H158.68V263.56ZM163.852 269.38C164.241 269.38 164.593 269.331 164.908 269.232C165.223 269.131 165.491 268.987 165.712 268.8C165.933 268.613 166.104 268.389 166.224 268.128C166.344 267.864 166.404 267.568 166.404 267.24C166.404 266.915 166.345 266.621 166.228 266.36C166.111 266.099 165.943 265.876 165.724 265.692C165.505 265.508 165.24 265.367 164.928 265.268C164.619 265.169 164.271 265.12 163.884 265.12H160.36V269.38H163.852ZM171.541 275H169.921V266.18H171.541V268.996C171.645 268.556 171.793 268.163 171.985 267.816C172.179 267.467 172.419 267.171 172.705 266.928C172.99 266.685 173.319 266.5 173.693 266.372C174.069 266.244 174.49 266.18 174.957 266.18H175.361V267.724H174.961C174.315 267.724 173.774 267.784 173.337 267.904C172.899 268.021 172.547 268.2 172.281 268.44C172.017 268.68 171.827 268.983 171.713 269.348C171.598 269.711 171.541 270.137 171.541 270.628V275ZM178.721 265.16H177.021V263.16H178.721V265.16ZM178.681 275H177.061V266.18H178.681V275ZM182.227 275H180.607V266.18H182.227V268.636C182.331 268.215 182.475 267.837 182.659 267.504C182.846 267.171 183.067 266.888 183.323 266.656C183.579 266.424 183.867 266.247 184.187 266.124C184.507 266.001 184.854 265.94 185.227 265.94C185.622 265.94 185.98 266.009 186.303 266.148C186.628 266.284 186.914 266.483 187.159 266.744C187.407 267.005 187.611 267.325 187.771 267.704C187.934 268.08 188.05 268.507 188.119 268.984C188.204 268.512 188.338 268.088 188.519 267.712C188.7 267.336 188.922 267.017 189.183 266.756C189.447 266.492 189.748 266.291 190.087 266.152C190.426 266.011 190.794 265.94 191.191 265.94C191.655 265.94 192.07 266.035 192.435 266.224C192.803 266.413 193.114 266.687 193.367 267.044C193.623 267.399 193.818 267.832 193.951 268.344C194.087 268.853 194.155 269.428 194.155 270.068V275H192.535V270.068C192.535 269.183 192.367 268.517 192.031 268.072C191.698 267.627 191.192 267.404 190.515 267.404C190.152 267.404 189.827 267.468 189.539 267.596C189.251 267.721 189.007 267.905 188.807 268.148C188.607 268.388 188.454 268.684 188.347 269.036C188.243 269.385 188.191 269.783 188.191 270.228V275H186.571V270.068C186.571 269.183 186.403 268.517 186.067 268.072C185.734 267.627 185.228 267.404 184.551 267.404C184.188 267.404 183.863 267.468 183.575 267.596C183.287 267.721 183.043 267.905 182.843 268.148C182.643 268.388 182.49 268.684 182.383 269.036C182.279 269.385 182.227 269.783 182.227 270.228V275ZM196.048 269.252C196.048 268.745 196.141 268.288 196.328 267.88C196.515 267.472 196.781 267.124 197.128 266.836C197.477 266.548 197.899 266.327 198.392 266.172C198.888 266.017 199.445 265.94 200.064 265.94C200.717 265.94 201.303 266.028 201.82 266.204C202.337 266.377 202.776 266.628 203.136 266.956C203.496 267.284 203.772 267.685 203.964 268.16C204.156 268.632 204.252 269.168 204.252 269.768V275H202.632V272.628C202.525 273.033 202.363 273.397 202.144 273.72C201.928 274.043 201.664 274.317 201.352 274.544C201.043 274.768 200.689 274.94 200.292 275.06C199.895 275.18 199.464 275.24 199 275.24C198.517 275.24 198.079 275.176 197.684 275.048C197.289 274.92 196.951 274.74 196.668 274.508C196.388 274.276 196.171 273.997 196.016 273.672C195.864 273.344 195.788 272.98 195.788 272.58C195.788 272.177 195.867 271.815 196.024 271.492C196.184 271.169 196.412 270.896 196.708 270.672C197.007 270.445 197.368 270.272 197.792 270.152C198.219 270.032 198.697 269.972 199.228 269.972H202.632V269.768C202.632 269.405 202.571 269.079 202.448 268.788C202.328 268.495 202.156 268.247 201.932 268.044C201.708 267.839 201.436 267.681 201.116 267.572C200.796 267.463 200.436 267.408 200.036 267.408C199.628 267.408 199.275 267.452 198.976 267.54C198.68 267.628 198.435 267.753 198.24 267.916C198.048 268.076 197.904 268.269 197.808 268.496C197.715 268.723 197.668 268.975 197.668 269.252H196.048ZM199.212 271.332C198.612 271.332 198.157 271.433 197.848 271.636C197.541 271.836 197.388 272.133 197.388 272.528C197.388 272.736 197.432 272.921 197.52 273.084C197.611 273.247 197.743 273.383 197.916 273.492C198.089 273.601 198.303 273.685 198.556 273.744C198.812 273.8 199.105 273.828 199.436 273.828C199.905 273.828 200.335 273.773 200.724 273.664C201.116 273.552 201.453 273.397 201.736 273.2C202.019 273 202.239 272.763 202.396 272.488C202.553 272.211 202.632 271.907 202.632 271.576V271.332H199.212ZM207.757 275H206.137V266.18H207.757V268.996C207.861 268.556 208.009 268.163 208.201 267.816C208.396 267.467 208.636 267.171 208.921 266.928C209.206 266.685 209.536 266.5 209.909 266.372C210.285 266.244 210.706 266.18 211.173 266.18H211.577V267.724H211.177C210.532 267.724 209.99 267.784 209.553 267.904C209.116 268.021 208.764 268.2 208.497 268.44C208.233 268.68 208.044 268.983 207.929 269.348C207.814 269.711 207.757 270.137 207.757 270.628V275ZM221.673 266.18L218.021 275.556C217.837 276.025 217.622 276.431 217.377 276.772C217.134 277.113 216.854 277.395 216.537 277.616C216.222 277.84 215.869 278.005 215.477 278.112C215.088 278.219 214.654 278.272 214.177 278.272C214.046 278.272 213.92 278.268 213.797 278.26C213.674 278.252 213.556 278.241 213.441 278.228V276.812C213.582 276.831 213.713 276.844 213.833 276.852C213.956 276.86 214.073 276.864 214.185 276.864C214.718 276.864 215.153 276.76 215.489 276.552C215.825 276.344 216.077 276.012 216.245 275.556L216.357 275.26L212.857 266.18H214.537L217.269 273.524L220.033 266.18H221.673ZM229.121 263.56V273.44H235.009V275H227.441V263.56H229.121ZM236.2 270.588C236.2 270.124 236.247 269.687 236.34 269.276C236.433 268.865 236.568 268.488 236.744 268.144C236.92 267.8 237.135 267.492 237.388 267.22C237.641 266.945 237.927 266.713 238.244 266.524C238.564 266.335 238.915 266.191 239.296 266.092C239.677 265.991 240.083 265.94 240.512 265.94C240.944 265.94 241.349 265.991 241.728 266.092C242.109 266.191 242.459 266.335 242.776 266.524C243.096 266.713 243.383 266.945 243.636 267.22C243.889 267.492 244.104 267.8 244.28 268.144C244.456 268.488 244.591 268.865 244.684 269.276C244.777 269.687 244.824 270.124 244.824 270.588C244.824 271.052 244.777 271.489 244.684 271.9C244.591 272.311 244.456 272.689 244.28 273.036C244.104 273.38 243.889 273.688 243.636 273.96C243.383 274.232 243.096 274.464 242.776 274.656C242.459 274.845 242.109 274.989 241.728 275.088C241.349 275.189 240.944 275.24 240.512 275.24C240.083 275.24 239.677 275.189 239.296 275.088C238.915 274.989 238.564 274.845 238.244 274.656C237.927 274.464 237.641 274.232 237.388 273.96C237.135 273.688 236.92 273.38 236.744 273.036C236.568 272.689 236.433 272.311 236.34 271.9C236.247 271.489 236.2 271.052 236.2 270.588ZM237.82 270.588C237.82 271.081 237.881 271.525 238.004 271.92C238.129 272.312 238.308 272.647 238.54 272.924C238.775 273.199 239.059 273.409 239.392 273.556C239.725 273.703 240.1 273.776 240.516 273.776C240.932 273.776 241.305 273.703 241.636 273.556C241.969 273.409 242.252 273.199 242.484 272.924C242.716 272.647 242.893 272.312 243.016 271.92C243.141 271.525 243.204 271.081 243.204 270.588C243.204 270.095 243.141 269.652 243.016 269.26C242.893 268.865 242.716 268.531 242.484 268.256C242.252 267.981 241.969 267.771 241.636 267.624C241.305 267.477 240.932 267.404 240.516 267.404C240.1 267.404 239.725 267.477 239.392 267.624C239.059 267.771 238.775 267.981 238.54 268.256C238.308 268.531 238.129 268.865 238.004 269.26C237.881 269.652 237.82 270.095 237.82 270.588ZM254.964 266.18V273.4C254.964 273.885 254.917 274.343 254.824 274.772C254.731 275.201 254.596 275.596 254.42 275.956C254.247 276.316 254.033 276.639 253.78 276.924C253.527 277.212 253.24 277.456 252.92 277.656C252.603 277.856 252.253 278.008 251.872 278.112C251.493 278.219 251.089 278.272 250.66 278.272C250.292 278.272 249.94 278.233 249.604 278.156C249.268 278.081 248.955 277.973 248.664 277.832C248.376 277.691 248.113 277.52 247.876 277.32C247.641 277.123 247.44 276.901 247.272 276.656C247.104 276.411 246.975 276.144 246.884 275.856C246.793 275.571 246.748 275.272 246.748 274.96H248.368C248.368 275.139 248.395 275.309 248.448 275.472C248.504 275.635 248.581 275.787 248.68 275.928C248.781 276.072 248.901 276.201 249.04 276.316C249.181 276.433 249.337 276.532 249.508 276.612C249.679 276.695 249.861 276.759 250.056 276.804C250.253 276.849 250.459 276.872 250.672 276.872C251.077 276.872 251.444 276.789 251.772 276.624C252.103 276.459 252.384 276.224 252.616 275.92C252.848 275.616 253.027 275.251 253.152 274.824C253.28 274.397 253.344 273.923 253.344 273.4V272.008C253.229 272.44 253.068 272.831 252.86 273.18C252.655 273.529 252.409 273.828 252.124 274.076C251.841 274.321 251.523 274.511 251.168 274.644C250.816 274.775 250.436 274.84 250.028 274.84C249.673 274.84 249.336 274.791 249.016 274.692C248.696 274.591 248.399 274.448 248.124 274.264C247.852 274.077 247.605 273.852 247.384 273.588C247.165 273.321 246.979 273.024 246.824 272.696C246.669 272.365 246.549 272.007 246.464 271.62C246.381 271.231 246.34 270.82 246.34 270.388C246.34 269.956 246.381 269.547 246.464 269.16C246.549 268.771 246.669 268.412 246.824 268.084C246.979 267.753 247.165 267.456 247.384 267.192C247.605 266.928 247.852 266.704 248.124 266.52C248.399 266.333 248.696 266.191 249.016 266.092C249.336 265.991 249.673 265.94 250.028 265.94C250.436 265.94 250.816 266.007 251.168 266.14C251.523 266.271 251.841 266.46 252.124 266.708C252.409 266.953 252.655 267.251 252.86 267.6C253.068 267.949 253.229 268.34 253.344 268.772V266.18H254.964ZM253.344 270.388C253.344 269.916 253.281 269.493 253.156 269.12C253.031 268.744 252.849 268.427 252.612 268.168C252.377 267.907 252.088 267.708 251.744 267.572C251.403 267.433 251.015 267.364 250.58 267.364C250.159 267.364 249.785 267.429 249.46 267.56C249.135 267.691 248.86 267.884 248.636 268.14C248.415 268.396 248.247 268.712 248.132 269.088C248.017 269.464 247.96 269.897 247.96 270.388C247.96 270.879 248.017 271.312 248.132 271.688C248.249 272.064 248.419 272.38 248.64 272.636C248.861 272.892 249.135 273.087 249.46 273.22C249.788 273.351 250.161 273.416 250.58 273.416C251.015 273.416 251.403 273.347 251.744 273.208C252.088 273.069 252.377 272.871 252.612 272.612C252.849 272.351 253.031 272.033 253.156 271.66C253.281 271.284 253.344 270.86 253.344 270.388ZM256.683 270.588C256.683 270.124 256.73 269.687 256.823 269.276C256.916 268.865 257.051 268.488 257.227 268.144C257.403 267.8 257.618 267.492 257.871 267.22C258.124 266.945 258.41 266.713 258.727 266.524C259.047 266.335 259.398 266.191 259.779 266.092C260.16 265.991 260.566 265.94 260.995 265.94C261.427 265.94 261.832 265.991 262.211 266.092C262.592 266.191 262.942 266.335 263.259 266.524C263.579 266.713 263.866 266.945 264.119 267.22C264.372 267.492 264.587 267.8 264.763 268.144C264.939 268.488 265.074 268.865 265.167 269.276C265.26 269.687 265.307 270.124 265.307 270.588C265.307 271.052 265.26 271.489 265.167 271.9C265.074 272.311 264.939 272.689 264.763 273.036C264.587 273.38 264.372 273.688 264.119 273.96C263.866 274.232 263.579 274.464 263.259 274.656C262.942 274.845 262.592 274.989 262.211 275.088C261.832 275.189 261.427 275.24 260.995 275.24C260.566 275.24 260.16 275.189 259.779 275.088C259.398 274.989 259.047 274.845 258.727 274.656C258.41 274.464 258.124 274.232 257.871 273.96C257.618 273.688 257.403 273.38 257.227 273.036C257.051 272.689 256.916 272.311 256.823 271.9C256.73 271.489 256.683 271.052 256.683 270.588ZM258.303 270.588C258.303 271.081 258.364 271.525 258.487 271.92C258.612 272.312 258.791 272.647 259.023 272.924C259.258 273.199 259.542 273.409 259.875 273.556C260.208 273.703 260.583 273.776 260.999 273.776C261.415 273.776 261.788 273.703 262.119 273.556C262.452 273.409 262.735 273.199 262.967 272.924C263.199 272.647 263.376 272.312 263.499 271.92C263.624 271.525 263.687 271.081 263.687 270.588C263.687 270.095 263.624 269.652 263.499 269.26C263.376 268.865 263.199 268.531 262.967 268.256C262.735 267.981 262.452 267.771 262.119 267.624C261.788 267.477 261.415 267.404 260.999 267.404C260.583 267.404 260.208 267.477 259.875 267.624C259.542 267.771 259.258 267.981 259.023 268.256C258.791 268.531 258.612 268.865 258.487 269.26C258.364 269.652 258.303 270.095 258.303 270.588Z" fill="#262825"/>
<path d="M277.046 161.121H283.132L294.005 185.535H288.295L285.731 179.483H274.242L271.712 185.535H266.173L277.046 161.121ZM280.021 165.361L275.781 175.653H284.192L280.021 165.361ZM299.951 161.121H307.337L315.885 180.064L324.364 161.121H331.681V185.535H326.86L327.065 165.361H326.997L317.97 185.535H313.594L304.635 165.361H304.567L304.772 185.535H299.951V161.121ZM348.511 161.121H354.598L365.471 185.535H359.761L357.196 179.483H345.708L343.177 185.535H337.638L348.511 161.121ZM351.486 165.361L347.246 175.653H355.658L351.486 165.361ZM371.417 161.121H386.871C392.103 161.121 395.112 163.07 395.112 167.755C395.112 170.798 393.539 172.849 391.077 173.636V173.704C393.949 174.285 394.53 176.884 394.599 179.278C394.667 181.671 394.599 183.928 395.659 185.535H390.12C389.915 185.159 389.778 184.646 389.675 184.099C389.402 182.731 389.607 180.987 389.367 179.448C389.06 177.5 388.273 175.892 385.23 175.892H376.545V185.535H371.417V161.121ZM376.545 172.063H385.572C388.889 172.063 389.778 170.593 389.778 168.473C389.778 166.114 388.342 164.951 385.538 164.951H376.545V172.063ZM417.473 173.328C417.473 166.148 421.85 160.438 431.116 160.438C439.595 160.438 443.904 164.917 444.451 170.148H438.912C438.364 166.455 435.356 164.267 431.047 164.267C426.192 164.267 422.807 167.55 422.807 173.773C422.807 178.901 426.363 182.389 431.389 182.389C435.663 182.389 438.194 180.064 438.912 176.2H444.451C443.425 182.97 438.364 186.219 430.534 186.219C421.85 186.219 417.473 180.406 417.473 173.328ZM450.985 173.328C450.985 166.148 455.328 160.438 465.346 160.438C475.364 160.438 479.707 166.148 479.707 173.328C479.707 180.508 475.364 186.219 465.346 186.219C455.328 186.219 450.985 180.508 450.985 173.328ZM465.312 164.267C460.046 164.267 456.319 167.584 456.319 173.328C456.319 178.662 459.602 182.389 465.346 182.389C471.056 182.389 474.373 178.696 474.373 173.328C474.373 168.062 471.159 164.267 465.312 164.267Z" fill="#262825"/>
<path d="M228.283 199.15C231.192 202.479 234.556 205.353 238.306 207.666C242.092 209.979 246.402 212.012 250.923 212.012C252.921 212.012 254.814 210.925 256.25 209.594C258.213 207.771 259.79 205.563 260.842 203.11C261.087 202.514 261.367 201.533 260.386 201.743C258.318 202.164 256.215 202.304 254.148 202.129C251.87 201.848 249.627 201.182 247.594 200.131C245.561 199.15 243.634 197.958 241.776 196.626C240.444 195.645 239.183 194.559 238.026 193.367C236.554 191.895 234.837 190.493 233.856 188.601C233.82 188.566 233.645 188.32 233.715 188.285C237.851 185.026 241.566 181.206 244.685 176.965C247.699 172.97 250.117 168.554 251.905 163.893C254.043 158.215 254.148 154.745 254.183 153.694C254.288 141.673 246.367 128.6 236.344 122.222C234.416 121.03 232.348 120.014 230.246 119.243C227.407 118.191 224.253 117.28 221.414 118.822C218.4 120.469 216.227 124.044 214.404 126.778C212.792 129.091 211.425 131.579 210.339 134.173C200.841 142.444 192.991 153.098 187.664 164.313C185.771 168.238 184.229 172.304 183.037 176.474C181.811 180.715 181.145 185.131 181.005 189.547C180.935 194.173 181.636 198.939 183.353 203.25C184.65 206.51 187.173 209.839 190.748 210.715C194.743 211.696 198.774 210.715 202.489 209.068C204.066 208.367 205.573 207.561 207.045 206.685C213.143 203.145 219.276 199.5 225.024 195.365C224.919 195.47 228.073 198.904 228.283 199.15ZM221.869 192C221.659 192.316 221.133 192.596 220.327 193.122C213.774 197.327 204.206 204.407 196.425 198.974C183.633 190.073 189.171 169.325 194.988 158.145C198.108 152.187 202.208 145.808 207.36 141.427C207.781 141.077 208.201 140.656 208.587 140.271C205.888 154.149 209.147 168.203 215.526 180.645C217.243 183.974 219.171 187.199 221.274 190.248C221.94 191.194 222.115 191.615 221.869 192ZM215.491 131.089C216.017 129.792 216.753 128.495 218.084 127.934C219.837 127.163 221.94 127.724 223.622 128.355C225.619 129.091 227.442 130.247 229.229 131.404C232.033 133.191 234.627 135.364 236.905 137.818C239.708 140.797 242.021 144.231 243.669 147.981C247.734 157.199 246.823 167.117 241.285 175.528C240.304 177 239.218 178.402 238.026 179.699C236.94 180.89 235.783 182.012 234.627 183.098C233.891 183.834 233.084 184.535 232.278 185.166C231.998 185.376 231.612 185.306 231.402 185.026C230.035 183.168 225.094 176.544 222.991 172.584C220.082 167.187 217.874 161.439 216.367 155.481C215.736 152.958 215.14 150.47 214.65 147.946C214.124 145.388 213.879 142.794 213.844 140.166C213.809 137.502 214.229 134.874 215.035 132.35C215.175 131.965 215.316 131.509 215.491 131.089Z" fill="#262825"/>
<line x1="758" y1="560.75" x2="1174" y2="560.75" stroke="#262825" stroke-width="0.5"/>
<path d="M763.136 574.32C763.819 574.32 764.437 574.405 764.992 574.576C765.547 574.747 766.02 574.991 766.412 575.308C766.807 575.625 767.111 576.012 767.324 576.468C767.537 576.924 767.644 577.437 767.644 578.008H766.004C766.004 577.675 765.933 577.375 765.792 577.108C765.653 576.841 765.457 576.615 765.204 576.428C764.951 576.239 764.647 576.093 764.292 575.992C763.94 575.891 763.551 575.84 763.124 575.84C762.887 575.84 762.649 575.857 762.412 575.892C762.175 575.924 761.947 575.975 761.728 576.044C761.512 576.111 761.311 576.196 761.124 576.3C760.937 576.404 760.776 576.527 760.64 576.668C760.504 576.809 760.396 576.971 760.316 577.152C760.239 577.331 760.2 577.529 760.2 577.748C760.2 578.036 760.269 578.269 760.408 578.448C760.547 578.627 760.744 578.773 761 578.888C761.256 579 761.567 579.091 761.932 579.16C762.297 579.229 762.707 579.299 763.16 579.368L763.752 579.456C763.995 579.493 764.241 579.533 764.492 579.576C764.745 579.616 764.996 579.665 765.244 579.724C765.492 579.78 765.733 579.849 765.968 579.932C766.203 580.012 766.424 580.108 766.632 580.22C766.843 580.332 767.035 580.465 767.208 580.62C767.384 580.772 767.535 580.949 767.66 581.152C767.785 581.352 767.883 581.581 767.952 581.84C768.024 582.096 768.06 582.387 768.06 582.712C768.06 583.107 768.007 583.469 767.9 583.8C767.793 584.128 767.64 584.423 767.44 584.684C767.243 584.945 767.003 585.173 766.72 585.368C766.437 585.563 766.119 585.725 765.764 585.856C765.409 585.984 765.023 586.08 764.604 586.144C764.185 586.208 763.743 586.24 763.276 586.24C762.508 586.24 761.82 586.156 761.212 585.988C760.604 585.817 760.088 585.571 759.664 585.248C759.243 584.923 758.92 584.525 758.696 584.056C758.472 583.584 758.36 583.048 758.36 582.448H760C760 582.803 760.076 583.121 760.228 583.404C760.38 583.684 760.596 583.923 760.876 584.12C761.159 584.315 761.5 584.464 761.9 584.568C762.303 584.669 762.753 584.72 763.252 584.72C763.537 584.72 763.813 584.703 764.08 584.668C764.349 584.633 764.601 584.58 764.836 584.508C765.071 584.433 765.284 584.341 765.476 584.232C765.671 584.12 765.837 583.989 765.976 583.84C766.115 583.688 766.223 583.516 766.3 583.324C766.377 583.132 766.416 582.917 766.416 582.68C766.416 582.469 766.384 582.287 766.32 582.132C766.259 581.977 766.169 581.844 766.052 581.732C765.935 581.617 765.793 581.521 765.628 581.444C765.463 581.367 765.276 581.301 765.068 581.248C764.86 581.192 764.635 581.144 764.392 581.104C764.149 581.061 763.892 581.019 763.62 580.976L762.876 580.864C762.551 580.813 762.217 580.76 761.876 580.704C761.535 580.645 761.204 580.569 760.884 580.476C760.567 580.383 760.267 580.267 759.984 580.128C759.701 579.989 759.455 579.815 759.244 579.604C759.033 579.391 758.867 579.136 758.744 578.84C758.621 578.541 758.56 578.189 758.56 577.784C758.56 577.403 758.615 577.052 758.724 576.732C758.836 576.412 758.992 576.124 759.192 575.868C759.392 575.612 759.632 575.388 759.912 575.196C760.192 575.001 760.501 574.84 760.84 574.712C761.179 574.581 761.541 574.484 761.928 574.42C762.317 574.353 762.72 574.32 763.136 574.32ZM775.122 585.932C774.447 586.135 773.839 586.236 773.298 586.236C772.858 586.236 772.469 586.168 772.13 586.032C771.794 585.899 771.511 585.7 771.282 585.436C771.053 585.169 770.878 584.84 770.758 584.448C770.641 584.053 770.582 583.597 770.582 583.08V578.54H769.382V577.18H770.582V575.148H772.202V577.18H775.122V578.54H772.202V583.084C772.202 583.668 772.311 584.1 772.53 584.38C772.751 584.657 773.098 584.796 773.57 584.796C773.754 584.796 773.973 584.775 774.226 584.732C774.482 584.689 774.781 584.623 775.122 584.532V585.932ZM776.799 580.252C776.799 579.745 776.893 579.288 777.079 578.88C777.266 578.472 777.533 578.124 777.879 577.836C778.229 577.548 778.65 577.327 779.143 577.172C779.639 577.017 780.197 576.94 780.815 576.94C781.469 576.94 782.054 577.028 782.571 577.204C783.089 577.377 783.527 577.628 783.887 577.956C784.247 578.284 784.523 578.685 784.715 579.16C784.907 579.632 785.003 580.168 785.003 580.768V586H783.383V583.628C783.277 584.033 783.114 584.397 782.895 584.72C782.679 585.043 782.415 585.317 782.103 585.544C781.794 585.768 781.441 585.94 781.043 586.06C780.646 586.18 780.215 586.24 779.751 586.24C779.269 586.24 778.83 586.176 778.435 586.048C778.041 585.92 777.702 585.74 777.419 585.508C777.139 585.276 776.922 584.997 776.767 584.672C776.615 584.344 776.539 583.98 776.539 583.58C776.539 583.177 776.618 582.815 776.775 582.492C776.935 582.169 777.163 581.896 777.459 581.672C777.758 581.445 778.119 581.272 778.543 581.152C778.97 581.032 779.449 580.972 779.979 580.972H783.383V580.768C783.383 580.405 783.322 580.079 783.199 579.788C783.079 579.495 782.907 579.247 782.683 579.044C782.459 578.839 782.187 578.681 781.867 578.572C781.547 578.463 781.187 578.408 780.787 578.408C780.379 578.408 780.026 578.452 779.727 578.54C779.431 578.628 779.186 578.753 778.991 578.916C778.799 579.076 778.655 579.269 778.559 579.496C778.466 579.723 778.419 579.975 778.419 580.252H776.799ZM779.963 582.332C779.363 582.332 778.909 582.433 778.599 582.636C778.293 582.836 778.139 583.133 778.139 583.528C778.139 583.736 778.183 583.921 778.271 584.084C778.362 584.247 778.494 584.383 778.667 584.492C778.841 584.601 779.054 584.685 779.307 584.744C779.563 584.8 779.857 584.828 780.187 584.828C780.657 584.828 781.086 584.773 781.475 584.664C781.867 584.552 782.205 584.397 782.487 584.2C782.77 584 782.99 583.763 783.147 583.488C783.305 583.211 783.383 582.907 783.383 582.576V582.332H779.963ZM788.308 581.588C788.308 582.081 788.369 582.525 788.492 582.92C788.617 583.312 788.796 583.647 789.028 583.924C789.263 584.199 789.547 584.409 789.88 584.556C790.213 584.703 790.588 584.776 791.004 584.776C791.369 584.776 791.692 584.721 791.972 584.612C792.252 584.503 792.493 584.353 792.696 584.164C792.899 583.972 793.063 583.749 793.188 583.496C793.313 583.24 793.403 582.967 793.456 582.676H795.076C795.033 583.009 794.957 583.329 794.848 583.636C794.739 583.943 794.599 584.228 794.428 584.492C794.257 584.756 794.056 584.996 793.824 585.212C793.595 585.425 793.336 585.609 793.048 585.764C792.76 585.916 792.445 586.033 792.104 586.116C791.763 586.199 791.395 586.24 791 586.24C790.571 586.24 790.165 586.189 789.784 586.088C789.403 585.989 789.052 585.845 788.732 585.656C788.415 585.464 788.129 585.232 787.876 584.96C787.623 584.688 787.408 584.38 787.232 584.036C787.056 583.689 786.921 583.311 786.828 582.9C786.735 582.489 786.688 582.052 786.688 581.588C786.688 581.124 786.735 580.687 786.828 580.276C786.921 579.865 787.056 579.488 787.232 579.144C787.408 578.8 787.623 578.492 787.876 578.22C788.129 577.945 788.415 577.713 788.732 577.524C789.052 577.335 789.403 577.191 789.784 577.092C790.165 576.991 790.571 576.94 791 576.94C791.395 576.94 791.763 576.981 792.104 577.064C792.448 577.147 792.764 577.265 793.052 577.42C793.34 577.572 793.599 577.756 793.828 577.972C794.06 578.185 794.26 578.424 794.428 578.688C794.599 578.952 794.739 579.237 794.848 579.544C794.957 579.851 795.033 580.171 795.076 580.504H793.456C793.403 580.213 793.313 579.941 793.188 579.688C793.065 579.432 792.903 579.209 792.7 579.02C792.497 578.828 792.255 578.677 791.972 578.568C791.692 578.459 791.369 578.404 791.004 578.404C790.588 578.404 790.213 578.477 789.88 578.624C789.547 578.771 789.263 578.981 789.028 579.256C788.796 579.531 788.617 579.865 788.492 580.26C788.369 580.652 788.308 581.095 788.308 581.588ZM799.774 581.688L805.114 586H802.794L798.414 582.344V586H796.794V574.16H798.414V581.1L802.61 577.18H804.69L799.774 581.688ZM813.399 583.076C813.284 583.569 813.106 584.012 812.863 584.404C812.62 584.796 812.324 585.128 811.975 585.4C811.628 585.672 811.234 585.88 810.791 586.024C810.348 586.168 809.868 586.24 809.351 586.24C808.919 586.24 808.511 586.189 808.127 586.088C807.746 585.987 807.394 585.841 807.071 585.652C806.751 585.46 806.463 585.228 806.207 584.956C805.954 584.681 805.738 584.372 805.559 584.028C805.383 583.681 805.248 583.303 805.155 582.892C805.062 582.479 805.015 582.04 805.015 581.576C805.015 581.112 805.062 580.676 805.155 580.268C805.248 579.86 805.382 579.484 805.555 579.14C805.731 578.796 805.944 578.488 806.195 578.216C806.446 577.944 806.73 577.713 807.047 577.524C807.364 577.335 807.712 577.191 808.091 577.092C808.47 576.991 808.872 576.94 809.299 576.94C809.931 576.94 810.502 577.049 811.011 577.268C811.52 577.484 811.955 577.792 812.315 578.192C812.675 578.592 812.952 579.076 813.147 579.644C813.342 580.212 813.439 580.848 813.439 581.552C813.439 581.653 813.436 581.753 813.431 581.852C813.428 581.951 813.422 582.06 813.411 582.18H806.667C806.715 582.583 806.811 582.945 806.955 583.268C807.102 583.588 807.291 583.86 807.523 584.084C807.758 584.308 808.032 584.48 808.347 584.6C808.662 584.717 809.01 584.776 809.391 584.776C809.978 584.776 810.468 584.635 810.863 584.352C811.258 584.067 811.563 583.641 811.779 583.076H813.399ZM811.763 580.78C811.71 580.396 811.616 580.057 811.483 579.764C811.35 579.468 811.179 579.22 810.971 579.02C810.763 578.817 810.519 578.664 810.239 578.56C809.962 578.456 809.651 578.404 809.307 578.404C808.955 578.404 808.632 578.459 808.339 578.568C808.046 578.675 807.787 578.831 807.563 579.036C807.342 579.239 807.158 579.488 807.011 579.784C806.864 580.077 806.76 580.409 806.699 580.78H811.763ZM823.576 574.16V586H821.956V583.28C821.841 583.733 821.681 584.143 821.476 584.508C821.271 584.873 821.028 585.184 820.748 585.44C820.468 585.696 820.153 585.893 819.804 586.032C819.457 586.171 819.084 586.24 818.684 586.24C818.321 586.24 817.977 586.188 817.652 586.084C817.327 585.98 817.025 585.831 816.748 585.636C816.473 585.441 816.224 585.207 816 584.932C815.779 584.655 815.591 584.344 815.436 584C815.281 583.653 815.161 583.277 815.076 582.872C814.993 582.467 814.952 582.039 814.952 581.588C814.952 581.137 814.993 580.709 815.076 580.304C815.161 579.899 815.281 579.524 815.436 579.18C815.591 578.836 815.779 578.527 816 578.252C816.224 577.975 816.473 577.739 816.748 577.544C817.025 577.349 817.327 577.2 817.652 577.096C817.977 576.992 818.321 576.94 818.684 576.94C819.084 576.94 819.457 577.009 819.804 577.148C820.153 577.287 820.468 577.484 820.748 577.74C821.028 577.996 821.271 578.307 821.476 578.672C821.681 579.035 821.841 579.443 821.956 579.896V574.16H823.576ZM821.956 581.588C821.956 581.084 821.893 580.633 821.768 580.236C821.645 579.836 821.467 579.497 821.232 579.22C820.997 578.943 820.712 578.731 820.376 578.584C820.04 578.437 819.66 578.364 819.236 578.364C818.804 578.364 818.421 578.435 818.088 578.576C817.757 578.715 817.48 578.92 817.256 579.192C817.032 579.464 816.861 579.801 816.744 580.204C816.629 580.604 816.572 581.065 816.572 581.588C816.572 582.111 816.629 582.573 816.744 582.976C816.861 583.376 817.032 583.713 817.256 583.988C817.48 584.26 817.757 584.467 818.088 584.608C818.421 584.747 818.804 584.816 819.236 584.816C819.66 584.816 820.04 584.743 820.376 584.596C820.712 584.447 820.997 584.233 821.232 583.956C821.467 583.679 821.645 583.341 821.768 582.944C821.893 582.544 821.956 582.092 821.956 581.588ZM831.449 574.56V584.44H837.337V586H829.769V574.56H831.449ZM838.528 581.588C838.528 581.124 838.575 580.687 838.668 580.276C838.761 579.865 838.896 579.488 839.072 579.144C839.248 578.8 839.463 578.492 839.716 578.22C839.969 577.945 840.255 577.713 840.572 577.524C840.892 577.335 841.243 577.191 841.624 577.092C842.005 576.991 842.411 576.94 842.84 576.94C843.272 576.94 843.677 576.991 844.056 577.092C844.437 577.191 844.787 577.335 845.104 577.524C845.424 577.713 845.711 577.945 845.964 578.22C846.217 578.492 846.432 578.8 846.608 579.144C846.784 579.488 846.919 579.865 847.012 580.276C847.105 580.687 847.152 581.124 847.152 581.588C847.152 582.052 847.105 582.489 847.012 582.9C846.919 583.311 846.784 583.689 846.608 584.036C846.432 584.38 846.217 584.688 845.964 584.96C845.711 585.232 845.424 585.464 845.104 585.656C844.787 585.845 844.437 585.989 844.056 586.088C843.677 586.189 843.272 586.24 842.84 586.24C842.411 586.24 842.005 586.189 841.624 586.088C841.243 585.989 840.892 585.845 840.572 585.656C840.255 585.464 839.969 585.232 839.716 584.96C839.463 584.688 839.248 584.38 839.072 584.036C838.896 583.689 838.761 583.311 838.668 582.9C838.575 582.489 838.528 582.052 838.528 581.588ZM840.148 581.588C840.148 582.081 840.209 582.525 840.332 582.92C840.457 583.312 840.636 583.647 840.868 583.924C841.103 584.199 841.387 584.409 841.72 584.556C842.053 584.703 842.428 584.776 842.844 584.776C843.26 584.776 843.633 584.703 843.964 584.556C844.297 584.409 844.58 584.199 844.812 583.924C845.044 583.647 845.221 583.312 845.344 582.92C845.469 582.525 845.532 582.081 845.532 581.588C845.532 581.095 845.469 580.652 845.344 580.26C845.221 579.865 845.044 579.531 844.812 579.256C844.58 578.981 844.297 578.771 843.964 578.624C843.633 578.477 843.26 578.404 842.844 578.404C842.428 578.404 842.053 578.477 841.72 578.624C841.387 578.771 841.103 578.981 840.868 579.256C840.636 579.531 840.457 579.865 840.332 580.26C840.209 580.652 840.148 581.095 840.148 581.588ZM857.292 577.18V584.4C857.292 584.885 857.245 585.343 857.152 585.772C857.059 586.201 856.924 586.596 856.748 586.956C856.575 587.316 856.361 587.639 856.108 587.924C855.855 588.212 855.568 588.456 855.248 588.656C854.931 588.856 854.581 589.008 854.2 589.112C853.821 589.219 853.417 589.272 852.988 589.272C852.62 589.272 852.268 589.233 851.932 589.156C851.596 589.081 851.283 588.973 850.992 588.832C850.704 588.691 850.441 588.52 850.204 588.32C849.969 588.123 849.768 587.901 849.6 587.656C849.432 587.411 849.303 587.144 849.212 586.856C849.121 586.571 849.076 586.272 849.076 585.96H850.696C850.696 586.139 850.723 586.309 850.776 586.472C850.832 586.635 850.909 586.787 851.008 586.928C851.109 587.072 851.229 587.201 851.368 587.316C851.509 587.433 851.665 587.532 851.836 587.612C852.007 587.695 852.189 587.759 852.384 587.804C852.581 587.849 852.787 587.872 853 587.872C853.405 587.872 853.772 587.789 854.1 587.624C854.431 587.459 854.712 587.224 854.944 586.92C855.176 586.616 855.355 586.251 855.48 585.824C855.608 585.397 855.672 584.923 855.672 584.4V583.008C855.557 583.44 855.396 583.831 855.188 584.18C854.983 584.529 854.737 584.828 854.452 585.076C854.169 585.321 853.851 585.511 853.496 585.644C853.144 585.775 852.764 585.84 852.356 585.84C852.001 585.84 851.664 585.791 851.344 585.692C851.024 585.591 850.727 585.448 850.452 585.264C850.18 585.077 849.933 584.852 849.712 584.588C849.493 584.321 849.307 584.024 849.152 583.696C848.997 583.365 848.877 583.007 848.792 582.62C848.709 582.231 848.668 581.82 848.668 581.388C848.668 580.956 848.709 580.547 848.792 580.16C848.877 579.771 848.997 579.412 849.152 579.084C849.307 578.753 849.493 578.456 849.712 578.192C849.933 577.928 850.18 577.704 850.452 577.52C850.727 577.333 851.024 577.191 851.344 577.092C851.664 576.991 852.001 576.94 852.356 576.94C852.764 576.94 853.144 577.007 853.496 577.14C853.851 577.271 854.169 577.46 854.452 577.708C854.737 577.953 854.983 578.251 855.188 578.6C855.396 578.949 855.557 579.34 855.672 579.772V577.18H857.292ZM855.672 581.388C855.672 580.916 855.609 580.493 855.484 580.12C855.359 579.744 855.177 579.427 854.94 579.168C854.705 578.907 854.416 578.708 854.072 578.572C853.731 578.433 853.343 578.364 852.908 578.364C852.487 578.364 852.113 578.429 851.788 578.56C851.463 578.691 851.188 578.884 850.964 579.14C850.743 579.396 850.575 579.712 850.46 580.088C850.345 580.464 850.288 580.897 850.288 581.388C850.288 581.879 850.345 582.312 850.46 582.688C850.577 583.064 850.747 583.38 850.968 583.636C851.189 583.892 851.463 584.087 851.788 584.22C852.116 584.351 852.489 584.416 852.908 584.416C853.343 584.416 853.731 584.347 854.072 584.208C854.416 584.069 854.705 583.871 854.94 583.612C855.177 583.351 855.359 583.033 855.484 582.66C855.609 582.284 855.672 581.86 855.672 581.388ZM859.011 581.588C859.011 581.124 859.058 580.687 859.151 580.276C859.245 579.865 859.379 579.488 859.555 579.144C859.731 578.8 859.946 578.492 860.199 578.22C860.453 577.945 860.738 577.713 861.055 577.524C861.375 577.335 861.726 577.191 862.107 577.092C862.489 576.991 862.894 576.94 863.323 576.94C863.755 576.94 864.161 576.991 864.539 577.092C864.921 577.191 865.27 577.335 865.587 577.524C865.907 577.713 866.194 577.945 866.447 578.22C866.701 578.492 866.915 578.8 867.091 579.144C867.267 579.488 867.402 579.865 867.495 580.276C867.589 580.687 867.635 581.124 867.635 581.588C867.635 582.052 867.589 582.489 867.495 582.9C867.402 583.311 867.267 583.689 867.091 584.036C866.915 584.38 866.701 584.688 866.447 584.96C866.194 585.232 865.907 585.464 865.587 585.656C865.27 585.845 864.921 585.989 864.539 586.088C864.161 586.189 863.755 586.24 863.323 586.24C862.894 586.24 862.489 586.189 862.107 586.088C861.726 585.989 861.375 585.845 861.055 585.656C860.738 585.464 860.453 585.232 860.199 584.96C859.946 584.688 859.731 584.38 859.555 584.036C859.379 583.689 859.245 583.311 859.151 582.9C859.058 582.489 859.011 582.052 859.011 581.588ZM860.631 581.588C860.631 582.081 860.693 582.525 860.815 582.92C860.941 583.312 861.119 583.647 861.351 583.924C861.586 584.199 861.87 584.409 862.203 584.556C862.537 584.703 862.911 584.776 863.327 584.776C863.743 584.776 864.117 584.703 864.447 584.556C864.781 584.409 865.063 584.199 865.295 583.924C865.527 583.647 865.705 583.312 865.827 582.92C865.953 582.525 866.015 582.081 866.015 581.588C866.015 581.095 865.953 580.652 865.827 580.26C865.705 579.865 865.527 579.531 865.295 579.256C865.063 578.981 864.781 578.771 864.447 578.624C864.117 578.477 863.743 578.404 863.327 578.404C862.911 578.404 862.537 578.477 862.203 578.624C861.87 578.771 861.586 578.981 861.351 579.256C861.119 579.531 860.941 579.865 860.815 580.26C860.693 580.652 860.631 581.095 860.631 581.588Z" fill="#262825"/>
<path d="M963.199 434.859C970.47 443.182 978.881 450.366 988.255 456.148C997.717 461.93 1008.49 467.012 1019.8 467.012C1024.79 467.012 1029.52 464.296 1033.11 460.967C1038.02 456.411 1041.96 450.892 1044.59 444.759C1045.2 443.269 1045.9 440.816 1043.45 441.342C1038.28 442.393 1033.02 442.744 1027.86 442.306C1022.16 441.605 1016.55 439.94 1011.47 437.312C1006.39 434.859 1001.57 431.88 996.929 428.551C993.599 426.098 990.446 423.382 987.554 420.403C983.875 416.723 979.582 413.219 977.129 408.488C977.041 408.4 976.603 407.787 976.778 407.7C987.116 399.552 996.403 390.002 1004.2 379.401C1011.73 369.414 1017.78 358.375 1022.25 346.723C1027.59 332.53 1027.86 323.856 1027.94 321.228C1028.21 291.177 1008.41 258.499 983.349 242.554C978.53 239.575 973.361 237.034 968.105 235.107C961.008 232.478 953.123 230.2 946.027 234.055C938.492 238.173 933.061 247.109 928.505 253.943C924.475 259.725 921.058 265.946 918.342 272.429C894.599 293.105 874.975 319.738 861.658 347.774C856.927 357.586 853.072 367.749 850.093 378.175C847.027 388.776 845.362 399.815 845.012 410.854C844.837 422.418 846.589 434.333 850.882 445.109C854.123 453.257 860.431 461.58 869.368 463.77C879.355 466.223 889.43 463.77 898.717 459.653C902.66 457.9 906.427 455.885 910.107 453.695C925.351 444.846 940.683 435.735 955.051 425.397C954.788 425.66 962.673 434.246 963.199 434.859ZM947.166 416.986C946.64 417.775 945.326 418.476 943.311 419.79C926.928 430.303 903.01 448 883.561 434.421C851.583 412.168 865.425 360.302 879.969 332.354C887.766 317.461 898.016 301.515 910.895 290.564C911.946 289.688 912.998 288.637 913.961 287.673C907.215 322.367 915.363 357.499 931.308 388.6C935.601 396.923 940.42 404.984 945.676 412.606C947.341 414.971 947.779 416.023 947.166 416.986ZM931.221 264.719C932.535 261.477 934.375 258.236 937.704 256.834C942.084 254.907 947.341 256.308 951.546 257.885C956.54 259.725 961.096 262.616 965.564 265.507C972.573 269.976 979.056 275.408 984.751 281.54C991.76 288.987 997.542 297.573 1001.66 306.947C1011.82 329.989 1009.54 354.783 995.702 375.809C993.249 379.489 990.533 382.993 987.554 386.235C984.838 389.214 981.947 392.017 979.056 394.733C977.216 396.573 975.201 398.325 973.186 399.902C972.485 400.428 971.522 400.253 970.996 399.552C967.579 394.908 955.226 378.35 949.969 368.45C942.698 354.958 937.178 340.59 933.411 325.696C931.834 319.388 930.345 313.168 929.118 306.86C927.804 300.464 927.191 293.981 927.103 287.41C927.015 280.752 928.067 274.181 930.082 267.873C930.432 266.909 930.783 265.77 931.221 264.719Z" fill="#262825"/>
<path d="M858.452 510.444C858.452 505.404 861.5 501.396 868.532 501.396C875.564 501.396 878.612 505.404 878.612 510.444C878.612 513.084 877.772 515.556 875.732 517.284L878.084 519.276L876.356 521.268L873.332 518.676C872.18 519.156 870.716 519.492 868.532 519.492C861.5 519.492 858.452 515.484 858.452 510.444ZM868.508 504.084C864.812 504.084 862.196 506.412 862.196 510.444C862.196 514.164 864.476 516.804 868.556 516.804C869.468 516.804 870.164 516.708 870.764 516.468L869.18 515.1L870.884 513.132L873.164 515.076C874.076 514.164 874.868 512.7 874.868 510.444C874.868 506.748 872.612 504.084 868.508 504.084ZM889.466 501.876H893.738L901.37 519.012H897.362L895.562 514.764H887.498L885.722 519.012H881.834L889.466 501.876ZM891.554 504.852L888.578 512.076H894.482L891.554 504.852ZM905.544 501.876H910.728L916.728 515.172L922.68 501.876H927.816V519.012H924.432L924.576 504.852H924.528L918.192 519.012H915.12L908.832 504.852H908.784L908.928 519.012H905.544V501.876ZM939.629 501.876H943.901L951.533 519.012H947.525L945.725 514.764H937.661L935.885 519.012H931.997L939.629 501.876ZM941.717 504.852L938.741 512.076H944.645L941.717 504.852ZM955.707 501.876H966.555C970.227 501.876 972.339 503.244 972.339 506.532C972.339 508.668 971.235 510.108 969.507 510.66V510.708C971.523 511.116 971.931 512.94 971.979 514.62C972.027 516.3 971.979 517.884 972.723 519.012H968.835C968.691 518.748 968.595 518.388 968.523 518.004C968.331 517.044 968.475 515.82 968.307 514.74C968.091 513.372 967.539 512.244 965.403 512.244H959.307V519.012H955.707V501.876ZM959.307 509.556H965.643C967.971 509.556 968.595 508.524 968.595 507.036C968.595 505.38 967.587 504.564 965.619 504.564H959.307V509.556ZM988.035 510.444C988.035 505.404 991.107 501.396 997.611 501.396C1003.56 501.396 1006.59 504.54 1006.97 508.212H1003.08C1002.7 505.62 1000.59 504.084 997.563 504.084C994.155 504.084 991.779 506.388 991.779 510.756C991.779 514.356 994.275 516.804 997.803 516.804C1000.8 516.804 1002.58 515.172 1003.08 512.46H1006.97C1006.25 517.212 1002.7 519.492 997.203 519.492C991.107 519.492 988.035 515.412 988.035 510.444ZM1011.56 510.444C1011.56 505.404 1014.61 501.396 1021.64 501.396C1028.67 501.396 1031.72 505.404 1031.72 510.444C1031.72 515.484 1028.67 519.492 1021.64 519.492C1014.61 519.492 1011.56 515.484 1011.56 510.444ZM1021.61 504.084C1017.92 504.084 1015.3 506.412 1015.3 510.444C1015.3 514.188 1017.61 516.804 1021.64 516.804C1025.65 516.804 1027.97 514.212 1027.97 510.444C1027.97 506.748 1025.72 504.084 1021.61 504.084Z" fill="#262825"/>
<line x1="158" y1="675.75" x2="574" y2="675.75" stroke="#262825" stroke-width="0.5"/>
<path d="M158.14 701L162.404 689.56H164.924L169.132 701H167.348L166.304 698.132H160.944L159.884 701H158.14ZM165.748 696.612L163.644 690.828L161.504 696.612H165.748ZM172.166 701H170.546V689.16H172.166V701ZM179.512 700.932C178.837 701.135 178.229 701.236 177.688 701.236C177.248 701.236 176.859 701.168 176.52 701.032C176.184 700.899 175.901 700.7 175.672 700.436C175.443 700.169 175.268 699.84 175.148 699.448C175.031 699.053 174.972 698.597 174.972 698.08V693.54H173.772V692.18H174.972V690.148H176.592V692.18H179.512V693.54H176.592V698.084C176.592 698.668 176.701 699.1 176.92 699.38C177.141 699.657 177.488 699.796 177.96 699.796C178.144 699.796 178.363 699.775 178.616 699.732C178.872 699.689 179.171 699.623 179.512 699.532V700.932ZM189.119 698.076C189.004 698.569 188.826 699.012 188.583 699.404C188.34 699.796 188.044 700.128 187.695 700.4C187.348 700.672 186.954 700.88 186.511 701.024C186.068 701.168 185.588 701.24 185.071 701.24C184.639 701.24 184.231 701.189 183.847 701.088C183.466 700.987 183.114 700.841 182.791 700.652C182.471 700.46 182.183 700.228 181.927 699.956C181.674 699.681 181.458 699.372 181.279 699.028C181.103 698.681 180.968 698.303 180.875 697.892C180.782 697.479 180.735 697.04 180.735 696.576C180.735 696.112 180.782 695.676 180.875 695.268C180.968 694.86 181.102 694.484 181.275 694.14C181.451 693.796 181.664 693.488 181.915 693.216C182.166 692.944 182.45 692.713 182.767 692.524C183.084 692.335 183.432 692.191 183.811 692.092C184.19 691.991 184.592 691.94 185.019 691.94C185.651 691.94 186.222 692.049 186.731 692.268C187.24 692.484 187.675 692.792 188.035 693.192C188.395 693.592 188.672 694.076 188.867 694.644C189.062 695.212 189.159 695.848 189.159 696.552C189.159 696.653 189.156 696.753 189.151 696.852C189.148 696.951 189.142 697.06 189.131 697.18H182.387C182.435 697.583 182.531 697.945 182.675 698.268C182.822 698.588 183.011 698.86 183.243 699.084C183.478 699.308 183.752 699.48 184.067 699.6C184.382 699.717 184.73 699.776 185.111 699.776C185.698 699.776 186.188 699.635 186.583 699.352C186.978 699.067 187.283 698.641 187.499 698.076H189.119ZM187.483 695.78C187.43 695.396 187.336 695.057 187.203 694.764C187.07 694.468 186.899 694.22 186.691 694.02C186.483 693.817 186.239 693.664 185.959 693.56C185.682 693.456 185.371 693.404 185.027 693.404C184.675 693.404 184.352 693.459 184.059 693.568C183.766 693.675 183.507 693.831 183.283 694.036C183.062 694.239 182.878 694.488 182.731 694.784C182.584 695.077 182.48 695.409 182.419 695.78H187.483ZM192.492 701H190.872V692.18H192.492V694.996C192.596 694.556 192.744 694.163 192.936 693.816C193.131 693.467 193.371 693.171 193.656 692.928C193.941 692.685 194.271 692.5 194.644 692.372C195.02 692.244 195.441 692.18 195.908 692.18H196.312V693.724H195.912C195.267 693.724 194.725 693.784 194.288 693.904C193.851 694.021 193.499 694.2 193.232 694.44C192.968 694.68 192.779 694.983 192.664 695.348C192.549 695.711 192.492 696.137 192.492 696.628V701ZM199.632 701H198.012V692.18H199.632V694.728C199.739 694.293 199.892 693.904 200.092 693.56C200.292 693.216 200.532 692.924 200.812 692.684C201.092 692.444 201.408 692.26 201.76 692.132C202.115 692.004 202.497 691.94 202.908 691.94C203.409 691.94 203.859 692.035 204.256 692.224C204.653 692.413 204.989 692.687 205.264 693.044C205.541 693.399 205.752 693.832 205.896 694.344C206.043 694.853 206.116 695.428 206.116 696.068V701H204.496V696.068C204.496 695.183 204.308 694.517 203.932 694.072C203.556 693.627 202.989 693.404 202.232 693.404C201.824 693.404 201.459 693.468 201.136 693.596C200.816 693.721 200.544 693.905 200.32 694.148C200.099 694.388 199.928 694.684 199.808 695.036C199.691 695.385 199.632 695.783 199.632 696.228V701ZM208.016 695.252C208.016 694.745 208.109 694.288 208.296 693.88C208.482 693.472 208.749 693.124 209.096 692.836C209.445 692.548 209.866 692.327 210.36 692.172C210.856 692.017 211.413 691.94 212.032 691.94C212.685 691.94 213.27 692.028 213.788 692.204C214.305 692.377 214.744 692.628 215.104 692.956C215.464 693.284 215.74 693.685 215.932 694.16C216.124 694.632 216.22 695.168 216.22 695.768V701H214.6V698.628C214.493 699.033 214.33 699.397 214.112 699.72C213.896 700.043 213.632 700.317 213.32 700.544C213.01 700.768 212.657 700.94 212.26 701.06C211.862 701.18 211.432 701.24 210.968 701.24C210.485 701.24 210.046 701.176 209.652 701.048C209.257 700.92 208.918 700.74 208.636 700.508C208.356 700.276 208.138 699.997 207.984 699.672C207.832 699.344 207.756 698.98 207.756 698.58C207.756 698.177 207.834 697.815 207.992 697.492C208.152 697.169 208.38 696.896 208.676 696.672C208.974 696.445 209.336 696.272 209.76 696.152C210.186 696.032 210.665 695.972 211.196 695.972H214.6V695.768C214.6 695.405 214.538 695.079 214.416 694.788C214.296 694.495 214.124 694.247 213.9 694.044C213.676 693.839 213.404 693.681 213.084 693.572C212.764 693.463 212.404 693.408 212.004 693.408C211.596 693.408 211.242 693.452 210.944 693.54C210.648 693.628 210.402 693.753 210.208 693.916C210.016 694.076 209.872 694.269 209.776 694.496C209.682 694.723 209.636 694.975 209.636 695.252H208.016ZM211.18 697.332C210.58 697.332 210.125 697.433 209.816 697.636C209.509 697.836 209.356 698.133 209.356 698.528C209.356 698.736 209.4 698.921 209.488 699.084C209.578 699.247 209.71 699.383 209.884 699.492C210.057 699.601 210.27 699.685 210.524 699.744C210.78 699.8 211.073 699.828 211.404 699.828C211.873 699.828 212.302 699.773 212.692 699.664C213.084 699.552 213.421 699.397 213.704 699.2C213.986 699 214.206 698.763 214.364 698.488C214.521 698.211 214.6 697.907 214.6 697.576V697.332H211.18ZM223.399 700.932C222.725 701.135 222.117 701.236 221.575 701.236C221.135 701.236 220.746 701.168 220.407 701.032C220.071 700.899 219.789 700.7 219.559 700.436C219.33 700.169 219.155 699.84 219.035 699.448C218.918 699.053 218.859 698.597 218.859 698.08V693.54H217.659V692.18H218.859V690.148H220.479V692.18H223.399V693.54H220.479V698.084C220.479 698.668 220.589 699.1 220.807 699.38C221.029 699.657 221.375 699.796 221.847 699.796C222.031 699.796 222.25 699.775 222.503 699.732C222.759 699.689 223.058 699.623 223.399 699.532V700.932ZM233.007 698.076C232.892 698.569 232.713 699.012 232.471 699.404C232.228 699.796 231.932 700.128 231.583 700.4C231.236 700.672 230.841 700.88 230.399 701.024C229.956 701.168 229.476 701.24 228.959 701.24C228.527 701.24 228.119 701.189 227.735 701.088C227.353 700.987 227.001 700.841 226.679 700.652C226.359 700.46 226.071 700.228 225.815 699.956C225.561 699.681 225.345 699.372 225.167 699.028C224.991 698.681 224.856 698.303 224.763 697.892C224.669 697.479 224.623 697.04 224.623 696.576C224.623 696.112 224.669 695.676 224.763 695.268C224.856 694.86 224.989 694.484 225.163 694.14C225.339 693.796 225.552 693.488 225.803 693.216C226.053 692.944 226.337 692.713 226.655 692.524C226.972 692.335 227.32 692.191 227.699 692.092C228.077 691.991 228.48 691.94 228.907 691.94C229.539 691.94 230.109 692.049 230.619 692.268C231.128 692.484 231.563 692.792 231.923 693.192C232.283 693.592 232.56 694.076 232.755 694.644C232.949 695.212 233.047 695.848 233.047 696.552C233.047 696.653 233.044 696.753 233.039 696.852C233.036 696.951 233.029 697.06 233.019 697.18H226.275C226.323 697.583 226.419 697.945 226.563 698.268C226.709 698.588 226.899 698.86 227.131 699.084C227.365 699.308 227.64 699.48 227.955 699.6C228.269 699.717 228.617 699.776 228.999 699.776C229.585 699.776 230.076 699.635 230.471 699.352C230.865 699.067 231.171 698.641 231.387 698.076H233.007ZM231.371 695.78C231.317 695.396 231.224 695.057 231.091 694.764C230.957 694.468 230.787 694.22 230.579 694.02C230.371 693.817 230.127 693.664 229.847 693.56C229.569 693.456 229.259 693.404 228.915 693.404C228.563 693.404 228.24 693.459 227.947 693.568C227.653 693.675 227.395 693.831 227.171 694.036C226.949 694.239 226.765 694.488 226.619 694.784C226.472 695.077 226.368 695.409 226.307 695.78H231.371ZM240.713 689.56V699.44H246.601V701H239.033V689.56H240.713ZM247.793 696.588C247.793 696.124 247.839 695.687 247.933 695.276C248.026 694.865 248.161 694.488 248.337 694.144C248.513 693.8 248.727 693.492 248.981 693.22C249.234 692.945 249.519 692.713 249.837 692.524C250.157 692.335 250.507 692.191 250.889 692.092C251.27 691.991 251.675 691.94 252.105 691.94C252.537 691.94 252.942 691.991 253.321 692.092C253.702 692.191 254.051 692.335 254.369 692.524C254.689 692.713 254.975 692.945 255.229 693.22C255.482 693.492 255.697 693.8 255.873 694.144C256.049 694.488 256.183 694.865 256.277 695.276C256.37 695.687 256.417 696.124 256.417 696.588C256.417 697.052 256.37 697.489 256.277 697.9C256.183 698.311 256.049 698.689 255.873 699.036C255.697 699.38 255.482 699.688 255.229 699.96C254.975 700.232 254.689 700.464 254.369 700.656C254.051 700.845 253.702 700.989 253.321 701.088C252.942 701.189 252.537 701.24 252.105 701.24C251.675 701.24 251.27 701.189 250.889 701.088C250.507 700.989 250.157 700.845 249.837 700.656C249.519 700.464 249.234 700.232 248.981 699.96C248.727 699.688 248.513 699.38 248.337 699.036C248.161 698.689 248.026 698.311 247.933 697.9C247.839 697.489 247.793 697.052 247.793 696.588ZM249.413 696.588C249.413 697.081 249.474 697.525 249.597 697.92C249.722 698.312 249.901 698.647 250.133 698.924C250.367 699.199 250.651 699.409 250.985 699.556C251.318 699.703 251.693 699.776 252.109 699.776C252.525 699.776 252.898 699.703 253.229 699.556C253.562 699.409 253.845 699.199 254.077 698.924C254.309 698.647 254.486 698.312 254.609 697.92C254.734 697.525 254.797 697.081 254.797 696.588C254.797 696.095 254.734 695.652 254.609 695.26C254.486 694.865 254.309 694.531 254.077 694.256C253.845 693.981 253.562 693.771 253.229 693.624C252.898 693.477 252.525 693.404 252.109 693.404C251.693 693.404 251.318 693.477 250.985 693.624C250.651 693.771 250.367 693.981 250.133 694.256C249.901 694.531 249.722 694.865 249.597 695.26C249.474 695.652 249.413 696.095 249.413 696.588ZM266.557 692.18V699.4C266.557 699.885 266.51 700.343 266.417 700.772C266.323 701.201 266.189 701.596 266.013 701.956C265.839 702.316 265.626 702.639 265.373 702.924C265.119 703.212 264.833 703.456 264.513 703.656C264.195 703.856 263.846 704.008 263.465 704.112C263.086 704.219 262.682 704.272 262.253 704.272C261.885 704.272 261.533 704.233 261.197 704.156C260.861 704.081 260.547 703.973 260.257 703.832C259.969 703.691 259.706 703.52 259.469 703.32C259.234 703.123 259.033 702.901 258.865 702.656C258.697 702.411 258.567 702.144 258.477 701.856C258.386 701.571 258.341 701.272 258.341 700.96H259.961C259.961 701.139 259.987 701.309 260.041 701.472C260.097 701.635 260.174 701.787 260.273 701.928C260.374 702.072 260.494 702.201 260.633 702.316C260.774 702.433 260.93 702.532 261.101 702.612C261.271 702.695 261.454 702.759 261.649 702.804C261.846 702.849 262.051 702.872 262.265 702.872C262.67 702.872 263.037 702.789 263.365 702.624C263.695 702.459 263.977 702.224 264.209 701.92C264.441 701.616 264.619 701.251 264.745 700.824C264.873 700.397 264.937 699.923 264.937 699.4V698.008C264.822 698.44 264.661 698.831 264.453 699.18C264.247 699.529 264.002 699.828 263.717 700.076C263.434 700.321 263.115 700.511 262.761 700.644C262.409 700.775 262.029 700.84 261.621 700.84C261.266 700.84 260.929 700.791 260.609 700.692C260.289 700.591 259.991 700.448 259.717 700.264C259.445 700.077 259.198 699.852 258.977 699.588C258.758 699.321 258.571 699.024 258.417 698.696C258.262 698.365 258.142 698.007 258.057 697.62C257.974 697.231 257.933 696.82 257.933 696.388C257.933 695.956 257.974 695.547 258.057 695.16C258.142 694.771 258.262 694.412 258.417 694.084C258.571 693.753 258.758 693.456 258.977 693.192C259.198 692.928 259.445 692.704 259.717 692.52C259.991 692.333 260.289 692.191 260.609 692.092C260.929 691.991 261.266 691.94 261.621 691.94C262.029 691.94 262.409 692.007 262.761 692.14C263.115 692.271 263.434 692.46 263.717 692.708C264.002 692.953 264.247 693.251 264.453 693.6C264.661 693.949 264.822 694.34 264.937 694.772V692.18H266.557ZM264.937 696.388C264.937 695.916 264.874 695.493 264.749 695.12C264.623 694.744 264.442 694.427 264.205 694.168C263.97 693.907 263.681 693.708 263.337 693.572C262.995 693.433 262.607 693.364 262.173 693.364C261.751 693.364 261.378 693.429 261.053 693.56C260.727 693.691 260.453 693.884 260.229 694.14C260.007 694.396 259.839 694.712 259.725 695.088C259.61 695.464 259.553 695.897 259.553 696.388C259.553 696.879 259.61 697.312 259.725 697.688C259.842 698.064 260.011 698.38 260.233 698.636C260.454 698.892 260.727 699.087 261.053 699.22C261.381 699.351 261.754 699.416 262.173 699.416C262.607 699.416 262.995 699.347 263.337 699.208C263.681 699.069 263.97 698.871 264.205 698.612C264.442 698.351 264.623 698.033 264.749 697.66C264.874 697.284 264.937 696.86 264.937 696.388ZM268.276 696.588C268.276 696.124 268.322 695.687 268.416 695.276C268.509 694.865 268.644 694.488 268.82 694.144C268.996 693.8 269.21 693.492 269.464 693.22C269.717 692.945 270.002 692.713 270.32 692.524C270.64 692.335 270.99 692.191 271.372 692.092C271.753 691.991 272.158 691.94 272.588 691.94C273.02 691.94 273.425 691.991 273.804 692.092C274.185 692.191 274.534 692.335 274.852 692.524C275.172 692.713 275.458 692.945 275.712 693.22C275.965 693.492 276.18 693.8 276.356 694.144C276.532 694.488 276.666 694.865 276.76 695.276C276.853 695.687 276.9 696.124 276.9 696.588C276.9 697.052 276.853 697.489 276.76 697.9C276.666 698.311 276.532 698.689 276.356 699.036C276.18 699.38 275.965 699.688 275.712 699.96C275.458 700.232 275.172 700.464 274.852 700.656C274.534 700.845 274.185 700.989 273.804 701.088C273.425 701.189 273.02 701.24 272.588 701.24C272.158 701.24 271.753 701.189 271.372 701.088C270.99 700.989 270.64 700.845 270.32 700.656C270.002 700.464 269.717 700.232 269.464 699.96C269.21 699.688 268.996 699.38 268.82 699.036C268.644 698.689 268.509 698.311 268.416 697.9C268.322 697.489 268.276 697.052 268.276 696.588ZM269.896 696.588C269.896 697.081 269.957 697.525 270.08 697.92C270.205 698.312 270.384 698.647 270.616 698.924C270.85 699.199 271.134 699.409 271.468 699.556C271.801 699.703 272.176 699.776 272.592 699.776C273.008 699.776 273.381 699.703 273.712 699.556C274.045 699.409 274.328 699.199 274.56 698.924C274.792 698.647 274.969 698.312 275.092 697.92C275.217 697.525 275.28 697.081 275.28 696.588C275.28 696.095 275.217 695.652 275.092 695.26C274.969 694.865 274.792 694.531 274.56 694.256C274.328 693.981 274.045 693.771 273.712 693.624C273.381 693.477 273.008 693.404 272.592 693.404C272.176 693.404 271.801 693.477 271.468 693.624C271.134 693.771 270.85 693.981 270.616 694.256C270.384 694.531 270.205 694.865 270.08 695.26C269.957 695.652 269.896 696.095 269.896 696.588Z" fill="#262825"/>
<path d="M174.865 645.432C174.865 640.392 177.913 636.384 184.945 636.384C191.977 636.384 195.025 640.392 195.025 645.432C195.025 648.072 194.185 650.544 192.145 652.272L194.497 654.264L192.769 656.256L189.745 653.664C188.593 654.144 187.129 654.48 184.945 654.48C177.913 654.48 174.865 650.472 174.865 645.432ZM184.921 639.072C181.225 639.072 178.609 641.4 178.609 645.432C178.609 649.152 180.889 651.792 184.969 651.792C185.881 651.792 186.577 651.696 187.177 651.456L185.593 650.088L187.297 648.12L189.577 650.064C190.489 649.152 191.281 647.688 191.281 645.432C191.281 641.736 189.025 639.072 184.921 639.072ZM205.879 636.864H210.151L217.783 654H213.775L211.975 649.752H203.911L202.135 654H198.247L205.879 636.864ZM207.967 639.84L204.991 647.064H210.895L207.967 639.84ZM221.956 636.864H227.14L233.14 650.16L239.092 636.864H244.228V654H240.844L240.988 639.84H240.94L234.604 654H231.532L225.244 639.84H225.196L225.34 654H221.956V636.864ZM256.041 636.864H260.313L267.945 654H263.937L262.137 649.752H254.073L252.297 654H248.409L256.041 636.864ZM258.129 639.84L255.153 647.064H261.057L258.129 639.84ZM272.119 636.864H282.967C286.639 636.864 288.751 638.232 288.751 641.52C288.751 643.656 287.647 645.096 285.919 645.648V645.696C287.935 646.104 288.343 647.928 288.391 649.608C288.439 651.288 288.391 652.872 289.135 654H285.247C285.103 653.736 285.007 653.376 284.935 652.992C284.743 652.032 284.887 650.808 284.719 649.728C284.503 648.36 283.951 647.232 281.815 647.232H275.719V654H272.119V636.864ZM275.719 644.544H282.055C284.383 644.544 285.007 643.512 285.007 642.024C285.007 640.368 283.999 639.552 282.031 639.552H275.719V644.544ZM304.447 645.432C304.447 640.392 307.519 636.384 314.023 636.384C319.975 636.384 322.999 639.528 323.383 643.2H319.495C319.111 640.608 316.999 639.072 313.975 639.072C310.567 639.072 308.191 641.376 308.191 645.744C308.191 649.344 310.687 651.792 314.215 651.792C317.215 651.792 318.991 650.16 319.495 647.448H323.383C322.663 652.2 319.111 654.48 313.615 654.48C307.519 654.48 304.447 650.4 304.447 645.432ZM327.969 645.432C327.969 640.392 331.017 636.384 338.049 636.384C345.081 636.384 348.129 640.392 348.129 645.432C348.129 650.472 345.081 654.48 338.049 654.48C331.017 654.48 327.969 650.472 327.969 645.432ZM338.025 639.072C334.329 639.072 331.713 641.4 331.713 645.432C331.713 649.176 334.017 651.792 338.049 651.792C342.057 651.792 344.385 649.2 344.385 645.432C344.385 641.736 342.129 639.072 338.025 639.072Z" fill="#262825"/>
<path d="M232.207 457.15C235.116 460.479 238.48 463.353 242.23 465.666C246.015 467.979 250.326 470.012 254.847 470.012C256.845 470.012 258.737 468.925 260.174 467.594C262.137 465.771 263.714 463.563 264.765 461.11C265.011 460.514 265.291 459.533 264.31 459.743C262.242 460.164 260.139 460.304 258.071 460.129C255.793 459.848 253.55 459.182 251.518 458.131C249.485 457.15 247.557 455.958 245.7 454.626C244.368 453.645 243.106 452.559 241.95 451.367C240.478 449.895 238.761 448.493 237.779 446.601C237.744 446.566 237.569 446.32 237.639 446.285C241.775 443.026 245.49 439.206 248.609 434.965C251.623 430.97 254.041 426.554 255.828 421.893C257.966 416.215 258.071 412.745 258.107 411.694C258.212 399.673 250.291 386.6 240.268 380.222C238.34 379.03 236.272 378.014 234.169 377.243C231.331 376.191 228.176 375.28 225.338 376.822C222.324 378.469 220.151 382.044 218.328 384.778C216.716 387.091 215.349 389.579 214.263 392.173C204.765 400.444 196.915 411.098 191.587 422.313C189.695 426.238 188.153 430.304 186.961 434.474C185.735 438.715 185.069 443.131 184.929 447.547C184.858 452.173 185.559 456.939 187.277 461.25C188.573 464.51 191.097 467.839 194.672 468.715C198.667 469.696 202.697 468.715 206.412 467.068C207.989 466.367 209.496 465.561 210.968 464.685C217.067 461.145 223.2 457.5 228.948 453.365C228.842 453.47 231.997 456.904 232.207 457.15ZM225.793 450C225.583 450.316 225.057 450.596 224.251 451.122C217.697 455.327 208.13 462.407 200.349 456.974C187.557 448.073 193.095 427.325 198.912 416.145C202.031 410.187 206.132 403.808 211.284 399.427C211.704 399.077 212.125 398.656 212.511 398.271C209.812 412.149 213.071 426.203 219.45 438.645C221.167 441.974 223.095 445.199 225.197 448.248C225.863 449.194 226.039 449.615 225.793 450ZM219.415 389.089C219.94 387.792 220.676 386.495 222.008 385.934C223.761 385.163 225.863 385.724 227.546 386.355C229.543 387.091 231.366 388.247 233.153 389.404C235.957 391.191 238.55 393.364 240.828 395.818C243.632 398.797 245.945 402.231 247.592 405.981C251.658 415.199 250.747 425.117 245.209 433.528C244.228 435 243.142 436.402 241.95 437.699C240.863 438.89 239.707 440.012 238.55 441.098C237.814 441.834 237.008 442.535 236.202 443.166C235.922 443.376 235.536 443.306 235.326 443.026C233.959 441.168 229.018 434.544 226.915 430.584C224.006 425.187 221.798 419.439 220.291 413.481C219.66 410.958 219.064 408.47 218.574 405.946C218.048 403.388 217.803 400.794 217.768 398.166C217.732 395.502 218.153 392.874 218.959 390.35C219.099 389.965 219.24 389.509 219.415 389.089Z" fill="#262825"/>
<line x1="158" y1="507.75" x2="574" y2="507.75" stroke="#262825" stroke-width="0.5"/>
<path d="M160.36 521.56V531.44H166.248V533H158.68V521.56H160.36ZM167.439 528.588C167.439 528.124 167.486 527.687 167.579 527.276C167.673 526.865 167.807 526.488 167.983 526.144C168.159 525.8 168.374 525.492 168.627 525.22C168.881 524.945 169.166 524.713 169.483 524.524C169.803 524.335 170.154 524.191 170.535 524.092C170.917 523.991 171.322 523.94 171.751 523.94C172.183 523.94 172.589 523.991 172.967 524.092C173.349 524.191 173.698 524.335 174.015 524.524C174.335 524.713 174.622 524.945 174.875 525.22C175.129 525.492 175.343 525.8 175.519 526.144C175.695 526.488 175.83 526.865 175.923 527.276C176.017 527.687 176.063 528.124 176.063 528.588C176.063 529.052 176.017 529.489 175.923 529.9C175.83 530.311 175.695 530.689 175.519 531.036C175.343 531.38 175.129 531.688 174.875 531.96C174.622 532.232 174.335 532.464 174.015 532.656C173.698 532.845 173.349 532.989 172.967 533.088C172.589 533.189 172.183 533.24 171.751 533.24C171.322 533.24 170.917 533.189 170.535 533.088C170.154 532.989 169.803 532.845 169.483 532.656C169.166 532.464 168.881 532.232 168.627 531.96C168.374 531.688 168.159 531.38 167.983 531.036C167.807 530.689 167.673 530.311 167.579 529.9C167.486 529.489 167.439 529.052 167.439 528.588ZM169.059 528.588C169.059 529.081 169.121 529.525 169.243 529.92C169.369 530.312 169.547 530.647 169.779 530.924C170.014 531.199 170.298 531.409 170.631 531.556C170.965 531.703 171.339 531.776 171.755 531.776C172.171 531.776 172.545 531.703 172.875 531.556C173.209 531.409 173.491 531.199 173.723 530.924C173.955 530.647 174.133 530.312 174.255 529.92C174.381 529.525 174.443 529.081 174.443 528.588C174.443 528.095 174.381 527.652 174.255 527.26C174.133 526.865 173.955 526.531 173.723 526.256C173.491 525.981 173.209 525.771 172.875 525.624C172.545 525.477 172.171 525.404 171.755 525.404C171.339 525.404 170.965 525.477 170.631 525.624C170.298 525.771 170.014 525.981 169.779 526.256C169.547 526.531 169.369 526.865 169.243 527.26C169.121 527.652 169.059 528.095 169.059 528.588ZM186.203 524.18V531.4C186.203 531.885 186.157 532.343 186.063 532.772C185.97 533.201 185.835 533.596 185.659 533.956C185.486 534.316 185.273 534.639 185.019 534.924C184.766 535.212 184.479 535.456 184.159 535.656C183.842 535.856 183.493 536.008 183.111 536.112C182.733 536.219 182.329 536.272 181.899 536.272C181.531 536.272 181.179 536.233 180.843 536.156C180.507 536.081 180.194 535.973 179.903 535.832C179.615 535.691 179.353 535.52 179.115 535.32C178.881 535.123 178.679 534.901 178.511 534.656C178.343 534.411 178.214 534.144 178.123 533.856C178.033 533.571 177.987 533.272 177.987 532.96H179.607C179.607 533.139 179.634 533.309 179.687 533.472C179.743 533.635 179.821 533.787 179.919 533.928C180.021 534.072 180.141 534.201 180.279 534.316C180.421 534.433 180.577 534.532 180.747 534.612C180.918 534.695 181.101 534.759 181.295 534.804C181.493 534.849 181.698 534.872 181.911 534.872C182.317 534.872 182.683 534.789 183.011 534.624C183.342 534.459 183.623 534.224 183.855 533.92C184.087 533.616 184.266 533.251 184.391 532.824C184.519 532.397 184.583 531.923 184.583 531.4V530.008C184.469 530.44 184.307 530.831 184.099 531.18C183.894 531.529 183.649 531.828 183.363 532.076C183.081 532.321 182.762 532.511 182.407 532.644C182.055 532.775 181.675 532.84 181.267 532.84C180.913 532.84 180.575 532.791 180.255 532.692C179.935 532.591 179.638 532.448 179.363 532.264C179.091 532.077 178.845 531.852 178.623 531.588C178.405 531.321 178.218 531.024 178.063 530.696C177.909 530.365 177.789 530.007 177.703 529.62C177.621 529.231 177.579 528.82 177.579 528.388C177.579 527.956 177.621 527.547 177.703 527.16C177.789 526.771 177.909 526.412 178.063 526.084C178.218 525.753 178.405 525.456 178.623 525.192C178.845 524.928 179.091 524.704 179.363 524.52C179.638 524.333 179.935 524.191 180.255 524.092C180.575 523.991 180.913 523.94 181.267 523.94C181.675 523.94 182.055 524.007 182.407 524.14C182.762 524.271 183.081 524.46 183.363 524.708C183.649 524.953 183.894 525.251 184.099 525.6C184.307 525.949 184.469 526.34 184.583 526.772V524.18H186.203ZM184.583 528.388C184.583 527.916 184.521 527.493 184.395 527.12C184.27 526.744 184.089 526.427 183.851 526.168C183.617 525.907 183.327 525.708 182.983 525.572C182.642 525.433 182.254 525.364 181.819 525.364C181.398 525.364 181.025 525.429 180.699 525.56C180.374 525.691 180.099 525.884 179.875 526.14C179.654 526.396 179.486 526.712 179.371 527.088C179.257 527.464 179.199 527.897 179.199 528.388C179.199 528.879 179.257 529.312 179.371 529.688C179.489 530.064 179.658 530.38 179.879 530.636C180.101 530.892 180.374 531.087 180.699 531.22C181.027 531.351 181.401 531.416 181.819 531.416C182.254 531.416 182.642 531.347 182.983 531.208C183.327 531.069 183.617 530.871 183.851 530.612C184.089 530.351 184.27 530.033 184.395 529.66C184.521 529.284 184.583 528.86 184.583 528.388ZM187.923 528.588C187.923 528.124 187.969 527.687 188.063 527.276C188.156 526.865 188.291 526.488 188.467 526.144C188.643 525.8 188.857 525.492 189.111 525.22C189.364 524.945 189.649 524.713 189.967 524.524C190.287 524.335 190.637 524.191 191.019 524.092C191.4 523.991 191.805 523.94 192.235 523.94C192.667 523.94 193.072 523.991 193.451 524.092C193.832 524.191 194.181 524.335 194.499 524.524C194.819 524.713 195.105 524.945 195.359 525.22C195.612 525.492 195.827 525.8 196.003 526.144C196.179 526.488 196.313 526.865 196.407 527.276C196.5 527.687 196.547 528.124 196.547 528.588C196.547 529.052 196.5 529.489 196.407 529.9C196.313 530.311 196.179 530.689 196.003 531.036C195.827 531.38 195.612 531.688 195.359 531.96C195.105 532.232 194.819 532.464 194.499 532.656C194.181 532.845 193.832 532.989 193.451 533.088C193.072 533.189 192.667 533.24 192.235 533.24C191.805 533.24 191.4 533.189 191.019 533.088C190.637 532.989 190.287 532.845 189.967 532.656C189.649 532.464 189.364 532.232 189.111 531.96C188.857 531.688 188.643 531.38 188.467 531.036C188.291 530.689 188.156 530.311 188.063 529.9C187.969 529.489 187.923 529.052 187.923 528.588ZM189.543 528.588C189.543 529.081 189.604 529.525 189.727 529.92C189.852 530.312 190.031 530.647 190.263 530.924C190.497 531.199 190.781 531.409 191.115 531.556C191.448 531.703 191.823 531.776 192.239 531.776C192.655 531.776 193.028 531.703 193.359 531.556C193.692 531.409 193.975 531.199 194.207 530.924C194.439 530.647 194.616 530.312 194.739 529.92C194.864 529.525 194.927 529.081 194.927 528.588C194.927 528.095 194.864 527.652 194.739 527.26C194.616 526.865 194.439 526.531 194.207 526.256C193.975 525.981 193.692 525.771 193.359 525.624C193.028 525.477 192.655 525.404 192.239 525.404C191.823 525.404 191.448 525.477 191.115 525.624C190.781 525.771 190.497 525.981 190.263 526.256C190.031 526.531 189.852 526.865 189.727 527.26C189.604 527.652 189.543 528.095 189.543 528.588ZM199.883 533H198.263V524.18H199.883V526.636C199.987 526.215 200.131 525.837 200.315 525.504C200.501 525.171 200.723 524.888 200.979 524.656C201.235 524.424 201.523 524.247 201.843 524.124C202.163 524.001 202.509 523.94 202.883 523.94C203.277 523.94 203.636 524.009 203.959 524.148C204.284 524.284 204.569 524.483 204.815 524.744C205.063 525.005 205.267 525.325 205.427 525.704C205.589 526.08 205.705 526.507 205.775 526.984C205.86 526.512 205.993 526.088 206.175 525.712C206.356 525.336 206.577 525.017 206.839 524.756C207.103 524.492 207.404 524.291 207.743 524.152C208.081 524.011 208.449 523.94 208.847 523.94C209.311 523.94 209.725 524.035 210.091 524.224C210.459 524.413 210.769 524.687 211.023 525.044C211.279 525.399 211.473 525.832 211.607 526.344C211.743 526.853 211.811 527.428 211.811 528.068V533H210.191V528.068C210.191 527.183 210.023 526.517 209.687 526.072C209.353 525.627 208.848 525.404 208.171 525.404C207.808 525.404 207.483 525.468 207.195 525.596C206.907 525.721 206.663 525.905 206.463 526.148C206.263 526.388 206.109 526.684 206.003 527.036C205.899 527.385 205.847 527.783 205.847 528.228V533H204.227V528.068C204.227 527.183 204.059 526.517 203.723 526.072C203.389 525.627 202.884 525.404 202.207 525.404C201.844 525.404 201.519 525.468 201.231 525.596C200.943 525.721 200.699 525.905 200.499 526.148C200.299 526.388 200.145 526.684 200.039 527.036C199.935 527.385 199.883 527.783 199.883 528.228V533ZM213.704 527.252C213.704 526.745 213.797 526.288 213.984 525.88C214.17 525.472 214.437 525.124 214.784 524.836C215.133 524.548 215.554 524.327 216.048 524.172C216.544 524.017 217.101 523.94 217.72 523.94C218.373 523.94 218.958 524.028 219.476 524.204C219.993 524.377 220.432 524.628 220.792 524.956C221.152 525.284 221.428 525.685 221.62 526.16C221.812 526.632 221.908 527.168 221.908 527.768V533H220.288V530.628C220.181 531.033 220.018 531.397 219.8 531.72C219.584 532.043 219.32 532.317 219.008 532.544C218.698 532.768 218.345 532.94 217.948 533.06C217.55 533.18 217.12 533.24 216.656 533.24C216.173 533.24 215.734 533.176 215.34 533.048C214.945 532.92 214.606 532.74 214.324 532.508C214.044 532.276 213.826 531.997 213.672 531.672C213.52 531.344 213.444 530.98 213.444 530.58C213.444 530.177 213.522 529.815 213.68 529.492C213.84 529.169 214.068 528.896 214.364 528.672C214.662 528.445 215.024 528.272 215.448 528.152C215.874 528.032 216.353 527.972 216.884 527.972H220.288V527.768C220.288 527.405 220.226 527.079 220.104 526.788C219.984 526.495 219.812 526.247 219.588 526.044C219.364 525.839 219.092 525.681 218.772 525.572C218.452 525.463 218.092 525.408 217.692 525.408C217.284 525.408 216.93 525.452 216.632 525.54C216.336 525.628 216.09 525.753 215.896 525.916C215.704 526.076 215.56 526.269 215.464 526.496C215.37 526.723 215.324 526.975 215.324 527.252H213.704ZM216.868 529.332C216.268 529.332 215.813 529.433 215.504 529.636C215.197 529.836 215.044 530.133 215.044 530.528C215.044 530.736 215.088 530.921 215.176 531.084C215.266 531.247 215.398 531.383 215.572 531.492C215.745 531.601 215.958 531.685 216.212 531.744C216.468 531.8 216.761 531.828 217.092 531.828C217.561 531.828 217.99 531.773 218.38 531.664C218.772 531.552 219.109 531.397 219.392 531.2C219.674 531 219.894 530.763 220.052 530.488C220.209 530.211 220.288 529.907 220.288 529.576V529.332H216.868ZM225.412 533H223.792V524.18H225.412V526.996C225.516 526.556 225.664 526.163 225.856 525.816C226.051 525.467 226.291 525.171 226.576 524.928C226.862 524.685 227.191 524.5 227.564 524.372C227.94 524.244 228.362 524.18 228.828 524.18H229.232V525.724H228.832C228.187 525.724 227.646 525.784 227.208 525.904C226.771 526.021 226.419 526.2 226.152 526.44C225.888 526.68 225.699 526.983 225.584 527.348C225.47 527.711 225.412 528.137 225.412 528.628V533ZM233.913 528.688L239.253 533H236.933L232.553 529.344V533H230.933V521.16H232.553V528.1L236.749 524.18H238.829L233.913 528.688Z" fill="#262825"/>
</svg>
