<svg width="1332" height="846" viewBox="0 0 1332 846" fill="none" xmlns="http://www.w3.org/2000/svg">
<rect width="1332" height="846" fill="#D0D3CD" fill-opacity="0.27"/>
<g clip-path="url(#clip0_63_359)">
<rect x="232.146" y="114.442" width="515.139" height="533.827" transform="rotate(-9.88841 232.146 114.442)" fill="#E3E4E4"/>
<path d="M609.077 525.7C629.51 542.227 652.146 555.622 676.467 565.339C700.994 575.021 728.313 582.524 754.788 577.909C766.486 575.87 776.46 567.576 783.515 558.31C793.147 545.634 800.129 531.095 803.782 515.655C804.61 511.916 805.25 505.883 799.718 508.116C788.039 512.689 775.868 515.657 763.58 516.742C749.954 517.425 736.139 515.815 723.162 511.733C710.257 508.062 697.753 503.052 685.516 497.149C676.715 492.762 668.218 487.688 660.229 481.89C650.106 474.773 638.619 468.317 630.94 458.236C630.699 458.066 629.423 456.809 629.797 456.532C650.688 433.224 668.543 407.061 682.48 379.043C696.051 352.57 705.705 324.242 711.413 295.121C718.137 259.691 715.211 239.266 714.343 233.073C702.687 162.57 642.96 94.1035 577.752 66.983C565.247 61.9728 552.101 58.1318 539 55.7632C521.303 52.5041 501.902 50.3878 486.852 62.316C470.883 75.0388 461.808 98.1907 453.926 116.059C446.847 131.25 441.383 147.217 437.668 163.514C390.493 221.644 355.396 292.049 335.649 363.162C328.574 388.08 323.693 413.461 320.973 439.101C318.118 465.186 318.727 491.725 322.414 517.728C326.726 544.89 335.696 572.086 350.153 595.577C361.074 613.34 379.249 630.261 401.078 631.743C425.476 633.411 448.076 623.55 468.149 610.112C476.669 604.398 484.672 598.139 492.397 591.505C524.494 564.552 556.689 536.946 586.126 506.862C585.618 507.585 607.595 524.478 609.077 525.7ZM564.221 490.379C563.311 492.441 560.519 494.619 556.335 498.521C522.25 529.839 473.448 581.063 422.34 557.194C338.343 518.123 349.59 390.972 372.246 319.564C384.43 281.49 401.931 239.951 427.629 209.038C429.734 206.556 431.767 203.664 433.631 201.013C431.996 285.041 465.429 364.012 515.482 430.359C528.937 448.103 543.516 465.017 558.943 480.726C563.808 485.587 565.264 487.871 564.221 490.379ZM464.689 140.194C466.444 132.064 469.43 123.719 476.656 119.076C486.131 112.772 499.017 113.909 509.513 115.886C521.962 118.156 533.815 123.069 545.463 128.017C563.706 135.622 581.111 145.699 596.956 157.74C616.416 172.322 633.467 190.074 646.941 210.353C680.157 260.179 684.946 319.19 661.105 374.099C656.861 383.721 651.93 393.039 646.276 401.849C641.13 409.936 635.502 417.684 629.839 425.227C626.28 430.288 622.275 435.216 618.199 439.733C616.771 441.251 614.442 441.234 612.925 439.806C603.024 430.324 567.325 396.58 550.968 375.535C528.424 346.898 509.627 315.494 494.72 282.142C488.45 268.009 482.421 254.046 476.972 239.77C471.282 225.325 467.197 210.388 464.309 195.031C461.385 179.469 461.164 163.647 463.309 148.048C463.736 145.647 464.092 142.836 464.689 140.194Z" fill="#D0D3CD"/>
<path d="M534.162 580.79C533.628 577.724 535.057 574.963 539.335 574.217C543.613 573.471 545.892 575.586 546.427 578.652C546.707 580.258 546.458 581.851 545.4 583.119L547.042 584.081L546.202 585.476L544.088 584.22C543.438 584.634 542.583 584.994 541.254 585.226C536.976 585.971 534.697 583.856 534.162 580.79ZM539.605 575.855C537.357 576.247 536.012 577.94 536.44 580.393C536.835 582.656 538.502 584.021 540.984 583.588C541.538 583.491 541.952 583.359 542.291 583.149L541.182 582.485L542.01 581.107L543.604 582.048C544.062 581.396 544.388 580.422 544.149 579.049C543.757 576.801 542.102 575.42 539.605 575.855ZM552.121 572.289L554.72 571.836L561.18 581.451L558.742 581.876L557.196 579.483L552.29 580.338L551.661 583.111L549.295 583.523L552.121 572.289ZM553.707 573.878L552.662 578.588L556.254 577.962L553.707 573.878ZM561.902 570.584L565.055 570.034L570.115 577.487L572.326 568.767L575.451 568.222L577.268 578.647L575.209 579.006L573.795 570.376L573.766 570.381L571.413 579.667L569.544 579.993L564.217 572.046L564.188 572.051L565.777 580.65L563.719 581.009L561.902 570.584ZM582.637 566.969L585.236 566.516L591.696 576.132L589.258 576.557L587.712 574.163L582.807 575.019L582.177 577.791L579.812 578.203L582.637 566.969ZM584.223 568.558L583.179 573.269L586.77 572.643L584.223 568.558ZM592.418 565.265L599.017 564.114C601.251 563.725 602.681 564.333 603.03 566.333C603.256 567.633 602.737 568.626 601.745 569.145L601.75 569.174C603.019 569.208 603.461 570.275 603.668 571.292C603.876 572.309 604.014 573.277 604.587 573.885L602.221 574.297C602.106 574.152 602.009 573.943 601.925 573.717C601.706 573.153 601.664 572.393 601.447 571.754C601.171 570.945 600.715 570.317 599.416 570.544L595.707 571.19L596.425 575.307L594.235 575.689L592.418 565.265ZM595.422 569.555L599.277 568.883C600.693 568.636 600.963 567.942 600.805 567.037C600.63 566.029 599.93 565.64 598.733 565.849L594.893 566.518L595.422 569.555ZM612.993 567.049C612.458 563.983 613.902 561.219 617.859 560.529C621.48 559.898 623.653 561.49 624.276 563.683L621.911 564.095C621.402 562.559 619.954 561.848 618.115 562.169C616.041 562.531 614.84 564.184 615.304 566.841C615.685 569.031 617.463 570.256 619.61 569.882C621.435 569.564 622.342 568.382 622.361 566.679L624.726 566.267C624.792 569.234 622.873 570.998 619.53 571.581C615.821 572.227 613.52 570.071 612.993 567.049ZM627.303 564.554C626.768 561.488 628.198 558.727 632.475 557.981C636.753 557.235 639.033 559.35 639.567 562.416C640.101 565.482 638.672 568.244 634.394 568.989C630.117 569.735 627.837 567.62 627.303 564.554ZM632.746 559.619C630.497 560.011 629.153 561.704 629.58 564.157C629.977 566.435 631.657 567.782 634.109 567.354C636.548 566.929 637.689 565.105 637.289 562.813C636.897 560.565 635.243 559.183 632.746 559.619Z" fill="#424440"/>
</g>
<g clip-path="url(#clip1_63_359)">
<rect x="671.13" y="207.382" width="496.451" height="533.827" transform="rotate(11.154 671.13 207.382)" fill="#262825"/>
<path d="M875.27 727.264C888.451 750.104 904.824 770.804 924.1 788.667C943.581 806.57 966.462 823.439 992.919 828.656C1004.61 830.961 1016.94 826.787 1026.88 820.651C1040.47 812.251 1052.25 801.15 1061.23 788.007C1063.35 784.803 1066.13 779.384 1060.14 779.482C1047.56 779.558 1035.09 777.952 1023.19 774.54C1010.18 770.271 997.826 763.786 987.143 755.288C976.38 747.2 966.475 738.003 957.142 728.066C950.481 720.787 944.351 712.974 938.958 704.666C932.043 694.354 923.611 684.169 920.052 671.961C919.887 671.716 919.145 670.078 919.595 669.954C947.557 655.652 973.704 637.583 996.85 616.366C1019.1 596.464 1038.34 573.412 1054.18 548.198C1073.24 517.439 1077.86 497.257 1079.28 491.144C1093.77 420.919 1062.5 335.281 1011.2 286.389C1001.3 277.192 990.37 268.859 978.954 261.92C963.555 252.492 946.148 243.52 927.756 249.269C908.218 255.43 891.377 273.843 877.559 287.737C865.455 299.413 854.586 312.397 845.235 326.32C780.112 363.763 721.879 417.053 677.765 476.536C662.161 497.322 648.446 519.334 636.66 542.365C624.589 565.765 615.597 590.839 609.682 616.518C603.934 643.51 602.536 672.211 607.612 699.418C611.439 719.988 622.364 742.383 642.273 751.635C664.521 761.988 689.239 760.896 712.879 755.543C722.917 753.261 732.666 750.282 742.291 746.854C782.061 733.175 822.157 718.923 860.564 701.354C859.827 701.848 874.323 725.586 875.27 727.264ZM845.988 678.025C844.393 679.629 840.993 680.663 835.67 682.809C792.465 699.858 728.307 730.247 689.044 689.481C624.457 622.628 680.801 507.603 727.746 448.891C752.873 417.625 784.229 385.029 819.432 365.337C822.298 363.771 825.244 361.796 827.945 359.984C796.139 438.087 798.997 524.089 821.968 604.257C828.176 625.722 835.736 646.814 844.523 667.083C847.328 673.389 847.868 676.053 845.988 678.025ZM878.942 314.217C883.515 307.235 889.318 300.496 897.759 298.751C908.903 296.261 920.561 301.969 929.678 307.601C940.519 314.213 949.849 323.084 958.974 331.914C973.319 345.609 985.989 361.317 996.489 378.302C1009.46 398.97 1019.03 421.738 1024.34 445.583C1037.5 504.213 1020.72 561.202 978.614 604.035C971.173 611.517 963.198 618.467 954.729 624.68C946.996 630.4 938.934 635.628 930.912 640.652C925.756 644.109 920.23 647.281 914.785 650.043C912.902 650.95 910.727 650.095 909.82 648.211C903.965 635.765 882.689 591.3 874.953 565.699C864.158 530.758 857.869 494.576 855.925 457.971C855.145 442.477 854.529 427.228 854.57 411.895C854.445 396.317 856.002 380.857 858.83 365.435C861.698 349.807 867.192 334.911 874.821 321.074C876.086 318.98 877.432 316.476 878.942 314.217Z" fill="#424440"/>
<path d="M783.169 750.603C783.771 747.549 786.096 745.485 790.357 746.325C794.617 747.165 795.985 749.957 795.383 753.011C795.068 754.61 794.263 756.008 792.821 756.811L794.008 758.299L792.723 759.299L791.201 757.368C790.445 757.521 789.518 757.549 788.195 757.289C783.935 756.448 782.567 753.656 783.169 750.603ZM790.021 747.951C787.782 747.509 785.919 748.607 785.437 751.05C784.993 753.304 786.059 755.175 788.531 755.663C789.083 755.772 789.516 755.797 789.909 755.723L789.112 754.705L790.38 753.716L791.529 755.166C792.19 754.723 792.845 753.93 793.115 752.564C793.556 750.324 792.507 748.441 790.021 747.951ZM802.982 749.117L805.57 749.627L808.147 760.92L805.719 760.442L805.136 757.653L800.25 756.69L798.667 759.051L796.311 758.587L802.982 749.117ZM803.892 751.169L801.226 755.19L804.803 755.895L803.892 751.169ZM812.723 751.037L815.864 751.656L817.91 760.428L823.105 753.084L826.216 753.698L824.169 764.079L822.119 763.675L823.898 755.114L823.869 755.108L818.339 762.93L816.478 762.563L814.359 753.233L814.33 753.227L812.726 761.823L810.676 761.419L812.723 751.037ZM833.374 755.109L835.962 755.619L838.539 766.913L836.11 766.434L835.527 763.645L830.642 762.682L829.058 765.043L826.703 764.579L833.374 755.109ZM834.283 757.161L831.617 761.182L835.194 761.888L834.283 757.161ZM843.114 757.029L849.687 758.325C851.911 758.764 853.027 759.845 852.635 761.837C852.379 763.131 851.539 763.872 850.426 764L850.42 764.029C851.593 764.517 851.622 765.671 851.45 766.694C851.279 767.718 851.06 768.672 851.376 769.444L849.021 768.979C848.965 768.802 848.95 768.573 848.952 768.331C848.951 767.727 849.184 767.003 849.211 766.328C849.244 765.474 849.044 764.724 847.75 764.469L844.057 763.741L843.248 767.841L841.067 767.411L843.114 757.029ZM844.378 762.112L848.217 762.869C849.627 763.147 850.128 762.597 850.306 761.695C850.504 760.692 849.991 760.077 848.798 759.842L844.974 759.088L844.378 762.112ZM861.677 766.082C862.279 763.029 864.619 760.967 868.559 761.744C872.165 762.455 873.622 764.721 873.416 766.992L871.06 766.527C871.137 764.911 870.041 763.728 868.209 763.367C866.144 762.96 864.429 764.072 863.908 766.718C863.478 768.899 864.697 770.681 866.835 771.102C868.652 771.46 869.923 770.684 870.553 769.101L872.908 769.565C871.904 772.358 869.48 773.316 866.15 772.659C862.457 771.931 861.083 769.092 861.677 766.082ZM875.928 768.892C876.53 765.839 878.855 763.774 883.116 764.614C887.376 765.454 888.744 768.247 888.142 771.3C887.54 774.354 885.214 776.418 880.954 775.578C876.694 774.738 875.326 771.945 875.928 768.892ZM882.78 766.24C880.541 765.799 878.678 766.896 878.196 769.339C877.749 771.608 878.832 773.468 881.275 773.949C883.703 774.428 885.424 773.136 885.874 770.853C886.315 768.614 885.267 766.73 882.78 766.24Z" fill="#D0D3CD"/>
</g>
<defs>
<clipPath id="clip0_63_359">
<rect width="317.696" height="533.827" fill="white" transform="translate(329 97.5581) rotate(-9.88841)"/>
</clipPath>
<clipPath id="clip1_63_359">
<rect width="345.322" height="533.827" fill="white" transform="translate(745.267 222) rotate(11.154)"/>
</clipPath>
</defs>
</svg>
