<svg width="1332" height="146" viewBox="0 0 1332 146" fill="none" xmlns="http://www.w3.org/2000/svg">
<rect width="1332" height="146" fill="#F2F8FF"/>
<path d="M86.426 75.4216L69.426 67.4216C69.2548 67.341 69.0643 67.3107 68.8766 67.3341C68.6888 67.3575 68.5116 67.4337 68.3654 67.5538C68.2192 67.6739 68.1101 67.833 68.0508 68.0126C67.9914 68.1922 67.9842 68.385 68.03 68.5686L69.242 73.4176L77 76.3266L69.242 79.2356L68.03 84.0846C67.9833 84.2683 67.9899 84.4615 68.049 84.6415C68.1081 84.8216 68.2173 84.9812 68.3637 85.1015C68.5101 85.2218 68.6878 85.2979 68.8759 85.321C69.0641 85.344 69.2549 85.313 69.426 85.2316L86.426 77.2316C86.5978 77.1508 86.7431 77.0228 86.8448 76.8626C86.9466 76.7023 87.0006 76.5164 87.0006 76.3266C87.0006 76.1368 86.9466 75.9508 86.8448 75.7906C86.7431 75.6303 86.5978 75.5023 86.426 75.4216Z" fill="#0063F7"/>
<path d="M131 77.3267H137C137.265 77.3267 137.52 77.2213 137.707 77.0338C137.895 76.8462 138 76.5919 138 76.3267V68.3267C138 68.0614 137.895 67.8071 137.707 67.6196C137.52 67.432 137.265 67.3267 137 67.3267H131C130.735 67.3267 130.48 67.432 130.293 67.6196C130.105 67.8071 130 68.0614 130 68.3267V76.3267C130 76.5919 130.105 76.8462 130.293 77.0338C130.48 77.2213 130.735 77.3267 131 77.3267ZM130 84.3267C130 84.5919 130.105 84.8462 130.293 85.0338C130.48 85.2213 130.735 85.3267 131 85.3267H137C137.265 85.3267 137.52 85.2213 137.707 85.0338C137.895 84.8462 138 84.5919 138 84.3267V80.3267C138 80.0614 137.895 79.8071 137.707 79.6196C137.52 79.432 137.265 79.3267 137 79.3267H131C130.735 79.3267 130.48 79.432 130.293 79.6196C130.105 79.8071 130 80.0614 130 80.3267V84.3267ZM140 84.3267C140 84.5919 140.105 84.8462 140.293 85.0338C140.48 85.2213 140.735 85.3267 141 85.3267H147C147.265 85.3267 147.52 85.2213 147.707 85.0338C147.895 84.8462 148 84.5919 148 84.3267V77.3267C148 77.0614 147.895 76.8071 147.707 76.6196C147.52 76.432 147.265 76.3267 147 76.3267H141C140.735 76.3267 140.48 76.432 140.293 76.6196C140.105 76.8071 140 77.0614 140 77.3267V84.3267ZM141 74.3267H147C147.265 74.3267 147.52 74.2213 147.707 74.0338C147.895 73.8462 148 73.5919 148 73.3267V68.3267C148 68.0614 147.895 67.8071 147.707 67.6196C147.52 67.432 147.265 67.3267 147 67.3267H141C140.735 67.3267 140.48 67.432 140.293 67.6196C140.105 67.8071 140 68.0614 140 68.3267V73.3267C140 73.5919 140.105 73.8462 140.293 74.0338C140.48 74.2213 140.735 74.3267 141 74.3267Z" fill="#0063F7"/>
<path d="M210.822 71.7577C210.73 71.6247 210.607 71.5161 210.464 71.441C210.321 71.366 210.162 71.3267 210 71.3267H196.333L195.179 68.5567C195.028 68.1919 194.771 67.8803 194.443 67.6613C194.114 67.4423 193.728 67.3258 193.333 67.3267H191V69.3267H193.333L198.077 80.7117C198.153 80.8938 198.281 81.0494 198.445 81.1589C198.61 81.2683 198.803 81.3267 199 81.3267H207C207.417 81.3267 207.79 81.0677 207.937 80.6787L210.937 72.6787C210.994 72.5273 211.013 72.3644 210.993 72.204C210.973 72.0436 210.914 71.8905 210.822 71.7577Z" fill="#0063F7"/>
<path d="M199.5 85.3267C200.328 85.3267 201 84.6551 201 83.8267C201 82.9982 200.328 82.3267 199.5 82.3267C198.672 82.3267 198 82.9982 198 83.8267C198 84.6551 198.672 85.3267 199.5 85.3267Z" fill="#0063F7"/>
<path d="M206.5 85.3267C207.328 85.3267 208 84.6551 208 83.8267C208 82.9982 207.328 82.3267 206.5 82.3267C205.672 82.3267 205 82.9982 205 83.8267C205 84.6551 205.672 85.3267 206.5 85.3267Z" fill="#0063F7"/>
<path d="M271.487 81.4667L267.422 77.7707C267.23 77.596 266.977 77.5029 266.718 77.5109C266.458 77.5189 266.212 77.6275 266.031 77.8137L263.638 80.2747C263.062 80.1647 261.904 79.8037 260.712 78.6147C259.52 77.4217 259.159 76.2607 259.052 75.6887L261.511 73.2947C261.697 73.1138 261.806 72.8675 261.814 72.6079C261.822 72.3482 261.729 72.0957 261.554 71.9037L257.859 67.8397C257.684 67.647 257.441 67.5302 257.181 67.5139C256.921 67.4977 256.666 67.5833 256.468 67.7527L254.298 69.6137C254.125 69.7872 254.022 70.0181 254.008 70.2627C253.993 70.5127 253.707 76.4347 258.299 81.0287C262.305 85.0337 267.323 85.3267 268.705 85.3267C268.907 85.3267 269.031 85.3207 269.064 85.3187C269.309 85.305 269.539 85.2013 269.712 85.0277L271.572 82.8567C271.742 82.6597 271.828 82.4041 271.812 82.1444C271.797 81.8846 271.68 81.6414 271.487 81.4667Z" fill="#0063F7"/>
<path d="M333 68.3267H317C316.47 68.3267 315.961 68.5374 315.586 68.9124C315.211 69.2875 315 69.7962 315 70.3267V82.3267C315 82.8571 315.211 83.3658 315.586 83.7409C315.961 84.1159 316.47 84.3267 317 84.3267H333C333.53 84.3267 334.039 84.1159 334.414 83.7409C334.789 83.3658 335 82.8571 335 82.3267V70.3267C335 69.7962 334.789 69.2875 334.414 68.9124C334.039 68.5374 333.53 68.3267 333 68.3267ZM333 73.0267L325 78.3607L317 73.0267V70.6237L325 75.9567L333 70.6237V73.0267Z" fill="#0063F7"/>
<path d="M380 86.3267H394C395.103 86.3267 396 85.4297 396 84.3267V70.3267C396 69.2237 395.103 68.3267 394 68.3267H392V66.3267H390V68.3267H384V66.3267H382V68.3267H380C378.897 68.3267 378 69.2237 378 70.3267V84.3267C378 85.4297 378.897 86.3267 380 86.3267ZM380 71.3267H394V73.3267H380V71.3267Z" fill="#0063F7"/>
<path d="M449 68.3267C446.243 68.3267 444 70.5697 444 73.3267H446C446 71.6727 447.346 70.3267 449 70.3267C450.654 70.3267 452 71.6727 452 73.3267C452 74.3957 451.546 74.7917 450.519 75.5817C450.137 75.8757 449.706 76.2077 449.293 76.6197C447.981 77.9307 447.995 79.2237 448 79.3267V81.3267H450V79.3177C450 79.2937 450.023 78.7167 450.707 78.0337C451.027 77.7137 451.389 77.4357 451.738 77.1667C452.798 76.3507 454 75.4267 454 73.3267C454 70.5697 451.757 68.3267 449 68.3267ZM448 82.3267H450V84.3267H448V82.3267Z" fill="#0063F7"/>
<path d="M520 66.3267H505C504.47 66.3267 503.961 66.5374 503.586 66.9124C503.211 67.2875 503 67.7962 503 68.3267V71.3267H501V73.3267H503V75.3267H501V77.3267H503V79.3267H501V81.3267H503V84.3267C503 84.8571 503.211 85.3658 503.586 85.7409C503.961 86.1159 504.47 86.3267 505 86.3267H520C520.265 86.3267 520.52 86.2213 520.707 86.0338C520.895 85.8462 521 85.5919 521 85.3267V67.3267C521 67.0614 520.895 66.8071 520.707 66.6196C520.52 66.432 520.265 66.3267 520 66.3267ZM512 69.3257C513.648 69.3257 515 70.6767 515 72.3257C514.997 73.1205 514.68 73.882 514.118 74.4441C513.556 75.0063 512.795 75.3235 512 75.3267C510.353 75.3267 509 73.9737 509 72.3257C509 70.6767 510.353 69.3257 512 69.3257ZM518 82.3267H506V81.5767C506 79.3577 508.705 77.0767 512 77.0767C515.295 77.0767 518 79.3577 518 81.5767V82.3267Z" fill="#0063F7"/>
<path d="M579 73.3267C579 72.2237 578.103 71.3267 577 71.3267H575.566L573.148 67.2977C572.97 67.0022 572.718 66.7576 572.418 66.5875C572.118 66.4175 571.779 66.3276 571.434 66.3267H566V68.3267H571.434L573.234 71.3267H565C563.897 71.3267 563 72.2237 563 73.3267V82.3267C563 83.4297 563.897 84.3267 565 84.3267H577C578.103 84.3267 579 83.4297 579 82.3267V79.3267L583 81.3267V74.3267L579 76.3267V73.3267ZM572 81.3267H566V79.3267H572V81.3267Z" fill="#0063F7"/>
<path d="M635 66.3267C629.486 66.3267 625 70.8127 625 76.3267C625 81.8407 629.486 86.3267 635 86.3267C640.514 86.3267 645 81.8407 645 76.3267C645 70.8127 640.514 66.3267 635 66.3267ZM636 81.3267H634V75.3267H636V81.3267ZM636 73.3267H634V71.3267H636V73.3267Z" fill="#0063F7"/>
<path d="M697 66.3267C691.486 66.3267 687 70.8127 687 76.3267C687 81.8407 691.486 86.3267 697 86.3267C702.514 86.3267 707 81.8407 707 76.3267C707 70.8127 702.514 66.3267 697 66.3267ZM697 81.3267V77.3267H692V75.3267H697V71.3267L702 76.3267L697 81.3267Z" fill="#0063F7"/>
<path d="M758.293 81.6196L759.707 83.0336L766.414 76.3266L759.707 69.6196L758.293 71.0336L762.586 75.3266H753V77.3266H762.586L758.293 81.6196Z" fill="#0063F7"/>
<path d="M821 66.3267C815.486 66.3267 811 70.8127 811 76.3267C811 81.8407 815.486 86.3267 821 86.3267C826.514 86.3267 831 81.8407 831 76.3267C831 70.8127 826.514 66.3267 821 66.3267ZM826 77.3267H822V81.3267H820V77.3267H816V75.3267H820V71.3267H822V75.3267H826V77.3267Z" fill="#0063F7"/>
<path d="M883 66.3267C877.486 66.3267 873 70.8127 873 76.3267C873 81.8407 877.486 86.3267 883 86.3267C888.514 86.3267 893 81.8407 893 76.3267C893 70.8127 888.514 66.3267 883 66.3267ZM888 77.3267H878V75.3267H888V77.3267Z" fill="#0063F7"/>
<path d="M943 82.3267C944.775 82.3263 946.499 81.7321 947.897 80.6387L952.293 85.0347L953.707 83.6207L949.311 79.2247C950.405 77.8263 951 76.1021 951 74.3267C951 69.9157 947.411 66.3267 943 66.3267C938.589 66.3267 935 69.9157 935 74.3267C935 78.7377 938.589 82.3267 943 82.3267ZM943 68.3267C946.309 68.3267 949 71.0177 949 74.3267C949 77.6357 946.309 80.3267 943 80.3267C939.691 80.3267 937 77.6357 937 74.3267C937 71.0177 939.691 68.3267 943 68.3267Z" fill="#0063F7"/>
<path d="M1001 71.3267H1000V84.3267C1000 84.8571 1000.21 85.3658 1000.59 85.7409C1000.96 86.1159 1001.47 86.3267 1002 86.3267H1012C1012.53 86.3267 1013.04 86.1159 1013.41 85.7409C1013.79 85.3658 1014 84.8571 1014 84.3267V71.3267H1001ZM1011.62 68.3267L1010 66.3267H1004L1002.38 68.3267H998V70.3267H1016V68.3267H1011.62Z" fill="#0063F7"/>
<path d="M1076 73.3267H1072V67.3267H1066V73.3267H1062L1069 81.3267L1076 73.3267ZM1061 83.3267H1077V85.3267H1061V83.3267Z" fill="#0063F7"/>
<path d="M1139 70.3267H1136V68.3267C1136 67.2237 1135.1 66.3267 1134 66.3267H1128C1126.9 66.3267 1126 67.2237 1126 68.3267V70.3267H1123C1121.9 70.3267 1121 71.2237 1121 72.3267V76.3267H1126V74.3267H1128V76.3267H1134V74.3267H1136V76.3267H1141V72.3267C1141 71.2237 1140.1 70.3267 1139 70.3267ZM1128 68.3267H1134V70.3267H1128V68.3267ZM1136 79.3267H1134V77.3267H1128V79.3267H1126V77.3267H1121V83.3267C1121 84.4297 1121.9 85.3267 1123 85.3267H1139C1140.1 85.3267 1141 84.4297 1141 83.3267V77.3267H1136V79.3267Z" fill="#0063F7"/>
<path d="M1183.6 77.4096L1187.05 78.9206L1197 73.4936L1191 80.4936L1199.6 84.4096C1199.75 84.474 1199.91 84.502 1200.07 84.4914C1200.23 84.4807 1200.38 84.4316 1200.52 84.3482C1200.66 84.2648 1200.77 84.1496 1200.86 84.0124C1200.94 83.8751 1200.99 83.7198 1201 83.5596L1202 68.5596C1202.01 68.3859 1201.98 68.2124 1201.9 68.0561C1201.82 67.8997 1201.71 67.7659 1201.56 67.6678C1201.42 67.5697 1201.25 67.5108 1201.08 67.4967C1200.91 67.4826 1200.73 67.5139 1200.57 67.5876L1183.57 75.5876C1183.4 75.6698 1183.26 75.8002 1183.15 75.9631C1183.05 76.126 1183 76.3147 1183 76.5066C1183.01 76.6985 1183.06 76.8856 1183.17 77.0457C1183.27 77.2058 1183.42 77.3321 1183.6 77.4096ZM1189 86.4936L1193.78 84.1776L1189 81.9496V86.4936Z" fill="#0063F7"/>
<path d="M1261.77 71.3267L1255 77.9582L1248.23 71.3267L1246 73.5109L1255 82.3267L1264 73.5109L1261.77 71.3267Z" fill="#0063F7"/>
</svg>
