<svg width="1332" height="825" viewBox="0 0 1332 825" fill="none" xmlns="http://www.w3.org/2000/svg">
<rect width="1332" height="825" fill="#E4EEE4"/>
<rect x="54" y="44" width="471.939" height="732.178" fill="#00916E"/>
<rect x="525.939" y="44" width="376.031" height="366.089" fill="#005B45"/>
<rect x="901.969" y="44" width="376.031" height="366.089" fill="#CCF9CE"/>
<rect x="525.939" y="410.088" width="250.882" height="366.089" fill="black"/>
<rect x="776.821" y="410.088" width="250.297" height="366.089" fill="#E7E7E7"/>
<rect x="1027.12" y="410.088" width="250.882" height="366.089" fill="white"/>
<path d="M77.6 85.7C77.6 87.42 77.81 88.96 78.23 90.32C78.6567 91.68 79.27 92.8333 80.07 93.78C80.87 94.72 81.8433 95.4433 82.99 95.95C84.1433 96.45 85.4433 96.7 86.89 96.7C88.0633 96.7 89.1267 96.5333 90.08 96.2C91.04 95.8667 91.8833 95.3733 92.61 94.72C93.3433 94.06 93.9533 93.2467 94.44 92.28C94.9333 91.3067 95.3033 90.18 95.55 88.9H99.75C99.45 90.7267 98.93 92.3633 98.19 93.81C97.4567 95.2567 96.5367 96.4833 95.43 97.49C94.3233 98.4967 93.05 99.2667 91.61 99.8C90.17 100.333 88.5933 100.6 86.88 100.6C85.5467 100.6 84.2867 100.437 83.1 100.11C81.9133 99.7833 80.82 99.3167 79.82 98.71C78.8267 98.0967 77.9333 97.3533 77.14 96.48C76.3467 95.6 75.67 94.61 75.11 93.51C74.5567 92.4033 74.1333 91.1933 73.84 89.88C73.5467 88.5667 73.4 87.1733 73.4 85.7C73.4 84.22 73.5467 82.8267 73.84 81.52C74.1333 80.2067 74.5567 79 75.11 77.9C75.67 76.7933 76.3467 75.8033 77.14 74.93C77.9333 74.05 78.8267 73.3067 79.82 72.7C80.82 72.0867 81.9133 71.6167 83.1 71.29C84.2867 70.9633 85.5467 70.8 86.88 70.8C88.5933 70.8 90.17 71.0667 91.61 71.6C93.05 72.1333 94.3233 72.9033 95.43 73.91C96.5367 74.9167 97.4567 76.1433 98.19 77.59C98.93 79.0367 99.45 80.6733 99.75 82.5H95.55C95.3033 81.22 94.9333 80.0967 94.44 79.13C93.9533 78.1567 93.3433 77.3433 92.61 76.69C91.8833 76.03 91.04 75.5333 90.08 75.2C89.1267 74.8667 88.0633 74.7 86.89 74.7C85.4433 74.7 84.1433 74.9533 82.99 75.46C81.8433 75.96 80.87 76.6833 80.07 77.63C79.27 78.57 78.6567 79.72 78.23 81.08C77.81 82.44 77.6 83.98 77.6 85.7ZM102.319 88.97C102.319 87.81 102.435 86.7167 102.669 85.69C102.902 84.6633 103.239 83.72 103.679 82.86C104.119 82 104.655 81.23 105.289 80.55C105.922 79.8633 106.635 79.2833 107.429 78.81C108.229 78.3367 109.105 77.9767 110.059 77.73C111.012 77.4767 112.025 77.35 113.099 77.35C114.179 77.35 115.192 77.4767 116.139 77.73C117.092 77.9767 117.965 78.3367 118.759 78.81C119.559 79.2833 120.275 79.8633 120.909 80.55C121.542 81.23 122.079 82 122.519 82.86C122.959 83.72 123.295 84.6633 123.529 85.69C123.762 86.7167 123.879 87.81 123.879 88.97C123.879 90.13 123.762 91.2233 123.529 92.25C123.295 93.2767 122.959 94.2233 122.519 95.09C122.079 95.95 121.542 96.72 120.909 97.4C120.275 98.08 119.559 98.66 118.759 99.14C117.965 99.6133 117.092 99.9733 116.139 100.22C115.192 100.473 114.179 100.6 113.099 100.6C112.025 100.6 111.012 100.473 110.059 100.22C109.105 99.9733 108.229 99.6133 107.429 99.14C106.635 98.66 105.922 98.08 105.289 97.4C104.655 96.72 104.119 95.95 103.679 95.09C103.239 94.2233 102.902 93.2767 102.669 92.25C102.435 91.2233 102.319 90.13 102.319 88.97ZM106.369 88.97C106.369 90.2033 106.522 91.3133 106.829 92.3C107.142 93.28 107.589 94.1167 108.169 94.81C108.755 95.4967 109.465 96.0233 110.299 96.39C111.132 96.7567 112.069 96.94 113.109 96.94C114.149 96.94 115.082 96.7567 115.909 96.39C116.742 96.0233 117.449 95.4967 118.029 94.81C118.609 94.1167 119.052 93.28 119.359 92.3C119.672 91.3133 119.829 90.2033 119.829 88.97C119.829 87.7367 119.672 86.63 119.359 85.65C119.052 84.6633 118.609 83.8267 118.029 83.14C117.449 82.4533 116.742 81.9267 115.909 81.56C115.082 81.1933 114.149 81.01 113.109 81.01C112.069 81.01 111.132 81.1933 110.299 81.56C109.465 81.9267 108.755 82.4533 108.169 83.14C107.589 83.8267 107.142 84.6633 106.829 85.65C106.522 86.63 106.369 87.7367 106.369 88.97ZM130.619 100H126.569V70.4H130.619V100ZM133.334 88.97C133.334 87.81 133.451 86.7167 133.684 85.69C133.918 84.6633 134.254 83.72 134.694 82.86C135.134 82 135.671 81.23 136.304 80.55C136.938 79.8633 137.651 79.2833 138.444 78.81C139.244 78.3367 140.121 77.9767 141.074 77.73C142.028 77.4767 143.041 77.35 144.114 77.35C145.194 77.35 146.208 77.4767 147.154 77.73C148.108 77.9767 148.981 78.3367 149.774 78.81C150.574 79.2833 151.291 79.8633 151.924 80.55C152.558 81.23 153.094 82 153.534 82.86C153.974 83.72 154.311 84.6633 154.544 85.69C154.778 86.7167 154.894 87.81 154.894 88.97C154.894 90.13 154.778 91.2233 154.544 92.25C154.311 93.2767 153.974 94.2233 153.534 95.09C153.094 95.95 152.558 96.72 151.924 97.4C151.291 98.08 150.574 98.66 149.774 99.14C148.981 99.6133 148.108 99.9733 147.154 100.22C146.208 100.473 145.194 100.6 144.114 100.6C143.041 100.6 142.028 100.473 141.074 100.22C140.121 99.9733 139.244 99.6133 138.444 99.14C137.651 98.66 136.938 98.08 136.304 97.4C135.671 96.72 135.134 95.95 134.694 95.09C134.254 94.2233 133.918 93.2767 133.684 92.25C133.451 91.2233 133.334 90.13 133.334 88.97ZM137.384 88.97C137.384 90.2033 137.538 91.3133 137.844 92.3C138.158 93.28 138.604 94.1167 139.184 94.81C139.771 95.4967 140.481 96.0233 141.314 96.39C142.148 96.7567 143.084 96.94 144.124 96.94C145.164 96.94 146.098 96.7567 146.924 96.39C147.758 96.0233 148.464 95.4967 149.044 94.81C149.624 94.1167 150.068 93.28 150.374 92.3C150.688 91.3133 150.844 90.2033 150.844 88.97C150.844 87.7367 150.688 86.63 150.374 85.65C150.068 84.6633 149.624 83.8267 149.044 83.14C148.464 82.4533 147.758 81.9267 146.924 81.56C146.098 81.1933 145.164 81.01 144.124 81.01C143.084 81.01 142.148 81.1933 141.314 81.56C140.481 81.9267 139.771 82.4533 139.184 83.14C138.604 83.8267 138.158 84.6633 137.844 85.65C137.538 86.63 137.384 87.7367 137.384 88.97ZM173.694 77.95H177.744V100H173.694V93.63C173.428 94.7167 173.044 95.69 172.544 96.55C172.044 97.41 171.444 98.14 170.744 98.74C170.044 99.34 169.254 99.8 168.374 100.12C167.494 100.44 166.541 100.6 165.514 100.6C164.254 100.6 163.128 100.363 162.134 99.89C161.141 99.41 160.298 98.7267 159.604 97.84C158.918 96.9467 158.391 95.8633 158.024 94.59C157.664 93.3167 157.484 91.88 157.484 90.28V77.95H161.534V90.28C161.534 92.4867 162.004 94.15 162.944 95.27C163.884 96.3833 165.301 96.94 167.194 96.94C168.214 96.94 169.124 96.7833 169.924 96.47C170.731 96.15 171.411 95.69 171.964 95.09C172.524 94.4833 172.951 93.7433 173.244 92.87C173.544 91.99 173.694 90.9933 173.694 89.88V77.95ZM184.994 100H180.944V77.95H184.994V84.99C185.254 83.89 185.624 82.9067 186.104 82.04C186.59 81.1667 187.19 80.4267 187.904 79.82C188.617 79.2133 189.44 78.75 190.374 78.43C191.314 78.11 192.367 77.95 193.534 77.95H194.544V81.81H193.544C191.93 81.81 190.577 81.96 189.484 82.26C188.39 82.5533 187.51 83 186.844 83.6C186.184 84.2 185.71 84.9567 185.424 85.87C185.137 86.7767 184.994 87.8433 184.994 89.07V100ZM205.841 77.35C207.341 77.35 208.675 77.52 209.841 77.86C211.015 78.2 212.001 78.6867 212.801 79.32C213.608 79.9467 214.221 80.71 214.641 81.61C215.061 82.5033 215.271 83.5067 215.271 84.62H211.311C211.311 84.0533 211.191 83.54 210.951 83.08C210.718 82.6133 210.368 82.2167 209.901 81.89C209.441 81.5567 208.871 81.3 208.191 81.12C207.511 80.94 206.728 80.85 205.841 80.85C205.041 80.85 204.311 80.9233 203.651 81.07C202.998 81.2167 202.435 81.4267 201.961 81.7C201.488 81.9667 201.121 82.29 200.861 82.67C200.601 83.0433 200.471 83.46 200.471 83.92C200.471 84.2667 200.545 84.5733 200.691 84.84C200.838 85.1 201.038 85.3267 201.291 85.52C201.545 85.7133 201.841 85.88 202.181 86.02C202.521 86.1533 202.885 86.27 203.271 86.37C203.665 86.47 204.071 86.5567 204.491 86.63C204.911 86.6967 205.325 86.7633 205.731 86.83L207.211 87.06C207.825 87.1533 208.468 87.2633 209.141 87.39C209.821 87.51 210.488 87.6733 211.141 87.88C211.801 88.08 212.428 88.3367 213.021 88.65C213.621 88.9567 214.148 89.3433 214.601 89.81C215.055 90.2767 215.415 90.8367 215.681 91.49C215.948 92.1367 216.081 92.9067 216.081 93.8C216.081 94.8867 215.868 95.8533 215.441 96.7C215.015 97.54 214.385 98.25 213.551 98.83C212.718 99.41 211.688 99.85 210.461 100.15C209.235 100.45 207.818 100.6 206.211 100.6C204.538 100.6 203.071 100.437 201.811 100.11C200.551 99.7833 199.501 99.3033 198.661 98.67C197.821 98.0367 197.188 97.26 196.761 96.34C196.341 95.4133 196.131 94.35 196.131 93.15H200.081C200.081 94.4167 200.581 95.3933 201.581 96.08C202.581 96.76 204.121 97.1 206.201 97.1C207.141 97.1 207.978 97.03 208.711 96.89C209.445 96.75 210.065 96.5433 210.571 96.27C211.078 95.9967 211.465 95.66 211.731 95.26C211.998 94.86 212.131 94.4033 212.131 93.89C212.131 93.49 212.055 93.14 211.901 92.84C211.748 92.5333 211.535 92.27 211.261 92.05C210.988 91.8233 210.665 91.63 210.291 91.47C209.925 91.3033 209.525 91.16 209.091 91.04C208.658 90.92 208.205 90.8167 207.731 90.73C207.265 90.6367 206.791 90.55 206.311 90.47L204.841 90.22C204.281 90.1267 203.688 90.02 203.061 89.9C202.435 89.7733 201.811 89.6167 201.191 89.43C200.578 89.2367 199.988 88.9967 199.421 88.71C198.861 88.4167 198.365 88.0567 197.931 87.63C197.505 87.2033 197.161 86.6933 196.901 86.1C196.648 85.5067 196.521 84.81 196.521 84.01C196.521 82.9967 196.735 82.08 197.161 81.26C197.595 80.44 198.211 79.74 199.011 79.16C199.818 78.58 200.795 78.1333 201.941 77.82C203.095 77.5067 204.395 77.35 205.841 77.35Z" fill="white"/>
<path d="M72.84 733.42C72.84 732.532 72.924 731.696 73.092 730.912C73.26 730.124 73.5 729.4 73.812 728.74C74.128 728.076 74.512 727.482 74.964 726.958C75.416 726.43 75.926 725.984 76.494 725.62C77.066 725.252 77.69 724.97 78.366 724.774C79.042 724.578 79.76 724.48 80.52 724.48C81.284 724.48 82.002 724.578 82.674 724.774C83.35 724.97 83.972 725.252 84.54 725.62C85.112 725.984 85.624 726.43 86.076 726.958C86.528 727.482 86.91 728.076 87.222 728.74C87.538 729.4 87.78 730.124 87.948 730.912C88.116 731.696 88.2 732.532 88.2 733.42C88.2 734.304 88.116 735.14 87.948 735.928C87.78 736.716 87.538 737.442 87.222 738.106C86.91 738.766 86.528 739.36 86.076 739.888C85.624 740.412 85.112 740.858 84.54 741.226C83.972 741.59 83.35 741.87 82.674 742.066C81.998 742.262 81.28 742.36 80.52 742.36C79.76 742.36 79.042 742.262 78.366 742.066C77.69 741.87 77.066 741.59 76.494 741.226C75.926 740.858 75.416 740.412 74.964 739.888C74.512 739.36 74.128 738.766 73.812 738.106C73.5 737.442 73.26 736.716 73.092 735.928C72.924 735.14 72.84 734.304 72.84 733.42ZM75.36 733.42C75.36 734.452 75.478 735.376 75.714 736.192C75.95 737.008 76.29 737.7 76.734 738.268C77.178 738.832 77.718 739.266 78.354 739.57C78.994 739.87 79.716 740.02 80.52 740.02C81.324 740.02 82.044 739.87 82.68 739.57C83.32 739.266 83.862 738.832 84.306 738.268C84.75 737.7 85.09 737.008 85.326 736.192C85.562 735.376 85.68 734.452 85.68 733.42C85.68 732.388 85.562 731.464 85.326 730.648C85.09 729.832 84.75 729.142 84.306 728.578C83.862 728.01 83.32 727.576 82.68 727.276C82.044 726.972 81.324 726.82 80.52 726.82C79.716 726.82 78.994 726.972 78.354 727.276C77.718 727.576 77.178 728.01 76.734 728.578C76.29 729.142 75.95 729.832 75.714 730.648C75.478 731.464 75.36 732.388 75.36 733.42ZM89.8791 733.42C89.8791 732.532 89.9631 731.696 90.1311 730.912C90.2991 730.124 90.5391 729.4 90.8511 728.74C91.1671 728.076 91.5511 727.482 92.0031 726.958C92.4551 726.43 92.9651 725.984 93.5331 725.62C94.1051 725.252 94.7291 724.97 95.4051 724.774C96.0811 724.578 96.7991 724.48 97.5591 724.48C98.3231 724.48 99.0411 724.578 99.7131 724.774C100.389 724.97 101.011 725.252 101.579 725.62C102.151 725.984 102.663 726.43 103.115 726.958C103.567 727.482 103.949 728.076 104.261 728.74C104.577 729.4 104.819 730.124 104.987 730.912C105.155 731.696 105.239 732.532 105.239 733.42C105.239 734.304 105.155 735.14 104.987 735.928C104.819 736.716 104.577 737.442 104.261 738.106C103.949 738.766 103.567 739.36 103.115 739.888C102.663 740.412 102.151 740.858 101.579 741.226C101.011 741.59 100.389 741.87 99.7131 742.066C99.0371 742.262 98.3191 742.36 97.5591 742.36C96.7991 742.36 96.0811 742.262 95.4051 742.066C94.7291 741.87 94.1051 741.59 93.5331 741.226C92.9651 740.858 92.4551 740.412 92.0031 739.888C91.5511 739.36 91.1671 738.766 90.8511 738.106C90.5391 737.442 90.2991 736.716 90.1311 735.928C89.9631 735.14 89.8791 734.304 89.8791 733.42ZM92.3991 733.42C92.3991 734.452 92.5171 735.376 92.7531 736.192C92.9891 737.008 93.3291 737.7 93.7731 738.268C94.2171 738.832 94.7571 739.266 95.3931 739.57C96.0331 739.87 96.7551 740.02 97.5591 740.02C98.3631 740.02 99.0831 739.87 99.7191 739.57C100.359 739.266 100.901 738.832 101.345 738.268C101.789 737.7 102.129 737.008 102.365 736.192C102.601 735.376 102.719 734.452 102.719 733.42C102.719 732.388 102.601 731.464 102.365 730.648C102.129 729.832 101.789 729.142 101.345 728.578C100.901 728.01 100.359 727.576 99.7191 727.276C99.0831 726.972 98.3631 726.82 97.5591 726.82C96.7551 726.82 96.0331 726.972 95.3931 727.276C94.7571 727.576 94.2171 728.01 93.7731 728.578C93.3291 729.142 92.9891 729.832 92.7531 730.648C92.5171 731.464 92.3991 732.388 92.3991 733.42ZM113.767 742.354C113.119 742.354 112.507 742.294 111.931 742.174C111.355 742.054 110.823 741.882 110.335 741.658C109.851 741.43 109.415 741.156 109.027 740.836C108.643 740.512 108.317 740.148 108.049 739.744C107.781 739.336 107.575 738.892 107.431 738.412C107.287 737.928 107.215 737.416 107.215 736.876V736.732H109.735V736.852C109.735 737.324 109.831 737.754 110.023 738.142C110.219 738.53 110.493 738.864 110.845 739.144C111.197 739.42 111.619 739.634 112.111 739.786C112.603 739.938 113.147 740.014 113.743 740.014C114.595 740.014 115.351 739.856 116.011 739.54C116.675 739.22 117.233 738.754 117.685 738.142C118.137 737.526 118.481 736.772 118.717 735.88C118.953 734.984 119.071 733.96 119.071 732.808V730.96C118.987 731.608 118.785 732.188 118.465 732.7C118.149 733.212 117.729 733.648 117.205 734.008C116.681 734.364 116.061 734.638 115.345 734.83C114.629 735.018 113.831 735.112 112.951 735.112C111.991 735.112 111.131 734.998 110.371 734.77C109.611 734.542 108.965 734.214 108.433 733.786C107.905 733.358 107.501 732.836 107.221 732.22C106.941 731.604 106.801 730.906 106.801 730.126C106.801 729.274 106.967 728.5 107.299 727.804C107.635 727.108 108.109 726.514 108.721 726.022C109.337 725.53 110.079 725.15 110.947 724.882C111.815 724.614 112.781 724.48 113.845 724.48C115.093 724.48 116.197 724.668 117.157 725.044C118.117 725.42 118.925 725.97 119.581 726.694C120.237 727.418 120.733 728.308 121.069 729.364C121.409 730.416 121.579 731.62 121.579 732.976V733.12C121.579 734.56 121.399 735.85 121.039 736.99C120.683 738.13 120.169 739.098 119.497 739.894C118.825 740.69 118.005 741.3 117.037 741.724C116.073 742.144 114.983 742.354 113.767 742.354ZM113.581 726.82C112.897 726.82 112.289 726.892 111.757 727.036C111.229 727.176 110.783 727.386 110.419 727.666C110.059 727.942 109.785 728.284 109.597 728.692C109.413 729.096 109.321 729.562 109.321 730.09C109.321 730.61 109.413 731.074 109.597 731.482C109.781 731.886 110.049 732.226 110.401 732.502C110.757 732.778 111.193 732.988 111.709 733.132C112.225 733.276 112.817 733.348 113.485 733.348C114.213 733.348 114.885 733.266 115.501 733.102C116.117 732.934 116.649 732.702 117.097 732.406C117.545 732.11 117.895 731.76 118.147 731.356C118.399 730.948 118.525 730.502 118.525 730.018C118.525 729.546 118.405 729.114 118.165 728.722C117.925 728.33 117.587 727.994 117.151 727.714C116.715 727.43 116.193 727.21 115.585 727.054C114.981 726.898 114.313 726.82 113.581 726.82ZM129.338 739.66H132.374V742H123.782V739.66H126.818V729.628H123.074V727.468H124.616C125.076 727.468 125.462 727.422 125.774 727.33C126.086 727.234 126.336 727.072 126.524 726.844C126.716 726.616 126.852 726.31 126.932 725.926C127.016 725.538 127.058 725.054 127.058 724.474H129.338V739.66ZM141.308 724.48C141.956 724.48 142.568 724.54 143.144 724.66C143.72 724.78 144.25 724.954 144.734 725.182C145.222 725.406 145.658 725.68 146.042 726.004C146.43 726.324 146.758 726.688 147.026 727.096C147.294 727.5 147.5 727.944 147.644 728.428C147.788 728.908 147.86 729.418 147.86 729.958V730.102H145.34V729.982C145.34 729.51 145.242 729.08 145.046 728.692C144.854 728.304 144.582 727.972 144.23 727.696C143.878 727.416 143.456 727.2 142.964 727.048C142.472 726.896 141.928 726.82 141.332 726.82C140.48 726.82 139.722 726.98 139.058 727.3C138.398 727.616 137.842 728.08 137.39 728.692C136.938 729.304 136.594 730.058 136.358 730.954C136.122 731.85 136.004 732.874 136.004 734.026V735.874C136.088 735.226 136.288 734.646 136.604 734.134C136.924 733.622 137.346 733.188 137.87 732.832C138.394 732.472 139.014 732.198 139.73 732.01C140.446 731.818 141.244 731.722 142.124 731.722C143.084 731.722 143.944 731.836 144.704 732.064C145.464 732.292 146.108 732.62 146.636 733.048C147.168 733.476 147.574 733.998 147.854 734.614C148.134 735.23 148.274 735.928 148.274 736.708C148.274 737.56 148.106 738.334 147.77 739.03C147.438 739.726 146.964 740.32 146.348 740.812C145.736 741.304 144.996 741.684 144.128 741.952C143.26 742.22 142.294 742.354 141.23 742.354C139.982 742.354 138.878 742.166 137.918 741.79C136.958 741.414 136.15 740.864 135.494 740.14C134.838 739.416 134.34 738.528 134 737.476C133.664 736.42 133.496 735.214 133.496 733.858V733.714C133.496 732.274 133.674 730.984 134.03 729.844C134.39 728.7 134.906 727.732 135.578 726.94C136.25 726.144 137.068 725.536 138.032 725.116C139 724.692 140.092 724.48 141.308 724.48ZM141.494 740.014C142.178 740.014 142.784 739.944 143.312 739.804C143.844 739.66 144.29 739.45 144.65 739.174C145.014 738.894 145.288 738.552 145.472 738.148C145.66 737.74 145.754 737.272 145.754 736.744C145.754 736.22 145.662 735.756 145.478 735.352C145.294 734.948 145.024 734.608 144.668 734.332C144.316 734.056 143.882 733.846 143.366 733.702C142.85 733.558 142.258 733.486 141.59 733.486C140.862 733.486 140.19 733.57 139.574 733.738C138.958 733.902 138.426 734.132 137.978 734.428C137.53 734.724 137.18 735.076 136.928 735.484C136.676 735.888 136.55 736.332 136.55 736.816C136.55 737.288 136.67 737.72 136.91 738.112C137.15 738.504 137.488 738.842 137.924 739.126C138.36 739.406 138.88 739.624 139.484 739.78C140.092 739.936 140.762 740.014 141.494 740.014ZM161.721 724.84V727.18H152.649V732.268H161.001V734.608H152.649V739.66H161.961V742H150.129V724.84H161.721Z" fill="white"/>
<path d="M544.84 733.42C544.84 732.532 544.924 731.696 545.092 730.912C545.26 730.124 545.5 729.4 545.812 728.74C546.128 728.076 546.512 727.482 546.964 726.958C547.416 726.43 547.926 725.984 548.494 725.62C549.066 725.252 549.69 724.97 550.366 724.774C551.042 724.578 551.76 724.48 552.52 724.48C553.284 724.48 554.002 724.578 554.674 724.774C555.35 724.97 555.972 725.252 556.54 725.62C557.112 725.984 557.624 726.43 558.076 726.958C558.528 727.482 558.91 728.076 559.222 728.74C559.538 729.4 559.78 730.124 559.948 730.912C560.116 731.696 560.2 732.532 560.2 733.42C560.2 734.304 560.116 735.14 559.948 735.928C559.78 736.716 559.538 737.442 559.222 738.106C558.91 738.766 558.528 739.36 558.076 739.888C557.624 740.412 557.112 740.858 556.54 741.226C555.972 741.59 555.35 741.87 554.674 742.066C553.998 742.262 553.28 742.36 552.52 742.36C551.76 742.36 551.042 742.262 550.366 742.066C549.69 741.87 549.066 741.59 548.494 741.226C547.926 740.858 547.416 740.412 546.964 739.888C546.512 739.36 546.128 738.766 545.812 738.106C545.5 737.442 545.26 736.716 545.092 735.928C544.924 735.14 544.84 734.304 544.84 733.42ZM547.36 733.42C547.36 734.452 547.478 735.376 547.714 736.192C547.95 737.008 548.29 737.7 548.734 738.268C549.178 738.832 549.718 739.266 550.354 739.57C550.994 739.87 551.716 740.02 552.52 740.02C553.324 740.02 554.044 739.87 554.68 739.57C555.32 739.266 555.862 738.832 556.306 738.268C556.75 737.7 557.09 737.008 557.326 736.192C557.562 735.376 557.68 734.452 557.68 733.42C557.68 732.388 557.562 731.464 557.326 730.648C557.09 729.832 556.75 729.142 556.306 728.578C555.862 728.01 555.32 727.576 554.68 727.276C554.044 726.972 553.324 726.82 552.52 726.82C551.716 726.82 550.994 726.972 550.354 727.276C549.718 727.576 549.178 728.01 548.734 728.578C548.29 729.142 547.95 729.832 547.714 730.648C547.478 731.464 547.36 732.388 547.36 733.42ZM561.879 733.42C561.879 732.532 561.963 731.696 562.131 730.912C562.299 730.124 562.539 729.4 562.851 728.74C563.167 728.076 563.551 727.482 564.003 726.958C564.455 726.43 564.965 725.984 565.533 725.62C566.105 725.252 566.729 724.97 567.405 724.774C568.081 724.578 568.799 724.48 569.559 724.48C570.323 724.48 571.041 724.578 571.713 724.774C572.389 724.97 573.011 725.252 573.579 725.62C574.151 725.984 574.663 726.43 575.115 726.958C575.567 727.482 575.949 728.076 576.261 728.74C576.577 729.4 576.819 730.124 576.987 730.912C577.155 731.696 577.239 732.532 577.239 733.42C577.239 734.304 577.155 735.14 576.987 735.928C576.819 736.716 576.577 737.442 576.261 738.106C575.949 738.766 575.567 739.36 575.115 739.888C574.663 740.412 574.151 740.858 573.579 741.226C573.011 741.59 572.389 741.87 571.713 742.066C571.037 742.262 570.319 742.36 569.559 742.36C568.799 742.36 568.081 742.262 567.405 742.066C566.729 741.87 566.105 741.59 565.533 741.226C564.965 740.858 564.455 740.412 564.003 739.888C563.551 739.36 563.167 738.766 562.851 738.106C562.539 737.442 562.299 736.716 562.131 735.928C561.963 735.14 561.879 734.304 561.879 733.42ZM564.399 733.42C564.399 734.452 564.517 735.376 564.753 736.192C564.989 737.008 565.329 737.7 565.773 738.268C566.217 738.832 566.757 739.266 567.393 739.57C568.033 739.87 568.755 740.02 569.559 740.02C570.363 740.02 571.083 739.87 571.719 739.57C572.359 739.266 572.901 738.832 573.345 738.268C573.789 737.7 574.129 737.008 574.365 736.192C574.601 735.376 574.719 734.452 574.719 733.42C574.719 732.388 574.601 731.464 574.365 730.648C574.129 729.832 573.789 729.142 573.345 728.578C572.901 728.01 572.359 727.576 571.719 727.276C571.083 726.972 570.363 726.82 569.559 726.82C568.755 726.82 568.033 726.972 567.393 727.276C566.757 727.576 566.217 728.01 565.773 728.578C565.329 729.142 564.989 729.832 564.753 730.648C564.517 731.464 564.399 732.388 564.399 733.42ZM578.918 733.42C578.918 732.532 579.002 731.696 579.17 730.912C579.338 730.124 579.578 729.4 579.89 728.74C580.206 728.076 580.59 727.482 581.042 726.958C581.494 726.43 582.004 725.984 582.572 725.62C583.144 725.252 583.768 724.97 584.444 724.774C585.12 724.578 585.838 724.48 586.598 724.48C587.362 724.48 588.08 724.578 588.752 724.774C589.428 724.97 590.05 725.252 590.618 725.62C591.19 725.984 591.702 726.43 592.154 726.958C592.606 727.482 592.988 728.076 593.3 728.74C593.616 729.4 593.858 730.124 594.026 730.912C594.194 731.696 594.278 732.532 594.278 733.42C594.278 734.304 594.194 735.14 594.026 735.928C593.858 736.716 593.616 737.442 593.3 738.106C592.988 738.766 592.606 739.36 592.154 739.888C591.702 740.412 591.19 740.858 590.618 741.226C590.05 741.59 589.428 741.87 588.752 742.066C588.076 742.262 587.358 742.36 586.598 742.36C585.838 742.36 585.12 742.262 584.444 742.066C583.768 741.87 583.144 741.59 582.572 741.226C582.004 740.858 581.494 740.412 581.042 739.888C580.59 739.36 580.206 738.766 579.89 738.106C579.578 737.442 579.338 736.716 579.17 735.928C579.002 735.14 578.918 734.304 578.918 733.42ZM581.438 733.42C581.438 734.452 581.556 735.376 581.792 736.192C582.028 737.008 582.368 737.7 582.812 738.268C583.256 738.832 583.796 739.266 584.432 739.57C585.072 739.87 585.794 740.02 586.598 740.02C587.402 740.02 588.122 739.87 588.758 739.57C589.398 739.266 589.94 738.832 590.384 738.268C590.828 737.7 591.168 737.008 591.404 736.192C591.64 735.376 591.758 734.452 591.758 733.42C591.758 732.388 591.64 731.464 591.404 730.648C591.168 729.832 590.828 729.142 590.384 728.578C589.94 728.01 589.398 727.576 588.758 727.276C588.122 726.972 587.402 726.82 586.598 726.82C585.794 726.82 585.072 726.972 584.432 727.276C583.796 727.576 583.256 728.01 582.812 728.578C582.368 729.142 582.028 729.832 581.792 730.648C581.556 731.464 581.438 732.388 581.438 733.42ZM595.957 733.42C595.957 732.532 596.041 731.696 596.209 730.912C596.377 730.124 596.617 729.4 596.929 728.74C597.245 728.076 597.629 727.482 598.081 726.958C598.533 726.43 599.043 725.984 599.611 725.62C600.183 725.252 600.807 724.97 601.483 724.774C602.159 724.578 602.877 724.48 603.637 724.48C604.401 724.48 605.119 724.578 605.791 724.774C606.467 724.97 607.089 725.252 607.657 725.62C608.229 725.984 608.741 726.43 609.193 726.958C609.645 727.482 610.027 728.076 610.339 728.74C610.655 729.4 610.897 730.124 611.065 730.912C611.233 731.696 611.317 732.532 611.317 733.42C611.317 734.304 611.233 735.14 611.065 735.928C610.897 736.716 610.655 737.442 610.339 738.106C610.027 738.766 609.645 739.36 609.193 739.888C608.741 740.412 608.229 740.858 607.657 741.226C607.089 741.59 606.467 741.87 605.791 742.066C605.115 742.262 604.397 742.36 603.637 742.36C602.877 742.36 602.159 742.262 601.483 742.066C600.807 741.87 600.183 741.59 599.611 741.226C599.043 740.858 598.533 740.412 598.081 739.888C597.629 739.36 597.245 738.766 596.929 738.106C596.617 737.442 596.377 736.716 596.209 735.928C596.041 735.14 595.957 734.304 595.957 733.42ZM598.477 733.42C598.477 734.452 598.595 735.376 598.831 736.192C599.067 737.008 599.407 737.7 599.851 738.268C600.295 738.832 600.835 739.266 601.471 739.57C602.111 739.87 602.833 740.02 603.637 740.02C604.441 740.02 605.161 739.87 605.797 739.57C606.437 739.266 606.979 738.832 607.423 738.268C607.867 737.7 608.207 737.008 608.443 736.192C608.679 735.376 608.797 734.452 608.797 733.42C608.797 732.388 608.679 731.464 608.443 730.648C608.207 729.832 607.867 729.142 607.423 728.578C606.979 728.01 606.437 727.576 605.797 727.276C605.161 726.972 604.441 726.82 603.637 726.82C602.833 726.82 602.111 726.972 601.471 727.276C600.835 727.576 600.295 728.01 599.851 728.578C599.407 729.142 599.067 729.832 598.831 730.648C598.595 731.464 598.477 732.388 598.477 733.42ZM612.996 733.42C612.996 732.532 613.08 731.696 613.248 730.912C613.416 730.124 613.656 729.4 613.968 728.74C614.284 728.076 614.668 727.482 615.12 726.958C615.572 726.43 616.082 725.984 616.65 725.62C617.222 725.252 617.846 724.97 618.522 724.774C619.198 724.578 619.916 724.48 620.676 724.48C621.44 724.48 622.158 724.578 622.83 724.774C623.506 724.97 624.128 725.252 624.696 725.62C625.268 725.984 625.78 726.43 626.232 726.958C626.684 727.482 627.066 728.076 627.378 728.74C627.694 729.4 627.936 730.124 628.104 730.912C628.272 731.696 628.356 732.532 628.356 733.42C628.356 734.304 628.272 735.14 628.104 735.928C627.936 736.716 627.694 737.442 627.378 738.106C627.066 738.766 626.684 739.36 626.232 739.888C625.78 740.412 625.268 740.858 624.696 741.226C624.128 741.59 623.506 741.87 622.83 742.066C622.154 742.262 621.436 742.36 620.676 742.36C619.916 742.36 619.198 742.262 618.522 742.066C617.846 741.87 617.222 741.59 616.65 741.226C616.082 740.858 615.572 740.412 615.12 739.888C614.668 739.36 614.284 738.766 613.968 738.106C613.656 737.442 613.416 736.716 613.248 735.928C613.08 735.14 612.996 734.304 612.996 733.42ZM615.516 733.42C615.516 734.452 615.634 735.376 615.87 736.192C616.106 737.008 616.446 737.7 616.89 738.268C617.334 738.832 617.874 739.266 618.51 739.57C619.15 739.87 619.872 740.02 620.676 740.02C621.48 740.02 622.2 739.87 622.836 739.57C623.476 739.266 624.018 738.832 624.462 738.268C624.906 737.7 625.246 737.008 625.482 736.192C625.718 735.376 625.836 734.452 625.836 733.42C625.836 732.388 625.718 731.464 625.482 730.648C625.246 729.832 624.906 729.142 624.462 728.578C624.018 728.01 623.476 727.576 622.836 727.276C622.2 726.972 621.48 726.82 620.676 726.82C619.872 726.82 619.15 726.972 618.51 727.276C617.874 727.576 617.334 728.01 616.89 728.578C616.446 729.142 616.106 729.832 615.87 730.648C615.634 731.464 615.516 732.388 615.516 733.42ZM630.035 733.42C630.035 732.532 630.119 731.696 630.287 730.912C630.455 730.124 630.695 729.4 631.007 728.74C631.323 728.076 631.707 727.482 632.159 726.958C632.611 726.43 633.121 725.984 633.689 725.62C634.261 725.252 634.885 724.97 635.561 724.774C636.237 724.578 636.955 724.48 637.715 724.48C638.479 724.48 639.197 724.578 639.869 724.774C640.545 724.97 641.167 725.252 641.735 725.62C642.307 725.984 642.819 726.43 643.271 726.958C643.723 727.482 644.105 728.076 644.417 728.74C644.733 729.4 644.975 730.124 645.143 730.912C645.311 731.696 645.395 732.532 645.395 733.42C645.395 734.304 645.311 735.14 645.143 735.928C644.975 736.716 644.733 737.442 644.417 738.106C644.105 738.766 643.723 739.36 643.271 739.888C642.819 740.412 642.307 740.858 641.735 741.226C641.167 741.59 640.545 741.87 639.869 742.066C639.193 742.262 638.475 742.36 637.715 742.36C636.955 742.36 636.237 742.262 635.561 742.066C634.885 741.87 634.261 741.59 633.689 741.226C633.121 740.858 632.611 740.412 632.159 739.888C631.707 739.36 631.323 738.766 631.007 738.106C630.695 737.442 630.455 736.716 630.287 735.928C630.119 735.14 630.035 734.304 630.035 733.42ZM632.555 733.42C632.555 734.452 632.673 735.376 632.909 736.192C633.145 737.008 633.485 737.7 633.929 738.268C634.373 738.832 634.913 739.266 635.549 739.57C636.189 739.87 636.911 740.02 637.715 740.02C638.519 740.02 639.239 739.87 639.875 739.57C640.515 739.266 641.057 738.832 641.501 738.268C641.945 737.7 642.285 737.008 642.521 736.192C642.757 735.376 642.875 734.452 642.875 733.42C642.875 732.388 642.757 731.464 642.521 730.648C642.285 729.832 641.945 729.142 641.501 728.578C641.057 728.01 640.515 727.576 639.875 727.276C639.239 726.972 638.519 726.82 637.715 726.82C636.911 726.82 636.189 726.972 635.549 727.276C634.913 727.576 634.373 728.01 633.929 728.578C633.485 729.142 633.145 729.832 632.909 730.648C632.673 731.464 632.555 732.388 632.555 733.42Z" fill="#F7F8F6"/>
<path d="M544.323 367.876C544.323 366.988 544.407 366.152 544.575 365.368C544.743 364.58 544.983 363.856 545.295 363.196C545.611 362.532 545.995 361.938 546.447 361.414C546.899 360.886 547.409 360.44 547.977 360.076C548.549 359.708 549.173 359.426 549.849 359.23C550.525 359.034 551.243 358.936 552.003 358.936C552.767 358.936 553.485 359.034 554.157 359.23C554.833 359.426 555.455 359.708 556.023 360.076C556.595 360.44 557.107 360.886 557.559 361.414C558.011 361.938 558.393 362.532 558.705 363.196C559.021 363.856 559.263 364.58 559.431 365.368C559.599 366.152 559.683 366.988 559.683 367.876C559.683 368.76 559.599 369.596 559.431 370.384C559.263 371.172 559.021 371.898 558.705 372.562C558.393 373.222 558.011 373.816 557.559 374.344C557.107 374.868 556.595 375.314 556.023 375.682C555.455 376.046 554.833 376.326 554.157 376.522C553.481 376.718 552.763 376.816 552.003 376.816C551.243 376.816 550.525 376.718 549.849 376.522C549.173 376.326 548.549 376.046 547.977 375.682C547.409 375.314 546.899 374.868 546.447 374.344C545.995 373.816 545.611 373.222 545.295 372.562C544.983 371.898 544.743 371.172 544.575 370.384C544.407 369.596 544.323 368.76 544.323 367.876ZM546.843 367.876C546.843 368.908 546.961 369.832 547.197 370.648C547.433 371.464 547.773 372.156 548.217 372.724C548.661 373.288 549.201 373.722 549.837 374.026C550.477 374.326 551.199 374.476 552.003 374.476C552.807 374.476 553.527 374.326 554.163 374.026C554.803 373.722 555.345 373.288 555.789 372.724C556.233 372.156 556.573 371.464 556.809 370.648C557.045 369.832 557.163 368.908 557.163 367.876C557.163 366.844 557.045 365.92 556.809 365.104C556.573 364.288 556.233 363.598 555.789 363.034C555.345 362.466 554.803 362.032 554.163 361.732C553.527 361.428 552.807 361.276 552.003 361.276C551.199 361.276 550.477 361.428 549.837 361.732C549.201 362.032 548.661 362.466 548.217 363.034C547.773 363.598 547.433 364.288 547.197 365.104C546.961 365.92 546.843 366.844 546.843 367.876ZM561.362 367.876C561.362 366.988 561.446 366.152 561.614 365.368C561.782 364.58 562.022 363.856 562.334 363.196C562.65 362.532 563.034 361.938 563.486 361.414C563.938 360.886 564.448 360.44 565.016 360.076C565.588 359.708 566.212 359.426 566.888 359.23C567.564 359.034 568.282 358.936 569.042 358.936C569.806 358.936 570.524 359.034 571.196 359.23C571.872 359.426 572.494 359.708 573.062 360.076C573.634 360.44 574.146 360.886 574.598 361.414C575.05 361.938 575.432 362.532 575.744 363.196C576.06 363.856 576.302 364.58 576.47 365.368C576.638 366.152 576.722 366.988 576.722 367.876C576.722 368.76 576.638 369.596 576.47 370.384C576.302 371.172 576.06 371.898 575.744 372.562C575.432 373.222 575.05 373.816 574.598 374.344C574.146 374.868 573.634 375.314 573.062 375.682C572.494 376.046 571.872 376.326 571.196 376.522C570.52 376.718 569.802 376.816 569.042 376.816C568.282 376.816 567.564 376.718 566.888 376.522C566.212 376.326 565.588 376.046 565.016 375.682C564.448 375.314 563.938 374.868 563.486 374.344C563.034 373.816 562.65 373.222 562.334 372.562C562.022 371.898 561.782 371.172 561.614 370.384C561.446 369.596 561.362 368.76 561.362 367.876ZM563.882 367.876C563.882 368.908 564 369.832 564.236 370.648C564.472 371.464 564.812 372.156 565.256 372.724C565.7 373.288 566.24 373.722 566.876 374.026C567.516 374.326 568.238 374.476 569.042 374.476C569.846 374.476 570.566 374.326 571.202 374.026C571.842 373.722 572.384 373.288 572.828 372.724C573.272 372.156 573.612 371.464 573.848 370.648C574.084 369.832 574.202 368.908 574.202 367.876C574.202 366.844 574.084 365.92 573.848 365.104C573.612 364.288 573.272 363.598 572.828 363.034C572.384 362.466 571.842 362.032 571.202 361.732C570.566 361.428 569.846 361.276 569.042 361.276C568.238 361.276 567.516 361.428 566.876 361.732C566.24 362.032 565.7 362.466 565.256 363.034C564.812 363.598 564.472 364.288 564.236 365.104C564 365.92 563.882 366.844 563.882 367.876ZM592.777 370.714C592.777 371.314 592.697 371.882 592.537 372.418C592.381 372.95 592.153 373.442 591.853 373.894C591.557 374.346 591.195 374.752 590.767 375.112C590.343 375.472 589.863 375.778 589.327 376.03C588.795 376.282 588.213 376.474 587.581 376.606C586.953 376.742 586.285 376.81 585.577 376.81C584.909 376.81 584.271 376.75 583.663 376.63C583.059 376.514 582.497 376.346 581.977 376.126C581.461 375.906 580.993 375.64 580.573 375.328C580.157 375.016 579.801 374.668 579.505 374.284C579.209 373.896 578.981 373.476 578.821 373.024C578.661 372.572 578.581 372.098 578.581 371.602V371.47H581.101V371.572C581.101 371.832 581.155 372.084 581.263 372.328C581.371 372.572 581.523 372.8 581.719 373.012C581.915 373.22 582.149 373.412 582.421 373.588C582.693 373.76 582.995 373.908 583.327 374.032C583.663 374.156 584.021 374.252 584.401 374.32C584.785 374.388 585.183 374.422 585.595 374.422C586.275 374.422 586.899 374.33 587.467 374.146C588.039 373.962 588.531 373.706 588.943 373.378C589.355 373.05 589.677 372.658 589.909 372.202C590.141 371.746 590.257 371.248 590.257 370.708C590.257 370.196 590.151 369.728 589.939 369.304C589.727 368.88 589.419 368.516 589.015 368.212C588.615 367.908 588.123 367.674 587.539 367.51C586.959 367.342 586.301 367.258 585.565 367.258C585.013 367.258 584.501 367.308 584.029 367.408C583.557 367.508 583.137 367.644 582.769 367.816C582.405 367.988 582.103 368.19 581.863 368.422C581.627 368.654 581.467 368.9 581.383 369.16H578.863V359.296H591.643V361.636H581.383V367.792C581.571 367.424 581.829 367.09 582.157 366.79C582.489 366.486 582.879 366.224 583.327 366.004C583.779 365.784 584.285 365.614 584.845 365.494C585.405 365.374 586.005 365.314 586.645 365.314C587.589 365.314 588.439 365.444 589.195 365.704C589.951 365.964 590.593 366.332 591.121 366.808C591.653 367.28 592.061 367.848 592.345 368.512C592.633 369.176 592.777 369.91 592.777 370.714ZM602.982 359.296C603.51 359.296 604.012 359.348 604.488 359.452C604.968 359.552 605.412 359.696 605.82 359.884C606.228 360.068 606.596 360.294 606.924 360.562C607.256 360.826 607.536 361.124 607.764 361.456C607.996 361.784 608.174 362.142 608.298 362.53C608.426 362.914 608.49 363.32 608.49 363.748C608.49 364.256 608.404 364.732 608.232 365.176C608.06 365.616 607.818 366.006 607.506 366.346C607.198 366.682 606.832 366.96 606.408 367.18C605.984 367.4 605.52 367.54 605.016 367.6C605.632 367.656 606.196 367.802 606.708 368.038C607.224 368.27 607.668 368.572 608.04 368.944C608.412 369.316 608.7 369.748 608.904 370.24C609.112 370.732 609.216 371.266 609.216 371.842C609.216 372.294 609.152 372.722 609.024 373.126C608.896 373.53 608.71 373.904 608.466 374.248C608.226 374.588 607.934 374.894 607.59 375.166C607.246 375.438 606.858 375.67 606.426 375.862C605.998 376.054 605.53 376.202 605.022 376.306C604.514 376.406 603.976 376.456 603.408 376.456H594.636V359.296H602.982ZM602.862 366.706C603.33 366.706 603.756 366.642 604.14 366.514C604.524 366.386 604.852 366.208 605.124 365.98C605.4 365.748 605.612 365.47 605.76 365.146C605.912 364.822 605.988 364.464 605.988 364.072C605.988 363.692 605.916 363.352 605.772 363.052C605.628 362.752 605.42 362.498 605.148 362.29C604.88 362.078 604.552 361.916 604.164 361.804C603.776 361.692 603.336 361.636 602.844 361.636H597.156V366.706H602.862ZM603.048 374.116C605.492 374.116 606.714 373.248 606.714 371.512C606.714 370.64 606.412 369.992 605.808 369.568C605.204 369.14 604.286 368.926 603.054 368.926H597.156V374.116H603.048ZM621.057 376.456V372.394H610.737V368.89L620.775 359.296H623.577V370.054H626.097V372.394H623.577V376.456H621.057ZM621.057 370.054V362.122L612.753 370.054H621.057ZM642.324 370.714C642.324 371.314 642.244 371.882 642.084 372.418C641.928 372.95 641.7 373.442 641.4 373.894C641.104 374.346 640.742 374.752 640.314 375.112C639.89 375.472 639.41 375.778 638.874 376.03C638.342 376.282 637.76 376.474 637.128 376.606C636.5 376.742 635.832 376.81 635.124 376.81C634.456 376.81 633.818 376.75 633.21 376.63C632.606 376.514 632.044 376.346 631.524 376.126C631.008 375.906 630.54 375.64 630.12 375.328C629.704 375.016 629.348 374.668 629.052 374.284C628.756 373.896 628.528 373.476 628.368 373.024C628.208 372.572 628.128 372.098 628.128 371.602V371.47H630.648V371.572C630.648 371.832 630.702 372.084 630.81 372.328C630.918 372.572 631.07 372.8 631.266 373.012C631.462 373.22 631.696 373.412 631.968 373.588C632.24 373.76 632.542 373.908 632.874 374.032C633.21 374.156 633.568 374.252 633.948 374.32C634.332 374.388 634.73 374.422 635.142 374.422C635.822 374.422 636.446 374.33 637.014 374.146C637.586 373.962 638.078 373.706 638.49 373.378C638.902 373.05 639.224 372.658 639.456 372.202C639.688 371.746 639.804 371.248 639.804 370.708C639.804 370.196 639.698 369.728 639.486 369.304C639.274 368.88 638.966 368.516 638.562 368.212C638.162 367.908 637.67 367.674 637.086 367.51C636.506 367.342 635.848 367.258 635.112 367.258C634.56 367.258 634.048 367.308 633.576 367.408C633.104 367.508 632.684 367.644 632.316 367.816C631.952 367.988 631.65 368.19 631.41 368.422C631.174 368.654 631.014 368.9 630.93 369.16H628.41V359.296H641.19V361.636H630.93V367.792C631.118 367.424 631.376 367.09 631.704 366.79C632.036 366.486 632.426 366.224 632.874 366.004C633.326 365.784 633.832 365.614 634.392 365.494C634.952 365.374 635.552 365.314 636.192 365.314C637.136 365.314 637.986 365.444 638.742 365.704C639.498 365.964 640.14 366.332 640.668 366.808C641.2 367.28 641.608 367.848 641.892 368.512C642.18 369.176 642.324 369.91 642.324 370.714Z" fill="white"/>
<path d="M923.36 367.876C923.36 368.908 923.486 369.832 923.738 370.648C923.994 371.464 924.362 372.156 924.842 372.724C925.322 373.288 925.906 373.722 926.594 374.026C927.286 374.326 928.066 374.476 928.934 374.476C929.638 374.476 930.276 374.376 930.848 374.176C931.424 373.976 931.93 373.68 932.366 373.288C932.806 372.892 933.172 372.404 933.464 371.824C933.76 371.24 933.982 370.564 934.13 369.796H936.65C936.47 370.892 936.158 371.874 935.714 372.742C935.274 373.61 934.722 374.346 934.058 374.95C933.394 375.554 932.63 376.016 931.766 376.336C930.902 376.656 929.956 376.816 928.928 376.816C928.128 376.816 927.372 376.718 926.66 376.522C925.948 376.326 925.292 376.046 924.692 375.682C924.096 375.314 923.56 374.868 923.084 374.344C922.608 373.816 922.202 373.222 921.866 372.562C921.534 371.898 921.28 371.172 921.104 370.384C920.928 369.596 920.84 368.76 920.84 367.876C920.84 366.988 920.928 366.152 921.104 365.368C921.28 364.58 921.534 363.856 921.866 363.196C922.202 362.532 922.608 361.938 923.084 361.414C923.56 360.886 924.096 360.44 924.692 360.076C925.292 359.708 925.948 359.426 926.66 359.23C927.372 359.034 928.128 358.936 928.928 358.936C929.956 358.936 930.902 359.096 931.766 359.416C932.63 359.736 933.394 360.198 934.058 360.802C934.722 361.406 935.274 362.142 935.714 363.01C936.158 363.878 936.47 364.86 936.65 365.956H934.13C933.982 365.188 933.76 364.514 933.464 363.934C933.172 363.35 932.806 362.862 932.366 362.47C931.93 362.074 931.424 361.776 930.848 361.576C930.276 361.376 929.638 361.276 928.934 361.276C928.066 361.276 927.286 361.428 926.594 361.732C925.906 362.032 925.322 362.466 924.842 363.034C924.362 363.598 923.994 364.288 923.738 365.104C923.486 365.92 923.36 366.844 923.36 367.876ZM940.962 367.876C940.962 368.908 941.088 369.832 941.34 370.648C941.596 371.464 941.964 372.156 942.444 372.724C942.924 373.288 943.508 373.722 944.196 374.026C944.888 374.326 945.668 374.476 946.536 374.476C947.24 374.476 947.878 374.376 948.45 374.176C949.026 373.976 949.532 373.68 949.968 373.288C950.408 372.892 950.774 372.404 951.066 371.824C951.362 371.24 951.584 370.564 951.732 369.796H954.252C954.072 370.892 953.76 371.874 953.316 372.742C952.876 373.61 952.324 374.346 951.66 374.95C950.996 375.554 950.232 376.016 949.368 376.336C948.504 376.656 947.558 376.816 946.53 376.816C945.73 376.816 944.974 376.718 944.262 376.522C943.55 376.326 942.894 376.046 942.294 375.682C941.698 375.314 941.162 374.868 940.686 374.344C940.21 373.816 939.804 373.222 939.468 372.562C939.136 371.898 938.882 371.172 938.706 370.384C938.53 369.596 938.442 368.76 938.442 367.876C938.442 366.988 938.53 366.152 938.706 365.368C938.882 364.58 939.136 363.856 939.468 363.196C939.804 362.532 940.21 361.938 940.686 361.414C941.162 360.886 941.698 360.44 942.294 360.076C942.894 359.708 943.55 359.426 944.262 359.23C944.974 359.034 945.73 358.936 946.53 358.936C947.558 358.936 948.504 359.096 949.368 359.416C950.232 359.736 950.996 360.198 951.66 360.802C952.324 361.406 952.876 362.142 953.316 363.01C953.76 363.878 954.072 364.86 954.252 365.956H951.732C951.584 365.188 951.362 364.514 951.066 363.934C950.774 363.35 950.408 362.862 949.968 362.47C949.532 362.074 949.026 361.776 948.45 361.576C947.878 361.376 947.24 361.276 946.536 361.276C945.668 361.276 944.888 361.428 944.196 361.732C943.508 362.032 942.924 362.466 942.444 363.034C941.964 363.598 941.596 364.288 941.34 365.104C941.088 365.92 940.962 366.844 940.962 367.876ZM967.815 361.636H958.743V366.964H967.095V369.304H958.743V376.456H956.223V359.296H967.815V361.636ZM976.134 376.81C975.486 376.81 974.874 376.75 974.298 376.63C973.722 376.51 973.19 376.338 972.702 376.114C972.218 375.886 971.782 375.612 971.394 375.292C971.01 374.968 970.684 374.604 970.416 374.2C970.148 373.792 969.942 373.348 969.798 372.868C969.654 372.384 969.582 371.872 969.582 371.332V371.188H972.102V371.308C972.102 371.78 972.198 372.21 972.39 372.598C972.586 372.986 972.86 373.32 973.212 373.6C973.564 373.876 973.986 374.09 974.478 374.242C974.97 374.394 975.514 374.47 976.11 374.47C976.962 374.47 977.718 374.312 978.378 373.996C979.042 373.676 979.6 373.21 980.052 372.598C980.504 371.982 980.848 371.228 981.084 370.336C981.32 369.44 981.438 368.416 981.438 367.264V365.416C981.354 366.064 981.152 366.644 980.832 367.156C980.516 367.668 980.096 368.104 979.572 368.464C979.048 368.82 978.428 369.094 977.712 369.286C976.996 369.474 976.198 369.568 975.318 369.568C974.358 369.568 973.498 369.454 972.738 369.226C971.978 368.998 971.332 368.67 970.8 368.242C970.272 367.814 969.868 367.292 969.588 366.676C969.308 366.06 969.168 365.362 969.168 364.582C969.168 363.73 969.334 362.956 969.666 362.26C970.002 361.564 970.476 360.97 971.088 360.478C971.704 359.986 972.446 359.606 973.314 359.338C974.182 359.07 975.148 358.936 976.212 358.936C977.46 358.936 978.564 359.124 979.524 359.5C980.484 359.876 981.292 360.426 981.948 361.15C982.604 361.874 983.1 362.764 983.436 363.82C983.776 364.872 983.946 366.076 983.946 367.432V367.576C983.946 369.016 983.766 370.306 983.406 371.446C983.05 372.586 982.536 373.554 981.864 374.35C981.192 375.146 980.372 375.756 979.404 376.18C978.44 376.6 977.35 376.81 976.134 376.81ZM975.948 361.276C975.264 361.276 974.656 361.348 974.124 361.492C973.596 361.632 973.15 361.842 972.786 362.122C972.426 362.398 972.152 362.74 971.964 363.148C971.78 363.552 971.688 364.018 971.688 364.546C971.688 365.066 971.78 365.53 971.964 365.938C972.148 366.342 972.416 366.682 972.768 366.958C973.124 367.234 973.56 367.444 974.076 367.588C974.592 367.732 975.184 367.804 975.852 367.804C976.58 367.804 977.252 367.722 977.868 367.558C978.484 367.39 979.016 367.158 979.464 366.862C979.912 366.566 980.262 366.216 980.514 365.812C980.766 365.404 980.892 364.958 980.892 364.474C980.892 364.002 980.772 363.57 980.532 363.178C980.292 362.786 979.954 362.45 979.518 362.17C979.082 361.886 978.56 361.666 977.952 361.51C977.348 361.354 976.68 361.276 975.948 361.276ZM988.141 367.876C988.141 368.908 988.267 369.832 988.519 370.648C988.775 371.464 989.143 372.156 989.623 372.724C990.103 373.288 990.687 373.722 991.375 374.026C992.067 374.326 992.847 374.476 993.715 374.476C994.419 374.476 995.057 374.376 995.629 374.176C996.205 373.976 996.711 373.68 997.147 373.288C997.587 372.892 997.953 372.404 998.245 371.824C998.541 371.24 998.763 370.564 998.911 369.796H1001.43C1001.25 370.892 1000.94 371.874 1000.5 372.742C1000.06 373.61 999.503 374.346 998.839 374.95C998.175 375.554 997.411 376.016 996.547 376.336C995.683 376.656 994.737 376.816 993.709 376.816C992.909 376.816 992.153 376.718 991.441 376.522C990.729 376.326 990.073 376.046 989.473 375.682C988.877 375.314 988.341 374.868 987.865 374.344C987.389 373.816 986.983 373.222 986.647 372.562C986.315 371.898 986.061 371.172 985.885 370.384C985.709 369.596 985.621 368.76 985.621 367.876C985.621 366.988 985.709 366.152 985.885 365.368C986.061 364.58 986.315 363.856 986.647 363.196C986.983 362.532 987.389 361.938 987.865 361.414C988.341 360.886 988.877 360.44 989.473 360.076C990.073 359.708 990.729 359.426 991.441 359.23C992.153 359.034 992.909 358.936 993.709 358.936C994.737 358.936 995.683 359.096 996.547 359.416C997.411 359.736 998.175 360.198 998.839 360.802C999.503 361.406 1000.06 362.142 1000.5 363.01C1000.94 363.878 1001.25 364.86 1001.43 365.956H998.911C998.763 365.188 998.541 364.514 998.245 363.934C997.953 363.35 997.587 362.862 997.147 362.47C996.711 362.074 996.205 361.776 995.629 361.576C995.057 361.376 994.419 361.276 993.715 361.276C992.847 361.276 992.067 361.428 991.375 361.732C990.687 362.032 990.103 362.466 989.623 363.034C989.143 363.598 988.775 364.288 988.519 365.104C988.267 365.92 988.141 366.844 988.141 367.876ZM1014.99 359.296V361.636H1005.92V366.724H1014.27V369.064H1005.92V374.116H1015.23V376.456H1003.4V359.296H1014.99Z" fill="#282828"/>
<path d="M807.612 724.84V727.18H798.54V732.268H806.892V734.608H798.54V739.66H807.852V742H796.02V724.84H807.612ZM812.829 742C812.893 741.016 812.993 740.08 813.129 739.192C813.269 738.3 813.453 737.442 813.681 736.618C813.913 735.79 814.197 734.986 814.533 734.206C814.873 733.426 815.275 732.652 815.739 731.884C816.207 731.112 816.743 730.34 817.347 729.568C817.955 728.792 818.643 727.996 819.411 727.18H809.019V724.84H821.967V727.3C821.235 728.052 820.579 728.78 819.999 729.484C819.423 730.184 818.911 730.888 818.463 731.596C818.019 732.3 817.633 733.024 817.305 733.768C816.981 734.512 816.705 735.302 816.477 736.138C816.253 736.974 816.069 737.874 815.925 738.838C815.781 739.802 815.669 740.856 815.589 742H812.829ZM835.596 724.84V727.18H826.524V732.268H834.876V734.608H826.524V739.66H835.836V742H824.004V724.84H835.596ZM840.814 742C840.878 741.016 840.978 740.08 841.114 739.192C841.254 738.3 841.438 737.442 841.666 736.618C841.898 735.79 842.182 734.986 842.518 734.206C842.858 733.426 843.26 732.652 843.724 731.884C844.192 731.112 844.728 730.34 845.332 729.568C845.94 728.792 846.628 727.996 847.396 727.18H837.004V724.84H849.952V727.3C849.22 728.052 848.564 728.78 847.984 729.484C847.408 730.184 846.896 730.888 846.448 731.596C846.004 732.3 845.618 733.024 845.29 733.768C844.966 734.512 844.69 735.302 844.462 736.138C844.238 736.974 844.054 737.874 843.91 738.838C843.766 739.802 843.654 740.856 843.574 742H840.814ZM863.581 724.84V727.18H854.509V732.268H862.861V734.608H854.509V739.66H863.821V742H851.989V724.84H863.581ZM868.798 742C868.862 741.016 868.962 740.08 869.098 739.192C869.238 738.3 869.422 737.442 869.65 736.618C869.882 735.79 870.166 734.986 870.502 734.206C870.842 733.426 871.244 732.652 871.708 731.884C872.176 731.112 872.712 730.34 873.316 729.568C873.924 728.792 874.612 727.996 875.38 727.18H864.988V724.84H877.936V727.3C877.204 728.052 876.548 728.78 875.968 729.484C875.392 730.184 874.88 730.888 874.432 731.596C873.988 732.3 873.602 733.024 873.274 733.768C872.95 734.512 872.674 735.302 872.446 736.138C872.222 736.974 872.038 737.874 871.894 738.838C871.75 739.802 871.638 740.856 871.558 742H868.798Z" fill="#282828"/>
<path d="M1056.61 727.18H1047.54V732.508H1055.89V734.848H1047.54V742H1045.02V724.84H1056.61V727.18ZM1069.74 727.18H1060.67V732.508H1069.02V734.848H1060.67V742H1058.15V724.84H1069.74V727.18ZM1082.86 727.18H1073.79V732.508H1082.14V734.848H1073.79V742H1071.27V724.84H1082.86V727.18ZM1095.99 727.18H1086.92V732.508H1095.27V734.848H1086.92V742H1084.4V724.84H1095.99V727.18ZM1109.11 727.18H1100.04V732.508H1108.39V734.848H1100.04V742H1097.52V724.84H1109.11V727.18ZM1122.24 727.18H1113.17V732.508H1121.52V734.848H1113.17V742H1110.65V724.84H1122.24V727.18Z" fill="#282828"/>
</svg>
